<svg width="147" height="32" viewBox="0 0 147 32" fill="none" xmlns="http://www.w3.org/2000/svg">
<path d="M48.8356 0H51.4952L60.6436 21.7561H60.8652L70.0137 0H72.6733V24.9756H70.5062V4.81707H70.3092L61.801 24.9756H59.7078L51.1996 4.81707H51.0026V24.9756H48.8356V0Z" fill="#323F34"/>
<path d="M86.2729 25.3659C84.6394 25.3659 83.1947 24.9553 81.9387 24.1341C80.691 23.313 79.7142 22.1789 79.0083 20.7317C78.3023 19.2764 77.9494 17.5976 77.9494 15.6951C77.9494 13.7764 78.3023 12.0894 79.0083 10.6341C79.7142 9.17073 80.691 8.03252 81.9387 7.21951C83.1947 6.39837 84.6394 5.98781 86.2729 5.98781C87.9064 5.98781 89.347 6.39837 90.5947 7.21951C91.8424 8.04065 92.8192 9.17886 93.5252 10.6341C94.2393 12.0894 94.5964 13.7764 94.5964 15.6951C94.5964 17.5976 94.2434 19.2764 93.5375 20.7317C92.8315 22.1789 91.8506 23.313 90.5947 24.1341C89.347 24.9553 87.9064 25.3659 86.2729 25.3659ZM86.2729 23.378C87.5863 23.378 88.6985 23.0285 89.6097 22.3293C90.5208 21.6301 91.2104 20.6992 91.6782 19.5366C92.1543 18.374 92.3924 17.0935 92.3924 15.6951C92.3924 14.2967 92.1543 13.0122 91.6782 11.8415C91.2104 10.6707 90.5208 9.73171 89.6097 9.02439C88.6985 8.31707 87.5863 7.96341 86.2729 7.96341C84.9677 7.96341 83.8554 8.31707 82.9361 9.02439C82.0249 9.73171 81.3313 10.6707 80.8552 11.8415C80.3873 13.0122 80.1534 14.2967 80.1534 15.6951C80.1534 17.0935 80.3873 18.374 80.8552 19.5366C81.3313 20.6992 82.0249 21.6301 82.9361 22.3293C83.8472 23.0285 84.9595 23.378 86.2729 23.378Z" fill="#323F34"/>
<path d="M99.4076 24.9756V6.2439H101.538V9.12195H101.698C102.075 8.17886 102.732 7.4187 103.668 6.84146C104.612 6.2561 105.679 5.96341 106.869 5.96341C107.05 5.96341 107.251 5.96748 107.473 5.97561C107.694 5.98374 107.879 5.99187 108.027 6V8.20732C107.928 8.19106 107.756 8.16667 107.51 8.13415C107.263 8.10163 106.996 8.08537 106.709 8.08537C105.724 8.08537 104.846 8.29268 104.074 8.70732C103.311 9.11382 102.707 9.67886 102.264 10.4024C101.821 11.126 101.599 11.9512 101.599 12.878V24.9756H99.4076Z" fill="#323F34"/>
<path d="M111.767 32V6.2439H113.897V9.81707H114.155C114.418 9.2561 114.779 8.68293 115.239 8.09756C115.699 7.50407 116.306 7.00407 117.061 6.59756C117.825 6.19106 118.785 5.98781 119.942 5.98781C121.502 5.98781 122.865 6.39431 124.03 7.20732C125.204 8.0122 126.115 9.14228 126.764 10.5976C127.42 12.0447 127.749 13.7317 127.749 15.6585C127.749 17.5935 127.42 19.2886 126.764 20.7439C126.115 22.1992 125.204 23.3333 124.03 24.1463C122.865 24.9593 121.51 25.3659 119.967 25.3659C118.826 25.3659 117.87 25.1626 117.098 24.7561C116.335 24.3496 115.715 23.8496 115.239 23.2561C114.771 22.6545 114.41 22.0691 114.155 21.5H113.958V32H111.767ZM113.934 15.622C113.934 17.1341 114.16 18.4756 114.611 19.6463C115.071 20.8089 115.727 21.7236 116.581 22.3902C117.443 23.0488 118.485 23.378 119.709 23.378C120.964 23.378 122.023 23.0366 122.885 22.3537C123.755 21.6626 124.416 20.7317 124.868 19.561C125.327 18.3902 125.557 17.0772 125.557 15.622C125.557 14.1829 125.331 12.8862 124.88 11.7317C124.437 10.5772 123.78 9.6626 122.91 8.98781C122.04 8.30488 120.973 7.96341 119.709 7.96341C118.477 7.96341 117.431 8.29268 116.569 8.95122C115.707 9.60163 115.05 10.5041 114.599 11.6585C114.155 12.8049 113.934 14.126 113.934 15.622Z" fill="#323F34"/>
<path d="M134.749 13.2683V24.9756H132.557V0H134.749V9.18293H134.946C135.389 8.21545 136.074 7.44309 137.002 6.86585C137.938 6.28862 139.12 6 140.548 6C141.829 6 142.953 6.26016 143.922 6.78049C144.89 7.30081 145.646 8.06911 146.187 9.08537C146.729 10.1016 147 11.3537 147 12.8415V24.9756H144.796V12.9756C144.796 11.4309 144.361 10.2154 143.491 9.32927C142.629 8.43496 141.463 7.9878 139.994 7.9878C138.984 7.9878 138.085 8.19919 137.297 8.62195C136.509 9.04471 135.886 9.65447 135.426 10.4512C134.974 11.2398 134.749 12.1789 134.749 13.2683Z" fill="#323F34"/>
<path d="M19.8572 0.0321582C20.1761 0.134257 20.513 0.140574 20.8415 0.223727C23.2098 0.827902 24.7745 2.90568 24.9286 5.28554C24.9754 6.01392 24.7894 7.29068 24.9732 7.92222C25.2315 8.80638 26.5486 9.07479 27.1842 8.40325C29.4079 6.28021 31.4021 3.62563 33.6322 1.54681C34.5006 0.737382 35.5489 0.230491 36.7171 0.0157662C37.256 0.000647285 37.7533 -0.0162611 38.2019 0.0311046C40.5319 0.0311046 42.9044 2.26618 42.9044 4.73188L42.9161 23.354C42.661 26.2822 38.2678 26.2169 37.9893 23.4918C37.7852 21.492 38.1466 19.1689 37.9914 17.1396C37.8691 15.547 36.2896 14.7018 35.0587 15.8691C32.3332 18.4542 29.9065 21.6214 27.1725 24.2318C24.3971 26.6527 20.0028 25.6117 18.6815 22.1856C18.0597 20.572 18.6146 19.1742 18.3265 17.668C18.1373 16.6775 16.9425 16.2281 16.1442 16.8585L9.07978 24.2697C3.57361 28.5179 -3.13902 21.7004 1.61882 16.3291C6.13323 11.2326 11.1887 6.56757 15.7159 1.47523C16.5514 0.719486 17.8694 0.134259 19.0004 0.0300542H19.8572V0.0321582Z" fill="#18C900"/>
</svg>
