<svg width="160" height="24" viewBox="0 0 160 24" fill="none" xmlns="http://www.w3.org/2000/svg">
<path fill-rule="evenodd" clip-rule="evenodd" d="M0 21.12H7.13387V13.7795C7.13387 13.1609 8.01689 13.0514 8.16797 13.6512L9.38801 18.495H13.6683V16.4704C13.6683 16.1804 13.9034 15.9454 14.1933 15.9454H20.7168V3.19999H13.5829V5.22467C13.5829 5.51462 13.3478 5.74967 13.0579 5.74967H6.17776L6.67439 7.72139C6.75791 8.05296 6.50722 8.37462 6.16529 8.37462H0V21.12Z" fill="white"/>
<path fill-rule="evenodd" clip-rule="evenodd" d="M134.593 7.65717C134.089 7.65717 133.641 7.75019 133.251 7.93624C132.865 8.11697 132.54 8.38009 132.273 8.72561C132.013 9.07112 131.815 9.48839 131.679 9.97743C131.543 10.4665 131.475 11.0166 131.475 11.6279C131.475 12.4518 131.582 13.1562 131.798 13.7409C132.019 14.3203 132.358 14.7641 132.817 15.0724C133.276 15.3754 133.868 15.5269 134.593 15.5269C135.097 15.5269 135.601 15.4738 136.105 15.3674C136.615 15.2611 137.167 15.1096 137.762 14.913V16.986C137.213 17.1987 136.672 17.3502 136.139 17.4405C135.607 17.5362 135.009 17.584 134.347 17.584C133.066 17.584 132.013 17.3369 131.186 16.8425C130.365 16.3428 129.756 15.6465 129.359 14.7535C128.963 13.8552 128.765 12.808 128.765 11.612C128.765 10.7296 128.892 9.92161 129.147 9.18806C129.402 8.45451 129.776 7.8193 130.268 7.28242C130.761 6.74555 131.37 6.33093 132.095 6.03857C132.82 5.74622 133.653 5.60004 134.593 5.60004C135.21 5.60004 135.828 5.67445 136.445 5.82329C137.068 5.96681 137.663 6.16615 138.229 6.4213L137.38 8.43059C136.915 8.22328 136.448 8.04255 135.978 7.8884C135.508 7.73425 135.046 7.65717 134.593 7.65717ZM110.724 14.8303C111.275 13.9263 111.551 12.8018 111.551 11.4568C111.551 10.1771 111.281 9.10429 110.742 8.23845C110.202 7.36716 109.442 6.71097 108.461 6.26988C107.481 5.82335 106.323 5.60008 104.989 5.60008H100.994V17.5422H104.597C106.059 17.5422 107.31 17.3162 108.348 16.8642C109.387 16.4068 110.179 15.7288 110.724 14.8303ZM109.053 9.34934C109.332 9.91568 109.471 10.6399 109.471 11.5221C109.471 12.8236 109.149 13.8038 108.505 14.4627C107.867 15.1216 106.889 15.4511 105.572 15.4511H102.97V7.67484H105.128C105.917 7.67484 107.301 7.81097 107.835 8.08325C108.374 8.35553 108.78 8.77756 109.053 9.34934ZM125.592 14.0519C125.83 13.313 125.949 12.4944 125.949 11.5961C125.949 10.3841 125.736 9.32897 125.311 8.43063C124.892 7.5323 124.246 6.83595 123.374 6.3416C122.508 5.84725 121.4 5.60008 120.052 5.60008C118.698 5.60008 117.583 5.84725 116.705 6.3416C115.827 6.83595 115.175 7.5323 114.751 8.43063C114.331 9.32365 114.122 10.3735 114.122 11.5801C114.122 12.4838 114.241 13.305 114.479 14.0439C114.717 14.7828 115.076 15.418 115.558 15.9495C116.045 16.4811 116.659 16.8904 117.401 17.1774C118.143 17.4592 119.021 17.6 120.035 17.6C121.049 17.6 121.927 17.4592 122.669 17.1774C123.411 16.8904 124.023 16.4811 124.504 15.9495C124.991 15.418 125.354 14.7854 125.592 14.0519ZM117.206 13.701C116.991 13.111 116.883 12.4094 116.883 11.5961C116.883 10.7775 116.991 10.0758 117.206 9.49109C117.427 8.90106 117.77 8.44924 118.234 8.13562C118.704 7.81668 119.31 7.65721 120.052 7.65721C121.168 7.65721 121.969 8.00804 122.457 8.7097C122.944 9.41136 123.187 10.3735 123.187 11.5961C123.187 12.4094 123.08 13.111 122.864 13.701C122.655 14.2858 122.318 14.7376 121.853 15.0565C121.389 15.3701 120.783 15.527 120.035 15.527C119.299 15.527 118.698 15.3701 118.234 15.0565C117.77 14.7376 117.427 14.2858 117.206 13.701ZM148.798 16.0004C149.155 15.4901 149.333 14.8894 149.333 14.1984C149.333 13.5871 149.212 13.0768 148.968 12.6675C148.724 12.2529 148.376 11.8941 147.923 11.5911C147.476 11.2828 146.935 10.9878 146.3 10.7061C145.779 10.4722 145.343 10.2675 144.992 10.0921C144.646 9.9167 144.386 9.73596 144.21 9.54992C144.04 9.35856 143.955 9.12467 143.955 8.84826C143.955 8.61437 144.015 8.40972 144.134 8.23431C144.253 8.05358 144.428 7.91537 144.66 7.81969C144.893 7.7187 145.173 7.6682 145.502 7.6682C145.972 7.6682 146.433 7.72933 146.886 7.85159C147.34 7.96853 147.852 8.13597 148.424 8.35391L149.274 6.43232C148.634 6.16654 148.019 5.96455 147.43 5.82635C146.847 5.68283 146.232 5.61106 145.587 5.61106C144.726 5.61106 143.978 5.74395 143.344 6.00973C142.715 6.2702 142.231 6.64761 141.891 7.14196C141.551 7.63631 141.381 8.23165 141.381 8.92799C141.381 9.45955 141.477 9.9167 141.67 10.2994C141.868 10.6768 142.12 10.9984 142.426 11.2642C142.732 11.53 143.055 11.7559 143.395 11.9419C143.734 12.1227 144.049 12.2768 144.338 12.4044C144.796 12.6117 145.207 12.8057 145.57 12.9865C145.938 13.1672 146.227 13.3612 146.436 13.5685C146.646 13.7758 146.751 14.0256 146.751 14.318C146.751 14.5572 146.691 14.7698 146.572 14.9559C146.453 15.1419 146.261 15.2881 145.994 15.3944C145.734 15.5007 145.388 15.5539 144.958 15.5539C144.335 15.5539 143.706 15.4555 143.072 15.2589C142.437 15.0622 141.826 14.8416 141.237 14.5971V16.8934C141.576 17.0476 141.933 17.1778 142.307 17.2841C142.687 17.3851 143.08 17.4622 143.488 17.5153C143.901 17.5685 144.323 17.5951 144.754 17.5951C145.728 17.5951 146.555 17.4569 147.235 17.1805C147.92 16.904 148.441 16.5107 148.798 16.0004Z" fill="white"/>
<path fill-rule="evenodd" clip-rule="evenodd" d="M91.499 17.6L91.499 4.79999L94.0886 4.79999L94.0886 17.6L91.499 17.6Z" fill="white"/>
<path d="M76.797 17.8088V4.79999H79.491V8.83273C79.491 9.20441 79.8042 9.35309 80.2636 9.01857C80.8066 8.59114 81.454 8.29379 82.2267 8.29379H82.9785C84.7954 8.29379 86.3198 9.81769 86.3198 11.8805V17.8088H83.6259V12.2708C83.6259 11.2672 83.0203 10.431 82.0596 10.431H81.3914C80.2845 10.431 79.491 11.4717 79.491 12.8097V17.8088H76.797Z" fill="white"/>
<path d="M71.2156 8.29382C73.8678 8.29382 75.6011 10.4682 75.6011 13.1257C75.6011 15.7646 73.8678 17.9575 71.2156 17.9575H70.7144C70.0879 17.9575 69.4405 17.6974 68.9184 17.3628C68.4381 17.0655 68.1666 17.2513 68.1666 17.6044V21.6H65.4727V8.4425H68.1666V8.72126C68.1666 9.05577 68.5008 9.18586 68.8767 8.92568C69.3779 8.554 70.0461 8.29382 70.7353 8.29382H71.2156ZM70.1088 10.3567C68.9184 10.3567 67.9787 11.5089 67.9787 13.1257C67.9787 14.7425 68.9184 15.8947 70.1088 15.8947H70.777C71.9048 15.8947 72.8863 14.7611 72.8863 13.1257C72.8863 11.4903 71.9048 10.3567 70.777 10.3567H70.1088Z" fill="white"/>
<path d="M63.2115 10.4495C61.9167 10.4495 61.2067 11.5274 61.2067 12.6239V17.8088H58.5127V8.44244H61.2067V8.81412C61.2067 9.22297 61.499 9.29731 61.8958 8.98138C62.3135 8.62828 62.7729 8.44244 63.5038 8.44244H64.6315V10.4495H63.2115Z" fill="white"/>
<path d="M51.8737 17.9575C49.2006 17.9575 47.1958 15.9133 47.1958 13.1257C47.1958 10.3195 49.2006 8.29382 51.8528 8.29382H52.6881C55.3612 8.29382 57.3452 10.3195 57.3452 13.1257C57.3452 15.9319 55.3612 17.9575 52.709 17.9575H51.8737ZM52.6046 15.8947C53.7323 15.8947 54.6303 14.6867 54.6303 13.1257C54.6303 11.5646 53.7323 10.3567 52.5837 10.3567H51.9572C50.8086 10.3567 49.9106 11.5275 49.9106 13.1257C49.9106 14.7239 50.8086 15.8947 51.9572 15.8947H52.6046Z" fill="white"/>
<path d="M31.0752 17.8088V4.79999H34.6254L38.1756 13.3672C38.3426 13.7947 38.7812 13.7947 38.9483 13.3672L42.5193 4.79999H46.0486V17.8088H43.2294L43.2502 10.561C43.2502 10.1522 42.7908 10.0964 42.6446 10.4495L39.6374 17.8088H37.4864L34.4792 10.4495C34.333 10.0964 33.8736 10.1522 33.8736 10.561L33.8945 17.8088H31.0752Z" fill="white"/>
</svg>
