
<svg width="182" height="37" viewBox="0 0 182 37" fill="none" xmlns="http://www.w3.org/2000/svg">
<g clip-path="url(#clip0_2242_3460)">
<path d="M95.4086 4.46924H97.8274V10.6333C97.8274 10.9025 97.9141 11.064 98.0875 11.1178C98.2609 11.1537 98.4689 11.0461 98.7117 10.7948C99.0758 10.4 99.4746 10.095 99.9081 9.87964C100.359 9.64636 100.862 9.52971 101.417 9.52971H102.561C103.307 9.52971 103.991 9.75403 104.616 10.2026C105.24 10.6513 105.734 11.2704 106.098 12.06C106.462 12.8316 106.644 13.7019 106.644 14.6709V23.3114H104.226V14.994C104.226 14.3838 104.13 13.8365 103.939 13.352C103.749 12.8495 103.471 12.4637 103.107 12.1945C102.743 11.9074 102.327 11.7639 101.859 11.7639H100.87C100.281 11.7639 99.7521 11.9613 99.2839 12.356C98.8331 12.7508 98.4776 13.2802 98.2175 13.9442C97.9574 14.5902 97.8274 15.29 97.8274 16.0437V23.3114H95.4086V4.46924Z" fill="white"/>
<path d="M88.013 9.53027C89.088 9.53027 90.0417 9.83534 90.874 10.4455C91.7236 11.0556 92.3825 11.899 92.8507 12.9757C93.3362 14.0345 93.5789 15.2188 93.5789 16.5288C93.5789 17.8208 93.3448 19.0052 92.8767 20.0819C92.4085 21.1407 91.7496 21.9841 90.9 22.6122C90.0677 23.2223 89.114 23.5273 88.039 23.5273H87.3368C86.8859 23.5273 86.4265 23.4287 85.9583 23.2313C85.4901 23.0159 85.0653 22.7378 84.6839 22.3968C84.4411 22.1994 84.233 22.1366 84.0596 22.2084C83.9036 22.2802 83.8256 22.4507 83.8256 22.7198V28.8032H81.4067V9.74561H83.8256V10.3647C83.8256 10.6339 83.9123 10.8044 84.0857 10.8761C84.259 10.9479 84.4584 10.8851 84.6839 10.6877C85.0653 10.3288 85.4815 10.0507 85.9323 9.85328C86.4004 9.63794 86.8686 9.53027 87.3368 9.53027H88.013ZM86.8946 11.7106C86.2877 11.7106 85.7329 11.917 85.23 12.3297C84.7445 12.7245 84.3544 13.2987 84.0596 14.0524C83.7649 14.7881 83.6175 15.6136 83.6175 16.5288C83.6175 17.444 83.7649 18.2784 84.0596 19.0321C84.3544 19.7679 84.7445 20.3421 85.23 20.7549C85.7329 21.1496 86.2877 21.347 86.8946 21.347H87.8309C88.4031 21.347 88.932 21.1496 89.4175 20.7549C89.9203 20.3421 90.3191 19.7679 90.6139 19.0321C90.926 18.2784 91.0821 17.444 91.0821 16.5288C91.0821 15.6136 90.926 14.7881 90.6139 14.0524C90.3191 13.2987 89.9203 12.7245 89.4175 12.3297C88.932 11.917 88.4031 11.7106 87.8309 11.7106H86.8946Z" fill="white"/>
<path d="M78.2921 11.8716C77.7372 11.8716 77.2604 12.069 76.8616 12.4638C76.4801 12.8406 76.1853 13.3251 75.9773 13.9173C75.7692 14.4916 75.6652 15.0568 75.6652 15.6131V23.3114H73.2463V9.74512H75.6652V10.4719C75.6652 10.759 75.7432 10.9295 75.8993 10.9833C76.0553 11.0192 76.2287 10.9295 76.4194 10.7141C76.6795 10.3732 76.9656 10.1309 77.2777 9.98737C77.6072 9.82587 78.0146 9.74512 78.5001 9.74512H80.0867V11.8716H78.2921Z" fill="white"/>
<path d="M64.7942 23.5274C63.7192 23.5274 62.7482 23.2313 61.8812 22.6391C61.0316 22.0289 60.3554 21.1945 59.8525 20.1358C59.367 19.0591 59.1243 17.8567 59.1243 16.5288C59.1243 15.2009 59.367 14.0075 59.8525 12.9488C60.3554 11.8721 61.0316 11.0376 61.8812 10.4455C62.7482 9.83534 63.7192 9.53027 64.7942 9.53027H65.7565C66.8142 9.53027 67.7766 9.83534 68.6435 10.4455C69.5105 11.0376 70.1867 11.8721 70.6722 12.9488C71.1751 14.0075 71.4265 15.2009 71.4265 16.5288C71.4265 17.8567 71.1751 19.0591 70.6722 20.1358C70.1867 21.1945 69.5105 22.0289 68.6435 22.6391C67.7939 23.2313 66.8316 23.5274 65.7565 23.5274H64.7942ZM65.7565 21.347C66.3287 21.347 66.8576 21.1407 67.3431 20.7279C67.8459 20.3152 68.2361 19.741 68.5135 19.0052C68.7909 18.2695 68.9296 17.444 68.9296 16.5288C68.9296 15.6136 68.7909 14.7971 68.5135 14.0793C68.2361 13.3436 67.8459 12.7693 67.3431 12.3566C66.8576 11.9259 66.3201 11.7106 65.7305 11.7106H64.7942C64.2047 11.7106 63.6672 11.917 63.1817 12.3297C62.6962 12.7424 62.306 13.3167 62.0113 14.0524C61.7338 14.7702 61.5951 15.5957 61.5951 16.5288C61.5951 17.4619 61.7338 18.2964 62.0113 19.0321C62.306 19.7499 62.6962 20.3152 63.1817 20.7279C63.6672 21.1407 64.2047 21.347 64.7942 21.347H65.7565Z" fill="white"/>
<path d="M39.5835 4.46924H42.9386L47.9844 18.251C48.0884 18.5381 48.2445 18.6816 48.4525 18.6816C48.6606 18.6816 48.8167 18.5381 48.9207 18.251L53.9664 4.46924H57.3476V23.3114H54.8507L54.8767 10.9563C54.8767 10.7589 54.816 10.6244 54.6947 10.5526C54.5906 10.4629 54.4693 10.4449 54.3305 10.4987C54.2092 10.5346 54.1225 10.6333 54.0705 10.7948L49.4409 23.3114H47.4382L42.8606 10.7948C42.7913 10.6333 42.6872 10.5346 42.5485 10.4987C42.4271 10.4449 42.3144 10.4629 42.2104 10.5526C42.1064 10.6423 42.0543 10.7769 42.0543 10.9563L42.0803 23.3114H39.5835V4.46924Z" fill="white"/>
<path fill-rule="evenodd" clip-rule="evenodd" d="M0 28.1058H9.70259V13.5045C9.70259 13.0364 10.3519 12.9612 10.4518 13.4178L12.7684 23.9986H18.5899V20.4018C18.5899 20.185 18.7598 20.0093 18.9692 20.0093H28.1763V0.0668945H18.4737V3.66376C18.4737 3.88056 18.3039 4.05631 18.0944 4.05631H8.40221L9.1965 7.68421C9.25027 7.92978 9.06988 8.16349 8.82659 8.16349H0V28.1058Z" fill="white"/>
</g>
<path d="M39.6672 30.5331V30.0089H43.327V30.5331H41.7926V34.8887H41.2016V30.5331H39.6672ZM44.8257 32.6871V34.8887H44.2634V30.0089H44.8257V31.8007H44.8734C44.9591 31.6117 45.0878 31.4616 45.2594 31.3504C45.4325 31.2376 45.6628 31.1812 45.9503 31.1812C46.1997 31.1812 46.4181 31.2312 46.6056 31.3313C46.793 31.4298 46.9384 31.5815 47.0416 31.7864C47.1465 31.9897 47.1989 32.2486 47.1989 32.5632V34.8887H46.6366V32.6013C46.6366 32.3106 46.5611 32.0858 46.4102 31.927C46.2609 31.7665 46.0536 31.6863 45.7883 31.6863C45.6041 31.6863 45.4389 31.7252 45.2927 31.8031C45.1482 31.8809 45.0338 31.9945 44.9496 32.1438C44.867 32.2931 44.8257 32.4742 44.8257 32.6871ZM49.8627 34.9649C49.5101 34.9649 49.2059 34.8871 48.9501 34.7314C48.696 34.5742 48.4998 34.3549 48.3616 34.0738C48.225 33.791 48.1567 33.4622 48.1567 33.0874C48.1567 32.7125 48.225 32.3821 48.3616 32.0961C48.4998 31.8086 48.692 31.5847 48.9382 31.4242C49.186 31.2622 49.4751 31.1812 49.8055 31.1812C49.9961 31.1812 50.1844 31.213 50.3702 31.2765C50.5561 31.34 50.7252 31.4433 50.8777 31.5863C51.0302 31.7276 51.1517 31.9151 51.2423 32.1486C51.3328 32.3821 51.3781 32.6696 51.3781 33.0111V33.2494H48.557V32.7633H50.8063C50.8063 32.5568 50.765 32.3725 50.6824 32.2105C50.6013 32.0485 50.4854 31.9206 50.3345 31.8269C50.1852 31.7332 50.0088 31.6863 49.8055 31.6863C49.5815 31.6863 49.3878 31.7419 49.2241 31.8531C49.0621 31.9627 48.9374 32.1057 48.8501 32.282C48.7627 32.4583 48.719 32.6473 48.719 32.8491V33.1731C48.719 33.4495 48.7667 33.6838 48.862 33.876C48.9589 34.0666 49.0931 34.212 49.2646 34.3121C49.4362 34.4105 49.6356 34.4598 49.8627 34.4598C50.0104 34.4598 50.1439 34.4391 50.263 34.3978C50.3837 34.3549 50.4878 34.2914 50.5751 34.2072C50.6625 34.1214 50.73 34.015 50.7777 33.8879L51.3209 34.0404C51.2637 34.2247 51.1676 34.3867 51.0326 34.5265C50.8976 34.6647 50.7308 34.7727 50.5322 34.8505C50.3337 34.9268 50.1105 34.9649 49.8627 34.9649ZM58.3248 31.5338H57.7339C57.699 31.3639 57.6378 31.2146 57.5504 31.0859C57.4647 30.9572 57.3598 30.8492 57.2359 30.7618C57.1136 30.6729 56.9778 30.6062 56.8285 30.5617C56.6792 30.5172 56.5235 30.495 56.3615 30.495C56.066 30.495 55.7984 30.5696 55.5585 30.7189C55.3202 30.8683 55.1304 31.0883 54.989 31.379C54.8492 31.6696 54.7794 32.0263 54.7794 32.4488C54.7794 32.8713 54.8492 33.2279 54.989 33.5186C55.1304 33.8093 55.3202 34.0293 55.5585 34.1786C55.7984 34.3279 56.066 34.4026 56.3615 34.4026C56.5235 34.4026 56.6792 34.3804 56.8285 34.3359C56.9778 34.2914 57.1136 34.2255 57.2359 34.1381C57.3598 34.0492 57.4647 33.9404 57.5504 33.8117C57.6378 33.6814 57.699 33.5321 57.7339 33.3637H58.3248C58.2803 33.6131 58.1993 33.8363 58.0818 34.0333C57.9642 34.2303 57.8181 34.3978 57.6434 34.536C57.4686 34.6726 57.2725 34.7767 57.0548 34.8482C56.8388 34.9196 56.6077 34.9554 56.3615 34.9554C55.9453 34.9554 55.5752 34.8537 55.2511 34.6504C54.9271 34.4471 54.6721 34.158 54.4863 33.7831C54.3004 33.4082 54.2075 32.9635 54.2075 32.4488C54.2075 31.9341 54.3004 31.4894 54.4863 31.1145C54.6721 30.7396 54.9271 30.4505 55.2511 30.2472C55.5752 30.0439 55.9453 29.9422 56.3615 29.9422C56.6077 29.9422 56.8388 29.9779 57.0548 30.0494C57.2725 30.1209 57.4686 30.2257 57.6434 30.3639C57.8181 30.5005 57.9642 30.6673 58.0818 30.8643C58.1993 31.0597 58.2803 31.2829 58.3248 31.5338ZM60.7909 34.9649C60.4605 34.9649 60.1706 34.8863 59.9212 34.729C59.6734 34.5718 59.4796 34.3518 59.3398 34.069C59.2016 33.7863 59.1325 33.4559 59.1325 33.0778C59.1325 32.6966 59.2016 32.3638 59.3398 32.0795C59.4796 31.7951 59.6734 31.5743 59.9212 31.4171C60.1706 31.2598 60.4605 31.1812 60.7909 31.1812C61.1213 31.1812 61.4104 31.2598 61.6582 31.4171C61.9076 31.5743 62.1014 31.7951 62.2396 32.0795C62.3793 32.3638 62.4492 32.6966 62.4492 33.0778C62.4492 33.4559 62.3793 33.7863 62.2396 34.069C62.1014 34.3518 61.9076 34.5718 61.6582 34.729C61.4104 34.8863 61.1213 34.9649 60.7909 34.9649ZM60.7909 34.4598C61.0419 34.4598 61.2484 34.3955 61.4104 34.2668C61.5724 34.1381 61.6923 33.969 61.7702 33.7593C61.848 33.5496 61.8869 33.3224 61.8869 33.0778C61.8869 32.8332 61.848 32.6053 61.7702 32.394C61.6923 32.1827 61.5724 32.012 61.4104 31.8817C61.2484 31.7515 61.0419 31.6863 60.7909 31.6863C60.5399 31.6863 60.3334 31.7515 60.1714 31.8817C60.0094 32.012 59.8894 32.1827 59.8116 32.394C59.7338 32.6053 59.6948 32.8332 59.6948 33.0778C59.6948 33.3224 59.7338 33.5496 59.8116 33.7593C59.8894 33.969 60.0094 34.1381 60.1714 34.2668C60.3334 34.3955 60.5399 34.4598 60.7909 34.4598ZM63.9706 32.6871V34.8887H63.4082V31.2288H63.9515V31.8007H63.9992C64.0849 31.6148 64.2152 31.4655 64.3899 31.3527C64.5647 31.2384 64.7902 31.1812 65.0666 31.1812C65.3144 31.1812 65.5312 31.232 65.7171 31.3337C65.9029 31.4338 66.0475 31.5863 66.1507 31.7912C66.254 31.9945 66.3056 32.2518 66.3056 32.5632V34.8887H65.7433V32.6013C65.7433 32.3138 65.6686 32.0898 65.5193 31.9294C65.37 31.7673 65.1651 31.6863 64.9046 31.6863C64.7251 31.6863 64.5647 31.7252 64.4233 31.8031C64.2835 31.8809 64.1731 31.9945 64.0921 32.1438C64.0111 32.2931 63.9706 32.4742 63.9706 32.6871ZM70.0262 32.0485L69.521 32.1915C69.4893 32.1073 69.4424 32.0255 69.3805 31.946C69.3201 31.865 69.2375 31.7983 69.1327 31.7459C69.0278 31.6935 68.8936 31.6673 68.73 31.6673C68.506 31.6673 68.3194 31.7189 68.17 31.8221C68.0223 31.9238 67.9485 32.0533 67.9485 32.2105C67.9485 32.3503 67.9993 32.4607 68.101 32.5417C68.2026 32.6227 68.3615 32.6902 68.5775 32.7442L69.1207 32.8777C69.448 32.9571 69.6918 33.0786 69.8522 33.2422C70.0127 33.4043 70.0929 33.6131 70.0929 33.8689C70.0929 34.0786 70.0325 34.266 69.9118 34.4312C69.7927 34.5964 69.6259 34.7266 69.4114 34.822C69.197 34.9173 68.9476 34.9649 68.6633 34.9649C68.29 34.9649 67.981 34.8839 67.7364 34.7219C67.4918 34.5599 67.3369 34.3232 67.2718 34.0118L67.8055 33.8784C67.8563 34.0754 67.9524 34.2231 68.0938 34.3216C68.2368 34.4201 68.4234 34.4693 68.6537 34.4693C68.9158 34.4693 69.1239 34.4137 69.278 34.3025C69.4337 34.1897 69.5115 34.0547 69.5115 33.8975C69.5115 33.7704 69.467 33.664 69.3781 33.5782C69.2891 33.4908 69.1525 33.4257 68.9683 33.3828L68.3583 33.2398C68.0231 33.1604 67.7769 33.0373 67.6196 32.8705C67.464 32.7021 67.3861 32.4917 67.3861 32.2391C67.3861 32.0326 67.4441 31.8499 67.5601 31.6911C67.6776 31.5322 67.8373 31.4075 68.039 31.317C68.2423 31.2265 68.4727 31.1812 68.73 31.1812C69.0922 31.1812 69.3765 31.2606 69.583 31.4195C69.7911 31.5783 69.9388 31.788 70.0262 32.0485ZM73.3464 33.3923V31.2288H73.9088V34.8887H73.3464V34.2692H73.3083C73.2225 34.455 73.0891 34.6131 72.908 34.7433C72.7269 34.872 72.4982 34.9363 72.2218 34.9363C71.9931 34.9363 71.7897 34.8863 71.6118 34.7862C71.4339 34.6846 71.2941 34.5321 71.1925 34.3287C71.0908 34.1238 71.04 33.8657 71.04 33.5544V31.2288H71.6023V33.5162C71.6023 33.7831 71.677 33.996 71.8263 34.1548C71.9772 34.3136 72.1694 34.3931 72.4029 34.3931C72.5427 34.3931 72.6848 34.3573 72.8294 34.2858C72.9755 34.2144 73.0978 34.1048 73.1963 33.957C73.2964 33.8093 73.3464 33.6211 73.3464 33.3923ZM75.0393 34.8887V31.2288H75.5826V31.8007H75.6302C75.7065 31.6053 75.8296 31.4536 75.9995 31.3456C76.1695 31.236 76.3736 31.1812 76.6119 31.1812C76.8533 31.1812 77.0543 31.236 77.2147 31.3456C77.3767 31.4536 77.503 31.6053 77.5936 31.8007H77.6317C77.7254 31.6117 77.866 31.4616 78.0534 31.3504C78.2409 31.2376 78.4656 31.1812 78.7277 31.1812C79.055 31.1812 79.3226 31.2836 79.5307 31.4886C79.7388 31.6919 79.8428 32.0088 79.8428 32.4393V34.8887H79.2805V32.4393C79.2805 32.1692 79.2067 31.9762 79.0589 31.8603C78.9112 31.7443 78.7373 31.6863 78.5371 31.6863C78.2798 31.6863 78.0804 31.7642 77.9391 31.9198C77.7977 32.0739 77.727 32.2693 77.727 32.506V34.8887H77.1552V32.3821C77.1552 32.174 77.0876 32.0064 76.9526 31.8793C76.8176 31.7507 76.6437 31.6863 76.4308 31.6863C76.2847 31.6863 76.1481 31.7252 76.021 31.8031C75.8955 31.8809 75.7938 31.9889 75.716 32.1271C75.6398 32.2637 75.6016 32.4218 75.6016 32.6013V34.8887H75.0393ZM82.5061 34.9649C82.1534 34.9649 81.8492 34.8871 81.5935 34.7314C81.3394 34.5742 81.1432 34.3549 81.005 34.0738C80.8684 33.791 80.8001 33.4622 80.8001 33.0874C80.8001 32.7125 80.8684 32.3821 81.005 32.0961C81.1432 31.8086 81.3354 31.5847 81.5816 31.4242C81.8294 31.2622 82.1185 31.1812 82.4489 31.1812C82.6395 31.1812 82.8277 31.213 83.0136 31.2765C83.1994 31.34 83.3686 31.4433 83.5211 31.5863C83.6736 31.7276 83.7951 31.9151 83.8857 32.1486C83.9762 32.3821 84.0215 32.6696 84.0215 33.0111V33.2494H81.2004V32.7633H83.4496C83.4496 32.5568 83.4083 32.3725 83.3257 32.2105C83.2447 32.0485 83.1288 31.9206 82.9779 31.8269C82.8285 31.7332 82.6522 31.6863 82.4489 31.6863C82.2249 31.6863 82.0311 31.7419 81.8675 31.8531C81.7055 31.9627 81.5808 32.1057 81.4934 32.282C81.4061 32.4583 81.3624 32.6473 81.3624 32.8491V33.1731C81.3624 33.4495 81.41 33.6838 81.5053 33.876C81.6022 34.0666 81.7365 34.212 81.908 34.3121C82.0796 34.4105 82.2789 34.4598 82.5061 34.4598C82.6538 34.4598 82.7872 34.4391 82.9064 34.3978C83.0271 34.3549 83.1311 34.2914 83.2185 34.2072C83.3059 34.1214 83.3734 34.015 83.421 33.8879L83.9643 34.0404C83.9071 34.2247 83.811 34.3867 83.676 34.5265C83.541 34.6647 83.3742 34.7727 83.1756 34.8505C82.9771 34.9268 82.7539 34.9649 82.5061 34.9649ZM84.9775 34.8887V31.2288H85.5208V31.7816H85.5589C85.6256 31.6005 85.7463 31.4536 85.9211 31.3408C86.0958 31.2281 86.2928 31.1717 86.512 31.1717C86.5533 31.1717 86.6049 31.1725 86.6668 31.174C86.7288 31.1756 86.7757 31.178 86.8074 31.1812V31.753C86.7884 31.7483 86.7447 31.7411 86.6764 31.7316C86.6097 31.7205 86.539 31.7149 86.4643 31.7149C86.2864 31.7149 86.1276 31.7522 85.9878 31.8269C85.8496 31.9 85.74 32.0016 85.659 32.1319C85.5795 32.2606 85.5398 32.4075 85.5398 32.5727V34.8887H84.9775ZM89.6386 34.8887V30.0089H90.2295V34.3645H92.4979V34.8887H89.6386ZM94.5142 34.9744C94.2823 34.9744 94.0718 34.9308 93.8828 34.8434C93.6937 34.7544 93.5436 34.6266 93.4324 34.4598C93.3212 34.2914 93.2657 34.0881 93.2657 33.8498C93.2657 33.6401 93.307 33.4702 93.3896 33.3399C93.4722 33.2081 93.5826 33.1048 93.7207 33.0302C93.8589 32.9555 94.0114 32.8999 94.1782 32.8634C94.3466 32.8253 94.5158 32.7951 94.6857 32.7728C94.9081 32.7442 95.0884 32.7228 95.2266 32.7085C95.3664 32.6926 95.4681 32.6664 95.5316 32.6299C95.5967 32.5933 95.6293 32.5298 95.6293 32.4393V32.4202C95.6293 32.1851 95.565 32.0024 95.4363 31.8722C95.3092 31.7419 95.1162 31.6768 94.8573 31.6768C94.5888 31.6768 94.3784 31.7356 94.2259 31.8531C94.0734 31.9707 93.9662 32.0961 93.9042 32.2296L93.3705 32.039C93.4658 31.8166 93.5929 31.6434 93.7517 31.5195C93.9122 31.394 94.0869 31.3067 94.2759 31.2574C94.4665 31.2066 94.654 31.1812 94.8382 31.1812C94.9558 31.1812 95.0908 31.1955 95.2433 31.2241C95.3974 31.2511 95.5459 31.3075 95.6889 31.3933C95.8334 31.479 95.9533 31.6085 96.0486 31.7816C96.144 31.9548 96.1916 32.1867 96.1916 32.4774V34.8887H95.6293V34.3931H95.6007C95.5626 34.4725 95.499 34.5575 95.4101 34.648C95.3211 34.7386 95.2028 34.8156 95.0551 34.8791C94.9073 34.9427 94.727 34.9744 94.5142 34.9744ZM94.6 34.4693C94.8223 34.4693 95.0098 34.4256 95.1623 34.3383C95.3164 34.2509 95.4323 34.1381 95.5102 33.9999C95.5896 33.8617 95.6293 33.7164 95.6293 33.5639V33.0492C95.6055 33.0778 95.553 33.104 95.472 33.1279C95.3926 33.1501 95.3005 33.17 95.1956 33.1874C95.0924 33.2033 94.9915 33.2176 94.893 33.2303C94.7961 33.2414 94.7175 33.251 94.6571 33.2589C94.511 33.278 94.3744 33.3089 94.2473 33.3518C94.1218 33.3931 94.0202 33.4559 93.9423 33.5401C93.8661 33.6227 93.828 33.7354 93.828 33.8784C93.828 34.0738 93.9002 34.2215 94.0448 34.3216C94.1909 34.4201 94.376 34.4693 94.6 34.4693ZM97.5497 36.2611C97.4544 36.2611 97.3694 36.2532 97.2948 36.2373C97.2201 36.223 97.1685 36.2087 97.1399 36.1944L97.2829 35.6988C97.4195 35.7337 97.5402 35.7464 97.645 35.7369C97.7499 35.7274 97.8428 35.6805 97.9238 35.5963C98.0064 35.5137 98.0819 35.3795 98.1502 35.1937L98.255 34.9077L96.9016 31.2288H97.5116L98.5219 34.1453H98.56L99.5702 31.2288H100.18L98.6267 35.4224C98.5568 35.6114 98.4702 35.7679 98.367 35.8918C98.2637 36.0173 98.1438 36.1102 98.0072 36.1706C97.8722 36.2309 97.7197 36.2611 97.5497 36.2611ZM102.426 34.9649C102.074 34.9649 101.77 34.8871 101.514 34.7314C101.26 34.5742 101.064 34.3549 100.925 34.0738C100.789 33.791 100.72 33.4622 100.72 33.0874C100.72 32.7125 100.789 32.3821 100.925 32.0961C101.064 31.8086 101.256 31.5847 101.502 31.4242C101.75 31.2622 102.039 31.1812 102.369 31.1812C102.56 31.1812 102.748 31.213 102.934 31.2765C103.12 31.34 103.289 31.4433 103.442 31.5863C103.594 31.7276 103.716 31.9151 103.806 32.1486C103.897 32.3821 103.942 32.6696 103.942 33.0111V33.2494H101.121V32.7633H103.37C103.37 32.5568 103.329 32.3725 103.246 32.2105C103.165 32.0485 103.049 31.9206 102.898 31.8269C102.749 31.7332 102.573 31.6863 102.369 31.6863C102.145 31.6863 101.952 31.7419 101.788 31.8531C101.626 31.9627 101.501 32.1057 101.414 32.282C101.326 32.4583 101.283 32.6473 101.283 32.8491V33.1731C101.283 33.4495 101.33 33.6838 101.426 33.876C101.523 34.0666 101.657 34.212 101.828 34.3121C102 34.4105 102.199 34.4598 102.426 34.4598C102.574 34.4598 102.708 34.4391 102.827 34.3978C102.948 34.3549 103.052 34.2914 103.139 34.2072C103.226 34.1214 103.294 34.015 103.341 33.8879L103.885 34.0404C103.828 34.2247 103.731 34.3867 103.596 34.5265C103.461 34.6647 103.295 34.7727 103.096 34.8505C102.897 34.9268 102.674 34.9649 102.426 34.9649ZM104.898 34.8887V31.2288H105.441V31.7816H105.479C105.546 31.6005 105.667 31.4536 105.841 31.3408C106.016 31.2281 106.213 31.1717 106.432 31.1717C106.474 31.1717 106.525 31.1725 106.587 31.174C106.649 31.1756 106.696 31.178 106.728 31.1812V31.753C106.709 31.7483 106.665 31.7411 106.597 31.7316C106.53 31.7205 106.459 31.7149 106.385 31.7149C106.207 31.7149 106.048 31.7522 105.908 31.8269C105.77 31.9 105.66 32.0016 105.579 32.1319C105.5 32.2606 105.46 32.4075 105.46 32.5727V34.8887H104.898Z" fill="white"/>
<path d="M126.848 24V9.3H131.972C135.899 9.3 138.44 12.345 138.44 16.461C138.44 21.165 135.899 24 131.972 24H126.848ZM132.014 23.076C134.954 23.076 137.369 21.123 137.369 16.461C137.369 12.429 134.954 10.224 132.014 10.224H128.465C128.066 10.224 127.835 10.455 127.835 10.854V22.446C127.835 22.845 128.066 23.076 128.465 23.076H132.014ZM146.787 24.168C143.28 24.168 140.739 20.535 140.739 16.65C140.739 12.765 143.259 9.132 146.766 9.132H148.047C151.575 9.132 154.158 12.744 154.158 16.65C154.158 20.556 151.533 24.168 148.005 24.168H146.787ZM148.005 23.244C150.924 23.244 153.087 20.178 153.087 16.65C153.087 13.101 150.966 10.056 148.047 10.056H146.787C143.868 10.056 141.81 13.101 141.81 16.65C141.81 20.199 143.868 23.244 146.787 23.244H148.005ZM162.294 24.168C159.564 24.168 156.456 21.522 156.456 16.65C156.456 11.757 159.711 9.132 162.399 9.132H163.659C166.095 9.132 168.342 11.253 168.657 14.277H167.649C167.418 11.778 165.591 10.056 163.659 10.056H162.42C159.879 10.056 157.527 12.681 157.527 16.65C157.527 20.598 159.753 23.244 162.294 23.244H163.533C165.507 23.244 167.397 21.27 167.67 19.023H168.678C168.384 21.753 166.095 24.168 163.533 24.168H162.294ZM175.249 24.168C172.855 24.168 170.923 22.551 170.776 19.863H171.784C171.952 22.047 173.443 23.244 175.186 23.244H176.446C177.685 23.244 179.533 22.341 179.533 20.157C179.533 15.81 171.091 17.721 171.091 12.723C171.091 10.518 172.981 9.132 174.955 9.132H176.173C178.357 9.132 179.995 10.245 180.352 12.828H179.344C179.008 10.959 177.979 10.056 176.173 10.056H174.955C173.59 10.056 172.162 11.022 172.162 12.723C172.162 16.944 180.604 14.802 180.604 20.157C180.604 22.761 178.231 24.168 176.446 24.168H175.249Z" fill="white"/>
<path fill-rule="evenodd" clip-rule="evenodd" d="M116 25L116 7L119 7L119 25L116 25Z" fill="white"/>
<defs>
<clipPath id="clip0_2242_3460">
<rect width="106.745" height="28.9736" fill="white"/>
</clipPath>
</defs>
</svg>
