<svg width="591" height="155" viewBox="0 0 591 155" fill="none" xmlns="http://www.w3.org/2000/svg">
<path d="M528.236 23.9111H541.628V56.8871C541.628 58.3271 542.108 59.1911 543.068 59.4791C544.028 59.6711 545.18 59.0951 546.524 57.7511C548.54 55.6391 550.748 54.0071 553.148 52.8551C555.644 51.6071 558.428 50.9831 561.5 50.9831H567.836C571.964 50.9831 575.756 52.1831 579.212 54.5831C582.668 56.9831 585.404 60.2951 587.42 64.5191C589.436 68.6471 590.444 73.3031 590.444 78.4871V124.711H577.052V80.2151C577.052 76.9511 576.524 74.0231 575.468 71.4311C574.412 68.7431 572.876 66.6791 570.86 65.2391C568.844 63.7031 566.54 62.9351 563.948 62.9351H558.476C555.212 62.9351 552.284 63.9911 549.692 66.1031C547.196 68.2151 545.228 71.0471 543.788 74.5991C542.348 78.0551 541.628 81.7991 541.628 85.8311V124.711H528.236V23.9111Z" fill="#14A800" style="fill:color(display-p3 0.0784 0.6588 0.0000);fill-opacity:1;"/>
<path d="M487.289 50.9829C493.241 50.9829 498.521 52.6149 503.129 55.8789C507.833 59.1429 511.481 63.6549 514.073 69.4149C516.761 75.0789 518.105 81.4149 518.105 88.4229C518.105 95.3349 516.809 101.671 514.217 107.431C511.625 113.095 507.977 117.607 503.273 120.967C498.665 124.231 493.385 125.863 487.433 125.863H483.545C481.049 125.863 478.505 125.335 475.913 124.279C473.321 123.127 470.969 121.639 468.857 119.815C467.513 118.759 466.361 118.423 465.401 118.807C464.537 119.191 464.105 120.103 464.105 121.543V154.087H450.713V52.1349H464.105V55.4469C464.105 56.8869 464.585 57.7989 465.545 58.1829C466.505 58.5669 467.609 58.2309 468.857 57.1749C470.969 55.2549 473.273 53.7669 475.769 52.7109C478.361 51.5589 480.953 50.9829 483.545 50.9829H487.289ZM481.097 62.6469C477.737 62.6469 474.665 63.7509 471.881 65.9589C469.193 68.0709 467.033 71.1429 465.401 75.1749C463.769 79.1109 462.953 83.5269 462.953 88.4229C462.953 93.3189 463.769 97.7829 465.401 101.815C467.033 105.751 469.193 108.823 471.881 111.031C474.665 113.143 477.737 114.199 481.097 114.199H486.281C489.449 114.199 492.377 113.143 495.065 111.031C497.849 108.823 500.057 105.751 501.689 101.815C503.417 97.7829 504.281 93.3189 504.281 88.4229C504.281 83.5269 503.417 79.1109 501.689 75.1749C500.057 71.1429 497.849 68.0709 495.065 65.9589C492.377 63.7509 489.449 62.6469 486.281 62.6469H481.097Z" fill="#14A800" style="fill:color(display-p3 0.0784 0.6588 0.0000);fill-opacity:1;"/>
<path d="M433.469 63.5113C430.397 63.5113 427.757 64.5673 425.549 66.6793C423.437 68.6953 421.805 71.2873 420.653 74.4553C419.501 77.5273 418.925 80.5513 418.925 83.5273V124.711H405.533V52.1353H418.925V56.0233C418.925 57.5593 419.357 58.4713 420.221 58.7593C421.085 58.9513 422.045 58.4713 423.101 57.3193C424.541 55.4953 426.125 54.1993 427.853 53.4313C429.677 52.5673 431.933 52.1353 434.621 52.1353H443.405V63.5113H433.469Z" fill="#14A800" style="fill:color(display-p3 0.0784 0.6588 0.0000);fill-opacity:1;"/>
<path d="M358.738 125.863C352.786 125.863 347.41 124.279 342.61 121.111C337.906 117.847 334.162 113.383 331.378 107.719C328.69 101.959 327.346 95.5269 327.346 88.4229C327.346 81.3189 328.69 74.9349 331.378 69.2709C334.162 63.5109 337.906 59.0469 342.61 55.8789C347.41 52.6149 352.786 50.9829 358.738 50.9829H364.066C369.922 50.9829 375.25 52.6149 380.05 55.8789C384.85 59.0469 388.594 63.5109 391.282 69.2709C394.066 74.9349 395.458 81.3189 395.458 88.4229C395.458 95.5269 394.066 101.959 391.282 107.719C388.594 113.383 384.85 117.847 380.05 121.111C375.346 124.279 370.018 125.863 364.066 125.863H358.738ZM364.066 114.199C367.234 114.199 370.162 113.095 372.85 110.887C375.634 108.679 377.794 105.607 379.33 101.671C380.866 97.7349 381.634 93.3189 381.634 88.4229C381.634 83.5269 380.866 79.1589 379.33 75.3189C377.794 71.3829 375.634 68.3109 372.85 66.1029C370.162 63.7989 367.186 62.6469 363.922 62.6469H358.738C355.474 62.6469 352.498 63.7509 349.81 65.9589C347.122 68.1669 344.962 71.2389 343.33 75.1749C341.794 79.0149 341.026 83.4309 341.026 88.4229C341.026 93.4149 341.794 97.8789 343.33 101.815C344.962 105.655 347.122 108.679 349.81 110.887C352.498 113.095 355.474 114.199 358.738 114.199H364.066Z" fill="#14A800" style="fill:color(display-p3 0.0784 0.6588 0.0000);fill-opacity:1;"/>
<path d="M219.156 23.9111H237.732L265.668 97.6391C266.244 99.1751 267.108 99.9431 268.26 99.9431C269.412 99.9431 270.276 99.1751 270.852 97.6391L298.788 23.9111H317.508V124.711H303.684L303.828 58.6151C303.828 57.5591 303.492 56.8391 302.82 56.4551C302.244 55.9751 301.572 55.8791 300.804 56.1671C300.132 56.3591 299.652 56.8871 299.364 57.7511L273.732 124.711H262.644L237.3 57.7511C236.916 56.8871 236.34 56.3591 235.572 56.1671C234.9 55.8791 234.276 55.9751 233.7 56.4551C233.124 56.9351 232.836 57.6551 232.836 58.6151L232.98 124.711H219.156V23.9111Z" fill="#14A800" style="fill:color(display-p3 0.0784 0.6588 0.0000);fill-opacity:1;"/>
<path fill-rule="evenodd" clip-rule="evenodd" d="M0 150.355H53.719V72.2426C53.719 69.7384 57.3137 69.3363 57.8671 71.7786L70.693 128.383H102.924V109.141C102.924 107.981 103.865 107.041 105.024 107.041H156V0.355469H102.281V19.5976C102.281 20.7574 101.341 21.6976 100.181 21.6976H46.5194L50.917 41.1058C51.2147 42.4195 50.216 43.6698 48.869 43.6698H0V150.355Z" fill="#14A800" style="fill:color(display-p3 0.0784 0.6588 0.0000);fill-opacity:1;"/>
</svg>
