<svg width="591" height="154" viewBox="0 0 591 154" fill="none" xmlns="http://www.w3.org/2000/svg">
<path d="M528.236 23.5557H541.628V56.5317C541.628 57.9717 542.108 58.8357 543.068 59.1237C544.028 59.3157 545.18 58.7397 546.524 57.3957C548.54 55.2837 550.748 53.6517 553.148 52.4997C555.644 51.2517 558.428 50.6277 561.5 50.6277H567.836C571.964 50.6277 575.756 51.8277 579.212 54.2277C582.668 56.6277 585.404 59.9397 587.42 64.1637C589.436 68.2917 590.444 72.9477 590.444 78.1317V124.356H577.052V79.8597C577.052 76.5957 576.524 73.6677 575.468 71.0757C574.412 68.3877 572.876 66.3237 570.86 64.8837C568.844 63.3477 566.54 62.5797 563.948 62.5797H558.476C555.212 62.5797 552.284 63.6357 549.692 65.7477C547.196 67.8597 545.228 70.6917 543.788 74.2437C542.348 77.6997 541.628 81.4437 541.628 85.4757V124.356H528.236V23.5557Z" fill="#131125" style="fill:color(display-p3 0.0745 0.0667 0.1451);fill-opacity:1;"/>
<path d="M487.289 50.6274C493.241 50.6274 498.521 52.2594 503.129 55.5234C507.833 58.7874 511.481 63.2994 514.073 69.0594C516.761 74.7234 518.105 81.0594 518.105 88.0674C518.105 94.9794 516.809 101.315 514.217 107.075C511.625 112.739 507.977 117.251 503.273 120.611C498.665 123.875 493.385 125.507 487.433 125.507H483.545C481.049 125.507 478.505 124.979 475.913 123.923C473.321 122.771 470.969 121.283 468.857 119.459C467.513 118.403 466.361 118.067 465.401 118.451C464.537 118.835 464.105 119.747 464.105 121.187V153.731H450.713V51.7794H464.105V55.0914C464.105 56.5314 464.585 57.4434 465.545 57.8274C466.505 58.2114 467.609 57.8754 468.857 56.8194C470.969 54.8994 473.273 53.4114 475.769 52.3554C478.361 51.2034 480.953 50.6274 483.545 50.6274H487.289ZM481.097 62.2914C477.737 62.2914 474.665 63.3954 471.881 65.6034C469.193 67.7154 467.033 70.7874 465.401 74.8194C463.769 78.7554 462.953 83.1714 462.953 88.0674C462.953 92.9634 463.769 97.4274 465.401 101.459C467.033 105.395 469.193 108.467 471.881 110.675C474.665 112.787 477.737 113.843 481.097 113.843H486.281C489.449 113.843 492.377 112.787 495.065 110.675C497.849 108.467 500.057 105.395 501.689 101.459C503.417 97.4274 504.281 92.9634 504.281 88.0674C504.281 83.1714 503.417 78.7554 501.689 74.8194C500.057 70.7874 497.849 67.7154 495.065 65.6034C492.377 63.3954 489.449 62.2914 486.281 62.2914H481.097Z" fill="#131125" style="fill:color(display-p3 0.0745 0.0667 0.1451);fill-opacity:1;"/>
<path d="M433.469 63.1558C430.397 63.1558 427.757 64.2118 425.549 66.3238C423.437 68.3398 421.805 70.9318 420.653 74.0998C419.501 77.1718 418.925 80.1958 418.925 83.1718V124.356H405.533V51.7798H418.925V55.6678C418.925 57.2038 419.357 58.1158 420.221 58.4038C421.085 58.5958 422.045 58.1158 423.101 56.9638C424.541 55.1398 426.125 53.8438 427.853 53.0758C429.677 52.2118 431.933 51.7798 434.621 51.7798H443.405V63.1558H433.469Z" fill="#131125" style="fill:color(display-p3 0.0745 0.0667 0.1451);fill-opacity:1;"/>
<path d="M358.738 125.507C352.786 125.507 347.41 123.923 342.61 120.755C337.906 117.491 334.162 113.027 331.378 107.363C328.69 101.603 327.346 95.1714 327.346 88.0674C327.346 80.9634 328.69 74.5794 331.378 68.9154C334.162 63.1554 337.906 58.6914 342.61 55.5234C347.41 52.2594 352.786 50.6274 358.738 50.6274H364.066C369.922 50.6274 375.25 52.2594 380.05 55.5234C384.85 58.6914 388.594 63.1554 391.282 68.9154C394.066 74.5794 395.458 80.9634 395.458 88.0674C395.458 95.1714 394.066 101.603 391.282 107.363C388.594 113.027 384.85 117.491 380.05 120.755C375.346 123.923 370.018 125.507 364.066 125.507H358.738ZM364.066 113.843C367.234 113.843 370.162 112.739 372.85 110.531C375.634 108.323 377.794 105.251 379.33 101.315C380.866 97.3794 381.634 92.9634 381.634 88.0674C381.634 83.1714 380.866 78.8034 379.33 74.9634C377.794 71.0274 375.634 67.9554 372.85 65.7474C370.162 63.4434 367.186 62.2914 363.922 62.2914H358.738C355.474 62.2914 352.498 63.3954 349.81 65.6034C347.122 67.8114 344.962 70.8834 343.33 74.8194C341.794 78.6594 341.026 83.0754 341.026 88.0674C341.026 93.0594 341.794 97.5234 343.33 101.459C344.962 105.299 347.122 108.323 349.81 110.531C352.498 112.739 355.474 113.843 358.738 113.843H364.066Z" fill="#131125" style="fill:color(display-p3 0.0745 0.0667 0.1451);fill-opacity:1;"/>
<path d="M219.156 23.5557H237.732L265.668 97.2837C266.244 98.8197 267.108 99.5877 268.26 99.5877C269.412 99.5877 270.276 98.8197 270.852 97.2837L298.788 23.5557H317.508V124.356H303.684L303.828 58.2597C303.828 57.2037 303.492 56.4837 302.82 56.0997C302.244 55.6197 301.572 55.5237 300.804 55.8117C300.132 56.0037 299.652 56.5317 299.364 57.3957L273.732 124.356H262.644L237.3 57.3957C236.916 56.5317 236.34 56.0037 235.572 55.8117C234.9 55.5237 234.276 55.6197 233.7 56.0997C233.124 56.5797 232.836 57.2997 232.836 58.2597L232.98 124.356H219.156V23.5557Z" fill="#131125" style="fill:color(display-p3 0.0745 0.0667 0.1451);fill-opacity:1;"/>
<path fill-rule="evenodd" clip-rule="evenodd" d="M0 150H53.719V71.8872C53.719 69.383 57.3137 68.9808 57.8671 71.4231L70.693 128.028H102.924V108.786C102.924 107.626 103.865 106.686 105.024 106.686H156V0H102.281V19.2421C102.281 20.4019 101.341 21.3421 100.181 21.3421H46.5194L50.917 40.7503C51.2147 42.064 50.216 43.3144 48.869 43.3144H0V150Z" fill="#131125" style="fill:color(display-p3 0.0745 0.0667 0.1451);fill-opacity:1;"/>
</svg>
