<svg width="1920" height="480" viewBox="0 0 1920 480" fill="none" xmlns="http://www.w3.org/2000/svg">
<rect width="1920" height="480" fill="#08080D"/>
<mask id="mask0_1_119" style="mask-type:alpha" maskUnits="userSpaceOnUse" x="0" y="0" width="1920" height="480">
<rect width="1920" height="480" fill="#00D1FF"/>
</mask>
<g mask="url(#mask0_1_119)">
<g filter="url(#filter0_d_1_119)">
<ellipse cx="1375" cy="59.8752" rx="293" ry="292.391" fill="url(#paint0_linear_1_119)" shape-rendering="crispEdges"/>
</g>
<g filter="url(#filter1_d_1_119)">
<ellipse cx="1553.45" cy="237.399" rx="142.451" ry="142.155" fill="url(#paint1_linear_1_119)"/>
</g>
<g filter="url(#filter2_f_1_119)">
<ellipse cx="1648.52" cy="167.378" rx="67.518" ry="67.3777" fill="#002FD7"/>
</g>
<g filter="url(#filter3_f_1_119)">
<ellipse cx="33.8493" cy="67.4267" rx="33.8493" ry="67.4267" transform="matrix(0.807217 0.590255 -0.591856 0.806044 1497.06 82)" fill="#FFC4F9"/>
</g>
<g filter="url(#filter4_f_1_119)">
<ellipse cx="1482.08" cy="319.904" rx="85.0805" ry="84.9037" fill="#7A00A5"/>
</g>
<circle cx="383.499" cy="401.5" r="47.5" fill="url(#paint2_radial_1_119)"/>
<g filter="url(#filter5_f_1_119)">
<ellipse cx="699.062" cy="265.992" rx="34.0624" ry="33.9916" fill="#F03FFF"/>
</g>
<g filter="url(#filter6_f_1_119)">
<ellipse cx="426.031" cy="421.975" rx="27.0312" ry="26.975" fill="#9F24FF"/>
</g>
<ellipse cx="1670.49" cy="130.399" rx="44.4916" ry="44.3992" fill="url(#paint3_radial_1_119)"/>
<g opacity="0.8" filter="url(#filter7_f_1_119)">
<path fill-rule="evenodd" clip-rule="evenodd" d="M1180.5 158.456C1180.5 164.419 1178.07 169.813 1174.14 173.702C1169.52 179.535 1155.02 202.275 1169.76 212.096H1172.88C1174.12 212.096 1175.13 213.107 1175.13 214.353V295.664C1175.13 296.91 1174.12 297.92 1172.88 297.92H1145.17C1143.93 297.92 1142.92 296.91 1142.92 295.664V214.353C1142.92 213.107 1143.93 212.096 1145.17 212.096H1148.29C1163.03 202.275 1148.53 179.536 1143.91 173.702C1139.98 169.814 1137.55 164.419 1137.55 158.456C1137.55 146.606 1147.16 137 1159.03 137C1170.89 137 1180.5 146.606 1180.5 158.456ZM420.259 145.8C419.011 145.8 418 146.811 418 148.057V295.664C418 296.91 419.011 297.92 420.259 297.92H439.401C440.649 297.92 441.66 296.91 441.66 295.664V199.471C441.66 198.997 442.299 198.843 442.515 199.265L492.379 296.691C492.766 297.446 493.543 297.92 494.391 297.92H506.086C506.942 297.92 507.724 297.438 508.106 296.674L556.338 200.436C556.551 200.01 557.194 200.162 557.194 200.638V295.664C557.194 296.91 558.205 297.92 559.453 297.92H592.313C593.561 297.92 594.572 296.91 594.572 295.664V148.057C594.572 146.811 593.561 145.8 592.313 145.8H560.353C559.497 145.8 558.714 146.284 558.332 147.049L507.38 248.966C507.214 249.298 506.74 249.3 506.573 248.968L454.998 147.039C454.614 146.279 453.834 145.8 452.982 145.8H420.259ZM750.924 236.234C750.924 270.303 722.075 297.92 686.487 297.92C650.9 297.92 622.05 270.303 622.05 236.234C622.05 202.166 650.9 174.548 686.487 174.548C722.075 174.548 750.924 202.166 750.924 236.234ZM713.336 236.234C713.336 264.378 701.315 287.192 686.487 287.192C671.659 287.192 659.639 264.378 659.639 236.234C659.639 208.091 671.659 185.276 686.487 185.276C701.315 185.276 713.336 208.091 713.336 236.234ZM772.403 182.169C772.403 180.923 773.415 179.912 774.662 179.912H802.363C803.61 179.912 804.622 180.923 804.622 182.169V195.972C814.179 187.97 827.791 179.912 842.21 179.912C851.107 179.912 858.319 187.117 858.319 196.004C858.319 204.892 851.107 212.096 842.21 212.096C834.583 212.096 828.194 206.801 826.525 199.69L826.101 199.4C818.775 198.751 813.286 200.35 804.622 209.227V295.664C804.622 296.91 803.61 297.92 802.363 297.92H774.662C773.415 297.92 772.403 296.91 772.403 295.664V182.169ZM869.059 182.169C869.059 180.923 870.07 179.912 871.318 179.912H899.018C900.266 179.912 901.277 180.923 901.277 182.169V186.541C908.704 182.301 917.659 179.912 928.126 179.912C963.713 179.912 992.563 207.53 992.563 241.598C992.563 275.667 963.713 303.284 928.126 303.284C917.659 303.284 908.704 300.895 901.277 296.656V370.76C901.277 372.006 900.266 373.017 899.018 373.017H871.318C870.07 373.017 869.059 372.006 869.059 370.76V182.169ZM901.277 241.546V241.651C901.294 266.807 913.308 287.192 928.126 287.192C942.954 287.192 954.975 266.779 954.975 241.598C954.975 216.417 942.954 196.004 928.126 196.004C913.308 196.004 901.294 216.389 901.277 241.546ZM1005.56 147.728C1004.31 147.728 1003.3 148.738 1003.3 149.985V295.664C1003.3 296.91 1004.31 297.92 1005.56 297.92H1033.26C1034.51 297.92 1035.52 296.91 1035.52 295.664V220.959C1035.52 220.056 1036.07 219.241 1036.9 218.89L1072.2 204.012C1075.18 202.757 1078.48 204.942 1078.48 208.171V297.92H1108.44C1109.69 297.92 1110.7 296.91 1110.7 295.664V207.221C1110.7 200.039 1107.91 193.03 1102.02 188.908C1095.86 184.595 1087.17 179.912 1078.48 179.912C1062.38 179.912 1035.55 195.985 1035.52 196.004V149.985C1035.52 148.738 1034.51 147.728 1033.26 147.728H1005.56ZM1253.07 179.912C1280.99 179.912 1295.95 196.004 1295.95 212.096H1277.23C1276.33 204.944 1266.42 193.322 1253.07 196.004C1233.9 199.853 1231.59 220.142 1253.07 225.506C1287.9 234.205 1298.71 255.008 1298.71 263.054C1298.71 271.1 1296.02 300.602 1250.38 300.602C1213.87 300.602 1206.53 277.358 1207.42 265.736H1226.22C1226.22 281.828 1239.57 287.192 1250.38 287.192C1264.85 287.192 1279.84 264.761 1253.07 255.008C1212.79 240.342 1207.42 230.87 1207.42 217.46C1207.42 204.05 1218.16 179.912 1253.07 179.912ZM1327.75 179.912C1326.5 179.912 1325.49 180.923 1325.49 182.169V295.664C1325.49 296.91 1326.5 297.92 1327.75 297.92H1355.45C1356.69 297.92 1357.71 296.91 1357.71 295.664V214.946L1383.65 204.012C1386.63 202.757 1389.92 204.942 1389.92 208.171V297.92H1419.88C1421.13 297.92 1422.14 296.91 1422.14 295.664V214.946L1448.09 204.012C1451.07 202.757 1454.36 204.942 1454.36 208.171V297.92H1484.32C1485.57 297.92 1486.58 296.91 1486.58 295.664V207.221C1486.58 200.039 1483.79 193.03 1477.9 188.908C1471.74 184.595 1463.05 179.912 1454.36 179.912C1442.99 179.912 1426.28 187.926 1417.42 192.643C1416.31 191.236 1414.99 189.976 1413.47 188.908C1407.3 184.595 1398.61 179.912 1389.92 179.912C1380.35 179.912 1366.98 185.599 1357.71 190.211V182.169C1357.71 180.923 1356.69 179.912 1355.45 179.912H1327.75Z" fill="url(#paint4_linear_1_119)"/>
<path fill-rule="evenodd" clip-rule="evenodd" d="M1180.5 158.456C1180.5 164.419 1178.07 169.813 1174.14 173.702C1169.52 179.535 1155.02 202.275 1169.76 212.096H1172.88C1174.12 212.096 1175.13 213.107 1175.13 214.353V295.664C1175.13 296.91 1174.12 297.92 1172.88 297.92H1145.17C1143.93 297.92 1142.92 296.91 1142.92 295.664V214.353C1142.92 213.107 1143.93 212.096 1145.17 212.096H1148.29C1163.03 202.275 1148.53 179.536 1143.91 173.702C1139.98 169.814 1137.55 164.419 1137.55 158.456C1137.55 146.606 1147.16 137 1159.03 137C1170.89 137 1180.5 146.606 1180.5 158.456ZM420.259 145.8C419.011 145.8 418 146.811 418 148.057V295.664C418 296.91 419.011 297.92 420.259 297.92H439.401C440.649 297.92 441.66 296.91 441.66 295.664V199.471C441.66 198.997 442.299 198.843 442.515 199.265L492.379 296.691C492.766 297.446 493.543 297.92 494.391 297.92H506.086C506.942 297.92 507.724 297.438 508.106 296.674L556.338 200.436C556.551 200.01 557.194 200.162 557.194 200.638V295.664C557.194 296.91 558.205 297.92 559.453 297.92H592.313C593.561 297.92 594.572 296.91 594.572 295.664V148.057C594.572 146.811 593.561 145.8 592.313 145.8H560.353C559.497 145.8 558.714 146.284 558.332 147.049L507.38 248.966C507.214 249.298 506.74 249.3 506.573 248.968L454.998 147.039C454.614 146.279 453.834 145.8 452.982 145.8H420.259ZM750.924 236.234C750.924 270.303 722.075 297.92 686.487 297.92C650.9 297.92 622.05 270.303 622.05 236.234C622.05 202.166 650.9 174.548 686.487 174.548C722.075 174.548 750.924 202.166 750.924 236.234ZM713.336 236.234C713.336 264.378 701.315 287.192 686.487 287.192C671.659 287.192 659.639 264.378 659.639 236.234C659.639 208.091 671.659 185.276 686.487 185.276C701.315 185.276 713.336 208.091 713.336 236.234ZM772.403 182.169C772.403 180.923 773.415 179.912 774.662 179.912H802.363C803.61 179.912 804.622 180.923 804.622 182.169V195.972C814.179 187.97 827.791 179.912 842.21 179.912C851.107 179.912 858.319 187.117 858.319 196.004C858.319 204.892 851.107 212.096 842.21 212.096C834.583 212.096 828.194 206.801 826.525 199.69L826.101 199.4C818.775 198.751 813.286 200.35 804.622 209.227V295.664C804.622 296.91 803.61 297.92 802.363 297.92H774.662C773.415 297.92 772.403 296.91 772.403 295.664V182.169ZM869.059 182.169C869.059 180.923 870.07 179.912 871.318 179.912H899.018C900.266 179.912 901.277 180.923 901.277 182.169V186.541C908.704 182.301 917.659 179.912 928.126 179.912C963.713 179.912 992.563 207.53 992.563 241.598C992.563 275.667 963.713 303.284 928.126 303.284C917.659 303.284 908.704 300.895 901.277 296.656V370.76C901.277 372.006 900.266 373.017 899.018 373.017H871.318C870.07 373.017 869.059 372.006 869.059 370.76V182.169ZM901.277 241.546V241.651C901.294 266.807 913.308 287.192 928.126 287.192C942.954 287.192 954.975 266.779 954.975 241.598C954.975 216.417 942.954 196.004 928.126 196.004C913.308 196.004 901.294 216.389 901.277 241.546ZM1005.56 147.728C1004.31 147.728 1003.3 148.738 1003.3 149.985V295.664C1003.3 296.91 1004.31 297.92 1005.56 297.92H1033.26C1034.51 297.92 1035.52 296.91 1035.52 295.664V220.959C1035.52 220.056 1036.07 219.241 1036.9 218.89L1072.2 204.012C1075.18 202.757 1078.48 204.942 1078.48 208.171V297.92H1108.44C1109.69 297.92 1110.7 296.91 1110.7 295.664V207.221C1110.7 200.039 1107.91 193.03 1102.02 188.908C1095.86 184.595 1087.17 179.912 1078.48 179.912C1062.38 179.912 1035.55 195.985 1035.52 196.004V149.985C1035.52 148.738 1034.51 147.728 1033.26 147.728H1005.56ZM1253.07 179.912C1280.99 179.912 1295.95 196.004 1295.95 212.096H1277.23C1276.33 204.944 1266.42 193.322 1253.07 196.004C1233.9 199.853 1231.59 220.142 1253.07 225.506C1287.9 234.205 1298.71 255.008 1298.71 263.054C1298.71 271.1 1296.02 300.602 1250.38 300.602C1213.87 300.602 1206.53 277.358 1207.42 265.736H1226.22C1226.22 281.828 1239.57 287.192 1250.38 287.192C1264.85 287.192 1279.84 264.761 1253.07 255.008C1212.79 240.342 1207.42 230.87 1207.42 217.46C1207.42 204.05 1218.16 179.912 1253.07 179.912ZM1327.75 179.912C1326.5 179.912 1325.49 180.923 1325.49 182.169V295.664C1325.49 296.91 1326.5 297.92 1327.75 297.92H1355.45C1356.69 297.92 1357.71 296.91 1357.71 295.664V214.946L1383.65 204.012C1386.63 202.757 1389.92 204.942 1389.92 208.171V297.92H1419.88C1421.13 297.92 1422.14 296.91 1422.14 295.664V214.946L1448.09 204.012C1451.07 202.757 1454.36 204.942 1454.36 208.171V297.92H1484.32C1485.57 297.92 1486.58 296.91 1486.58 295.664V207.221C1486.58 200.039 1483.79 193.03 1477.9 188.908C1471.74 184.595 1463.05 179.912 1454.36 179.912C1442.99 179.912 1426.28 187.926 1417.42 192.643C1416.31 191.236 1414.99 189.976 1413.47 188.908C1407.3 184.595 1398.61 179.912 1389.92 179.912C1380.35 179.912 1366.98 185.599 1357.71 190.211V182.169C1357.71 180.923 1356.69 179.912 1355.45 179.912H1327.75Z" fill="url(#paint5_linear_1_119)"/>
</g>
<ellipse cx="1419.56" cy="414.526" rx="17.5625" ry="17.526" fill="url(#paint6_linear_1_119)"/>
</g>
<ellipse cx="483.265" cy="94.1161" rx="8.19583" ry="8.1788" fill="#6481EB"/>
<ellipse cx="596.836" cy="131.113" rx="6.24444" ry="6.23147" fill="#6481EB"/>
<ellipse cx="557.808" cy="108.523" rx="6.24444" ry="6.23147" fill="#6481EB"/>
<ellipse cx="585.908" cy="59.4518" rx="3.90278" ry="3.89467" fill="#6481EB"/>
<path d="M482.874 94.5003L585.908 59.0588M585.908 59.0588L596.835 131.5L559.369 108.132L585.908 59.0588Z" stroke="#6481EB"/>
<defs>
<filter id="filter0_d_1_119" x="841" y="-405.516" width="972" height="970.782" filterUnits="userSpaceOnUse" color-interpolation-filters="sRGB">
<feFlood flood-opacity="0" result="BackgroundImageFix"/>
<feColorMatrix in="SourceAlpha" type="matrix" values="0 0 0 0 0 0 0 0 0 0 0 0 0 0 0 0 0 0 127 0" result="hardAlpha"/>
<feMorphology radius="62" operator="dilate" in="SourceAlpha" result="effect1_dropShadow_1_119"/>
<feOffset dx="-48" dy="20"/>
<feGaussianBlur stdDeviation="65.5"/>
<feComposite in2="hardAlpha" operator="out"/>
<feColorMatrix type="matrix" values="0 0 0 0 0.107825 0 0 0 0 0.0841493 0 0 0 0 0.545833 0 0 0 1 0"/>
<feBlend mode="normal" in2="BackgroundImageFix" result="effect1_dropShadow_1_119"/>
<feBlend mode="normal" in="SourceGraphic" in2="effect1_dropShadow_1_119" result="shape"/>
</filter>
<filter id="filter1_d_1_119" x="1289" y="-22.7568" width="528.903" height="528.311" filterUnits="userSpaceOnUse" color-interpolation-filters="sRGB">
<feFlood flood-opacity="0" result="BackgroundImageFix"/>
<feColorMatrix in="SourceAlpha" type="matrix" values="0 0 0 0 0 0 0 0 0 0 0 0 0 0 0 0 0 0 127 0" result="hardAlpha"/>
<feMorphology radius="68" operator="dilate" in="SourceAlpha" result="effect1_dropShadow_1_119"/>
<feOffset dy="4"/>
<feGaussianBlur stdDeviation="27"/>
<feComposite in2="hardAlpha" operator="out"/>
<feColorMatrix type="matrix" values="0 0 0 0 0.00447917 0 0 0 0 0.097189 0 0 0 0 0.358333 0 0 0 0.33 0"/>
<feBlend mode="normal" in2="BackgroundImageFix" result="effect1_dropShadow_1_119"/>
<feBlend mode="normal" in="SourceGraphic" in2="effect1_dropShadow_1_119" result="shape"/>
</filter>
<filter id="filter2_f_1_119" x="1489" y="8" width="319.036" height="318.755" filterUnits="userSpaceOnUse" color-interpolation-filters="sRGB">
<feFlood flood-opacity="0" result="BackgroundImageFix"/>
<feBlend mode="normal" in="SourceGraphic" in2="BackgroundImageFix" result="shape"/>
<feGaussianBlur stdDeviation="46" result="effect1_foregroundBlur_1_119"/>
</filter>
<filter id="filter3_f_1_119" x="1365.11" y="27.408" width="238.739" height="257.841" filterUnits="userSpaceOnUse" color-interpolation-filters="sRGB">
<feFlood flood-opacity="0" result="BackgroundImageFix"/>
<feBlend mode="normal" in="SourceGraphic" in2="BackgroundImageFix" result="shape"/>
<feGaussianBlur stdDeviation="35.5" result="effect1_foregroundBlur_1_119"/>
</filter>
<filter id="filter4_f_1_119" x="1241" y="79" width="482.161" height="481.807" filterUnits="userSpaceOnUse" color-interpolation-filters="sRGB">
<feFlood flood-opacity="0" result="BackgroundImageFix"/>
<feBlend mode="normal" in="SourceGraphic" in2="BackgroundImageFix" result="shape"/>
<feGaussianBlur stdDeviation="78" result="effect1_foregroundBlur_1_119"/>
</filter>
<filter id="filter5_f_1_119" x="509" y="76" width="380.125" height="379.983" filterUnits="userSpaceOnUse" color-interpolation-filters="sRGB">
<feFlood flood-opacity="0" result="BackgroundImageFix"/>
<feBlend mode="normal" in="SourceGraphic" in2="BackgroundImageFix" result="shape"/>
<feGaussianBlur stdDeviation="78" result="effect1_foregroundBlur_1_119"/>
</filter>
<filter id="filter6_f_1_119" x="307" y="303" width="238.062" height="237.95" filterUnits="userSpaceOnUse" color-interpolation-filters="sRGB">
<feFlood flood-opacity="0" result="BackgroundImageFix"/>
<feBlend mode="normal" in="SourceGraphic" in2="BackgroundImageFix" result="shape"/>
<feGaussianBlur stdDeviation="46" result="effect1_foregroundBlur_1_119"/>
</filter>
<filter id="filter7_f_1_119" x="270" y="-11" width="1364.58" height="532.017" filterUnits="userSpaceOnUse" color-interpolation-filters="sRGB">
<feFlood flood-opacity="0" result="BackgroundImageFix"/>
<feBlend mode="normal" in="SourceGraphic" in2="BackgroundImageFix" result="shape"/>
<feGaussianBlur stdDeviation="74" result="effect1_foregroundBlur_1_119"/>
</filter>
<linearGradient id="paint0_linear_1_119" x1="1630.91" y1="60.0929" x2="1173.24" y2="325.66" gradientUnits="userSpaceOnUse">
<stop stop-color="#001A82"/>
<stop offset="1" stop-color="#274EE7" stop-opacity="0"/>
</linearGradient>
<linearGradient id="paint1_linear_1_119" x1="1553.45" y1="95.2432" x2="1633.37" y2="229.576" gradientUnits="userSpaceOnUse">
<stop stop-color="#0052F0"/>
<stop offset="1" stop-color="#05092D"/>
</linearGradient>
<radialGradient id="paint2_radial_1_119" cx="0" cy="0" r="1" gradientUnits="userSpaceOnUse" gradientTransform="translate(374.999 381.5) rotate(59.0359) scale(78.7181 78.7181)">
<stop stop-color="#1A94BB"/>
<stop offset="0.673522" stop-color="#00109B"/>
<stop offset="1" stop-color="#AA03D3"/>
</radialGradient>
<radialGradient id="paint3_radial_1_119" cx="0" cy="0" r="1" gradientUnits="userSpaceOnUse" gradientTransform="translate(1660 100) rotate(55.6789) scale(62.9623 63.0934)">
<stop stop-color="#36B7FF"/>
<stop offset="0.993055" stop-color="#002CC8"/>
</radialGradient>
<linearGradient id="paint4_linear_1_119" x1="1486.58" y1="137" x2="418.071" y2="329.133" gradientUnits="userSpaceOnUse">
<stop stop-color="#14B5E3"/>
<stop offset="0.465567" stop-color="#6B2887"/>
<stop offset="1" stop-color="#F51553"/>
</linearGradient>
<linearGradient id="paint5_linear_1_119" x1="605.799" y1="312.251" x2="719.751" y2="230.485" gradientUnits="userSpaceOnUse">
<stop stop-color="#FF3F74"/>
<stop offset="1" stop-color="#FF039A" stop-opacity="0"/>
</linearGradient>
<linearGradient id="paint6_linear_1_119" x1="1419.56" y1="397" x2="1419.56" y2="432.052" gradientUnits="userSpaceOnUse">
<stop stop-color="#FFF500"/>
<stop offset="1" stop-color="#FFB800"/>
</linearGradient>
</defs>
</svg>
