<svg width="1920" height="480" viewBox="0 0 1920 480" fill="none" xmlns="http://www.w3.org/2000/svg">
<rect width="1920" height="480" fill="#F2F3F7"/>
<mask id="mask0_1_296" style="mask-type:alpha" maskUnits="userSpaceOnUse" x="0" y="0" width="1920" height="480">
<rect width="1920" height="480" fill="#00D1FF"/>
</mask>
<g mask="url(#mask0_1_296)">
<g filter="url(#filter0_d_1_296)">
<ellipse cx="1375" cy="59.8752" rx="293" ry="292.391" fill="#EFF2FB"/>
</g>
<ellipse cx="1553.45" cy="237.399" rx="142.451" ry="142.155" fill="url(#paint0_linear_1_296)"/>
<g filter="url(#filter1_f_1_296)">
<ellipse cx="1657.52" cy="192.378" rx="67.518" ry="67.3777" fill="#A3FFEE"/>
</g>
<g filter="url(#filter2_f_1_296)">
<ellipse cx="33.8493" cy="67.4267" rx="33.8493" ry="67.4267" transform="matrix(0.807217 0.590255 -0.591856 0.806044 1497.06 82)" fill="white"/>
</g>
<g filter="url(#filter3_f_1_296)">
<ellipse cx="1479.08" cy="354.904" rx="85.0805" ry="84.9037" fill="#E374FF"/>
</g>
<ellipse cx="406.326" cy="398.674" rx="44.6743" ry="44.6743" fill="url(#paint1_linear_1_296)"/>
<g filter="url(#filter4_f_1_296)">
<circle cx="402.053" cy="362.332" r="0.5" fill="#3FBAFF"/>
</g>
<g filter="url(#filter5_f_1_296)">
<circle cx="398.5" cy="379.847" r="9.5" fill="white"/>
</g>
<ellipse cx="1670.49" cy="130.399" rx="44.4916" ry="44.3992" fill="url(#paint2_linear_1_296)"/>
<g opacity="0.2" filter="url(#filter6_f_1_296)">
<path fill-rule="evenodd" clip-rule="evenodd" d="M1181.5 158.456C1181.5 164.419 1179.07 169.813 1175.14 173.702C1170.52 179.535 1156.02 202.275 1170.76 212.096H1173.88C1175.12 212.096 1176.13 213.107 1176.13 214.353V295.664C1176.13 296.91 1175.12 297.92 1173.88 297.92H1146.17C1144.93 297.92 1143.92 296.91 1143.92 295.664V214.353C1143.92 213.107 1144.93 212.096 1146.17 212.096H1149.29C1164.03 202.275 1149.53 179.536 1144.91 173.702C1140.98 169.814 1138.55 164.419 1138.55 158.456C1138.55 146.606 1148.16 137 1160.03 137C1171.89 137 1181.5 146.606 1181.5 158.456ZM421.259 145.8C420.011 145.8 419 146.811 419 148.057V295.664C419 296.91 420.011 297.92 421.259 297.92H440.401C441.649 297.92 442.66 296.91 442.66 295.664V199.471C442.66 198.997 443.299 198.843 443.515 199.265L493.379 296.691C493.766 297.446 494.543 297.92 495.391 297.92H507.086C507.942 297.92 508.724 297.438 509.106 296.674L557.338 200.436C557.551 200.01 558.194 200.162 558.194 200.638V295.664C558.194 296.91 559.205 297.92 560.453 297.92H593.313C594.561 297.92 595.572 296.91 595.572 295.664V148.057C595.572 146.811 594.561 145.8 593.313 145.8H561.353C560.497 145.8 559.714 146.284 559.332 147.049L508.38 248.966C508.214 249.298 507.74 249.3 507.573 248.968L455.998 147.039C455.614 146.279 454.834 145.8 453.982 145.8H421.259ZM751.924 236.234C751.924 270.303 723.075 297.92 687.487 297.92C651.9 297.92 623.05 270.303 623.05 236.234C623.05 202.166 651.9 174.548 687.487 174.548C723.075 174.548 751.924 202.166 751.924 236.234ZM714.336 236.234C714.336 264.378 702.315 287.192 687.487 287.192C672.659 287.192 660.639 264.378 660.639 236.234C660.639 208.091 672.659 185.276 687.487 185.276C702.315 185.276 714.336 208.091 714.336 236.234ZM773.403 182.169C773.403 180.923 774.415 179.912 775.662 179.912H803.363C804.61 179.912 805.622 180.923 805.622 182.169V195.972C815.179 187.97 828.791 179.912 843.21 179.912C852.107 179.912 859.319 187.117 859.319 196.004C859.319 204.892 852.107 212.096 843.21 212.096C835.583 212.096 829.194 206.801 827.525 199.69L827.101 199.4C819.775 198.751 814.286 200.35 805.622 209.227V295.664C805.622 296.91 804.61 297.92 803.363 297.92H775.662C774.415 297.92 773.403 296.91 773.403 295.664V182.169ZM870.059 182.169C870.059 180.923 871.07 179.912 872.318 179.912H900.018C901.266 179.912 902.277 180.923 902.277 182.169V186.541C909.704 182.301 918.659 179.912 929.126 179.912C964.713 179.912 993.563 207.53 993.563 241.598C993.563 275.667 964.713 303.284 929.126 303.284C918.659 303.284 909.704 300.895 902.277 296.656V370.76C902.277 372.006 901.266 373.017 900.018 373.017H872.318C871.07 373.017 870.059 372.006 870.059 370.76V182.169ZM902.277 241.546V241.651C902.294 266.807 914.308 287.192 929.126 287.192C943.954 287.192 955.975 266.779 955.975 241.598C955.975 216.417 943.954 196.004 929.126 196.004C914.308 196.004 902.294 216.389 902.277 241.546ZM1006.56 147.728C1005.31 147.728 1004.3 148.738 1004.3 149.985V295.664C1004.3 296.91 1005.31 297.92 1006.56 297.92H1034.26C1035.51 297.92 1036.52 296.91 1036.52 295.664V220.959C1036.52 220.056 1037.07 219.241 1037.9 218.89L1073.2 204.012C1076.18 202.757 1079.48 204.942 1079.48 208.171V297.92H1109.44C1110.69 297.92 1111.7 296.91 1111.7 295.664V207.221C1111.7 200.039 1108.91 193.03 1103.02 188.908C1096.86 184.595 1088.17 179.912 1079.48 179.912C1063.38 179.912 1036.55 195.985 1036.52 196.004V149.985C1036.52 148.738 1035.51 147.728 1034.26 147.728H1006.56ZM1254.07 179.912C1281.99 179.912 1296.95 196.004 1296.95 212.096H1278.23C1277.33 204.944 1267.42 193.322 1254.07 196.004C1234.9 199.853 1232.59 220.142 1254.07 225.506C1288.9 234.205 1299.71 255.008 1299.71 263.054C1299.71 271.1 1297.02 300.602 1251.38 300.602C1214.87 300.602 1207.53 277.358 1208.42 265.736H1227.22C1227.22 281.828 1240.57 287.192 1251.38 287.192C1265.85 287.192 1280.84 264.761 1254.07 255.008C1213.79 240.342 1208.42 230.87 1208.42 217.46C1208.42 204.05 1219.16 179.912 1254.07 179.912ZM1328.75 179.912C1327.5 179.912 1326.49 180.923 1326.49 182.169V295.664C1326.49 296.91 1327.5 297.92 1328.75 297.92H1356.45C1357.69 297.92 1358.71 296.91 1358.71 295.664V214.946L1384.65 204.012C1387.63 202.757 1390.92 204.942 1390.92 208.171V297.92H1420.88C1422.13 297.92 1423.14 296.91 1423.14 295.664V214.946L1449.09 204.012C1452.07 202.757 1455.36 204.942 1455.36 208.171V297.92H1485.32C1486.57 297.92 1487.58 296.91 1487.58 295.664V207.221C1487.58 200.039 1484.79 193.03 1478.9 188.908C1472.74 184.595 1464.05 179.912 1455.36 179.912C1443.99 179.912 1427.28 187.926 1418.42 192.643C1417.31 191.236 1415.99 189.976 1414.47 188.908C1408.3 184.595 1399.61 179.912 1390.92 179.912C1381.35 179.912 1367.98 185.599 1358.71 190.211V182.169C1358.71 180.923 1357.69 179.912 1356.45 179.912H1328.75Z" fill="url(#paint3_linear_1_296)"/>
<path fill-rule="evenodd" clip-rule="evenodd" d="M1181.5 158.456C1181.5 164.419 1179.07 169.813 1175.14 173.702C1170.52 179.535 1156.02 202.275 1170.76 212.096H1173.88C1175.12 212.096 1176.13 213.107 1176.13 214.353V295.664C1176.13 296.91 1175.12 297.92 1173.88 297.92H1146.17C1144.93 297.92 1143.92 296.91 1143.92 295.664V214.353C1143.92 213.107 1144.93 212.096 1146.17 212.096H1149.29C1164.03 202.275 1149.53 179.536 1144.91 173.702C1140.98 169.814 1138.55 164.419 1138.55 158.456C1138.55 146.606 1148.16 137 1160.03 137C1171.89 137 1181.5 146.606 1181.5 158.456ZM421.259 145.8C420.011 145.8 419 146.811 419 148.057V295.664C419 296.91 420.011 297.92 421.259 297.92H440.401C441.649 297.92 442.66 296.91 442.66 295.664V199.471C442.66 198.997 443.299 198.843 443.515 199.265L493.379 296.691C493.766 297.446 494.543 297.92 495.391 297.92H507.086C507.942 297.92 508.724 297.438 509.106 296.674L557.338 200.436C557.551 200.01 558.194 200.162 558.194 200.638V295.664C558.194 296.91 559.205 297.92 560.453 297.92H593.313C594.561 297.92 595.572 296.91 595.572 295.664V148.057C595.572 146.811 594.561 145.8 593.313 145.8H561.353C560.497 145.8 559.714 146.284 559.332 147.049L508.38 248.966C508.214 249.298 507.74 249.3 507.573 248.968L455.998 147.039C455.614 146.279 454.834 145.8 453.982 145.8H421.259ZM751.924 236.234C751.924 270.303 723.075 297.92 687.487 297.92C651.9 297.92 623.05 270.303 623.05 236.234C623.05 202.166 651.9 174.548 687.487 174.548C723.075 174.548 751.924 202.166 751.924 236.234ZM714.336 236.234C714.336 264.378 702.315 287.192 687.487 287.192C672.659 287.192 660.639 264.378 660.639 236.234C660.639 208.091 672.659 185.276 687.487 185.276C702.315 185.276 714.336 208.091 714.336 236.234ZM773.403 182.169C773.403 180.923 774.415 179.912 775.662 179.912H803.363C804.61 179.912 805.622 180.923 805.622 182.169V195.972C815.179 187.97 828.791 179.912 843.21 179.912C852.107 179.912 859.319 187.117 859.319 196.004C859.319 204.892 852.107 212.096 843.21 212.096C835.583 212.096 829.194 206.801 827.525 199.69L827.101 199.4C819.775 198.751 814.286 200.35 805.622 209.227V295.664C805.622 296.91 804.61 297.92 803.363 297.92H775.662C774.415 297.92 773.403 296.91 773.403 295.664V182.169ZM870.059 182.169C870.059 180.923 871.07 179.912 872.318 179.912H900.018C901.266 179.912 902.277 180.923 902.277 182.169V186.541C909.704 182.301 918.659 179.912 929.126 179.912C964.713 179.912 993.563 207.53 993.563 241.598C993.563 275.667 964.713 303.284 929.126 303.284C918.659 303.284 909.704 300.895 902.277 296.656V370.76C902.277 372.006 901.266 373.017 900.018 373.017H872.318C871.07 373.017 870.059 372.006 870.059 370.76V182.169ZM902.277 241.546V241.651C902.294 266.807 914.308 287.192 929.126 287.192C943.954 287.192 955.975 266.779 955.975 241.598C955.975 216.417 943.954 196.004 929.126 196.004C914.308 196.004 902.294 216.389 902.277 241.546ZM1006.56 147.728C1005.31 147.728 1004.3 148.738 1004.3 149.985V295.664C1004.3 296.91 1005.31 297.92 1006.56 297.92H1034.26C1035.51 297.92 1036.52 296.91 1036.52 295.664V220.959C1036.52 220.056 1037.07 219.241 1037.9 218.89L1073.2 204.012C1076.18 202.757 1079.48 204.942 1079.48 208.171V297.92H1109.44C1110.69 297.92 1111.7 296.91 1111.7 295.664V207.221C1111.7 200.039 1108.91 193.03 1103.02 188.908C1096.86 184.595 1088.17 179.912 1079.48 179.912C1063.38 179.912 1036.55 195.985 1036.52 196.004V149.985C1036.52 148.738 1035.51 147.728 1034.26 147.728H1006.56ZM1254.07 179.912C1281.99 179.912 1296.95 196.004 1296.95 212.096H1278.23C1277.33 204.944 1267.42 193.322 1254.07 196.004C1234.9 199.853 1232.59 220.142 1254.07 225.506C1288.9 234.205 1299.71 255.008 1299.71 263.054C1299.71 271.1 1297.02 300.602 1251.38 300.602C1214.87 300.602 1207.53 277.358 1208.42 265.736H1227.22C1227.22 281.828 1240.57 287.192 1251.38 287.192C1265.85 287.192 1280.84 264.761 1254.07 255.008C1213.79 240.342 1208.42 230.87 1208.42 217.46C1208.42 204.05 1219.16 179.912 1254.07 179.912ZM1328.75 179.912C1327.5 179.912 1326.49 180.923 1326.49 182.169V295.664C1326.49 296.91 1327.5 297.92 1328.75 297.92H1356.45C1357.69 297.92 1358.71 296.91 1358.71 295.664V214.946L1384.65 204.012C1387.63 202.757 1390.92 204.942 1390.92 208.171V297.92H1420.88C1422.13 297.92 1423.14 296.91 1423.14 295.664V214.946L1449.09 204.012C1452.07 202.757 1455.36 204.942 1455.36 208.171V297.92H1485.32C1486.57 297.92 1487.58 296.91 1487.58 295.664V207.221C1487.58 200.039 1484.79 193.03 1478.9 188.908C1472.74 184.595 1464.05 179.912 1455.36 179.912C1443.99 179.912 1427.28 187.926 1418.42 192.643C1417.31 191.236 1415.99 189.976 1414.47 188.908C1408.3 184.595 1399.61 179.912 1390.92 179.912C1381.35 179.912 1367.98 185.599 1358.71 190.211V182.169C1358.71 180.923 1357.69 179.912 1356.45 179.912H1328.75Z" fill="url(#paint4_linear_1_296)"/>
</g>
<ellipse cx="1419.56" cy="414.526" rx="17.5625" ry="17.526" fill="url(#paint5_linear_1_296)"/>
</g>
<path d="M482.874 94.5003L585.908 59.0588M585.908 59.0588L596.835 131.5L559.369 108.132L585.908 59.0588Z" stroke="#9EB3FF" stroke-width="0.5"/>
<ellipse cx="483.265" cy="94.1161" rx="8.19583" ry="8.1788" fill="#6481EB"/>
<ellipse cx="596.836" cy="131.113" rx="6.24444" ry="6.23147" fill="#6481EB"/>
<ellipse cx="557.808" cy="108.523" rx="6.24444" ry="6.23147" fill="#CC13B9"/>
<ellipse cx="585.908" cy="59.4518" rx="3.90278" ry="3.89467" fill="#6481EB"/>
<defs>
<filter id="filter0_d_1_296" x="841" y="-405.516" width="972" height="970.782" filterUnits="userSpaceOnUse" color-interpolation-filters="sRGB">
<feFlood flood-opacity="0" result="BackgroundImageFix"/>
<feColorMatrix in="SourceAlpha" type="matrix" values="0 0 0 0 0 0 0 0 0 0 0 0 0 0 0 0 0 0 127 0" result="hardAlpha"/>
<feMorphology radius="62" operator="dilate" in="SourceAlpha" result="effect1_dropShadow_1_296"/>
<feOffset dx="-48" dy="20"/>
<feGaussianBlur stdDeviation="65.5"/>
<feComposite in2="hardAlpha" operator="out"/>
<feColorMatrix type="matrix" values="0 0 0 0 0.878431 0 0 0 0 0.890196 0 0 0 0 0.964706 0 0 0 1 0"/>
<feBlend mode="normal" in2="BackgroundImageFix" result="effect1_dropShadow_1_296"/>
<feBlend mode="normal" in="SourceGraphic" in2="effect1_dropShadow_1_296" result="shape"/>
</filter>
<filter id="filter1_f_1_296" x="1498" y="33" width="319.036" height="318.755" filterUnits="userSpaceOnUse" color-interpolation-filters="sRGB">
<feFlood flood-opacity="0" result="BackgroundImageFix"/>
<feBlend mode="normal" in="SourceGraphic" in2="BackgroundImageFix" result="shape"/>
<feGaussianBlur stdDeviation="46" result="effect1_foregroundBlur_1_296"/>
</filter>
<filter id="filter2_f_1_296" x="1365.11" y="27.408" width="238.739" height="257.841" filterUnits="userSpaceOnUse" color-interpolation-filters="sRGB">
<feFlood flood-opacity="0" result="BackgroundImageFix"/>
<feBlend mode="normal" in="SourceGraphic" in2="BackgroundImageFix" result="shape"/>
<feGaussianBlur stdDeviation="35.5" result="effect1_foregroundBlur_1_296"/>
</filter>
<filter id="filter3_f_1_296" x="1238" y="114" width="482.161" height="481.807" filterUnits="userSpaceOnUse" color-interpolation-filters="sRGB">
<feFlood flood-opacity="0" result="BackgroundImageFix"/>
<feBlend mode="normal" in="SourceGraphic" in2="BackgroundImageFix" result="shape"/>
<feGaussianBlur stdDeviation="78" result="effect1_foregroundBlur_1_296"/>
</filter>
<filter id="filter4_f_1_296" x="343.553" y="303.832" width="117" height="117" filterUnits="userSpaceOnUse" color-interpolation-filters="sRGB">
<feFlood flood-opacity="0" result="BackgroundImageFix"/>
<feBlend mode="normal" in="SourceGraphic" in2="BackgroundImageFix" result="shape"/>
<feGaussianBlur stdDeviation="29" result="effect1_foregroundBlur_1_296"/>
</filter>
<filter id="filter5_f_1_296" x="363" y="344.347" width="71" height="71" filterUnits="userSpaceOnUse" color-interpolation-filters="sRGB">
<feFlood flood-opacity="0" result="BackgroundImageFix"/>
<feBlend mode="normal" in="SourceGraphic" in2="BackgroundImageFix" result="shape"/>
<feGaussianBlur stdDeviation="13" result="effect1_foregroundBlur_1_296"/>
</filter>
<filter id="filter6_f_1_296" x="358" y="76" width="1190.58" height="358.017" filterUnits="userSpaceOnUse" color-interpolation-filters="sRGB">
<feFlood flood-opacity="0" result="BackgroundImageFix"/>
<feBlend mode="normal" in="SourceGraphic" in2="BackgroundImageFix" result="shape"/>
<feGaussianBlur stdDeviation="30.5" result="effect1_foregroundBlur_1_296"/>
</filter>
<linearGradient id="paint0_linear_1_296" x1="1553" y1="130.5" x2="1629.38" y2="252.573" gradientUnits="userSpaceOnUse">
<stop stop-color="#CEF3FF"/>
<stop offset="1" stop-color="#778FF5"/>
</linearGradient>
<linearGradient id="paint1_linear_1_296" x1="377" y1="354.347" x2="406.326" y2="443.349" gradientUnits="userSpaceOnUse">
<stop stop-color="#3FFFDC"/>
<stop offset="0.598958" stop-color="#2E88F5"/>
<stop offset="1" stop-color="#DF9CFF"/>
</linearGradient>
<linearGradient id="paint2_linear_1_296" x1="1670.49" y1="86" x2="1670.49" y2="174.798" gradientUnits="userSpaceOnUse">
<stop offset="0.184094" stop-color="white"/>
<stop offset="1" stop-color="#C0D2FF"/>
</linearGradient>
<linearGradient id="paint3_linear_1_296" x1="1487.58" y1="137" x2="419.071" y2="329.133" gradientUnits="userSpaceOnUse">
<stop stop-color="#14B5E3"/>
<stop offset="0.465567" stop-color="#6B2887"/>
<stop offset="1" stop-color="#F51553"/>
</linearGradient>
<linearGradient id="paint4_linear_1_296" x1="606.799" y1="312.251" x2="720.751" y2="230.485" gradientUnits="userSpaceOnUse">
<stop stop-color="#FF3F74"/>
<stop offset="1" stop-color="#FF039A" stop-opacity="0"/>
</linearGradient>
<linearGradient id="paint5_linear_1_296" x1="1419.56" y1="397" x2="1419.56" y2="432.052" gradientUnits="userSpaceOnUse">
<stop stop-color="#FFF500"/>
<stop offset="1" stop-color="#FFB800"/>
</linearGradient>
</defs>
</svg>
