<svg width="240" height="240" viewBox="0 0 240 240" fill="none" xmlns="http://www.w3.org/2000/svg">
<mask id="mask0_2086_13127" style="mask-type:alpha" maskUnits="userSpaceOnUse" x="0" y="0" width="240" height="240">
<rect width="240" height="240" fill="#D9D9D9"/>
</mask>
<g mask="url(#mask0_2086_13127)">
<path d="M148.672 207.611C183.929 218.988 208.564 197.551 215.599 177.072C228.241 140.267 199.511 144.893 213.566 115.051C228.204 83.9707 230.69 31.5534 182.125 31.5533C144.565 31.5532 140.566 62.5509 111.019 73.5285C95.6009 79.2567 56.1243 67.5509 39.097 110.97C27.3785 140.852 47.0656 173.051 77.8371 178.138C117.625 184.717 113.415 196.234 148.672 207.611Z" fill="#B8C3FF"/>
<ellipse cx="161" cy="176.5" rx="70" ry="8.5" fill="#151515"/>
<path d="M90.0353 108.166C97.3844 122.864 113.154 130.75 122.728 131.732C128.619 122.305 129.111 108.656 127.883 103.01C119.046 103.01 102.368 99.7186 97.6888 92.7C91.7967 83.8627 91.1643 80.2802 90.0347 75.7617C89.2983 72.8159 88.7357 69.8701 87.0889 69.8701C84.8796 69.8701 84.8796 72.0794 84.1431 74.2888C81.9338 74.2888 78.2521 74.2888 76.7792 75.7617C75.5517 77.2346 76.5483 83.3914 80.75 86.8085C87.0888 91.9636 85.6166 99.3281 90.0353 108.166Z" fill="#FF9960" stroke="black" stroke-width="0.5"/>
<path d="M88.5595 103.009C92.4493 119.346 113.152 130.749 122.726 131.731C124.81 128.396 125.224 127.479 126.119 123.63C121.732 123.63 109.703 122.581 103.289 117.738C91.5869 108.901 93.2269 101.277 89.2967 94.1719C85.3682 87.0698 80.091 84.9653 81.1958 86.071C81.9315 86.8073 84.8773 87.5437 88.5595 103.009Z" fill="#FF7D60"/>
<path d="M127.912 102.763L127.617 102.74L127.644 103.035C129.405 122.404 121.728 134.057 117.865 137.437L117.558 137.706L117.937 137.857C120.917 139.049 124.7 139.666 128.188 139.955C131.523 140.231 134.606 140.21 136.491 140.1C136.682 146.138 133.501 152.91 129.38 158.971C125.208 165.106 120.104 170.467 116.68 173.525L116.484 173.699L116.668 173.886L116.846 173.711C116.668 173.886 116.668 173.886 116.668 173.887L116.669 173.888L116.671 173.89L116.677 173.896C116.682 173.9 116.689 173.907 116.697 173.915C116.714 173.93 116.739 173.952 116.772 173.98C116.838 174.034 116.937 174.112 117.078 174.209C117.36 174.403 117.807 174.674 118.481 174.997C119.828 175.644 122.084 176.497 125.741 177.349C133.055 179.052 145.989 180.75 168.5 180.75C191.007 180.75 202.608 179.053 208.59 177.346C211.582 176.493 213.183 175.633 214.041 174.97C214.472 174.638 214.718 174.353 214.859 174.141C214.929 174.035 214.973 173.948 215 173.883C215.013 173.85 215.022 173.823 215.029 173.802C215.032 173.791 215.034 173.783 215.036 173.775L215.038 173.765L215.039 173.761L215.039 173.76C215.039 173.759 215.04 173.758 214.794 173.711L215.04 173.758L215.04 173.756C215.779 169.689 216.811 160.25 217.143 149.545C217.474 138.842 217.107 126.849 215.038 117.686C212.439 106.179 205.19 99.5407 195.997 96.6905C186.818 93.8449 175.714 94.7764 165.37 98.3571C150.211 103.604 134.281 103.253 127.912 102.763Z" fill="#88A4EB" stroke="black" stroke-width="0.5"/>
<path d="M132.747 123.63H126.119C124.647 128.049 120.198 136.12 118.754 137.622C118.706 137.673 122.436 139.832 132.008 139.832L132.747 123.63Z" fill="#6B89D5"/>
<path d="M144.528 167.816C132.745 166.048 121.943 171.007 118.016 173.707C118.016 173.707 122 180.5 166.5 180.5C211.556 180.5 214.491 173.707 214.491 173.707C215.964 161.924 220 125.5 211.545 109.636C206 99.233 195.097 96.38 189.451 95.6436C195.343 97.8529 201.971 102.374 207.863 112.582C215.513 125.838 208.901 155.681 204.18 161.188C199.762 166.343 181.596 166.343 170.304 165.606L165.885 166.343C165.148 170.025 159.257 170.025 144.528 167.816Z" fill="#6080D3"/>
<path d="M209.348 136.887C205.666 147.197 183.572 167.081 173.999 168.554L174.288 164.135" stroke="black" stroke-width="0.5"/>
<path d="M152.932 91.9639C151.95 101.538 150.575 122.011 152.932 127.314C155.289 132.616 158.087 137.624 168.397 136.887C169.625 138.36 172.374 143.074 173.552 150.143C174.731 157.213 174.534 162.909 174.289 164.872C169.134 166.1 156.614 167.671 147.777 164.136C136.73 159.717 128.629 147.198 131.575 126.577C133.784 114.794 139.676 107.429 138.939 103.011C138.203 100.556 135.846 94.4678 132.311 92.7003C131.702 90.8742 134.113 90.5574 136.215 92.1661C135.322 91.2775 134.21 90.1805 133.784 89.7545C133.048 89.0181 133.784 87.5452 135.257 88.2816C136.73 89.0181 138.939 91.9638 139.676 92.7003C138.448 91.2274 134.815 86.5141 135.993 85.3358C137.172 84.1575 140.903 89.2635 141.885 91.2274C141.149 89.2635 139.823 85.1885 140.412 84.5994C141.149 83.8629 141.885 83.1265 145.567 90.491L148.513 94.9097C149.004 93.9277 150.281 91.8165 151.459 91.2274C152.637 90.6383 152.932 91.4729 152.932 91.9639Z" fill="#FF9960" stroke="black" stroke-width="0.5"/>
<path d="M201.979 141.303C203.157 138.947 207.625 137.621 209.343 136.885C201.979 150.141 182.095 166.343 175.019 167.816C175.019 167.816 175.756 161.188 175.019 154.559C174.283 147.931 173.994 146.459 176.203 145.722C178.413 144.986 186.066 147.931 191.958 147.931C197.849 147.931 200.506 144.249 201.979 141.303Z" fill="#6080D3"/>
<path d="M168.392 136.886C172.811 136.15 181.359 133.204 187.251 114.793" stroke="black" stroke-width="0.5"/>
<path d="M148.954 128.783C148.954 129.52 149.248 131.287 150.427 132.465" stroke="white" stroke-width="0.5"/>
<path d="M169.577 165.605L173.996 164.868V168.55C173.996 168.55 173.554 169.287 171.786 169.287C170.019 169.287 169.577 166.832 169.577 165.605Z" fill="black"/>
<path d="M173.253 155.299C144.973 164.726 134.221 142.779 132.012 130.26C131.275 136.888 132.012 154.563 144.531 161.927C154.547 167.819 168.344 165.609 173.99 164.136L173.253 155.299Z" fill="#E06C52"/>
<path d="M118.019 137.624L121.701 131.733C121.701 131.733 117.279 130.751 115.07 130.26C112.861 136.151 118.015 137.624 118.019 137.624Z" fill="black" stroke="black"/>
<path d="M152.64 134.678C153.622 136.396 157.206 139.686 163.686 139.096" stroke="white" stroke-width="0.5"/>
<ellipse cx="147.488" cy="110.376" rx="1.4729" ry="8.8374" fill="white"/>
<ellipse cx="175.792" cy="136.789" rx="1.4729" ry="2.9458" transform="rotate(56.661 175.792 136.789)" fill="white"/>
<path d="M166.185 68.469C163.423 72.2183 160.195 78.1636 159.311 83.7772C158.869 86.5865 159.011 89.3341 160.114 91.6845C161.193 93.9829 163.179 95.8739 166.371 97.0684C164.901 100.53 163.48 105.535 163.238 109.959C163.114 112.222 163.297 114.355 163.957 116.055C164.62 117.764 165.771 119.046 167.57 119.564C170.248 120.334 172.536 120.077 174.483 119.075C176.424 118.076 178.004 116.35 179.296 114.218C181.879 109.959 183.357 104.012 184.266 98.7552C185.175 93.4992 185.989 87.9249 186.505 83.1997C186.763 80.8373 186.948 78.6848 187.032 76.8894C187.116 75.0987 187.102 73.6476 186.957 72.6957C186.877 72.1684 186.561 71.5986 186.094 71.0288C185.624 70.4545 184.984 69.8591 184.222 69.2798C182.697 68.121 180.666 67.0106 178.48 66.253C174.132 64.7462 169.036 64.5981 166.185 68.469Z" fill="#FF9960" stroke="black" stroke-width="0.5"/>
<path d="M184.021 98.714C182.205 109.218 178.132 122.341 167.64 119.325C165.164 118.613 163.967 116.379 163.589 113.493C176.816 116.483 179.908 107.485 182.271 98.4111C185.265 86.9131 185.937 72.6007 183.002 68.7303C185.09 70.0836 186.54 71.6036 186.711 72.7346C187.273 76.4378 185.838 88.2099 184.021 98.714Z" fill="#EF8C55"/>
<path d="M180.241 85.1727C180.295 85.2765 180.413 85.3296 180.526 85.3007C180.639 85.2718 180.717 85.1685 180.714 85.0519C180.676 83.5909 181.162 81.6144 181.948 80.0549C182.34 79.2761 182.799 78.6183 183.288 78.1829C183.778 77.7478 184.271 77.5564 184.752 77.6396C185.071 77.6947 185.365 78.0239 185.598 78.7057C185.824 79.3669 185.959 80.2664 186.026 81.2721C186.16 83.2791 186.02 85.643 185.849 87.2077C185.835 87.3389 185.925 87.4587 186.055 87.4812C187.239 87.6859 188.752 87.7955 190.175 87.5797C191.595 87.3644 192.965 86.8187 193.806 85.6764C194.259 85.0624 194.285 84.3446 194.11 83.6268C193.937 82.9139 193.557 82.1678 193.153 81.4571C192.998 81.1857 192.841 80.9214 192.688 80.6642C192.433 80.234 192.189 79.8237 191.988 79.4331C191.83 79.125 191.706 78.8429 191.63 78.5903C191.554 78.3362 191.532 78.1285 191.561 77.9625C191.617 77.6388 191.845 77.4057 192.263 77.1864C192.561 77.0298 192.916 76.8997 193.316 76.7529C193.49 76.6893 193.671 76.6227 193.861 76.5494C195.085 76.0756 196.495 75.3662 197.127 73.5578C197.383 72.8273 197.358 72.1948 197.122 71.6599C196.889 71.1308 196.462 70.726 195.967 70.4203C195.177 69.9332 194.169 69.6718 193.33 69.5586C196.896 66.3631 197.929 62.7318 197.317 59.7825C196.682 56.7226 194.274 54.4268 191.184 54.2052C188.23 53.9934 185.206 53.4672 182.497 52.0377C179.794 50.6116 177.389 48.2784 175.682 44.4236C174.288 41.2729 172.565 38.9186 170.417 37.3313C168.266 35.7421 165.708 34.9354 162.666 34.8502C160.845 34.7991 158.129 35.048 155.426 36.5369C152.717 38.0289 150.042 40.7541 148.29 45.6157C146.431 50.7745 147.279 55.1056 149.679 58.5562C152.07 61.9945 155.986 64.5401 160.239 66.1831C162.385 67.012 164.828 67.381 167.241 67.5926C168.441 67.6979 169.638 67.7645 170.789 67.8287L170.809 67.8298C171.968 67.8944 173.079 67.9565 174.109 68.053C176.182 68.2473 177.865 68.5777 178.913 69.3016C179.427 69.657 179.783 70.104 179.959 70.6784C180.137 71.2574 180.14 71.9891 179.906 72.9227C178.347 79.1301 179.46 83.6513 180.241 85.1727Z" fill="#F6B910" stroke="black" stroke-width="0.5" stroke-linejoin="round"/>
<path d="M184.195 63.4689C181.429 57.2208 169.324 63.9168 158.66 60.0738C149.043 56.6075 148.321 46.8663 148.321 46.8663C145.438 56.5851 152.219 62.5659 160.086 65.7295C168.492 69.1096 182.385 65.3789 180.075 73.3935C178.316 79.4949 179.742 83.426 180.491 84.8849C180.412 81.8662 182.488 76.816 184.822 77.2197C186.689 77.5426 186.199 83.8686 185.855 87.0145C188.189 87.4183 191.791 87.4402 193.362 85.3079C194.933 83.1755 190.987 79.7973 191.29 78.0466C191.593 76.2959 196.043 76.7563 197.232 73.3559C198.184 70.6356 194.501 69.908 192.716 69.7997C194.965 67.9158 195.791 67.0965 196.796 64.265C195.852 66.9257 183.083 75.0601 184.293 71.7191C185.444 68.5419 184.976 64.7457 184.195 63.4689Z" fill="#EB8405"/>
<path d="M155.496 40.2941C160.038 36.2715 164.085 36.9713 165.54 37.824C160.569 38.7673 155.777 42.1456 157.427 43.032C159.077 43.9183 159.256 46.3535 157.203 47.8014C155.15 49.2493 149.819 45.3223 155.496 40.2941Z" fill="white"/>
<path d="M173.305 46.1445L175.307 49.365" stroke="white" stroke-width="0.5"/>
<path d="M168.15 40.0776C165.816 39.6739 163.807 40.8627 163.662 41.7053C163.46 42.8724 165.693 43.8597 167.444 44.1625C169.194 44.4653 170.462 44.0836 171.147 43.6009C171.831 43.1183 171.068 40.5822 168.15 40.0776Z" fill="white"/>
<path d="M175.952 50.4424C176.528 51.7441 179.898 54.731 188.768 56.265C193.436 57.0724 193.515 60.0912 192.528 62.3245" stroke="white" stroke-width="0.5"/>
<path d="M179.121 96.1265L178.705 95.8613C177.281 97.4529 174.999 98.0875 172.682 98.1768C170.371 98.2659 168.081 97.8091 166.705 97.2776L166.42 97.1677L166.368 97.4682C166.36 97.5182 166.323 97.6416 166.255 97.8435C166.189 98.0379 166.099 98.2876 165.992 98.5787C165.894 98.8486 165.781 99.1526 165.659 99.4792L165.631 99.5551C165.499 99.9103 165.358 100.29 165.216 100.679C164.65 102.225 164.045 103.95 163.889 104.853L163.851 105.072L164.064 105.135C168.05 106.317 171.403 105.043 173.956 102.99C176.502 100.943 178.269 98.1129 179.121 96.1265Z" fill="#E66B4B" stroke="#E56B4B" stroke-width="0.5"/>
<path d="M166.932 74.1273C165.361 76.2597 162.529 80.8184 163.769 81.9944C164.285 82.4842 166.23 82.8207 166.686 82.499" stroke="black" stroke-width="0.5" stroke-linejoin="round"/>
<path d="M172.835 75.399C173.821 75.5695 174.747 75.5928 175.45 75.4862C175.801 75.4331 176.11 75.3456 176.346 75.2177C176.58 75.0914 176.781 74.9027 176.827 74.6337C176.874 74.3647 176.748 74.1194 176.57 73.9221C176.391 73.7222 176.129 73.5359 175.817 73.3682C175.19 73.0316 174.31 72.7426 173.324 72.5721C172.338 72.4016 171.412 72.3783 170.709 72.4849C170.359 72.538 170.049 72.6255 169.813 72.7534C169.58 72.8797 169.379 73.0684 169.332 73.3374C169.285 73.6064 169.412 73.8517 169.589 74.049C169.769 74.2489 170.031 74.4352 170.343 74.6029C170.969 74.9395 171.849 75.2285 172.835 75.399Z" fill="white" stroke="black" stroke-width="0.5"/>
<ellipse cx="171.329" cy="73.6828" rx="1.77667" ry="1.18445" transform="rotate(9.81214 171.329 73.6828)" fill="black"/>
<path d="M161.169 73.3834C162.155 73.5539 163.081 73.5772 163.784 73.4706C164.135 73.4175 164.444 73.33 164.68 73.2021C164.914 73.0758 165.115 72.8871 165.161 72.6181C165.208 72.3491 165.082 72.1038 164.904 71.9065C164.725 71.7066 164.463 71.5203 164.151 71.3526C163.524 71.016 162.644 70.727 161.658 70.5565C160.672 70.386 159.746 70.3627 159.043 70.4693C158.693 70.5224 158.383 70.6099 158.147 70.7378C157.914 70.8641 157.713 71.0528 157.666 71.3218C157.62 71.5908 157.746 71.8361 157.923 72.0334C158.103 72.2333 158.365 72.4196 158.677 72.5873C159.303 72.9239 160.183 73.2129 161.169 73.3834Z" fill="white" stroke="black" stroke-width="0.5"/>
<ellipse cx="159.663" cy="71.6672" rx="1.77667" ry="1.18445" transform="rotate(9.81214 159.663 71.6672)" fill="black"/>
<ellipse cx="165.306" cy="87.6698" rx="1.77667" ry="2.96111" transform="rotate(9.81214 165.306 87.6698)" fill="black"/>
<path d="M162 99.5C158.667 109.833 157.7 129.2 176.5 122" stroke="black" stroke-width="0.5" stroke-linejoin="round"/>
<path d="M210 101C212.833 102.5 218.8 109.4 220 125" stroke="black" stroke-width="0.5" stroke-linejoin="round"/>
<path d="M220 127L220 133.5" stroke="black" stroke-width="0.5" stroke-linejoin="round"/>
<path d="M189 95.5C188.333 100.833 186 112.7 182 117.5" stroke="black" stroke-width="0.5" stroke-linejoin="round"/>
<rect x="23.5" y="63.5" width="91" height="81" rx="2.5" fill="#DEEEFD" stroke="#6080D3"/>
<rect x="23.5" y="63.5" width="91" height="8" rx="2.5" fill="#F8FBFF" stroke="#6080D3"/>
<path d="M92.5001 78C89.5001 64 68.9998 64 68.9998 64H112C113.104 64 114 64.8954 114 66V142C114 143.105 113.104 144 112 144H65.5C65.5 144 79 136.429 97 134.5C114.807 132.592 99.8289 117.822 102.41 110.728C102.466 110.575 102.555 110.429 102.652 110.297C111.812 97.8901 94.5992 87.7961 92.5001 78Z" fill="#8DC2F2" fill-opacity="0.6"/>
<rect x="23.5" y="151.5" width="91" height="12" rx="2.5" fill="#DEEEFD" stroke="#6080D3"/>
<path d="M114 161V154C114 152.895 113.105 152 112 152H104.5C104.5 152 102.185 158.803 98.5 159.5C80 163 24 163 24 163H112C113.105 163 114 162.105 114 161Z" fill="#8DC2F2" fill-opacity="0.6"/>
<path d="M28 158H68" stroke="#4360B1"/>
<path d="M71 158H81" stroke="#4360B1"/>
<rect x="23" y="89" width="60" height="42" rx="2" fill="#0F6FA8"/>
<rect x="15.5" y="79.5" width="61" height="43" rx="2.5" fill="#ADDDF9" stroke="#0059A3"/>
<rect x="47" y="87" width="24" height="6" rx="1" fill="#4095C7"/>
<rect x="47" y="97" width="24" height="6" rx="1" fill="#4095C7"/>
<rect x="47" y="107" width="24" height="1" rx="0.5" fill="#4095C7"/>
<rect x="47" y="111" width="24" height="1" rx="0.5" fill="#4095C7"/>
<rect x="47" y="115" width="24" height="1" rx="0.5" fill="#4095C7"/>
<circle cx="31.5" cy="95.5" r="7.5" fill="#4095C7"/>
<path d="M27.5121 91C27.5121 91 28.9769 92.7666 31.4589 92.7666C34.1037 92.7666 35.4871 91 35.4871 91V95.2625H27.5121V91Z" fill="url(#paint0_linear_2086_13127)"/>
<path d="M26.0972 95.1529C26.0435 95.0992 26.0435 95.0121 26.0972 94.9584L27.0695 93.9862L28.139 95.0557L27.0695 96.1252L26.0972 95.1529Z" fill="#0066FF" fill-opacity="0.4"/>
<path d="M26.4409 95.1529C26.3872 95.0992 26.3872 95.0121 26.4409 94.9584L27.0729 94.3265L27.8021 95.0557L27.0729 95.7849L26.4409 95.1529Z" fill="#0066FF"/>
<path fill-rule="evenodd" clip-rule="evenodd" d="M28.2585 93.5295C28.6364 93.2844 28.8864 92.8589 28.8864 92.375C28.8864 91.6156 28.2707 91 27.5114 91C26.752 91 26.1363 91.6156 26.1363 92.375C26.1363 92.8626 26.3901 93.2909 26.7728 93.5351C26.8967 93.6541 27.0543 93.8448 27.0774 94.0614C27.1163 94.4254 26.9609 94.6437 26.9609 94.6437H26.9612C26.8749 94.7586 26.8239 94.9014 26.8239 95.0561C26.8239 95.2151 26.8779 95.3616 26.9686 95.4781C26.9905 95.5247 27.0765 95.7318 27.0449 96.0505C27.0223 96.2791 26.8605 96.4789 26.7432 96.596C26.3769 96.843 26.1361 97.2618 26.1361 97.7368C26.1361 98.4962 26.7517 99.1118 27.5111 99.1118C28.2705 99.1118 28.8861 98.4962 28.8861 97.7368C28.8861 97.2661 28.6496 96.8507 28.289 96.6028C28.1713 96.4867 28.0036 96.2836 27.9805 96.0506C27.9444 95.6866 28.0617 95.4682 28.0617 95.4682H28.0616C28.1478 95.3534 28.1989 95.2107 28.1989 95.0561C28.1989 94.9014 28.1478 94.7587 28.0616 94.6439H28.0645C28.0645 94.6439 27.9091 94.4255 27.948 94.0615C27.9714 93.8415 28.1338 93.6481 28.2585 93.5295Z" fill="white"/>
<path d="M36.9027 95.1529C36.9564 95.0992 36.9564 95.0121 36.9027 94.9584L35.9304 93.9862L34.8609 95.0557L35.9304 96.1252L36.9027 95.1529Z" fill="#FD1569" fill-opacity="0.4"/>
<path d="M36.5048 95.1529C36.5585 95.0992 36.5585 95.0121 36.5048 94.9584L35.8728 94.3265L35.1436 95.0557L35.8728 95.7849L36.5048 95.1529Z" fill="#FD1569"/>
<path fill-rule="evenodd" clip-rule="evenodd" d="M35.4885 93.75C35.4885 93.75 35.4884 93.75 35.4884 93.75V94.3683H35.4885C35.4885 94.3683 35.4885 94.3683 35.4885 94.3683V93.75ZM36.2369 93.528C36.6134 93.2827 36.8624 92.8579 36.8624 92.375C36.8624 91.6156 36.2468 91 35.4874 91C34.728 91 34.1124 91.6156 34.1124 92.375C34.1124 92.861 34.3645 93.288 34.745 93.5326C34.8693 93.6514 35.029 93.8434 35.0523 94.0615C35.0911 94.4255 34.9358 94.6439 34.9358 94.6439H34.938C34.8519 94.7587 34.801 94.9013 34.801 95.0558C34.801 95.2111 34.8524 95.3544 34.9393 95.4695C34.949 95.4885 35.0542 95.7032 35.0198 96.0505C34.9969 96.2811 34.8324 96.4825 34.715 96.5991C34.3513 96.8465 34.1124 97.2637 34.1124 97.7368C34.1124 98.4962 34.728 99.1118 35.4874 99.1118C36.2468 99.1118 36.8624 98.4962 36.8624 97.7368C36.8624 97.267 36.6268 96.8522 36.2673 96.6042C36.1496 96.4884 35.9805 96.2845 35.9573 96.0505C35.9223 95.6967 36.0321 95.4804 36.0383 95.4686C36.1247 95.3537 36.176 95.2107 36.176 95.0558C36.176 94.9013 36.125 94.7588 36.039 94.644H36.0411C36.0411 94.644 35.8858 94.4256 35.9246 94.0616C35.9482 93.8406 36.1119 93.6464 36.2369 93.528Z" fill="white"/>
<ellipse cx="31.5019" cy="95.5375" rx="1.1" ry="1.1" fill="white"/>
<circle cx="31.5" cy="95.5" r="11.25" stroke="#4095C7" stroke-width="0.5"/>
<rect x="10" y="110" width="24" height="6" rx="1" fill="white" stroke="#4095C7"/>
<circle cx="28.5" cy="67.5" r="1.75" fill="#FFB84F" stroke="black" stroke-width="0.5"/>
<circle cx="35.5" cy="67.5" r="1.75" fill="#FFB84F" stroke="black" stroke-width="0.5"/>
<circle cx="42.5" cy="67.5" r="1.75" fill="#FFB84F" stroke="black" stroke-width="0.5"/>
<rect x="113.385" y="107.615" width="4.26215" height="28.0729" rx="2.13107" transform="rotate(-18.99 113.385 107.615)" fill="#7A97E4" stroke="black" stroke-width="0.5"/>
<path d="M102.028 73.1801L104.66 71.4072C104.66 71.4072 110.944 68.0214 119.59 87.4732C128.208 106.865 121.321 110.054 121.321 110.054L117.84 110.854C114.675 111.581 111.261 111.082 108.906 108.847C101.481 101.8 98.3063 91.2711 97.1678 83.2942C96.5943 79.2755 98.6614 75.4481 102.028 73.1801Z" fill="#86A3EF" stroke="black" stroke-width="0.5"/>
<ellipse cx="112.723" cy="90.8274" rx="6.25792" ry="19.8167" transform="rotate(-22.9008 112.723 90.8274)" fill="#6687DE" stroke="#A8BFFC" stroke-width="2"/>
<path d="M117.891 90.4475C121.234 98.3621 122.602 107.082 120.103 108.138C117.604 109.194 112.184 102.185 108.84 94.2709C105.497 86.3563 112.116 94.7116 114.615 93.6558C117.115 92.6 114.548 82.5329 117.891 90.4475Z" fill="#4B6ECA"/>
<path d="M117.642 94.3623C118.864 95.8173 120.296 101.536 119.62 103.667" stroke="white" stroke-width="0.5" stroke-linejoin="round"/>
<path d="M108.064 78.667C110.077 79.0073 114.258 84.2667 114.878 88.1847C114.918 89.4009 113.766 85.8633 111.479 84.2003C108 81.6711 105.436 78.2225 108.064 78.667Z" fill="white"/>
<ellipse cx="116.03" cy="90.5673" rx="0.5" ry="1" transform="rotate(-23.1038 116.03 90.5673)" fill="white"/>
<path d="M95.675 86.7009L83.5099 86.6006" stroke="#111111" stroke-width="0.5" stroke-linejoin="round"/>
<path d="M95.9125 94.7625C95.9125 94.7625 95.6393 96.0731 96.3924 97.7192C97.1455 99.3652 98.2686 99.9525 98.2686 99.9525" stroke="#111111" stroke-width="0.5" stroke-linejoin="round"/>
<path d="M91.6498 93.4124C91.6498 93.4124 90.338 96.6303 92.274 100.401C94.21 104.171 97.7298 105.29 97.7298 105.29" stroke="#111111" stroke-width="0.5" stroke-linejoin="round"/>
<path d="M102.766 104.816L99.4784 113.941" stroke="#111111" stroke-width="0.5" stroke-linejoin="round"/>
<path d="M104.43 71.6483C99.2263 75.5087 104.124 88.9081 106.989 95.5418C109.498 100.996 114.788 111.519 121.623 109.932" stroke="black" stroke-width="0.5" stroke-linejoin="round"/>
</g>
<defs>
<linearGradient id="paint0_linear_2086_13127" x1="31.4996" y1="91" x2="31.4996" y2="95.2625" gradientUnits="userSpaceOnUse">
<stop stop-color="white"/>
<stop offset="1" stop-color="white" stop-opacity="0"/>
</linearGradient>
</defs>
</svg>
