<?xml version="1.0" encoding="UTF-8"?>
<!DOCTYPE svg PUBLIC "-//W3C//DTD SVG 1.1//EN" "http://www.w3.org/Graphics/SVG/1.1/DTD/svg11.dtd">
<svg xmlns="http://www.w3.org/2000/svg" version="1.1" width="375px" height="120px" style="shape-rendering:geometricPrecision; text-rendering:geometricPrecision; image-rendering:optimizeQuality; fill-rule:evenodd; clip-rule:evenodd" xmlns:xlink="http://www.w3.org/1999/xlink">
<g><path style="opacity:1" fill="#f0f0f6" d="M -0.5,-0.5 C 29.1667,-0.5 58.8333,-0.5 88.5,-0.5C 90.3306,2.16088 92.3306,4.66088 94.5,7C 91.8121,11.3234 89.6454,15.8234 88,20.5C 86.8831,20.3349 85.7164,20.0016 84.5,19.5C 83.0295,20.3805 82.1962,21.7139 82,23.5C 81.0296,20.5564 80.1962,17.5564 79.5,14.5C 78.2054,15.0983 76.8721,15.5983 75.5,16C 76.756,16.4169 77.4226,17.2502 77.5,18.5C 76.2745,19.937 75.2745,21.6036 74.5,23.5C 71.0497,24.2633 68.0497,25.7633 65.5,28C 63.0995,28.1858 60.7662,28.6858 58.5,29.5C 58.7093,30.086 59.0426,30.586 59.5,31C 52.4757,30.9267 45.4757,30.5933 38.5,30C 36.0819,33.0469 33.0819,35.3802 29.5,37C 24.3477,45.0915 23.0144,53.5915 25.5,62.5C 23.0152,64.6523 21.3485,67.3189 20.5,70.5C 20.5,71.8333 20.5,73.1667 20.5,74.5C 20.461,77.089 21.461,79.089 23.5,80.5C 24.343,82.1733 25.6763,83.34 27.5,84C 31.7314,84.9195 35.7314,84.4195 39.5,82.5C 50.0928,86.0396 60.9261,88.7062 72,90.5C 75.1283,90.2448 78.295,89.9115 81.5,89.5C 83.2038,91.8493 85.5371,92.8493 88.5,92.5C 91.6663,94.4967 94.9996,96.1634 98.5,97.5C 98.528,99.5824 97.8613,101.416 96.5,103C 96.8333,103.333 97.1667,103.667 97.5,104C 96.1667,104.667 95.1667,105.667 94.5,107C 99.0432,109.91 101.71,114.076 102.5,119.5C 68.1667,119.5 33.8333,119.5 -0.5,119.5C -0.5,79.5 -0.5,39.5 -0.5,-0.5 Z"/></g>
<g><path style="opacity:1" fill="#e8e9f6" d="M 88.5,-0.5 C 108.5,-0.5 128.5,-0.5 148.5,-0.5C 147.099,2.63394 145.432,5.63394 143.5,8.5C 144.671,14.4825 144.671,20.4825 143.5,26.5C 139.774,26.1774 136.107,26.5108 132.5,27.5C 132.167,28.1667 131.833,28.8333 131.5,29.5C 129.149,30.0118 127.149,31.0118 125.5,32.5C 121.541,33.3265 117.541,33.8265 113.5,34C 113.034,35.2988 113.034,36.7988 113.5,38.5C 112.041,38.4326 110.708,38.7659 109.5,39.5C 104.491,39.1912 99.6577,38.1912 95,36.5C 90.6938,37.4558 86.8604,36.4558 83.5,33.5C 83.1583,32.6618 82.4916,32.3284 81.5,32.5C 79.2198,31.3599 76.8864,30.1932 74.5,29C 78.2156,26.2465 79.2156,22.7465 77.5,18.5C 77.4226,17.2502 76.756,16.4169 75.5,16C 76.8721,15.5983 78.2054,15.0983 79.5,14.5C 80.1962,17.5564 81.0296,20.5564 82,23.5C 82.1962,21.7139 83.0295,20.3805 84.5,19.5C 85.7164,20.0016 86.8831,20.3349 88,20.5C 89.6454,15.8234 91.8121,11.3234 94.5,7C 92.3306,4.66088 90.3306,2.16088 88.5,-0.5 Z"/></g>
<g><path style="opacity:1" fill="#e3e5f5" d="M 148.5,-0.5 C 169.167,-0.5 189.833,-0.5 210.5,-0.5C 211.151,11.7687 214.151,23.4354 219.5,34.5C 224.443,34.7918 229.443,34.9585 234.5,35C 243.551,37.793 252.385,40.9596 261,44.5C 262.487,43.7471 262.654,42.9138 261.5,42C 263.441,41.2571 265.274,41.4238 267,42.5C 269.679,37.8084 272.846,33.4751 276.5,29.5C 277.689,28.5713 279.022,28.238 280.5,28.5C 280.33,27.1779 280.663,26.0113 281.5,25C 286.083,21.411 290.916,18.2443 296,15.5C 297.416,16.5733 298.75,16.5733 300,15.5C 301.987,16.218 303.821,17.218 305.5,18.5C 304.237,20.0287 303.237,21.6954 302.5,23.5C 299.393,23.3512 296.393,23.8512 293.5,25C 283.209,32.4364 274.876,41.603 268.5,52.5C 260.821,53.0177 257.988,57.0177 260,64.5C 260.377,65.9423 261.21,66.9423 262.5,67.5C 264.718,69.2083 266.884,71.2083 269,73.5C 269.333,73.1667 269.667,72.8333 270,72.5C 270.591,73.4835 270.257,74.1501 269,74.5C 263.296,73.0596 258.13,70.7263 253.5,67.5C 255.828,65.8339 256.828,63.5005 256.5,60.5C 255.916,54.4225 252.583,51.9225 246.5,53C 244.077,54.5707 242.744,56.7374 242.5,59.5C 241.883,59.6107 241.383,59.944 241,60.5C 240.722,59.5842 240.222,58.9175 239.5,58.5C 238.833,55.8333 237.167,54.1667 234.5,53.5C 231.576,52.2467 229.243,50.2467 227.5,47.5C 225.053,44.1146 222.72,40.6146 220.5,37C 217,36.5 213.5,36 210,35.5C 208.342,35.6752 207.009,36.3418 206,37.5C 203.545,34.1233 200.211,32.4566 196,32.5C 184.651,34.0706 173.484,36.2372 162.5,39C 163.167,39.3333 163.833,39.6667 164.5,40C 144.819,41.4497 125.486,44.283 106.5,48.5C 107.172,47.7326 108.005,47.0659 109,46.5C 109.497,44.1902 109.663,41.8568 109.5,39.5C 110.708,38.7659 112.041,38.4326 113.5,38.5C 113.034,36.7988 113.034,35.2988 113.5,34C 117.541,33.8265 121.541,33.3265 125.5,32.5C 127.149,31.0118 129.149,30.0118 131.5,29.5C 131.833,28.8333 132.167,28.1667 132.5,27.5C 136.107,26.5108 139.774,26.1774 143.5,26.5C 144.671,20.4825 144.671,14.4825 143.5,8.5C 145.432,5.63394 147.099,2.63394 148.5,-0.5 Z"/></g>
<g><path style="opacity:1" fill="#eef1fb" d="M 210.5,-0.5 C 265.167,-0.5 319.833,-0.5 374.5,-0.5C 374.5,3.16667 374.5,6.83333 374.5,10.5C 367.549,11.0659 360.882,10.3993 354.5,8.5C 347.45,3.99298 339.783,2.49298 331.5,4C 330.692,4.30762 330.025,4.80762 329.5,5.5C 330.748,8.07042 331.748,10.7371 332.5,13.5C 333.396,12.4937 334.062,12.4937 334.5,13.5C 333.474,15.8312 332.14,17.8312 330.5,19.5C 321.684,25.1349 312.351,26.4682 302.5,23.5C 303.237,21.6954 304.237,20.0287 305.5,18.5C 303.821,17.218 301.987,16.218 300,15.5C 298.75,16.5733 297.416,16.5733 296,15.5C 290.916,18.2443 286.083,21.411 281.5,25C 280.663,26.0113 280.33,27.1779 280.5,28.5C 279.022,28.238 277.689,28.5713 276.5,29.5C 272.846,33.4751 269.679,37.8084 267,42.5C 265.274,41.4238 263.441,41.2571 261.5,42C 262.654,42.9138 262.487,43.7471 261,44.5C 252.385,40.9596 243.551,37.793 234.5,35C 229.443,34.9585 224.443,34.7918 219.5,34.5C 214.151,23.4354 211.151,11.7687 210.5,-0.5 Z"/></g>
<g><path style="opacity:1" fill="#bfe9fa" d="M 354.5,8.5 C 354.5,10.5 354.5,12.5 354.5,14.5C 350.557,16.1104 347.557,18.7771 345.5,22.5C 343.403,21.6469 341.403,21.6469 339.5,22.5C 338.259,21.9628 337.092,21.2961 336,20.5C 334.862,20.9891 333.695,21.3225 332.5,21.5C 332.5,20.1667 331.833,19.5 330.5,19.5C 332.14,17.8312 333.474,15.8312 334.5,13.5C 334.062,12.4937 333.396,12.4937 332.5,13.5C 331.748,10.7371 330.748,8.07042 329.5,5.5C 330.025,4.80762 330.692,4.30762 331.5,4C 339.783,2.49298 347.45,3.99298 354.5,8.5 Z"/></g>
<g><path style="opacity:1" fill="#d8e3fe" d="M 354.5,8.5 C 360.882,10.3993 367.549,11.0659 374.5,10.5C 374.5,14.1667 374.5,17.8333 374.5,21.5C 372.887,22.6923 371.22,23.6923 369.5,24.5C 361.826,25.1565 356.826,21.8232 354.5,14.5C 354.5,12.5 354.5,10.5 354.5,8.5 Z"/></g>
<g><path style="opacity:1" fill="#6e87eb" d="M 50.5,22.5 C 52.3464,22.2222 53.6798,22.8888 54.5,24.5C 53.6798,26.1112 52.3464,26.7778 50.5,26.5C 50.5,25.1667 50.5,23.8333 50.5,22.5 Z"/></g>
<g><path style="opacity:1" fill="#9edcf3" d="M 354.5,14.5 C 356.826,21.8232 361.826,25.1565 369.5,24.5C 370.167,26.5 370.833,28.5 371.5,30.5C 369.456,31.0312 367.789,32.1978 366.5,34C 360.53,36.458 355.53,34.7913 351.5,29C 351.645,28.228 351.978,27.5613 352.5,27C 349.761,25.9741 347.428,24.4741 345.5,22.5C 347.557,18.7771 350.557,16.1104 354.5,14.5 Z"/></g>
<g><path style="opacity:1" fill="#dedcf0" d="M 330.5,19.5 C 331.833,19.5 332.5,20.1667 332.5,21.5C 331.5,21.8333 330.833,22.5 330.5,23.5C 320.817,27.2092 310.983,28.8759 301,28.5C 298.377,31.7402 295.21,34.4068 291.5,36.5C 287.995,40.2018 284.995,44.2018 282.5,48.5C 281.833,49.8333 281.167,51.1667 280.5,52.5C 274.968,52.0284 272.635,54.3617 273.5,59.5C 275.679,60.7567 277.679,62.2567 279.5,64C 277.459,65.7411 275.292,65.9078 273,64.5C 272.09,66.9449 272.924,68.2782 275.5,68.5C 276.321,71.3063 277.988,73.4729 280.5,75C 278.167,75.3333 275.833,75.6667 273.5,76C 278.454,79.2853 283.12,82.952 287.5,87C 284.356,87.8778 281.356,88.0445 278.5,87.5C 274.622,86.7526 271.289,84.9193 268.5,82C 254.723,81.024 241.056,81.524 227.5,83.5C 220.446,83.1373 213.446,82.4707 206.5,81.5C 203.67,82.9317 200.836,83.265 198,82.5C 194.591,86.0873 190.924,86.4207 187,83.5C 178.741,87.2426 170.074,90.9093 161,94.5C 158.516,94.1742 156.349,93.1742 154.5,91.5C 149.629,87.7948 145.629,83.2948 142.5,78C 133.462,76.4052 124.462,75.9052 115.5,76.5C 115.649,75.448 115.483,74.448 115,73.5C 112.594,71.9134 110.428,70.2467 108.5,68.5C 110.722,68.822 112.556,68.1554 114,66.5C 114.497,64.1902 114.663,61.8568 114.5,59.5C 115.072,56.7564 116.738,55.9231 119.5,57C 120.288,60.0757 120.788,63.2423 121,66.5C 123.269,69.0544 125.602,69.0544 128,66.5C 128.667,65.5 128.667,64.5 128,63.5C 126,61.5 124,59.5 122,57.5C 121.667,54.8333 121.333,52.1667 121,49.5C 118.667,46.8333 116.333,46.8333 114,49.5C 113.503,51.8098 113.337,54.1432 113.5,56.5C 112.596,57.209 112.263,58.209 112.5,59.5C 110.856,59.7135 109.356,59.3802 108,58.5C 107.752,55.0806 107.252,51.7473 106.5,48.5C 125.486,44.283 144.819,41.4497 164.5,40C 163.833,39.6667 163.167,39.3333 162.5,39C 173.484,36.2372 184.651,34.0706 196,32.5C 200.211,32.4566 203.545,34.1233 206,37.5C 207.009,36.3418 208.342,35.6752 210,35.5C 213.5,36 217,36.5 220.5,37C 222.72,40.6146 225.053,44.1146 227.5,47.5C 225.08,47.2924 222.747,47.6258 220.5,48.5C 216.277,45.0349 211.611,44.0349 206.5,45.5C 199.076,38.7693 191.743,38.9359 184.5,46C 184.833,46.3333 185.167,46.6667 185.5,47C 179.107,49.7119 172.441,51.2119 165.5,51.5C 165.5,50.5 165.5,49.5 165.5,48.5C 163.42,49.0444 161.42,49.8777 159.5,51C 155.5,51.3333 151.5,51.6667 147.5,52C 148.056,52.3826 148.389,52.8826 148.5,53.5C 147.833,54.5 147.167,55.5 146.5,56.5C 145.518,57.1408 144.518,57.8075 143.5,58.5C 141.481,56.8103 139.481,55.1436 137.5,53.5C 136.432,52.5655 135.099,52.2322 133.5,52.5C 133.179,58.0262 133.512,63.3595 134.5,68.5C 135.5,68.5 136.5,68.5 137.5,68.5C 137.335,65.1501 137.502,61.8168 138,58.5C 139.684,60.3513 141.517,62.018 143.5,63.5C 145.188,62.4787 146.521,61.1454 147.5,59.5C 148.117,59.3893 148.617,59.056 149,58.5C 149.498,61.8168 149.665,65.1501 149.5,68.5C 152.294,70.8193 154.128,73.8193 155,77.5C 157.371,80.206 160.037,82.5394 163,84.5C 178.993,73.6744 196.326,70.3411 215,74.5C 217.167,73.5119 219,72.1786 220.5,70.5C 224.182,70.6653 227.848,70.4986 231.5,70C 232.056,69.6174 232.389,69.1174 232.5,68.5C 233.492,68.6716 234.158,68.3382 234.5,67.5C 238.918,66.1701 240.585,63.1701 239.5,58.5C 240.222,58.9175 240.722,59.5842 241,60.5C 241.383,59.944 241.883,59.6107 242.5,59.5C 242.42,67.2946 246.087,69.9613 253.5,67.5C 258.13,70.7263 263.296,73.0596 269,74.5C 270.257,74.1501 270.591,73.4835 270,72.5C 269.667,72.8333 269.333,73.1667 269,73.5C 266.884,71.2083 264.718,69.2083 262.5,67.5C 265.502,69.1082 268.168,68.7749 270.5,66.5C 268.167,65.8333 265.833,65.1667 263.5,64.5C 260.825,57.8653 262.825,55.1987 269.5,56.5C 269.833,56 270.167,55.5 270.5,55C 269.944,53.9889 269.278,53.1556 268.5,52.5C 274.876,41.603 283.209,32.4364 293.5,25C 296.393,23.8512 299.393,23.3512 302.5,23.5C 312.351,26.4682 321.684,25.1349 330.5,19.5 Z"/></g>
<g><path style="opacity:1" fill="#758cec" d="M 81.5,32.5 C 82.4916,32.3284 83.1583,32.6618 83.5,33.5C 83.0517,35.4646 82.0517,35.7979 80.5,34.5C 80.8627,33.8165 81.1961,33.1499 81.5,32.5 Z"/></g>
<g><path style="opacity:1" fill="#eee6f0" d="M 77.5,18.5 C 79.2156,22.7465 78.2156,26.2465 74.5,29C 76.8864,30.1932 79.2198,31.3599 81.5,32.5C 81.1961,33.1499 80.8627,33.8165 80.5,34.5C 82.0517,35.7979 83.0517,35.4646 83.5,33.5C 86.8604,36.4558 90.6938,37.4558 95,36.5C 99.6577,38.1912 104.491,39.1912 109.5,39.5C 109.663,41.8568 109.497,44.1902 109,46.5C 108.005,47.0659 107.172,47.7326 106.5,48.5C 103.917,47.0623 101.583,47.3956 99.5,49.5C 93.0375,49.3529 87.2041,47.3529 82,43.5C 78.9243,44.2883 75.7577,44.7883 72.5,45C 67.5347,48.1615 62.2013,50.6615 56.5,52.5C 52.1986,50.842 48.0319,51.5087 44,54.5C 43.8462,57.2318 44.3462,59.8985 45.5,62.5C 49.1667,65 52.8333,67.5 56.5,70C 60.0286,70.6221 63.5286,70.4554 67,69.5C 71.6658,71.3367 76.4991,72.3367 81.5,72.5C 80.9974,75.6116 82.3307,78.1116 85.5,80C 96.5022,83.6579 108.502,85.8246 121.5,86.5C 114.008,87.088 106.675,87.4213 99.5,87.5C 96.4501,87.0305 96.1168,86.1971 98.5,85C 95.2066,85.153 92.0399,84.9863 89,84.5C 87.8333,84.8333 86.6667,85.1667 85.5,85.5C 86.7019,87.7805 87.7019,90.1138 88.5,92.5C 85.5371,92.8493 83.2038,91.8493 81.5,89.5C 78.295,89.9115 75.1283,90.2448 72,90.5C 60.9261,88.7062 50.0928,86.0396 39.5,82.5C 41.8907,80.3852 43.2241,77.7186 43.5,74.5C 43.702,72.0504 43.3686,69.717 42.5,67.5C 41.8333,66.1667 40.8333,65.1667 39.5,64.5C 38.653,63.0337 37.3197,62.2004 35.5,62C 32.1119,61.3412 28.7786,61.5078 25.5,62.5C 23.0144,53.5915 24.3477,45.0915 29.5,37C 33.0819,35.3802 36.0819,33.0469 38.5,30C 45.4757,30.5933 52.4757,30.9267 59.5,31C 59.0426,30.586 58.7093,30.086 58.5,29.5C 60.7662,28.6858 63.0995,28.1858 65.5,28C 68.0497,25.7633 71.0497,24.2633 74.5,23.5C 75.2745,21.6036 76.2745,19.937 77.5,18.5 Z"/></g>
<g><path style="opacity:1" fill="#ce31bf" d="M 70.5,26.5 C 71.5,26.5 72.5,26.5 73.5,26.5C 73.5,27.5 73.5,28.5 73.5,29.5C 72.5,29.5 71.5,29.5 70.5,29.5C 70.5,28.5 70.5,27.5 70.5,26.5 Z"/></g>
<g><path style="opacity:1" fill="#98cdf3" d="M 345.5,22.5 C 347.428,24.4741 349.761,25.9741 352.5,27C 351.978,27.5613 351.645,28.228 351.5,29C 355.53,34.7913 360.53,36.458 366.5,34C 367.789,32.1978 369.456,31.0312 371.5,30.5C 373.561,36.1977 373.895,41.8644 372.5,47.5C 372.664,44.8127 372.497,42.146 372,39.5C 367.422,42.5842 362.588,43.0842 357.5,41C 354.337,38.5843 351.004,36.4177 347.5,34.5C 346.41,33.6086 346.41,32.6086 347.5,31.5C 343.263,28.3785 338.596,26.3785 333.5,25.5C 333.611,24.8826 333.944,24.3826 334.5,24C 332.981,24.3308 331.648,24.1641 330.5,23.5C 330.833,22.5 331.5,21.8333 332.5,21.5C 333.695,21.3225 334.862,20.9891 336,20.5C 337.092,21.2961 338.259,21.9628 339.5,22.5C 341.403,21.6469 343.403,21.6469 345.5,22.5 Z"/></g>
<g><path style="opacity:1" fill="#bba3fb" d="M 324.5,36.5 C 325.271,38.773 326.604,39.1063 328.5,37.5C 330.819,38.0639 333.153,38.5639 335.5,39C 337.155,40.4443 337.822,42.2776 337.5,44.5C 338.5,44.5 339.5,44.5 340.5,44.5C 340.719,45.675 340.386,46.675 339.5,47.5C 338.583,46.8728 337.583,46.5394 336.5,46.5C 334.299,45.4336 331.965,44.767 329.5,44.5C 318.129,43.0666 308.796,46.7332 301.5,55.5C 299.09,52.1836 298.423,48.517 299.5,44.5C 307.152,39.8344 315.485,37.1678 324.5,36.5 Z"/></g>
<g><path style="opacity:1" fill="#ecdceb" d="M 99.5,49.5 C 99.3433,50.8734 99.51,52.2068 100,53.5C 102.292,54.7899 104.292,56.4565 106,58.5C 106.026,62.1789 106.86,65.5122 108.5,68.5C 110.428,70.2467 112.594,71.9134 115,73.5C 115.483,74.448 115.649,75.448 115.5,76.5C 113.217,76.3921 111.217,75.5588 109.5,74C 104.802,72.9907 100.136,72.824 95.5,73.5C 92.0248,73.1089 89.5248,72.1089 88,70.5C 85.6005,70.8017 83.4338,71.4684 81.5,72.5C 76.4991,72.3367 71.6658,71.3367 67,69.5C 63.5286,70.4554 60.0286,70.6221 56.5,70C 52.8333,67.5 49.1667,65 45.5,62.5C 44.3462,59.8985 43.8462,57.2318 44,54.5C 48.0319,51.5087 52.1986,50.842 56.5,52.5C 62.2013,50.6615 67.5347,48.1615 72.5,45C 75.7577,44.7883 78.9243,44.2883 82,43.5C 87.2041,47.3529 93.0375,49.3529 99.5,49.5 Z"/></g>
<g><path style="opacity:1" fill="#95b9f4" d="M 333.5,25.5 C 338.596,26.3785 343.263,28.3785 347.5,31.5C 346.41,32.6086 346.41,33.6086 347.5,34.5C 351.004,36.4177 354.337,38.5843 357.5,41C 362.588,43.0842 367.422,42.5842 372,39.5C 372.497,42.146 372.664,44.8127 372.5,47.5C 372.737,48.791 372.404,49.791 371.5,50.5C 371.38,49.4138 370.713,48.7472 369.5,48.5C 366.868,49.4399 364.202,49.6066 361.5,49C 357.024,46.8722 352.357,45.2055 347.5,44C 343.883,40.4368 339.883,37.2702 335.5,34.5C 332.914,33.52 330.247,33.1866 327.5,33.5C 327.5,33.1667 327.5,32.8333 327.5,32.5C 328.766,31.9101 330.099,31.4101 331.5,31C 329.616,30.7837 327.949,30.117 326.5,29C 329.392,28.7509 331.725,27.5842 333.5,25.5 Z"/></g>
<g><path style="opacity:1" fill="#decff9" d="M 330.5,23.5 C 331.648,24.1641 332.981,24.3308 334.5,24C 333.944,24.3826 333.611,24.8826 333.5,25.5C 331.725,27.5842 329.392,28.7509 326.5,29C 327.949,30.117 329.616,30.7837 331.5,31C 330.099,31.4101 328.766,31.9101 327.5,32.5C 320.925,34.3003 314.258,35.8003 307.5,37C 304.221,37.9728 301.221,39.4728 298.5,41.5C 295.808,47.0473 294.142,52.8806 293.5,59C 293.42,65.6129 295.754,71.1129 300.5,75.5C 296.024,75.8222 294.524,78.1556 296,82.5C 301.14,85.9759 303.974,84.6426 304.5,78.5C 309.447,79.9142 314.28,80.5809 319,80.5C 321.058,79.7709 322.891,78.7709 324.5,77.5C 329.103,78.3833 333.77,78.7166 338.5,78.5C 339.5,78.5 340.5,78.5 341.5,78.5C 332.067,89.3764 320.067,93.5431 305.5,91C 302.542,90.7707 300.042,89.604 298,87.5C 297.667,87.8333 297.333,88.1667 297,88.5C 292.614,84.6062 288.114,80.9395 283.5,77.5C 284.025,76.8076 284.692,76.3076 285.5,76C 284.483,74.9505 284.316,73.7839 285,72.5C 285.893,73.7112 286.726,73.7112 287.5,72.5C 282.502,64.5786 282.169,56.4119 286.5,48C 285.181,47.805 283.847,47.9717 282.5,48.5C 284.995,44.2018 287.995,40.2018 291.5,36.5C 295.21,34.4068 298.377,31.7402 301,28.5C 310.983,28.8759 320.817,27.2092 330.5,23.5 Z"/></g>
<g><path style="opacity:1" fill="#ba94fa" d="M 329.5,44.5 C 329.389,45.1174 329.056,45.6174 328.5,46C 330.001,47.2515 331.668,48.2515 333.5,49C 332.748,49.6708 332.414,50.5041 332.5,51.5C 322.981,48.6122 314.814,50.9455 308,58.5C 306.906,60.0779 306.072,61.7446 305.5,63.5C 303.127,61.4208 301.794,58.7541 301.5,55.5C 308.796,46.7332 318.129,43.0666 329.5,44.5 Z"/></g>
<g><path style="opacity:1" fill="#d442a9" d="M 106.5,48.5 C 107.252,51.7473 107.752,55.0806 108,58.5C 109.356,59.3802 110.856,59.7135 112.5,59.5C 112.263,58.209 112.596,57.209 113.5,56.5C 113.263,57.791 113.596,58.791 114.5,59.5C 114.663,61.8568 114.497,64.1902 114,66.5C 112.556,68.1554 110.722,68.822 108.5,68.5C 106.86,65.5122 106.026,62.1789 106,58.5C 104.292,56.4565 102.292,54.7899 100,53.5C 99.51,52.2068 99.3433,50.8734 99.5,49.5C 101.583,47.3956 103.917,47.0623 106.5,48.5 Z"/></g>
<g><path style="opacity:1" fill="#b33eb9" d="M 114.5,59.5 C 113.596,58.791 113.263,57.791 113.5,56.5C 113.337,54.1432 113.503,51.8098 114,49.5C 116.333,46.8333 118.667,46.8333 121,49.5C 121.333,52.1667 121.667,54.8333 122,57.5C 124,59.5 126,61.5 128,63.5C 128.667,64.5 128.667,65.5 128,66.5C 125.602,69.0544 123.269,69.0544 121,66.5C 120.788,63.2423 120.288,60.0757 119.5,57C 116.738,55.9231 115.072,56.7564 114.5,59.5 Z"/></g>
<g><path style="opacity:1" fill="#d6d2ed" d="M 227.5,47.5 C 229.243,50.2467 231.576,52.2467 234.5,53.5C 232.167,53.5 229.833,53.5 227.5,53.5C 226.513,58.3054 226.179,63.3054 226.5,68.5C 228.5,68.5 230.5,68.5 232.5,68.5C 232.389,69.1174 232.056,69.6174 231.5,70C 227.848,70.4986 224.182,70.6653 220.5,70.5C 219,72.1786 217.167,73.5119 215,74.5C 196.326,70.3411 178.993,73.6744 163,84.5C 160.037,82.5394 157.371,80.206 155,77.5C 154.128,73.8193 152.294,70.8193 149.5,68.5C 150.5,68.5 151.5,68.5 152.5,68.5C 152.5,63.1667 152.5,57.8333 152.5,52.5C 151.041,52.4326 149.708,52.7659 148.5,53.5C 148.389,52.8826 148.056,52.3826 147.5,52C 151.5,51.6667 155.5,51.3333 159.5,51C 161.42,49.8777 163.42,49.0444 165.5,48.5C 165.5,49.5 165.5,50.5 165.5,51.5C 172.441,51.2119 179.107,49.7119 185.5,47C 185.167,46.6667 184.833,46.3333 184.5,46C 191.743,38.9359 199.076,38.7693 206.5,45.5C 211.611,44.0349 216.277,45.0349 220.5,48.5C 222.747,47.6258 225.08,47.2924 227.5,47.5 Z"/></g>
<g><path style="opacity:1" fill="#8f78eb" d="M 220.5,70.5 C 219.5,70.5 218.5,70.5 217.5,70.5C 217.5,63.8333 217.5,57.1667 217.5,50.5C 218.5,50.5 219.5,50.5 220.5,50.5C 220.5,57.1667 220.5,63.8333 220.5,70.5 Z"/></g>
<g><path style="opacity:1" fill="#b686da" d="M 137.5,53.5 C 136.5,53.5 135.5,53.5 134.5,53.5C 134.5,58.5 134.5,63.5 134.5,68.5C 133.512,63.3595 133.179,58.0262 133.5,52.5C 135.099,52.2322 136.432,52.5655 137.5,53.5 Z"/></g>
<g><path style="opacity:1" fill="#6a37de" d="M 149.5,68.5 C 149.665,65.1501 149.498,61.8168 149,58.5C 148.617,59.056 148.117,59.3893 147.5,59.5C 146.596,58.791 146.263,57.791 146.5,56.5C 147.167,55.5 147.833,54.5 148.5,53.5C 149.708,52.7659 151.041,52.4326 152.5,52.5C 152.5,57.8333 152.5,63.1667 152.5,68.5C 151.5,68.5 150.5,68.5 149.5,68.5 Z"/></g>
<g><path style="opacity:1" fill="#a493ea" d="M 227.5,53.5 C 227.5,58.1667 227.5,62.8333 227.5,67.5C 229.833,67.5 232.167,67.5 234.5,67.5C 234.158,68.3382 233.492,68.6716 232.5,68.5C 230.5,68.5 228.5,68.5 226.5,68.5C 226.179,63.3054 226.513,58.3054 227.5,53.5 Z"/></g>
<g><path style="opacity:1" fill="#603be2" d="M 227.5,53.5 C 229.833,53.5 232.167,53.5 234.5,53.5C 237.167,54.1667 238.833,55.8333 239.5,58.5C 240.585,63.1701 238.918,66.1701 234.5,67.5C 232.167,67.5 229.833,67.5 227.5,67.5C 227.5,62.8333 227.5,58.1667 227.5,53.5 Z"/></g>
<g><path style="opacity:1" fill="#3864d4" d="M 268.5,52.5 C 269.278,53.1556 269.944,53.9889 270.5,55C 270.167,55.5 269.833,56 269.5,56.5C 262.825,55.1987 260.825,57.8653 263.5,64.5C 265.833,65.1667 268.167,65.8333 270.5,66.5C 268.168,68.7749 265.502,69.1082 262.5,67.5C 261.21,66.9423 260.377,65.9423 260,64.5C 257.988,57.0177 260.821,53.0177 268.5,52.5 Z"/></g>
<g><path style="opacity:1" fill="#4b55da" d="M 253.5,67.5 C 246.087,69.9613 242.42,67.2946 242.5,59.5C 242.744,56.7374 244.077,54.5707 246.5,53C 252.583,51.9225 255.916,54.4225 256.5,60.5C 256.828,63.5005 255.828,65.8339 253.5,67.5 Z"/></g>
<g><path style="opacity:1" fill="#ac86f9" d="M 332.5,51.5 C 334.764,52.2186 337.097,52.552 339.5,52.5C 339.12,57.0728 340.453,61.0728 343.5,64.5C 343.291,65.086 342.957,65.586 342.5,66C 343.358,67.57 344.025,69.2367 344.5,71C 342.393,73.4214 340.393,75.9214 338.5,78.5C 333.77,78.7166 329.103,78.3833 324.5,77.5C 316.883,74.5298 310.55,69.8632 305.5,63.5C 306.072,61.7446 306.906,60.0779 308,58.5C 314.814,50.9455 322.981,48.6122 332.5,51.5 Z"/></g>
<g><path style="opacity:1" fill="#8940d2" d="M 137.5,53.5 C 139.481,55.1436 141.481,56.8103 143.5,58.5C 144.518,57.8075 145.518,57.1408 146.5,56.5C 146.263,57.791 146.596,58.791 147.5,59.5C 146.521,61.1454 145.188,62.4787 143.5,63.5C 141.517,62.018 139.684,60.3513 138,58.5C 137.502,61.8168 137.335,65.1501 137.5,68.5C 136.5,68.5 135.5,68.5 134.5,68.5C 134.5,63.5 134.5,58.5 134.5,53.5C 135.5,53.5 136.5,53.5 137.5,53.5 Z"/></g>
<g><path style="opacity:1" fill="#4f39ef" d="M 198.5,51.5 C 199.5,51.5 200.5,51.5 201.5,51.5C 200.835,54.8884 201.835,55.8884 204.5,54.5C 206.187,54.7605 207.687,55.4272 209,56.5C 210.337,60.0257 210.837,63.6924 210.5,67.5C 209.5,67.5 208.5,67.5 207.5,67.5C 207.664,64.8127 207.497,62.146 207,59.5C 205.604,57.4732 203.938,57.1398 202,58.5C 201.502,61.4816 201.335,64.4816 201.5,67.5C 200.5,67.5 199.5,67.5 198.5,67.5C 198.5,62.1667 198.5,56.8333 198.5,51.5 Z"/></g>
<g><path style="opacity:1" fill="#4137f7" d="M 182.5,55.5 C 185.356,55.9283 188.356,56.095 191.5,56C 195.292,58.0527 196.458,61.2194 195,65.5C 192.429,68.3468 189.429,69.0135 186,67.5C 185.51,68.7932 185.343,70.1266 185.5,71.5C 184.5,71.5 183.5,71.5 182.5,71.5C 182.5,66.1667 182.5,60.8333 182.5,55.5 Z"/></g>
<g><path style="opacity:1" fill="#cfd0ef" d="M 230.5,55.5 C 234.338,55.0072 236.338,56.6738 236.5,60.5C 236.338,64.3262 234.338,65.9928 230.5,65.5C 230.5,62.1667 230.5,58.8333 230.5,55.5 Z"/></g>
<g><path style="opacity:1" fill="#d9dff3" d="M 247.5,55.5 C 252.989,55.504 254.822,58.1707 253,63.5C 250.667,66.1667 248.333,66.1667 246,63.5C 245.109,60.5024 245.609,57.8357 247.5,55.5 Z"/></g>
<g><path style="opacity:1" fill="#8aa0f5" d="M 327.5,33.5 C 330.247,33.1866 332.914,33.52 335.5,34.5C 339.883,37.2702 343.883,40.4368 347.5,44C 352.357,45.2055 357.024,46.8722 361.5,49C 364.202,49.6066 366.868,49.4399 369.5,48.5C 370.713,48.7472 371.38,49.4138 371.5,50.5C 370.314,57.21 367.314,62.8767 362.5,67.5C 362.249,65.8297 361.582,64.3297 360.5,63C 357.986,61.2427 355.319,59.7427 352.5,58.5C 350.259,56.5483 348.259,54.3816 346.5,52C 344.212,51.1779 341.878,50.5112 339.5,50C 337.937,49.2411 336.937,48.0744 336.5,46.5C 337.583,46.5394 338.583,46.8728 339.5,47.5C 340.386,46.675 340.719,45.675 340.5,44.5C 339.5,44.5 338.5,44.5 337.5,44.5C 337.822,42.2776 337.155,40.4443 335.5,39C 333.153,38.5639 330.819,38.0639 328.5,37.5C 326.604,39.1063 325.271,38.773 324.5,36.5C 325.272,35.3065 326.272,34.3065 327.5,33.5 Z"/></g>
<g><path style="opacity:1" fill="#3a35fb" d="M 174.5,55.5 C 176.5,55.5 178.5,55.5 180.5,55.5C 180.5,56.5 180.5,57.5 180.5,58.5C 178.533,58.2606 176.699,58.5939 175,59.5C 174.502,62.4816 174.335,65.4816 174.5,68.5C 173.5,68.5 172.5,68.5 171.5,68.5C 170.738,63.6069 171.738,59.2736 174.5,55.5 Z"/></g>
<g><path style="opacity:1" fill="#d0cbeb" d="M 187.5,58.5 C 191.788,58.5582 193.121,60.5582 191.5,64.5C 185.787,65.4516 184.454,63.4516 187.5,58.5 Z"/></g>
<g><path style="opacity:1" fill="#8d8ef6" d="M 329.5,44.5 C 331.965,44.767 334.299,45.4336 336.5,46.5C 336.937,48.0744 337.937,49.2411 339.5,50C 341.878,50.5112 344.212,51.1779 346.5,52C 348.259,54.3816 350.259,56.5483 352.5,58.5C 355.319,59.7427 357.986,61.2427 360.5,63C 361.582,64.3297 362.249,65.8297 362.5,67.5C 361.833,67.5 361.5,67.8333 361.5,68.5C 358.479,71.3384 355.146,73.6717 351.5,75.5C 348.167,76.5 344.833,77.5 341.5,78.5C 340.5,78.5 339.5,78.5 338.5,78.5C 340.393,75.9214 342.393,73.4214 344.5,71C 344.025,69.2367 343.358,67.57 342.5,66C 342.957,65.586 343.291,65.086 343.5,64.5C 340.453,61.0728 339.12,57.0728 339.5,52.5C 337.097,52.552 334.764,52.2186 332.5,51.5C 332.414,50.5041 332.748,49.6708 333.5,49C 331.668,48.2515 330.001,47.2515 328.5,46C 329.056,45.6174 329.389,45.1174 329.5,44.5 Z"/></g>
<g><path style="opacity:1" fill="#2f76cf" d="M 280.5,52.5 C 281.626,53.8583 281.626,55.1916 280.5,56.5C 279.264,55.7542 277.93,55.4208 276.5,55.5C 276.626,58.595 278.293,60.4283 281.5,61C 283.545,66.4713 281.545,68.9713 275.5,68.5C 272.924,68.2782 272.09,66.9449 273,64.5C 275.292,65.9078 277.459,65.7411 279.5,64C 277.679,62.2567 275.679,60.7567 273.5,59.5C 272.635,54.3617 274.968,52.0284 280.5,52.5 Z"/></g>
<g><path style="opacity:1" fill="#eb439c" d="M 93.5,61.5 C 98.0057,60.5272 100.172,62.1939 100,66.5C 98.1159,68.5763 95.9492,68.9097 93.5,67.5C 92.3775,65.5184 92.3775,63.5184 93.5,61.5 Z"/></g>
<g><path style="opacity:1" fill="#e9ebf6" d="M 374.5,21.5 C 374.5,54.1667 374.5,86.8333 374.5,119.5C 348.167,119.5 321.833,119.5 295.5,119.5C 297.614,117.981 299.28,115.981 300.5,113.5C 301.833,114.167 303.167,114.833 304.5,115.5C 307.258,111.862 310.758,110.529 315,111.5C 321.392,107.925 328.225,105.758 335.5,105C 338.578,102.248 341.911,99.9144 345.5,98C 350.115,94.061 353.948,89.561 357,84.5C 360.082,79.4135 361.582,74.0802 361.5,68.5C 361.5,67.8333 361.833,67.5 362.5,67.5C 367.314,62.8767 370.314,57.21 371.5,50.5C 372.404,49.791 372.737,48.791 372.5,47.5C 373.895,41.8644 373.561,36.1977 371.5,30.5C 370.833,28.5 370.167,26.5 369.5,24.5C 371.22,23.6923 372.887,22.6923 374.5,21.5 Z"/></g>
<g><path style="opacity:1" fill="#46c8e2" d="M 39.5,64.5 C 33.3108,66.8961 26.9775,68.8961 20.5,70.5C 21.3485,67.3189 23.0152,64.6523 25.5,62.5C 28.7786,61.5078 32.1119,61.3412 35.5,62C 37.3197,62.2004 38.653,63.0337 39.5,64.5 Z"/></g>
<g><path style="opacity:1" fill="#5539ec" d="M 159.5,55.5 C 166.88,55.043 169.713,58.3763 168,65.5C 164,69.5 160,69.5 156,65.5C 154.581,61.0823 155.748,57.7489 159.5,55.5 Z"/></g>
<g><path style="opacity:1" fill="#d6cfeb" d="M 160.5,58.5 C 164.976,58.8003 166.31,60.9669 164.5,65C 158.339,65.878 157.006,63.7113 160.5,58.5 Z"/></g>
<g><path style="opacity:1" fill="#3faee9" d="M 39.5,64.5 C 40.8333,65.1667 41.8333,66.1667 42.5,67.5C 34.935,69.3384 27.6017,71.6717 20.5,74.5C 20.5,73.1667 20.5,71.8333 20.5,70.5C 26.9775,68.8961 33.3108,66.8961 39.5,64.5 Z"/></g>
<g><path style="opacity:1" fill="#518ef1" d="M 42.5,67.5 C 43.3686,69.717 43.702,72.0504 43.5,74.5C 36.9951,76.9968 30.3284,78.9968 23.5,80.5C 21.461,79.089 20.461,77.089 20.5,74.5C 27.6017,71.6717 34.935,69.3384 42.5,67.5 Z"/></g>
<g><path style="opacity:1" fill="#9a93f7" d="M 43.5,74.5 C 43.2241,77.7186 41.8907,80.3852 39.5,82.5C 35.7314,84.4195 31.7314,84.9195 27.5,84C 25.6763,83.34 24.343,82.1733 23.5,80.5C 30.3284,78.9968 36.9951,76.9968 43.5,74.5 Z"/></g>
<g><path style="opacity:1" fill="#d8b7f9" d="M 327.5,32.5 C 327.5,32.8333 327.5,33.1667 327.5,33.5C 326.272,34.3065 325.272,35.3065 324.5,36.5C 315.485,37.1678 307.152,39.8344 299.5,44.5C 298.423,48.517 299.09,52.1836 301.5,55.5C 301.794,58.7541 303.127,61.4208 305.5,63.5C 310.55,69.8632 316.883,74.5298 324.5,77.5C 322.891,78.7709 321.058,79.7709 319,80.5C 314.28,80.5809 309.447,79.9142 304.5,78.5C 303.738,76.7376 302.404,75.7376 300.5,75.5C 295.754,71.1129 293.42,65.6129 293.5,59C 294.142,52.8806 295.808,47.0473 298.5,41.5C 301.221,39.4728 304.221,37.9728 307.5,37C 314.258,35.8003 320.925,34.3003 327.5,32.5 Z"/></g>
<g><path style="opacity:1" fill="#eaebf6" d="M 121.5,86.5 C 121.435,86.0618 121.601,85.7284 122,85.5C 127.113,86.3027 132.28,86.9694 137.5,87.5C 138.143,90.3251 139.477,92.8251 141.5,95C 141.241,96.2613 140.574,97.2613 139.5,98C 146.611,107.727 155.945,112.227 167.5,111.5C 170.478,113.311 172.978,115.644 175,118.5C 175.333,118.167 175.667,117.833 176,117.5C 177.948,118.109 179.782,118.776 181.5,119.5C 155.167,119.5 128.833,119.5 102.5,119.5C 101.71,114.076 99.0432,109.91 94.5,107C 95.1667,105.667 96.1667,104.667 97.5,104C 97.1667,103.667 96.8333,103.333 96.5,103C 97.8613,101.416 98.528,99.5824 98.5,97.5C 94.9996,96.1634 91.6663,94.4967 88.5,92.5C 87.7019,90.1138 86.7019,87.7805 85.5,85.5C 86.6667,85.1667 87.8333,84.8333 89,84.5C 92.0399,84.9863 95.2066,85.153 98.5,85C 96.1168,86.1971 96.4501,87.0305 99.5,87.5C 106.675,87.4213 114.008,87.088 121.5,86.5 Z"/></g>
<g><path style="opacity:1" fill="#e4e5f5" d="M 361.5,68.5 C 361.582,74.0802 360.082,79.4135 357,84.5C 353.948,89.561 350.115,94.061 345.5,98C 341.911,99.9144 338.578,102.248 335.5,105C 328.225,105.758 321.392,107.925 315,111.5C 310.758,110.529 307.258,111.862 304.5,115.5C 303.167,114.833 301.833,114.167 300.5,113.5C 299.28,115.981 297.614,117.981 295.5,119.5C 257.5,119.5 219.5,119.5 181.5,119.5C 179.782,118.776 177.948,118.109 176,117.5C 175.667,117.833 175.333,118.167 175,118.5C 172.978,115.644 170.478,113.311 167.5,111.5C 155.945,112.227 146.611,107.727 139.5,98C 140.574,97.2613 141.241,96.2613 141.5,95C 139.477,92.8251 138.143,90.3251 137.5,87.5C 132.28,86.9694 127.113,86.3027 122,85.5C 121.601,85.7284 121.435,86.0618 121.5,86.5C 108.502,85.8246 96.5022,83.6579 85.5,80C 82.3307,78.1116 80.9974,75.6116 81.5,72.5C 83.4338,71.4684 85.6005,70.8017 88,70.5C 89.5248,72.1089 92.0248,73.1089 95.5,73.5C 100.136,72.824 104.802,72.9907 109.5,74C 111.217,75.5588 113.217,76.3921 115.5,76.5C 124.462,75.9052 133.462,76.4052 142.5,78C 145.629,83.2948 149.629,87.7948 154.5,91.5C 156.349,93.1742 158.516,94.1742 161,94.5C 170.074,90.9093 178.741,87.2426 187,83.5C 190.924,86.4207 194.591,86.0873 198,82.5C 200.836,83.265 203.67,82.9317 206.5,81.5C 213.446,82.4707 220.446,83.1373 227.5,83.5C 241.056,81.524 254.723,81.024 268.5,82C 271.289,84.9193 274.622,86.7526 278.5,87.5C 284.023,91.6382 290.023,95.1382 296.5,98C 306.905,99.2143 317.238,99.7143 327.5,99.5C 330.91,97.1321 334.576,95.1321 338.5,93.5C 339.693,91.4733 341.36,89.9733 343.5,89C 344.976,86.3568 346.976,84.1901 349.5,82.5C 350.946,80.3821 351.613,78.0488 351.5,75.5C 355.146,73.6717 358.479,71.3384 361.5,68.5 Z"/></g>
<g><path style="opacity:1" fill="#e2d9f6" d="M 341.5,78.5 C 344.833,77.5 348.167,76.5 351.5,75.5C 351.613,78.0488 350.946,80.3821 349.5,82.5C 346.976,84.1901 344.976,86.3568 343.5,89C 341.36,89.9733 339.693,91.4733 338.5,93.5C 334.576,95.1321 330.91,97.1321 327.5,99.5C 317.238,99.7143 306.905,99.2143 296.5,98C 290.023,95.1382 284.023,91.6382 278.5,87.5C 281.356,88.0445 284.356,87.8778 287.5,87C 283.12,82.952 278.454,79.2853 273.5,76C 275.833,75.6667 278.167,75.3333 280.5,75C 277.988,73.4729 276.321,71.3063 275.5,68.5C 281.545,68.9713 283.545,66.4713 281.5,61C 278.293,60.4283 276.626,58.595 276.5,55.5C 277.93,55.4208 279.264,55.7542 280.5,56.5C 281.626,55.1916 281.626,53.8583 280.5,52.5C 281.167,51.1667 281.833,49.8333 282.5,48.5C 283.847,47.9717 285.181,47.805 286.5,48C 282.169,56.4119 282.502,64.5786 287.5,72.5C 286.726,73.7112 285.893,73.7112 285,72.5C 284.316,73.7839 284.483,74.9505 285.5,76C 284.692,76.3076 284.025,76.8076 283.5,77.5C 288.114,80.9395 292.614,84.6062 297,88.5C 297.333,88.1667 297.667,87.8333 298,87.5C 300.042,89.604 302.542,90.7707 305.5,91C 320.067,93.5431 332.067,89.3764 341.5,78.5 Z"/></g>
<g><path style="opacity:1" fill="#fed614" d="M 300.5,75.5 C 302.404,75.7376 303.738,76.7376 304.5,78.5C 303.974,84.6426 301.14,85.9759 296,82.5C 294.524,78.1556 296.024,75.8222 300.5,75.5 Z"/></g>
</svg>
