<svg width="660" height="90" viewBox="0 0 660 90" fill="none" xmlns="http://www.w3.org/2000/svg">
<path d="M480.594 16.141C478.561 16.141 476.823 16.2747 475.378 16.5423C475.191 20.5817 475.097 30.5063 475.097 46.3161C475.097 52.9504 475.445 56.7624 476.14 57.7522C476.836 58.7152 479.257 59.1968 483.403 59.1968C488.245 59.1968 491.857 57.7254 494.237 54.7828C496.645 51.8135 497.849 46.3028 497.849 38.2507C497.849 29.9846 496.444 24.2332 493.636 20.9963C490.853 17.7594 486.506 16.141 480.594 16.141ZM479.15 10.2825C489.931 10.2825 497.381 12.222 501.5 16.1009C505.62 19.953 507.68 26.3064 507.68 35.161C507.68 45.0856 505.593 52.5491 501.42 57.5516C497.247 62.554 490.359 65.0552 480.755 65.0552L461.655 65.0954C461.307 64.1858 461.133 63.3298 461.133 62.5273C461.133 61.9922 461.267 61.6043 461.534 61.3636C461.829 61.0961 462.297 60.9623 462.939 60.9623H465.908C466.095 57.2172 466.189 47.6671 466.189 32.312C466.189 24.0994 466.095 18.1339 465.908 14.4155H461.655C461.307 13.506 461.133 12.6634 461.133 11.8876C461.133 11.3258 461.267 10.9245 461.534 10.6838C461.829 10.4163 462.297 10.2825 462.939 10.2825H479.15Z" fill="white"/>
<path d="M516.989 40.3774C516.989 29.8375 519.169 22.053 523.53 17.0238C527.917 11.9946 534.096 9.47998 542.068 9.47998C549.344 9.47998 554.882 11.3124 558.681 14.9773C562.479 18.6155 564.378 25.2765 564.378 34.9603C564.378 45.5002 562.185 53.2848 557.798 58.314C553.437 63.3432 547.271 65.8578 539.299 65.8578C532.023 65.8578 526.486 64.0387 522.687 60.4005C518.888 56.7624 516.989 50.088 516.989 40.3774ZM526.82 36.6858C526.82 45.6206 528.024 51.7466 530.431 55.0637C532.866 58.3541 536.464 59.9993 541.226 59.9993C545.639 59.9993 548.957 58.3273 551.177 54.9835C553.424 51.6396 554.547 46.1958 554.547 38.652C554.547 29.6101 553.33 23.4708 550.896 20.2339C548.488 16.9703 544.904 15.3385 540.142 15.3385C535.728 15.3385 532.398 17.0104 530.151 20.3543C527.93 23.6981 526.82 29.142 526.82 36.6858Z" fill="white"/>
<path d="M598.887 59.9993C603.649 59.9993 607.929 58.7687 611.728 56.3076C613.145 57.7789 613.854 59.3171 613.854 60.9222C613.854 62.4202 612.129 63.624 608.678 64.5336C605.227 65.4164 601.081 65.8578 596.239 65.8578C588.508 65.8578 582.81 64.0387 579.145 60.4005C575.48 56.7624 573.648 50.1549 573.648 40.578C573.648 29.9044 575.801 22.053 580.108 17.0238C584.415 11.9946 590.755 9.47998 599.128 9.47998C603.783 9.47998 607.3 9.85449 609.681 10.6035C612.062 11.3526 613.252 12.6232 613.252 14.4155C613.252 15.8868 612.517 17.3448 611.046 18.7893C606.23 16.4887 601.616 15.3385 597.202 15.3385C592.654 15.3385 589.23 16.9836 586.93 20.274C584.629 23.5376 583.479 29.0751 583.479 36.8864C583.479 45.527 584.682 51.546 587.09 54.9433C589.524 58.314 593.457 59.9993 598.887 59.9993Z" fill="white"/>
<path d="M642.545 9.47998C648.35 9.47998 652.376 9.82774 654.623 10.5233C656.87 11.192 657.993 12.5028 657.993 14.4557C657.993 16.248 657.271 17.8397 655.827 19.2307C650.209 16.6626 644.993 15.3786 640.177 15.3786C636.78 15.3786 634.372 16.0607 632.955 17.425C631.564 18.7626 630.868 20.6218 630.868 23.0026C630.868 25.4905 631.697 27.47 633.356 28.9413C635.041 30.4127 638.225 31.884 642.906 33.3553C648.443 35.0138 652.63 36.9265 655.466 39.0934C658.328 41.2334 659.839 44.7111 660 49.5263C660 54.9032 658.154 58.9694 654.462 61.7247C650.797 64.4801 645.18 65.8578 637.609 65.8578C632.339 65.8578 628.34 65.4832 625.611 64.7342C622.883 63.9852 621.519 62.5941 621.519 60.5611C621.519 58.7152 622.294 57.0834 623.846 55.6656C629.143 58.5547 634.653 59.9993 640.378 59.9993C644.31 59.9993 647.106 59.3573 648.764 58.0732C650.423 56.7892 651.252 54.8096 651.252 52.1345C651.252 48.9244 650.048 46.5168 647.641 44.9117C645.26 43.3066 641.448 41.6748 636.205 40.0163C631.122 38.4647 627.497 36.5253 625.331 34.1979C623.19 31.8438 622.12 28.7675 622.12 24.9688C622.12 20.2339 623.873 16.4754 627.377 13.6933C630.908 10.8844 635.964 9.47998 642.545 9.47998Z" fill="white"/>
<path d="M429.726 1.7124V70.1949" stroke="white" stroke-width="4"/>
<path fill-rule="evenodd" clip-rule="evenodd" d="M288.926 8.13876C288.926 10.4005 288.003 12.4468 286.514 13.9218C284.764 16.1344 279.269 24.7604 284.856 28.4857H286.035C286.508 28.4857 286.891 28.8689 286.891 29.3417V60.1847C286.891 60.6574 286.508 61.0407 286.035 61.0407H275.539C275.066 61.0407 274.683 60.6574 274.683 60.1847V29.3417C274.683 28.8689 275.066 28.4857 275.539 28.4857H276.718C282.306 24.7604 276.81 16.1347 275.06 13.9219C273.571 12.4469 272.648 10.4006 272.648 8.13876C272.648 3.64385 276.292 0 280.787 0C285.282 0 288.926 3.64385 288.926 8.13876ZM0.856032 3.33816C0.383259 3.33816 0 3.72142 0 4.19419V60.1847C0 60.6574 0.383259 61.0407 0.856032 61.0407H8.10932C8.58209 61.0407 8.96535 60.6574 8.96535 60.1847V23.6966C8.96535 23.5168 9.20713 23.4585 9.28899 23.6186L28.1836 60.5743C28.33 60.8606 28.6243 61.0407 28.9458 61.0407H33.3774C33.7015 61.0407 33.9978 60.8577 34.1429 60.5679L52.4187 24.0626C52.4995 23.9011 52.743 23.9586 52.743 24.1392V60.1847C52.743 60.6574 53.1262 61.0407 53.599 61.0407H66.0503C66.523 61.0407 66.9063 60.6574 66.9063 60.1847V4.19419C66.9063 3.72142 66.523 3.33816 66.0503 3.33816H53.9399C53.6155 3.33816 53.319 3.52152 53.1741 3.81174L33.8677 42.4713C33.8048 42.5972 33.6252 42.5977 33.5617 42.472L14.0193 3.80804C13.8737 3.51986 13.5782 3.33816 13.2553 3.33816H0.856032ZM126.151 37.6418C126.151 50.5646 115.219 61.0407 101.734 61.0407C88.2497 61.0407 77.3182 50.5646 77.3182 37.6418C77.3182 24.7189 88.2497 14.2428 101.734 14.2428C115.219 14.2428 126.151 24.7189 126.151 37.6418ZM111.908 37.6418C111.908 48.3172 107.353 56.9713 101.734 56.9713C96.1158 56.9713 91.561 48.3172 91.561 37.6418C91.561 26.9663 96.1158 18.3122 101.734 18.3122C107.353 18.3122 111.908 26.9663 111.908 37.6418ZM134.289 17.1335C134.289 16.6608 134.673 16.2775 135.146 16.2775H145.642C146.114 16.2775 146.498 16.6608 146.498 17.1335V22.3692C150.119 19.334 155.277 16.2775 160.74 16.2775C164.112 16.2775 166.844 19.0104 166.844 22.3816C166.844 25.7528 164.112 28.4857 160.74 28.4857C157.85 28.4857 155.429 26.4771 154.797 23.7798L154.636 23.6696C151.86 23.4234 149.781 24.0302 146.498 27.3971V60.1847C146.498 60.6574 146.114 61.0407 145.642 61.0407H135.146C134.673 61.0407 134.289 60.6574 134.289 60.1847V17.1335ZM170.914 17.1335C170.914 16.6608 171.297 16.2775 171.77 16.2775H182.266C182.739 16.2775 183.122 16.6608 183.122 17.1335V18.7919C185.936 17.1837 189.329 16.2775 193.295 16.2775C206.78 16.2775 217.712 26.7536 217.712 39.6764C217.712 52.5993 206.78 63.0754 193.295 63.0754C189.329 63.0754 185.936 62.1692 183.122 60.561V88.6703C183.122 89.1431 182.739 89.5263 182.266 89.5263H171.77C171.297 89.5263 170.914 89.1431 170.914 88.6703V17.1335ZM183.122 39.6566V39.6963C183.128 49.2388 187.681 56.9713 193.295 56.9713C198.914 56.9713 203.469 49.2281 203.469 39.6764C203.469 30.1248 198.914 22.3816 193.295 22.3816C187.681 22.3816 183.128 30.1141 183.122 39.6566ZM222.637 4.06938C222.164 4.06938 221.781 4.45264 221.781 4.92541V60.1847C221.781 60.6574 222.164 61.0407 222.637 61.0407H233.133C233.606 61.0407 233.989 60.6574 233.989 60.1847V31.8475C233.991 31.5048 234.197 31.1959 234.513 31.0626L247.889 25.4193C249.018 24.9432 250.267 25.7718 250.267 26.9967V61.0407H261.619C262.092 61.0407 262.475 60.6574 262.475 60.1846V26.6365C262.475 23.9121 261.418 21.2536 259.187 19.69C256.852 18.0538 253.56 16.2775 250.267 16.2775C244.166 16.2775 234.001 22.3744 233.989 22.3816V4.92541C233.989 4.45264 233.606 4.06938 233.133 4.06938H222.637ZM316.421 16.2775C327.001 16.2775 332.672 22.3816 332.672 28.4857H325.577C325.238 25.7727 321.481 21.3642 316.421 22.3816C309.16 23.8414 308.282 31.5377 316.421 33.5724C329.62 36.8721 333.715 44.7632 333.715 47.8152C333.715 50.8672 332.698 62.058 315.403 62.058C301.567 62.058 298.787 53.241 299.126 48.8325H306.247C306.247 54.9366 311.307 56.9713 315.403 56.9713C320.886 56.9713 326.568 48.4624 316.421 44.7632C301.16 39.1998 299.126 35.6071 299.126 30.5203C299.126 25.4336 303.195 16.2775 316.421 16.2775ZM344.718 16.2775C344.246 16.2775 343.862 16.6608 343.862 17.1335V60.1847C343.862 60.6574 344.246 61.0407 344.718 61.0407H355.215C355.687 61.0407 356.071 60.6574 356.071 60.1847V29.5666L365.901 25.4193C367.03 24.9432 368.279 25.7718 368.279 26.9967V61.0407H379.631C380.104 61.0407 380.487 60.6574 380.487 60.1847V29.5666L390.317 25.4193C391.446 24.9432 392.695 25.7718 392.695 26.9967V61.0407H404.047C404.52 61.0407 404.903 60.6574 404.903 60.1847V26.6365C404.903 23.9121 403.846 21.2536 401.615 19.69C399.281 18.0538 395.988 16.2775 392.695 16.2775C388.387 16.2775 382.053 19.3175 378.698 21.1068C378.276 20.573 377.777 20.0948 377.199 19.69C374.864 18.0538 371.572 16.2775 368.279 16.2775C364.65 16.2775 359.583 18.4347 356.071 20.1842V17.1335C356.071 16.6608 355.687 16.2775 355.215 16.2775H344.718Z" fill="white"/>
</svg>
