<svg width="20" height="20" viewBox="0 0 20 20" fill="none" xmlns="http://www.w3.org/2000/svg">
<path fill-rule="evenodd" clip-rule="evenodd" d="M9.66015 0L11.5847 3.33333H7.73565L9.66015 0ZM9.66015 20L11.5847 16.6667H7.73565L9.66015 20ZM9.66015 15.5556C12.7284 15.5556 15.2157 13.0682 15.2157 10C15.2157 6.93175 12.7284 4.44444 9.66015 4.44444C6.59191 4.44444 4.1046 6.93175 4.1046 10C4.1046 13.0682 6.59191 15.5556 9.66015 15.5556ZM0.999878 4.99999L2.92438 8.33333L4.84888 4.99999L0.999878 4.99999ZM16.3959 11.6667L18.3204 15H14.4714L16.3959 11.6667ZM0.999879 15L2.92438 11.6667L4.84888 15H0.999879ZM16.3959 8.33333L18.3204 5L14.4714 5L16.3959 8.33333Z" fill="white"/>
</svg>
