<svg width="239" height="32" viewBox="0 0 239 32" fill="none" xmlns="http://www.w3.org/2000/svg">
<path d="M188.251 10.6325C187.675 10.6325 187.184 10.6704 186.775 10.746C186.722 11.8887 186.696 14.6961 186.696 19.1683C186.696 21.045 186.794 22.1233 186.991 22.4033C187.187 22.6757 187.872 22.8119 189.045 22.8119C190.415 22.8119 191.436 22.3957 192.11 21.5633C192.791 20.7234 193.131 19.1645 193.131 16.8868C193.131 14.5485 192.734 12.9216 191.94 12.006C191.153 11.0903 189.923 10.6325 188.251 10.6325ZM187.842 8.97531C190.892 8.97531 192.999 9.52393 194.164 10.6212C195.33 11.7108 195.912 13.5081 195.912 16.0128C195.912 18.8202 195.322 20.9315 194.142 22.3465C192.961 23.7616 191.013 24.4691 188.296 24.4691L182.893 24.4805C182.795 24.2232 182.745 23.9811 182.745 23.754C182.745 23.6027 182.783 23.493 182.859 23.4249C182.942 23.3492 183.075 23.3114 183.256 23.3114H184.096C184.149 22.252 184.176 19.5505 184.176 15.2069C184.176 12.8838 184.149 11.1963 184.096 10.1444H182.893C182.795 9.88715 182.745 9.64879 182.745 9.42934C182.745 9.27043 182.783 9.15692 182.859 9.08881C182.942 9.01314 183.075 8.97531 183.256 8.97531H187.842Z" fill="black"/>
<path d="M198.546 17.4884C198.546 14.5069 199.162 12.3049 200.396 10.8822C201.637 9.45961 203.385 8.74829 205.64 8.74829C207.698 8.74829 209.265 9.26664 210.339 10.3033C211.414 11.3325 211.951 13.2167 211.951 15.956C211.951 18.9375 211.33 21.1396 210.089 22.5622C208.856 23.9848 207.112 24.6962 204.857 24.6962C202.798 24.6962 201.232 24.1816 200.158 23.1525C199.083 22.1233 198.546 20.2353 198.546 17.4884ZM201.327 16.4441C201.327 18.9716 201.667 20.7045 202.348 21.6428C203.037 22.5736 204.055 23.0389 205.402 23.0389C206.65 23.0389 207.589 22.566 208.217 21.6201C208.852 20.6742 209.17 19.1343 209.17 17.0003C209.17 14.4426 208.826 12.7059 208.137 11.7903C207.456 10.8671 206.442 10.4055 205.095 10.4055C203.847 10.4055 202.904 10.8785 202.269 11.8244C201.641 12.7703 201.327 14.3102 201.327 16.4441Z" fill="black"/>
<path d="M221.713 23.0389C223.06 23.0389 224.27 22.6909 225.345 21.9947C225.746 22.4109 225.946 22.846 225.946 23.3C225.946 23.7238 225.458 24.0643 224.482 24.3216C223.506 24.5713 222.333 24.6962 220.963 24.6962C218.777 24.6962 217.165 24.1816 216.128 23.1525C215.091 22.1233 214.573 20.2542 214.573 17.5452C214.573 14.5258 215.182 12.3049 216.4 10.8822C217.619 9.45961 219.412 8.74829 221.781 8.74829C223.097 8.74829 224.093 8.85423 224.766 9.06611C225.439 9.27799 225.776 9.63744 225.776 10.1444C225.776 10.5606 225.568 10.973 225.152 11.3817C223.79 10.7309 222.484 10.4055 221.236 10.4055C219.949 10.4055 218.981 10.8709 218.33 11.8017C217.679 12.7249 217.354 14.2913 217.354 16.5009C217.354 18.9451 217.694 20.6477 218.376 21.6087C219.064 22.5622 220.177 23.0389 221.713 23.0389Z" fill="black"/>
<path d="M234.062 8.74829C235.704 8.74829 236.843 8.84666 237.479 9.04341C238.114 9.23259 238.432 9.60338 238.432 10.1558C238.432 10.6628 238.228 11.113 237.819 11.5065C236.23 10.7801 234.755 10.4169 233.393 10.4169C232.432 10.4169 231.75 10.6098 231.349 10.9957C230.956 11.3741 230.759 11.9 230.759 12.5735C230.759 13.2773 230.994 13.8372 231.463 14.2534C231.94 14.6696 232.84 15.0858 234.164 15.502C235.731 15.9712 236.915 16.5122 237.717 17.1252C238.527 17.7306 238.954 18.7143 239 20.0764C239 21.5974 238.478 22.7476 237.433 23.527C236.397 24.3064 234.808 24.6962 232.666 24.6962C231.175 24.6962 230.044 24.5902 229.272 24.3783C228.5 24.1665 228.114 23.773 228.114 23.1979C228.114 22.6757 228.334 22.2141 228.773 21.8131C230.271 22.6303 231.83 23.0389 233.449 23.0389C234.562 23.0389 235.352 22.8573 235.822 22.4941C236.291 22.1309 236.525 21.5709 236.525 20.8142C236.525 19.9061 236.185 19.2251 235.504 18.771C234.83 18.317 233.752 17.8554 232.269 17.3862C230.831 16.9473 229.806 16.3987 229.193 15.7404C228.587 15.0745 228.285 14.2042 228.285 13.1297C228.285 11.7903 228.78 10.7271 229.772 9.94012C230.771 9.14557 232.201 8.74829 234.062 8.74829Z" fill="black"/>
<path d="M173.865 6.54932V25.9213" stroke="black"/>
<path d="M5.28821 0.977051C5.28821 0.977051 10.4098 7.15394 19.088 7.15394C28.3352 7.15394 33.1722 0.977051 33.1722 0.977051V15.8806H5.28821V0.977051Z" fill="url(#paint0_linear_1_209)"/>
<path d="M0.339947 15.4969C0.152199 15.3092 0.1522 15.0048 0.339947 14.817L3.73942 11.4176L7.47884 15.157L3.73942 18.8964L0.339947 15.4969Z" fill="#0066FF" fill-opacity="0.4"/>
<path d="M1.54234 15.4969C1.35459 15.3092 1.35459 15.0048 1.54234 14.817L3.752 12.6074L6.3016 15.157L3.752 17.7066L1.54234 15.4969Z" fill="#0066FF"/>
<path fill-rule="evenodd" clip-rule="evenodd" d="M7.90533 9.81861C9.22427 8.9614 10.0965 7.47488 10.0965 5.78464C10.0965 3.12948 7.94411 0.977051 5.28896 0.977051C2.63381 0.977051 0.481384 3.12948 0.481384 5.78464C0.481384 7.47639 1.3552 8.96405 2.67611 9.8209C3.11264 10.2352 3.68267 10.9129 3.76493 11.6839C3.90071 12.9565 3.3576 13.7201 3.3576 13.7201H3.36179C3.05969 14.122 2.88066 14.6216 2.88066 15.1631C2.88066 15.7145 3.06629 16.2225 3.37846 16.628C3.44488 16.7658 3.76382 17.498 3.65063 18.6405C3.57109 19.4433 3.00049 20.1449 2.59009 20.5534C1.31736 21.4183 0.481323 22.8778 0.481323 24.5326C0.481323 27.1878 2.63375 29.3402 5.2889 29.3402C7.94405 29.3402 10.0965 27.1878 10.0965 24.5326C10.0965 22.8795 9.26214 21.4213 7.9916 20.5561C7.58101 20.1479 7.00811 19.4451 6.92839 18.6405C6.80232 17.3679 7.21242 16.6043 7.21242 16.6043H7.20843C7.50972 16.2028 7.68823 15.7038 7.68823 15.1631C7.68823 14.6216 7.5092 14.122 7.2071 13.7201H7.22142C7.22142 13.7201 6.67831 12.9565 6.81409 11.6839C6.89651 10.9114 7.46849 10.2327 7.90533 9.81861Z" fill="black"/>
<path d="M38.1204 15.4967C38.3081 15.3089 38.3081 15.0045 38.1204 14.8168L34.7209 11.4173L30.9815 15.1567L34.7209 18.8962L38.1204 15.4967Z" fill="#FD1569" fill-opacity="0.4"/>
<path d="M36.7267 15.4967C36.9145 15.3089 36.9145 15.0045 36.7267 14.8168L34.517 12.6071L31.9674 15.1567L34.517 17.7063L36.7267 15.4967Z" fill="#FD1569"/>
<path fill-rule="evenodd" clip-rule="evenodd" d="M35.7825 9.82378C37.1059 8.96739 37.9816 7.47829 37.9816 5.78464C37.9816 3.12948 35.8292 0.977051 33.1741 0.977051C30.5189 0.977051 28.3665 3.12948 28.3665 5.78464C28.3665 7.47312 29.2369 8.9583 30.5536 9.81592C30.9908 10.2298 31.565 10.9098 31.6476 11.6839C31.7834 12.9565 31.2403 13.7201 31.2403 13.7201H31.2521C30.9501 14.1219 30.7711 14.6215 30.7711 15.1628C30.7711 15.7036 30.9497 16.2027 31.2511 16.6043H31.2493C31.2493 16.6043 31.6594 17.3679 31.5333 18.6405C31.4535 19.4468 30.8783 20.1509 30.4675 20.5587C29.1991 21.4242 28.3665 22.8812 28.3665 24.5326C28.3665 27.1878 30.5189 29.3402 33.174 29.3402C35.8292 29.3402 37.9816 27.1878 37.9816 24.5326C37.9816 22.876 37.1437 21.4152 35.8687 20.5506C35.4585 20.1417 34.8903 19.4415 34.811 18.6405C34.6951 17.4713 35.0319 16.7318 35.0874 16.6193C35.3956 16.2152 35.5787 15.7104 35.5787 15.1628C35.5787 14.6215 35.3997 14.1219 35.0978 13.7201H35.104C35.104 13.7201 34.5609 12.9565 34.6967 11.6839C34.7787 10.9147 35.3463 10.2384 35.7825 9.82378Z" fill="black"/>
<ellipse cx="19.2296" cy="16.8422" rx="3.84607" ry="3.84607" fill="black"/>
<path fill-rule="evenodd" clip-rule="evenodd" d="M132.417 8.27836C132.417 8.91043 132.159 9.48228 131.743 9.89448C131.254 10.5128 129.718 12.9234 131.28 13.9645H131.609C131.742 13.9645 131.849 14.0716 131.849 14.2037V22.823C131.849 22.9552 131.742 23.0623 131.609 23.0623H128.676C128.544 23.0623 128.437 22.9552 128.437 22.823V14.2037C128.437 14.0716 128.544 13.9645 128.676 13.9645H129.006C130.567 12.9234 129.031 10.5129 128.542 9.89451C128.126 9.4823 127.868 8.91044 127.868 8.27836C127.868 7.02221 128.887 6.00391 130.143 6.00391C131.399 6.00391 132.417 7.02221 132.417 8.27836ZM51.9137 6.93679C51.7815 6.93679 51.6744 7.04389 51.6744 7.17601V22.823C51.6744 22.9552 51.7815 23.0623 51.9137 23.0623H53.9407C54.0728 23.0623 54.1799 22.9552 54.1799 22.823V12.6261C54.1799 12.5759 54.2474 12.5596 54.2703 12.6043L59.5506 22.932C59.5915 23.0119 59.6738 23.0623 59.7636 23.0623H61.002C61.0926 23.0623 61.1754 23.0111 61.216 22.9301L66.3233 12.7284C66.3459 12.6833 66.4139 12.6994 66.4139 12.7498V22.823C66.4139 22.9552 66.521 23.0623 66.6531 23.0623H70.1327C70.2649 23.0623 70.372 22.9552 70.372 22.823V7.17601C70.372 7.04389 70.2649 6.93679 70.1327 6.93679H66.7484C66.6578 6.93679 66.5749 6.98803 66.5344 7.06913L61.1391 17.8729C61.1215 17.9081 61.0713 17.9082 61.0535 17.8731L55.5923 7.0681C55.5516 6.98756 55.469 6.93679 55.3788 6.93679H51.9137ZM86.9283 16.5232C86.9283 20.1346 83.8734 23.0623 80.105 23.0623C76.3366 23.0623 73.2817 20.1346 73.2817 16.5232C73.2817 12.9118 76.3366 9.98419 80.105 9.98419C83.8734 9.98419 86.9283 12.9118 86.9283 16.5232ZM82.9481 16.5232C82.9481 19.5066 81.6752 21.9251 80.105 21.9251C78.5348 21.9251 77.2619 19.5066 77.2619 16.5232C77.2619 13.5399 78.5348 11.1214 80.105 11.1214C81.6752 11.1214 82.9481 13.5399 82.9481 16.5232ZM89.2028 10.792C89.2028 10.6599 89.3099 10.5528 89.442 10.5528H92.3752C92.5073 10.5528 92.6144 10.6599 92.6144 10.792V12.2552C93.6264 11.407 95.0679 10.5528 96.5947 10.5528C97.5368 10.5528 98.3006 11.3165 98.3006 12.2586C98.3006 13.2007 97.5368 13.9645 96.5947 13.9645C95.7871 13.9645 95.1105 13.4032 94.9338 12.6494L94.8889 12.6186C94.1131 12.5498 93.532 12.7194 92.6144 13.6603V22.823C92.6144 22.9552 92.5073 23.0623 92.3752 23.0623H89.442C89.3099 23.0623 89.2028 22.9552 89.2028 22.823V10.792ZM99.4378 10.792C99.4378 10.6599 99.5449 10.5528 99.677 10.5528H102.61C102.742 10.5528 102.849 10.6599 102.849 10.792V11.2555C103.636 10.8061 104.584 10.5528 105.692 10.5528C109.461 10.5528 112.516 13.4804 112.516 17.0918C112.516 20.7033 109.461 23.6309 105.692 23.6309C104.584 23.6309 103.636 23.3776 102.849 22.9282V30.7836C102.849 30.9157 102.742 31.0228 102.61 31.0228H99.677C99.5449 31.0228 99.4378 30.9157 99.4378 30.7836V10.792ZM102.849 17.0863V17.0974C102.851 19.7641 104.123 21.925 105.692 21.925C107.263 21.925 108.536 19.7612 108.536 17.0918C108.536 14.4225 107.263 12.2586 105.692 12.2586C104.123 12.2586 102.851 14.4195 102.849 17.0863ZM113.892 7.14113C113.76 7.14113 113.653 7.24824 113.653 7.38036V22.823C113.653 22.9552 113.76 23.0623 113.892 23.0623H116.826C116.958 23.0623 117.065 22.9552 117.065 22.823V14.904C117.065 14.8082 117.123 14.7219 117.211 14.6846L120.949 13.1076C121.265 12.9745 121.614 13.2061 121.614 13.5484V23.0623H124.786C124.918 23.0623 125.025 22.9552 125.025 22.823V13.4477C125.025 12.6864 124.73 11.9434 124.106 11.5065C123.454 11.0492 122.534 10.5528 121.614 10.5528C119.909 10.5528 117.068 12.2566 117.065 12.2586V7.38036C117.065 7.24824 116.958 7.14113 116.825 7.14113H113.892ZM140.101 10.5528C143.058 10.5528 144.642 12.2586 144.642 13.9645H142.66C142.565 13.2063 141.515 11.9743 140.101 12.2586C138.072 12.6666 137.826 14.8174 140.101 15.386C143.789 16.3082 144.934 18.5134 144.934 19.3663C144.934 20.2192 144.65 23.3466 139.817 23.3466C135.95 23.3466 135.173 20.8826 135.268 19.6506H137.258C137.258 21.3564 138.672 21.925 139.817 21.925C141.349 21.925 142.937 19.5472 140.101 18.5134C135.836 16.9586 135.268 15.9546 135.268 14.5331C135.268 13.1116 136.405 10.5528 140.101 10.5528ZM148.009 10.5528C147.877 10.5528 147.77 10.6599 147.77 10.792V22.823C147.77 22.9552 147.877 23.0623 148.009 23.0623H150.942C151.074 23.0623 151.181 22.9552 151.181 22.823V14.2666L153.929 13.1076C154.244 12.9745 154.593 13.2061 154.593 13.5484V23.0623H157.766C157.898 23.0623 158.005 22.9552 158.005 22.823V14.2666L160.752 13.1076C161.067 12.9745 161.416 13.2061 161.416 13.5484V23.0623H164.589C164.721 23.0623 164.828 22.9552 164.828 22.823V13.4477C164.828 12.6864 164.533 11.9434 163.909 11.5065C163.257 11.0492 162.337 10.5528 161.416 10.5528C160.213 10.5528 158.442 11.4024 157.505 11.9024C157.387 11.7532 157.247 11.6196 157.086 11.5065C156.433 11.0492 155.513 10.5528 154.593 10.5528C153.579 10.5528 152.163 11.1556 151.181 11.6446V10.792C151.181 10.6599 151.074 10.5528 150.942 10.5528H148.009Z" fill="black"/>
<defs>
<linearGradient id="paint0_linear_1_209" x1="19.2302" y1="0.977051" x2="19.2302" y2="15.8806" gradientUnits="userSpaceOnUse">
<stop/>
<stop offset="1" stop-opacity="0"/>
</linearGradient>
</defs>
</svg>
