<svg width="500" height="149" viewBox="0 0 500 149" fill="none" xmlns="http://www.w3.org/2000/svg">
<rect y="0.512207" width="500" height="148.024" rx="6" fill="white"/>
<g clip-path="url(#clip0_79_4314)">
<path d="M220.997 16.5122C220.997 16.5122 231.65 29.3605 249.701 29.3605C268.935 29.3605 278.997 16.5122 278.997 16.5122V47.5123H220.997V16.5122Z" fill="url(#paint0_linear_79_4314)"/>
<path d="M210.707 46.7247C210.317 46.3342 210.317 45.701 210.707 45.3105L217.778 38.2394L225.556 46.0176L217.778 53.7958L210.707 46.7247Z" fill="#0066FF" fill-opacity="0.4"/>
<path d="M213.207 46.7247C212.817 46.3342 212.817 45.701 213.207 45.3105L217.803 40.7143L223.107 46.0176L217.803 51.3209L213.207 46.7247Z" fill="#0066FF"/>
<path fill-rule="evenodd" clip-rule="evenodd" d="M221.01 36.5122C221.008 36.5122 221.006 36.5123 221.004 36.5123V41.0173C221.006 41.0173 221.008 41.0173 221.01 41.0173V36.5122ZM226.458 34.8902C229.191 33.1052 230.996 30.0196 230.996 26.5122C230.996 20.9894 226.519 16.5122 220.996 16.5122C215.473 16.5122 210.996 20.9894 210.996 26.5122C210.996 30.0485 212.832 33.156 215.602 34.9341C216.505 35.7986 217.664 37.193 217.833 38.7769C218.115 41.424 216.986 43.0122 216.986 43.0122H217.004C216.374 43.8488 216 44.8894 216 46.0173C216 47.152 216.378 48.1985 217.015 49.0376C217.112 49.2317 217.84 50.7803 217.595 53.2522C217.429 54.9302 216.231 56.3955 215.377 57.2434C212.732 59.0429 210.996 62.0771 210.996 65.5169C210.996 71.0398 215.473 75.5169 220.996 75.5169C226.518 75.5169 230.996 71.0398 230.996 65.5169C230.996 62.1102 229.292 59.1013 226.69 57.2957C225.833 56.4566 224.589 54.9652 224.419 53.2522C224.157 50.6051 225.01 49.0169 225.01 49.0169H225.001C225.628 48.1813 226 47.1427 226 46.0173C226 44.8894 225.627 43.8488 224.997 43.0122H225.028C225.028 43.0122 223.899 41.424 224.181 38.7769C224.353 37.1659 225.549 35.751 226.458 34.8902ZM221.004 51.0173L221.01 51.0173V55.5169L221.004 55.5169V51.0173Z" fill="black"/>
<path d="M289.293 46.7247C289.683 46.3342 289.683 45.701 289.293 45.3105L282.222 38.2394L274.444 46.0176L282.222 53.7958L289.293 46.7247Z" fill="#FD1569" fill-opacity="0.4"/>
<path d="M286.399 46.7242C286.79 46.3337 286.79 45.7005 286.399 45.31L281.803 40.7138L276.5 46.0171L281.803 51.3204L286.399 46.7242Z" fill="#FD1569"/>
<path fill-rule="evenodd" clip-rule="evenodd" d="M284.399 34.9337C287.169 33.1556 289.004 30.0482 289.004 26.5122C289.004 20.9894 284.527 16.5122 279.004 16.5122C273.482 16.5122 269.004 20.9894 269.004 26.5122C269.004 30.0327 270.824 33.1283 273.573 34.9102C274.48 35.7728 275.659 37.1783 275.829 38.7769C276.112 41.424 274.982 43.0122 274.982 43.0122H275.008C274.378 43.8488 274.005 44.8894 274.005 46.0173C274.005 47.1427 274.377 48.1813 275.004 49.0169H275.001C275.001 49.0169 275.854 50.6051 275.592 53.2522C275.424 54.9482 274.202 56.4269 273.346 57.2705C270.724 59.0732 269.004 62.0943 269.004 65.5169C269.004 71.0398 273.482 75.5169 279.004 75.5169C284.527 75.5169 289.004 71.0398 289.004 65.5169C289.004 62.0785 287.269 59.0455 284.627 57.2458C283.772 56.3982 282.572 54.9318 282.406 53.2522C282.166 50.8349 282.857 49.3006 282.979 49.0525C283.623 48.2109 284.005 47.1587 284.005 46.0173C284.005 44.8894 283.632 43.8487 283.002 43.0122H283.015C283.015 43.0122 281.886 41.424 282.168 38.7769C282.337 37.1928 283.496 35.7982 284.399 34.9337Z" fill="black"/>
<ellipse cx="250.005" cy="49.5122" rx="8.00001" ry="8.00002" fill="black"/>
</g>
<rect x="16" y="91.5171" width="468" height="41.0189" rx="6" fill="white"/>
<path fill-rule="evenodd" clip-rule="evenodd" d="M238.039 101.792C238.039 102.424 237.781 102.995 237.365 103.408C236.876 104.026 235.34 106.437 236.901 107.478H237.231C237.363 107.478 237.47 107.585 237.47 107.717V116.336C237.47 116.468 237.363 116.575 237.231 116.575H234.298C234.166 116.575 234.058 116.468 234.058 116.336V107.717C234.058 107.585 234.166 107.478 234.298 107.478H234.627C236.189 106.437 234.653 104.026 234.164 103.408C233.748 102.995 233.49 102.424 233.49 101.792C233.49 100.535 234.508 99.5171 235.764 99.5171C237.02 99.5171 238.039 100.535 238.039 101.792ZM157.535 100.45C157.403 100.45 157.296 100.557 157.296 100.689V116.336C157.296 116.468 157.403 116.575 157.535 116.575H159.562C159.694 116.575 159.801 116.468 159.801 116.336V106.139C159.801 106.089 159.869 106.073 159.892 106.118L165.172 116.445C165.213 116.525 165.295 116.575 165.385 116.575H166.624C166.714 116.575 166.797 116.524 166.837 116.443L171.945 106.242C171.967 106.196 172.035 106.213 172.035 106.263V116.336C172.035 116.468 172.142 116.575 172.275 116.575H175.754C175.886 116.575 175.993 116.468 175.993 116.336V100.689C175.993 100.557 175.886 100.45 175.754 100.45H172.37C172.279 100.45 172.196 100.501 172.156 100.582L166.761 111.386C166.743 111.421 166.693 111.421 166.675 111.386L161.214 100.581C161.173 100.501 161.09 100.45 161 100.45H157.535ZM192.55 110.036C192.55 113.648 189.495 116.575 185.726 116.575C181.958 116.575 178.903 113.648 178.903 110.036C178.903 106.425 181.958 103.497 185.726 103.497C189.495 103.497 192.55 106.425 192.55 110.036ZM188.57 110.036C188.57 113.02 187.297 115.438 185.726 115.438C184.156 115.438 182.883 113.02 182.883 110.036C182.883 107.053 184.156 104.635 185.726 104.635C187.297 104.635 188.57 107.053 188.57 110.036ZM194.824 104.305C194.824 104.173 194.931 104.066 195.063 104.066H197.997C198.129 104.066 198.236 104.173 198.236 104.305V105.768C199.248 104.92 200.689 104.066 202.216 104.066C203.158 104.066 203.922 104.83 203.922 105.772C203.922 106.714 203.158 107.478 202.216 107.478C201.409 107.478 200.732 106.916 200.555 106.163L200.51 106.132C199.735 106.063 199.153 106.233 198.236 107.173V116.336C198.236 116.468 198.129 116.575 197.997 116.575H195.063C194.931 116.575 194.824 116.468 194.824 116.336V104.305ZM205.059 104.305C205.059 104.173 205.166 104.066 205.298 104.066H208.232C208.364 104.066 208.471 104.173 208.471 104.305V104.769C209.257 104.319 210.206 104.066 211.314 104.066C215.082 104.066 218.137 106.994 218.137 110.605C218.137 114.216 215.082 117.144 211.314 117.144C210.206 117.144 209.257 116.891 208.471 116.441V124.297C208.471 124.429 208.364 124.536 208.232 124.536H205.298C205.166 124.536 205.059 124.429 205.059 124.297V104.305ZM208.471 110.599V110.611C208.473 113.277 209.745 115.438 211.314 115.438C212.884 115.438 214.157 113.274 214.157 110.605C214.157 107.936 212.884 105.772 211.314 105.772C209.745 105.772 208.473 107.933 208.471 110.599ZM219.514 100.654C219.382 100.654 219.275 100.761 219.275 100.894V116.336C219.275 116.468 219.382 116.575 219.514 116.575H222.447C222.579 116.575 222.686 116.468 222.686 116.336V108.417C222.687 108.321 222.744 108.235 222.832 108.198L226.571 106.621C226.886 106.488 227.235 106.719 227.235 107.062V116.575H230.408C230.54 116.575 230.647 116.468 230.647 116.336V106.961C230.647 106.2 230.351 105.457 229.728 105.02C229.075 104.562 228.155 104.066 227.235 104.066C225.53 104.066 222.69 105.77 222.686 105.772V100.894C222.686 100.761 222.579 100.654 222.447 100.654H219.514ZM245.722 104.066C248.679 104.066 250.264 105.772 250.264 107.478H248.281C248.186 106.72 247.136 105.488 245.722 105.772C243.693 106.18 243.448 108.331 245.722 108.899C249.411 109.821 250.556 112.027 250.556 112.879C250.556 113.732 250.271 116.86 245.438 116.86C241.571 116.86 240.794 114.396 240.889 113.164H242.879C242.879 114.87 244.293 115.438 245.438 115.438C246.97 115.438 248.558 113.06 245.722 112.027C241.458 110.472 240.889 109.468 240.889 108.046C240.889 106.625 242.026 104.066 245.722 104.066ZM253.63 104.066C253.498 104.066 253.391 104.173 253.391 104.305V116.336C253.391 116.468 253.498 116.575 253.63 116.575H256.564C256.696 116.575 256.803 116.468 256.803 116.336V107.78L259.55 106.621C259.865 106.488 260.215 106.719 260.215 107.062V116.575H263.387C263.519 116.575 263.626 116.468 263.626 116.336V107.78L266.373 106.621C266.689 106.488 267.038 106.719 267.038 107.062V116.575H270.21C270.342 116.575 270.45 116.468 270.45 116.336V106.961C270.45 106.2 270.154 105.457 269.531 105.02C268.878 104.562 267.958 104.066 267.038 104.066C265.834 104.066 264.064 104.916 263.126 105.416C263.008 105.266 262.869 105.133 262.707 105.02C262.055 104.562 261.135 104.066 260.215 104.066C259.2 104.066 257.785 104.669 256.803 105.158V104.305C256.803 104.173 256.696 104.066 256.564 104.066H253.63Z" fill="black"/>
<path d="M278.45 102.34V121.712" stroke="black"/>
<path d="M291.955 105.936C291.38 105.936 290.888 105.974 290.479 106.05C290.426 107.193 290.4 110 290.4 114.472C290.4 116.349 290.498 117.427 290.695 117.707C290.892 117.98 291.576 118.116 292.749 118.116C294.119 118.116 295.141 117.7 295.814 116.867C296.495 116.027 296.836 114.468 296.836 112.191C296.836 109.853 296.438 108.226 295.644 107.31C294.857 106.394 293.627 105.936 291.955 105.936ZM291.546 104.279C294.596 104.279 296.703 104.828 297.869 105.925C299.034 107.015 299.617 108.812 299.617 111.317C299.617 114.124 299.026 116.235 297.846 117.65C296.665 119.066 294.717 119.773 292 119.773L286.597 119.784C286.499 119.527 286.45 119.285 286.45 119.058C286.45 118.907 286.488 118.797 286.563 118.729C286.646 118.653 286.779 118.615 286.96 118.615H287.8C287.853 117.556 287.88 114.854 287.88 110.511C287.88 108.188 287.853 106.5 287.8 105.448H286.597C286.499 105.191 286.45 104.953 286.45 104.733C286.45 104.574 286.488 104.461 286.563 104.393C286.646 104.317 286.779 104.279 286.96 104.279H291.546Z" fill="black"/>
<path d="M302.25 112.792C302.25 109.811 302.867 107.609 304.1 106.186C305.341 104.764 307.089 104.052 309.344 104.052C311.402 104.052 312.969 104.571 314.043 105.607C315.118 106.636 315.655 108.521 315.655 111.26C315.655 114.241 315.035 116.444 313.794 117.866C312.56 119.289 310.816 120 308.561 120C306.503 120 304.936 119.486 303.862 118.456C302.787 117.427 302.25 115.539 302.25 112.792ZM305.031 111.748C305.031 114.276 305.371 116.008 306.052 116.947C306.741 117.878 307.759 118.343 309.106 118.343C310.354 118.343 311.293 117.87 311.921 116.924C312.556 115.978 312.874 114.438 312.874 112.304C312.874 109.747 312.53 108.01 311.841 107.094C311.16 106.171 310.146 105.709 308.799 105.709C307.551 105.709 306.609 106.182 305.973 107.128C305.345 108.074 305.031 109.614 305.031 111.748Z" fill="black"/>
<path d="M325.417 118.343C326.764 118.343 327.975 117.995 329.049 117.299C329.45 117.715 329.651 118.15 329.651 118.604C329.651 119.028 329.163 119.368 328.186 119.626C327.21 119.875 326.037 120 324.668 120C322.481 120 320.869 119.486 319.832 118.456C318.796 117.427 318.277 115.558 318.277 112.849C318.277 109.83 318.886 107.609 320.105 106.186C321.323 104.764 323.116 104.052 325.485 104.052C326.802 104.052 327.797 104.158 328.47 104.37C329.144 104.582 329.48 104.941 329.48 105.448C329.48 105.865 329.272 106.277 328.856 106.686C327.494 106.035 326.189 105.709 324.94 105.709C323.654 105.709 322.685 106.175 322.034 107.106C321.384 108.029 321.058 109.595 321.058 111.805C321.058 114.249 321.399 115.952 322.08 116.913C322.768 117.866 323.881 118.343 325.417 118.343Z" fill="black"/>
<path d="M337.766 104.052C339.409 104.052 340.547 104.151 341.183 104.347C341.819 104.537 342.137 104.907 342.137 105.46C342.137 105.967 341.932 106.417 341.524 106.81C339.934 106.084 338.459 105.721 337.097 105.721C336.136 105.721 335.455 105.914 335.054 106.3C334.66 106.678 334.463 107.204 334.463 107.877C334.463 108.581 334.698 109.141 335.167 109.557C335.644 109.974 336.544 110.39 337.869 110.806C339.435 111.275 340.619 111.816 341.421 112.429C342.231 113.035 342.659 114.018 342.704 115.38C342.704 116.901 342.182 118.052 341.138 118.831C340.101 119.61 338.512 120 336.37 120C334.88 120 333.748 119.894 332.976 119.682C332.205 119.47 331.819 119.077 331.819 118.502C331.819 117.98 332.038 117.518 332.477 117.117C333.975 117.934 335.534 118.343 337.154 118.343C338.266 118.343 339.057 118.161 339.526 117.798C339.995 117.435 340.23 116.875 340.23 116.118C340.23 115.21 339.889 114.529 339.208 114.075C338.535 113.621 337.456 113.159 335.973 112.69C334.535 112.251 333.51 111.703 332.897 111.044C332.292 110.378 331.989 109.508 331.989 108.434C331.989 107.094 332.485 106.031 333.476 105.244C334.475 104.45 335.905 104.052 337.766 104.052Z" fill="black"/>
<defs>
<linearGradient id="paint0_linear_79_4314" x1="249.997" y1="16.5122" x2="249.997" y2="47.5123" gradientUnits="userSpaceOnUse">
<stop/>
<stop offset="1" stop-opacity="0"/>
</linearGradient>
<clipPath id="clip0_79_4314">
<rect width="80.0001" height="59.0047" fill="white" transform="translate(210 16.5122)"/>
</clipPath>
</defs>
</svg>
