
<svg width="140" height="140" viewBox="0 0 140 140" fill="none" xmlns="http://www.w3.org/2000/svg">
<g clip-path="url(#clip0_1703_51561)">
<path fill-rule="evenodd" clip-rule="evenodd" d="M128.056 51.1378C129.027 46.5795 128.554 42.6999 126.591 39.6969C124.629 36.6939 121.265 34.7035 116.7 33.7635C112.13 32.8224 106.432 32.954 99.9641 34.1391C87.032 36.5083 71.2207 43.0514 55.63 53.2411C40.0394 63.4308 27.7001 75.2863 20.3394 86.1799C16.6578 91.6286 14.2503 96.7944 13.2778 101.358C12.3065 105.916 12.7795 109.796 14.7422 112.799C16.7049 115.802 20.0684 117.792 24.6333 118.732C29.2034 119.673 34.9011 119.542 41.3694 118.357C54.3015 115.987 70.1128 109.444 85.7034 99.2546C101.294 89.065 113.633 77.2095 120.994 66.3158C124.676 60.8671 127.083 55.7013 128.056 51.1378ZM86.2505 100.092C117.599 79.603 136.035 52.3184 127.428 39.1498C118.822 25.9812 86.4315 31.9153 55.0829 52.4041C23.7344 72.8928 5.29842 100.177 13.9051 113.346C22.5118 126.515 54.9019 120.58 86.2505 100.092Z" fill="#BFFD3E" fill-opacity="0.4"/>
<mask id="path-2-inside-1_1703_51561" fill="white">
<path fill-rule="evenodd" clip-rule="evenodd" d="M11.8757 80.7065L11.2347 66.0097H20.1092L35.8334 65.5659L43.8958 61.4499C46.1322 60.5593 51.1799 57.766 55.864 55.1738C59.2699 53.289 62.4836 51.5105 64.2849 50.6471C68.5635 48.5963 73.4542 49.7926 75.9054 50.6471C81.6885 53.9318 90.6442 59.0211 99.0141 63.7828L108.06 63.5274L118.564 64.5388L123.991 65.8173L123.345 80.4011C123.532 82.141 122.656 83.6462 121.811 84.4851C112.258 90.9648 97.2117 102.183 87.3952 109.501C84.0076 112.027 81.2427 114.088 79.5413 115.331C74.5106 119.003 67.1706 121.199 59.136 117.298C53.1515 113.224 44.3675 106.976 36.1178 101.107C27.0622 94.6659 18.6503 88.6822 15.2919 86.5359C12.4312 84.7077 11.5687 82.6175 11.8757 80.7065Z"/>
</mask>
<path fill-rule="evenodd" clip-rule="evenodd" d="M11.8757 80.7065L11.2347 66.0097H20.1092L35.8334 65.5659L43.8958 61.4499C46.1322 60.5593 51.1799 57.766 55.864 55.1738C59.2699 53.289 62.4836 51.5105 64.2849 50.6471C68.5635 48.5963 73.4542 49.7926 75.9054 50.6471C81.6885 53.9318 90.6442 59.0211 99.0141 63.7828L108.06 63.5274L118.564 64.5388L123.991 65.8173L123.345 80.4011C123.532 82.141 122.656 83.6462 121.811 84.4851C112.258 90.9648 97.2117 102.183 87.3952 109.501C84.0076 112.027 81.2427 114.088 79.5413 115.331C74.5106 119.003 67.1706 121.199 59.136 117.298C53.1515 113.224 44.3675 106.976 36.1178 101.107C27.0622 94.6659 18.6503 88.6822 15.2919 86.5359C12.4312 84.7077 11.5687 82.6175 11.8757 80.7065Z" fill="#2BA16A"/>
<path d="M11.2347 66.0097V65.0097H10.1902L10.2357 66.0533L11.2347 66.0097ZM11.8757 80.7065L12.863 80.865L12.8792 80.7646L12.8747 80.6629L11.8757 80.7065ZM20.1092 66.0097V67.0097H20.1233L20.1374 67.0093L20.1092 66.0097ZM35.8334 65.5659L35.8616 66.5655L36.0872 66.5592L36.2881 66.4566L35.8334 65.5659ZM43.8958 61.4499L43.5258 60.5208L43.4825 60.538L43.4411 60.5592L43.8958 61.4499ZM55.864 55.1738L55.3798 54.2988L55.864 55.1738ZM64.2849 50.6471L63.8526 49.7454V49.7454L64.2849 50.6471ZM75.9054 50.6471L76.3993 49.7776L76.3204 49.7328L76.2346 49.7029L75.9054 50.6471ZM99.0141 63.7828L98.5196 64.6519L98.7627 64.7903L99.0423 64.7824L99.0141 63.7828ZM108.06 63.5274L108.156 62.5321L108.094 62.5261L108.032 62.5278L108.06 63.5274ZM118.564 64.5388L118.793 63.5654L118.727 63.5499L118.66 63.5434L118.564 64.5388ZM123.991 65.8173L124.99 65.8615L125.027 65.0339L124.22 64.8439L123.991 65.8173ZM123.345 80.4011L122.346 80.3569L122.343 80.4325L122.351 80.5078L123.345 80.4011ZM121.811 84.4851L122.373 85.3127L122.45 85.2603L122.516 85.1945L121.811 84.4851ZM87.3952 109.501L87.993 110.303L87.3952 109.501ZM79.5413 115.331L78.9516 114.523H78.9516L79.5413 115.331ZM59.136 117.298L58.5733 118.124L58.6336 118.165L58.6992 118.197L59.136 117.298ZM36.1178 101.107L36.6975 100.293L36.1178 101.107ZM15.2919 86.5359L15.8304 85.6933L15.2919 86.5359ZM10.2357 66.0533L10.8766 80.75L12.8747 80.6629L12.2338 65.9662L10.2357 66.0533ZM20.1092 65.0097H11.2347V67.0097H20.1092V65.0097ZM35.8052 64.5663L20.081 65.0101L20.1374 67.0093L35.8616 66.5655L35.8052 64.5663ZM36.2881 66.4566L44.3505 62.3405L43.4411 60.5592L35.3787 64.6753L36.2881 66.4566ZM44.2657 62.3789C46.5782 61.4581 51.7035 58.6191 56.3482 56.0487L55.3798 54.2988C50.6563 56.9128 45.6863 59.6605 43.5258 60.5208L44.2657 62.3789ZM56.3482 56.0487C59.7692 54.1556 62.9494 52.3962 64.7171 51.5489L63.8526 49.7454C62.0178 50.6249 58.7706 52.4224 55.3798 54.2988L56.3482 56.0487ZM64.7171 51.5489C68.6172 49.6795 73.1734 50.7538 75.5763 51.5914L76.2346 49.7029C73.7349 48.8315 68.5098 47.5131 63.8526 49.7454L64.7171 51.5489ZM75.4116 51.5167C81.1944 54.8013 90.1499 59.8904 98.5196 64.6519L99.5086 62.9136C91.1384 58.1518 82.1825 53.0624 76.3993 49.7776L75.4116 51.5167ZM108.032 62.5278L98.9859 62.7832L99.0423 64.7824L108.088 64.5271L108.032 62.5278ZM118.66 63.5434L108.156 62.5321L107.964 64.5228L118.468 65.5342L118.66 63.5434ZM124.22 64.8439L118.793 63.5654L118.335 65.5121L123.762 66.7906L124.22 64.8439ZM124.344 80.4454L124.99 65.8615L122.992 65.773L122.346 80.3569L124.344 80.4454ZM122.351 80.5078C122.495 81.8552 121.81 83.077 121.106 83.7757L122.516 85.1945C123.502 84.2154 124.568 82.4268 124.34 80.2945L122.351 80.5078ZM121.25 83.6575C111.673 90.1528 96.6064 101.386 86.7975 108.7L87.993 110.303C97.817 102.979 112.842 91.7769 122.373 85.3127L121.25 83.6575ZM86.7975 108.7C83.4076 111.227 80.6479 113.285 78.9516 114.523L80.1309 116.138C81.8375 114.892 84.6075 112.827 87.993 110.303L86.7975 108.7ZM78.9516 114.523C74.1411 118.035 67.1953 120.099 59.5728 116.398L58.6992 118.197C67.1458 122.298 74.88 119.972 80.1309 116.138L78.9516 114.523ZM59.6987 116.471C53.7248 112.405 44.9508 106.164 36.6975 100.293L35.5382 101.922C43.7842 107.788 52.5782 114.044 58.5733 118.124L59.6987 116.471ZM36.6975 100.293C27.6574 93.8621 19.216 87.857 15.8304 85.6933L14.7534 87.3785C18.0846 89.5075 26.4669 95.4696 35.5382 101.922L36.6975 100.293ZM15.8304 85.6933C13.2006 84.0126 12.6369 82.273 12.863 80.865L10.8883 80.5479C10.5006 82.962 11.6618 85.4028 14.7534 87.3785L15.8304 85.6933Z" fill="black" mask="url(#path-2-inside-1_1703_51561)"/>
<mask id="path-4-inside-2_1703_51561" fill="white">
<path fill-rule="evenodd" clip-rule="evenodd" d="M11.8757 76.9364L11.2347 62.24H20.1092L35.8326 61.7962L43.8958 57.6797C46.1322 56.7892 51.1799 53.9958 55.864 51.4036C59.2699 49.5188 62.4836 47.7404 64.2849 46.877C68.5635 44.8262 73.4542 46.0225 75.9054 46.877C81.6886 50.1618 90.6446 55.2512 99.0147 60.013L108.06 59.7577L118.564 60.769L123.991 62.0475L123.345 76.6311C123.532 78.371 122.656 79.8761 121.811 80.715C112.258 87.1947 97.2117 98.4124 87.3952 105.731C84.0076 108.257 81.2427 110.318 79.5413 111.56C74.5106 115.233 67.1706 117.429 59.136 113.528C53.1515 109.454 44.3675 103.206 36.1178 97.3374C27.0622 90.8957 18.6503 84.9121 15.2919 82.7658C12.4313 80.9376 11.5688 78.8474 11.8757 76.9364Z"/>
</mask>
<path d="M11.2347 62.24V61.24H10.1902L10.2357 62.2835L11.2347 62.24ZM11.8757 76.9364L12.863 77.095L12.8792 76.9945L12.8747 76.8928L11.8757 76.9364ZM20.1092 62.24V63.24H20.1233L20.1374 63.2396L20.1092 62.24ZM35.8326 61.7962L35.8608 62.7958L36.0864 62.7894L36.2873 62.6868L35.8326 61.7962ZM43.8958 57.6797L43.5258 56.7507L43.4825 56.7679L43.4411 56.7891L43.8958 57.6797ZM55.864 51.4036L55.3798 50.5287L55.864 51.4036ZM64.2849 46.877L63.8526 45.9752V45.9752L64.2849 46.877ZM75.9054 46.877L76.3993 46.0075L76.3204 45.9626L76.2346 45.9327L75.9054 46.877ZM99.0147 60.013L98.5202 60.8822L98.7634 61.0205L99.0429 61.0126L99.0147 60.013ZM108.06 59.7577L108.156 58.7623L108.094 58.7563L108.032 58.7581L108.06 59.7577ZM118.564 60.769L118.793 59.7957L118.727 59.7801L118.66 59.7736L118.564 60.769ZM123.991 62.0475L124.99 62.0918L125.027 61.2641L124.22 61.0742L123.991 62.0475ZM123.345 76.6311L122.346 76.5869L122.343 76.6625L122.351 76.7378L123.345 76.6311ZM121.811 80.715L122.373 81.5426L122.45 81.4902L122.516 81.4244L121.811 80.715ZM87.3952 105.731L87.993 106.533L87.3952 105.731ZM79.5413 111.56L78.9516 110.753H78.9516L79.5413 111.56ZM59.136 113.528L58.5733 114.354L58.6336 114.395L58.6992 114.427L59.136 113.528ZM36.1178 97.3374L36.6975 96.5225L36.1178 97.3374ZM15.2919 82.7658L15.8304 81.9231H15.8304L15.2919 82.7658ZM10.2357 62.2835L10.8766 76.98L12.8747 76.8928L12.2338 62.1964L10.2357 62.2835ZM20.1092 61.24H11.2347V63.24H20.1092V61.24ZM35.8044 60.7966L20.081 61.2404L20.1374 63.2396L35.8608 62.7958L35.8044 60.7966ZM36.2873 62.6868L44.3505 58.5704L43.4411 56.7891L35.3779 60.9056L36.2873 62.6868ZM44.2657 58.6088C46.5782 57.6879 51.7035 54.849 56.3482 52.2786L55.3798 50.5287C50.6563 53.1427 45.6863 55.8904 43.5258 56.7507L44.2657 58.6088ZM56.3482 52.2786C59.7692 50.3855 62.9494 48.6261 64.7171 47.7788L63.8526 45.9752C62.0178 46.8547 58.7706 48.6522 55.3798 50.5287L56.3482 52.2786ZM64.7171 47.7788C68.6172 45.9094 73.1734 46.9836 75.5763 47.8213L76.2346 45.9327C73.7349 45.0613 68.5098 43.743 63.8526 45.9752L64.7171 47.7788ZM75.4116 47.7465C81.1946 51.0312 90.1504 56.1205 98.5202 60.8822L99.5092 59.1438C91.1388 54.3819 82.1826 49.2923 76.3993 46.0075L75.4116 47.7465ZM108.032 58.7581L98.9865 59.0134L99.0429 61.0126L108.088 60.7573L108.032 58.7581ZM118.66 59.7736L108.156 58.7623L107.964 60.7531L118.468 61.7644L118.66 59.7736ZM124.22 61.0742L118.793 59.7957L118.335 61.7424L123.762 63.0209L124.22 61.0742ZM124.344 76.6754L124.99 62.0918L122.992 62.0033L122.346 76.5869L124.344 76.6754ZM122.351 76.7378C122.495 78.0851 121.81 79.3069 121.106 80.0056L122.516 81.4244C123.502 80.4453 124.568 78.6568 124.34 76.5245L122.351 76.7378ZM121.25 79.8874C111.673 86.3826 96.6064 97.6163 86.7975 104.929L87.993 106.533C97.817 99.2084 112.842 88.0068 122.373 81.5426L121.25 79.8874ZM86.7975 104.929C83.4076 107.457 80.6479 109.514 78.9516 110.753L80.1309 112.368C81.8375 111.122 84.6075 109.057 87.993 106.533L86.7975 104.929ZM78.9516 110.753C74.1411 114.265 67.1953 116.329 59.5728 112.628L58.6992 114.427C67.1458 118.528 74.88 116.201 80.1309 112.368L78.9516 110.753ZM59.6987 112.701C53.7248 108.635 44.9508 102.393 36.6975 96.5225L35.5382 98.1522C43.7842 104.018 52.5782 110.274 58.5733 114.354L59.6987 112.701ZM36.6975 96.5225C27.6574 90.092 19.216 84.0868 15.8304 81.9231L14.7534 83.6084C18.0846 85.7373 26.4669 91.6995 35.5382 98.1522L36.6975 96.5225ZM15.8304 81.9231C13.2007 80.2425 12.6369 78.5029 12.863 77.095L10.8883 76.7778C10.5006 79.1919 11.6619 81.6327 14.7534 83.6084L15.8304 81.9231Z" fill="black" fill-opacity="0.4" mask="url(#path-4-inside-2_1703_51561)"/>
<path d="M16.8517 60.1837L43.8956 46.377C47.7582 44.8389 60.0061 37.6251 64.2847 35.5743C68.5634 33.5234 73.454 34.7198 75.9053 35.5743C87.7903 42.3248 113.076 56.6974 119.137 60.1837C125.198 63.6701 123.445 67.7887 121.811 69.4123C108.96 78.1281 86.1729 95.4163 79.5411 100.258C74.5104 103.93 67.1704 106.126 59.1358 102.225C46.5823 93.6799 21.7097 75.5646 15.2918 71.463C8.87388 67.3615 12.5134 61.9413 16.8517 60.1837Z" fill="#7D7DF4" stroke="black"/>
<path d="M22.6361 60.3974L46.7586 48.3976C50.2039 47.0608 61.1287 40.791 64.9451 39.0087C70.6411 36.3485 73.1239 38.266 75.3104 39.0087C85.9115 44.8757 108.465 57.3674 113.872 60.3974C119.278 63.4275 120.58 65.5611 116.257 68.4182C104.795 75.9934 84.4687 91.019 78.5534 95.2268C74.0661 98.4187 67.5191 100.327 60.3524 96.9365C49.155 89.5099 26.9693 73.7654 21.2447 70.2006C15.5201 66.6358 15.3549 63.3948 22.6361 60.3974Z" fill="#00FF9B" stroke="black" stroke-width="0.4"/>
<path d="M30.7344 61.7893L50.5456 51.9341C53.3751 50.8362 62.3474 45.687 65.4818 44.2232C70.1598 42.0384 72.1988 43.6132 73.9945 44.2232C82.701 49.0416 101.224 59.3007 105.664 61.7893C110.104 64.2778 111.174 66.0301 107.623 68.3765C98.2093 74.5978 81.5161 86.938 76.6579 90.3938C72.9727 93.0152 67.5957 94.5825 61.7099 91.7979C57.9008 89.2715 52.5433 85.5731 47.2397 81.899L47.8433 81.166C47.4194 80.8722 44.6681 78.8198 44.2473 78.5281L43.5373 79.3332C37.4142 75.0899 31.8889 71.2709 29.5916 69.8403C24.8901 66.9127 24.7545 64.2509 30.7344 61.7893Z" stroke="black" stroke-opacity="0.4" stroke-width="0.4"/>
<ellipse cx="33.7456" cy="72.5818" rx="1.8102" ry="1.38824" fill="#00FF9B"/>
<path d="M35.3558 72.5818C35.3558 72.89 35.1934 73.1828 34.9039 73.4048C34.6142 73.627 34.2054 73.7701 33.7456 73.7701C33.2859 73.7701 32.877 73.627 32.5873 73.4048C32.2978 73.1828 32.1354 72.89 32.1354 72.5818C32.1354 72.2737 32.2978 71.9809 32.5873 71.7589C32.877 71.5367 33.2859 71.3936 33.7456 71.3936C34.2054 71.3936 34.6142 71.5367 34.9039 71.7589C35.1934 71.9809 35.3558 72.2737 35.3558 72.5818Z" stroke="black" stroke-opacity="0.4" stroke-width="0.4"/>
<ellipse cx="75.7002" cy="87.8035" rx="1.02162" ry="0.920802" fill="black" fill-opacity="0.4"/>
<ellipse cx="78.1583" cy="86.2779" rx="1.02162" ry="0.920802" fill="black" fill-opacity="0.4"/>
<ellipse cx="80.6644" cy="84.4363" rx="1.02162" ry="0.920802" fill="black" fill-opacity="0.4"/>
<mask id="path-14-inside-3_1703_51561" fill="white">
<path d="M89.637 68.572C89.6943 68.7727 89.6799 69.0151 89.594 69.2993C89.5081 69.5835 89.3649 69.8719 89.1645 70.1645C88.964 70.457 88.7206 70.7204 88.4342 70.9544C88.1478 71.1885 87.8328 71.3557 87.4891 71.456C87.1455 71.5563 86.8448 71.6064 86.587 71.6064C86.3293 71.6064 86.0429 71.573 85.7279 71.5061C85.4415 71.456 85.0835 71.41 84.654 71.3682C84.2244 71.3264 83.7877 71.3181 83.3438 71.3431C82.8999 71.3682 82.456 71.4225 82.0121 71.5061C81.5682 71.5897 81.1888 71.7318 80.8737 71.9325C80.1864 72.3504 79.7855 72.8269 79.6709 73.3619C79.5564 73.8969 79.6853 74.4068 80.0576 74.8916C80.3439 75.226 80.301 75.5604 79.9287 75.8948C79.7569 76.0285 79.4848 76.1664 79.1125 76.3085C78.7402 76.4507 78.3321 76.5802 77.8882 76.6973C77.4443 76.8143 76.979 76.9062 76.4921 76.9731C76.0053 77.04 75.5757 77.0734 75.2034 77.0734C74.9457 77.0734 74.7022 77.0149 74.4731 76.8979C74.244 76.7808 74.0865 76.6555 74.0006 76.5217H73.9576C73.6426 76.0034 73.1057 75.5562 72.3468 75.18C71.5878 74.8039 70.7072 74.6158 69.7049 74.6158C68.7312 74.6158 67.8506 74.8039 67.063 75.18C66.2755 75.5562 65.7242 75.9951 65.4092 76.4966C65.266 76.6973 65.0512 76.8435 64.7648 76.9355C64.4784 77.0274 64.1634 77.0734 63.8198 77.0734C63.4188 77.0734 62.9678 77.0316 62.4666 76.948C61.9655 76.8644 61.4643 76.7599 60.9631 76.6346C60.462 76.5092 60.0109 76.3629 59.61 76.1957C59.209 76.0285 58.9083 75.8613 58.7079 75.6941C58.5647 75.5771 58.4859 75.4392 58.4716 75.2804C58.4573 75.1215 58.5647 74.9 58.7938 74.6158C59.1088 74.2313 59.2305 73.7924 59.1589 73.2992C59.0873 72.806 58.7222 72.3504 58.0635 71.9325C57.6626 71.6817 57.1757 71.5187 56.603 71.4434C56.0302 71.3682 55.4861 71.339 54.9706 71.3557C54.3692 71.3724 53.7535 71.4393 53.1235 71.5563C52.7225 71.6232 52.3216 71.6064 51.9207 71.5061C51.6056 71.4393 51.3121 71.2846 51.04 71.0422C50.768 70.7998 50.5246 70.5323 50.3098 70.2397C50.095 69.9471 49.9303 69.6462 49.8158 69.3369C49.7012 69.0276 49.6726 68.7727 49.7298 68.572C49.8158 68.2042 50.1021 67.9702 50.589 67.8699C51.4481 67.6692 52.2214 67.339 52.9087 66.8793C53.596 66.4195 53.9396 65.9054 53.9396 65.337C53.9396 64.7518 53.596 64.2419 52.9087 63.8072C52.2214 63.3726 51.4481 63.0549 50.589 62.8543C50.3312 62.8041 50.1165 62.6829 49.9446 62.4907C49.7728 62.2984 49.6869 62.1019 49.6869 61.9013C49.6869 61.684 49.7442 61.4416 49.8587 61.1741C49.9733 60.9066 50.1236 60.6474 50.3098 60.3967C50.4959 60.1459 50.7107 59.916 50.9541 59.707C51.1975 59.498 51.4624 59.3434 51.7488 59.2431C51.9779 59.1595 52.1999 59.126 52.4147 59.1428C52.6295 59.1595 52.8657 59.1929 53.1235 59.2431C53.9826 59.4437 54.8775 59.5064 55.8083 59.4312C56.739 59.3559 57.5624 59.1177 58.2783 58.7164C58.622 58.5158 58.8725 58.2692 59.0301 57.9766C59.1876 57.6841 59.2878 57.3957 59.3308 57.1115C59.3737 56.8272 59.3737 56.5681 59.3308 56.334C59.2878 56.1 59.252 55.9328 59.2234 55.8325C59.1661 55.7322 59.116 55.6151 59.073 55.4814C59.0301 55.3477 59.0515 55.2306 59.1375 55.1303C59.3093 54.8963 59.6171 54.6914 60.061 54.5159C60.5049 54.3404 60.9846 54.1941 61.5001 54.077C62.0156 53.96 62.5167 53.8722 63.0036 53.8137C63.4904 53.7552 63.8771 53.726 64.1634 53.726C64.5357 53.726 64.8293 53.797 65.0441 53.9391C65.2588 54.0812 65.4092 54.2275 65.4951 54.378C65.8101 54.8294 66.3256 55.2264 67.0416 55.5692C67.7575 55.9119 68.6023 56.0833 69.576 56.0833C70.5784 56.0833 71.4661 55.9203 72.2394 55.5943C73.0126 55.2682 73.5567 54.8545 73.8717 54.3529C73.9863 54.2191 74.1653 54.0812 74.4087 53.9391C74.6521 53.797 74.9027 53.726 75.1604 53.726C75.5614 53.726 75.9981 53.7594 76.4706 53.8263C76.9432 53.8931 77.4085 53.9851 77.8667 54.1021C78.325 54.2191 78.7474 54.3696 79.134 54.5535C79.5206 54.7374 79.8285 54.938 80.0576 55.1554C80.2007 55.2891 80.2437 55.4354 80.1864 55.5943C80.1292 55.7531 80.0719 55.8659 80.0146 55.9328C79.6423 56.4176 79.5278 56.9276 79.6709 57.4625C79.8141 57.9975 80.2294 58.4657 80.9167 58.8669C81.604 59.2682 82.4488 59.4897 83.4512 59.5315C84.4535 59.5733 85.3842 59.4771 86.2434 59.2431C86.4725 59.1595 86.7517 59.126 87.081 59.1428C87.4104 59.1595 87.6896 59.2347 87.9187 59.3685C88.3483 59.6025 88.7277 59.9578 89.0571 60.4343C89.3864 60.9108 89.6083 61.3914 89.7229 61.8762C89.7802 62.1605 89.7014 62.382 89.4866 62.5408C89.2719 62.6996 89.0499 62.8041 88.8208 62.8543C87.933 63.0382 87.1741 63.36 86.5441 63.8198C85.914 64.2795 85.599 64.802 85.599 65.3871C85.599 65.9556 85.8639 66.453 86.3937 66.8793C86.9235 67.3056 87.618 67.6107 88.4771 67.7946C88.6776 67.8615 88.8494 67.9284 88.9926 67.9952C89.3077 68.1457 89.5224 68.338 89.637 68.572ZM69.6619 70.829C70.9507 70.829 72.1678 70.6869 73.3133 70.4027C74.4588 70.1185 75.454 69.7256 76.2988 69.2241C77.1436 68.7225 77.8095 68.1415 78.2963 67.4811C78.7832 66.8208 79.0266 66.1144 79.0266 65.3621C79.0266 64.6097 78.7832 63.9034 78.2963 63.243C77.8095 62.5826 77.1436 62.0058 76.2988 61.5126C75.454 61.0194 74.4588 60.6307 73.3133 60.3465C72.1678 60.0623 70.9507 59.9202 69.6619 59.9202C68.3732 59.9202 67.1633 60.0623 66.0321 60.3465C64.9009 60.6307 63.9128 61.0194 63.068 61.5126C62.2232 62.0058 61.5574 62.5826 61.0705 63.243C60.5837 63.9034 60.3402 64.6097 60.3402 65.3621C60.3402 66.1144 60.5837 66.8208 61.0705 67.4811C61.5574 68.1415 62.2232 68.7225 63.068 69.2241C63.9128 69.7256 64.9009 70.1185 66.0321 70.4027C67.1633 70.6869 68.3732 70.829 69.6619 70.829Z"/>
</mask>
<path d="M89.637 68.572C89.6943 68.7727 89.6799 69.0151 89.594 69.2993C89.5081 69.5835 89.3649 69.8719 89.1645 70.1645C88.964 70.457 88.7206 70.7204 88.4342 70.9544C88.1478 71.1885 87.8328 71.3557 87.4891 71.456C87.1455 71.5563 86.8448 71.6064 86.587 71.6064C86.3293 71.6064 86.0429 71.573 85.7279 71.5061C85.4415 71.456 85.0835 71.41 84.654 71.3682C84.2244 71.3264 83.7877 71.3181 83.3438 71.3431C82.8999 71.3682 82.456 71.4225 82.0121 71.5061C81.5682 71.5897 81.1888 71.7318 80.8737 71.9325C80.1864 72.3504 79.7855 72.8269 79.6709 73.3619C79.5564 73.8969 79.6853 74.4068 80.0576 74.8916C80.3439 75.226 80.301 75.5604 79.9287 75.8948C79.7569 76.0285 79.4848 76.1664 79.1125 76.3085C78.7402 76.4507 78.3321 76.5802 77.8882 76.6973C77.4443 76.8143 76.979 76.9062 76.4921 76.9731C76.0053 77.04 75.5757 77.0734 75.2034 77.0734C74.9457 77.0734 74.7022 77.0149 74.4731 76.8979C74.244 76.7808 74.0865 76.6555 74.0006 76.5217H73.9576C73.6426 76.0034 73.1057 75.5562 72.3468 75.18C71.5878 74.8039 70.7072 74.6158 69.7049 74.6158C68.7312 74.6158 67.8506 74.8039 67.063 75.18C66.2755 75.5562 65.7242 75.9951 65.4092 76.4966C65.266 76.6973 65.0512 76.8435 64.7648 76.9355C64.4784 77.0274 64.1634 77.0734 63.8198 77.0734C63.4188 77.0734 62.9678 77.0316 62.4666 76.948C61.9655 76.8644 61.4643 76.7599 60.9631 76.6346C60.462 76.5092 60.0109 76.3629 59.61 76.1957C59.209 76.0285 58.9083 75.8613 58.7079 75.6941C58.5647 75.5771 58.4859 75.4392 58.4716 75.2804C58.4573 75.1215 58.5647 74.9 58.7938 74.6158C59.1088 74.2313 59.2305 73.7924 59.1589 73.2992C59.0873 72.806 58.7222 72.3504 58.0635 71.9325C57.6626 71.6817 57.1757 71.5187 56.603 71.4434C56.0302 71.3682 55.4861 71.339 54.9706 71.3557C54.3692 71.3724 53.7535 71.4393 53.1235 71.5563C52.7225 71.6232 52.3216 71.6064 51.9207 71.5061C51.6056 71.4393 51.3121 71.2846 51.04 71.0422C50.768 70.7998 50.5246 70.5323 50.3098 70.2397C50.095 69.9471 49.9303 69.6462 49.8158 69.3369C49.7012 69.0276 49.6726 68.7727 49.7298 68.572C49.8158 68.2042 50.1021 67.9702 50.589 67.8699C51.4481 67.6692 52.2214 67.339 52.9087 66.8793C53.596 66.4195 53.9396 65.9054 53.9396 65.337C53.9396 64.7518 53.596 64.2419 52.9087 63.8072C52.2214 63.3726 51.4481 63.0549 50.589 62.8543C50.3312 62.8041 50.1165 62.6829 49.9446 62.4907C49.7728 62.2984 49.6869 62.1019 49.6869 61.9013C49.6869 61.684 49.7442 61.4416 49.8587 61.1741C49.9733 60.9066 50.1236 60.6474 50.3098 60.3967C50.4959 60.1459 50.7107 59.916 50.9541 59.707C51.1975 59.498 51.4624 59.3434 51.7488 59.2431C51.9779 59.1595 52.1999 59.126 52.4147 59.1428C52.6295 59.1595 52.8657 59.1929 53.1235 59.2431C53.9826 59.4437 54.8775 59.5064 55.8083 59.4312C56.739 59.3559 57.5624 59.1177 58.2783 58.7164C58.622 58.5158 58.8725 58.2692 59.0301 57.9766C59.1876 57.6841 59.2878 57.3957 59.3308 57.1115C59.3737 56.8272 59.3737 56.5681 59.3308 56.334C59.2878 56.1 59.252 55.9328 59.2234 55.8325C59.1661 55.7322 59.116 55.6151 59.073 55.4814C59.0301 55.3477 59.0515 55.2306 59.1375 55.1303C59.3093 54.8963 59.6171 54.6914 60.061 54.5159C60.5049 54.3404 60.9846 54.1941 61.5001 54.077C62.0156 53.96 62.5167 53.8722 63.0036 53.8137C63.4904 53.7552 63.8771 53.726 64.1634 53.726C64.5357 53.726 64.8293 53.797 65.0441 53.9391C65.2588 54.0812 65.4092 54.2275 65.4951 54.378C65.8101 54.8294 66.3256 55.2264 67.0416 55.5692C67.7575 55.9119 68.6023 56.0833 69.576 56.0833C70.5784 56.0833 71.4661 55.9203 72.2394 55.5943C73.0126 55.2682 73.5567 54.8545 73.8717 54.3529C73.9863 54.2191 74.1653 54.0812 74.4087 53.9391C74.6521 53.797 74.9027 53.726 75.1604 53.726C75.5614 53.726 75.9981 53.7594 76.4706 53.8263C76.9432 53.8931 77.4085 53.9851 77.8667 54.1021C78.325 54.2191 78.7474 54.3696 79.134 54.5535C79.5206 54.7374 79.8285 54.938 80.0576 55.1554C80.2007 55.2891 80.2437 55.4354 80.1864 55.5943C80.1292 55.7531 80.0719 55.8659 80.0146 55.9328C79.6423 56.4176 79.5278 56.9276 79.6709 57.4625C79.8141 57.9975 80.2294 58.4657 80.9167 58.8669C81.604 59.2682 82.4488 59.4897 83.4512 59.5315C84.4535 59.5733 85.3842 59.4771 86.2434 59.2431C86.4725 59.1595 86.7517 59.126 87.081 59.1428C87.4104 59.1595 87.6896 59.2347 87.9187 59.3685C88.3483 59.6025 88.7277 59.9578 89.0571 60.4343C89.3864 60.9108 89.6083 61.3914 89.7229 61.8762C89.7802 62.1605 89.7014 62.382 89.4866 62.5408C89.2719 62.6996 89.0499 62.8041 88.8208 62.8543C87.933 63.0382 87.1741 63.36 86.5441 63.8198C85.914 64.2795 85.599 64.802 85.599 65.3871C85.599 65.9556 85.8639 66.453 86.3937 66.8793C86.9235 67.3056 87.618 67.6107 88.4771 67.7946C88.6776 67.8615 88.8494 67.9284 88.9926 67.9952C89.3077 68.1457 89.5224 68.338 89.637 68.572ZM69.6619 70.829C70.9507 70.829 72.1678 70.6869 73.3133 70.4027C74.4588 70.1185 75.454 69.7256 76.2988 69.2241C77.1436 68.7225 77.8095 68.1415 78.2963 67.4811C78.7832 66.8208 79.0266 66.1144 79.0266 65.3621C79.0266 64.6097 78.7832 63.9034 78.2963 63.243C77.8095 62.5826 77.1436 62.0058 76.2988 61.5126C75.454 61.0194 74.4588 60.6307 73.3133 60.3465C72.1678 60.0623 70.9507 59.9202 69.6619 59.9202C68.3732 59.9202 67.1633 60.0623 66.0321 60.3465C64.9009 60.6307 63.9128 61.0194 63.068 61.5126C62.2232 62.0058 61.5574 62.5826 61.0705 63.243C60.5837 63.9034 60.3402 64.6097 60.3402 65.3621C60.3402 66.1144 60.5837 66.8208 61.0705 67.4811C61.5574 68.1415 62.2232 68.7225 63.068 69.2241C63.9128 69.7256 64.9009 70.1185 66.0321 70.4027C67.1633 70.6869 68.3732 70.829 69.6619 70.829Z" fill="#434343" stroke="black" stroke-width="0.8" mask="url(#path-14-inside-3_1703_51561)"/>
<path d="M16.8519 41.2558L43.8958 27.449C47.7584 25.9109 60.0063 18.6971 64.2849 16.6463C68.5635 14.5955 73.4542 15.7918 75.9054 16.6463C87.7905 23.3968 113.076 37.7694 119.137 41.2558C125.199 44.7421 123.445 48.8607 121.811 50.4843C108.961 59.2001 86.173 76.4883 79.5413 81.3297C74.5106 85.0022 67.1706 87.198 59.136 83.2969C46.5824 74.7519 21.7098 56.6366 15.2919 52.5351C8.874 48.4335 12.5135 43.0133 16.8519 41.2558Z" fill="#7D7DF4" fill-opacity="0.2" stroke="black"/>
<path fill-rule="evenodd" clip-rule="evenodd" d="M106.309 33.2942C110.194 32.9894 113.691 33.144 116.7 33.7635C121.265 34.7035 124.629 36.6939 126.591 39.6969C128.554 42.7 129.027 46.5795 128.056 51.1379C127.083 55.7014 124.676 60.8672 120.994 66.3159C113.633 77.2096 101.294 89.065 85.7035 99.2547C70.1129 109.444 54.3016 115.987 41.3695 118.357C34.9013 119.542 29.2035 119.673 24.6334 118.732C20.0685 117.792 16.705 115.802 14.7423 112.799C12.7796 109.796 12.3066 105.916 13.278 101.358C14.1087 97.4594 15.9868 93.1212 18.8119 88.5426L18.0876 87.813C11.7616 97.9813 9.88879 107.201 13.9052 113.346C22.5119 126.515 54.9021 120.58 86.2506 100.092C117.599 79.603 136.035 52.3184 127.428 39.1498C123.682 33.418 115.43 31.3053 104.719 32.4366L106.309 33.2942Z" fill="#BFFD3E"/>
<path d="M127.35 51.9041C129.743 37.8586 121.298 32.8206 107.134 32.5946C116.755 31.7549 125.094 34.1874 128.102 37.2171C130.368 39.4987 132.1 44.0518 129.797 52.2627C127.982 58.7344 120.495 68.7028 116.798 73.0647C116.502 73.4379 116.257 73.7205 116.078 73.898C116.297 73.65 116.538 73.3712 116.798 73.0647C119.412 69.7745 126.066 59.4384 127.35 51.9041Z" fill="#BFFD3E"/>
<path d="M24.6245 118.372C10.872 114.648 10.2389 104.431 15.9802 91.4803C11.1789 99.8602 9.31588 108.06 10.8029 112.062C11.9227 115.076 15.5035 119.387 23.9226 120.744C30.5584 121.813 42.749 119.203 48.2598 117.679C48.723 117.567 49.0822 117.463 49.3183 117.375C49.0013 117.47 48.647 117.572 48.2598 117.679C44.1762 118.67 32.0016 120.37 24.6245 118.372Z" fill="#BFFD3E"/>
<ellipse cx="112.072" cy="32.5191" rx="1.73119" ry="1.73119" transform="rotate(-44.7931 112.072 32.5191)" fill="#7D7DF4"/>
<ellipse cx="119.064" cy="34.0837" rx="1.23656" ry="1.23656" transform="rotate(-44.7931 119.064 34.0837)" fill="#00FF9B"/>
<circle cx="50.1677" cy="116.532" r="3.70969" transform="rotate(-44.7931 50.1677 116.532)" fill="#BFFD3E"/>
</g>
<defs>
<clipPath id="clip0_1703_51561">
<rect width="140" height="140" fill="white"/>
</clipPath>
</defs>
</svg>
