
<svg width="140" height="140" viewBox="0 0 140 140" fill="none" xmlns="http://www.w3.org/2000/svg">
<mask id="mask0_1703_51558" style="mask-type:alpha" maskUnits="userSpaceOnUse" x="0" y="0" width="140" height="140">
<rect width="140" height="140" fill="#D9D9D9"/>
</mask>
<g mask="url(#mask0_1703_51558)">
<path d="M27.5663 82.4707V82.4707C27.5662 81.5334 27.5642 80.6276 27.5623 79.7519C27.55 74.0937 27.5405 69.6886 28.0463 66.1141C28.626 62.0168 29.8754 59.0795 32.5421 56.6627C35.2356 54.2215 39.4188 52.2698 45.9699 50.2673C52.4895 48.2743 61.2878 46.2493 73.1765 43.6249C83.5808 46.726 91.6373 48.5885 97.8645 50.0281C98.5127 50.1779 99.1411 50.3232 99.7503 50.4648C106.266 51.9794 110.496 53.0605 113.293 54.8046C114.673 55.665 115.694 56.6825 116.46 57.9936C117.23 59.3116 117.756 60.9497 118.11 63.0701C118.822 67.3297 118.824 73.4015 118.824 82.4707C118.824 88.7461 113.874 94.5534 105.584 98.8216C97.321 103.077 85.8705 105.723 73.1952 105.723C60.52 105.723 49.0694 103.077 40.8061 98.8216C32.5168 94.5534 27.5663 88.7461 27.5663 82.4707Z" fill="#7D7DF4" stroke="black"/>
<path d="M118.818 71.6113C118.096 77.8703 113.099 83.6943 105.008 87.9722C96.9329 92.2422 85.8588 94.9209 73.186 94.9209C60.5131 94.9209 49.4236 92.2448 41.3407 87.9761C33.2424 83.6992 28.247 77.8759 27.5541 71.6136C27.0039 66.6421 27.763 62.3285 29.6415 58.6496C31.5208 54.969 34.5363 51.8931 38.546 49.4247C46.5784 44.4797 58.5625 41.9974 73.186 41.9974C89.8659 41.9974 101.761 45.3591 109.232 50.731C116.678 56.0844 119.76 63.4516 118.818 71.6113Z" fill="#2BA16A" stroke="black"/>
<path d="M118.812 59.7284C118.812 62.1928 117.609 64.5866 115.338 66.8127C113.064 69.0405 109.748 71.0698 105.61 72.7847C97.3368 76.2136 85.8725 78.3461 73.1836 78.3461C60.4947 78.3461 49.0304 76.2136 40.757 72.7847C36.6191 71.0698 33.3033 69.0405 31.0297 66.8127C28.7577 64.5866 27.5547 62.1928 27.5547 59.7284C27.5547 57.264 28.7577 54.8702 31.0297 52.6441C33.3033 50.4162 36.6191 48.387 40.757 46.6721C49.0304 43.2432 60.4947 41.1107 73.1836 41.1107C85.8725 41.1107 97.3368 43.2432 105.61 46.6721C109.748 48.387 113.064 50.4162 115.338 52.6441C117.609 54.8702 118.812 57.264 118.812 59.7284Z" fill="#00FF9B" stroke="black"/>
<path d="M118.812 61.1688C118.812 63.8451 117.598 66.432 115.325 68.8268C113.05 71.2241 109.734 73.4058 105.598 75.2489C97.3282 78.9345 85.8684 81.2269 73.1836 81.2269C60.4988 81.2269 49.039 78.9345 40.7691 75.2489C36.6335 73.4058 33.3176 71.2241 31.0424 68.8268C28.7696 66.432 27.5547 63.8451 27.5547 61.1688C27.5547 58.4926 28.7696 55.9056 31.0424 53.5109C33.3176 51.1135 36.6335 48.9318 40.7691 47.0887C49.039 43.4031 60.4988 41.1107 73.1836 41.1107C85.8684 41.1107 97.3282 43.4031 105.598 47.0887C109.734 48.9318 113.05 51.1135 115.325 53.5109C117.598 55.9056 118.812 58.4926 118.812 61.1688Z" fill="#00FF9B" stroke="black"/>
<path d="M110.77 61.3241C110.77 63.2765 109.802 65.1844 107.95 66.9704C106.097 68.7576 103.39 70.3903 100.003 71.7719C93.2327 74.5343 83.8446 76.2543 73.4492 76.2543C63.0538 76.2543 53.6658 74.5343 46.8951 71.7719C43.5085 70.3903 40.8011 68.7576 38.9481 66.9704C37.0967 65.1844 36.1289 63.2765 36.1289 61.3241C36.1289 59.3717 37.0967 57.4638 38.9481 55.6778C40.8011 53.8905 43.5085 52.2579 46.8951 50.8763C53.6658 48.1139 63.0538 46.3939 73.4492 46.3939C83.8446 46.3939 93.2327 48.1139 100.003 50.8763C103.39 52.2579 106.097 53.8905 107.95 55.6778C109.802 57.4638 110.77 59.3717 110.77 61.3241Z" fill="#00FF9B" stroke="black"/>
<mask id="mask1_1703_51558" style="mask-type:luminance" maskUnits="userSpaceOnUse" x="53" y="52" width="43" height="15">
<path d="M95.4102 52.1879H53.6172V66.434H95.4102V52.1879Z" fill="white"/>
</mask>
<g mask="url(#mask1_1703_51558)">
<path d="M93.8728 62.0425C92.5767 61.4019 89.5325 60.605 88.066 58.9645C86.5592 57.2807 87.258 55.7449 87.258 54.7144C87.258 53.3255 85.2056 52.1987 82.6746 52.1987C80.1435 52.1987 78.0911 53.3255 78.0911 54.7144C78.0911 55.5779 77.9073 57.8473 77.3904 59.0258C77.2334 59.3831 77.0017 59.5744 76.8275 59.7086C76.1593 60.2244 74.2524 60.8195 72.3455 60.0997C71.8056 59.9042 71.3308 59.5575 71.0991 59.1315C70.609 58.2267 71.1566 55.6033 70.9479 54.4702C70.946 54.4607 70.944 54.4512 70.9421 54.4417C70.9077 54.2651 70.8541 54.1108 70.7717 53.9829C70.2012 52.9502 68.4532 52.1987 66.3855 52.1987C63.8544 52.1987 61.802 53.3255 61.802 54.7144C61.802 55.4595 62.3917 56.1286 63.3317 56.5895C64.6279 57.23 67.672 58.027 69.1386 59.6674C70.6434 61.3512 69.9446 62.887 69.9446 63.9176C69.9446 65.3064 71.997 66.4332 74.5281 66.4332C76.4465 66.4332 78.0911 65.7853 78.7727 64.8657C79.8621 63.5001 78.0892 61.1028 79.6304 59.3154C79.9329 58.9645 80.2699 58.7869 80.6107 58.6168C81.321 58.2648 83.5591 57.8705 85.1635 58.9254C85.5713 59.2245 85.6862 59.455 85.7838 59.6833C86.1935 60.6525 85.8202 63.7157 86.4309 64.6511C87.0034 65.6817 88.7495 66.4311 90.8134 66.4311C93.3444 66.4311 95.3968 65.3043 95.3968 63.9155C95.3968 63.1703 94.8071 62.5012 93.8671 62.0404L93.8728 62.0425Z" fill="#434343"/>
<path d="M58.2468 66.4337C60.7778 66.4337 62.8303 65.308 62.8303 63.9181C62.8303 62.5282 60.7778 61.4025 58.2468 61.4025C55.7157 61.4025 53.6633 62.5282 53.6633 63.9181C53.6633 65.308 55.7157 66.4337 58.2468 66.4337Z" fill="#434343"/>
</g>
<path d="M100.046 42.6617C90.219 37.9175 72.6965 37.9695 65.1636 38.5885C59.1607 41.8518 51.0668 48.0662 66.7142 46.8166C82.3616 45.5669 95.4554 48.6502 100.046 50.3481V42.6617Z" fill="#2BA16A"/>
<path d="M100.046 42.6617C90.219 37.9175 72.6965 37.9695 65.1636 38.5885C59.1607 41.8518 51.0668 48.0662 66.7142 46.8166C82.3616 45.5669 95.4554 48.6502 100.046 50.3481V42.6617ZM100.046 42.6617H100.272" stroke="black"/>
<path d="M61.8484 37.2148C62.8799 36.67 64.1649 36.1454 65.3855 35.7552C71.9152 34.5198 80.3365 34.6744 87.9745 35.7407C91.7957 36.2741 95.4086 37.0341 98.4778 37.9564C101.091 38.7415 103.285 39.6371 104.876 40.5957L100.511 42.3171C95.304 40.4193 81.2722 37.6727 67.6954 38.9399C64.2853 39.2582 62.1635 39.2506 60.9664 39.0551C60.3533 38.955 60.0688 38.8179 59.9624 38.7243C59.9472 38.7109 59.9388 38.7012 59.9344 38.6952C59.9359 38.6859 59.9406 38.6678 59.9539 38.6389C60.0168 38.5022 60.1974 38.2902 60.5471 38.0219C60.8834 37.7638 61.3282 37.4896 61.8484 37.2148ZM59.9301 38.6882C59.9302 38.6882 59.9307 38.689 59.9312 38.6906C59.9303 38.689 59.93 38.6882 59.9301 38.6882Z" fill="#00FF9B" stroke="black"/>
<path d="M100.148 49.5646V42.7279L105.457 41.3455V46.6029L100.148 49.5646Z" fill="#2BA16A" stroke="black"/>
<path d="M68.5326 36.2611V46.5347C49.4072 46.5347 41.1749 52.5332 38.9108 55.5324H35.2958C34.2662 52.5332 34.2183 45.1585 42.2636 39.6535C50.3089 34.1485 62.7694 35.1437 68.5326 36.2611Z" fill="#5740B1" stroke="black"/>
<path d="M29.2763 66.258C28.2888 64.3193 27.8406 62.2398 27.6845 61.0955L26.9393 51.1988L33.5417 57.8543L33.3784 70.3302C31.4875 69.6103 30.1748 68.0221 29.2763 66.258Z" fill="#5740B1" stroke="black"/>
<path d="M46.4276 58.9485L46.8046 69.4707L33.4568 70.42L33.7971 59.2152L46.4276 58.9485Z" fill="#7D7DF4" stroke="black"/>
<mask id="path-17-inside-1_1703_51558" fill="white">
<path fill-rule="evenodd" clip-rule="evenodd" d="M64.418 30.3419L69.0512 36.0088L68.8128 36.2334C50.5439 36.9333 36.3164 42.4669 36.3164 49.1895C36.3164 52.7734 40.36 56.0194 46.9038 58.3752V59.4177L33.7945 59.7039C28.984 56.6856 26.1836 53.0687 26.1836 49.1807C26.1836 39.7378 42.7028 31.8939 64.418 30.3419Z"/>
</mask>
<path fill-rule="evenodd" clip-rule="evenodd" d="M64.418 30.3419L69.0512 36.0088L68.8128 36.2334C50.5439 36.9333 36.3164 42.4669 36.3164 49.1895C36.3164 52.7734 40.36 56.0194 46.9038 58.3752V59.4177L33.7945 59.7039C28.984 56.6856 26.1836 53.0687 26.1836 49.1807C26.1836 39.7378 42.7028 31.8939 64.418 30.3419Z" fill="#7D7DF4"/>
<path d="M69.0512 36.0088L69.737 36.7365L70.4153 36.0973L69.8253 35.3758L69.0512 36.0088ZM64.418 30.3419L65.1922 29.709L64.8639 29.3075L64.3467 29.3445L64.418 30.3419ZM68.8128 36.2334L68.8511 37.2327L69.2258 37.2183L69.4986 36.9612L68.8128 36.2334ZM46.9038 58.3752H47.9038V57.6724L47.2425 57.4343L46.9038 58.3752ZM46.9038 59.4177L46.9256 60.4174L47.9038 60.3961V59.4177H46.9038ZM33.7945 59.7039L33.2631 60.5509L33.5168 60.7102L33.8164 60.7036L33.7945 59.7039ZM69.8253 35.3758L65.1922 29.709L63.6438 30.9749L68.277 36.6417L69.8253 35.3758ZM69.4986 36.9612L69.737 36.7365L68.3653 35.281L68.127 35.5057L69.4986 36.9612ZM68.7745 35.2341C59.5626 35.587 51.3202 37.1589 45.3458 39.5231C42.3621 40.7038 39.8923 42.1024 38.1515 43.6882C36.4107 45.2739 35.3164 47.1286 35.3164 49.1895H37.3164C37.3164 47.8891 38.0006 46.5311 39.4983 45.1667C40.9961 43.8023 43.225 42.5133 46.0817 41.3828C51.7884 39.1245 59.7941 37.5796 68.8511 37.2327L68.7745 35.2341ZM35.3164 49.1895C35.3164 51.3875 36.5593 53.3486 38.5087 55.005C40.4622 56.6649 43.2305 58.1156 46.5651 59.3161L47.2425 57.4343C44.0333 56.279 41.5079 54.9289 39.8037 53.4808C38.0953 52.0293 37.3164 50.5754 37.3164 49.1895H35.3164ZM47.9038 59.4177V58.3752H45.9038V59.4177H47.9038ZM33.8164 60.7036L46.9256 60.4174L46.882 58.4179L33.7727 58.7041L33.8164 60.7036ZM25.1836 49.1807C25.1836 53.5865 28.3472 57.4665 33.2631 60.5509L34.326 58.8568C29.6209 55.9046 27.1836 52.5509 27.1836 49.1807H25.1836ZM64.3467 29.3445C53.4017 30.1267 43.7098 32.4968 36.7195 35.9033C29.815 39.268 25.1836 43.8397 25.1836 49.1807H27.1836C27.1836 45.0788 30.8118 41.0071 37.5957 37.7012C44.2938 34.437 53.7192 32.1091 64.4893 31.3394L64.3467 29.3445Z" fill="black" mask="url(#path-17-inside-1_1703_51558)"/>
<path fill-rule="evenodd" clip-rule="evenodd" d="M27.0623 74.6716C23.0098 78.9348 19.5465 83.1949 16.7554 87.3256C12.838 93.1233 10.2737 98.6236 9.23752 103.486C8.20242 108.344 8.70457 112.488 10.8035 115.699C12.9024 118.911 16.4961 121.034 21.3609 122.036C26.2307 123.038 32.2978 122.898 39.1803 121.637C52.9411 119.116 69.7609 112.154 86.3435 101.316C102.926 90.4782 116.053 77.8669 123.886 66.2752C127.803 60.4775 130.367 54.9772 131.403 50.1143C132.439 45.2566 131.936 41.1128 129.838 37.9014C127.739 34.69 124.145 32.5669 119.28 31.5651C114.41 30.5623 108.343 30.7032 101.461 31.9642C97.4067 32.7069 93.0873 33.835 88.5866 35.334L86.3312 35.0501C107.153 27.711 124.56 27.9982 130.675 37.3543C139.826 51.3564 120.223 80.3679 86.8906 102.153C53.558 123.939 19.1178 130.249 9.9664 116.246C3.66427 106.604 10.9985 89.8434 27.0623 73.2265L27.0623 74.6716Z" fill="#BFFD3E"/>
<path d="M130.591 50.9158C133.136 35.9813 124.156 30.6245 109.096 30.3842C119.326 29.4914 128.193 32.0778 131.391 35.2993C133.8 37.7253 135.642 42.5665 133.193 51.2971C131.263 58.1784 123.302 68.7777 119.372 73.4157C119.056 73.8126 118.796 74.113 118.606 74.3018C118.839 74.0381 119.095 73.7416 119.372 73.4157C122.151 69.9173 129.226 58.927 130.591 50.9158Z" fill="#BFFD3E"/>
<path d="M21.364 121.591C6.74104 117.631 6.06794 106.767 12.1726 92.9971C7.06745 101.907 5.08648 110.627 6.66761 114.882C7.85832 118.086 11.6657 122.67 20.6177 124.113C27.6735 125.25 40.6356 122.474 46.4952 120.854C46.9878 120.734 47.3697 120.625 47.6208 120.531C47.2837 120.632 46.907 120.74 46.4952 120.854C42.1532 121.908 29.208 123.715 21.364 121.591Z" fill="#BFFD3E"/>
<circle cx="114.346" cy="30.3042" r="1.84076" transform="rotate(-44.7931 114.346 30.3042)" fill="#7D7DF4"/>
<circle cx="121.781" cy="31.9678" r="1.31483" transform="rotate(-44.7931 121.781 31.9678)" fill="#00FF9B"/>
<circle cx="48.5239" cy="119.635" r="3.94449" transform="rotate(-44.7931 48.5239 119.635)" fill="#BFFD3E"/>
</g>
</svg>
