
<svg width="140" height="140" viewBox="0 0 140 140" fill="none" xmlns="http://www.w3.org/2000/svg">
<mask id="mask0_1703_51560" style="mask-type:alpha" maskUnits="userSpaceOnUse" x="0" y="0" width="140" height="140">
<rect width="140" height="140" fill="#D9D9D9"/>
</mask>
<g mask="url(#mask0_1703_51560)">
<path d="M41.3164 45.7403H41.3288L41.3412 45.7397L86.8109 43.4842C89.887 43.3316 92.4889 45.7344 92.581 48.8129L94.1068 99.8033C94.18 102.249 92.6288 104.449 90.3006 105.201L49.8047 118.288C48.7422 118.632 47.6004 118.644 46.5311 118.322L34.9108 114.832C32.6482 114.152 31.0724 112.103 30.996 109.742L29.1093 51.4181C29.0088 48.3125 31.4992 45.7403 34.6064 45.7403H41.3164Z" fill="#2BA16A" stroke="black"/>
<path d="M37.7022 74.0531C37.4826 70.8739 40.0024 68.1742 43.1891 68.1742H89.051C91.9962 68.1742 94.4187 70.4943 94.5458 73.4367L95.734 100.931C95.8536 103.699 93.8953 106.124 91.164 106.59L46.5383 114.203C43.3299 114.75 40.3506 112.407 40.1264 109.16L37.7022 74.0531Z" fill="#00FF9B" stroke="black"/>
<path d="M35.9276 33.139C35.816 30.5641 37.5074 28.2571 39.9965 27.5889L46.5934 25.818C47.0585 25.6931 47.5379 25.6299 48.0194 25.6299H93.8491C96.8358 25.6299 99.2766 28.0134 99.3475 30.9993L100.946 98.3022C101.004 100.729 99.4635 102.907 97.156 103.661L51.852 118.465C51.114 118.706 50.3333 118.788 49.5613 118.706L44.298 118.145C41.5919 117.857 39.5035 115.633 39.3856 112.914L35.9276 33.139Z" fill="#2BA16A" stroke="black"/>
<path d="M42.5668 31.3385C42.4485 28.2214 44.9435 25.6299 48.0629 25.6299H100.252C103.238 25.6299 105.679 28.0134 105.75 30.9993L107.347 98.2325C107.406 100.69 105.826 102.887 103.479 103.616L52.8415 119.333C49.385 120.405 45.8524 117.905 45.7151 114.288L42.5668 31.3385Z" fill="#7D7DF4" stroke="black"/>
<path d="M46.7802 35.6062C46.6647 32.4908 49.1589 29.9023 52.2764 29.9023H97.1779C100.166 29.9023 102.607 32.2877 102.676 35.2747L104.071 95.3501C104.127 97.7927 102.566 99.9799 100.237 100.72L56.6825 114.555C53.2169 115.656 49.6559 113.151 49.5211 109.517L46.7802 35.6062Z" fill="#00FF9B" stroke="black"/>
<path d="M97.0086 64.7275H97.0298L97.051 64.7257C101.243 64.3686 104.231 64.8235 106.366 65.8491C108.484 66.8665 109.809 68.4676 110.643 70.5107C111.485 72.5709 111.825 75.0788 111.95 77.8844C112.037 79.8412 112.018 81.9104 111.999 84.0506C111.99 84.9829 111.982 85.9287 111.982 86.8846C111.982 87.6369 111.986 88.3782 111.99 89.1076C112.002 91.4278 112.014 93.6272 111.896 95.6751C111.742 98.3642 111.366 100.736 110.504 102.705C109.648 104.659 108.308 106.227 106.191 107.317C104.059 108.414 101.108 109.042 97.0086 109.042C92.9493 109.042 89.2182 106.633 86.4802 102.624C83.7438 98.6168 82.0353 93.0537 82.0353 86.8846C82.0353 80.7154 83.7438 75.1524 86.4802 71.1456C89.2182 67.1364 92.9493 64.7275 97.0086 64.7275Z" fill="#2BA16A" stroke="black"/>
<path d="M116.327 86.8838C116.327 93.053 114.619 98.616 111.882 102.623C109.144 106.632 105.413 109.041 101.354 109.041C97.2948 109.041 93.5637 106.632 90.8257 102.623C88.0893 98.616 86.3807 93.053 86.3807 86.8838C86.3807 80.7147 88.0893 75.1516 90.8257 71.1449C93.5637 67.1357 97.2948 64.7268 101.354 64.7268C105.413 64.7268 109.144 67.1357 111.882 71.1449C114.619 75.1516 116.327 80.7147 116.327 86.8838Z" fill="#7D7DF4" stroke="black"/>
<path d="M113.566 86.8841C113.566 91.9379 112.167 96.4912 109.929 99.767C107.69 103.045 104.649 105.002 101.351 105.002C98.0539 105.002 95.0124 103.045 92.7735 99.767C90.5363 96.4912 89.1365 91.9379 89.1365 86.8841C89.1365 81.8302 90.5363 77.2769 92.7735 74.0011C95.0124 70.7228 98.0539 68.766 101.351 68.766C104.649 68.766 107.69 70.7228 109.929 74.0011C112.167 77.2769 113.566 81.8302 113.566 86.8841Z" fill="#00FF9B" stroke="black"/>
<path d="M99.1401 77.0763V79.9921C97.5497 81.3174 96.4894 83.9681 96.4894 86.8838C96.4894 91.2574 98.875 94.8358 101.791 94.8358C104.706 94.8358 107.092 91.2574 107.092 86.8838C107.092 83.9681 106.032 81.3174 104.441 79.9921V77.0763C107.004 78.6667 108.859 82.5102 108.859 86.8838C108.859 92.7153 105.678 97.4865 101.791 97.4865C97.9031 97.4865 94.7223 92.7153 94.7223 86.8838C94.7223 82.3777 96.5778 78.6667 99.1401 77.0763ZM100.907 76.2811H102.674V82.9078H100.907V76.2811Z" fill="#434343"/>
<ellipse cx="57.1482" cy="69.0284" rx="3.16838" ry="4.38293" fill="#434343"/>
<path d="M57.1417 69.8402L61.6368 45.1129L78.8469 62.2416L92.6864 48.7657" stroke="#434343"/>
<ellipse cx="60.9556" cy="45.437" rx="3.16838" ry="4.38293" fill="#434343"/>
<ellipse cx="92.503" cy="48.5128" rx="3.16838" ry="4.38293" fill="#434343"/>
<ellipse cx="78.0455" cy="60.5128" rx="3.16838" ry="4.38293" fill="#434343"/>
<path d="M62.7883 88.6655C62.7549 88.0108 63.1506 87.4102 63.7653 87.1825L66.302 86.2427C66.3853 86.2119 66.4715 86.1894 66.5593 86.1758C67.3342 86.0554 68.044 86.6293 68.0885 87.4122L69.1878 106.749C69.2274 107.447 68.7794 108.08 68.1078 108.275L68.0455 108.293L68.1846 108.773L68.0455 108.293C67.9097 108.332 67.7692 108.352 67.6279 108.352H65.2186C64.4198 108.352 63.7612 107.726 63.7205 106.929L62.7883 88.6655Z" fill="#5740B1" stroke="black"/>
<path d="M65.2952 87.7024C65.2588 86.929 65.817 86.2551 66.5836 86.1467L68.7188 85.845C69.5847 85.7227 70.3712 86.3639 70.4258 87.2367L71.5834 105.761C71.6232 106.397 71.2568 106.988 70.6697 107.236L68.2808 108.245C67.3196 108.65 66.248 107.975 66.199 106.933L65.2952 87.7024Z" fill="#7D7DF4" stroke="black"/>
<path d="M53.8447 97.3205C53.8217 96.6097 54.301 95.9804 54.9924 95.8137L56.857 95.3641L56.9556 95.3535C57.7947 95.2625 58.5437 95.8816 58.6123 96.7229L59.6104 108.97C59.6691 109.69 59.18 110.34 58.472 110.483C58.379 110.502 58.2844 110.512 58.1895 110.512H55.7246C54.9151 110.512 54.2516 109.869 54.2254 109.06L53.8447 97.3205Z" fill="#2BA16A" stroke="black"/>
<path d="M56.1316 96.7361C56.0943 95.9133 56.7274 95.2143 57.5498 95.1703L59.7273 95.0537C60.5491 95.0097 61.2529 95.6361 61.3045 96.4575L62.0467 108.266C62.0906 108.965 61.6451 109.601 60.9733 109.799L58.6152 110.493C57.6814 110.768 56.7371 110.095 56.693 109.122L56.1316 96.7361Z" fill="#00FF9B" stroke="black"/>
<path fill-rule="evenodd" clip-rule="evenodd" d="M104.975 27.4082C110.417 26.6889 115.257 26.7368 119.28 27.5652C124.145 28.5669 127.739 30.6901 129.837 33.9015C131.936 37.1129 132.438 41.2567 131.403 46.1144C130.367 50.9773 127.803 56.4776 123.885 62.2753C116.053 73.8669 102.926 86.4783 86.3435 97.3164C69.7608 108.154 52.941 115.116 39.1803 117.637C32.2977 118.898 26.2307 119.039 21.3608 118.036C16.4961 117.034 12.9023 114.911 10.8034 111.699C8.70449 108.488 8.20234 104.344 9.23745 99.4865C10.2737 94.6237 12.8379 89.1233 16.7554 83.3256C20.0169 78.4986 24.1966 73.4948 29.1617 68.5158L29.1223 67.1439C11.6354 84.4297 3.40073 102.201 9.96632 112.247C19.1178 126.249 53.5579 119.939 86.8906 98.1534C120.223 76.368 139.826 47.3565 130.675 33.3544C126.414 26.8362 116.674 24.7197 104.116 26.517C104.205 26.5869 104.327 26.6933 104.483 26.8527C104.649 27.0225 104.828 27.2297 104.975 27.4082Z" fill="#BFFD3E"/>
<path d="M130.591 46.9159C133.136 31.9814 125.505 26.6855 110.444 26.4452C120.674 25.5524 128.193 28.0779 131.391 31.2994C133.8 33.7254 135.642 38.5666 133.193 47.2972C131.263 54.1785 123.302 64.7779 119.372 69.4158C119.056 69.8127 118.796 70.1131 118.606 70.3019C118.839 70.0382 119.095 69.7417 119.372 69.4158C122.151 65.9174 129.226 54.9271 130.591 46.9159Z" fill="#BFFD3E"/>
<path d="M21.364 117.591C6.74104 113.631 6.06794 102.767 12.1726 88.9971C7.06745 97.9074 5.08648 106.627 6.66761 110.882C7.85832 114.086 11.6657 118.67 20.6177 120.113C27.6735 121.25 40.6356 118.474 46.4952 116.854C46.9878 116.734 47.3697 116.625 47.6208 116.531C47.2837 116.632 46.907 116.74 46.4952 116.854C42.1532 117.908 29.208 119.715 21.364 117.591Z" fill="#BFFD3E"/>
<circle cx="114.346" cy="26.3042" r="1.84076" transform="rotate(-44.7931 114.346 26.3042)" fill="#7D7DF4"/>
<circle cx="121.781" cy="27.9678" r="1.31483" transform="rotate(-44.7931 121.781 27.9678)" fill="#00FF9B"/>
<circle cx="48.524" cy="115.635" r="3.94449" transform="rotate(-44.7931 48.524 115.635)" fill="#BFFD3E"/>
</g>
</svg>
