
<svg width="1080" height="330" viewBox="0 0 1080 330" fill="none" xmlns="http://www.w3.org/2000/svg">
<mask id="mask0_1703_51191" style="mask-type:alpha" maskUnits="userSpaceOnUse" x="0" y="0" width="1080" height="330">
<rect width="1080" height="330" fill="#D9D9D9"/>
</mask>
<g mask="url(#mask0_1703_51191)">
<path d="M483.16 -49.4954H252.767L-184.386 -57.6387V329.946H912.834C947.779 329.946 944.906 274.675 915.935 274.675H785.453C741.424 274.675 744.423 223.296 785.453 223.296H833.629C865.409 223.296 865.409 174.402 833.629 174.402H1315.66C1267.42 174.402 1263.42 134.133 1308.87 134.133L1328.57 127.339C1386.2 127.339 1365.55 60.0811 1304.79 60.0811H1337.4C1293.14 60.0811 1276.46 14.5628 1321.77 14.5628L1394.89 -4.38944C1421.78 -4.38944 511.851 -49.4954 483.16 -49.4954Z" fill="url(#paint0_linear_1703_51191)"/>
<rect x="80.8105" y="78.6125" width="176.084" height="212.584" rx="18" fill="#6A51FF" stroke="black" stroke-width="2"/>
<path d="M579.74 54.1963C594.986 54.1963 610.007 54.4838 624.746 55.0417M572.023 265.702C560.115 265.626 548.352 265.375 536.761 264.956M587.456 265.702C588.329 265.697 589.2 265.69 590.071 265.683M521.949 264.326C521.146 264.287 520.344 264.247 519.543 264.206M511.856 263.787C496.183 262.879 480.878 261.662 466.015 260.159M455.601 259.051C454.524 258.931 453.449 258.809 452.377 258.686M442.05 257.441C429.347 255.84 417.023 254.024 405.127 252.008M395.9 250.389C293.72 231.834 225.475 198.277 225.475 159.962C225.475 129.593 268.345 102.214 337.003 82.9248M599.409 265.566C609.592 265.4 619.66 265.105 629.596 264.688M639.831 264.211C640.613 264.172 641.393 264.131 642.173 264.09M653.364 263.44C678.385 261.861 702.433 259.493 725.2 256.429M742.442 253.937C744.071 253.685 744.453 253.571 745.574 253.338M762.473 250.589C787.229 246.131 810.01 240.794 830.331 234.723M846.055 229.711C847.223 229.314 848.381 228.915 849.529 228.512M859.142 224.994C866.717 222.097 873.797 219.08 880.346 215.953M888.147 212.043C889.692 211.23 891.202 210.409 892.676 209.582M906.505 200.889C924.217 188.3 934.005 174.472 934.005 159.962C934.005 117.004 848.222 80.0278 725.008 63.4686M713.52 61.9972C712.459 61.868 711.395 61.7402 710.329 61.6139M702.327 60.6995C690.657 59.4145 678.698 58.3077 666.487 57.3902M636.987 55.5701C635.554 55.5006 634.118 55.4336 632.68 55.3693M553.272 54.487C551.756 54.5204 550.244 54.5567 548.734 54.5958M531.988 55.1489C499.882 56.4403 469.14 59.0157 440.361 62.6963M422.948 65.0927C420.737 65.4189 418.54 65.7519 416.356 66.0914M398.353 69.0924C382.855 71.8557 368.124 74.9623 354.276 78.3771" stroke="#AFA2FF"/>
<path d="M32.7926 208.911C30.946 197.769 39.6965 187.699 50.9867 187.973L164.966 190.736C174.734 190.973 182.529 198.96 182.529 208.731V229.748C182.529 239.8 174.298 247.904 164.247 247.746L53.9227 246.015C45.2251 245.879 37.8695 239.542 36.4472 230.961L32.7926 208.911Z" fill="#5942E3" stroke="black" stroke-width="2"/>
<path d="M36.6054 206.054C34.8163 195.1 43.2708 185.153 54.37 185.153H167.547C177.488 185.153 185.547 193.212 185.547 203.153V224.016C185.547 233.957 177.488 242.016 167.547 242.016H57.7773C48.956 242.016 41.4345 235.623 40.0127 226.917L36.6054 206.054Z" fill="#745EFF" stroke="black" stroke-width="2"/>
<path d="M54.0013 238.825C48.1559 239.06 45.3901 232.517 45.3901 229.74H107.296L109.068 238.825C93.1481 238.727 59.8467 238.591 54.0013 238.825Z" fill="#AFA2FF" stroke="black" stroke-width="2"/>
<path d="M47.501 226.388H64.7859C66.5765 226.388 67.9684 224.83 67.7668 223.05L67.2863 218.809C67.1144 217.293 65.8315 216.147 64.3053 216.147H47.0206C45.23 216.147 43.8382 217.706 44.0397 219.485L44.5201 223.726C44.6919 225.242 45.9748 226.388 47.501 226.388Z" fill="#AFA2FF" stroke="black" stroke-width="2"/>
<path d="M44.6461 212.795H61.9309C63.7215 212.795 65.1134 211.237 64.9118 209.458L64.4313 205.217C64.2595 203.7 62.9765 202.554 61.4504 202.554H44.1657C42.3751 202.554 40.9832 204.113 41.1847 205.892L41.6651 210.133C41.8369 211.649 43.1199 212.795 44.6461 212.795Z" fill="#AFA2FF" stroke="black" stroke-width="2"/>
<path d="M42.2313 199.201H60.0307C61.8214 199.201 63.2133 197.642 63.0117 195.863L62.5311 191.622C62.3593 190.105 61.0764 188.96 59.5502 188.96H47.0481C42.708 188.96 39.3344 192.737 39.8229 197.05C39.9617 198.275 40.9982 199.201 42.2313 199.201Z" fill="#AFA2FF" stroke="black" stroke-width="2"/>
<path d="M73.4053 226.388H87.781C89.5555 226.388 90.9423 224.856 90.7661 223.09L90.343 218.849C90.19 217.315 88.8993 216.147 87.3578 216.147H73.1843C71.4661 216.147 70.099 217.587 70.1884 219.303L70.4093 223.544C70.4924 225.138 71.8091 226.388 73.4053 226.388Z" fill="#AFA2FF" stroke="black" stroke-width="2"/>
<path d="M70.5527 212.795H84.9284C86.703 212.795 88.0898 211.263 87.9136 209.497L87.4905 205.257C87.3374 203.723 86.0468 202.554 84.5053 202.554H70.3318C68.6136 202.554 67.2464 203.995 67.3358 205.711L67.5568 209.951C67.6398 211.545 68.9565 212.795 70.5527 212.795Z" fill="#AFA2FF" stroke="black" stroke-width="2"/>
<path d="M68.6553 199.201H83.031C84.8055 199.201 86.1923 197.669 86.0161 195.903L85.593 191.662C85.44 190.128 84.1493 188.96 82.6078 188.96H68.4343C66.7161 188.96 65.349 190.4 65.4384 192.116L65.6593 196.357C65.7424 197.951 67.0591 199.201 68.6553 199.201Z" fill="#AFA2FF" stroke="black" stroke-width="2"/>
<path d="M96.4077 226.388H110.783C112.558 226.388 113.945 224.856 113.769 223.09L113.345 218.849C113.192 217.315 111.902 216.147 110.36 216.147H96.1867C94.4686 216.147 93.1014 217.587 93.1908 219.303L93.4118 223.544C93.4948 225.138 94.8115 226.388 96.4077 226.388Z" fill="#AFA2FF" stroke="black" stroke-width="2"/>
<path d="M93.5527 212.795H107.928C109.703 212.795 111.09 211.263 110.914 209.497L110.49 205.257C110.337 203.723 109.047 202.554 107.505 202.554H93.3318C91.6136 202.554 90.2464 203.995 90.3358 205.711L90.5568 209.951C90.6398 211.545 91.9565 212.795 93.5527 212.795Z" fill="#AFA2FF" stroke="black" stroke-width="2"/>
<path d="M91.6526 199.201H106.028C107.803 199.201 109.19 197.669 109.013 195.903L108.59 191.662C108.437 190.128 107.147 188.96 105.605 188.96H91.4316C89.7134 188.96 88.3463 190.4 88.4357 192.116L88.6566 196.357C88.7397 197.951 90.0564 199.201 91.6526 199.201Z" fill="#AFA2FF" stroke="black" stroke-width="2"/>
<path d="M116.126 291.383V276.058V272.745C171.213 272.607 279.791 273.153 277.66 278.543C274.268 287.127 268.817 291.383 262.749 291.383H143.401H116.126Z" fill="#5942E3"/>
<path d="M143.401 292.196V278.268M116.126 276.058V291.383H262.749C268.817 291.383 274.268 287.127 277.66 278.543C279.791 273.153 171.213 272.607 116.126 272.745V276.058Z" stroke="black" stroke-width="2"/>
<path d="M123.967 139.057C129.227 133.617 132.315 122.521 132.315 122.521L135.784 263.851L142.112 278.373C136.59 278.063 123.757 277.331 116.608 276.884C109.458 276.437 109.223 270.606 109.221 267.146V262.377V146.995C109.221 146.995 119.058 144.134 123.967 139.057Z" fill="#5942E3"/>
<path d="M109.221 262.377V146.995C109.221 146.995 119.058 144.134 123.967 139.057C129.227 133.617 132.315 122.521 132.315 122.521L135.784 263.851M109.221 262.377L135.784 263.851M109.221 262.377V267.146C109.223 270.606 109.458 276.437 116.608 276.884C123.757 277.331 136.59 278.063 142.112 278.373L135.784 263.851" stroke="black" stroke-width="2"/>
<rect x="-1.5" y="1.5" width="186.375" height="225.272" rx="17.5" transform="matrix(-1 0 0 1 1026.08 27.0366)" fill="#6A51FF" stroke="black" stroke-width="3"/>
<path d="M131.684 132.085C131.684 122.144 139.742 114.085 149.684 114.085H261.005C270.946 114.085 279.005 122.144 279.005 132.085V264.156C279.005 271.861 272.759 278.106 265.054 278.106H145.634C137.929 278.106 131.684 271.861 131.684 264.156V132.085Z" fill="#5942E3" stroke="black" stroke-width="2"/>
<path d="M137.713 132.085C137.713 122.144 145.772 114.085 155.713 114.085H267.034C276.975 114.085 285.034 122.144 285.034 132.085V264.156C285.034 271.861 278.788 278.106 271.084 278.106H151.663C143.959 278.106 137.713 271.861 137.713 264.156V132.085Z" fill="#745EFF" stroke="black" stroke-width="2"/>
<path d="M147.158 140.007C147.158 130.066 155.217 122.007 165.158 122.007H261.001C270.942 122.007 279.001 130.066 279.001 140.007V243.215C279.001 249.342 274.034 254.309 267.907 254.309H158.252C152.125 254.309 147.158 249.342 147.158 243.215V140.007Z" fill="#AFA2FF" stroke="black" stroke-width="2"/>
<path d="M992.127 74.4834C992.127 64.8184 984.292 56.9834 974.627 56.9834H813.709C804.044 56.9834 796.209 64.8184 796.209 74.4834V186.649C796.209 192.989 801.349 198.13 807.689 198.13H980.646C986.987 198.13 992.127 192.989 992.127 186.649V74.4834Z" fill="#5942E3" stroke="black" stroke-width="3"/>
<path d="M987.65 74.4834C987.65 64.8184 979.815 56.9834 970.15 56.9834H809.232C799.567 56.9834 791.732 64.8184 791.732 74.4834V182.637C791.732 188.758 796.694 193.72 802.816 193.72H976.567C982.688 193.72 987.65 188.758 987.65 182.637V74.4834Z" fill="#AFA2FF" stroke="black" stroke-width="3"/>
<path d="M967.164 218.343V194.819H962.693C962.526 202.995 962.694 213.456 962.694 218.343C962.694 229.657 972.262 229.527 975.542 229.657H1001.93C1011.62 229.657 1013.57 222.247 1013.8 218.343V196.064H1009.67C1009.82 201.13 1010.04 212.678 1009.67 218.343C1009.3 224.008 1004.57 225.637 1001.93 225.743C996.431 225.905 983.461 226.131 975.542 225.743C968.245 225.385 967.164 221.478 967.164 218.343Z" fill="#AFA2FF" stroke="black" stroke-width="2"/>
<path d="M151.159 270.982C151.159 272.086 150.263 272.982 149.158 272.982C148.054 272.982 147.158 272.086 147.158 270.982C147.158 269.877 148.054 268.981 149.158 268.981C150.263 268.981 151.159 269.877 151.159 270.982Z" fill="#6951FF" stroke="black" stroke-width="2"/>
<path d="M150.62 287.333V282.129H222.473V287.333H150.62Z" stroke="black" stroke-width="2"/>
<path d="M150.62 287.333V282.129H209.392V287.333H150.62Z" stroke="black" stroke-width="2"/>
<path d="M157.235 298.028C157.106 291.188 151.924 284.798 151.924 284.798H208.378C212.379 286.476 214.778 294.317 215.477 298.028H157.235Z" fill="#AFA2FF" stroke="black" stroke-width="2"/>
<path d="M783.23 130.981C785.552 128.216 790.34 127.192 790.34 127.192V141.592C790.34 141.592 782.508 142.505 783.23 148.247C785.531 152.509 790.475 154.588 794.41 155.593C797.513 156.386 800.046 159.033 800.046 162.236V175.802C800.046 179.116 797.31 181.92 794.096 181.112C781.319 177.898 780.441 164.565 780.441 164.565V139.507C780.408 138.957 780.407 138.409 780.441 137.864C780.592 135.465 781.428 133.126 783.23 130.981Z" fill="#387659" fill-opacity="0.5"/>
<path d="M780.441 137.864C780.592 135.465 781.428 133.126 783.23 130.981C785.552 128.216 790.34 127.192 790.34 127.192V141.592C790.34 141.592 782.508 142.505 783.23 148.247M780.441 137.864V164.565C780.441 164.565 781.319 177.898 794.096 181.112C797.31 181.92 800.046 179.116 800.046 175.802V162.236C800.046 159.033 797.513 156.386 794.41 155.593C790.475 154.588 785.531 152.509 783.23 148.247M780.441 137.864C780.223 141.329 781.435 144.921 783.23 148.247" stroke="black"/>
<path opacity="0.4" d="M800.046 162.236V175.802C800.046 179.116 797.31 181.92 794.096 181.112C781.319 177.898 780.441 164.565 780.441 164.565V139.507C780.408 138.957 780.407 138.409 780.441 137.864V139.507C780.619 142.452 781.717 145.445 783.23 148.247C785.531 152.51 790.475 154.588 794.41 155.594C797.513 156.386 800.046 159.033 800.046 162.236Z" fill="#23FFA3" stroke="black"/>
<path d="M213.242 288.408L213.242 282.461H219.261V288.408C217.304 290.116 214.433 289.12 213.242 288.408Z" fill="#EBFF00" stroke="black" stroke-width="2"/>
<path fill-rule="evenodd" clip-rule="evenodd" d="M163.691 289.562H161.829V291.501H163.691V289.562ZM187.419 289.562H185.558V291.501H187.419V289.562ZM173.695 289.562H175.556V291.501H173.695V289.562ZM199.285 289.562H197.423V291.501H199.285V289.562ZM165.786 289.562H167.648V291.501H165.786V289.562ZM191.374 289.562H189.512V291.501H191.374V289.562ZM177.649 289.562H179.511V291.501H177.649V289.562ZM203.239 289.562H201.378V291.501H203.239V289.562ZM169.738 289.562H171.6V291.501H169.738V289.562ZM195.333 289.562H193.471V291.501H195.333V289.562ZM181.603 289.562H183.465V291.501H181.603V289.562ZM207.196 289.562H205.334V291.501H207.196V289.562Z" fill="#383838"/>
<path d="M125.703 222.916C125.703 229.01 124.572 234.479 122.786 238.387C120.96 242.384 118.64 244.384 116.435 244.384C114.231 244.384 111.911 242.384 110.085 238.387C108.299 234.479 107.168 229.01 107.168 222.916C107.168 216.821 108.299 211.352 110.085 207.444C111.911 203.448 114.231 201.448 116.435 201.448C118.64 201.448 120.96 203.448 122.786 207.444C124.572 211.352 125.703 216.821 125.703 222.916Z" fill="#5942E3" stroke="black" stroke-width="2"/>
<path d="M121.837 222.916C121.837 229.027 120.859 234.514 119.312 238.436C118.538 240.4 117.641 241.922 116.696 242.936C115.752 243.949 114.833 244.384 113.98 244.384C113.126 244.384 112.207 243.949 111.263 242.936C110.318 241.922 109.421 240.4 108.647 238.436C107.1 234.514 106.122 229.027 106.122 222.916C106.122 216.805 107.1 211.318 108.647 207.395C109.421 205.431 110.318 203.909 111.263 202.895C112.207 201.883 113.126 201.448 113.98 201.448C114.833 201.448 115.752 201.883 116.696 202.895C117.641 203.909 118.538 205.431 119.312 207.395C120.859 211.318 121.837 216.805 121.837 222.916Z" fill="#745EFF" stroke="black" stroke-width="2"/>
<path d="M114.937 255.309C114.937 256.324 114.623 257.224 114.14 257.859C113.656 258.494 113.025 258.843 112.367 258.843C111.708 258.843 111.077 258.494 110.594 257.859C110.11 257.224 109.797 256.324 109.797 255.309C109.797 254.295 110.11 253.395 110.594 252.759C111.077 252.124 111.708 251.775 112.367 251.775C113.025 251.775 113.656 252.124 114.14 252.759C114.623 253.395 114.937 254.295 114.937 255.309Z" fill="#5942E3" stroke="black"/>
<path d="M121.703 255.309C121.703 256.324 121.39 257.224 120.906 257.859C120.423 258.494 119.791 258.843 119.133 258.843C118.475 258.843 117.844 258.494 117.36 257.859C116.877 257.224 116.563 256.324 116.563 255.309C116.563 254.295 116.877 253.395 117.36 252.759C117.844 252.124 118.475 251.775 119.133 251.775C119.791 251.775 120.423 252.124 120.906 252.759C121.39 253.395 121.703 254.295 121.703 255.309Z" fill="#5942E3" stroke="black"/>
<path d="M129.323 255.309C129.323 256.324 129.01 257.224 128.526 257.859C128.043 258.494 127.411 258.843 126.753 258.843C126.095 258.843 125.463 258.494 124.98 257.859C124.497 257.224 124.183 256.324 124.183 255.309C124.183 254.295 124.497 253.395 124.98 252.759C125.463 252.124 126.095 251.775 126.753 251.775C127.411 251.775 128.043 252.124 128.526 252.759C129.01 253.395 129.323 254.295 129.323 255.309Z" fill="#5942E3" stroke="black"/>
<path d="M113.23 255.309C113.23 256.324 112.916 257.224 112.433 257.859C111.95 258.494 111.318 258.843 110.66 258.843C110.002 258.843 109.37 258.494 108.887 257.859C108.403 257.224 108.09 256.324 108.09 255.309C108.09 254.295 108.403 253.395 108.887 252.759C109.37 252.124 110.002 251.775 110.66 251.775C111.318 251.775 111.95 252.124 112.433 252.759C112.916 253.395 113.23 254.295 113.23 255.309Z" fill="#745EFF" stroke="black"/>
<path d="M119.999 255.309C119.999 256.324 119.686 257.224 119.202 257.859C118.719 258.494 118.087 258.843 117.429 258.843C116.771 258.843 116.139 258.494 115.656 257.859C115.173 257.224 114.859 256.324 114.859 255.309C114.859 254.295 115.173 253.395 115.656 252.759C116.139 252.124 116.771 251.775 117.429 251.775C118.087 251.775 118.719 252.124 119.202 252.759C119.686 253.395 119.999 254.295 119.999 255.309Z" fill="#745EFF" stroke="black"/>
<path d="M127.619 255.309C127.619 256.324 127.306 257.224 126.822 257.859C126.339 258.494 125.707 258.843 125.049 258.843C124.391 258.843 123.759 258.494 123.276 257.859C122.793 257.224 122.479 256.324 122.479 255.309C122.479 254.295 122.793 253.395 123.276 252.759C123.759 252.124 124.391 251.775 125.049 251.775C125.707 251.775 126.339 252.124 126.822 252.759C127.306 253.395 127.619 254.295 127.619 255.309Z" fill="#745EFF" stroke="black"/>
<path d="M120.308 145.162C119.308 146.33 114.332 148.012 111.969 148.706V152.876L120.308 151.417V145.162Z" stroke="black" stroke-width="2"/>
<path d="M120.27 151.373L123.255 150.991V139.779C123.255 139.779 123.226 141.978 119.601 145.84M111.673 148.753C111.955 148.462 113.346 146.646 113.636 145.28" stroke="black" stroke-width="2"/>
<path d="M115.172 102.527L116.117 146.983L117.218 146.632L115.172 102.527Z" fill="#5942E3" stroke="black"/>
<path d="M56.8891 266.041C57.6845 262.988 61.0634 261.468 64.1636 262.767L108.661 281.416C111.048 282.416 112.558 284.82 112.333 287.262L112.248 288.176C112.033 290.51 110.28 292.329 107.915 292.673L65.7808 298.805C62.5739 299.272 59.4487 296.904 59.045 293.702L56.1189 270.491C56.035 269.825 56.0766 269.159 56.2417 268.525L56.8891 266.041Z" fill="#5942E3" stroke="black"/>
<path d="M57.6887 266.205C57.2402 263.189 59.3813 260.576 62.4518 260.392L95.0538 258.436C97.2652 258.303 99.4412 259.481 100.582 261.429L111.269 279.667C113.215 282.988 111.381 286.959 107.662 287.476L67.6215 293.04C64.4717 293.478 61.4036 291.188 60.9372 288.051L57.6887 266.205Z" fill="#745EFF" stroke="black"/>
<path d="M102.068 274.074C102.068 276.852 100.095 279.465 96.6921 281.411C93.3035 283.349 88.5887 284.563 83.3538 284.563C78.1188 284.563 73.4041 283.349 70.0154 281.411C66.6127 279.465 64.6394 276.852 64.6394 274.074C64.6394 271.297 66.6127 268.684 70.0154 266.738C73.4041 264.8 78.1188 263.585 83.3538 263.585C88.5887 263.585 93.3035 264.8 96.6921 266.738C100.095 268.684 102.068 271.297 102.068 274.074Z" fill="#332E63" stroke="black"/>
<path d="M62.2299 257.65C63.0254 254.598 66.4042 253.077 69.5044 254.376L114.001 273.025C116.389 274.026 117.899 276.429 117.673 278.871L117.589 279.786C117.373 282.12 115.621 283.938 113.255 284.283L71.1216 290.415C67.9147 290.881 64.7895 288.514 64.3858 285.311L61.4597 262.1C61.3758 261.434 61.4174 260.768 61.5825 260.134L62.2299 257.65Z" fill="#5942E3" stroke="black"/>
<path d="M63.0295 257.814C62.581 254.798 64.7221 252.185 67.7926 252.001L100.395 250.045C102.606 249.912 104.782 251.09 105.923 253.038L116.61 271.277C118.556 274.598 116.721 278.569 113.002 279.086L72.9623 284.649C69.8125 285.087 66.7445 282.797 66.278 279.66L63.0295 257.814Z" fill="#745EFF" stroke="black"/>
<path d="M88.6942 279.108C88.3842 278.928 87.6867 278.744 87.2966 278.233C86.8958 277.707 86.9818 277.17 86.9374 276.823C86.8775 276.355 86.3819 276.033 85.8305 276.103C85.2791 276.174 84.8806 276.611 84.9405 277.079C84.9777 277.37 85.0355 278.139 84.9737 278.551C84.9549 278.676 84.9127 278.746 84.8805 278.797C84.7572 278.989 84.3674 279.243 83.921 279.053C83.795 279.002 83.6766 278.899 83.6078 278.762C83.462 278.471 83.4682 277.571 83.3739 277.195C83.3731 277.192 83.3722 277.189 83.3714 277.186C83.3563 277.128 83.338 277.077 83.3145 277.036C83.1457 276.704 82.7326 276.5 82.2821 276.557C81.7308 276.628 81.3323 277.065 81.3921 277.533C81.4242 277.784 81.5815 277.993 81.8062 278.122C82.1161 278.301 82.8136 278.485 83.2038 278.997C83.6042 279.522 83.5181 280.059 83.5626 280.406C83.6224 280.874 84.1181 281.197 84.6694 281.126C85.0873 281.073 85.4177 280.809 85.5265 280.48C85.705 279.989 85.2154 279.231 85.4741 278.586C85.5249 278.459 85.5906 278.39 85.6575 278.323C85.7971 278.185 86.2677 277.99 86.6626 278.3C86.7643 278.39 86.7993 278.464 86.8304 278.538C86.9614 278.854 87.0121 279.896 87.1855 280.194C87.3546 280.525 87.7673 280.729 88.2169 280.672C88.7682 280.601 89.1668 280.164 89.1069 279.696C89.0748 279.445 88.9175 279.236 88.6928 279.107L88.6942 279.108Z" fill="#332E63"/>
<path d="M81.1233 281.582C81.6746 281.511 82.0732 281.075 82.0133 280.606C81.9534 280.138 81.4578 279.816 80.9064 279.886C80.3551 279.957 79.9565 280.393 80.0164 280.862C80.0763 281.33 80.5719 281.652 81.1233 281.582Z" fill="#332E63"/>
<path fill-rule="evenodd" clip-rule="evenodd" d="M94.8369 276.169L94.1353 276.259C94.0992 276.264 94.0718 276.289 94.0691 276.319L92.7976 277.892C92.7692 277.927 92.7125 277.934 92.6757 277.908L91.0142 276.7C91.0108 276.698 91.0075 276.696 91.0045 276.695C90.9894 276.677 90.9634 276.667 90.9354 276.67L90.2339 276.76C90.193 276.765 90.1635 276.797 90.1679 276.832L90.6121 280.304C90.6165 280.339 90.6532 280.362 90.694 280.357L91.3956 280.267C91.4364 280.262 91.4659 280.23 91.4615 280.196L91.1527 277.781L92.2905 278.614C92.294 278.618 92.2979 278.62 92.3021 278.623L92.3041 278.624L92.7168 278.927L92.7192 278.928L92.8162 278.999C92.8499 279.018 92.8962 279.009 92.9198 278.981L94.2065 277.403L94.5136 279.803C94.518 279.837 94.5547 279.861 94.5955 279.856L95.297 279.766C95.3379 279.761 95.3674 279.729 95.363 279.694L94.9188 276.222C94.9144 276.188 94.8777 276.164 94.8369 276.169Z" fill="#332E63"/>
<path d="M97.2939 276.466C96.3284 276.59 95.6315 277.361 95.7374 278.189C95.8433 279.016 96.7118 279.587 97.6774 279.464C98.643 279.34 99.3399 278.569 99.234 277.741C99.1281 276.914 98.2595 276.343 97.2939 276.466ZM97.5897 278.778C97.0661 278.845 96.5948 278.535 96.5374 278.086C96.48 277.638 96.8581 277.219 97.3817 277.152C97.9052 277.085 98.3765 277.395 98.4339 277.844C98.4913 278.292 98.1132 278.711 97.5897 278.778Z" fill="#332E63"/>
<path d="M104.177 275.585C103.832 275.629 103.523 275.757 103.273 275.94L103.251 275.768C103.246 275.734 103.21 275.71 103.17 275.715L102.477 275.804C102.437 275.809 102.407 275.841 102.412 275.875L102.856 279.346C102.86 279.381 102.897 279.404 102.937 279.399L103.63 279.311C103.67 279.306 103.699 279.273 103.695 279.239L103.588 278.409C103.877 278.523 104.208 278.569 104.553 278.525C105.505 278.403 106.192 277.646 106.088 276.834C105.984 276.023 105.129 275.464 104.177 275.585L104.177 275.585ZM104.467 277.852C103.951 277.918 103.488 277.615 103.431 277.176L103.43 277.172C103.375 276.733 103.747 276.323 104.263 276.257C104.779 276.191 105.243 276.495 105.3 276.935C105.356 277.375 104.983 277.785 104.467 277.851L104.467 277.852Z" fill="#332E63"/>
<path d="M101.746 275.898L101.264 275.96C100.349 276.077 99.6846 276.778 99.7802 277.526L99.9359 278.743C99.9359 278.743 99.9361 278.744 99.9362 278.745L99.9823 279.105C99.9867 279.14 100.025 279.164 100.068 279.159L100.806 279.064C100.849 279.059 100.88 279.026 100.876 278.991L100.667 277.358C100.616 276.964 100.966 276.594 101.449 276.532L101.849 276.481C101.891 276.476 101.916 276.445 101.912 276.415L101.855 275.966C101.849 275.921 101.801 275.891 101.746 275.898L101.746 275.898Z" fill="#332E63"/>
<path d="M108.012 274.92C107.743 274.954 107.498 275.045 107.29 275.176L107.192 274.409C107.188 274.375 107.151 274.351 107.112 274.356L106.426 274.444C106.387 274.449 106.358 274.481 106.362 274.516L106.611 276.458C106.612 276.465 106.612 276.472 106.613 276.478L106.751 277.557L106.751 277.557L106.806 277.988C106.811 278.022 106.847 278.046 106.887 278.041L107.572 277.953C107.612 277.948 107.641 277.916 107.636 277.882L107.44 276.346C107.398 276.023 107.663 275.682 108.032 275.606C108.468 275.516 108.876 275.767 108.924 276.14L109.122 277.693C109.127 277.727 109.161 277.75 109.2 277.745L109.89 277.656C109.929 277.651 109.957 277.62 109.953 277.586L109.76 276.075C109.664 275.326 108.882 274.808 108.013 274.919L108.012 274.92Z" fill="#332E63"/>
<path d="M127.848 273.814C127.874 274.014 127.841 274.195 127.749 274.357C127.658 274.519 127.511 274.654 127.309 274.761C127.109 274.868 126.858 274.941 126.556 274.98C126.423 274.997 126.291 275.006 126.161 275.007C126.033 275.007 125.908 275.001 125.786 274.986C125.667 274.97 125.551 274.947 125.44 274.916L125.355 274.25C125.547 274.298 125.744 274.337 125.948 274.369C126.152 274.401 126.35 274.405 126.543 274.38C126.677 274.363 126.782 274.334 126.858 274.293C126.937 274.251 126.991 274.201 127.021 274.143C127.051 274.084 127.062 274.02 127.053 273.951C127.042 273.866 127 273.798 126.928 273.746C126.855 273.694 126.758 273.65 126.638 273.612C126.519 273.574 126.384 273.534 126.235 273.492C126.14 273.466 126.037 273.434 125.925 273.395C125.813 273.355 125.705 273.302 125.6 273.237C125.496 273.172 125.406 273.089 125.33 272.988C125.256 272.885 125.21 272.756 125.19 272.602C125.164 272.4 125.195 272.221 125.282 272.064C125.369 271.907 125.505 271.779 125.69 271.679C125.876 271.576 126.103 271.508 126.37 271.474C126.57 271.449 126.763 271.445 126.949 271.463C127.136 271.48 127.334 271.514 127.542 271.566L127.35 272.156C127.165 272.116 127 272.088 126.855 272.072C126.71 272.054 126.565 272.055 126.419 272.074C126.318 272.087 126.233 272.112 126.165 272.151C126.096 272.188 126.047 272.235 126.017 272.292C125.986 272.347 125.976 272.409 125.984 272.477C125.995 272.557 126.03 272.621 126.089 272.67C126.151 272.717 126.238 272.759 126.351 272.796C126.467 272.833 126.609 272.875 126.779 272.922C126.986 272.979 127.165 273.043 127.315 273.114C127.466 273.184 127.588 273.274 127.678 273.385C127.769 273.494 127.826 273.637 127.848 273.814Z" fill="#332E63"/>
<path d="M123.537 272.443C123.381 272.463 123.246 272.508 123.132 272.578C123.019 272.645 122.928 272.734 122.858 272.845C122.791 272.955 122.745 273.084 122.721 273.231C122.697 273.378 122.696 273.54 122.719 273.718C122.749 273.956 122.809 274.156 122.897 274.317C122.987 274.476 123.109 274.591 123.262 274.662C123.415 274.732 123.604 274.753 123.829 274.724C123.985 274.704 124.139 274.668 124.291 274.618C124.445 274.567 124.611 274.501 124.788 274.42L124.865 275.021C124.702 275.104 124.54 275.17 124.379 275.217C124.217 275.266 124.034 275.303 123.829 275.33C123.432 275.38 123.097 275.35 122.822 275.24C122.55 275.128 122.335 274.95 122.179 274.707C122.023 274.462 121.923 274.167 121.879 273.82C121.846 273.565 121.855 273.326 121.907 273.103C121.959 272.88 122.051 272.681 122.184 272.506C122.317 272.331 122.49 272.187 122.704 272.073C122.917 271.96 123.17 271.885 123.461 271.847C123.652 271.823 123.846 271.82 124.043 271.839C124.241 271.856 124.433 271.89 124.618 271.941L124.429 272.557C124.277 272.516 124.126 272.482 123.975 272.456C123.823 272.43 123.678 272.426 123.537 272.443Z" fill="#332E63"/>
<path d="M121.243 273.892C121.277 274.152 121.27 274.394 121.224 274.617C121.177 274.839 121.089 275.037 120.957 275.21C120.828 275.383 120.654 275.526 120.435 275.639C120.215 275.75 119.949 275.825 119.634 275.866C119.32 275.906 119.043 275.9 118.803 275.847C118.563 275.794 118.357 275.699 118.187 275.565C118.018 275.43 117.883 275.26 117.782 275.055C117.681 274.851 117.613 274.617 117.58 274.356C117.535 274.006 117.561 273.693 117.658 273.418C117.756 273.141 117.932 272.913 118.186 272.735C118.439 272.557 118.776 272.441 119.195 272.388C119.612 272.334 119.965 272.362 120.251 272.471C120.54 272.58 120.766 272.756 120.929 273C121.094 273.243 121.199 273.54 121.243 273.892ZM118.436 274.251C118.466 274.486 118.525 274.685 118.614 274.848C118.704 275.009 118.827 275.126 118.982 275.2C119.138 275.272 119.33 275.294 119.558 275.265C119.789 275.235 119.971 275.166 120.103 275.056C120.235 274.946 120.323 274.801 120.366 274.624C120.411 274.444 120.418 274.237 120.388 274.001C120.343 273.647 120.232 273.378 120.055 273.194C119.878 273.01 119.617 272.94 119.271 272.984C119.041 273.013 118.86 273.084 118.726 273.195C118.594 273.304 118.504 273.448 118.458 273.628C118.413 273.806 118.405 274.014 118.436 274.251Z" fill="#332E63"/>
<path d="M116.958 274.41C117.007 274.791 116.964 275.119 116.83 275.396C116.698 275.672 116.483 275.894 116.185 276.064C115.887 276.232 115.518 276.344 115.075 276.4L113.986 276.54L113.554 273.162L114.762 273.008C115.165 272.956 115.523 272.974 115.836 273.063C116.148 273.15 116.402 273.306 116.597 273.531C116.791 273.755 116.912 274.048 116.958 274.41ZM116.113 274.537C116.081 274.288 116.013 274.088 115.908 273.939C115.805 273.788 115.667 273.684 115.494 273.628C115.322 273.571 115.118 273.559 114.879 273.589L114.445 273.645L114.726 275.844L115.076 275.799C115.474 275.748 115.758 275.617 115.927 275.406C116.098 275.195 116.16 274.905 116.113 274.537Z" fill="#332E63"/>
<path d="M111.362 272.837L111.929 277.273" stroke="#332E63" stroke-width="0.6"/>
<path d="M106.574 264.385C106.574 266.777 104.683 269.069 101.34 270.792C98.0225 272.503 93.405 273.575 88.2773 273.575C83.1496 273.575 78.5321 272.503 75.2149 270.792C71.8719 269.069 69.9802 266.777 69.9802 264.385C69.9802 261.993 71.8719 259.701 75.2149 257.977C78.5321 256.267 83.1496 255.195 88.2773 255.195C93.405 255.195 98.0225 256.267 101.34 257.977C104.683 259.701 106.574 261.993 106.574 264.385Z" fill="#332E63" stroke="black"/>
<mask id="mask1_1703_51191" style="mask-type:luminance" maskUnits="userSpaceOnUse" x="74" y="254" width="44" height="23">
<path d="M115.895 254.802L74.6707 258.235L76.1825 276.39L117.407 272.957L115.895 254.802Z" fill="white"/>
</mask>
<g mask="url(#mask1_1703_51191)">
<path d="M109.276 266.087C108.133 265.484 105.513 264.834 104.137 263.162C102.723 261.445 103.17 259.735 103.077 258.62C102.952 257.118 101.132 256.042 99.0127 256.219C96.8933 256.395 95.2762 257.757 95.4014 259.26C95.4791 260.194 95.5297 262.662 95.203 263.973C95.1037 264.37 94.927 264.593 94.7932 264.751C94.2801 265.355 92.737 266.132 91.0754 265.486C90.6057 265.312 90.1769 264.97 89.9445 264.526C89.4526 263.581 89.6747 260.705 89.3979 259.494C89.3955 259.483 89.393 259.473 89.3905 259.463C89.3458 259.275 89.287 259.111 89.2065 258.979C88.6357 257.901 87.1043 257.21 85.3729 257.354C83.2535 257.531 81.6364 258.893 81.7615 260.396C81.8287 261.202 82.3827 261.884 83.2114 262.317C84.3545 262.92 86.9753 263.57 88.3511 265.242C89.7629 266.959 89.3161 268.669 89.409 269.784C89.5341 271.286 91.3542 272.362 93.4736 272.186C95.08 272.052 96.3987 271.236 96.8866 270.194C97.6758 268.641 95.9753 266.171 97.1048 264.13C97.3265 263.729 97.5927 263.513 97.8627 263.306C98.4258 262.875 100.264 262.293 101.703 263.322C102.071 263.617 102.188 263.858 102.291 264.099C102.721 265.119 102.684 268.458 103.28 269.428C103.852 270.503 105.382 271.192 107.11 271.048C109.229 270.871 110.846 269.509 110.721 268.007C110.654 267.201 110.1 266.518 109.271 266.085L109.276 266.087Z" fill="url(#paint1_linear_1703_51191)"/>
<path d="M79.834 273.32C81.9534 273.143 83.5706 271.782 83.4454 270.279C83.3201 268.775 81.5001 267.7 79.3807 267.877C77.2613 268.053 75.6441 269.414 75.7694 270.918C75.8946 272.422 77.7146 273.496 79.834 273.32Z" fill="url(#paint2_linear_1703_51191)"/>
</g>
<path d="M133.044 35.3964C146.023 42.3077 148.461 52.1568 148.058 56.2174L120.877 60.7875L133.044 35.3964Z" fill="#AFA2FF" stroke="black"/>
<path d="M140.543 37.0658C143.688 38.6346 146.623 43.4428 147.697 45.6508L158.416 38.925L147.835 26.9482L140.543 37.0658Z" fill="#AFA2FF" stroke="black"/>
<path d="M1018 294.886C1006.29 303.778 996.322 301.868 992.803 299.801L1000.04 273.204L1018 294.886Z" fill="#AFA2FF" stroke="black"/>
<path d="M1013.34 300.997C1010.6 303.196 1005 303.847 1002.55 303.898L1004.17 316.449L1019.48 311.856L1013.34 300.997Z" fill="#AFA2FF" stroke="black"/>
<path d="M1051.89 179.389L1048 181.166C1043.56 183.322 989.769 95.5297 1014.88 95.2786C1039.99 95.0275 1049.45 103.612 1051.89 110.867V179.389Z" fill="#745EFF" stroke="black" stroke-width="2"/>
<path d="M1047.23 181.166L1026.56 180.199C1002.77 153.073 960.22 103.232 993.57 96.8356C1026.92 90.4397 1042.01 101.46 1047.23 111.485V181.166Z" fill="#5942E3" stroke="black" stroke-width="2"/>
<path d="M1029.08 196.949V163.391L981.705 165.774L981.704 199.439C987.308 209.549 1027.1 206.267 1029.08 196.949Z" fill="#5942E3" stroke="black" stroke-width="2"/>
<path d="M1003.93 188.457H998.367L974.403 97.7873C1015.6 90.2969 1036.08 104.411 1041.75 112.049V177.719L1003.93 188.457Z" fill="#745EFF" stroke="black" stroke-width="2"/>
<path d="M1009.69 107.71V191.302L1003.64 194.015H958.323L946.229 109.7C967.646 89.8645 993.272 93.0198 1009.69 107.71Z" fill="#5942E3" stroke="black" stroke-width="2"/>
<path d="M1002.86 109.863V194.016H946.102V109.863C967.519 90.0277 992.864 101.599 1002.86 109.863Z" fill="#745EFF" stroke="black" stroke-width="2"/>
<path d="M996.815 114.326V194.015H950.796V114.326C968.161 95.5426 988.711 106.5 996.815 114.326Z" fill="#745EFF" stroke="black" stroke-width="2"/>
<path d="M950.796 125.38H995.378V140.299H950.796V125.38Z" fill="#745EFF" stroke="black" stroke-width="2"/>
<path d="M954.571 129.384H991.599V136.294H954.571V129.384Z" fill="#332E63" stroke="black" stroke-width="2"/>
<path d="M987.436 147.797C987.517 140.308 990.778 133.313 990.778 133.313H955.261C952.744 135.149 951.235 143.734 950.795 147.797H987.436Z" fill="#AFA2FF" stroke="black" stroke-width="2"/>
<path fill-rule="evenodd" clip-rule="evenodd" d="M983.376 138.529H984.547V140.651H983.376V138.529ZM968.449 138.529H969.621V140.651H968.449V138.529ZM977.081 138.529H975.91V140.651H977.081V138.529ZM960.981 138.529H962.153V140.651H960.981V138.529ZM982.057 138.529H980.886V140.651H982.057V138.529ZM965.958 138.529H967.129V140.651H965.958V138.529ZM974.592 138.529H973.421V140.651H974.592V138.529ZM958.497 138.529H959.668V140.651H958.497V138.529ZM979.573 138.529H978.402V140.651H979.573V138.529ZM963.468 138.529H964.639V140.651H963.468V138.529ZM972.108 138.529H970.936V140.651H972.108V138.529ZM956.008 138.529H957.179V140.651H956.008V138.529Z" fill="#383838"/>
<path d="M968.645 179.071H978.966C980.481 179.071 981.709 180.299 981.709 181.814C981.709 183.329 980.481 184.557 978.966 184.557H968.645C967.13 184.557 965.902 183.329 965.902 181.814C965.902 180.299 967.13 179.071 968.645 179.071Z" fill="#23FFA3" stroke="black" stroke-width="2"/>
<path d="M957.252 198.183V194.015H990.363V198.183H957.252Z" fill="#5942E3" stroke="black" stroke-width="2"/>
<path d="M1018.25 132.614L1018.2 132.606H1018.15C1016.77 132.606 1015.42 131.599 1014.38 129.742C1013.35 127.903 1012.7 125.327 1012.7 122.456C1012.7 119.584 1013.35 117.008 1014.38 115.169C1015.42 113.313 1016.77 112.305 1018.15 112.305H1018.2L1018.24 112.298C1020.11 111.97 1021.54 112.103 1022.63 112.535C1023.71 112.964 1024.5 113.705 1025.08 114.673C1026.26 116.642 1026.56 119.519 1026.56 122.456C1026.56 125.387 1026.23 128.283 1025.03 130.262C1024.43 131.237 1023.64 131.98 1022.56 132.406C1021.48 132.834 1020.08 132.959 1018.25 132.614Z" fill="#5942E3" stroke="black"/>
<path d="M1027.44 122.456C1027.44 125.327 1026.79 127.903 1025.76 129.743C1024.73 131.599 1023.37 132.606 1021.99 132.606C1020.61 132.606 1019.26 131.599 1018.22 129.743C1017.19 127.903 1016.54 125.327 1016.54 122.456C1016.54 119.584 1017.19 117.008 1018.22 115.169C1019.26 113.313 1020.61 112.305 1021.99 112.305C1023.37 112.305 1024.73 113.313 1025.76 115.169C1026.79 117.008 1027.44 119.584 1027.44 122.456Z" fill="#745EFF" stroke="black"/>
<path d="M1019.21 124.846V73.4556C1019.21 68.8506 1024.81 69.4378 1025 73.7038V124.846C1024.65 128.717 1019.46 128.133 1019.21 124.846Z" fill="#5942E3" stroke="black"/>
<path d="M1021.1 124.846V73.4556C1021.1 68.8506 1025.12 69.4378 1025.25 73.7038V124.846C1025.01 128.717 1021.28 128.133 1021.1 124.846Z" fill="#745EFF" stroke="black"/>
<path d="M1031.37 71.3475C1029.65 72.2489 1025.33 72.0986 1023.38 71.3475V91.1233C1025.64 91.5673 1030.82 92.025 1033.52 90.3035C1036.23 88.5821 1040.8 89.0398 1042.75 89.4838V71.3475C1041.31 69.1958 1033.52 70.2207 1031.37 71.3475Z" fill="#745EFF" stroke="black"/>
<mask id="mask2_1703_51191" style="mask-type:luminance" maskUnits="userSpaceOnUse" x="1027" y="77" width="18" height="11">
<path d="M1044.7 77.1951H1027.95V87.5682H1044.7V77.1951Z" fill="white"/>
</mask>
<g mask="url(#mask2_1703_51191)">
<path d="M1042.94 83.8606C1042.46 83.4271 1041.32 82.8878 1040.78 81.7778C1040.22 80.6384 1040.48 79.5991 1040.48 78.9018C1040.48 77.9619 1039.71 77.1995 1038.77 77.1995C1037.83 77.1995 1037.06 77.9619 1037.06 78.9018C1037.06 79.4861 1036.99 81.0217 1036.8 81.8192C1036.74 82.061 1036.66 82.1905 1036.59 82.2813C1036.34 82.6303 1035.63 83.033 1034.92 82.5459C1034.72 82.4136 1034.55 82.179 1034.46 81.8908C1034.28 81.2785 1034.48 79.5033 1034.4 78.7365C1034.4 78.7301 1034.4 78.7237 1034.4 78.7172C1034.39 78.5978 1034.37 78.4933 1034.34 78.4068C1034.12 77.708 1033.47 77.1995 1032.7 77.1995C1031.76 77.1995 1031 77.9619 1031 78.9018C1031 79.406 1031.22 79.8588 1031.57 80.1706C1032.05 80.604 1033.18 81.1433 1033.73 82.2534C1034.29 83.3928 1034.03 84.432 1034.03 85.1294C1034.03 86.0692 1034.79 86.8317 1035.74 86.8317C1036.45 86.8317 1037.06 86.3933 1037.32 85.771C1037.72 84.8469 1037.06 83.2247 1037.64 82.0152C1037.75 81.7778 1037.87 81.6576 1038 81.5424C1038.27 81.3043 1039.1 81.0375 1039.7 81.7513C1039.85 81.9537 1039.89 82.1096 1039.93 82.2641C1040.08 82.92 1039.94 84.9928 1040.17 85.6258C1040.38 86.3232 1041.03 86.8303 1041.8 86.8303C1042.74 86.8303 1043.51 86.0678 1043.51 85.128C1043.51 84.6237 1043.29 84.171 1042.94 83.8591L1042.94 83.8606Z" fill="url(#paint3_linear_1703_51191)"/>
<path d="M1029.67 86.8326C1030.61 86.8326 1031.38 86.0708 1031.38 85.1303C1031.38 84.1897 1030.61 83.428 1029.67 83.428C1028.73 83.428 1027.96 84.1897 1027.96 85.1303C1027.96 86.0708 1028.73 86.8326 1029.67 86.8326Z" fill="url(#paint4_linear_1703_51191)"/>
</g>
<path d="M363.839 238.485L406.796 251.595L397.765 278.228L355.094 264.489L363.839 238.485Z" fill="#EBFF00"/>
<path d="M363.839 238.485L406.796 251.595M363.839 238.485L355.094 264.489L397.765 278.228L406.796 251.595M363.839 238.485L381.563 258.395L406.796 251.595" stroke="black" stroke-width="2"/>
<path d="M620.272 49.3551L666.099 60.3345L659.565 86.4967L613.968 74.8966L620.272 49.3551Z" fill="#EBFF00"/>
<path d="M620.272 49.3551L666.099 60.3345M620.272 49.3551L613.968 74.8966L659.565 86.4967L666.099 60.3345M620.272 49.3551L640.71 67.9326L666.099 60.3345" stroke="black" stroke-width="2"/>
<path d="M69.24 157.416L106.58 166.378L101.28 187.629L64.1269 178.163L69.24 157.416Z" fill="#EBFF00"/>
<path d="M69.24 157.416L106.58 166.378M69.24 157.416L64.1269 178.163L101.28 187.629L106.58 166.378M69.24 157.416L85.9045 172.529L106.58 166.378" stroke="black" stroke-width="2"/>
<path d="M969.638 69.1273L1007.76 63.3774L1010.85 85.1484L972.708 90.3591L969.638 69.1273Z" fill="#EBFF00"/>
<path d="M969.638 69.1273L1007.76 63.3774M969.638 69.1273L972.708 90.3591L1010.85 85.1484L1007.76 63.3774M969.638 69.1273L990.844 76.9005L1007.76 63.3774" stroke="black" stroke-width="2"/>
<circle cx="742.414" cy="265.685" r="8.87549" fill="#AFA2FF"/>
<circle cx="449.856" cy="270.436" r="5.68652" fill="#AFA2FF"/>
<circle cx="709.57" cy="73.5044" r="5.68652" fill="#AFA2FF"/>
<path d="M842.498 212.564L890.862 213.366L889.748 242.487L841.485 240.977L842.498 212.564Z" fill="#EBFF00"/>
<path d="M842.498 212.564L890.862 213.366M842.498 212.564L841.485 240.977L889.748 242.487L890.862 213.366M842.498 212.564L866.92 227.346L890.862 213.366" stroke="black" stroke-width="2"/>
<path d="M239.322 204.87C239.322 207.039 237.905 209.08 235.451 210.605C233.004 212.125 229.592 213.081 225.797 213.081C222.002 213.081 218.59 212.125 216.143 210.605C213.689 209.08 212.271 207.039 212.271 204.87C212.271 202.7 213.689 200.659 216.143 199.134C218.59 197.614 222.002 196.658 225.797 196.658C229.592 196.658 233.004 197.614 235.451 199.134C237.905 200.659 239.322 202.7 239.322 204.87Z" fill="black" stroke="black"/>
<path d="M277.048 140.672C276.811 148.608 274.769 148.789 273.778 147.887C274.243 149.058 276.792 151.739 283.266 153.098C291.359 154.797 302.812 165.605 306.019 174.098C308.584 180.892 311.289 199.869 312.51 206.663C312.663 203.884 312.375 194.014 311.354 187.223C310.501 181.556 302.301 138.868 291.896 130.451C281.49 122.033 277.346 130.751 277.048 140.672Z" fill="#23FFA3" stroke="black" stroke-width="2"/>
<path d="M205.986 235.522C206.409 235.094 210.303 229.909 212.197 227.37C212.56 227.098 213.425 226.899 213.983 228.287C214.54 229.674 218.789 233.129 220.844 234.683C220.915 232.245 221.187 226.914 221.702 225.089C222.345 222.807 225.507 220.536 230.01 221.511C234.513 222.487 238.265 227.745 239.713 230.401C240.87 232.526 241.767 237.646 242.071 239.941C245.091 239.887 252.631 239.583 258.635 238.803C266.14 237.827 273.912 235.984 279.058 235.171C283.175 234.52 283.818 234.366 287.964 232.469L293.868 235.563L300.196 239.79C301.429 240.747 310.501 244.553 313.395 245.311C321.408 247.41 326.524 245.567 326.631 246.651C326.717 247.518 329.108 250.367 326.632 255.425L319.406 261.418L310.522 262.743C309.174 263.282 300.252 261.418 297.492 261.418C294.733 261.418 292.149 258.598 288.669 256.802L275.845 255.365L239.713 254.624L238.563 253.366C237.609 255.778 235.192 261.299 233.157 264.086C230.612 267.569 224.941 268.963 215.135 266.819C207.291 265.104 205.767 258.336 205.986 255.166H187.887C187.578 253.518 190.517 248.948 191.79 246.935C193.268 244.596 197.396 241.669 199.114 240.734C201.228 239.175 205.563 235.95 205.986 235.522Z" fill="#23FFA3"/>
<path d="M243.316 148.511C248.766 141.112 252.704 138.414 255.816 138.322C253.669 140.631 256.466 143.397 260.556 140.397C263.828 137.997 268.711 138.507 270.743 139.062C270.743 139.062 265.117 141.252 268.293 145.528C269.748 147.023 273.855 148.708 278.114 145.528C280.702 143.596 285.995 144.243 288.642 147.242C288.642 147.242 284.568 148.097 285.819 149.418C287.461 151.153 292.229 147.713 295.229 152.477C295.229 152.477 291.828 151.501 291.828 153.357C295.888 155.663 303.912 165.03 306.402 175.123C308.893 185.215 311.813 194.396 312.551 204.717C313.216 214.019 307.497 221.348 299.434 226.952C289.355 233.958 271.026 237.172 256.808 239.034C242.589 240.897 232.067 240.068 222.196 235.312C211.969 230.385 208.337 218.043 207.048 213.203C206.016 209.332 205.199 210.964 204.919 212.264C205.267 218.806 202.145 230.305 186.875 223.968C167.789 216.046 157.626 193.148 155.877 177.405C154.127 161.662 158.607 143.343 180.554 139.114C202.5 134.885 214.915 149.337 220.367 152.149C227.638 155.898 236.876 157.254 243.316 148.511Z" fill="#23FFA3" stroke="#010101" stroke-width="2"/>
<path d="M220.658 232.8H223.874L241.754 237.938V241.905L221.108 237.612L220.658 232.8Z" fill="#23FFA3"/>
<path d="M214.653 253.019C215.353 251.228 218.676 248.881 219.936 247.376C221.512 245.494 223.058 240.171 219.221 230.924C214.718 220.072 223.042 215.815 229.322 219.131C232.017 220.554 238.618 226.758 240.254 231.965C241.736 236.68 242.185 241.592 240.254 248.729C238.474 255.311 236.518 272.297 216.099 266.959C199.763 262.689 206.859 245.963 212.449 238.134" stroke="black" stroke-width="2"/>
<path d="M286.68 210.123C296.456 207.915 296.578 197.39 295.114 190.533C293.455 184.674 290.151 179.172 276.915 182.682C263.68 186.191 264.816 192.943 267.227 197.928C270.274 204.228 276.904 212.331 286.68 210.123Z" fill="#745EFF" stroke="#010101" stroke-width="2"/>
<path d="M293.606 201.531C294.134 199.588 295.291 199.425 295.539 200.661C294.319 205.792 293.318 208.524 286.413 209.647C294.991 206.622 292.775 204.595 293.606 201.531Z" fill="#010101"/>
<path d="M276.078 202.767C273.319 202.56 273.415 205.242 273.903 206.423C277.881 210.362 281.249 211.292 287.893 209.308C278.714 210.356 279.555 203.027 276.078 202.767Z" fill="#010101"/>
<path fill-rule="evenodd" clip-rule="evenodd" d="M224.943 153.091C221.892 151.719 219.099 150.903 216.209 151.428C213.316 151.953 210.525 153.784 207.37 157.237L206.063 158.667L207.979 158.904C209.46 159.088 211.027 159.836 212.062 161.066C213.066 162.259 213.62 163.959 213.034 166.225C212.635 167.769 211.894 168.738 211.043 169.363C210.175 170 209.128 170.325 208.07 170.457C207.013 170.59 205.992 170.524 205.226 170.422C204.846 170.371 204.535 170.312 204.322 170.266C204.216 170.243 204.134 170.224 204.081 170.211C204.055 170.204 204.036 170.199 204.024 170.196L204.013 170.193L204.013 170.193L204.012 170.193L204.012 170.193L204.011 170.193L200.451 169.205L203.023 171.855L203.023 171.856L203.024 171.856L203.024 171.856L203.025 171.857L203.031 171.864C203.039 171.872 203.053 171.887 203.071 171.907C203.109 171.949 203.167 172.015 203.242 172.104C203.393 172.283 203.611 172.558 203.868 172.923C204.381 173.655 205.047 174.748 205.635 176.171C205.884 176.776 206.12 177.441 206.324 178.164L206.391 178.103C207.646 182.155 207.502 185.526 207.398 187.945C207.387 188.201 207.376 188.447 207.368 188.681C208.067 186.944 209.246 183.414 207.869 176.733C207.825 176.52 207.816 176.386 207.836 176.322C207.722 176.003 207.604 175.695 207.482 175.4C207.002 174.237 206.473 173.269 205.995 172.508C206.689 172.55 207.484 172.547 208.31 172.444C209.589 172.283 210.994 171.876 212.22 170.976C213.463 170.063 214.459 168.689 214.968 166.72C215.714 163.836 215.019 161.467 213.592 159.771C212.629 158.628 211.357 157.817 210.031 157.346C212.511 154.904 214.589 153.755 216.558 153.397C218.838 152.984 221.171 153.593 224.119 154.918L224.943 153.091Z" fill="#010101"/>
<path d="M273.399 213.802C271.572 213.802 269.774 215.969 270.181 217.188" stroke="black" stroke-width="2"/>
<path d="M287.674 232.527C290.915 233.627 297.972 238.751 300.215 240.026C304.463 242.443 313.975 246.274 324.832 246.274C331.448 246.274 327.645 260.347 315.036 262.034C311.956 262.447 301.083 265.112 292.031 258.292C286.166 253.873 273.605 255.614 238.827 254.752" stroke="black" stroke-width="2"/>
<path d="M262.223 203.438C261.597 193.73 254.871 182.955 245.786 177.847C227.408 167.514 223.843 186.878 224.99 195.309C226.137 203.739 226.923 212.525 233.818 212.525C244.994 212.525 246.471 219.379 254.906 219.379C258.081 219.379 263.006 215.574 262.223 203.438Z" fill="#EBFF00" stroke="black" stroke-width="2"/>
<path d="M271.33 214.883C275.558 220.078 283.279 215.162 288.162 213.712C292.29 212.486 300.109 213.317 299.56 208.272" stroke="black" stroke-width="2"/>
<path d="M297.927 208.266C299.532 207.964 300.717 208.185 301.759 209.473" stroke="black" stroke-width="2"/>
<path d="M212.668 226.819C210.773 230.579 205.026 237.273 201.239 239.469C190.683 245.59 188.679 250.676 187.887 255.297H205.681" stroke="black" stroke-width="2"/>
<path d="M296.529 171.739C295.774 162.96 299.518 163.151 301.484 164.344C306.439 171.024 315.43 207.445 311.655 208.638C307.88 209.83 303.157 205.589 301.787 201.292C300.967 198.724 297.473 182.714 296.529 171.739Z" fill="#EBFF00" stroke="black" stroke-width="2"/>
<path d="M307.879 185.349C307.866 185.358 307.852 185.368 307.835 185.379C307.68 185.478 307.43 185.602 307.056 185.775C306.922 185.837 306.776 185.904 306.618 185.976C305.907 186.3 304.947 186.739 303.766 187.359C303.224 187.644 302.733 187.927 302.304 188.175C302.136 188.271 301.979 188.362 301.831 188.445C301.281 188.756 300.895 188.949 300.609 189.018C300.475 189.05 300.399 189.045 300.358 189.036C300.328 189.028 300.294 189.013 300.248 188.958C300.132 188.817 299.997 188.483 299.902 187.769C299.902 187.763 299.902 187.757 299.903 187.749C299.903 187.714 299.904 187.662 299.908 187.593C299.914 187.456 299.929 187.257 299.96 187.013C300.022 186.525 300.151 185.871 300.414 185.199C300.938 183.863 301.973 182.488 304.083 182.131C304.975 181.98 305.63 182.103 306.118 182.346C306.61 182.59 306.972 182.976 307.239 183.412C307.701 184.166 307.846 185.019 307.879 185.349Z" fill="#1D1D1D" stroke="black"/>
<path d="M305.228 183.035C305.267 183.125 305.272 183.323 305.045 183.624C304.827 183.912 304.449 184.212 303.95 184.425C303.452 184.637 302.973 184.702 302.614 184.66C302.24 184.615 302.101 184.474 302.063 184.384C302.025 184.295 302.019 184.097 302.246 183.796C302.464 183.507 302.843 183.207 303.341 182.995C303.839 182.782 304.318 182.717 304.677 182.76C305.051 182.805 305.19 182.945 305.228 183.035Z" fill="white" stroke="black"/>
<path d="M259.598 204.07C259.379 203.987 259.123 203.892 258.834 203.787C257.801 203.412 256.342 202.912 254.639 202.413C251.24 201.417 246.83 200.409 242.868 200.409L231.519 200.409L228.29 200.409L227.972 200.409C228.158 200.086 228.412 199.67 228.737 199.194C229.52 198.048 230.709 196.563 232.335 195.202C235.571 192.494 240.547 190.263 247.578 192.2C250.95 193.389 254.014 196.08 256.249 198.765C257.364 200.105 258.26 201.429 258.875 202.537C259.182 203.091 259.416 203.585 259.571 203.996C259.58 204.021 259.589 204.045 259.598 204.07Z" fill="#1D1D1D" stroke="black"/>
<path d="M246.467 195.029C245.4 194.86 244.491 194.501 243.885 194.08C243.247 193.636 243.082 193.234 243.121 192.986C243.16 192.739 243.441 192.407 244.185 192.182C244.892 191.968 245.866 191.907 246.933 192.076C248 192.244 248.908 192.603 249.515 193.025C250.153 193.468 250.318 193.87 250.279 194.118C250.24 194.365 249.958 194.697 249.215 194.922C248.508 195.136 247.533 195.197 246.467 195.029Z" fill="white" stroke="black"/>
<path d="M1058.12 124.086C1053.73 119.986 1052.64 120.745 1052.64 120.745V142.097C1052.64 142.097 1058.34 142.097 1056.8 149.221C1051.41 157.05 1038.35 159.91 1030.75 160.932C1027.55 161.362 1025 164.033 1025 167.26V192.976C1025 196.29 1027.69 199.015 1030.99 198.706C1060.18 195.971 1062.07 173.416 1062.07 173.416V136.26C1062.13 135.445 1062.13 134.632 1062.07 133.824C1061.78 130.267 1060.7 126.495 1058.12 124.086Z" fill="#387659" fill-opacity="0.5"/>
<path d="M1062.07 133.824C1061.78 130.267 1060.7 126.495 1058.12 124.086C1053.73 119.986 1052.64 120.745 1052.64 120.745V142.097C1052.64 142.097 1058.34 142.097 1056.8 149.221M1062.07 133.824V173.416C1062.07 173.416 1060.18 195.971 1030.99 198.706C1027.69 199.015 1025 196.29 1025 192.976V167.26C1025 164.033 1027.55 161.362 1030.75 160.932C1038.35 159.91 1051.41 157.05 1056.8 149.221M1062.07 133.824C1062.48 138.962 1060.19 144.289 1056.8 149.221" stroke="black"/>
<path opacity="0.4" d="M1025 167.259V192.976C1025 196.29 1027.69 199.015 1030.99 198.706C1060.18 195.971 1062.07 173.416 1062.07 173.416V136.26C1062.13 135.445 1062.13 134.632 1062.07 133.824V136.26C1061.73 140.628 1059.66 145.064 1056.8 149.22C1051.41 157.049 1038.35 159.909 1030.75 160.931C1027.55 161.361 1025 164.033 1025 167.259Z" fill="#23FFA3" stroke="black"/>
<path d="M836.95 73.288C837.2 81.6575 839.353 81.8476 840.398 80.8965C839.908 82.1312 837.22 84.959 830.393 86.3919C821.858 88.1831 809.781 99.5814 806.399 108.537C803.694 115.702 800.842 135.715 799.553 142.879C799.392 139.948 799.696 129.54 800.773 122.378C801.672 116.402 810.319 71.3859 821.292 62.5092C832.265 53.6326 836.636 62.8262 836.95 73.288Z" fill="#23FFA3" stroke="black" stroke-width="2"/>
<path d="M802.939 97.4091C800.15 104.875 799.184 111.956 799.833 117.353C800.491 122.819 802.745 126.232 806.022 127.016C806.76 127.192 807.207 127.067 807.534 126.847C807.92 126.589 808.332 126.072 808.722 125.161C809.504 123.331 809.963 120.495 810.369 116.964C810.499 115.839 810.622 114.651 810.751 113.417C811.411 107.055 812.199 99.4738 814.615 93.0059C817.309 85.7958 819.962 82.6754 821.231 81.2223C821.134 81.2035 821.026 81.183 820.907 81.1602C820.323 81.0486 819.546 80.898 818.559 80.6621C816.723 80.2229 815.24 80.1678 813.969 80.4764C812.721 80.7791 811.569 81.458 810.413 82.6751C808.027 85.186 805.78 89.8044 802.939 97.4091ZM821.78 80.5653C821.78 80.5654 821.779 80.5673 821.777 80.5709C821.779 80.5671 821.78 80.5653 821.78 80.5653ZM822.017 81.4012C822.024 81.4043 822.027 81.4057 822.027 81.4056C822.027 81.4056 822.024 81.404 822.017 81.4012Z" fill="#5942E3" stroke="black" stroke-width="2"/>
<path d="M801.829 96.1058L801.823 96.1219L801.817 96.1378C798.144 105.035 797.104 112.057 797.716 116.988C798.099 120.074 799.111 122.264 800.465 123.632C800.288 122.983 800.136 122.221 800.036 121.332C799.585 117.335 800.165 110.778 804.072 100.321C807.723 90.5513 811.412 85.1995 814.271 82.2686C815.241 81.2737 816.115 80.5577 816.859 80.0437C815.835 79.8775 814.886 79.8812 813.999 80.0379C812.515 80.3001 811.113 81.0069 809.743 82.2285C806.949 84.7202 804.383 89.2685 801.829 96.1058Z" fill="#745EFF" stroke="black" stroke-width="2"/>
<path d="M906.21 163.133C909.143 164.579 911.171 169.359 913.302 171.135C917.324 174.487 918.977 174.287 921.207 175.931C923.018 176.918 927.108 181.636 928.667 184.102C930.009 186.225 931.297 192.29 930.972 194.028H911.886C912.116 197.37 911.886 217.246 903.453 224.913C897.411 230.405 884.044 232.02 883.507 224.913C883.001 218.211 888.329 201.203 886.861 196.045C885.865 192.545 881.24 194.028 877.743 193.456H876.319H853.389L845.657 196.045C841.987 197.939 845.657 207.73 853.389 219.414C854.995 221.841 856.365 226.513 853.389 227.834L843.251 229.38L831.912 224.913C831.271 222.683 825.824 218.383 821.368 203.434C820.671 201.095 818.237 197.702 817.465 188.574C817.199 185.43 816.165 174.322 817.465 173.312L818.905 167.47L822.665 168.941C827.037 170.941 830.486 172.256 834.827 172.942C840.254 173.799 848.451 175.743 856.365 176.772C862.657 177.59 870.551 177.911 873.774 177.971C873.816 177.367 873.998 176.716 873.832 177.972C873.813 177.972 873.793 177.971 873.774 177.971C873.734 178.531 873.814 179.05 874.401 177.972C875.927 175.171 874.909 177.801 879.657 176.772C882.063 176.25 882.263 174.752 881.964 173.713C881.561 173.665 881.304 173.539 881.24 173.312C880.905 172.125 881.672 172.701 881.964 173.713C884.974 174.077 896.151 170.16 896.217 172.427C898.384 170.789 902.865 167.146 903.453 165.682C904.041 164.219 905.827 162.845 906.21 163.133Z" fill="#23FFA3"/>
<path d="M872.09 81.2858C866.342 73.4831 862.189 70.6372 858.908 70.5404C861.172 72.9751 858.222 75.8927 853.909 72.7287C850.459 70.1975 845.309 70.7357 843.166 71.3212C843.166 71.3212 849.1 73.6302 845.75 78.1398C844.215 79.7163 839.885 81.4935 835.393 78.1398C832.664 76.1023 827.082 76.7845 824.291 79.9476C824.291 79.9476 828.587 80.8494 827.268 82.2423C825.536 84.0717 821.312 78.8949 818.149 83.9185C818.149 83.9185 820.931 84.4385 820.931 86.3959C816.649 88.8276 808.188 98.7057 805.562 109.349C802.935 119.992 799.856 129.674 799.078 140.558C798.377 150.367 804.408 158.095 812.911 164.006C823.539 171.393 842.868 174.782 857.862 176.747C872.856 178.711 883.952 177.837 894.362 172.822C905.147 167.625 908.976 154.61 910.336 149.507C911.424 145.424 912.286 147.145 912.58 148.516C912.214 155.415 915.507 167.542 931.609 160.858C951.736 152.504 962.453 128.358 964.298 111.756C966.143 95.1537 961.419 75.8353 938.275 71.3755C915.131 66.9157 902.039 82.157 896.29 85.1216C888.622 89.0757 878.881 90.5051 872.09 81.2858Z" fill="#23FFA3" stroke="#010101" stroke-width="2"/>
<path d="M852.359 126.84C851.477 131.336 850.554 138.239 852.32 144.355C853.197 147.392 854.73 150.209 857.243 152.451C859.755 154.691 863.308 156.412 868.315 157.159C874.646 158.104 879.429 157.464 883.014 155.792C886.585 154.127 889.059 151.395 890.706 147.974C894.026 141.078 893.949 131.445 892.542 122.579C890.735 114.837 887.839 109.814 884.172 106.836C880.519 103.869 875.967 102.824 870.61 103.31C866.862 103.651 863.18 105.22 860.001 108.811C856.803 112.424 854.066 118.139 852.359 126.84Z" fill="#A8FFDA" stroke="#010101" stroke-width="2"/>
<path d="M854.329 133.015C852.61 140.001 856.88 147.057 863.866 148.776C870.852 150.495 877.908 146.225 879.627 139.239C881.346 132.253 877.076 125.197 870.09 123.478C863.104 121.759 856.047 126.029 854.329 133.015Z" fill="#1E1E1E" stroke="black" stroke-width="2"/>
<path d="M880.168 133.518C878.347 125.721 871.079 130.295 867.982 132.503C867.146 128.352 861.418 122.003 857.497 127.959C852.595 135.405 862.513 148.583 863.303 148.682C864.094 148.782 882.444 143.265 880.168 133.518Z" fill="#E47C84" stroke="black" stroke-width="2"/>
<path d="M911.439 193.256C911.439 200.106 912.184 207.104 905.812 221.827C900.815 233.371 880.909 230.437 883.324 221.827C891.736 191.838 883.324 193.255 883.324 193.255C883.324 193.255 875.069 193.824 859.108 193.255" stroke="black" stroke-width="2"/>
<path d="M825.48 148.613C815.36 145.951 815.233 133.264 816.749 124.998C818.466 117.935 821.887 111.303 835.589 115.534C849.29 119.764 848.114 127.903 845.618 133.913C842.464 141.507 835.6 151.275 825.48 148.613Z" fill="#745EFF" stroke="#010101" stroke-width="2"/>
<path d="M818.314 138.255C817.769 135.914 816.57 135.716 816.314 137.206C817.576 143.392 818.613 146.686 825.762 148.04C816.882 144.393 819.175 141.949 818.314 138.255Z" fill="#010101"/>
<path d="M836.46 139.745C839.316 139.496 839.217 142.729 838.712 144.153C834.594 148.901 831.107 150.023 824.229 147.63C833.732 148.893 832.861 140.059 836.46 139.745Z" fill="#010101"/>
<path fill-rule="evenodd" clip-rule="evenodd" d="M891.164 86.2811C894.409 84.8219 897.522 84.0229 900.724 84.6089C903.931 85.1959 907.054 87.1391 910.395 90.7955L911.701 92.2257L909.785 92.463C908.212 92.6579 906.546 93.453 905.445 94.7612C904.374 96.033 903.786 97.8447 904.409 100.251C904.833 101.891 905.621 102.924 906.529 103.59C907.454 104.27 908.568 104.614 909.69 104.755C910.81 104.895 911.892 104.826 912.703 104.717C913.106 104.663 913.435 104.601 913.661 104.552C913.773 104.528 913.86 104.507 913.916 104.493C913.944 104.486 913.964 104.481 913.977 104.478L913.989 104.475L913.99 104.475L913.99 104.474L913.991 104.474L913.991 104.474L917.552 103.486L914.979 106.137L914.979 106.137L914.979 106.137L914.978 106.138L914.978 106.138L914.97 106.146C914.962 106.155 914.947 106.171 914.927 106.193C914.887 106.237 914.826 106.307 914.746 106.402C914.586 106.592 914.355 106.883 914.083 107.27C913.54 108.044 912.835 109.2 912.214 110.705C911.953 111.338 911.706 112.033 911.492 112.789L911.462 112.762C910.138 117.035 910.291 120.59 910.4 123.141C910.412 123.411 910.423 123.67 910.432 123.917C909.695 122.085 908.451 118.362 909.903 111.318C909.926 111.205 909.941 111.113 909.946 111.041C910.081 110.655 910.222 110.286 910.367 109.934C910.891 108.664 911.47 107.615 911.988 106.801C911.234 106.853 910.36 106.855 909.45 106.741C908.107 106.573 906.635 106.145 905.352 105.203C904.052 104.249 903.009 102.811 902.474 100.746C901.692 97.7218 902.422 95.2412 903.915 93.467C904.943 92.2468 906.307 91.3882 907.723 90.8989C905.049 88.2791 902.661 86.9969 900.373 86.5781C897.743 86.0967 895.069 86.7226 891.988 88.1079L891.164 86.2811Z" fill="#010101"/>
<path d="M903.494 85.0263C910.202 88.1083 911.805 98.4196 911.805 118.045C916.307 119.287 939.249 114.668 937.014 99.5783C934.778 84.4882 927.602 76.6271 908.202 70.7668C893.298 66.2647 862.52 64.5614 845.19 64.5613C826.819 64.5611 818.309 85.6469 813.835 93.9836C820.952 85.8502 830.69 67.8403 848.185 69.8859C867.668 72.164 886.873 77.3893 903.494 85.0263Z" fill="#745EFF" stroke="black" stroke-width="2"/>
<path d="M910.864 81.8392C917.974 88.347 916.696 97.8308 916.696 109.157C921.198 110.399 938.793 111.984 936.591 96.8887C933.447 75.3254 917.494 69.0164 897.713 64.6102C880.228 60.7154 870.236 59.9719 850.084 58.7869C829.932 57.6018 818.832 75.9406 809.787 99.7792C809.787 99.7792 823.779 63.7533 845.276 64.6102C863.071 65.3195 899.925 71.8269 910.864 81.8392Z" fill="#745EFF" stroke="black" stroke-width="2"/>
<path d="M947.849 129.863C946.754 137.922 943.586 144.799 939.4 149.409C935.209 154.025 930.086 156.292 925.018 155.421C919.951 154.549 915.664 150.665 912.889 144.852C910.118 139.045 908.92 131.418 910.015 123.359C911.109 115.299 914.278 108.423 918.464 103.812C922.655 99.1963 927.778 96.93 932.845 97.8012C937.912 98.6723 942.2 102.556 944.974 108.37C947.745 114.176 948.944 121.804 947.849 129.863Z" fill="#AFA2FF" stroke="black" stroke-width="2"/>
<path d="M947.894 129.556C946.862 137.152 943.898 143.635 939.993 147.982C936.081 152.336 931.317 154.465 926.623 153.658C921.928 152.851 917.946 149.218 915.369 143.749C912.796 138.288 911.688 131.105 912.72 123.509C913.752 115.912 916.716 109.43 920.622 105.083C924.533 100.729 929.297 98.5998 933.992 99.4069C938.686 100.214 942.668 103.847 945.245 109.316C947.818 114.777 948.926 121.959 947.894 129.556Z" fill="#5942E3" stroke="black" stroke-width="2"/>
<path d="M948.548 129.316C947.614 136.19 945.084 142.075 941.8 146.039C938.504 150.018 934.572 151.936 930.786 151.285C927.001 150.634 923.758 147.483 921.668 142.578C919.586 137.692 918.734 131.225 919.668 124.351C920.601 117.477 923.132 111.592 926.415 107.628C929.712 103.649 933.644 101.731 937.429 102.382C941.214 103.033 944.458 106.184 946.548 111.089C948.629 115.975 949.482 122.442 948.548 129.316Z" fill="#745EFF" stroke="black" stroke-width="2"/>
<path d="M818.513 167.183C815.958 173.6 816.838 194.314 823.6 210.23C827.384 219.138 832.773 228.865 845.661 228.865C871.355 228.865 837.232 207.824 845.661 196.904C849.832 191.499 856.25 193.637 876.162 193.637" stroke="black" stroke-width="2"/>
<path d="M833.432 164.916C827.027 166.66 823.097 162.041 822.048 159.051L838.836 162.034C838.836 162.034 837.713 163.75 833.432 164.916Z" fill="#E47C84" stroke="black" stroke-width="2"/>
<path d="M906.129 161.68C909.315 168.693 918.588 173.258 921.919 176.455C932.014 186.144 930.976 189.431 930.976 194.164L911.979 194.164" stroke="black" stroke-width="2"/>
<path d="M816.398 106.05C817.194 96.7919 813.247 96.9932 811.173 98.2512C805.948 105.296 796.467 143.703 800.448 144.961C804.429 146.219 809.408 141.746 810.854 137.215C811.718 134.506 815.403 117.623 816.398 106.05Z" fill="#A8FFDA" stroke="black" stroke-width="2"/>
<path d="M803.188 122.978C802.555 125.969 801.971 129.05 802.082 131.527C802.138 132.759 802.363 133.74 802.763 134.456C803.14 135.13 803.7 135.623 804.589 135.877C806.466 136.414 808.011 135.815 809.257 134.223C810.544 132.579 811.472 129.898 811.883 126.469C811.955 125.864 812.029 125.278 812.101 124.709C812.243 123.591 812.376 122.536 812.473 121.532C812.618 120.021 812.67 118.716 812.546 117.622C812.422 116.531 812.134 115.744 811.677 115.183C811.232 114.639 810.527 114.186 809.333 113.951C808.169 113.722 806.986 114.323 805.85 115.973C804.723 117.608 803.802 120.075 803.188 122.978Z" fill="#1E1E1E" stroke="black" stroke-width="2"/>
<path d="M812.788 120.493C812.332 115.078 808.637 118.764 807.049 120.517C806.87 117.627 804.481 113.477 802.305 117.938C799.584 123.514 803.605 132.247 803.975 132.27C804.346 132.292 813.358 127.261 812.788 120.493Z" fill="#E47C84" stroke="black" stroke-width="2"/>
<path d="M858.958 70.2698C862.295 70.2033 867.246 74.6357 869.305 76.8602L854.119 89.8756C840.715 92.1004 813.464 95.3555 813.464 95.3555C815.908 91.1012 821.679 86.2704 821.679 86.2704L817.928 83.3721C817.928 83.3721 822.302 81.2016 826.805 82.276C829.861 83.0052 823.834 79.9475 824.835 79.3633C831.333 75.5753 831.437 76.9438 837.611 79.3633C842.55 81.2989 845.832 78.7236 846.944 76.8602C847.683 71.819 844.903 71.1101 843.795 71.025C843.649 71.0219 843.504 71.0203 843.357 71.0203C843.357 71.0203 843.527 71.0045 843.795 71.025C848.106 71.1187 852.019 72.5846 856.539 74.4409C860.277 75.976 859.709 72.2998 858.958 70.2698Z" fill="#23FFA3"/>
<path d="M872.091 81.2859C866.343 73.4832 862.19 70.6373 858.908 70.5405C861.173 72.9752 858.222 75.8929 853.91 72.7289C850.459 70.1976 845.31 70.7358 843.167 71.3213C843.167 71.3213 849.1 73.6303 845.751 78.1399C844.216 79.7164 839.885 81.4936 835.394 78.1399C832.665 76.1024 827.083 76.7846 824.292 79.9477C824.292 79.9477 828.588 80.8495 827.269 82.2425C825.537 84.0718 821.313 78.895 818.15 83.9187C818.15 83.9187 820.931 84.4386 820.931 86.396" stroke="#010101" stroke-width="2"/>
<path d="M416.671 170.771C414.385 168.785 409.016 166.314 406.429 161.228C403.771 156.007 405.004 151.245 405.004 148.05C405.004 143.744 401.384 140.25 396.92 140.25C392.455 140.25 388.835 143.744 388.835 148.05C388.835 150.727 388.511 157.764 387.599 161.418C387.322 162.525 386.914 163.119 386.607 163.535C385.428 165.134 382.065 166.979 378.701 164.747C377.749 164.141 376.912 163.066 376.503 161.745C375.638 158.94 376.604 150.806 376.236 147.293C376.233 147.263 376.229 147.234 376.226 147.204C376.165 146.657 376.071 146.179 375.925 145.782C374.919 142.58 371.836 140.25 368.189 140.25C363.725 140.25 360.105 143.744 360.105 148.05C360.105 150.36 361.145 152.435 362.803 153.864C365.089 155.85 370.458 158.321 373.045 163.407C375.699 168.628 374.467 173.389 374.467 176.585C374.467 180.891 378.087 184.385 382.551 184.385C385.935 184.385 388.835 182.376 390.037 179.524C391.959 175.29 388.832 167.857 391.55 162.316C392.084 161.228 392.678 160.677 393.279 160.149C394.532 159.058 398.48 157.836 401.31 161.106C402.029 162.034 402.231 162.748 402.404 163.456C403.126 166.461 402.468 175.959 403.545 178.859C404.555 182.054 407.634 184.378 411.275 184.378C415.739 184.378 419.359 180.884 419.359 176.578C419.359 174.268 418.319 172.193 416.661 170.764L416.671 170.771Z" fill="white"/>
<path d="M353.835 184.388C358.299 184.388 361.919 180.898 361.919 176.589C361.919 172.279 358.299 168.789 353.835 168.789C349.37 168.789 345.75 172.279 345.75 176.589C345.75 180.898 349.37 184.388 353.835 184.388Z" fill="white"/>
<path fill-rule="evenodd" clip-rule="evenodd" d="M436.963 151.277H431.283C430.952 151.277 430.684 151.534 430.684 151.851V183.805C430.684 184.122 430.952 184.379 431.283 184.379H436.963C437.294 184.379 437.562 184.122 437.562 183.805V161.622L445.741 170.446C445.765 170.479 445.793 170.51 445.825 170.536L445.839 170.553L448.819 173.766L448.836 173.783L449.537 174.537C449.785 174.749 450.164 174.725 450.381 174.49L462.307 161.622V183.805C462.307 184.122 462.575 184.379 462.906 184.379H468.586C468.917 184.379 469.185 184.122 469.185 183.805V151.851C469.185 151.534 468.917 151.277 468.586 151.277H462.906C462.673 151.277 462.472 151.404 462.373 151.59L450.517 164.49C450.255 164.775 449.796 164.775 449.53 164.493L437.524 151.637C437.521 151.634 437.518 151.631 437.515 151.628C437.425 151.422 437.212 151.277 436.963 151.277Z" fill="white"/>
<path d="M487.874 156.792C480.055 156.792 473.718 162.966 473.718 170.584C473.718 178.201 480.055 184.376 487.874 184.376C495.692 184.376 502.029 178.201 502.029 170.584C502.029 162.966 495.692 156.792 487.874 156.792ZM487.874 178.064C483.635 178.064 480.196 174.714 480.196 170.584C480.196 166.454 483.635 163.103 487.874 163.103C492.113 163.103 495.552 166.454 495.552 170.584C495.552 174.714 492.113 178.064 487.874 178.064Z" fill="white"/>
<path d="M543.567 156.792C540.776 156.792 538.179 157.589 536 158.957V157.375C536 157.06 535.734 156.802 535.409 156.802H529.799C529.474 156.802 529.208 157.06 529.208 157.375V189.319C529.208 189.635 529.474 189.893 529.799 189.893H535.409C535.734 189.893 536 189.635 536 189.319V181.679C538.179 183.047 540.776 183.845 543.567 183.845C551.273 183.845 557.519 177.79 557.519 170.32C557.519 162.85 551.273 156.795 543.567 156.795V156.792ZM543.567 177.652C539.393 177.652 536.007 174.376 536 170.33V170.3C536.007 166.256 539.393 162.977 543.567 162.977C547.742 162.977 551.134 166.263 551.134 170.313C551.134 174.363 547.745 177.649 543.567 177.649V177.652Z" fill="white"/>
<path d="M523.88 156.795H519.98C512.566 156.795 506.56 162.375 506.56 169.255V180.454C506.56 180.454 506.56 180.471 506.56 180.478V183.791C506.56 184.113 506.843 184.376 507.189 184.376H513.163C513.509 184.376 513.793 184.113 513.793 183.791V168.759C513.793 165.135 516.956 162.194 520.863 162.194H524.104C524.443 162.194 524.679 161.941 524.679 161.664V157.534C524.679 157.123 524.322 156.792 523.88 156.792V156.795Z" fill="white"/>
<path d="M574.785 155.215C572.61 155.215 570.56 155.752 568.771 156.695V149.644C568.771 149.329 568.508 149.071 568.186 149.071H562.637C562.316 149.071 562.052 149.329 562.052 149.644V167.518C562.052 167.582 562.049 167.646 562.049 167.706V177.634H562.052V181.599C562.052 181.914 562.316 182.172 562.637 182.172H568.186C568.508 182.172 568.771 181.914 568.771 181.599V167.461C568.771 164.489 571.228 161.709 574.245 161.447C577.81 161.142 580.803 163.889 580.803 167.324V181.612C580.803 181.921 581.056 182.169 581.371 182.169H586.958C587.272 182.169 587.529 181.917 587.529 181.609V167.703C587.529 160.803 581.826 155.212 574.789 155.212L574.785 155.215Z" fill="white"/>
<path d="M734.745 174.222C734.745 176.065 734.297 177.666 733.402 179.027C732.508 180.388 731.201 181.437 729.482 182.174C727.777 182.911 725.704 183.279 723.26 183.279C722.181 183.279 721.123 183.208 720.086 183.067C719.063 182.925 718.076 182.719 717.124 182.45C716.187 182.166 715.292 181.819 714.439 181.408V175.285C715.917 175.937 717.451 176.525 719.042 177.05C720.633 177.574 722.209 177.836 723.772 177.836C724.851 177.836 725.718 177.695 726.371 177.411C727.039 177.128 727.522 176.738 727.82 176.242C728.118 175.746 728.268 175.179 728.268 174.541C728.268 173.761 728.005 173.095 727.479 172.542C726.954 171.989 726.229 171.472 725.306 170.99C724.397 170.508 723.367 169.991 722.216 169.438C721.492 169.098 720.704 168.687 719.851 168.205C718.999 167.709 718.189 167.107 717.422 166.398C716.655 165.689 716.023 164.832 715.526 163.825C715.043 162.805 714.802 161.586 714.802 160.168C714.802 158.312 715.228 156.724 716.08 155.406C716.932 154.088 718.147 153.081 719.724 152.387C721.314 151.678 723.189 151.324 725.348 151.324C726.968 151.324 728.509 151.515 729.972 151.898C731.449 152.266 732.99 152.805 734.596 153.514L732.465 158.638C731.03 158.056 729.745 157.61 728.608 157.298C727.472 156.972 726.314 156.809 725.135 156.809C724.312 156.809 723.608 156.944 723.026 157.213C722.444 157.468 722.003 157.837 721.705 158.319C721.407 158.786 721.258 159.332 721.258 159.956C721.258 160.693 721.471 161.316 721.897 161.827C722.337 162.323 722.991 162.805 723.857 163.272C724.738 163.74 725.831 164.286 727.138 164.91C728.729 165.661 730.086 166.447 731.208 167.27C732.344 168.077 733.218 169.034 733.829 170.14C734.439 171.231 734.745 172.592 734.745 174.222Z" fill="white"/>
<path d="M701.77 156.809C700.506 156.809 699.383 157.057 698.403 157.553C697.437 158.035 696.621 158.737 695.953 159.658C695.3 160.579 694.802 161.692 694.462 162.996C694.121 164.3 693.95 165.767 693.95 167.397C693.95 169.594 694.22 171.472 694.76 173.031C695.314 174.576 696.166 175.76 697.317 176.582C698.467 177.39 699.952 177.794 701.77 177.794C703.034 177.794 704.298 177.652 705.562 177.369C706.841 177.085 708.226 176.681 709.717 176.157V181.685C708.339 182.252 706.983 182.655 705.648 182.896C704.312 183.152 702.814 183.279 701.152 183.279C697.942 183.279 695.3 182.62 693.226 181.302C691.166 179.969 689.639 178.113 688.645 175.731C687.65 173.336 687.153 170.544 687.153 167.355C687.153 165.002 687.473 162.847 688.112 160.891C688.751 158.935 689.689 157.241 690.925 155.81C692.16 154.378 693.687 153.273 695.506 152.493C697.324 151.714 699.412 151.324 701.77 151.324C703.318 151.324 704.866 151.522 706.415 151.919C707.977 152.302 709.469 152.833 710.889 153.514L708.758 158.871C707.594 158.319 706.422 157.837 705.243 157.426C704.064 157.015 702.906 156.809 701.77 156.809Z" fill="white"/>
<path d="M682.075 167.266C682.075 169.661 681.777 171.844 681.18 173.814C680.584 175.77 679.674 177.457 678.453 178.874C677.245 180.292 675.711 181.383 673.851 182.148C671.99 182.9 669.788 183.275 667.246 183.275C664.703 183.275 662.501 182.9 660.64 182.148C658.78 181.383 657.238 180.292 656.017 178.874C654.809 177.457 653.907 175.763 653.311 173.793C652.714 171.823 652.416 169.633 652.416 167.223C652.416 164.006 652.942 161.206 653.993 158.825C655.058 156.43 656.692 154.573 658.893 153.255C661.095 151.936 663.893 151.277 667.288 151.277C670.669 151.277 673.446 151.936 675.619 153.255C677.807 154.573 679.426 156.43 680.477 158.825C681.542 161.22 682.075 164.034 682.075 167.266ZM659.341 167.266C659.341 169.434 659.611 171.305 660.15 172.879C660.704 174.438 661.564 175.643 662.728 176.493C663.893 177.329 665.399 177.747 667.246 177.747C669.121 177.747 670.64 177.329 671.805 176.493C672.97 175.643 673.815 174.438 674.341 172.879C674.88 171.305 675.15 169.434 675.15 167.266C675.15 164.006 674.54 161.44 673.318 159.569C672.096 157.698 670.086 156.763 667.288 156.763C665.427 156.763 663.907 157.188 662.728 158.038C661.564 158.875 660.704 160.079 660.15 161.653C659.611 163.212 659.341 165.083 659.341 167.266Z" fill="white"/>
<path d="M647.344 167.022C647.344 170.523 646.67 173.45 645.32 175.803C643.985 178.142 642.046 179.906 639.503 181.097C636.961 182.274 633.9 182.862 630.32 182.862H621.499V151.778H631.279C634.546 151.778 637.38 152.359 639.78 153.521C642.181 154.67 644.042 156.378 645.363 158.645C646.684 160.899 647.344 163.691 647.344 167.022ZM640.484 167.192C640.484 164.896 640.143 163.011 639.461 161.537C638.793 160.049 637.799 158.95 636.478 158.241C635.171 157.533 633.552 157.178 631.62 157.178H628.104V177.419H630.938C634.163 177.419 636.556 176.561 638.118 174.846C639.695 173.131 640.484 170.58 640.484 167.192Z" fill="white"/>
<path d="M604.511 146.297L604.511 187.122" stroke="white" stroke-width="8"/>
</g>
<defs>
<linearGradient id="paint0_linear_1703_51191" x1="637.523" y1="329.946" x2="637.523" y2="-57.6387" gradientUnits="userSpaceOnUse">
<stop stop-color="#664EF1"/>
<stop offset="0.389062" stop-color="#3A2E83"/>
<stop offset="1" stop-color="#17132B"/>
</linearGradient>
<linearGradient id="paint1_linear_1703_51191" x1="79.2595" y1="282.825" x2="93.985" y2="249.694" gradientUnits="userSpaceOnUse">
<stop offset="0.26" stop-color="#40F0C1"/>
<stop offset="1" stop-color="#BFFD3E"/>
</linearGradient>
<linearGradient id="paint2_linear_1703_51191" x1="72.1292" y1="280.398" x2="83.2699" y2="249.679" gradientUnits="userSpaceOnUse">
<stop stop-color="#40F0C1"/>
<stop offset="1" stop-color="#BFFD3E"/>
</linearGradient>
<linearGradient id="paint3_linear_1703_51191" x1="1029.07" y1="92.7053" x2="1041.53" y2="76.539" gradientUnits="userSpaceOnUse">
<stop offset="0.26" stop-color="#40F0C1"/>
<stop offset="1" stop-color="#BFFD3E"/>
</linearGradient>
<linearGradient id="paint4_linear_1703_51191" x1="1026.01" y1="90.8308" x2="1036.23" y2="75.0234" gradientUnits="userSpaceOnUse">
<stop stop-color="#40F0C1"/>
<stop offset="1" stop-color="#BFFD3E"/>
</linearGradient>
</defs>
</svg>
