<svg width="549" height="122" viewBox="0 0 549 122" fill="none" xmlns="http://www.w3.org/2000/svg">
<mask id="path-1-inside-1_401_98" fill="white">
<path fill-rule="evenodd" clip-rule="evenodd" d="M171.394 77.3046C173.599 78.8591 175.549 80.2339 176.988 81.5255L176.963 81.5094C180.917 85.0311 183.397 90.1441 183.397 95.8387C183.397 106.452 174.765 115.063 164.121 115.063C155.441 115.063 148.098 109.336 145.69 101.461C144.27 97.5061 144.115 88.5758 143.969 80.1311C143.851 73.3103 143.739 66.8063 142.969 63.4967C142.558 61.752 142.075 59.9911 140.36 57.7052C133.613 49.644 124.2 52.6568 121.213 55.3466C119.78 56.6471 118.363 58.0041 117.09 60.6858C113.577 68.0894 114.159 76.8624 114.699 85.007C115.155 91.8883 115.581 98.321 113.483 103.1C110.617 110.128 103.7 115.079 95.6325 115.079C84.988 115.079 76.3565 106.469 76.3565 95.8549C76.3565 94.1151 76.5 92.1869 76.6552 90.0996C77.2027 82.7387 77.8973 73.4004 72.9667 63.3756C68.4265 54.1473 60.291 48.4119 54.1393 44.0751C51.9342 42.5206 49.984 41.1457 48.5457 39.8541C44.5923 36.3324 42.1123 31.2194 42.1123 25.5248C42.1123 14.9111 50.7438 6.30054 61.3883 6.30054C70.0842 6.30054 77.4355 12.0436 79.8349 19.9352C80.1811 20.9126 80.4066 22.0919 80.5515 23.4408L80.5757 23.6589C80.9411 27.2641 80.7551 32.8436 80.5624 38.6274C80.2923 46.7353 80.0087 55.2448 81.2118 59.2803C82.186 62.5355 84.1829 65.1849 86.4535 66.6792C94.473 72.18 102.493 67.6324 105.303 63.6906C106.035 62.6648 107.01 61.2028 107.67 58.4726C109.844 49.4663 110.617 32.124 110.617 25.5248C110.617 14.9111 119.248 6.30054 129.893 6.30054C140.537 6.30054 149.169 14.9111 149.169 25.5248C149.169 27.2635 149.025 29.1904 148.87 31.2762C148.323 38.6377 147.629 47.9776 152.567 58.0041C157.107 67.2324 165.242 72.9678 171.394 77.3046ZM46.4361 95.8549C46.4361 106.477 37.8046 115.079 27.1602 115.079C16.5158 115.079 7.88425 106.477 7.88425 95.8549C7.88425 85.2331 16.5158 76.6306 27.1602 76.6306C37.8046 76.6306 46.4361 85.2331 46.4361 95.8549Z"/>
</mask>
<path fill-rule="evenodd" clip-rule="evenodd" d="M171.394 77.3046C173.599 78.8591 175.549 80.2339 176.988 81.5255L176.963 81.5094C180.917 85.0311 183.397 90.1441 183.397 95.8387C183.397 106.452 174.765 115.063 164.121 115.063C155.441 115.063 148.098 109.336 145.69 101.461C144.27 97.5061 144.115 88.5758 143.969 80.1311C143.851 73.3103 143.739 66.8063 142.969 63.4967C142.558 61.752 142.075 59.9911 140.36 57.7052C133.613 49.644 124.2 52.6568 121.213 55.3466C119.78 56.6471 118.363 58.0041 117.09 60.6858C113.577 68.0894 114.159 76.8624 114.699 85.007C115.155 91.8883 115.581 98.321 113.483 103.1C110.617 110.128 103.7 115.079 95.6325 115.079C84.988 115.079 76.3565 106.469 76.3565 95.8549C76.3565 94.1151 76.5 92.1869 76.6552 90.0996C77.2027 82.7387 77.8973 73.4004 72.9667 63.3756C68.4265 54.1473 60.291 48.4119 54.1393 44.0751C51.9342 42.5206 49.984 41.1457 48.5457 39.8541C44.5923 36.3324 42.1123 31.2194 42.1123 25.5248C42.1123 14.9111 50.7438 6.30054 61.3883 6.30054C70.0842 6.30054 77.4355 12.0436 79.8349 19.9352C80.1811 20.9126 80.4066 22.0919 80.5515 23.4408L80.5757 23.6589C80.9411 27.2641 80.7551 32.8436 80.5624 38.6274C80.2923 46.7353 80.0087 55.2448 81.2118 59.2803C82.186 62.5355 84.1829 65.1849 86.4535 66.6792C94.473 72.18 102.493 67.6324 105.303 63.6906C106.035 62.6648 107.01 61.2028 107.67 58.4726C109.844 49.4663 110.617 32.124 110.617 25.5248C110.617 14.9111 119.248 6.30054 129.893 6.30054C140.537 6.30054 149.169 14.9111 149.169 25.5248C149.169 27.2635 149.025 29.1904 148.87 31.2762C148.323 38.6377 147.629 47.9776 152.567 58.0041C157.107 67.2324 165.242 72.9678 171.394 77.3046ZM46.4361 95.8549C46.4361 106.477 37.8046 115.079 27.1602 115.079C16.5158 115.079 7.88425 106.477 7.88425 95.8549C7.88425 85.2331 16.5158 76.6306 27.1602 76.6306C37.8046 76.6306 46.4361 85.2331 46.4361 95.8549Z" fill="url(#paint0_linear_401_98)"/>
<path d="M176.988 81.5255L176.71 81.9412L177.322 81.1535L176.988 81.5255ZM171.394 77.3046L171.106 77.7132L171.106 77.7132L171.394 77.3046ZM176.963 81.5094L177.241 81.0937L176.631 81.8827L176.963 81.5094ZM145.69 101.461L146.169 101.314L146.165 101.303L146.161 101.292L145.69 101.461ZM143.969 80.1311L143.469 80.1397L143.469 80.1397L143.969 80.1311ZM142.969 63.4967L143.456 63.3834L143.456 63.3822L142.969 63.4967ZM140.36 57.7052L140.76 57.4052L140.752 57.3945L140.744 57.3843L140.36 57.7052ZM121.213 55.3466L120.878 54.9751L120.877 54.9763L121.213 55.3466ZM117.09 60.6858L117.542 60.9002L117.542 60.9001L117.09 60.6858ZM114.699 85.007L115.198 84.9739L115.198 84.9739L114.699 85.007ZM113.483 103.1L113.025 102.899L113.02 102.911L113.483 103.1ZM76.6552 90.0996L76.1566 90.0626L76.1566 90.0626L76.6552 90.0996ZM72.9667 63.3756L73.4154 63.1549L73.4154 63.1548L72.9667 63.3756ZM54.1393 44.0751L54.4274 43.6664L54.4274 43.6664L54.1393 44.0751ZM48.5457 39.8541L48.8798 39.4821L48.8783 39.4808L48.5457 39.8541ZM79.8349 19.9352L79.3565 20.0807L79.3598 20.0915L79.3636 20.1022L79.8349 19.9352ZM80.5515 23.4408L80.0544 23.4942L80.0546 23.4959L80.5515 23.4408ZM80.5757 23.6589L81.0731 23.6085L81.0726 23.6039L80.5757 23.6589ZM80.5624 38.6274L80.0627 38.6107L80.0627 38.6107L80.5624 38.6274ZM81.2118 59.2803L80.7326 59.4232L80.7327 59.4237L81.2118 59.2803ZM86.4535 66.6792L86.7363 66.2668L86.7283 66.2616L86.4535 66.6792ZM105.303 63.6906L104.896 63.4L104.896 63.4004L105.303 63.6906ZM107.67 58.4726L108.156 58.5901L108.156 58.5899L107.67 58.4726ZM148.87 31.2762L148.372 31.2391L148.372 31.2391L148.87 31.2762ZM152.567 58.0041L153.015 57.7834L153.015 57.7832L152.567 58.0041ZM177.322 81.1535C175.857 79.8379 173.879 78.4445 171.682 76.8959L171.106 77.7132C173.319 79.2737 175.242 80.63 176.654 81.8975L177.322 81.1535ZM176.686 81.925L176.71 81.9412L177.266 81.1099L177.241 81.0937L176.686 81.925ZM183.897 95.8387C183.897 89.9955 181.351 84.7486 177.296 81.136L176.631 81.8827C180.482 85.3137 182.897 90.2928 182.897 95.8387H183.897ZM164.121 115.563C175.04 115.563 183.897 106.73 183.897 95.8387H182.897C182.897 106.175 174.49 114.563 164.121 114.563V115.563ZM145.212 101.607C147.682 109.687 155.216 115.563 164.121 115.563V114.563C155.666 114.563 148.513 108.985 146.169 101.314L145.212 101.607ZM143.469 80.1397C143.542 84.3592 143.617 88.7148 143.853 92.5106C144.087 96.2892 144.482 99.5771 145.22 101.63L146.161 101.292C145.478 99.3896 145.085 96.2351 144.851 92.4488C144.617 88.6796 144.542 84.3477 144.469 80.1224L143.469 80.1397ZM142.482 63.61C142.856 65.2164 143.075 67.6296 143.214 70.5212C143.353 73.4043 143.41 76.7272 143.469 80.1397L144.469 80.1224C144.41 76.7142 144.352 73.3747 144.213 70.4732C144.074 67.5802 143.852 65.0865 143.456 63.3834L142.482 63.61ZM139.96 58.0053C141.616 60.2125 142.079 61.8976 142.482 63.6113L143.456 63.3822C143.038 61.6064 142.534 59.7697 140.76 57.4052L139.96 58.0053ZM121.548 55.7182C122.944 54.4603 125.927 53.0734 129.388 52.9942C132.82 52.9155 136.709 54.1225 139.977 58.0262L140.744 57.3843C137.264 53.2267 133.073 51.9095 129.365 51.9944C125.686 52.0787 122.469 53.5431 120.878 54.9751L121.548 55.7182ZM117.542 60.9001C118.773 58.3055 120.134 57.0007 121.549 55.7169L120.877 54.9763C119.425 56.2935 117.952 57.7027 116.639 60.4715L117.542 60.9001ZM115.198 84.9739C114.656 76.7992 114.095 68.165 117.542 60.9002L116.639 60.4714C113.06 68.0138 113.662 76.9256 114.2 85.04L115.198 84.9739ZM113.941 103.301C115.027 100.828 115.449 97.953 115.549 94.858C115.648 91.763 115.425 88.4087 115.198 84.9739L114.2 85.04C114.428 88.4865 114.647 91.7893 114.549 94.8258C114.451 97.8623 114.038 100.593 113.025 102.899L113.941 103.301ZM95.6325 115.579C103.91 115.579 111.005 110.499 113.946 103.289L113.02 102.911C110.228 109.757 103.491 114.579 95.6325 114.579V115.579ZM75.8565 95.8549C75.8565 106.746 84.7131 115.579 95.6325 115.579V114.579C85.2629 114.579 76.8565 106.191 76.8565 95.8549H75.8565ZM76.1566 90.0626C76.0017 92.1449 75.8565 94.0928 75.8565 95.8549H76.8565C76.8565 94.1373 76.9982 92.2289 77.1538 90.1367L76.1566 90.0626ZM72.5181 63.5963C77.3829 73.4873 76.7042 82.7009 76.1566 90.0626L77.1538 90.1367C77.7013 82.7766 78.4118 73.3134 73.4154 63.1549L72.5181 63.5963ZM53.8512 44.4837C60.014 48.8284 68.0419 54.4981 72.5181 63.5963L73.4154 63.1548C68.8111 53.7965 60.568 47.9955 54.4274 43.6664L53.8512 44.4837ZM48.2116 40.2262C49.6767 41.5418 51.6546 42.9352 53.8512 44.4837L54.4274 43.6664C52.2139 42.1059 50.2914 40.7497 48.8798 39.4821L48.2116 40.2262ZM41.6123 25.5248C41.6123 31.368 44.1578 36.6149 48.2131 40.2275L48.8783 39.4808C45.0268 36.0498 42.6123 31.0707 42.6123 25.5248H41.6123ZM61.3883 5.80054C50.4689 5.80054 41.6123 14.6337 41.6123 25.5248H42.6123C42.6123 15.1884 51.0188 6.80054 61.3883 6.80054V5.80054ZM80.3133 19.7898C77.8514 11.6926 70.3096 5.80054 61.3883 5.80054V6.80054C69.8588 6.80054 77.0196 12.3945 79.3565 20.0807L80.3133 19.7898ZM81.0487 23.3874C80.9016 22.0185 80.6705 20.7966 80.3062 19.7683L79.3636 20.1022C79.6918 21.0286 79.9116 22.1653 80.0544 23.4942L81.0487 23.3874ZM81.0726 23.6039L81.0485 23.3858L80.0546 23.4959L80.0787 23.714L81.0726 23.6039ZM81.0621 38.644C81.2543 32.8763 81.4428 27.2555 81.0731 23.6085L80.0782 23.7093C80.4394 27.2727 80.256 32.8108 80.0627 38.6107L81.0621 38.644ZM81.6909 59.1375C81.1115 57.1939 80.8803 54.1215 80.8346 50.4747C80.789 46.8431 80.927 42.7009 81.0621 38.644L80.0627 38.6107C79.9277 42.6617 79.7888 46.8283 79.8347 50.4873C79.8804 54.1311 80.1089 57.3312 80.7326 59.4232L81.6909 59.1375ZM86.7283 66.2616C84.5649 64.8378 82.6346 62.2903 81.6908 59.137L80.7327 59.4237C81.7375 62.7807 83.8008 65.5321 86.1786 67.0969L86.7283 66.2616ZM104.896 63.4004C103.557 65.2786 100.945 67.3333 97.6966 68.2444C94.4688 69.1498 90.6141 68.9267 86.7363 66.2669L86.1706 67.0916C90.3124 69.9325 94.4773 70.186 97.9667 69.2073C101.435 68.2344 104.239 66.0444 105.71 63.9808L104.896 63.4004ZM107.184 58.3551C106.544 61.0019 105.606 62.4051 104.896 63.4L105.71 63.9812C106.464 62.9244 107.475 61.4036 108.156 58.5901L107.184 58.3551ZM110.117 25.5248C110.117 32.1201 109.343 49.411 107.184 58.3553L108.156 58.5899C110.345 49.5215 111.117 32.128 111.117 25.5248H110.117ZM129.893 5.80054C118.973 5.80054 110.117 14.6337 110.117 25.5248H111.117C111.117 15.1884 119.523 6.80054 129.893 6.80054V5.80054ZM149.669 25.5248C149.669 14.6337 140.812 5.80054 129.893 5.80054V6.80054C140.262 6.80054 148.669 15.1884 148.669 25.5248H149.669ZM149.369 31.3132C149.524 29.2324 149.669 27.2857 149.669 25.5248H148.669C148.669 27.2413 148.527 29.1485 148.372 31.2391L149.369 31.3132ZM153.015 57.7832C148.143 47.8905 148.822 38.6755 149.369 31.3132L148.372 31.2391C147.825 38.5999 147.114 48.0647 152.118 58.225L153.015 57.7832ZM171.682 76.8959C165.519 72.5513 157.491 66.8816 153.015 57.7834L152.118 58.2248C156.722 67.5832 164.965 73.3842 171.106 77.7132L171.682 76.8959ZM27.1602 115.579C38.0794 115.579 46.9361 106.754 46.9361 95.8549H45.9361C45.9361 106.199 37.5299 114.579 27.1602 114.579V115.579ZM7.38425 95.8549C7.38425 106.754 16.241 115.579 27.1602 115.579V114.579C16.7905 114.579 8.38425 106.199 8.38425 95.8549H7.38425ZM27.1602 76.1306C16.241 76.1306 7.38425 84.9556 7.38425 95.8549H8.38425C8.38425 85.5106 16.7905 77.1306 27.1602 77.1306V76.1306ZM46.9361 95.8549C46.9361 84.9556 38.0794 76.1306 27.1602 76.1306V77.1306C37.5299 77.1306 45.9361 85.5106 45.9361 95.8549H46.9361Z" fill="#00C08D" mask="url(#path-1-inside-1_401_98)"/>
<path fill-rule="evenodd" clip-rule="evenodd" d="M220.321 24.0194H208.319C207.62 24.0194 207.054 24.5877 207.054 25.2888V96.0181C207.054 96.7192 207.62 97.2875 208.319 97.2875H220.321C221.02 97.2875 221.587 96.7192 221.587 96.0181V46.8649L238.872 66.3991C238.924 66.4733 238.983 66.5401 239.05 66.5995L239.08 66.6366L245.377 73.7482L245.414 73.7853L246.894 75.4555C247.419 75.9232 248.218 75.8713 248.677 75.3516L273.881 46.8666V96.0181C273.881 96.7192 274.447 97.2875 275.146 97.2875H287.148C287.847 97.2875 288.414 96.7192 288.414 96.0181V25.2888C288.414 24.5877 287.847 24.0194 287.148 24.0194H275.146C274.727 24.0194 274.355 24.224 274.125 24.539L248.966 53.2153C248.411 53.8463 247.441 53.8463 246.879 53.2227L221.51 24.7675C221.486 24.7407 221.463 24.7164 221.44 24.6945C221.227 24.2929 220.806 24.0194 220.321 24.0194Z" fill="#5B5B5B"/>
<path d="M329.371 37.3962C312.885 37.3962 299.521 50.8027 299.521 67.3419C299.521 83.881 312.885 97.2875 329.371 97.2875C345.858 97.2875 359.222 83.881 359.222 67.3419C359.222 50.8027 345.858 37.3962 329.371 37.3962ZM329.371 83.5841C320.432 83.5841 313.181 76.3093 313.181 67.3419C313.181 58.3745 320.432 51.0997 329.371 51.0997C338.31 51.0997 345.562 58.3745 345.562 67.3419C345.562 76.3093 338.31 83.5841 329.371 83.5841Z" fill="#5B5B5B"/>
<path d="M448.567 37.3962C442.595 37.3962 437.038 39.163 432.376 42.1917V38.6879C432.376 37.9901 431.806 37.4185 431.11 37.4185H419.108C418.413 37.4185 417.843 37.9901 417.843 38.6879V109.417C417.843 110.115 418.413 110.687 419.108 110.687H431.11C431.806 110.687 432.376 110.115 432.376 109.417V92.4995C437.038 95.5282 442.595 97.295 448.567 97.295C465.053 97.295 478.417 83.8885 478.417 67.3493C478.417 50.8102 465.053 37.4037 448.567 37.4037V37.3962ZM448.567 83.5841C439.635 83.5841 432.391 76.3315 432.376 67.3716V67.3048C432.391 58.3523 439.635 51.0923 448.567 51.0923C457.498 51.0923 464.757 58.3671 464.757 67.3345C464.757 76.3018 457.505 83.5767 448.567 83.5767V83.5841Z" fill="#5B5B5B"/>
<path d="M405.137 37.4111H397.301C382.405 37.4111 370.336 49.526 370.336 64.4617V88.773C370.336 88.773 370.336 88.8101 370.336 88.825V96.0182C370.336 96.716 370.906 97.2876 371.602 97.2876H383.604C384.3 97.2876 384.869 96.716 384.869 96.0182V63.3853C384.869 55.5166 391.226 49.1325 399.077 49.1325H405.589C406.27 49.1325 406.743 48.5832 406.743 47.9819V39.0145C406.743 38.1237 406.025 37.4037 405.137 37.4037V37.4111Z" fill="#5B5B5B"/>
<path d="M516.962 37.6189C512.256 37.6189 507.824 38.8066 503.954 40.8926V25.2888C503.954 24.591 503.384 24.0194 502.688 24.0194H490.686C489.99 24.0194 489.42 24.591 489.42 25.2888V64.8476C489.42 64.9887 489.413 65.1297 489.413 65.2633V87.2363H489.42V96.0107C489.42 96.7085 489.99 97.2801 490.686 97.2801H502.688C503.384 97.2801 503.954 96.7085 503.954 96.0107V64.7214C503.954 58.1444 509.267 51.9905 515.793 51.4114C523.504 50.7359 529.978 56.8156 529.978 64.4171V96.0404C529.978 96.7233 530.526 97.2727 531.207 97.2727H543.291C543.971 97.2727 544.526 96.7159 544.526 96.033V65.2559C544.526 49.9862 532.191 37.6115 516.97 37.6115L516.962 37.6189Z" fill="#5B5B5B"/>
<defs>
<linearGradient id="paint0_linear_401_98" x1="-14.2098" y1="160.232" x2="101.246" y2="-18.2839" gradientUnits="userSpaceOnUse">
<stop stop-color="#40F0C1"/>
<stop offset="1" stop-color="#BFFD3E"/>
</linearGradient>
</defs>
</svg>
