
<svg width="175" height="32" viewBox="0 0 175 32" fill="none" xmlns="http://www.w3.org/2000/svg">
<path d="M120.848 24V9.3H125.972C129.899 9.3 132.44 12.345 132.44 16.461C132.44 21.165 129.899 24 125.972 24H120.848ZM126.014 23.076C128.954 23.076 131.369 21.123 131.369 16.461C131.369 12.429 128.954 10.224 126.014 10.224H122.465C122.066 10.224 121.835 10.455 121.835 10.854V22.446C121.835 22.845 122.066 23.076 122.465 23.076H126.014ZM140.787 24.168C137.28 24.168 134.739 20.535 134.739 16.65C134.739 12.765 137.259 9.132 140.766 9.132H142.047C145.575 9.132 148.158 12.744 148.158 16.65C148.158 20.556 145.533 24.168 142.005 24.168H140.787ZM142.005 23.244C144.924 23.244 147.087 20.178 147.087 16.65C147.087 13.101 144.966 10.056 142.047 10.056H140.787C137.868 10.056 135.81 13.101 135.81 16.65C135.81 20.199 137.868 23.244 140.787 23.244H142.005ZM156.294 24.168C153.564 24.168 150.456 21.522 150.456 16.65C150.456 11.757 153.711 9.132 156.399 9.132H157.659C160.095 9.132 162.342 11.253 162.657 14.277H161.649C161.418 11.778 159.591 10.056 157.659 10.056H156.42C153.879 10.056 151.527 12.681 151.527 16.65C151.527 20.598 153.753 23.244 156.294 23.244H157.533C159.507 23.244 161.397 21.27 161.67 19.023H162.678C162.384 21.753 160.095 24.168 157.533 24.168H156.294ZM169.249 24.168C166.855 24.168 164.923 22.551 164.776 19.863H165.784C165.952 22.047 167.443 23.244 169.186 23.244H170.446C171.685 23.244 173.533 22.341 173.533 20.157C173.533 15.81 165.091 17.721 165.091 12.723C165.091 10.518 166.981 9.132 168.955 9.132H170.173C172.357 9.132 173.995 10.245 174.352 12.828H173.344C173.008 10.959 171.979 10.056 170.173 10.056H168.955C167.59 10.056 166.162 11.022 166.162 12.723C166.162 16.944 174.604 14.802 174.604 20.157C174.604 22.761 172.231 24.168 170.446 24.168H169.249Z" fill="white"/>
<path fill-rule="evenodd" clip-rule="evenodd" d="M109 25L109 7L111 7L111 25L109 25Z" fill="white"/>
<path d="M87.892 4.05664H90.1202V9.73509C90.1202 9.98306 90.2001 10.1318 90.3598 10.1814C90.5196 10.2145 90.7112 10.1153 90.9349 9.88387C91.2703 9.52019 91.6377 9.23916 92.037 9.04078C92.4523 8.82588 92.9155 8.71843 93.4267 8.71843H94.4809C95.1678 8.71843 95.7987 8.92506 96.3737 9.33834C96.9488 9.75162 97.404 10.3219 97.7394 11.0493C98.0749 11.7602 98.2426 12.5619 98.2426 13.4546V21.4143H96.0143V13.7522C96.0143 13.1901 95.9265 12.6859 95.7508 12.2396C95.5751 11.7767 95.3195 11.4213 94.9841 11.1733C94.6486 10.9088 94.2653 10.7766 93.834 10.7766H92.9235C92.3804 10.7766 91.8933 10.9584 91.462 11.3221C91.0467 11.6858 90.7192 12.1734 90.4796 12.7851C90.24 13.3802 90.1202 14.0249 90.1202 14.7192V21.4143H87.892V4.05664Z" fill="white"/>
<path d="M81.0787 8.71826C82.069 8.71826 82.9476 8.99929 83.7143 9.56135C84.497 10.1234 85.104 10.9004 85.5352 11.8922C85.9825 12.8676 86.2061 13.9586 86.2061 15.1654C86.2061 16.3557 85.9905 17.4467 85.5592 18.4386C85.1279 19.4139 84.5209 20.1909 83.7382 20.7695C82.9715 21.3315 82.093 21.6126 81.1027 21.6126H80.4558C80.0405 21.6126 79.6172 21.5217 79.1859 21.3398C78.7546 21.1414 78.3633 20.8852 78.0119 20.5711C77.7882 20.3893 77.5965 20.3314 77.4368 20.3975C77.2931 20.4637 77.2212 20.6207 77.2212 20.8687V26.4727H74.9929V8.91664H77.2212V9.48696C77.2212 9.73493 77.301 9.89197 77.4608 9.9581C77.6205 10.0242 77.8042 9.96636 78.0119 9.78452C78.3633 9.4539 78.7466 9.19767 79.1619 9.01582C79.5932 8.81745 80.0245 8.71826 80.4558 8.71826H81.0787ZM80.0484 10.7268C79.4894 10.7268 78.9782 10.9169 78.515 11.2971C78.0678 11.6608 77.7084 12.1898 77.4368 12.8841C77.1653 13.5619 77.0295 14.3223 77.0295 15.1654C77.0295 16.0085 77.1653 16.7772 77.4368 17.4715C77.7084 18.1493 78.0678 18.6783 78.515 19.0585C78.9782 19.4222 79.4894 19.604 80.0484 19.604H80.911C81.4381 19.604 81.9253 19.4222 82.3725 19.0585C82.8358 18.6783 83.2031 18.1493 83.4747 17.4715C83.7622 16.7772 83.906 16.0085 83.906 15.1654C83.906 14.3223 83.7622 13.5619 83.4747 12.8841C83.2031 12.1898 82.8358 11.6608 82.3725 11.2971C81.9253 10.9169 81.4381 10.7268 80.911 10.7268H80.0484Z" fill="white"/>
<path d="M72.1242 10.8754C71.613 10.8754 71.1738 11.0573 70.8064 11.421C70.455 11.7681 70.1834 12.2145 69.9917 12.76C69.8001 13.289 69.7042 13.8097 69.7042 14.3222V21.414H67.476V8.9165H69.7042V9.58602C69.7042 9.85051 69.7761 10.0076 69.9199 10.0572C70.0636 10.0902 70.2233 10.0076 70.3991 9.80919C70.6386 9.49509 70.9022 9.27192 71.1897 9.13967C71.4932 8.99089 71.8686 8.9165 72.3158 8.9165H73.7774V10.8754H72.1242Z" fill="white"/>
<path d="M59.6892 21.6126C58.6988 21.6126 57.8043 21.3398 57.0057 20.7943C56.223 20.2322 55.6 19.4635 55.1368 18.4882C54.6896 17.4963 54.4659 16.3887 54.4659 15.1654C54.4659 13.9421 54.6896 12.8428 55.1368 11.8674C55.6 10.8756 56.223 10.1069 57.0057 9.56135C57.8043 8.99929 58.6988 8.71826 59.6892 8.71826H60.5757C61.5501 8.71826 62.4366 8.99929 63.2352 9.56135C64.0339 10.1069 64.6568 10.8756 65.1041 11.8674C65.5673 12.8428 65.7989 13.9421 65.7989 15.1654C65.7989 16.3887 65.5673 17.4963 65.1041 18.4882C64.6568 19.4635 64.0339 20.2322 63.2352 20.7943C62.4525 21.3398 61.566 21.6126 60.5757 21.6126H59.6892ZM60.5757 19.604C61.1028 19.604 61.59 19.4139 62.0372 19.0337C62.5005 18.6535 62.8599 18.1245 63.1154 17.4467C63.371 16.7689 63.4988 16.0085 63.4988 15.1654C63.4988 14.3223 63.371 13.5702 63.1154 12.9089C62.8599 12.2311 62.5005 11.7021 62.0372 11.3219C61.59 10.9252 61.0948 10.7268 60.5517 10.7268H59.6892C59.1461 10.7268 58.6509 10.9169 58.2037 11.2971C57.7564 11.6773 57.397 12.2063 57.1255 12.8841C56.8699 13.5454 56.7421 14.3058 56.7421 15.1654C56.7421 16.025 56.8699 16.7937 57.1255 17.4715C57.397 18.1328 57.7564 18.6535 58.2037 19.0337C58.6509 19.4139 59.1461 19.604 59.6892 19.604H60.5757Z" fill="white"/>
<path d="M36.4648 4.05664H39.5557L44.2039 16.7526C44.2997 17.0171 44.4435 17.1493 44.6351 17.1493C44.8268 17.1493 44.9706 17.0171 45.0664 16.7526L49.7146 4.05664H52.8294V21.4143H50.5292L50.5532 10.0327C50.5532 9.85081 50.4973 9.72683 50.3855 9.6607C50.2896 9.57805 50.1778 9.56151 50.05 9.61111C49.9382 9.64417 49.8584 9.73509 49.8105 9.88387L45.5456 21.4143H43.7007L39.4838 9.88387C39.4199 9.73509 39.324 9.64417 39.1963 9.61111C39.0844 9.56151 38.9806 9.57805 38.8848 9.6607C38.7889 9.74336 38.741 9.86734 38.741 10.0327L38.765 21.4143H36.4648V4.05664Z" fill="white"/>
<path fill-rule="evenodd" clip-rule="evenodd" d="M0 25.8298H8.93817V12.3789C8.93817 11.9477 9.53628 11.8785 9.62836 12.299L11.7624 22.0463H17.1253V18.7328C17.1253 18.5331 17.2818 18.3712 17.4747 18.3712H25.9564V0H17.0183V3.31349C17.0183 3.5132 16.8619 3.6751 16.6689 3.6751H7.74024L8.47195 7.01719C8.52148 7.24341 8.35531 7.45871 8.13119 7.45871H0V25.8298Z" fill="white"/>
<path d="M96.9547 31.0566V28.5393H97.3284V28.9195H97.3546C97.4005 28.795 97.4835 28.6939 97.6037 28.6164C97.7239 28.5388 97.8593 28.5 98.0101 28.5C98.0385 28.5 98.074 28.5005 98.1166 28.5016C98.1592 28.5027 98.1915 28.5044 98.2133 28.5066V28.8999C98.2002 28.8966 98.1702 28.8917 98.1232 28.8851C98.0773 28.8775 98.0287 28.8737 97.9773 28.8737C97.855 28.8737 97.7457 28.8993 97.6496 28.9507C97.5545 29.0009 97.4791 29.0709 97.4234 29.1604C97.3688 29.2489 97.3415 29.35 97.3415 29.4636V31.0566H96.9547Z" fill="white"/>
<path d="M95.2544 31.1088C95.0119 31.1088 94.8027 31.0553 94.6268 30.9482C94.452 30.84 94.317 30.6893 94.222 30.4959C94.128 30.3014 94.0811 30.0752 94.0811 29.8174C94.0811 29.5596 94.128 29.3323 94.222 29.1357C94.317 28.9379 94.4492 28.7839 94.6186 28.6735C94.789 28.5621 94.9879 28.5063 95.2151 28.5063C95.3462 28.5063 95.4757 28.5282 95.6035 28.5719C95.7313 28.6156 95.8477 28.6866 95.9526 28.7849C96.0575 28.8822 96.141 29.0111 96.2033 29.1717C96.2656 29.3323 96.2967 29.5301 96.2967 29.765V29.9288H94.3564V29.5945H95.9034C95.9034 29.4525 95.875 29.3258 95.8182 29.2143C95.7625 29.1029 95.6827 29.0149 95.5789 28.9505C95.4762 28.886 95.355 28.8538 95.2151 28.8538C95.0611 28.8538 94.9278 28.892 94.8152 28.9685C94.7038 29.0439 94.618 29.1422 94.558 29.2635C94.4979 29.3848 94.4678 29.5148 94.4678 29.6535V29.8764C94.4678 30.0665 94.5006 30.2277 94.5661 30.3599C94.6328 30.491 94.7251 30.5909 94.8431 30.6598C94.9611 30.7275 95.0982 30.7614 95.2544 30.7614C95.3561 30.7614 95.4478 30.7472 95.5298 30.7188C95.6128 30.6893 95.6844 30.6456 95.7445 30.5876C95.8045 30.5286 95.851 30.4554 95.8838 30.368L96.2574 30.4729C96.2181 30.5997 96.152 30.7111 96.0591 30.8072C95.9662 30.9023 95.8515 30.9766 95.715 31.0301C95.5784 31.0826 95.4249 31.1088 95.2544 31.1088Z" fill="white"/>
<path d="M91.9006 32.0002C91.835 32.0002 91.7766 31.9948 91.7252 31.9839C91.6739 31.974 91.6384 31.9642 91.6187 31.9544L91.717 31.6135C91.811 31.6375 91.894 31.6463 91.9661 31.6397C92.0383 31.6331 92.1022 31.6009 92.1579 31.543C92.2147 31.4862 92.2666 31.3939 92.3136 31.2661L92.3857 31.0694L91.4548 28.5391H91.8744L92.5692 30.545H92.5955L93.2903 28.5391H93.7098L92.6413 31.4234C92.5933 31.5534 92.5337 31.661 92.4627 31.7462C92.3917 31.8325 92.3092 31.8965 92.2152 31.938C92.1224 31.9795 92.0175 32.0002 91.9006 32.0002Z" fill="white"/>
<path d="M89.813 31.1153C89.6535 31.1153 89.5087 31.0853 89.3787 31.0252C89.2487 30.964 89.1454 30.8761 89.0689 30.7614C88.9925 30.6456 88.9542 30.5057 88.9542 30.3418C88.9542 30.1976 88.9826 30.0807 89.0394 29.9911C89.0963 29.9004 89.1722 29.8294 89.2672 29.7781C89.3623 29.7267 89.4672 29.6885 89.5819 29.6634C89.6977 29.6371 89.8141 29.6164 89.931 29.6011C90.0839 29.5814 90.2079 29.5667 90.303 29.5568C90.3991 29.5459 90.469 29.5279 90.5127 29.5027C90.5575 29.4776 90.5799 29.4339 90.5799 29.3716V29.3585C90.5799 29.1968 90.5357 29.0712 90.4472 28.9816C90.3598 28.892 90.227 28.8472 90.049 28.8472C89.8643 28.8472 89.7196 28.8876 89.6147 28.9685C89.5098 29.0493 89.436 29.1357 89.3934 29.2274L89.0263 29.0963C89.0919 28.9434 89.1793 28.8243 89.2885 28.7391C89.3989 28.6527 89.5191 28.5927 89.6491 28.5588C89.7802 28.5238 89.9091 28.5063 90.0358 28.5063C90.1167 28.5063 90.2096 28.5162 90.3144 28.5358C90.4204 28.5544 90.5226 28.5932 90.6209 28.6522C90.7203 28.7112 90.8028 28.8002 90.8684 28.9193C90.9339 29.0384 90.9667 29.1979 90.9667 29.3979V31.0563H90.5799V30.7155H90.5603C90.534 30.7701 90.4903 30.8286 90.4292 30.8908C90.368 30.9531 90.2866 31.0061 90.185 31.0498C90.0834 31.0935 89.9594 31.1153 89.813 31.1153ZM89.872 30.7679C90.0249 30.7679 90.1538 30.7379 90.2587 30.6778C90.3647 30.6177 90.4445 30.5401 90.498 30.4451C90.5526 30.35 90.5799 30.25 90.5799 30.1452V29.7912C90.5635 29.8108 90.5275 29.8289 90.4718 29.8453C90.4171 29.8606 90.3538 29.8742 90.2817 29.8862C90.2107 29.8972 90.1413 29.907 90.0735 29.9157C90.0069 29.9234 89.9528 29.9299 89.9113 29.9354C89.8108 29.9485 89.7168 29.9698 89.6294 29.9993C89.5431 30.0277 89.4732 30.0709 89.4196 30.1288C89.3672 30.1856 89.341 30.2632 89.341 30.3615C89.341 30.4959 89.3907 30.5975 89.4901 30.6663C89.5906 30.734 89.7179 30.7679 89.872 30.7679Z" fill="white"/>
<path d="M86.4591 31.056V27.6997H86.8655V30.6955H88.4257V31.056H86.4591Z" fill="white"/>
<path d="M83.2534 31.0566V28.5393H83.6271V28.9195H83.6533C83.6992 28.795 83.7822 28.6939 83.9024 28.6164C84.0226 28.5388 84.158 28.5 84.3088 28.5C84.3372 28.5 84.3727 28.5005 84.4153 28.5016C84.458 28.5027 84.4902 28.5044 84.512 28.5066V28.8999C84.4989 28.8966 84.4689 28.8917 84.4219 28.8851C84.376 28.8775 84.3274 28.8737 84.276 28.8737C84.1537 28.8737 84.0444 28.8993 83.9483 28.9507C83.8532 29.0009 83.7778 29.0709 83.7221 29.1604C83.6675 29.2489 83.6402 29.35 83.6402 29.4636V31.0566H83.2534Z" fill="white"/>
<path d="M81.5535 31.1088C81.311 31.1088 81.1018 31.0553 80.9259 30.9482C80.751 30.84 80.6161 30.6893 80.5211 30.4959C80.4271 30.3014 80.3801 30.0752 80.3801 29.8174C80.3801 29.5596 80.4271 29.3323 80.5211 29.1357C80.6161 28.9379 80.7483 28.7839 80.9177 28.6735C81.0881 28.5621 81.2869 28.5063 81.5142 28.5063C81.6453 28.5063 81.7748 28.5282 81.9026 28.5719C82.0304 28.6156 82.1468 28.6866 82.2517 28.7849C82.3565 28.8822 82.4401 29.0111 82.5024 29.1717C82.5647 29.3323 82.5958 29.5301 82.5958 29.765V29.9288H80.6554V29.5945H82.2025C82.2025 29.4525 82.1741 29.3258 82.1173 29.2143C82.0616 29.1029 81.9818 29.0149 81.878 28.9505C81.7753 28.886 81.654 28.8538 81.5142 28.8538C81.3601 28.8538 81.2268 28.892 81.1143 28.9685C81.0029 29.0439 80.9171 29.1422 80.857 29.2635C80.7969 29.3848 80.7669 29.5148 80.7669 29.6535V29.8764C80.7669 30.0665 80.7997 30.2277 80.8652 30.3599C80.9319 30.491 81.0242 30.5909 81.1422 30.6598C81.2602 30.7275 81.3973 30.7614 81.5535 30.7614C81.6551 30.7614 81.7469 30.7472 81.8288 30.7188C81.9119 30.6893 81.9834 30.6456 82.0435 30.5876C82.1036 30.5286 82.15 30.4554 82.1828 30.368L82.5565 30.4729C82.5171 30.5997 82.451 30.7111 82.3582 30.8072C82.2653 30.9023 82.1506 30.9766 82.014 31.0301C81.8775 31.0826 81.724 31.1088 81.5535 31.1088Z" fill="white"/>
<path d="M76.4181 31.0563V28.5391H76.7917V28.9324H76.8245C76.877 28.7981 76.9616 28.6937 77.0785 28.6194C77.1954 28.544 77.3358 28.5063 77.4997 28.5063C77.6658 28.5063 77.804 28.544 77.9143 28.6194C78.0258 28.6937 78.1126 28.7981 78.1749 28.9324H78.2011C78.2656 28.8024 78.3623 28.6992 78.4912 28.6227C78.6201 28.5451 78.7747 28.5063 78.955 28.5063C79.18 28.5063 79.3641 28.5768 79.5073 28.7178C79.6504 28.8576 79.7219 29.0756 79.7219 29.3716V31.0563H79.3352V29.3716C79.3352 29.1859 79.2844 29.0532 79.1828 28.9734C79.0812 28.8937 78.9615 28.8538 78.8239 28.8538C78.6469 28.8538 78.5098 28.9073 78.4125 29.0144C78.3153 29.1204 78.2667 29.2547 78.2667 29.4175V31.0563H77.8734V29.3323C77.8734 29.1892 77.8269 29.0739 77.7341 28.9865C77.6412 28.898 77.5216 28.8538 77.3752 28.8538C77.2746 28.8538 77.1807 28.8805 77.0933 28.9341C77.007 28.9876 76.9371 29.0619 76.8835 29.157C76.8311 29.2509 76.8049 29.3596 76.8049 29.4831V31.0563H76.4181Z" fill="white"/>
<path d="M75.2535 30.0271V28.5391H75.6403V31.0563H75.2535V30.6302H75.2273C75.1683 30.758 75.0765 30.8667 74.9519 30.9563C74.8274 31.0448 74.6701 31.0891 74.48 31.0891C74.3226 31.0891 74.1828 31.0546 74.0604 30.9858C73.9381 30.9159 73.8419 30.811 73.772 30.6712C73.7021 30.5302 73.6671 30.3527 73.6671 30.1385V28.5391H74.0539V30.1123C74.0539 30.2959 74.1052 30.4423 74.2079 30.5515C74.3117 30.6608 74.4439 30.7154 74.6045 30.7154C74.7007 30.7154 74.7984 30.6908 74.8979 30.6417C74.9984 30.5925 75.0825 30.5171 75.1502 30.4155C75.2191 30.3139 75.2535 30.1844 75.2535 30.0271Z" fill="white"/>
<path d="M72.97 29.1029L72.6226 29.2012C72.6008 29.1433 72.5685 29.087 72.5259 29.0324C72.4844 28.9767 72.4276 28.9308 72.3555 28.8947C72.2834 28.8587 72.1911 28.8407 72.0785 28.8407C71.9245 28.8407 71.7961 28.8762 71.6934 28.9472C71.5918 29.0171 71.541 29.1062 71.541 29.2143C71.541 29.3105 71.5759 29.3864 71.6459 29.4421C71.7158 29.4978 71.825 29.5443 71.9736 29.5814L72.3473 29.6732C72.5723 29.7278 72.7401 29.8114 72.8504 29.9239C72.9607 30.0354 73.0159 30.179 73.0159 30.3549C73.0159 30.4991 72.9744 30.6281 72.8914 30.7417C72.8094 30.8553 72.6947 30.9449 72.5472 31.0105C72.3997 31.076 72.2282 31.1088 72.0326 31.1088C71.7759 31.1088 71.5634 31.0531 71.3951 30.9416C71.2269 30.8302 71.1204 30.6674 71.0756 30.4533L71.4427 30.3615C71.4776 30.497 71.5437 30.5986 71.641 30.6663C71.7393 30.734 71.8677 30.7679 72.0261 30.7679C72.2063 30.7679 72.3495 30.7297 72.4554 30.6532C72.5625 30.5756 72.6161 30.4828 72.6161 30.3746C72.6161 30.2872 72.5855 30.214 72.5243 30.155C72.4631 30.0949 72.3691 30.0501 72.2424 30.0206L71.8229 29.9223C71.5923 29.8677 71.423 29.783 71.3148 29.6683C71.2078 29.5525 71.1542 29.4077 71.1542 29.234C71.1542 29.092 71.1941 28.9663 71.2739 28.8571C71.3547 28.7478 71.4645 28.662 71.6033 28.5998C71.7431 28.5375 71.9015 28.5063 72.0785 28.5063C72.3276 28.5063 72.5232 28.561 72.6652 28.6702C72.8083 28.7795 72.9099 28.9237 72.97 29.1029Z" fill="white"/>
<path d="M68.8045 29.5421V31.0563H68.4177V28.5391H68.7914V28.9324H68.8242C68.8831 28.8046 68.9727 28.7019 69.0929 28.6243C69.2131 28.5457 69.3682 28.5063 69.5583 28.5063C69.7288 28.5063 69.8779 28.5413 70.0057 28.6112C70.1336 28.6801 70.233 28.7849 70.304 28.9259C70.375 29.0657 70.4105 29.2427 70.4105 29.4569V31.0563H70.0238V29.4831C70.0238 29.2853 69.9724 29.1313 69.8697 29.0209C69.767 28.9095 69.6261 28.8538 69.4469 28.8538C69.3234 28.8538 69.2131 28.8805 69.1159 28.9341C69.0197 28.9876 68.9438 29.0657 68.8881 29.1684C68.8323 29.2711 68.8045 29.3957 68.8045 29.5421Z" fill="white"/>
<path d="M66.6177 31.1088C66.3904 31.1088 66.191 31.0547 66.0195 30.9465C65.8491 30.8384 65.7158 30.6871 65.6196 30.4926C65.5246 30.2981 65.4771 30.0709 65.4771 29.8108C65.4771 29.5486 65.5246 29.3197 65.6196 29.1242C65.7158 28.9286 65.8491 28.7768 66.0195 28.6686C66.191 28.5604 66.3904 28.5063 66.6177 28.5063C66.8449 28.5063 67.0438 28.5604 67.2142 28.6686C67.3857 28.7768 67.519 28.9286 67.6141 29.1242C67.7102 29.3197 67.7583 29.5486 67.7583 29.8108C67.7583 30.0709 67.7102 30.2981 67.6141 30.4926C67.519 30.6871 67.3857 30.8384 67.2142 30.9465C67.0438 31.0547 66.8449 31.1088 66.6177 31.1088ZM66.6177 30.7614C66.7903 30.7614 66.9323 30.7171 67.0438 30.6286C67.1552 30.5401 67.2377 30.4238 67.2912 30.2795C67.3448 30.1353 67.3715 29.9791 67.3715 29.8108C67.3715 29.6426 67.3448 29.4858 67.2912 29.3405C67.2377 29.1952 67.1552 29.0777 67.0438 28.9882C66.9323 28.8986 66.7903 28.8538 66.6177 28.8538C66.445 28.8538 66.303 28.8986 66.1916 28.9882C66.0801 29.0777 65.9976 29.1952 65.9441 29.3405C65.8906 29.4858 65.8638 29.6426 65.8638 29.8108C65.8638 29.9791 65.8906 30.1353 65.9441 30.2795C65.9976 30.4238 66.0801 30.5401 66.1916 30.6286C66.303 30.7171 66.445 30.7614 66.6177 30.7614Z" fill="white"/>
<path d="M64.922 28.7485H64.5155C64.4915 28.6316 64.4494 28.5289 64.3893 28.4404C64.3304 28.3519 64.2582 28.2777 64.173 28.2176C64.0889 28.1564 63.9955 28.1105 63.8928 28.0799C63.7901 28.0493 63.683 28.034 63.5716 28.034C63.3684 28.034 63.1843 28.0854 63.0193 28.1881C62.8554 28.2908 62.7249 28.4421 62.6276 28.642C62.5315 28.842 62.4834 29.0872 62.4834 29.3778C62.4834 29.6685 62.5315 29.9137 62.6276 30.1137C62.7249 30.3136 62.8554 30.4649 63.0193 30.5676C63.1843 30.6703 63.3684 30.7217 63.5716 30.7217C63.683 30.7217 63.7901 30.7064 63.8928 30.6758C63.9955 30.6452 64.0889 30.5999 64.173 30.5398C64.2582 30.4786 64.3304 30.4037 64.3893 30.3152C64.4494 30.2257 64.4915 30.123 64.5155 30.0072H64.922C64.8914 30.1787 64.8357 30.3322 64.7548 30.4677C64.674 30.6031 64.5734 30.7184 64.4533 30.8134C64.3331 30.9074 64.1982 30.979 64.0485 31.0281C63.8999 31.0773 63.7409 31.1019 63.5716 31.1019C63.2853 31.1019 63.0308 31.032 62.8079 30.8921C62.585 30.7523 62.4097 30.5534 62.2818 30.2956C62.154 30.0377 62.0901 29.7318 62.0901 29.3778C62.0901 29.0239 62.154 28.7179 62.2818 28.4601C62.4097 28.2023 62.585 28.0034 62.8079 27.8636C63.0308 27.7237 63.2853 27.6538 63.5716 27.6538C63.7409 27.6538 63.8999 27.6784 64.0485 27.7276C64.1982 27.7767 64.3331 27.8488 64.4533 27.9439C64.5734 28.0378 64.674 28.1526 64.7548 28.288C64.8357 28.4224 64.8914 28.5759 64.922 28.7485Z" fill="white"/>
<path d="M60.0236 27.6997V31.056H59.6368V27.6997H60.0236Z" fill="white"/>
<path d="M57.7083 31.1153C57.5488 31.1153 57.4041 31.0853 57.2741 31.0252C57.1441 30.964 57.0408 30.8761 56.9643 30.7614C56.8878 30.6456 56.8496 30.5057 56.8496 30.3418C56.8496 30.1976 56.878 30.0807 56.9348 29.9911C56.9916 29.9004 57.0676 29.8294 57.1626 29.7781C57.2577 29.7267 57.3626 29.6885 57.4773 29.6634C57.5931 29.6371 57.7094 29.6164 57.8263 29.6011C57.9793 29.5814 58.1033 29.5667 58.1984 29.5568C58.2945 29.5459 58.3644 29.5279 58.4081 29.5027C58.4529 29.4776 58.4753 29.4339 58.4753 29.3716V29.3585C58.4753 29.1968 58.4311 29.0712 58.3426 28.9816C58.2552 28.892 58.1224 28.8472 57.9443 28.8472C57.7597 28.8472 57.6149 28.8876 57.5101 28.9685C57.4052 29.0493 57.3314 29.1357 57.2888 29.2274L56.9217 29.0963C56.9873 28.9434 57.0747 28.8243 57.1839 28.7391C57.2943 28.6527 57.4145 28.5927 57.5445 28.5588C57.6756 28.5238 57.8045 28.5063 57.9312 28.5063C58.0121 28.5063 58.1049 28.5162 58.2098 28.5358C58.3158 28.5544 58.418 28.5932 58.5163 28.6522C58.6157 28.7112 58.6982 28.8002 58.7637 28.9193C58.8293 29.0384 58.8621 29.1979 58.8621 29.3979V31.0563H58.4753V30.7155H58.4557C58.4294 30.7701 58.3857 30.8286 58.3245 30.8908C58.2634 30.9531 58.182 31.0061 58.0804 31.0498C57.9788 31.0935 57.8548 31.1153 57.7083 31.1153ZM57.7673 30.7679C57.9203 30.7679 58.0492 30.7379 58.1541 30.6778C58.2601 30.6177 58.3398 30.5401 58.3934 30.4451C58.448 30.35 58.4753 30.25 58.4753 30.1452V29.7912C58.4589 29.8108 58.4229 29.8289 58.3672 29.8453C58.3125 29.8606 58.2492 29.8742 58.1771 29.8862C58.106 29.8972 58.0367 29.907 57.9689 29.9157C57.9023 29.9234 57.8482 29.9299 57.8067 29.9354C57.7062 29.9485 57.6122 29.9698 57.5248 29.9993C57.4385 30.0277 57.3686 30.0709 57.315 30.1288C57.2626 30.1856 57.2364 30.2632 57.2364 30.3615C57.2364 30.4959 57.2861 30.5975 57.3855 30.6663C57.486 30.734 57.6133 30.7679 57.7673 30.7679Z" fill="white"/>
<path d="M54.0845 31.056V27.6997H54.4712V28.9387H54.504C54.5324 28.895 54.5717 28.8392 54.622 28.7715C54.6734 28.7027 54.7466 28.6415 54.8416 28.5879C54.9377 28.5333 55.0678 28.506 55.2316 28.506C55.4436 28.506 55.6304 28.559 55.7921 28.665C55.9538 28.7709 56.08 28.9212 56.1707 29.1156C56.2614 29.3101 56.3067 29.5396 56.3067 29.8039C56.3067 30.0705 56.2614 30.3016 56.1707 30.4972C56.08 30.6916 55.9544 30.8424 55.7938 30.9495C55.6332 31.0555 55.448 31.1084 55.2382 31.1084C55.0765 31.1084 54.947 31.0817 54.8498 31.0281C54.7526 30.9735 54.6777 30.9118 54.6253 30.843C54.5728 30.773 54.5324 30.7151 54.504 30.6692H54.4581V31.056H54.0845ZM54.4647 29.7974C54.4647 29.9875 54.4925 30.1552 54.5483 30.3005C54.604 30.4447 54.6854 30.5578 54.7924 30.6397C54.8995 30.7206 55.0306 30.761 55.1858 30.761C55.3475 30.761 55.4824 30.7184 55.5905 30.6332C55.6998 30.5469 55.7817 30.4311 55.8364 30.2858C55.8921 30.1394 55.9199 29.9766 55.9199 29.7974C55.9199 29.6204 55.8926 29.4609 55.838 29.3189C55.7845 29.1757 55.7031 29.0627 55.5938 28.9796C55.4857 28.8955 55.3496 28.8534 55.1858 28.8534C55.0284 28.8534 54.8962 28.8933 54.7892 28.9731C54.6821 29.0517 54.6012 29.1621 54.5466 29.3041C54.492 29.445 54.4647 29.6095 54.4647 29.7974Z" fill="white"/>
<path d="M52.2317 31.1088C52.0044 31.1088 51.805 31.0547 51.6335 30.9465C51.4631 30.8384 51.3298 30.6871 51.2336 30.4926C51.1386 30.2981 51.0911 30.0709 51.0911 29.8108C51.0911 29.5486 51.1386 29.3197 51.2336 29.1242C51.3298 28.9286 51.4631 28.7768 51.6335 28.6686C51.805 28.5604 52.0044 28.5063 52.2317 28.5063C52.4589 28.5063 52.6578 28.5604 52.8282 28.6686C52.9997 28.7768 53.133 28.9286 53.2281 29.1242C53.3242 29.3197 53.3723 29.5486 53.3723 29.8108C53.3723 30.0709 53.3242 30.2981 53.2281 30.4926C53.133 30.6871 52.9997 30.8384 52.8282 30.9465C52.6578 31.0547 52.4589 31.1088 52.2317 31.1088ZM52.2317 30.7614C52.4043 30.7614 52.5463 30.7171 52.6578 30.6286C52.7692 30.5401 52.8517 30.4238 52.9052 30.2795C52.9588 30.1353 52.9855 29.9791 52.9855 29.8108C52.9855 29.6426 52.9588 29.4858 52.9052 29.3405C52.8517 29.1952 52.7692 29.0777 52.6578 28.9882C52.5463 28.8986 52.4043 28.8538 52.2317 28.8538C52.0591 28.8538 51.917 28.8986 51.8056 28.9882C51.6941 29.0777 51.6117 29.1952 51.5581 29.3405C51.5046 29.4858 51.4778 29.6426 51.4778 29.8108C51.4778 29.9791 51.5046 30.1353 51.5581 30.2795C51.6117 30.4238 51.6941 30.5401 51.8056 30.6286C51.917 30.7171 52.0591 30.7614 52.2317 30.7614Z" fill="white"/>
<path d="M50.4312 27.6997V31.056H50.0444V27.6997H50.4312Z" fill="white"/>
<path d="M48.8927 28.7485C48.8567 28.6382 48.8092 28.5393 48.7502 28.4519C48.6923 28.3634 48.6229 28.288 48.542 28.2258C48.4623 28.1635 48.3716 28.116 48.27 28.0832C48.1684 28.0504 48.0569 28.034 47.9357 28.034C47.7368 28.034 47.556 28.0854 47.3932 28.1881C47.2304 28.2908 47.101 28.4421 47.0048 28.642C46.9087 28.842 46.8606 29.0872 46.8606 29.3778C46.8606 29.6685 46.9092 29.9137 47.0065 30.1137C47.1037 30.3136 47.2353 30.4649 47.4014 30.5676C47.5675 30.6703 47.7543 30.7217 47.9619 30.7217C48.1542 30.7217 48.3235 30.6807 48.4699 30.5988C48.6174 30.5157 48.7321 30.3988 48.8141 30.2481C48.8971 30.0962 48.9386 29.9176 48.9386 29.7122L49.0632 29.7384H48.0537V29.3778H49.3319V29.7384C49.3319 30.0148 49.2729 30.2552 49.1549 30.4595C49.038 30.6638 48.8763 30.8222 48.6699 30.9347C48.4645 31.0462 48.2285 31.1019 47.9619 31.1019C47.6647 31.1019 47.4036 31.032 47.1785 30.8921C46.9546 30.7523 46.7798 30.5534 46.6541 30.2956C46.5296 30.0377 46.4673 29.7318 46.4673 29.3778C46.4673 29.1124 46.5028 28.8736 46.5738 28.6617C46.6459 28.4486 46.7475 28.2673 46.8786 28.1176C47.0097 27.9679 47.1649 27.8532 47.3441 27.7734C47.5232 27.6937 47.7204 27.6538 47.9357 27.6538C48.1127 27.6538 48.2776 27.6806 48.4306 27.7341C48.5846 27.7866 48.7218 27.8614 48.8419 27.9586C48.9632 28.0548 49.0643 28.17 49.1451 28.3044C49.226 28.4377 49.2817 28.5857 49.3123 28.7485H48.8927Z" fill="white"/>
<path d="M43.4789 31.1088C43.2364 31.1088 43.0272 31.0553 42.8513 30.9482C42.6765 30.84 42.5415 30.6893 42.4465 30.4959C42.3525 30.3014 42.3055 30.0752 42.3055 29.8174C42.3055 29.5596 42.3525 29.3323 42.4465 29.1357C42.5415 28.9379 42.6737 28.7839 42.8431 28.6735C43.0135 28.5621 43.2124 28.5063 43.4396 28.5063C43.5707 28.5063 43.7002 28.5282 43.828 28.5719C43.9558 28.6156 44.0722 28.6866 44.1771 28.7849C44.282 28.8822 44.3655 29.0111 44.4278 29.1717C44.4901 29.3323 44.5212 29.5301 44.5212 29.765V29.9288H42.5809V29.5945H44.1279C44.1279 29.4525 44.0995 29.3258 44.0427 29.2143C43.987 29.1029 43.9072 29.0149 43.8034 28.9505C43.7007 28.886 43.5794 28.8538 43.4396 28.8538C43.2856 28.8538 43.1523 28.892 43.0397 28.9685C42.9283 29.0439 42.8425 29.1422 42.7824 29.2635C42.7223 29.3848 42.6923 29.5148 42.6923 29.6535V29.8764C42.6923 30.0665 42.7251 30.2277 42.7906 30.3599C42.8573 30.491 42.9496 30.5909 43.0676 30.6598C43.1856 30.7275 43.3227 30.7614 43.4789 30.7614C43.5805 30.7614 43.6723 30.7472 43.7543 30.7188C43.8373 30.6893 43.9089 30.6456 43.9689 30.5876C44.029 30.5286 44.0755 30.4554 44.1082 30.368L44.4819 30.4729C44.4426 30.5997 44.3765 30.7111 44.2836 30.8072C44.1907 30.9023 44.076 30.9766 43.9394 31.0301C43.8029 31.0826 43.6494 31.1088 43.4789 31.1088Z" fill="white"/>
<path d="M40.0143 29.5417V31.056H39.6276V27.6997H40.0143V28.9321H40.0471C40.1061 28.8021 40.1946 28.6988 40.3126 28.6224C40.4317 28.5448 40.5901 28.506 40.7878 28.506C40.9594 28.506 41.1096 28.5404 41.2385 28.6093C41.3674 28.677 41.4674 28.7813 41.5384 28.9223C41.6105 29.0621 41.6466 29.2402 41.6466 29.4565V31.056H41.2598V29.4827C41.2598 29.2828 41.2079 29.1282 41.1041 29.019C41.0014 28.9086 40.8589 28.8534 40.6764 28.8534C40.5497 28.8534 40.436 28.8802 40.3355 28.9337C40.2361 28.9873 40.1574 29.0654 40.0995 29.1681C40.0427 29.2708 40.0143 29.3953 40.0143 29.5417Z" fill="white"/>
<path d="M36.4666 28.0602V27.6997H38.9838V28.0602H37.9284V31.056H37.522V28.0602H36.4666Z" fill="white"/>
</svg>
