<svg width="1920" height="480" viewBox="0 0 1920 480" fill="none" xmlns="http://www.w3.org/2000/svg">
<mask id="mask0_3360_14151" style="mask-type:alpha" maskUnits="userSpaceOnUse" x="0" y="0" width="1920" height="480">
<rect width="1920" height="480" fill="#D9D9D9"/>
</mask>
<g mask="url(#mask0_3360_14151)">
<rect x="-320" width="2560" height="480" fill="#08080D"/>
<mask id="mask1_3360_14151" style="mask-type:alpha" maskUnits="userSpaceOnUse" x="0" y="0" width="1920" height="660">
<rect width="1920" height="660" fill="#00D1FF"/>
</mask>
<g mask="url(#mask1_3360_14151)">
<g filter="url(#filter0_d_3360_14151)">
<ellipse cx="1375" cy="-0.609161" rx="293" ry="292.391" fill="url(#paint0_linear_3360_14151)" shape-rendering="crispEdges"/>
</g>
<g filter="url(#filter1_d_3360_14151)">
<ellipse cx="1553.45" cy="157.399" rx="142.451" ry="142.155" fill="url(#paint1_linear_3360_14151)"/>
</g>
<g filter="url(#filter2_f_3360_14151)">
<ellipse cx="1648.52" cy="87.3777" rx="67.518" ry="67.3777" fill="#002FD7"/>
</g>
<g filter="url(#filter3_f_3360_14151)">
<ellipse cx="33.8493" cy="67.4267" rx="33.8493" ry="67.4267" transform="matrix(0.807217 0.590255 -0.591856 0.806044 1497.06 2)" fill="#FFC4F9"/>
</g>
<g filter="url(#filter4_f_3360_14151)">
<ellipse cx="1482.08" cy="239.904" rx="85.0805" ry="84.9037" fill="#7A00A5"/>
</g>
<circle cx="383.5" cy="281.5" r="47.5" fill="url(#paint2_radial_3360_14151)"/>
<g filter="url(#filter5_f_3360_14151)">
<ellipse cx="699.062" cy="265.992" rx="34.0624" ry="33.9916" fill="#F03FFF"/>
</g>
<g filter="url(#filter6_f_3360_14151)">
<ellipse cx="426.031" cy="321.975" rx="27.0312" ry="26.975" fill="#9F24FF"/>
</g>
<ellipse cx="1670.49" cy="50.3992" rx="44.4916" ry="44.3992" fill="url(#paint3_radial_3360_14151)"/>
<g opacity="0.8" filter="url(#filter7_f_3360_14151)">
<path fill-rule="evenodd" clip-rule="evenodd" d="M1180.5 138.456C1180.5 144.419 1178.07 149.813 1174.14 153.702C1169.52 159.535 1155.02 182.275 1169.76 192.096H1172.88C1174.12 192.096 1175.13 193.107 1175.13 194.353V275.664C1175.13 276.91 1174.12 277.92 1172.88 277.92H1145.17C1143.93 277.92 1142.92 276.91 1142.92 275.664V194.353C1142.92 193.107 1143.93 192.096 1145.17 192.096H1148.29C1163.03 182.275 1148.53 159.536 1143.91 153.702C1139.98 149.814 1137.55 144.419 1137.55 138.456C1137.55 126.606 1147.16 117 1159.02 117C1170.89 117 1180.5 126.606 1180.5 138.456ZM420.259 125.8C419.011 125.8 418 126.811 418 128.057V275.664C418 276.91 419.011 277.92 420.259 277.92H439.401C440.649 277.92 441.66 276.91 441.66 275.664V179.471C441.66 178.997 442.299 178.843 442.515 179.265L492.379 276.691C492.766 277.446 493.543 277.92 494.391 277.92H506.086C506.942 277.92 507.724 277.438 508.106 276.674L556.338 180.436C556.551 180.01 557.194 180.162 557.194 180.638V275.664C557.194 276.91 558.205 277.92 559.453 277.92H592.313C593.561 277.92 594.572 276.91 594.572 275.664V128.057C594.572 126.811 593.561 125.8 592.313 125.8H560.353C559.497 125.8 558.714 126.284 558.332 127.049L507.38 228.966C507.214 229.298 506.74 229.3 506.573 228.968L454.998 127.039C454.614 126.279 453.834 125.8 452.982 125.8H420.259ZM750.924 216.234C750.924 250.303 722.075 277.92 686.487 277.92C650.9 277.92 622.05 250.303 622.05 216.234C622.05 182.166 650.9 154.548 686.487 154.548C722.075 154.548 750.924 182.166 750.924 216.234ZM713.336 216.234C713.336 244.378 701.315 267.192 686.487 267.192C671.659 267.192 659.639 244.378 659.639 216.234C659.639 188.091 671.659 165.276 686.487 165.276C701.315 165.276 713.336 188.091 713.336 216.234ZM772.403 162.169C772.403 160.923 773.415 159.912 774.662 159.912H802.363C803.61 159.912 804.622 160.923 804.622 162.169V175.972C814.179 167.97 827.791 159.912 842.21 159.912C851.107 159.912 858.319 167.117 858.319 176.004C858.319 184.892 851.107 192.096 842.21 192.096C834.583 192.096 828.194 186.801 826.525 179.69L826.101 179.4C818.775 178.751 813.286 180.35 804.622 189.226V275.664C804.622 276.91 803.61 277.92 802.363 277.92H774.662C773.415 277.92 772.403 276.91 772.403 275.664V162.169ZM869.059 162.169C869.059 160.923 870.07 159.912 871.318 159.912H899.018C900.266 159.912 901.277 160.923 901.277 162.169V166.541C908.704 162.301 917.659 159.912 928.126 159.912C963.713 159.912 992.563 187.53 992.563 221.598C992.563 255.667 963.713 283.284 928.126 283.284C917.659 283.284 908.704 280.895 901.277 276.656V350.76C901.277 352.006 900.266 353.017 899.018 353.017H871.318C870.07 353.017 869.059 352.006 869.059 350.76V162.169ZM901.277 221.546V221.651C901.294 246.807 913.308 267.192 928.126 267.192C942.954 267.192 954.975 246.779 954.975 221.598C954.975 196.417 942.954 176.004 928.126 176.004C913.308 176.004 901.294 196.389 901.277 221.546ZM1005.56 127.728C1004.31 127.728 1003.3 128.738 1003.3 129.985V275.664C1003.3 276.91 1004.31 277.92 1005.56 277.92H1033.26C1034.51 277.92 1035.52 276.91 1035.52 275.664V200.959C1035.52 200.056 1036.07 199.241 1036.9 198.89L1072.2 184.012C1075.18 182.757 1078.48 184.942 1078.48 188.171V277.92H1108.44C1109.69 277.92 1110.7 276.91 1110.7 275.664V187.221C1110.7 180.039 1107.91 173.03 1102.02 168.908C1095.86 164.595 1087.17 159.912 1078.48 159.912C1062.38 159.912 1035.55 175.985 1035.52 176.004V129.985C1035.52 128.738 1034.51 127.728 1033.26 127.728H1005.56ZM1253.07 159.912C1280.99 159.912 1295.95 176.004 1295.95 192.096H1277.23C1276.33 184.944 1266.42 173.322 1253.07 176.004C1233.9 179.853 1231.59 200.142 1253.07 205.506C1287.9 214.205 1298.71 235.008 1298.71 243.054C1298.71 251.1 1296.02 280.602 1250.38 280.602C1213.87 280.602 1206.53 257.358 1207.42 245.736H1226.22C1226.22 261.828 1239.57 267.192 1250.38 267.192C1264.85 267.192 1279.84 244.761 1253.07 235.008C1212.79 220.342 1207.42 210.87 1207.42 197.46C1207.42 184.05 1218.16 159.912 1253.07 159.912ZM1327.75 159.912C1326.5 159.912 1325.49 160.923 1325.49 162.169V275.664C1325.49 276.91 1326.5 277.92 1327.75 277.92H1355.45C1356.69 277.92 1357.71 276.91 1357.71 275.664V194.946L1383.65 184.012C1386.63 182.757 1389.92 184.942 1389.92 188.171V277.92H1419.88C1421.13 277.92 1422.14 276.91 1422.14 275.664V194.946L1448.09 184.012C1451.07 182.757 1454.36 184.942 1454.36 188.171V277.92H1484.32C1485.57 277.92 1486.58 276.91 1486.58 275.664V187.221C1486.58 180.039 1483.79 173.03 1477.9 168.908C1471.74 164.595 1463.05 159.912 1454.36 159.912C1442.99 159.912 1426.28 167.926 1417.42 172.643C1416.31 171.236 1414.99 169.976 1413.47 168.908C1407.3 164.595 1398.61 159.912 1389.92 159.912C1380.35 159.912 1366.98 165.599 1357.71 170.211V162.169C1357.71 160.923 1356.69 159.912 1355.45 159.912H1327.75Z" fill="url(#paint4_linear_3360_14151)"/>
<path fill-rule="evenodd" clip-rule="evenodd" d="M1180.5 138.456C1180.5 144.419 1178.07 149.813 1174.14 153.702C1169.52 159.535 1155.02 182.275 1169.76 192.096H1172.88C1174.12 192.096 1175.13 193.107 1175.13 194.353V275.664C1175.13 276.91 1174.12 277.92 1172.88 277.92H1145.17C1143.93 277.92 1142.92 276.91 1142.92 275.664V194.353C1142.92 193.107 1143.93 192.096 1145.17 192.096H1148.29C1163.03 182.275 1148.53 159.536 1143.91 153.702C1139.98 149.814 1137.55 144.419 1137.55 138.456C1137.55 126.606 1147.16 117 1159.02 117C1170.89 117 1180.5 126.606 1180.5 138.456ZM420.259 125.8C419.011 125.8 418 126.811 418 128.057V275.664C418 276.91 419.011 277.92 420.259 277.92H439.401C440.649 277.92 441.66 276.91 441.66 275.664V179.471C441.66 178.997 442.299 178.843 442.515 179.265L492.379 276.691C492.766 277.446 493.543 277.92 494.391 277.92H506.086C506.942 277.92 507.724 277.438 508.106 276.674L556.338 180.436C556.551 180.01 557.194 180.162 557.194 180.638V275.664C557.194 276.91 558.205 277.92 559.453 277.92H592.313C593.561 277.92 594.572 276.91 594.572 275.664V128.057C594.572 126.811 593.561 125.8 592.313 125.8H560.353C559.497 125.8 558.714 126.284 558.332 127.049L507.38 228.966C507.214 229.298 506.74 229.3 506.573 228.968L454.998 127.039C454.614 126.279 453.834 125.8 452.982 125.8H420.259ZM750.924 216.234C750.924 250.303 722.075 277.92 686.487 277.92C650.9 277.92 622.05 250.303 622.05 216.234C622.05 182.166 650.9 154.548 686.487 154.548C722.075 154.548 750.924 182.166 750.924 216.234ZM713.336 216.234C713.336 244.378 701.315 267.192 686.487 267.192C671.659 267.192 659.639 244.378 659.639 216.234C659.639 188.091 671.659 165.276 686.487 165.276C701.315 165.276 713.336 188.091 713.336 216.234ZM772.403 162.169C772.403 160.923 773.415 159.912 774.662 159.912H802.363C803.61 159.912 804.622 160.923 804.622 162.169V175.972C814.179 167.97 827.791 159.912 842.21 159.912C851.107 159.912 858.319 167.117 858.319 176.004C858.319 184.892 851.107 192.096 842.21 192.096C834.583 192.096 828.194 186.801 826.525 179.69L826.101 179.4C818.775 178.751 813.286 180.35 804.622 189.226V275.664C804.622 276.91 803.61 277.92 802.363 277.92H774.662C773.415 277.92 772.403 276.91 772.403 275.664V162.169ZM869.059 162.169C869.059 160.923 870.07 159.912 871.318 159.912H899.018C900.266 159.912 901.277 160.923 901.277 162.169V166.541C908.704 162.301 917.659 159.912 928.126 159.912C963.713 159.912 992.563 187.53 992.563 221.598C992.563 255.667 963.713 283.284 928.126 283.284C917.659 283.284 908.704 280.895 901.277 276.656V350.76C901.277 352.006 900.266 353.017 899.018 353.017H871.318C870.07 353.017 869.059 352.006 869.059 350.76V162.169ZM901.277 221.546V221.651C901.294 246.807 913.308 267.192 928.126 267.192C942.954 267.192 954.975 246.779 954.975 221.598C954.975 196.417 942.954 176.004 928.126 176.004C913.308 176.004 901.294 196.389 901.277 221.546ZM1005.56 127.728C1004.31 127.728 1003.3 128.738 1003.3 129.985V275.664C1003.3 276.91 1004.31 277.92 1005.56 277.92H1033.26C1034.51 277.92 1035.52 276.91 1035.52 275.664V200.959C1035.52 200.056 1036.07 199.241 1036.9 198.89L1072.2 184.012C1075.18 182.757 1078.48 184.942 1078.48 188.171V277.92H1108.44C1109.69 277.92 1110.7 276.91 1110.7 275.664V187.221C1110.7 180.039 1107.91 173.03 1102.02 168.908C1095.86 164.595 1087.17 159.912 1078.48 159.912C1062.38 159.912 1035.55 175.985 1035.52 176.004V129.985C1035.52 128.738 1034.51 127.728 1033.26 127.728H1005.56ZM1253.07 159.912C1280.99 159.912 1295.95 176.004 1295.95 192.096H1277.23C1276.33 184.944 1266.42 173.322 1253.07 176.004C1233.9 179.853 1231.59 200.142 1253.07 205.506C1287.9 214.205 1298.71 235.008 1298.71 243.054C1298.71 251.1 1296.02 280.602 1250.38 280.602C1213.87 280.602 1206.53 257.358 1207.42 245.736H1226.22C1226.22 261.828 1239.57 267.192 1250.38 267.192C1264.85 267.192 1279.84 244.761 1253.07 235.008C1212.79 220.342 1207.42 210.87 1207.42 197.46C1207.42 184.05 1218.16 159.912 1253.07 159.912ZM1327.75 159.912C1326.5 159.912 1325.49 160.923 1325.49 162.169V275.664C1325.49 276.91 1326.5 277.92 1327.75 277.92H1355.45C1356.69 277.92 1357.71 276.91 1357.71 275.664V194.946L1383.65 184.012C1386.63 182.757 1389.92 184.942 1389.92 188.171V277.92H1419.88C1421.13 277.92 1422.14 276.91 1422.14 275.664V194.946L1448.09 184.012C1451.07 182.757 1454.36 184.942 1454.36 188.171V277.92H1484.32C1485.57 277.92 1486.58 276.91 1486.58 275.664V187.221C1486.58 180.039 1483.79 173.03 1477.9 168.908C1471.74 164.595 1463.05 159.912 1454.36 159.912C1442.99 159.912 1426.28 167.926 1417.42 172.643C1416.31 171.236 1414.99 169.976 1413.47 168.908C1407.3 164.595 1398.61 159.912 1389.92 159.912C1380.35 159.912 1366.98 165.599 1357.71 170.211V162.169C1357.71 160.923 1356.69 159.912 1355.45 159.912H1327.75Z" fill="url(#paint5_linear_3360_14151)"/>
</g>
<ellipse cx="1419.56" cy="294.526" rx="17.5625" ry="17.526" fill="url(#paint6_linear_3360_14151)"/>
</g>
<ellipse cx="483.265" cy="94.1153" rx="8.19583" ry="8.1788" fill="#6481EB"/>
<ellipse cx="596.836" cy="131.112" rx="6.24444" ry="6.23147" fill="#6481EB"/>
<ellipse cx="557.808" cy="108.522" rx="6.24444" ry="6.23147" fill="#6481EB"/>
<ellipse cx="585.908" cy="59.4513" rx="3.90278" ry="3.89467" fill="#6481EB"/>
<path d="M482.874 94.5L585.908 59.0586M585.908 59.0586L596.835 131.499L559.369 108.131L585.908 59.0586Z" stroke="#6481EB"/>
<path d="M763.036 198.8C759.392 195.56 750.834 191.528 746.712 183.229C742.476 174.71 744.44 166.94 744.44 161.727C744.44 154.7 738.671 149 731.555 149C724.44 149 718.67 154.7 718.67 161.727C718.67 166.096 718.153 177.576 716.7 183.539C716.259 185.346 715.608 186.314 715.118 186.993C713.239 189.603 707.879 192.613 702.518 188.972C701 187.982 699.665 186.228 699.014 184.073C697.636 179.496 699.176 166.224 698.589 160.492C698.584 160.443 698.578 160.395 698.573 160.347C698.476 159.454 698.325 158.673 698.094 158.026C696.49 152.802 691.576 149 685.763 149C678.648 149 672.878 154.7 672.878 161.727C672.878 165.497 674.536 168.882 677.178 171.213C680.822 174.454 689.38 178.485 693.503 186.785C697.733 195.303 695.769 203.073 695.769 208.286C695.769 215.313 701.539 221.013 708.654 221.013C714.047 221.013 718.67 217.735 720.586 213.083C723.649 206.174 718.665 194.046 722.998 185.004C723.848 183.229 724.795 182.33 725.753 181.469C727.75 179.689 734.042 177.694 738.552 183.031C739.699 184.544 740.022 185.71 740.296 186.865C741.448 191.768 740.398 207.265 742.115 211.997C743.725 217.211 748.633 221.002 754.435 221.002C761.551 221.002 767.32 215.302 767.32 208.276C767.32 204.506 765.663 201.121 763.02 198.789L763.036 198.8Z" fill="white"/>
<path d="M662.885 221.02C670 221.02 675.77 215.325 675.77 208.293C675.77 201.261 670 195.566 662.885 195.566C655.77 195.566 650 201.261 650 208.293C650 215.325 655.77 221.02 662.885 221.02Z" fill="white"/>
<path fill-rule="evenodd" clip-rule="evenodd" d="M795.38 166.993H786.327C785.8 166.993 785.372 167.412 785.372 167.929V220.068C785.372 220.585 785.8 221.004 786.327 221.004H795.38C795.907 221.004 796.334 220.585 796.334 220.068V183.871L809.372 198.27C809.411 198.325 809.456 198.374 809.506 198.418L809.528 198.445L814.278 203.688L814.306 203.715L815.422 204.946C815.819 205.291 816.421 205.253 816.767 204.87L835.777 183.872V220.068C835.777 220.585 836.204 221.004 836.732 221.004H845.785C846.312 221.004 846.739 220.585 846.739 220.068V167.929C846.739 167.412 846.312 166.993 845.785 166.993H836.732C836.362 166.993 836.041 167.199 835.883 167.501L816.985 188.552C816.566 189.017 815.835 189.017 815.411 188.557L796.276 167.581C796.27 167.575 796.264 167.568 796.258 167.562C796.113 167.228 795.774 166.993 795.38 166.993Z" fill="white"/>
<path d="M876.521 175.989C864.06 175.989 853.959 186.064 853.959 198.494C853.959 210.923 864.06 220.998 876.521 220.998C888.982 220.998 899.083 210.923 899.083 198.494C899.083 186.064 888.982 175.989 876.521 175.989ZM876.521 210.7C869.765 210.7 864.284 205.233 864.284 198.494C864.284 191.755 869.765 186.287 876.521 186.287C883.277 186.287 888.758 191.755 888.758 198.494C888.758 205.233 883.277 210.7 876.521 210.7Z" fill="white"/>
<path d="M965.289 175.989C960.841 175.989 956.701 177.291 953.228 179.523V176.941C953.228 176.427 952.804 176.006 952.286 176.006H943.345C942.827 176.006 942.402 176.427 942.402 176.941V229.064C942.402 229.578 942.827 230 943.345 230H952.286C952.804 230 953.228 229.578 953.228 229.064V216.597C956.701 218.829 960.841 220.131 965.289 220.131C977.571 220.131 987.526 210.251 987.526 198.063C987.526 185.874 977.571 175.995 965.289 175.995V175.989ZM965.289 210.027C958.636 210.027 953.239 204.682 953.228 198.079V198.03C953.239 191.433 958.636 186.082 965.289 186.082C971.943 186.082 977.35 191.443 977.35 198.052C977.35 204.66 971.948 210.021 965.289 210.021V210.027Z" fill="white"/>
<path d="M933.909 175.995H927.693C915.877 175.995 906.303 185.1 906.303 196.326V214.598C906.303 214.598 906.303 214.626 906.303 214.637V220.044C906.303 220.568 906.755 220.998 907.307 220.998H916.828C917.379 220.998 917.831 220.568 917.831 220.044V195.517C917.831 189.603 922.874 184.805 929.101 184.805H934.267C934.807 184.805 935.182 184.392 935.182 183.94V177.2C935.182 176.53 934.613 175.989 933.909 175.989V175.995Z" fill="white"/>
<path d="M1015.05 173.419C1011.58 173.419 1008.31 174.294 1005.46 175.832V164.328C1005.46 163.814 1005.04 163.393 1004.53 163.393H995.684C995.172 163.393 994.752 163.814 994.752 164.328V193.493C994.752 193.597 994.746 193.701 994.746 193.799V209.998H994.752V216.467C994.752 216.982 995.172 217.403 995.684 217.403H1004.53C1005.04 217.403 1005.46 216.982 1005.46 216.467V193.4C1005.46 188.551 1009.38 184.014 1014.19 183.587C1019.87 183.089 1024.64 187.571 1024.64 193.175V216.489C1024.64 216.993 1025.04 217.398 1025.54 217.398H1034.45C1034.95 217.398 1035.36 216.987 1035.36 216.484V193.794C1035.36 182.536 1026.27 173.413 1015.05 173.413L1015.05 173.419Z" fill="white"/>
<path d="M1270 204.432C1270 207.438 1269.29 210.052 1267.86 212.272C1266.43 214.492 1264.35 216.203 1261.61 217.406C1258.9 218.609 1255.59 219.21 1251.7 219.21C1249.98 219.21 1248.29 219.094 1246.64 218.863C1245.01 218.632 1243.43 218.297 1241.92 217.857C1240.42 217.395 1238.99 216.828 1237.64 216.157V206.166C1239.99 207.23 1242.44 208.19 1244.97 209.046C1247.51 209.901 1250.02 210.329 1252.51 210.329C1254.23 210.329 1255.61 210.098 1256.65 209.635C1257.72 209.173 1258.49 208.537 1258.96 207.727C1259.44 206.918 1259.68 205.993 1259.68 204.952C1259.68 203.68 1259.26 202.593 1258.42 201.691C1257.58 200.789 1256.43 199.945 1254.96 199.159C1253.51 198.372 1251.87 197.528 1250.03 196.626C1248.88 196.071 1247.62 195.4 1246.26 194.614C1244.9 193.805 1243.61 192.822 1242.39 191.665C1241.17 190.509 1240.16 189.11 1239.37 187.468C1238.6 185.803 1238.21 183.814 1238.21 181.501C1238.21 178.471 1238.89 175.881 1240.25 173.73C1241.61 171.579 1243.55 169.937 1246.06 168.804C1248.59 167.648 1251.58 167.069 1255.02 167.069C1257.6 167.069 1260.06 167.382 1262.39 168.006C1264.75 168.607 1267.2 169.486 1269.76 170.643L1266.37 179.003C1264.08 178.055 1262.03 177.326 1260.22 176.818C1258.41 176.286 1256.56 176.02 1254.68 176.02C1253.37 176.02 1252.25 176.239 1251.32 176.679C1250.39 177.095 1249.69 177.696 1249.22 178.483C1248.74 179.246 1248.5 180.136 1248.5 181.154C1248.5 182.357 1248.84 183.374 1249.52 184.207C1250.22 185.016 1251.27 185.803 1252.65 186.566C1254.05 187.329 1255.79 188.219 1257.88 189.237C1260.41 190.463 1262.57 191.746 1264.36 193.088C1266.17 194.406 1267.57 195.967 1268.54 197.771C1269.51 199.552 1270 201.772 1270 204.432Z" fill="white"/>
<path d="M1217.44 176.02C1215.43 176.02 1213.64 176.424 1212.07 177.234C1210.54 178.02 1209.23 179.165 1208.17 180.668C1207.13 182.172 1206.34 183.987 1205.79 186.115C1205.25 188.242 1204.98 190.636 1204.98 193.296C1204.98 196.881 1205.41 199.945 1206.27 202.489C1207.15 205.01 1208.51 206.941 1210.34 208.282C1212.18 209.601 1214.54 210.26 1217.44 210.26C1219.46 210.26 1221.47 210.028 1223.49 209.566C1225.52 209.103 1227.73 208.444 1230.11 207.589V216.608C1227.91 217.533 1225.75 218.192 1223.62 218.586C1221.49 219.002 1219.1 219.21 1216.46 219.21C1211.34 219.21 1207.13 218.135 1203.82 215.984C1200.54 213.81 1198.11 210.78 1196.52 206.895C1194.94 202.986 1194.14 198.43 1194.14 193.226C1194.14 189.387 1194.65 185.872 1195.67 182.68C1196.69 179.489 1198.19 176.725 1200.15 174.389C1202.12 172.053 1204.56 170.249 1207.46 168.977C1210.35 167.705 1213.68 167.069 1217.44 167.069C1219.91 167.069 1222.38 167.393 1224.84 168.041C1227.33 168.665 1229.71 169.532 1231.98 170.643L1228.58 179.385C1226.72 178.483 1224.85 177.696 1222.98 177.026C1221.1 176.355 1219.25 176.02 1217.44 176.02Z" fill="white"/>
<path d="M1186.05 193.081C1186.05 196.989 1185.58 200.551 1184.63 203.766C1183.68 206.957 1182.23 209.709 1180.28 212.022C1178.35 214.335 1175.91 216.116 1172.94 217.365C1169.98 218.59 1166.47 219.203 1162.42 219.203C1158.36 219.203 1154.85 218.59 1151.89 217.365C1148.92 216.116 1146.47 214.335 1144.52 212.022C1142.6 209.709 1141.16 206.946 1140.21 203.731C1139.26 200.516 1138.78 196.943 1138.78 193.011C1138.78 187.762 1139.62 183.194 1141.29 179.308C1142.99 175.4 1145.59 172.37 1149.1 170.219C1152.61 168.069 1157.07 166.993 1162.48 166.993C1167.87 166.993 1172.3 168.069 1175.76 170.219C1179.25 172.37 1181.83 175.4 1183.51 179.308C1185.2 183.217 1186.05 187.808 1186.05 193.081ZM1149.82 193.081C1149.82 196.619 1150.25 199.672 1151.11 202.239C1151.99 204.783 1153.36 206.749 1155.22 208.137C1157.07 209.501 1159.47 210.184 1162.42 210.184C1165.4 210.184 1167.83 209.501 1169.68 208.137C1171.54 206.749 1172.89 204.783 1173.72 202.239C1174.59 199.672 1175.02 196.619 1175.02 193.081C1175.02 187.762 1174.04 183.575 1172.09 180.523C1170.15 177.47 1166.94 175.943 1162.48 175.943C1159.52 175.943 1157.1 176.637 1155.22 178.025C1153.36 179.389 1151.99 181.355 1151.11 183.922C1150.25 186.466 1149.82 189.519 1149.82 193.081Z" fill="white"/>
<path d="M1130.7 192.683C1130.7 198.396 1129.62 203.171 1127.47 207.01C1125.34 210.827 1122.25 213.706 1118.2 215.649C1114.15 217.568 1109.27 218.528 1103.56 218.528H1089.51V167.81H1105.09C1110.3 167.81 1114.82 168.758 1118.64 170.654C1122.47 172.528 1125.43 175.314 1127.54 179.015C1129.65 182.692 1130.7 187.248 1130.7 192.683ZM1119.76 192.961C1119.76 189.214 1119.22 186.138 1118.13 183.733C1117.07 181.304 1115.48 179.512 1113.38 178.356C1111.3 177.199 1108.71 176.621 1105.64 176.621H1100.03V209.647H1104.55C1109.69 209.647 1113.5 208.248 1115.99 205.449C1118.51 202.651 1119.76 198.488 1119.76 192.961Z" fill="white"/>
<path d="M1062.43 158.866L1062.43 225.479" stroke="white" stroke-width="8"/>
</g>
<defs>
<filter id="filter0_d_3360_14151" x="841" y="-466" width="972" height="970.781" filterUnits="userSpaceOnUse" color-interpolation-filters="sRGB">
<feFlood flood-opacity="0" result="BackgroundImageFix"/>
<feColorMatrix in="SourceAlpha" type="matrix" values="0 0 0 0 0 0 0 0 0 0 0 0 0 0 0 0 0 0 127 0" result="hardAlpha"/>
<feMorphology radius="62" operator="dilate" in="SourceAlpha" result="effect1_dropShadow_3360_14151"/>
<feOffset dx="-48" dy="20"/>
<feGaussianBlur stdDeviation="65.5"/>
<feComposite in2="hardAlpha" operator="out"/>
<feColorMatrix type="matrix" values="0 0 0 0 0.107825 0 0 0 0 0.0841493 0 0 0 0 0.545833 0 0 0 1 0"/>
<feBlend mode="normal" in2="BackgroundImageFix" result="effect1_dropShadow_3360_14151"/>
<feBlend mode="normal" in="SourceGraphic" in2="effect1_dropShadow_3360_14151" result="shape"/>
</filter>
<filter id="filter1_d_3360_14151" x="1289" y="-102.757" width="528.903" height="528.311" filterUnits="userSpaceOnUse" color-interpolation-filters="sRGB">
<feFlood flood-opacity="0" result="BackgroundImageFix"/>
<feColorMatrix in="SourceAlpha" type="matrix" values="0 0 0 0 0 0 0 0 0 0 0 0 0 0 0 0 0 0 127 0" result="hardAlpha"/>
<feMorphology radius="68" operator="dilate" in="SourceAlpha" result="effect1_dropShadow_3360_14151"/>
<feOffset dy="4"/>
<feGaussianBlur stdDeviation="27"/>
<feComposite in2="hardAlpha" operator="out"/>
<feColorMatrix type="matrix" values="0 0 0 0 0.00447917 0 0 0 0 0.097189 0 0 0 0 0.358333 0 0 0 0.33 0"/>
<feBlend mode="normal" in2="BackgroundImageFix" result="effect1_dropShadow_3360_14151"/>
<feBlend mode="normal" in="SourceGraphic" in2="effect1_dropShadow_3360_14151" result="shape"/>
</filter>
<filter id="filter2_f_3360_14151" x="1489" y="-72" width="319.036" height="318.756" filterUnits="userSpaceOnUse" color-interpolation-filters="sRGB">
<feFlood flood-opacity="0" result="BackgroundImageFix"/>
<feBlend mode="normal" in="SourceGraphic" in2="BackgroundImageFix" result="shape"/>
<feGaussianBlur stdDeviation="46" result="effect1_foregroundBlur_3360_14151"/>
</filter>
<filter id="filter3_f_3360_14151" x="1365.11" y="-52.5918" width="238.739" height="257.841" filterUnits="userSpaceOnUse" color-interpolation-filters="sRGB">
<feFlood flood-opacity="0" result="BackgroundImageFix"/>
<feBlend mode="normal" in="SourceGraphic" in2="BackgroundImageFix" result="shape"/>
<feGaussianBlur stdDeviation="35.5" result="effect1_foregroundBlur_3360_14151"/>
</filter>
<filter id="filter4_f_3360_14151" x="1241" y="-1" width="482.161" height="481.808" filterUnits="userSpaceOnUse" color-interpolation-filters="sRGB">
<feFlood flood-opacity="0" result="BackgroundImageFix"/>
<feBlend mode="normal" in="SourceGraphic" in2="BackgroundImageFix" result="shape"/>
<feGaussianBlur stdDeviation="78" result="effect1_foregroundBlur_3360_14151"/>
</filter>
<filter id="filter5_f_3360_14151" x="509" y="76" width="380.125" height="379.983" filterUnits="userSpaceOnUse" color-interpolation-filters="sRGB">
<feFlood flood-opacity="0" result="BackgroundImageFix"/>
<feBlend mode="normal" in="SourceGraphic" in2="BackgroundImageFix" result="shape"/>
<feGaussianBlur stdDeviation="78" result="effect1_foregroundBlur_3360_14151"/>
</filter>
<filter id="filter6_f_3360_14151" x="307" y="203" width="238.062" height="237.95" filterUnits="userSpaceOnUse" color-interpolation-filters="sRGB">
<feFlood flood-opacity="0" result="BackgroundImageFix"/>
<feBlend mode="normal" in="SourceGraphic" in2="BackgroundImageFix" result="shape"/>
<feGaussianBlur stdDeviation="46" result="effect1_foregroundBlur_3360_14151"/>
</filter>
<filter id="filter7_f_3360_14151" x="270" y="-31" width="1364.58" height="532.017" filterUnits="userSpaceOnUse" color-interpolation-filters="sRGB">
<feFlood flood-opacity="0" result="BackgroundImageFix"/>
<feBlend mode="normal" in="SourceGraphic" in2="BackgroundImageFix" result="shape"/>
<feGaussianBlur stdDeviation="74" result="effect1_foregroundBlur_3360_14151"/>
</filter>
<linearGradient id="paint0_linear_3360_14151" x1="1630.91" y1="-0.391432" x2="1173.24" y2="265.176" gradientUnits="userSpaceOnUse">
<stop stop-color="#001A82"/>
<stop offset="1" stop-color="#274EE7" stop-opacity="0"/>
</linearGradient>
<linearGradient id="paint1_linear_3360_14151" x1="1553.45" y1="15.2432" x2="1633.37" y2="149.576" gradientUnits="userSpaceOnUse">
<stop stop-color="#0052F0"/>
<stop offset="1" stop-color="#05092D"/>
</linearGradient>
<radialGradient id="paint2_radial_3360_14151" cx="0" cy="0" r="1" gradientUnits="userSpaceOnUse" gradientTransform="translate(375 261.5) rotate(59.0359) scale(78.7181 78.7181)">
<stop stop-color="#1A94BB"/>
<stop offset="0.673522" stop-color="#00109B"/>
<stop offset="1" stop-color="#AA03D3"/>
</radialGradient>
<radialGradient id="paint3_radial_3360_14151" cx="0" cy="0" r="1" gradientUnits="userSpaceOnUse" gradientTransform="translate(1660 20) rotate(55.6789) scale(62.9623 63.0934)">
<stop stop-color="#36B7FF"/>
<stop offset="0.993055" stop-color="#002CC8"/>
</radialGradient>
<linearGradient id="paint4_linear_3360_14151" x1="1486.58" y1="117" x2="418.071" y2="309.133" gradientUnits="userSpaceOnUse">
<stop stop-color="#14B5E3"/>
<stop offset="0.465567" stop-color="#6B2887"/>
<stop offset="1" stop-color="#F51553"/>
</linearGradient>
<linearGradient id="paint5_linear_3360_14151" x1="605.799" y1="292.251" x2="719.751" y2="210.485" gradientUnits="userSpaceOnUse">
<stop stop-color="#FF3F74"/>
<stop offset="1" stop-color="#FF039A" stop-opacity="0"/>
</linearGradient>
<linearGradient id="paint6_linear_3360_14151" x1="1419.56" y1="277" x2="1419.56" y2="312.052" gradientUnits="userSpaceOnUse">
<stop stop-color="#FFF500"/>
<stop offset="1" stop-color="#FFB800"/>
</linearGradient>
</defs>
</svg>
