<?xml version="1.0" encoding="UTF-8"?>
<!DOCTYPE svg PUBLIC "-//W3C//DTD SVG 1.1//EN" "http://www.w3.org/Graphics/SVG/1.1/DTD/svg11.dtd">
<svg xmlns="http://www.w3.org/2000/svg" version="1.1" width="375px" height="120px" style="shape-rendering:geometricPrecision; text-rendering:geometricPrecision; image-rendering:optimizeQuality; fill-rule:evenodd; clip-rule:evenodd" xmlns:xlink="http://www.w3.org/1999/xlink">
<g><path style="opacity:1" fill="#100a14" d="M -0.5,-0.5 C 11.8333,-0.5 24.1667,-0.5 36.5,-0.5C 34.6774,0.493291 33.3441,1.99329 32.5,4C 32.8919,5.01055 33.5585,5.51055 34.5,5.5C 33.2889,6.7202 33.2889,7.88686 34.5,9C 32.4873,10.7913 32.4873,12.1247 34.5,13C 33.1198,14.3236 32.7865,15.6569 33.5,17C 32.8333,18.3333 31.8333,19.3333 30.5,20C 33.022,21.6859 32.6887,23.0192 29.5,24C 30.448,24.4828 31.448,24.6495 32.5,24.5C 32.528,26.5824 31.8613,28.4157 30.5,30C 31.6134,32.0612 32.9467,33.0612 34.5,33C 34.0946,33.9454 33.428,34.6121 32.5,35C 33.0814,35.8926 33.4148,36.8926 33.5,38C 32.3989,42.2835 30.5655,46.4501 28,50.5C 27.8598,52.5213 27.6932,54.3547 27.5,56C 29.3937,57.0793 29.727,58.4126 28.5,60C 30.2482,60.0801 31.9149,60.9134 33.5,62.5C 32.624,63.2508 31.624,63.7508 30.5,64C 32.8776,64.9745 32.5443,65.6411 29.5,66C 31.4425,67.9719 31.7758,70.1385 30.5,72.5C 31.9756,73.8802 32.9756,75.5469 33.5,77.5C 32.3966,77.9976 31.3966,78.3309 30.5,78.5C 31.8114,79.2575 32.3114,80.2575 32,81.5C 30.9505,80.4829 29.7839,80.3162 28.5,81C 29.1667,81.3333 29.8333,81.6667 30.5,82C 29.0506,83.117 27.3839,83.7837 25.5,84C 26.5,85 27.5,86 28.5,87C 27.7476,87.6708 27.4142,88.5041 27.5,89.5C 26.962,91.1172 26.6287,92.7839 26.5,94.5C 26.2558,101.71 29.5892,106.043 36.5,107.5C 37.2625,108.268 38.2625,108.768 39.5,109C 39.1667,109.333 38.8333,109.667 38.5,110C 41.6229,110.206 44.6229,110.873 47.5,112C 46.8333,112.333 46.1667,112.667 45.5,113C 50.3656,112.586 53.0323,114.753 53.5,119.5C 35.5,119.5 17.5,119.5 -0.5,119.5C -0.5,79.5 -0.5,39.5 -0.5,-0.5 Z"/></g>
<g><path style="opacity:1" fill="#1c1045" d="M 100.5,-0.5 C 105.5,-0.5 110.5,-0.5 115.5,-0.5C 114.667,1.75221 114.667,3.91888 115.5,6C 114.833,6.33333 114.167,6.66667 113.5,7C 114.717,9.0109 114.384,11.0109 112.5,13C 113.764,19.4003 113.764,26.567 112.5,34.5C 113.025,35.1924 113.692,35.6924 114.5,36C 113.903,37.8886 113.569,39.7219 113.5,41.5C 116.028,42.5174 116.028,43.6841 113.5,45C 113.884,45.9506 114.217,46.7839 114.5,47.5C 112.768,51.2234 111.768,55.2234 111.5,59.5C 109.856,59.7135 108.356,59.3802 107,58.5C 106.667,55.5 106.333,52.5 106,49.5C 104.556,47.8446 102.722,47.178 100.5,47.5C 98.3523,47.6106 98.019,46.944 99.5,45.5C 98.8333,45.1667 98.1667,44.8333 97.5,44.5C 100.028,43.1841 100.028,42.0174 97.5,41C 98.3128,39.6861 99.3128,38.5195 100.5,37.5C 99.624,36.7492 98.624,36.2492 97.5,36C 98.3081,35.6924 98.9747,35.1924 99.5,34.5C 98.8333,34.1667 98.1667,33.8333 97.5,33.5C 100.167,32.1667 100.167,30.8333 97.5,29.5C 97.9767,28.5224 98.6433,27.6891 99.5,27C 98.7607,24.7646 98.7607,22.7646 99.5,21C 97.0426,19.4877 97.0426,18.1544 99.5,17C 98.273,15.4126 98.6063,14.0793 100.5,13C 99.7192,10.4776 99.3859,7.81098 99.5,5C 100.5,4 101.5,3 102.5,2C 101.619,1.2917 100.953,0.458367 100.5,-0.5 Z"/></g>
<g><path style="opacity:1" fill="#20177f" d="M 178.5,-0.5 C 191.833,-0.5 205.167,-0.5 218.5,-0.5C 218.607,21.3708 226.607,39.7041 242.5,54.5C 242.167,55.8333 241.833,57.1667 241.5,58.5C 240.732,59.2625 240.232,60.2625 240,61.5C 239.768,60.2625 239.268,59.2625 238.5,58.5C 238.141,56.629 237.141,55.129 235.5,54C 232.518,53.502 229.518,53.3354 226.5,53.5C 225.517,57.2984 225.183,61.2984 225.5,65.5C 223.386,66.32 221.386,66.6534 219.5,66.5C 219.5,61.1667 219.5,55.8333 219.5,50.5C 218.5,50.5 217.5,50.5 216.5,50.5C 216.5,55.8333 216.5,61.1667 216.5,66.5C 215.778,66.9175 215.278,67.5842 215,68.5C 214.082,66.3676 212.749,65.701 211,66.5C 210.809,64.2922 210.309,62.2922 209.5,60.5C 208.557,55.6121 205.724,53.9455 201,55.5C 200.51,54.2068 200.343,52.8734 200.5,51.5C 199.5,51.5 198.5,51.5 197.5,51.5C 196.675,55.6472 196.175,59.9805 196,64.5C 195.79,62.9419 195.29,61.6085 194.5,60.5C 194.489,58.9826 193.823,57.8159 192.5,57C 189.677,55.5956 187.01,55.0956 184.5,55.5C 184.047,54.5416 183.381,53.7083 182.5,53C 183.167,52.6667 183.833,52.3333 184.5,52C 182.695,51.028 181.028,49.8613 179.5,48.5C 181.991,47.4593 181.991,46.6259 179.5,46C 179.833,45.6667 180.167,45.3333 180.5,45C 177.658,41.8049 175.658,38.1383 174.5,34C 176.973,32.5981 176.973,31.0981 174.5,29.5C 174.728,26.1753 174.728,22.5086 174.5,18.5C 173.975,17.8076 173.308,17.3076 172.5,17C 173.167,15.3333 173.833,13.6667 174.5,12C 172.052,9.69985 172.719,8.36652 176.5,8C 175.483,6.95054 175.316,5.78387 176,4.5C 176.333,4.83333 176.667,5.16667 177,5.5C 177.465,4.06919 178.299,2.90252 179.5,2C 177.381,1.6582 177.047,0.824868 178.5,-0.5 Z"/></g>
<g><path style="opacity:1" fill="#0f1841" d="M 223.5,-0.5 C 230.833,-0.5 238.167,-0.5 245.5,-0.5C 246.609,5.87657 248.943,11.7099 252.5,17C 252.167,17.3333 251.833,17.6667 251.5,18C 254.264,24.0337 257.264,30.2003 260.5,36.5C 259.45,38.1017 260.117,38.935 262.5,39C 261.833,39.3333 261.167,39.6667 260.5,40C 262.412,42.5722 264.412,45.0722 266.5,47.5C 266.291,48.086 265.957,48.586 265.5,49C 267.141,50.129 268.141,51.629 268.5,53.5C 260.502,52.5065 257.169,56.1731 258.5,64.5C 257.391,64.4431 256.391,64.1098 255.5,63.5C 256.949,55.3712 253.616,51.7045 245.5,52.5C 244.504,52.5858 243.671,52.2524 243,51.5C 241.164,47.8282 239.331,44.1615 237.5,40.5C 238.002,39.2836 238.335,38.1169 238.5,37C 236.192,35.4117 235.525,33.4117 236.5,31C 234.414,28.2787 232.414,25.4453 230.5,22.5C 230.833,21.8333 231.167,21.1667 231.5,20.5C 228.753,13.8799 226.087,6.87985 223.5,-0.5 Z"/></g>
<g><path style="opacity:1" fill="#0f1d54" d="M 245.5,-0.5 C 253.5,-0.5 261.5,-0.5 269.5,-0.5C 270.429,0.314913 271.429,1.14825 272.5,2C 271.807,4.70114 272.807,6.86781 275.5,8.5C 275.291,9.08605 274.957,9.58605 274.5,10C 277.762,12.5705 278.762,15.7372 277.5,19.5C 279.103,19.3118 280.437,19.8118 281.5,21C 280.409,23.0639 280.242,25.2305 281,27.5C 281.333,27.1667 281.667,26.8333 282,26.5C 282.303,28.8884 283.137,31.0551 284.5,33C 283.756,35.8506 283.756,38.5172 284.5,41C 282.491,42.5982 282.491,44.5982 284.5,47C 284.613,50.2836 284.28,53.6169 283.5,57C 284.613,61.7331 285.28,66.5665 285.5,71.5C 283.833,71.5 282.167,71.5 280.5,71.5C 276.2,71.2453 272.2,70.2453 268.5,68.5C 268.804,67.8501 269.137,67.1835 269.5,66.5C 261.6,66.1331 259.6,62.6331 263.5,56C 265.235,55.3486 266.902,55.5153 268.5,56.5C 269.776,55.3864 269.776,54.3864 268.5,53.5C 268.141,51.629 267.141,50.129 265.5,49C 265.957,48.586 266.291,48.086 266.5,47.5C 264.412,45.0722 262.412,42.5722 260.5,40C 261.167,39.6667 261.833,39.3333 262.5,39C 260.117,38.935 259.45,38.1017 260.5,36.5C 257.264,30.2003 254.264,24.0337 251.5,18C 251.833,17.6667 252.167,17.3333 252.5,17C 248.943,11.7099 246.609,5.87657 245.5,-0.5 Z"/></g>
<g><path style="opacity:1" fill="#08248d" d="M 332.5,-0.5 C 346.5,-0.5 360.5,-0.5 374.5,-0.5C 374.5,-0.166667 374.5,0.166667 374.5,0.5C 369.906,-0.342773 366.239,0.990561 363.5,4.5C 362.326,5.51369 361.66,6.84702 361.5,8.5C 356.765,9.03757 352.431,8.03757 348.5,5.5C 343.635,3.95908 338.635,3.29242 333.5,3.5C 334.826,1.80491 334.493,0.471574 332.5,-0.5 Z"/></g>
<g><path style="opacity:1" fill="#2a94f0" d="M 374.5,0.5 C 374.5,3.5 374.5,6.5 374.5,9.5C 371.537,10.7412 368.537,10.7412 365.5,9.5C 364.05,8.15017 363.383,6.4835 363.5,4.5C 366.239,0.990561 369.906,-0.342773 374.5,0.5 Z"/></g>
<g><path style="opacity:1" fill="#1b0f3d" d="M 93.5,-0.5 C 95.8333,-0.5 98.1667,-0.5 100.5,-0.5C 100.953,0.458367 101.619,1.2917 102.5,2C 101.5,3 100.5,4 99.5,5C 99.3859,7.81098 99.7192,10.4776 100.5,13C 98.6063,14.0793 98.273,15.4126 99.5,17C 97.0426,18.1544 97.0426,19.4877 99.5,21C 98.7607,22.7646 98.7607,24.7646 99.5,27C 98.6433,27.6891 97.9767,28.5224 97.5,29.5C 100.167,30.8333 100.167,32.1667 97.5,33.5C 98.1667,33.8333 98.8333,34.1667 99.5,34.5C 98.9747,35.1924 98.3081,35.6924 97.5,36C 98.624,36.2492 99.624,36.7492 100.5,37.5C 99.3128,38.5195 98.3128,39.6861 97.5,41C 100.028,42.0174 100.028,43.1841 97.5,44.5C 98.1667,44.8333 98.8333,45.1667 99.5,45.5C 98.019,46.944 98.3523,47.6106 100.5,47.5C 98.7516,49.1599 98.2516,51.1599 99,53.5C 104.635,56.4041 107.135,61.0708 106.5,67.5C 108.516,68.6942 110.516,68.6942 112.5,67.5C 112.574,69.4109 113.574,70.5776 115.5,71C 114.5,71.3333 113.5,71.6667 112.5,72C 115.281,75.7184 117.947,79.5517 120.5,83.5C 118.252,84.324 118.086,85.324 120,86.5C 122.129,85.1373 122.629,85.4706 121.5,87.5C 122.693,89.5267 124.36,91.0267 126.5,92C 125.366,93.016 125.699,93.6827 127.5,94C 127.5,95 127.5,96 127.5,97C 128.623,98.0437 129.956,98.7104 131.5,99C 130.448,100.716 131.114,101.716 133.5,102C 132.5,102.333 131.5,102.667 130.5,103C 131.966,103.635 133.3,104.469 134.5,105.5C 135.086,105.291 135.586,104.957 136,104.5C 137.17,108.503 139.67,111.336 143.5,113C 145.054,115.371 146.721,117.537 148.5,119.5C 141.5,119.5 134.5,119.5 127.5,119.5C 126.77,117.955 125.437,117.122 123.5,117C 124.167,116.667 124.833,116.333 125.5,116C 124.167,115.667 122.833,115.333 121.5,115C 121.833,114.667 122.167,114.333 122.5,114C 120.751,112.708 118.918,111.542 117,110.5C 115.356,108.331 114.189,106.331 113.5,104.5C 114.188,102.282 113.188,100.782 110.5,100C 111.308,99.6924 111.975,99.1924 112.5,98.5C 111.5,97.5 110.5,96.5 109.5,95.5C 108.035,96.6087 107.035,96.1087 106.5,94C 106.833,93.6667 107.167,93.3333 107.5,93C 106.167,90.395 104.167,88.395 101.5,87C 104.284,84.2159 103.617,82.5492 99.5,82C 99.3062,80.5701 99.3062,79.0701 99.5,77.5C 97.8624,76.2954 97.5291,74.9621 98.5,73.5C 97.91,72.2011 96.91,71.3678 95.5,71C 96.2524,70.3292 96.5858,69.4959 96.5,68.5C 98.9137,67.5944 99.747,65.9278 99,63.5C 97.2111,61.771 95.0444,61.1043 92.5,61.5C 91.8288,60.1529 91.8288,58.9862 92.5,58C 91.8333,57.6667 91.1667,57.3333 90.5,57C 92.8307,55.2002 92.8307,53.2002 90.5,51C 91.1667,50.6667 91.8333,50.3333 92.5,50C 90.0521,47.426 90.0521,44.926 92.5,42.5C 91.4179,42.2514 90.0846,42.0848 88.5,42C 90.6044,41.5112 90.9378,40.3445 89.5,38.5C 89.5288,36.9707 90.1955,35.804 91.5,35C 90.8333,34.6667 90.1667,34.3333 89.5,34C 90.2931,32.9148 90.9598,31.7481 91.5,30.5C 90.736,28.0393 89.736,25.5393 88.5,23C 92.1667,22 92.5,20.3333 89.5,18C 90.3081,17.6924 90.9747,17.1924 91.5,16.5C 90.0538,13.1722 90.7205,9.83889 93.5,6.5C 92.9747,5.80762 92.3081,5.30762 91.5,5C 92.464,3.27454 93.1307,1.44121 93.5,-0.5 Z"/></g>
<g><path style="opacity:1" fill="#190e35" d="M 83.5,-0.5 C 86.8333,-0.5 90.1667,-0.5 93.5,-0.5C 93.1307,1.44121 92.464,3.27454 91.5,5C 92.3081,5.30762 92.9747,5.80762 93.5,6.5C 90.7205,9.83889 90.0538,13.1722 91.5,16.5C 90.9747,17.1924 90.3081,17.6924 89.5,18C 92.5,20.3333 92.1667,22 88.5,23C 89.736,25.5393 90.736,28.0393 91.5,30.5C 90.9598,31.7481 90.2931,32.9148 89.5,34C 90.1667,34.3333 90.8333,34.6667 91.5,35C 90.1955,35.804 89.5288,36.9707 89.5,38.5C 90.9378,40.3445 90.6044,41.5112 88.5,42C 90.0846,42.0848 91.4179,42.2514 92.5,42.5C 90.0521,44.926 90.0521,47.426 92.5,50C 91.8333,50.3333 91.1667,50.6667 90.5,51C 92.8307,53.2002 92.8307,55.2002 90.5,57C 91.1667,57.3333 91.8333,57.6667 92.5,58C 91.8288,58.9862 91.8288,60.1529 92.5,61.5C 90.4909,65.8195 91.8243,68.1529 96.5,68.5C 96.5858,69.4959 96.2524,70.3292 95.5,71C 96.91,71.3678 97.91,72.2011 98.5,73.5C 97.5291,74.9621 97.8624,76.2954 99.5,77.5C 99.3062,79.0701 99.3062,80.5701 99.5,82C 103.617,82.5492 104.284,84.2159 101.5,87C 104.167,88.395 106.167,90.395 107.5,93C 107.167,93.3333 106.833,93.6667 106.5,94C 107.035,96.1087 108.035,96.6087 109.5,95.5C 110.5,96.5 111.5,97.5 112.5,98.5C 111.975,99.1924 111.308,99.6924 110.5,100C 113.188,100.782 114.188,102.282 113.5,104.5C 114.189,106.331 115.356,108.331 117,110.5C 118.918,111.542 120.751,112.708 122.5,114C 122.167,114.333 121.833,114.667 121.5,115C 122.833,115.333 124.167,115.667 125.5,116C 124.833,116.333 124.167,116.667 123.5,117C 125.437,117.122 126.77,117.955 127.5,119.5C 122.833,119.5 118.167,119.5 113.5,119.5C 113.459,117.255 112.625,116.588 111,117.5C 110.517,116.552 110.351,115.552 110.5,114.5C 108.876,114.64 107.71,113.973 107,112.5C 106.086,113.654 105.253,113.487 104.5,112C 108.386,111.421 108.386,110.588 104.5,109.5C 103.914,109.709 103.414,110.043 103,110.5C 102.5,109.333 101.667,108.5 100.5,108C 101.167,107.667 101.833,107.333 102.5,107C 101.122,105.287 99.4552,103.953 97.5,103C 98.1667,102.667 98.8333,102.333 99.5,102C 98.9389,100.324 97.9389,98.9906 96.5,98C 97.6341,96.984 97.3008,96.3173 95.5,96C 96.4506,95.2825 96.6172,94.4491 96,93.5C 94.1518,91.3208 91.9852,89.4874 89.5,88C 90.8333,87 92.1667,86 93.5,85C 92.1667,84.6667 90.8333,84.3333 89.5,84C 88.5991,81.4293 87.2658,79.096 85.5,77C 86.4467,74.8118 86.4467,72.4785 85.5,70C 83.4311,69.6758 83.0977,68.8425 84.5,67.5C 83.218,65.8208 82.218,63.9874 81.5,62C 82.1667,61.6667 82.8333,61.3333 83.5,61C 81.8839,60.3848 80.5505,59.3848 79.5,58C 80.8333,57.3333 81.8333,56.3333 82.5,55C 82.3029,52.9845 81.3029,50.9845 79.5,49C 82.1667,48.3333 82.1667,47.6667 79.5,47C 82.033,45.084 82.033,43.084 79.5,41C 81.0453,37.9455 80.3786,34.9455 77.5,32C 79.1981,30.5972 79.6981,28.7638 79,26.5C 79.6543,27.6956 80.1543,27.6956 80.5,26.5C 79.6872,25.1861 78.6872,24.0195 77.5,23C 78.8333,22.3333 80.1667,21.6667 81.5,21C 80.8333,20.6667 80.1667,20.3333 79.5,20C 81.4644,17.8325 81.7978,15.4992 80.5,13C 83.2764,11.2213 82.9431,10.2213 79.5,10C 80.3279,9.08529 81.3279,8.41862 82.5,8C 81.8333,7.66667 81.1667,7.33333 80.5,7C 81.763,4.37769 82.763,1.87769 83.5,-0.5 Z"/></g>
<g><path style="opacity:1" fill="#2e3167" d="M 74.5,3.5 C 75.3852,8.88156 76.3852,14.3816 77.5,20C 77.1667,20.5 76.8333,21 76.5,21.5C 74.1773,20.0057 73.844,18.1724 75.5,16C 75.4907,14.5962 74.9907,13.4296 74,12.5C 72.9305,12.3601 71.7639,12.3601 70.5,12.5C 69.865,14.208 69.865,15.5413 70.5,16.5C 66.4589,16.4983 65.7923,15.165 68.5,12.5C 67.538,10.1167 68.538,9.11673 71.5,9.5C 71.5,8.5 71.5,7.5 71.5,6.5C 68.5019,7.3416 65.5019,7.8416 62.5,8C 66.4898,6.39338 70.4898,4.89338 74.5,3.5 Z"/></g>
<g><path style="opacity:1" fill="#0331bf" d="M 348.5,5.5 C 352.431,8.03757 356.765,9.03757 361.5,8.5C 361.247,10.8273 361.914,12.8273 363.5,14.5C 367.107,15.4892 370.774,15.8226 374.5,15.5C 374.5,17.5 374.5,19.5 374.5,21.5C 371.603,21.6813 368.77,21.3479 366,20.5C 360.29,27.9003 354.623,27.9003 349,20.5C 348.383,19.5509 348.549,18.7175 349.5,18C 348.922,16.583 347.922,15.7496 346.5,15.5C 346.659,13.724 346.325,11.724 345.5,9.5C 347.288,8.71745 348.288,7.38411 348.5,5.5 Z"/></g>
<g><path style="opacity:1" fill="#150c21" d="M 48.5,-0.5 C 53.8333,-0.5 59.1667,-0.5 64.5,-0.5C 63.0639,0.428572 61.7305,1.59524 60.5,3C 60.1654,4.16404 60.1654,5.49738 60.5,7C 58.9733,8.03191 57.64,9.19858 56.5,10.5C 58.7159,10.2746 60.3826,11.1079 61.5,13C 60.1667,14.6667 60.1667,16.3333 61.5,18C 60.1682,21.2951 58.5015,24.2951 56.5,27C 57.3779,29.6423 58.3779,32.3089 59.5,35C 58.9026,36.8886 58.5693,38.7219 58.5,40.5C 58.9767,41.4776 59.6433,42.3109 60.5,43C 57.2577,43.2833 56.9244,44.1166 59.5,45.5C 58.5585,45.4895 57.8919,45.9895 57.5,47C 57.9054,47.9454 58.572,48.6121 59.5,49C 55.8149,49.9145 56.1482,50.5811 60.5,51C 59.3859,52.4493 58.3859,53.7827 57.5,55C 59.0846,55.0848 60.4179,55.2514 61.5,55.5C 60.0493,56.906 58.7159,58.406 57.5,60C 58.8333,60.6667 60.1667,61.3333 61.5,62C 59.2241,63.8743 59.5575,65.5409 62.5,67C 59.0569,67.2213 58.7236,68.2213 61.5,70C 59.0989,70.805 59.2656,71.6383 62,72.5C 62.4922,73.549 62.3256,74.549 61.5,75.5C 64.0756,76.8834 63.7423,77.7167 60.5,78C 61.2529,79.487 62.0862,79.6537 63,78.5C 63.4561,79.7441 62.9561,80.5774 61.5,81C 64.6459,84.8511 67.3126,88.3511 69.5,91.5C 66.5713,94.4459 66.9047,95.6126 70.5,95C 69.22,97.906 70.22,100.573 73.5,103C 72.8333,103.333 72.1667,103.667 71.5,104C 73.7467,105.655 76.0801,105.988 78.5,105C 74.9563,108.749 75.4563,109.915 80,108.5C 80.7203,110.112 80.5536,111.612 79.5,113C 81.1667,114.667 82.8333,116.333 84.5,118C 83.944,118.383 83.6107,118.883 83.5,119.5C 73.5,119.5 63.5,119.5 53.5,119.5C 53.0323,114.753 50.3656,112.586 45.5,113C 46.1667,112.667 46.8333,112.333 47.5,112C 44.6229,110.873 41.6229,110.206 38.5,110C 38.8333,109.667 39.1667,109.333 39.5,109C 38.2625,108.768 37.2625,108.268 36.5,107.5C 48.5091,106.812 52.5091,100.812 48.5,89.5C 49.7489,87.8639 51.4156,86.6972 53.5,86C 51.8333,84.3333 50.1667,82.6667 48.5,81C 49.5,79.3333 50.5,77.6667 51.5,76C 49.9154,75.9152 48.5821,75.7486 47.5,75.5C 48.0253,74.8076 48.6919,74.3076 49.5,74C 46.2697,72.276 45.9364,70.276 48.5,68C 42.2334,66.4531 42.2334,64.2864 48.5,61.5C 47.9747,60.8076 47.3081,60.3076 46.5,60C 46.8333,58.3333 47.1667,56.6667 47.5,55C 44.5484,52.8735 44.2151,50.5402 46.5,48C 45.0202,44.6109 45.6869,41.6109 48.5,39C 47.1667,39.3333 45.8333,39.6667 44.5,40C 45.1667,39 45.8333,38 46.5,37C 47.0808,35.1355 46.4141,33.4688 44.5,32C 46.3092,27.2816 47.9759,22.9482 49.5,19C 48.299,16.2743 47.299,13.6077 46.5,11C 47.9743,9.6839 49.641,8.6839 51.5,8C 50.5,7.66667 49.5,7.33333 48.5,7C 50.5989,5.31836 51.9322,3.65169 52.5,2C 50.8893,1.70984 49.556,0.876511 48.5,-0.5 Z"/></g>
<g><path style="opacity:1" fill="#556bc6" d="M 56.5,10.5 C 54.9699,12.3465 52.9699,13.3465 50.5,13.5C 50.5,12.5 50.5,11.5 50.5,10.5C 52.5,10.5 54.5,10.5 56.5,10.5 Z"/></g>
<g><path style="opacity:1" fill="#6179ec" d="M 331.5,3.5 C 331.389,4.11742 331.056,4.61742 330.5,5C 332.766,6.42645 334.432,8.25978 335.5,10.5C 334.527,11.7914 333.527,11.7914 332.5,10.5C 331.828,11.9492 331.161,13.2825 330.5,14.5C 328.157,13.8211 325.823,12.6544 323.5,11C 314.897,10.4315 310.564,14.5982 310.5,23.5C 310.685,24.5837 311.018,25.5837 311.5,26.5C 309.833,25.1667 308.167,25.1667 306.5,26.5C 305.962,24.8828 305.629,23.2161 305.5,21.5C 311.119,11.2308 319.786,5.23083 331.5,3.5 Z"/></g>
<g><path style="opacity:1" fill="#155edb" d="M 363.5,4.5 C 363.383,6.4835 364.05,8.15017 365.5,9.5C 368.537,10.7412 371.537,10.7412 374.5,9.5C 374.5,11.5 374.5,13.5 374.5,15.5C 370.774,15.8226 367.107,15.4892 363.5,14.5C 361.914,12.8273 361.247,10.8273 361.5,8.5C 361.66,6.84702 362.326,5.51369 363.5,4.5 Z"/></g>
<g><path style="opacity:1" fill="#42458e" d="M 316.5,-0.5 C 321.833,-0.5 327.167,-0.5 332.5,-0.5C 334.493,0.471574 334.826,1.80491 333.5,3.5C 332.833,3.5 332.167,3.5 331.5,3.5C 319.786,5.23083 311.119,11.2308 305.5,21.5C 304.143,22.5903 303.143,23.9236 302.5,25.5C 301.146,21.1578 301.312,16.8245 303,12.5C 307.497,7.82983 311.997,3.4965 316.5,-0.5 Z"/></g>
<g><path style="opacity:1" fill="#7c80e3" d="M 330.5,14.5 C 330.682,16.5914 330.348,18.5914 329.5,20.5C 325.836,24.1836 321.503,26.517 316.5,27.5C 314.742,27.4084 313.076,27.075 311.5,26.5C 311.018,25.5837 310.685,24.5837 310.5,23.5C 310.564,14.5982 314.897,10.4315 323.5,11C 325.823,12.6544 328.157,13.8211 330.5,14.5 Z"/></g>
<g><path style="opacity:1" fill="#1744c3" d="M 331.5,3.5 C 332.167,3.5 332.833,3.5 333.5,3.5C 338.635,3.29242 343.635,3.95908 348.5,5.5C 348.288,7.38411 347.288,8.71745 345.5,9.5C 346.325,11.724 346.659,13.724 346.5,15.5C 345.828,16.2674 344.995,16.9341 344,17.5C 343.838,19.4541 343.671,21.1207 343.5,22.5C 342.038,23.4709 340.705,23.1376 339.5,21.5C 340.871,17.6179 340.038,16.9512 337,19.5C 336.235,19.4301 335.735,19.0967 335.5,18.5C 335.792,16.0428 335.792,13.3761 335.5,10.5C 334.432,8.25978 332.766,6.42645 330.5,5C 331.056,4.61742 331.389,4.11742 331.5,3.5 Z"/></g>
<g><path style="opacity:1" fill="#0f132d" d="M 218.5,-0.5 C 220.167,-0.5 221.833,-0.5 223.5,-0.5C 226.087,6.87985 228.753,13.8799 231.5,20.5C 231.167,21.1667 230.833,21.8333 230.5,22.5C 232.414,25.4453 234.414,28.2787 236.5,31C 235.525,33.4117 236.192,35.4117 238.5,37C 238.335,38.1169 238.002,39.2836 237.5,40.5C 239.331,44.1615 241.164,47.8282 243,51.5C 243.671,52.2524 244.504,52.5858 245.5,52.5C 244.71,53.4013 243.71,54.0679 242.5,54.5C 226.607,39.7041 218.607,21.3708 218.5,-0.5 Z"/></g>
<g><path style="opacity:1" fill="#162166" d="M 269.5,-0.5 C 285.167,-0.5 300.833,-0.5 316.5,-0.5C 311.997,3.4965 307.497,7.82983 303,12.5C 301.312,16.8245 301.146,21.1578 302.5,25.5C 301.422,28.4021 300.756,31.4021 300.5,34.5C 300.5,34.8333 300.5,35.1667 300.5,35.5C 299.684,37.1436 298.35,38.3103 296.5,39C 296.833,39.3333 297.167,39.6667 297.5,40C 295.303,42.8857 293.47,46.0523 292,49.5C 291.333,53.8333 291.333,58.1667 292,62.5C 293.893,65.2673 294.893,68.2673 295,71.5C 290.067,72.8236 285.234,72.8236 280.5,71.5C 282.167,71.5 283.833,71.5 285.5,71.5C 285.28,66.5665 284.613,61.7331 283.5,57C 284.28,53.6169 284.613,50.2836 284.5,47C 282.491,44.5982 282.491,42.5982 284.5,41C 283.756,38.5172 283.756,35.8506 284.5,33C 283.137,31.0551 282.303,28.8884 282,26.5C 281.667,26.8333 281.333,27.1667 281,27.5C 280.242,25.2305 280.409,23.0639 281.5,21C 280.437,19.8118 279.103,19.3118 277.5,19.5C 278.762,15.7372 277.762,12.5705 274.5,10C 274.957,9.58605 275.291,9.08605 275.5,8.5C 272.807,6.86781 271.807,4.70114 272.5,2C 271.429,1.14825 270.429,0.314913 269.5,-0.5 Z"/></g>
<g><path style="opacity:1" fill="#130b1c" d="M 36.5,-0.5 C 40.5,-0.5 44.5,-0.5 48.5,-0.5C 49.556,0.876511 50.8893,1.70984 52.5,2C 51.9322,3.65169 50.5989,5.31836 48.5,7C 49.5,7.33333 50.5,7.66667 51.5,8C 49.641,8.6839 47.9743,9.6839 46.5,11C 47.299,13.6077 48.299,16.2743 49.5,19C 47.9759,22.9482 46.3092,27.2816 44.5,32C 46.4141,33.4688 47.0808,35.1355 46.5,37C 45.8333,38 45.1667,39 44.5,40C 45.8333,39.6667 47.1667,39.3333 48.5,39C 45.6869,41.6109 45.0202,44.6109 46.5,48C 44.2151,50.5402 44.5484,52.8735 47.5,55C 47.1667,56.6667 46.8333,58.3333 46.5,60C 47.3081,60.3076 47.9747,60.8076 48.5,61.5C 42.2334,64.2864 42.2334,66.4531 48.5,68C 45.9364,70.276 46.2697,72.276 49.5,74C 48.6919,74.3076 48.0253,74.8076 47.5,75.5C 48.5821,75.7486 49.9154,75.9152 51.5,76C 50.5,77.6667 49.5,79.3333 48.5,81C 50.1667,82.6667 51.8333,84.3333 53.5,86C 51.4156,86.6972 49.7489,87.8639 48.5,89.5C 43.096,82.4842 37.096,81.8175 30.5,87.5C 29.5,88.1667 28.5,88.8333 27.5,89.5C 27.4142,88.5041 27.7476,87.6708 28.5,87C 27.5,86 26.5,85 25.5,84C 27.3839,83.7837 29.0506,83.117 30.5,82C 29.8333,81.6667 29.1667,81.3333 28.5,81C 29.7839,80.3162 30.9505,80.4829 32,81.5C 32.3114,80.2575 31.8114,79.2575 30.5,78.5C 31.3966,78.3309 32.3966,77.9976 33.5,77.5C 32.9756,75.5469 31.9756,73.8802 30.5,72.5C 31.7758,70.1385 31.4425,67.9719 29.5,66C 32.5443,65.6411 32.8776,64.9745 30.5,64C 31.624,63.7508 32.624,63.2508 33.5,62.5C 31.9149,60.9134 30.2482,60.0801 28.5,60C 29.727,58.4126 29.3937,57.0793 27.5,56C 27.6932,54.3547 27.8598,52.5213 28,50.5C 30.5655,46.4501 32.3989,42.2835 33.5,38C 33.4148,36.8926 33.0814,35.8926 32.5,35C 33.428,34.6121 34.0946,33.9454 34.5,33C 32.9467,33.0612 31.6134,32.0612 30.5,30C 31.8613,28.4157 32.528,26.5824 32.5,24.5C 31.448,24.6495 30.448,24.4828 29.5,24C 32.6887,23.0192 33.022,21.6859 30.5,20C 31.8333,19.3333 32.8333,18.3333 33.5,17C 32.7865,15.6569 33.1198,14.3236 34.5,13C 32.4873,12.1247 32.4873,10.7913 34.5,9C 33.2889,7.88686 33.2889,6.7202 34.5,5.5C 33.5585,5.51055 32.8919,5.01055 32.5,4C 33.3441,1.99329 34.6774,0.493291 36.5,-0.5 Z"/></g>
<g><path style="opacity:1" fill="#0429a7" d="M 346.5,15.5 C 347.922,15.7496 348.922,16.583 349.5,18C 348.549,18.7175 348.383,19.5509 349,20.5C 354.623,27.9003 360.29,27.9003 366,20.5C 368.77,21.3479 371.603,21.6813 374.5,21.5C 374.5,21.8333 374.5,22.1667 374.5,22.5C 372.742,24.1407 371.242,26.1407 370,28.5C 369.667,28.1667 369.333,27.8333 369,27.5C 361.338,32.6056 353.505,32.7723 345.5,28C 344.167,27 344.167,26 345.5,25C 344.619,24.2917 343.953,23.4584 343.5,22.5C 343.671,21.1207 343.838,19.4541 344,17.5C 344.995,16.9341 345.828,16.2674 346.5,15.5 Z"/></g>
<g><path style="opacity:1" fill="#5159c1" d="M 335.5,10.5 C 335.792,13.3761 335.792,16.0428 335.5,18.5C 334.469,20.9608 333.802,23.6275 333.5,26.5C 330.916,26.5688 328.916,27.7355 327.5,30C 320.816,31.87 314.15,31.87 307.5,30C 306.663,28.9887 306.33,27.8221 306.5,26.5C 308.167,25.1667 309.833,25.1667 311.5,26.5C 313.076,27.075 314.742,27.4084 316.5,27.5C 321.503,26.517 325.836,24.1836 329.5,20.5C 330.348,18.5914 330.682,16.5914 330.5,14.5C 331.161,13.2825 331.828,11.9492 332.5,10.5C 333.527,11.7914 334.527,11.7914 335.5,10.5 Z"/></g>
<g><path style="opacity:1" fill="#4345b4" d="M 339.5,21.5 C 339.249,23.1703 338.582,24.6703 337.5,26C 333.907,29.289 329.907,31.789 325.5,33.5C 320.297,34.427 315.13,35.427 310,36.5C 306.593,36.5785 303.426,35.9118 300.5,34.5C 300.756,31.4021 301.422,28.4021 302.5,25.5C 303.143,23.9236 304.143,22.5903 305.5,21.5C 305.629,23.2161 305.962,24.8828 306.5,26.5C 306.33,27.8221 306.663,28.9887 307.5,30C 314.15,31.87 320.816,31.87 327.5,30C 328.916,27.7355 330.916,26.5688 333.5,26.5C 333.802,23.6275 334.469,20.9608 335.5,18.5C 335.735,19.0967 336.235,19.4301 337,19.5C 340.038,16.9512 340.871,17.6179 339.5,21.5 Z"/></g>
<g><path style="opacity:1" fill="#1f125e" d="M 131.5,-0.5 C 136.833,-0.5 142.167,-0.5 147.5,-0.5C 147.804,0.14987 148.137,0.816537 148.5,1.5C 148.154,2.69559 147.654,2.69559 147,1.5C 146.383,2.44915 146.549,3.28248 147.5,4C 144.967,6.08403 144.967,8.08403 147.5,10C 146.506,11.3287 145.506,12.662 144.5,14C 144.905,14.9454 145.572,15.6121 146.5,16C 143.956,17.5626 143.956,19.0626 146.5,20.5C 143.987,23.3182 143.987,26.1515 146.5,29C 145.754,31.0932 145.421,33.0932 145.5,35C 147.513,35.8753 147.513,37.2087 145.5,39C 147.301,39.3173 147.634,39.984 146.5,41C 147.977,42.8836 149.31,44.8836 150.5,47C 149.464,48.7755 149.464,50.6089 150.5,52.5C 147.588,54.0663 144.921,56.0663 142.5,58.5C 140.481,56.8103 138.481,55.1436 136.5,53.5C 135.791,52.596 134.791,52.2627 133.5,52.5C 133.221,49.8822 132.554,47.3822 131.5,45C 132.5,42.9093 131.833,41.2426 129.5,40C 130.167,38.6667 130.833,37.3333 131.5,36C 128.301,34.321 127.967,32.321 130.5,30C 129.833,29.3333 129.167,28.6667 128.5,28C 128.888,23.5268 128.888,19.1934 128.5,15C 130.991,14.3741 130.991,13.5407 128.5,12.5C 129.767,10.6293 129.767,8.79595 128.5,7C 130.377,4.87401 131.377,2.37401 131.5,-0.5 Z"/></g>
<g><path style="opacity:1" fill="#14238a" d="M 339.5,21.5 C 340.705,23.1376 342.038,23.4709 343.5,22.5C 343.953,23.4584 344.619,24.2917 345.5,25C 344.167,26 344.167,27 345.5,28C 353.505,32.7723 361.338,32.6056 369,27.5C 369.333,27.8333 369.667,28.1667 370,28.5C 371.242,26.1407 372.742,24.1407 374.5,22.5C 374.5,27.1667 374.5,31.8333 374.5,36.5C 373.504,36.4142 372.671,36.7476 372,37.5C 371.71,35.9559 371.044,34.6226 370,33.5C 367.123,35.5115 363.956,36.8448 360.5,37.5C 354.548,36.3159 348.548,35.3159 342.5,34.5C 339.02,35.1054 335.686,36.1054 332.5,37.5C 331.85,37.1961 331.183,36.8627 330.5,36.5C 329.378,37.6302 328.044,38.2969 326.5,38.5C 326.279,37.2652 325.612,36.2652 324.5,35.5C 324.863,34.8165 325.196,34.1499 325.5,33.5C 329.907,31.789 333.907,29.289 337.5,26C 338.582,24.6703 339.249,23.1703 339.5,21.5 Z"/></g>
<g><path style="opacity:1" fill="#180d2e" d="M 73.5,-0.5 C 76.8333,-0.5 80.1667,-0.5 83.5,-0.5C 82.763,1.87769 81.763,4.37769 80.5,7C 81.1667,7.33333 81.8333,7.66667 82.5,8C 81.3279,8.41862 80.3279,9.08529 79.5,10C 82.9431,10.2213 83.2764,11.2213 80.5,13C 81.7978,15.4992 81.4644,17.8325 79.5,20C 80.1667,20.3333 80.8333,20.6667 81.5,21C 80.1667,21.6667 78.8333,22.3333 77.5,23C 78.6872,24.0195 79.6872,25.1861 80.5,26.5C 80.1543,27.6956 79.6543,27.6956 79,26.5C 79.6981,28.7638 79.1981,30.5972 77.5,32C 80.3786,34.9455 81.0453,37.9455 79.5,41C 82.033,43.084 82.033,45.084 79.5,47C 82.1667,47.6667 82.1667,48.3333 79.5,49C 81.3029,50.9845 82.3029,52.9845 82.5,55C 81.8333,56.3333 80.8333,57.3333 79.5,58C 80.5505,59.3848 81.8839,60.3848 83.5,61C 82.8333,61.3333 82.1667,61.6667 81.5,62C 82.218,63.9874 83.218,65.8208 84.5,67.5C 83.0977,68.8425 83.4311,69.6758 85.5,70C 86.4467,72.4785 86.4467,74.8118 85.5,77C 87.2658,79.096 88.5991,81.4293 89.5,84C 90.8333,84.3333 92.1667,84.6667 93.5,85C 92.1667,86 90.8333,87 89.5,88C 91.9852,89.4874 94.1518,91.3208 96,93.5C 96.6172,94.4491 96.4506,95.2825 95.5,96C 97.3008,96.3173 97.6341,96.984 96.5,98C 97.9389,98.9906 98.9389,100.324 99.5,102C 98.8333,102.333 98.1667,102.667 97.5,103C 99.4552,103.953 101.122,105.287 102.5,107C 101.833,107.333 101.167,107.667 100.5,108C 101.667,108.5 102.5,109.333 103,110.5C 103.414,110.043 103.914,109.709 104.5,109.5C 108.386,110.588 108.386,111.421 104.5,112C 105.253,113.487 106.086,113.654 107,112.5C 107.71,113.973 108.876,114.64 110.5,114.5C 110.351,115.552 110.517,116.552 111,117.5C 112.625,116.588 113.459,117.255 113.5,119.5C 108.833,119.5 104.167,119.5 99.5,119.5C 96.2862,117.403 93.6195,114.237 91.5,110C 90.9698,108.744 90.9698,107.244 91.5,105.5C 89.0674,104.103 86.7341,102.603 84.5,101C 84.8333,100.667 85.1667,100.333 85.5,100C 84.3601,98.0266 83.0267,96.1933 81.5,94.5C 82.1667,94.1667 82.8333,93.8333 83.5,93.5C 81.8273,91.9137 79.8273,91.2471 77.5,91.5C 77.67,90.1779 77.3366,89.0113 76.5,88C 77.3081,87.6924 77.9747,87.1924 78.5,86.5C 77.2887,85.1255 76.2887,83.6255 75.5,82C 75.8919,80.9895 76.5585,80.4895 77.5,80.5C 75.2652,79.1502 73.9319,77.6502 73.5,76C 74.3802,74.6439 74.7135,73.1439 74.5,71.5C 71.4017,71.5875 71.0684,71.0875 73.5,70C 72.8333,69.6667 72.1667,69.3333 71.5,69C 72.428,68.6121 73.0946,67.9454 73.5,67C 73.4524,63.9384 72.7858,60.7718 71.5,57.5C 66.9949,55.936 65.3282,52.936 66.5,48.5C 66.0233,47.5224 65.3567,46.6891 64.5,46C 66.4363,43.6054 68.1029,40.6054 69.5,37C 68.5,36.6667 67.5,36.3333 66.5,36C 66.4787,33.8214 66.9787,31.6547 68,29.5C 67.2825,30.4506 66.4491,30.6172 65.5,30C 68.2912,27.5978 70.9579,25.7645 73.5,24.5C 72.4476,22.238 71.4476,19.5714 70.5,16.5C 69.865,15.5413 69.865,14.208 70.5,12.5C 71.7639,12.3601 72.9305,12.3601 74,12.5C 74.9907,13.4296 75.4907,14.5962 75.5,16C 73.844,18.1724 74.1773,20.0057 76.5,21.5C 76.8333,21 77.1667,20.5 77.5,20C 76.3852,14.3816 75.3852,8.88156 74.5,3.5C 74.5674,2.04125 74.2341,0.707917 73.5,-0.5 Z"/></g>
<g><path style="opacity:1" fill="#0f1665" d="M 374.5,36.5 C 374.5,39.8333 374.5,43.1667 374.5,46.5C 373.167,47.1667 371.833,47.8333 370.5,48.5C 370.5,47.5 370.5,46.5 370.5,45.5C 371.519,43.4595 371.519,41.4595 370.5,39.5C 362.505,43.3099 354.671,43.9765 347,41.5C 343.688,42.6865 340.521,44.0198 337.5,45.5C 336.226,44.8106 336.226,43.9772 337.5,43C 335.97,41.8797 334.303,41.0464 332.5,40.5C 332.5,39.5 332.5,38.5 332.5,37.5C 335.686,36.1054 339.02,35.1054 342.5,34.5C 348.548,35.3159 354.548,36.3159 360.5,37.5C 363.956,36.8448 367.123,35.5115 370,33.5C 371.044,34.6226 371.71,35.9559 372,37.5C 372.671,36.7476 373.504,36.4142 374.5,36.5 Z"/></g>
<g><path style="opacity:1" fill="#f5f4f7" d="M 100.5,47.5 C 102.722,47.178 104.556,47.8446 106,49.5C 106.333,52.5 106.667,55.5 107,58.5C 108.356,59.3802 109.856,59.7135 111.5,59.5C 111.768,55.2234 112.768,51.2234 114.5,47.5C 116.722,47.178 118.556,47.8446 120,49.5C 120.333,52.1667 120.667,54.8333 121,57.5C 123.553,59.7162 125.72,62.2162 127.5,65C 126.13,68.3788 123.797,69.2121 120.5,67.5C 119.746,64.223 119.246,60.8897 119,57.5C 117.333,56.1667 115.667,56.1667 114,57.5C 113.752,60.9194 113.252,64.2527 112.5,67.5C 110.516,68.6942 108.516,68.6942 106.5,67.5C 107.135,61.0708 104.635,56.4041 99,53.5C 98.2516,51.1599 98.7516,49.1599 100.5,47.5 Z"/></g>
<g><path style="opacity:1" fill="#f4f3f7" d="M 150.5,52.5 C 150.833,52.5 151.167,52.5 151.5,52.5C 151.5,57.8333 151.5,63.1667 151.5,68.5C 150.5,68.5 149.5,68.5 148.5,68.5C 148.665,65.1501 148.498,61.8168 148,58.5C 146.316,60.3513 144.483,62.018 142.5,63.5C 140.517,62.018 138.684,60.3513 137,58.5C 136.502,61.8168 136.335,65.1501 136.5,68.5C 135.5,68.5 134.5,68.5 133.5,68.5C 133.5,63.5 133.5,58.5 133.5,53.5C 134.5,53.5 135.5,53.5 136.5,53.5C 138.481,55.1436 140.481,56.8103 142.5,58.5C 144.921,56.0663 147.588,54.0663 150.5,52.5 Z"/></g>
<g><path style="opacity:1" fill="#42107e" d="M 332.5,37.5 C 332.5,38.5 332.5,39.5 332.5,40.5C 331.854,42.1561 331.187,43.8228 330.5,45.5C 335.477,55.2736 334.477,64.2736 327.5,72.5C 328.737,73.2807 329.737,74.2807 330.5,75.5C 328.972,76.8613 327.305,78.028 325.5,79C 321.3,79.8761 317.133,80.7095 313,81.5C 311.417,79.945 309.584,78.7783 307.5,78C 306.748,77.3292 306.414,76.4959 306.5,75.5C 307.323,70.6606 305.323,68.3272 300.5,68.5C 297.404,65.2138 296.071,61.2138 296.5,56.5C 296.44,51.6496 297.773,47.3162 300.5,43.5C 300.799,48.3656 302.466,52.6989 305.5,56.5C 304.106,59.9078 304.272,63.2411 306,66.5C 309.883,73.513 315.717,75.6796 323.5,73C 322.833,72.3333 322.167,71.6667 321.5,71C 324.343,68.489 326.843,65.6557 329,62.5C 329.891,59.0658 329.391,55.8991 327.5,53C 327.645,52.228 327.978,51.5613 328.5,51C 326.462,49.764 325.295,47.9306 325,45.5C 323.581,44.5399 322.081,43.7065 320.5,43C 323.464,42.6941 325.464,41.1941 326.5,38.5C 328.044,38.2969 329.378,37.6302 330.5,36.5C 331.183,36.8627 331.85,37.1961 332.5,37.5 Z"/></g>
<g><path style="opacity:1" fill="#eeecf3" d="M 159.5,68.5 C 158.833,68.5 158.167,68.5 157.5,68.5C 155.016,66.4548 154.016,63.7882 154.5,60.5C 155.278,57.3904 157.278,55.7237 160.5,55.5C 166.863,56.0384 169.029,59.3718 167,65.5C 165.152,68.0414 162.652,69.0414 159.5,68.5 Z"/></g>
<g><path style="opacity:1" fill="#e3e1ed" d="M 173.5,55.5 C 175.5,55.5 177.5,55.5 179.5,55.5C 179.5,56.5 179.5,57.5 179.5,58.5C 177.533,58.2606 175.699,58.5939 174,59.5C 173.502,62.4816 173.335,65.4816 173.5,68.5C 172.167,68.5 170.833,68.5 169.5,68.5C 168.535,63.3172 169.868,58.9839 173.5,55.5 Z"/></g>
<g><path style="opacity:1" fill="#1a0c4b" d="M 370.5,45.5 C 365.069,46.4527 359.736,47.7861 354.5,49.5C 350.698,54.4936 349.698,59.6603 351.5,65C 350.207,67.0519 349.207,69.2186 348.5,71.5C 348.5,71.8333 348.5,72.1667 348.5,72.5C 347.209,72.2627 346.209,72.596 345.5,73.5C 343.901,73.2322 342.568,73.5655 341.5,74.5C 339.076,74.8076 336.743,74.4742 334.5,73.5C 338.051,68.0623 339.718,62.5623 339.5,57C 338.751,53.925 337.751,50.925 336.5,48C 337.252,47.3292 337.586,46.4959 337.5,45.5C 340.521,44.0198 343.688,42.6865 347,41.5C 354.671,43.9765 362.505,43.3099 370.5,39.5C 371.519,41.4595 371.519,43.4595 370.5,45.5 Z"/></g>
<g><path style="opacity:1" fill="#8f88aa" d="M 133.5,52.5 C 134.791,52.2627 135.791,52.596 136.5,53.5C 135.5,53.5 134.5,53.5 133.5,53.5C 133.5,58.5 133.5,63.5 133.5,68.5C 132.167,63.1667 132.167,57.8333 133.5,52.5 Z"/></g>
<g><path style="opacity:1" fill="#0a0c37" d="M 370.5,45.5 C 370.5,46.5 370.5,47.5 370.5,48.5C 368.385,54.6107 365.052,59.9441 360.5,64.5C 357.165,67.8389 353.165,70.1722 348.5,71.5C 349.207,69.2186 350.207,67.0519 351.5,65C 349.698,59.6603 350.698,54.4936 354.5,49.5C 359.736,47.7861 365.069,46.4527 370.5,45.5 Z"/></g>
<g><path style="opacity:1" fill="#4e148f" d="M 325.5,33.5 C 325.196,34.1499 324.863,34.8165 324.5,35.5C 325.612,36.2652 326.279,37.2652 326.5,38.5C 325.464,41.1941 323.464,42.6941 320.5,43C 322.081,43.7065 323.581,44.5399 325,45.5C 325.295,47.9306 326.462,49.764 328.5,51C 327.978,51.5613 327.645,52.228 327.5,53C 329.391,55.8991 329.891,59.0658 329,62.5C 326.843,65.6557 324.343,68.489 321.5,71C 322.167,71.6667 322.833,72.3333 323.5,73C 315.717,75.6796 309.883,73.513 306,66.5C 304.272,63.2411 304.106,59.9078 305.5,56.5C 302.466,52.6989 300.799,48.3656 300.5,43.5C 300.5,40.8333 300.5,38.1667 300.5,35.5C 300.5,35.1667 300.5,34.8333 300.5,34.5C 303.426,35.9118 306.593,36.5785 310,36.5C 315.13,35.427 320.297,34.427 325.5,33.5 Z"/></g>
<g><path style="opacity:1" fill="#2a1c6c" d="M 159.5,58.5 C 163.976,58.8003 165.31,60.9669 163.5,65C 157.339,65.878 156.006,63.7113 159.5,58.5 Z"/></g>
<g><path style="opacity:1" fill="#f2f2f4" d="M 92.5,61.5 C 95.0444,61.1043 97.2111,61.771 99,63.5C 99.747,65.9278 98.9137,67.5944 96.5,68.5C 91.8243,68.1529 90.4909,65.8195 92.5,61.5 Z"/></g>
<g><path style="opacity:1" fill="#170d28" d="M 64.5,-0.5 C 67.5,-0.5 70.5,-0.5 73.5,-0.5C 74.2341,0.707917 74.5674,2.04125 74.5,3.5C 70.4898,4.89338 66.4898,6.39338 62.5,8C 65.5019,7.8416 68.5019,7.3416 71.5,6.5C 71.5,7.5 71.5,8.5 71.5,9.5C 68.538,9.11673 67.538,10.1167 68.5,12.5C 65.7923,15.165 66.4589,16.4983 70.5,16.5C 71.4476,19.5714 72.4476,22.238 73.5,24.5C 70.9579,25.7645 68.2912,27.5978 65.5,30C 66.4491,30.6172 67.2825,30.4506 68,29.5C 66.9787,31.6547 66.4787,33.8214 66.5,36C 67.5,36.3333 68.5,36.6667 69.5,37C 68.1029,40.6054 66.4363,43.6054 64.5,46C 65.3567,46.6891 66.0233,47.5224 66.5,48.5C 65.3282,52.936 66.9949,55.936 71.5,57.5C 72.7858,60.7718 73.4524,63.9384 73.5,67C 73.0946,67.9454 72.428,68.6121 71.5,69C 72.1667,69.3333 72.8333,69.6667 73.5,70C 71.0684,71.0875 71.4017,71.5875 74.5,71.5C 74.7135,73.1439 74.3802,74.6439 73.5,76C 73.9319,77.6502 75.2652,79.1502 77.5,80.5C 76.5585,80.4895 75.8919,80.9895 75.5,82C 76.2887,83.6255 77.2887,85.1255 78.5,86.5C 77.9747,87.1924 77.3081,87.6924 76.5,88C 77.3366,89.0113 77.67,90.1779 77.5,91.5C 79.8273,91.2471 81.8273,91.9137 83.5,93.5C 82.8333,93.8333 82.1667,94.1667 81.5,94.5C 83.0267,96.1933 84.3601,98.0266 85.5,100C 85.1667,100.333 84.8333,100.667 84.5,101C 86.7341,102.603 89.0674,104.103 91.5,105.5C 90.9698,107.244 90.9698,108.744 91.5,110C 93.6195,114.237 96.2862,117.403 99.5,119.5C 94.1667,119.5 88.8333,119.5 83.5,119.5C 83.6107,118.883 83.944,118.383 84.5,118C 82.8333,116.333 81.1667,114.667 79.5,113C 80.5536,111.612 80.7203,110.112 80,108.5C 75.4563,109.915 74.9563,108.749 78.5,105C 76.0801,105.988 73.7467,105.655 71.5,104C 72.1667,103.667 72.8333,103.333 73.5,103C 70.22,100.573 69.22,97.906 70.5,95C 66.9047,95.6126 66.5713,94.4459 69.5,91.5C 67.3126,88.3511 64.6459,84.8511 61.5,81C 62.9561,80.5774 63.4561,79.7441 63,78.5C 62.0862,79.6537 61.2529,79.487 60.5,78C 63.7423,77.7167 64.0756,76.8834 61.5,75.5C 62.3256,74.549 62.4922,73.549 62,72.5C 59.2656,71.6383 59.0989,70.805 61.5,70C 58.7236,68.2213 59.0569,67.2213 62.5,67C 59.5575,65.5409 59.2241,63.8743 61.5,62C 60.1667,61.3333 58.8333,60.6667 57.5,60C 58.7159,58.406 60.0493,56.906 61.5,55.5C 60.4179,55.2514 59.0846,55.0848 57.5,55C 58.3859,53.7827 59.3859,52.4493 60.5,51C 56.1482,50.5811 55.8149,49.9145 59.5,49C 58.572,48.6121 57.9054,47.9454 57.5,47C 57.8919,45.9895 58.5585,45.4895 59.5,45.5C 56.9244,44.1166 57.2577,43.2833 60.5,43C 59.6433,42.3109 58.9767,41.4776 58.5,40.5C 58.5693,38.7219 58.9026,36.8886 59.5,35C 58.3779,32.3089 57.3779,29.6423 56.5,27C 58.5015,24.2951 60.1682,21.2951 61.5,18C 60.1667,16.3333 60.1667,14.6667 61.5,13C 60.3826,11.1079 58.7159,10.2746 56.5,10.5C 57.64,9.19858 58.9733,8.03191 60.5,7C 60.1654,5.49738 60.1654,4.16404 60.5,3C 61.7305,1.59524 63.0639,0.428572 64.5,-0.5 Z"/></g>
<g><path style="opacity:1" fill="#1d135a" d="M 151.5,52.5 C 152.319,55.3054 152.819,58.3054 153,61.5C 153.383,60.944 153.883,60.6107 154.5,60.5C 154.016,63.7882 155.016,66.4548 157.5,68.5C 157.423,69.7498 156.756,70.5831 155.5,71C 157.392,72.7676 159.059,74.7676 160.5,77C 160.387,78.2798 159.72,79.1131 158.5,79.5C 157.833,78.1667 157.167,76.8333 156.5,75.5C 156.167,75.6667 155.833,75.8333 155.5,76C 156.833,77.3333 156.833,78.6667 155.5,80C 158.011,82.1793 160.178,84.6793 162,87.5C 162.718,86.5494 163.551,86.3828 164.5,87C 163.549,87.7175 163.383,88.5509 164,89.5C 167.509,92.5573 171.009,95.5573 174.5,98.5C 175,99.5 175.5,100.5 176,101.5C 176.333,101.167 176.667,100.833 177,100.5C 178.583,102.055 180.416,103.222 182.5,104C 181.167,104.667 181.167,105.333 182.5,106C 186.426,107.164 189.26,108.997 191,111.5C 192.908,110.921 194.575,110.921 196,111.5C 199.673,115.696 204.173,118.362 209.5,119.5C 198.833,119.5 188.167,119.5 177.5,119.5C 174.589,117.761 172.089,115.428 170,112.5C 167.67,113.156 166.003,112.156 165,109.5C 161.017,107.887 157.684,104.887 155,100.5C 153.16,101.833 152.66,101.666 153.5,100C 150.61,96.6319 147.943,93.7986 145.5,91.5C 144.359,90.5745 144.359,89.7412 145.5,89C 144.747,87.513 143.914,87.3463 143,88.5C 142.667,87.5 142.333,86.5 142,85.5C 140.334,86.3402 140.167,85.8402 141.5,84C 140.132,82.6598 138.799,81.3264 137.5,80C 136.576,78.85 136.576,77.85 137.5,77C 136.377,75.9563 135.044,75.2896 133.5,75C 134.603,73.3196 134.27,71.8196 132.5,70.5C 133.949,69.8281 135.282,69.1614 136.5,68.5C 136.335,65.1501 136.502,61.8168 137,58.5C 138.684,60.3513 140.517,62.018 142.5,63.5C 144.483,62.018 146.316,60.3513 148,58.5C 148.498,61.8168 148.665,65.1501 148.5,68.5C 149.5,68.5 150.5,68.5 151.5,68.5C 151.5,63.1667 151.5,57.8333 151.5,52.5 Z"/></g>
<g><path style="opacity:1" fill="#1c114e" d="M 115.5,-0.5 C 120.833,-0.5 126.167,-0.5 131.5,-0.5C 131.377,2.37401 130.377,4.87401 128.5,7C 129.767,8.79595 129.767,10.6293 128.5,12.5C 130.991,13.5407 130.991,14.3741 128.5,15C 128.888,19.1934 128.888,23.5268 128.5,28C 129.167,28.6667 129.833,29.3333 130.5,30C 127.967,32.321 128.301,34.321 131.5,36C 130.833,37.3333 130.167,38.6667 129.5,40C 131.833,41.2426 132.5,42.9093 131.5,45C 132.554,47.3822 133.221,49.8822 133.5,52.5C 132.167,57.8333 132.167,63.1667 133.5,68.5C 134.5,68.5 135.5,68.5 136.5,68.5C 135.282,69.1614 133.949,69.8281 132.5,70.5C 134.27,71.8196 134.603,73.3196 133.5,75C 135.044,75.2896 136.377,75.9563 137.5,77C 136.576,77.85 136.576,78.85 137.5,80C 138.799,81.3264 140.132,82.6598 141.5,84C 140.167,85.8402 140.334,86.3402 142,85.5C 142.333,86.5 142.667,87.5 143,88.5C 143.914,87.3463 144.747,87.513 145.5,89C 144.359,89.7412 144.359,90.5745 145.5,91.5C 147.943,93.7986 150.61,96.6319 153.5,100C 152.66,101.666 153.16,101.833 155,100.5C 157.684,104.887 161.017,107.887 165,109.5C 166.003,112.156 167.67,113.156 170,112.5C 172.089,115.428 174.589,117.761 177.5,119.5C 167.833,119.5 158.167,119.5 148.5,119.5C 146.721,117.537 145.054,115.371 143.5,113C 139.67,111.336 137.17,108.503 136,104.5C 135.586,104.957 135.086,105.291 134.5,105.5C 133.3,104.469 131.966,103.635 130.5,103C 131.5,102.667 132.5,102.333 133.5,102C 131.114,101.716 130.448,100.716 131.5,99C 129.956,98.7104 128.623,98.0437 127.5,97C 127.5,96 127.5,95 127.5,94C 125.699,93.6827 125.366,93.016 126.5,92C 124.36,91.0267 122.693,89.5267 121.5,87.5C 122.629,85.4706 122.129,85.1373 120,86.5C 118.086,85.324 118.252,84.324 120.5,83.5C 117.947,79.5517 115.281,75.7184 112.5,72C 113.5,71.6667 114.5,71.3333 115.5,71C 113.574,70.5776 112.574,69.4109 112.5,67.5C 113.252,64.2527 113.752,60.9194 114,57.5C 115.667,56.1667 117.333,56.1667 119,57.5C 119.246,60.8897 119.746,64.223 120.5,67.5C 123.797,69.2121 126.13,68.3788 127.5,65C 125.72,62.2162 123.553,59.7162 121,57.5C 120.667,54.8333 120.333,52.1667 120,49.5C 118.556,47.8446 116.722,47.178 114.5,47.5C 114.217,46.7839 113.884,45.9506 113.5,45C 116.028,43.6841 116.028,42.5174 113.5,41.5C 113.569,39.7219 113.903,37.8886 114.5,36C 113.692,35.6924 113.025,35.1924 112.5,34.5C 113.764,26.567 113.764,19.4003 112.5,13C 114.384,11.0109 114.717,9.0109 113.5,7C 114.167,6.66667 114.833,6.33333 115.5,6C 114.667,3.91888 114.667,1.75221 115.5,-0.5 Z"/></g>
<g><path style="opacity:1" fill="#1f1773" d="M 165.5,-0.5 C 169.833,-0.5 174.167,-0.5 178.5,-0.5C 177.047,0.824868 177.381,1.6582 179.5,2C 178.299,2.90252 177.465,4.06919 177,5.5C 176.667,5.16667 176.333,4.83333 176,4.5C 175.316,5.78387 175.483,6.95054 176.5,8C 172.719,8.36652 172.052,9.69985 174.5,12C 173.833,13.6667 173.167,15.3333 172.5,17C 173.308,17.3076 173.975,17.8076 174.5,18.5C 174.728,22.5086 174.728,26.1753 174.5,29.5C 176.973,31.0981 176.973,32.5981 174.5,34C 175.658,38.1383 177.658,41.8049 180.5,45C 180.167,45.3333 179.833,45.6667 179.5,46C 181.991,46.6259 181.991,47.4593 179.5,48.5C 181.028,49.8613 182.695,51.028 184.5,52C 183.833,52.3333 183.167,52.6667 182.5,53C 183.381,53.7083 184.047,54.5416 184.5,55.5C 183.5,55.5 182.5,55.5 181.5,55.5C 181.5,60.8333 181.5,66.1667 181.5,71.5C 182.5,71.5 183.5,71.5 184.5,71.5C 184.5,70.5 184.5,69.5 184.5,68.5C 191.175,69.814 194.509,67.1473 194.5,60.5C 195.29,61.6085 195.79,62.9419 196,64.5C 196.175,59.9805 196.675,55.6472 197.5,51.5C 197.5,56.8333 197.5,62.1667 197.5,67.5C 198.5,67.5 199.5,67.5 200.5,67.5C 200.336,64.8127 200.503,62.146 201,59.5C 202.549,56.9974 204.216,56.9974 206,59.5C 206.497,62.146 206.664,64.8127 206.5,67.5C 207.5,67.5 208.5,67.5 209.5,67.5C 209.5,65.1667 209.5,62.8333 209.5,60.5C 210.309,62.2922 210.809,64.2922 211,66.5C 212.749,65.701 214.082,66.3676 215,68.5C 215.278,67.5842 215.778,66.9175 216.5,66.5C 216.5,67.8333 216.5,69.1667 216.5,70.5C 217.5,70.5 218.5,70.5 219.5,70.5C 219.5,69.1667 219.5,67.8333 219.5,66.5C 221.386,66.6534 223.386,66.32 225.5,65.5C 225.5,66.5 225.5,67.5 225.5,68.5C 228.385,68.8064 231.052,68.4731 233.5,67.5C 237.918,66.1701 239.585,63.1701 238.5,58.5C 239.268,59.2625 239.768,60.2625 240,61.5C 240.232,60.2625 240.732,59.2625 241.5,58.5C 240.495,66.3296 243.828,69.4963 251.5,68C 253.644,67.2079 254.977,65.7079 255.5,63.5C 256.391,64.1098 257.391,64.4431 258.5,64.5C 260.847,67.9173 264.18,69.2506 268.5,68.5C 272.2,70.2453 276.2,71.2453 280.5,71.5C 285.234,72.8236 290.067,72.8236 295,71.5C 294.893,68.2673 293.893,65.2673 292,62.5C 291.333,58.1667 291.333,53.8333 292,49.5C 293.47,46.0523 295.303,42.8857 297.5,40C 297.167,39.6667 296.833,39.3333 296.5,39C 298.35,38.3103 299.684,37.1436 300.5,35.5C 300.5,38.1667 300.5,40.8333 300.5,43.5C 297.773,47.3162 296.44,51.6496 296.5,56.5C 296.071,61.2138 297.404,65.2138 300.5,68.5C 296.3,72.3797 296.8,75.3797 302,77.5C 303.833,77.4814 305.333,76.8148 306.5,75.5C 306.414,76.4959 306.748,77.3292 307.5,78C 309.584,78.7783 311.417,79.945 313,81.5C 317.133,80.7095 321.3,79.8761 325.5,79C 327.305,78.028 328.972,76.8613 330.5,75.5C 329.737,74.2807 328.737,73.2807 327.5,72.5C 334.477,64.2736 335.477,55.2736 330.5,45.5C 331.187,43.8228 331.854,42.1561 332.5,40.5C 334.303,41.0464 335.97,41.8797 337.5,43C 336.226,43.9772 336.226,44.8106 337.5,45.5C 337.586,46.4959 337.252,47.3292 336.5,48C 337.751,50.925 338.751,53.925 339.5,57C 339.718,62.5623 338.051,68.0623 334.5,73.5C 336.743,74.4742 339.076,74.8076 341.5,74.5C 335.524,81.7261 328.524,86.8928 320.5,90C 317.574,90.2178 314.74,90.7178 312,91.5C 306.556,90.7336 300.723,90.7336 294.5,91.5C 291.631,90.1046 288.964,89.1046 286.5,88.5C 283.299,89.3786 280.632,91.0453 278.5,93.5C 276.922,92.3595 275.256,91.8595 273.5,92C 274.451,92.7175 274.617,93.5509 274,94.5C 268.585,98.7527 262.419,101.753 255.5,103.5C 254.284,102.998 253.117,102.665 252,102.5C 251.147,104.125 250.147,104.458 249,103.5C 247.601,104.227 246.101,104.727 244.5,105C 245.451,105.718 245.617,106.551 245,107.5C 243.755,107.539 242.422,107.205 241,106.5C 240.055,106.905 239.388,107.572 239,108.5C 237.806,106.475 236.306,106.141 234.5,107.5C 233.459,105.009 232.626,105.009 232,107.5C 231.259,106.359 230.425,106.359 229.5,107.5C 228.41,106.273 227.076,105.44 225.5,105C 227.595,104.444 227.762,103.944 226,103.5C 222.266,105.803 219.1,105.47 216.5,102.5C 215.522,102.977 214.689,103.643 214,104.5C 212.573,100.665 210.073,99.1652 206.5,100C 208.595,99.4444 208.762,98.9444 207,98.5C 206.055,98.9054 205.388,99.572 205,100.5C 204.155,97.5878 202.488,96.5878 200,97.5C 193.402,93.1024 187.235,87.4357 181.5,80.5C 180.205,79.9017 178.872,79.4017 177.5,79C 178.131,77.2317 177.298,76.065 175,75.5C 174.055,75.9054 173.388,76.572 173,77.5C 172.627,75.3018 172.127,73.1351 171.5,71C 172.056,69.9889 172.722,69.1556 173.5,68.5C 173.335,65.4816 173.502,62.4816 174,59.5C 175.699,58.5939 177.533,58.2606 179.5,58.5C 179.5,57.5 179.5,56.5 179.5,55.5C 177.5,55.5 175.5,55.5 173.5,55.5C 172.064,54.5714 170.731,53.4048 169.5,52C 170.167,51.3333 170.833,50.6667 171.5,50C 166.892,42.8638 164.559,35.8638 164.5,29C 163.76,27.2151 163.093,25.3817 162.5,23.5C 163.389,19.6123 163.389,15.6123 162.5,11.5C 165.391,8.83623 165.057,6.66956 161.5,5C 162.488,2.833 163.821,0.999663 165.5,-0.5 Z"/></g>
<g><path style="opacity:1" fill="#7b78b2" d="M 226.5,53.5 C 226.5,58.1667 226.5,62.8333 226.5,67.5C 228.833,67.5 231.167,67.5 233.5,67.5C 231.052,68.4731 228.385,68.8064 225.5,68.5C 225.5,67.5 225.5,66.5 225.5,65.5C 225.183,61.2984 225.517,57.2984 226.5,53.5 Z"/></g>
<g><path style="opacity:1" fill="#afabd0" d="M 219.5,66.5 C 219.5,67.8333 219.5,69.1667 219.5,70.5C 218.5,70.5 217.5,70.5 216.5,70.5C 216.5,69.1667 216.5,67.8333 216.5,66.5C 216.5,61.1667 216.5,55.8333 216.5,50.5C 217.5,50.5 218.5,50.5 219.5,50.5C 219.5,55.8333 219.5,61.1667 219.5,66.5 Z"/></g>
<g><path style="opacity:1" fill="#f2f1f7" d="M 184.5,55.5 C 187.01,55.0956 189.677,55.5956 192.5,57C 193.823,57.8159 194.489,58.9826 194.5,60.5C 194.509,67.1473 191.175,69.814 184.5,68.5C 184.5,69.5 184.5,70.5 184.5,71.5C 183.5,71.5 182.5,71.5 181.5,71.5C 181.5,66.1667 181.5,60.8333 181.5,55.5C 182.5,55.5 183.5,55.5 184.5,55.5 Z"/></g>
<g><path style="opacity:1" fill="#291d79" d="M 186.5,58.5 C 190.788,58.5582 192.121,60.5582 190.5,64.5C 184.787,65.4516 183.454,63.4516 186.5,58.5 Z"/></g>
<g><path style="opacity:1" fill="#e1e2e9" d="M 274.5,52.5 C 277.157,52.162 279.49,52.8287 281.5,54.5C 281.192,55.3081 280.692,55.9747 280,56.5C 278.644,55.6198 277.144,55.2865 275.5,55.5C 275.351,56.552 275.517,57.552 276,58.5C 277.667,59.5 279.333,60.5 281,61.5C 282.394,66.2795 280.56,68.6128 275.5,68.5C 272.307,68.8116 271.14,67.4782 272,64.5C 274.292,65.9078 276.459,65.7411 278.5,64C 276.2,62.2752 274.034,60.4418 272,58.5C 271.458,55.9175 272.292,53.9175 274.5,52.5 Z"/></g>
<g><path style="opacity:1" fill="#e8e9ee" d="M 268.5,53.5 C 269.776,54.3864 269.776,55.3864 268.5,56.5C 266.902,55.5153 265.235,55.3486 263.5,56C 259.6,62.6331 261.6,66.1331 269.5,66.5C 269.137,67.1835 268.804,67.8501 268.5,68.5C 264.18,69.2506 260.847,67.9173 258.5,64.5C 257.169,56.1731 260.502,52.5065 268.5,53.5 Z"/></g>
<g><path style="opacity:1" fill="#e9e9f0" d="M 245.5,52.5 C 253.616,51.7045 256.949,55.3712 255.5,63.5C 254.977,65.7079 253.644,67.2079 251.5,68C 243.828,69.4963 240.495,66.3296 241.5,58.5C 241.833,57.1667 242.167,55.8333 242.5,54.5C 243.71,54.0679 244.71,53.4013 245.5,52.5 Z"/></g>
<g><path style="opacity:1" fill="#252471" d="M 246.5,55.5 C 251.989,55.504 253.822,58.1707 252,63.5C 249.667,66.1667 247.333,66.1667 245,63.5C 244.109,60.5024 244.609,57.8357 246.5,55.5 Z"/></g>
<g><path style="opacity:1" fill="#f7f7fa" d="M 226.5,53.5 C 229.518,53.3354 232.518,53.502 235.5,54C 237.141,55.129 238.141,56.629 238.5,58.5C 239.585,63.1701 237.918,66.1701 233.5,67.5C 231.167,67.5 228.833,67.5 226.5,67.5C 226.5,62.8333 226.5,58.1667 226.5,53.5 Z"/></g>
<g><path style="opacity:1" fill="#292383" d="M 229.5,55.5 C 235.263,55.7827 236.93,58.616 234.5,64C 232.975,65.0086 231.308,65.5086 229.5,65.5C 229.5,62.1667 229.5,58.8333 229.5,55.5 Z"/></g>
<g><path style="opacity:1" fill="#f2f2f7" d="M 197.5,51.5 C 198.5,51.5 199.5,51.5 200.5,51.5C 200.343,52.8734 200.51,54.2068 201,55.5C 205.724,53.9455 208.557,55.6121 209.5,60.5C 209.5,62.8333 209.5,65.1667 209.5,67.5C 208.5,67.5 207.5,67.5 206.5,67.5C 206.664,64.8127 206.497,62.146 206,59.5C 204.216,56.9974 202.549,56.9974 201,59.5C 200.503,62.146 200.336,64.8127 200.5,67.5C 199.5,67.5 198.5,67.5 197.5,67.5C 197.5,62.1667 197.5,56.8333 197.5,51.5 Z"/></g>
<g><path style="opacity:1" fill="#0c134d" d="M 374.5,46.5 C 374.5,52.1667 374.5,57.8333 374.5,63.5C 373.519,65.396 372.519,67.396 371.5,69.5C 371.709,70.086 372.043,70.586 372.5,71C 369.478,72.5203 366.978,74.687 365,77.5C 364.667,76.8333 364.333,76.1667 364,75.5C 364.698,77.7638 364.198,79.5972 362.5,81C 364.776,82.8743 364.443,84.5409 361.5,86C 362.833,87.8402 362.666,88.3402 361,87.5C 361.979,89.2785 361.646,90.9452 360,92.5C 359.667,91.8333 359.333,91.1667 359,90.5C 357.693,91.7717 356.193,92.7717 354.5,93.5C 355.582,93.7486 356.915,93.9152 358.5,94C 357.833,94.3333 357.167,94.6667 356.5,95C 357.833,96.8402 357.666,97.3402 356,96.5C 355.333,97.1667 354.667,97.8333 354,98.5C 352.058,102.612 349.891,106.612 347.5,110.5C 346.325,109.145 345.325,109.312 344.5,111C 344.833,111.333 345.167,111.667 345.5,112C 344.552,112.483 343.552,112.649 342.5,112.5C 342.357,114.262 342.691,115.929 343.5,117.5C 342.757,118.182 342.091,118.849 341.5,119.5C 333.833,119.5 326.167,119.5 318.5,119.5C 321.244,117.928 323.41,115.928 325,113.5C 325.333,113.833 325.667,114.167 326,114.5C 326.483,113.552 326.649,112.552 326.5,111.5C 327.833,111.5 329.167,111.5 330.5,111.5C 330.5,110.5 330.5,109.5 330.5,108.5C 332.905,107.313 335.239,105.813 337.5,104C 339.322,101.179 341.489,98.6793 344,96.5C 344.893,97.7112 345.726,97.7112 346.5,96.5C 347.155,93.3412 348.822,90.8412 351.5,89C 351.167,88.6667 350.833,88.3333 350.5,88C 354.907,84.379 358.24,79.879 360.5,74.5C 359.332,73.0944 359.665,71.9277 361.5,71C 360.903,69.3718 361.237,67.7051 362.5,66C 361.956,65.2828 361.289,64.7828 360.5,64.5C 365.052,59.9441 368.385,54.6107 370.5,48.5C 371.833,47.8333 373.167,47.1667 374.5,46.5 Z"/></g>
<g><path style="opacity:1" fill="#f2c415" d="M 300.5,68.5 C 305.323,68.3272 307.323,70.6606 306.5,75.5C 305.333,76.8148 303.833,77.4814 302,77.5C 296.8,75.3797 296.3,72.3797 300.5,68.5 Z"/></g>
<g><path style="opacity:1" fill="#1c1567" d="M 147.5,-0.5 C 153.5,-0.5 159.5,-0.5 165.5,-0.5C 163.821,0.999663 162.488,2.833 161.5,5C 165.057,6.66956 165.391,8.83623 162.5,11.5C 163.389,15.6123 163.389,19.6123 162.5,23.5C 163.093,25.3817 163.76,27.2151 164.5,29C 164.559,35.8638 166.892,42.8638 171.5,50C 170.833,50.6667 170.167,51.3333 169.5,52C 170.731,53.4048 172.064,54.5714 173.5,55.5C 169.868,58.9839 168.535,63.3172 169.5,68.5C 170.833,68.5 172.167,68.5 173.5,68.5C 172.722,69.1556 172.056,69.9889 171.5,71C 172.127,73.1351 172.627,75.3018 173,77.5C 173.388,76.572 174.055,75.9054 175,75.5C 177.298,76.065 178.131,77.2317 177.5,79C 178.872,79.4017 180.205,79.9017 181.5,80.5C 187.235,87.4357 193.402,93.1024 200,97.5C 202.488,96.5878 204.155,97.5878 205,100.5C 205.388,99.572 206.055,98.9054 207,98.5C 208.762,98.9444 208.595,99.4444 206.5,100C 210.073,99.1652 212.573,100.665 214,104.5C 214.689,103.643 215.522,102.977 216.5,102.5C 219.1,105.47 222.266,105.803 226,103.5C 227.762,103.944 227.595,104.444 225.5,105C 227.076,105.44 228.41,106.273 229.5,107.5C 230.425,106.359 231.259,106.359 232,107.5C 232.626,105.009 233.459,105.009 234.5,107.5C 236.306,106.141 237.806,106.475 239,108.5C 239.388,107.572 240.055,106.905 241,106.5C 242.422,107.205 243.755,107.539 245,107.5C 245.617,106.551 245.451,105.718 244.5,105C 246.101,104.727 247.601,104.227 249,103.5C 250.147,104.458 251.147,104.125 252,102.5C 253.117,102.665 254.284,102.998 255.5,103.5C 262.419,101.753 268.585,98.7527 274,94.5C 274.617,93.5509 274.451,92.7175 273.5,92C 275.256,91.8595 276.922,92.3595 278.5,93.5C 280.632,91.0453 283.299,89.3786 286.5,88.5C 288.964,89.1046 291.631,90.1046 294.5,91.5C 300.723,90.7336 306.556,90.7336 312,91.5C 314.74,90.7178 317.574,90.2178 320.5,90C 328.524,86.8928 335.524,81.7261 341.5,74.5C 342.568,73.5655 343.901,73.2322 345.5,73.5C 344.884,75.4171 343.55,76.5838 341.5,77C 342.451,77.7175 342.617,78.5509 342,79.5C 333.459,89.4365 322.793,94.7698 310,95.5C 307.713,96.4738 305.713,97.8071 304,99.5C 303.667,98.5 303.333,97.5 303,96.5C 300.633,97.0471 298.467,98.0471 296.5,99.5C 295.158,98.0977 294.324,98.4311 294,100.5C 293.667,100.167 293.333,99.8333 293,99.5C 291.601,100.227 290.101,100.727 288.5,101C 288.167,102 287.833,103 287.5,104C 286.167,104.333 284.833,104.667 283.5,105C 283.833,105.333 284.167,105.667 284.5,106C 278.343,107.183 272.843,109.683 268,113.5C 267,112.833 266,112.167 265,111.5C 262.289,112.565 259.455,114.232 256.5,116.5C 256.323,113.922 255.157,113.922 253,116.5C 247.698,116.077 242.698,116.077 238,116.5C 237.683,114.699 237.016,114.366 236,115.5C 233.851,112.554 232.018,112.387 230.5,115C 230.833,115.333 231.167,115.667 231.5,116C 229.567,116.251 227.734,116.751 226,117.5C 225.385,115.884 224.385,114.551 223,113.5C 221,113.5 219,113.5 217,113.5C 215.488,112.743 214.154,111.743 213,110.5C 210.602,111.1 207.935,111.1 205,110.5C 204.077,109.241 203.243,107.908 202.5,106.5C 201.575,105.359 200.741,105.359 200,106.5C 199.676,104.431 198.842,104.098 197.5,105.5C 196.749,104.624 196.249,103.624 196,102.5C 194.667,102.5 193.333,102.5 192,102.5C 190.368,99.5347 188.035,97.2014 185,95.5C 184.667,95.8333 184.333,96.1667 184,96.5C 183.89,93.3543 182.557,92.3543 180,93.5C 177.904,92.2845 178.071,91.4512 180.5,91C 176.472,89.0387 172.472,87.0387 168.5,85C 168.833,84 169.167,83 169.5,82C 168.5,81.1667 167.5,80.3333 166.5,79.5C 167.83,76.1512 167.33,75.8179 165,78.5C 163.887,77.2396 163.72,76.073 164.5,75C 163.167,74.3333 161.833,73.6667 160.5,73C 161.973,72.2904 162.64,71.1238 162.5,69.5C 161.209,69.7373 160.209,69.404 159.5,68.5C 162.652,69.0414 165.152,68.0414 167,65.5C 169.029,59.3718 166.863,56.0384 160.5,55.5C 157.278,55.7237 155.278,57.3904 154.5,60.5C 153.883,60.6107 153.383,60.944 153,61.5C 152.819,58.3054 152.319,55.3054 151.5,52.5C 151.167,52.5 150.833,52.5 150.5,52.5C 149.464,50.6089 149.464,48.7755 150.5,47C 149.31,44.8836 147.977,42.8836 146.5,41C 147.634,39.984 147.301,39.3173 145.5,39C 147.513,37.2087 147.513,35.8753 145.5,35C 145.421,33.0932 145.754,31.0932 146.5,29C 143.987,26.1515 143.987,23.3182 146.5,20.5C 143.956,19.0626 143.956,17.5626 146.5,16C 145.572,15.6121 144.905,14.9454 144.5,14C 145.506,12.662 146.506,11.3287 147.5,10C 144.967,8.08403 144.967,6.08403 147.5,4C 146.549,3.28248 146.383,2.44915 147,1.5C 147.654,2.69559 148.154,2.69559 148.5,1.5C 148.137,0.816537 147.804,0.14987 147.5,-0.5 Z"/></g>
<g><path style="opacity:1" fill="#0b1246" d="M 374.5,63.5 C 374.5,82.1667 374.5,100.833 374.5,119.5C 363.5,119.5 352.5,119.5 341.5,119.5C 342.091,118.849 342.757,118.182 343.5,117.5C 342.691,115.929 342.357,114.262 342.5,112.5C 343.552,112.649 344.552,112.483 345.5,112C 345.167,111.667 344.833,111.333 344.5,111C 345.325,109.312 346.325,109.145 347.5,110.5C 349.891,106.612 352.058,102.612 354,98.5C 354.667,97.8333 355.333,97.1667 356,96.5C 357.666,97.3402 357.833,96.8402 356.5,95C 357.167,94.6667 357.833,94.3333 358.5,94C 356.915,93.9152 355.582,93.7486 354.5,93.5C 356.193,92.7717 357.693,91.7717 359,90.5C 359.333,91.1667 359.667,91.8333 360,92.5C 361.646,90.9452 361.979,89.2785 361,87.5C 362.666,88.3402 362.833,87.8402 361.5,86C 364.443,84.5409 364.776,82.8743 362.5,81C 364.198,79.5972 364.698,77.7638 364,75.5C 364.333,76.1667 364.667,76.8333 365,77.5C 366.978,74.687 369.478,72.5203 372.5,71C 372.043,70.586 371.709,70.086 371.5,69.5C 372.519,67.396 373.519,65.396 374.5,63.5 Z"/></g>
<g><path style="opacity:1" fill="#1643a3" d="M 48.5,89.5 C 47.8257,93.3534 46.1591,96.8534 43.5,100C 39.5,100.667 35.5,100.667 31.5,100C 29.2563,98.5945 27.5897,96.7611 26.5,94.5C 26.6287,92.7839 26.962,91.1172 27.5,89.5C 28.5,88.8333 29.5,88.1667 30.5,87.5C 37.096,81.8175 43.096,82.4842 48.5,89.5 Z"/></g>
<g><path style="opacity:1" fill="#1c6ab0" d="M 30.5,87.5 C 38.451,84.6217 41.6177,87.2883 40,95.5C 33.1281,97.4712 29.9614,94.8046 30.5,87.5 Z"/></g>
<g><path style="opacity:1" fill="#101458" d="M 360.5,64.5 C 361.289,64.7828 361.956,65.2828 362.5,66C 361.237,67.7051 360.903,69.3718 361.5,71C 359.665,71.9277 359.332,73.0944 360.5,74.5C 358.24,79.879 354.907,84.379 350.5,88C 350.833,88.3333 351.167,88.6667 351.5,89C 348.822,90.8412 347.155,93.3412 346.5,96.5C 345.726,97.7112 344.893,97.7112 344,96.5C 341.489,98.6793 339.322,101.179 337.5,104C 335.239,105.813 332.905,107.313 330.5,108.5C 330.5,109.5 330.5,110.5 330.5,111.5C 329.167,111.5 327.833,111.5 326.5,111.5C 326.649,112.552 326.483,113.552 326,114.5C 325.667,114.167 325.333,113.833 325,113.5C 323.41,115.928 321.244,117.928 318.5,119.5C 305.167,119.5 291.833,119.5 278.5,119.5C 280.075,117.2 282.075,116.367 284.5,117C 285.035,114.891 286.035,114.391 287.5,115.5C 290.63,112.524 294.296,110.691 298.5,110C 297.044,109.577 296.544,108.744 297,107.5C 298.395,108.815 299.395,108.481 300,106.5C 300.333,107.167 300.667,107.833 301,108.5C 301.583,106.998 302.416,105.665 303.5,104.5C 304.086,104.709 304.586,105.043 305,105.5C 308.186,102.436 312.02,100.936 316.5,101C 316.167,100.667 315.833,100.333 315.5,100C 318.525,100.002 321.025,98.8355 323,96.5C 325.544,97.1186 328.044,96.6186 330.5,95C 334.525,90.7379 338.859,86.9046 343.5,83.5C 345.5,80.1667 347.5,76.8333 349.5,73.5C 349.376,72.8933 349.043,72.56 348.5,72.5C 348.5,72.1667 348.5,71.8333 348.5,71.5C 353.165,70.1722 357.165,67.8389 360.5,64.5 Z"/></g>
<g><path style="opacity:1" fill="#161460" d="M 157.5,68.5 C 158.167,68.5 158.833,68.5 159.5,68.5C 160.209,69.404 161.209,69.7373 162.5,69.5C 162.64,71.1238 161.973,72.2904 160.5,73C 161.833,73.6667 163.167,74.3333 164.5,75C 163.72,76.073 163.887,77.2396 165,78.5C 167.33,75.8179 167.83,76.1512 166.5,79.5C 167.5,80.3333 168.5,81.1667 169.5,82C 169.167,83 168.833,84 168.5,85C 172.472,87.0387 176.472,89.0387 180.5,91C 178.071,91.4512 177.904,92.2845 180,93.5C 182.557,92.3543 183.89,93.3543 184,96.5C 184.333,96.1667 184.667,95.8333 185,95.5C 188.035,97.2014 190.368,99.5347 192,102.5C 193.333,102.5 194.667,102.5 196,102.5C 196.249,103.624 196.749,104.624 197.5,105.5C 198.842,104.098 199.676,104.431 200,106.5C 200.741,105.359 201.575,105.359 202.5,106.5C 203.243,107.908 204.077,109.241 205,110.5C 207.935,111.1 210.602,111.1 213,110.5C 214.154,111.743 215.488,112.743 217,113.5C 219,113.5 221,113.5 223,113.5C 224.385,114.551 225.385,115.884 226,117.5C 227.734,116.751 229.567,116.251 231.5,116C 231.167,115.667 230.833,115.333 230.5,115C 232.018,112.387 233.851,112.554 236,115.5C 237.016,114.366 237.683,114.699 238,116.5C 242.698,116.077 247.698,116.077 253,116.5C 255.157,113.922 256.323,113.922 256.5,116.5C 259.455,114.232 262.289,112.565 265,111.5C 266,112.167 267,112.833 268,113.5C 272.843,109.683 278.343,107.183 284.5,106C 284.167,105.667 283.833,105.333 283.5,105C 284.833,104.667 286.167,104.333 287.5,104C 287.833,103 288.167,102 288.5,101C 290.101,100.727 291.601,100.227 293,99.5C 293.333,99.8333 293.667,100.167 294,100.5C 294.324,98.4311 295.158,98.0977 296.5,99.5C 298.467,98.0471 300.633,97.0471 303,96.5C 303.333,97.5 303.667,98.5 304,99.5C 305.713,97.8071 307.713,96.4738 310,95.5C 322.793,94.7698 333.459,89.4365 342,79.5C 342.617,78.5509 342.451,77.7175 341.5,77C 343.55,76.5838 344.884,75.4171 345.5,73.5C 346.209,72.596 347.209,72.2627 348.5,72.5C 349.043,72.56 349.376,72.8933 349.5,73.5C 347.5,76.8333 345.5,80.1667 343.5,83.5C 338.859,86.9046 334.525,90.7379 330.5,95C 328.044,96.6186 325.544,97.1186 323,96.5C 321.025,98.8355 318.525,100.002 315.5,100C 315.833,100.333 316.167,100.667 316.5,101C 312.02,100.936 308.186,102.436 305,105.5C 304.586,105.043 304.086,104.709 303.5,104.5C 302.416,105.665 301.583,106.998 301,108.5C 300.667,107.833 300.333,107.167 300,106.5C 299.395,108.481 298.395,108.815 297,107.5C 296.544,108.744 297.044,109.577 298.5,110C 294.296,110.691 290.63,112.524 287.5,115.5C 286.035,114.391 285.035,114.891 284.5,117C 282.075,116.367 280.075,117.2 278.5,119.5C 255.5,119.5 232.5,119.5 209.5,119.5C 204.173,118.362 199.673,115.696 196,111.5C 194.575,110.921 192.908,110.921 191,111.5C 189.26,108.997 186.426,107.164 182.5,106C 181.167,105.333 181.167,104.667 182.5,104C 180.416,103.222 178.583,102.055 177,100.5C 176.667,100.833 176.333,101.167 176,101.5C 175.5,100.5 175,99.5 174.5,98.5C 171.009,95.5573 167.509,92.5573 164,89.5C 163.383,88.5509 163.549,87.7175 164.5,87C 163.551,86.3828 162.718,86.5494 162,87.5C 160.178,84.6793 158.011,82.1793 155.5,80C 156.833,78.6667 156.833,77.3333 155.5,76C 155.833,75.8333 156.167,75.6667 156.5,75.5C 157.167,76.8333 157.833,78.1667 158.5,79.5C 159.72,79.1131 160.387,78.2798 160.5,77C 159.059,74.7676 157.392,72.7676 155.5,71C 156.756,70.5831 157.423,69.7498 157.5,68.5 Z"/></g>
<g><path style="opacity:1" fill="#27169f" d="M 48.5,89.5 C 52.5091,100.812 48.5091,106.812 36.5,107.5C 29.5892,106.043 26.2558,101.71 26.5,94.5C 27.5897,96.7611 29.2563,98.5945 31.5,100C 35.5,100.667 39.5,100.667 43.5,100C 46.1591,96.8534 47.8257,93.3534 48.5,89.5 Z"/></g>
</svg>
