
<svg width="160" height="25" viewBox="0 0 160 25" fill="none" xmlns="http://www.w3.org/2000/svg">
<path d="M54.1288 6.50928H51.9388C51.8614 6.50928 51.7875 6.54124 51.7365 6.59697L47.4576 11.2423C47.3496 11.3595 47.16 11.3595 47.0521 11.2423L42.7732 6.59697C42.7214 6.54124 42.6482 6.50928 42.5709 6.50928H40.1819C40.0816 6.50928 40 6.58796 40 6.68466C40 6.69696 40.0043 6.70925 40.0068 6.72073C40.0026 6.73958 40 6.75925 40 6.77892V19.0396C40 19.1888 40.125 19.3093 40.2797 19.3093H41.9001C42.0548 19.3093 42.1798 19.1888 42.1798 19.0396V9.11796L47.0521 14.4075C47.16 14.5247 47.3496 14.5247 47.4576 14.4075L52.2202 9.2368V19.0429C52.2202 19.1904 52.3443 19.3093 52.4965 19.3093H54.1237C54.2767 19.3093 54.4 19.1896 54.4 19.0429V6.77564C54.4 6.77564 54.4 6.77318 54.4 6.77236C54.4 6.77236 54.4 6.77154 54.4 6.77072C54.4 6.62648 54.2784 6.50928 54.1288 6.50928Z" fill="#1A1A1A"/>
<path d="M62.4 8.10938C59.307 8.10938 56.8 10.6164 56.8 13.7094C56.8 16.8024 59.307 19.3094 62.4 19.3094C65.493 19.3094 68 16.8024 68 13.7094C68 10.6164 65.493 8.10938 62.4 8.10938ZM62.4 17.1041C60.5252 17.1041 59.0053 15.5842 59.0053 13.7094C59.0053 11.8346 60.5252 10.3147 62.4 10.3147C64.2748 10.3147 65.7947 11.8346 65.7947 13.7094C65.7947 15.5842 64.2748 17.1041 62.4 17.1041Z" fill="#1A1A1A"/>
<path d="M76.5039 8.10938H75.4112C72 8.10938 70.4 9.70938 70.4043 13.569C70.4026 13.583 70.4 13.5962 70.4 13.6111V19.0285C70.4 19.1839 70.5224 19.3094 70.6739 19.3094H72.3203C72.4717 19.3094 72.5941 19.1839 72.5941 19.0285V13.6111C72.5941 13.6111 72.5941 13.6085 72.5941 13.6067C72.5941 13.5716 72.5941 13.5426 72.5941 13.5286C72.5941 11.5338 73.3121 10.1735 75.4103 10.1735H76.5031C76.6665 10.1735 76.8 10.0471 76.8 9.89179V8.39109C76.8 8.23575 76.6674 8.10938 76.5031 8.10938H76.5039Z" fill="#1A1A1A"/>
<path d="M84.8 8.10938C83.5289 8.10938 82.3571 8.5233 81.4172 9.22085V8.37851C81.4172 8.22947 81.2944 8.10938 81.1439 8.10938H79.4733C79.3219 8.10938 79.2 8.23032 79.2 8.37851V21.4402C79.2 21.5893 79.3228 21.7094 79.4733 21.7094H81.1439C81.2953 21.7094 81.4172 21.5884 81.4172 21.4402V17.9389C82.3571 18.6356 83.5289 19.0504 84.8 19.0504C87.8923 19.0504 90.4 16.6017 90.4 13.5799C90.4 10.558 87.8932 8.10938 84.8 8.10938ZM84.8 16.8956C83.0031 16.8956 81.5365 15.5311 81.4172 13.8056V13.3542C81.5365 11.6286 83.0031 10.2642 84.8 10.2642C86.5969 10.2642 88.1941 11.7487 88.1941 13.5799C88.1941 15.411 86.6748 16.8956 84.8 16.8956Z" fill="#1A1A1A"/>
<path d="M97.6 8.90928C97.6 8.90928 96 8.90928 94.989 9.8859V6.77154C94.989 6.62648 94.8669 6.50928 94.7159 6.50928H93.0731C92.922 6.50928 92.8 6.62648 92.8 6.77154V19.047C92.8 19.1921 92.922 19.3093 93.0731 19.3093H94.7159C94.8669 19.3093 94.989 19.1921 94.989 19.047V13.365C95.0743 12.0241 96.2298 10.9612 97.6474 10.9612C99.1195 10.9612 100.313 12.1077 100.313 13.5215V19.0569C100.313 19.1954 100.43 19.3085 100.575 19.3085H102.137C102.282 19.3085 102.4 19.1954 102.4 19.056V13.751C102.4 10.5093 100.8 8.90928 97.6 8.90928Z" fill="#1A1A1A"/>
<path d="M32.353 15.7525C31.376 14.9141 29.0829 13.8708 27.9783 11.7243C26.8439 9.52078 27.3703 7.51051 27.3703 6.16161C27.3703 4.34305 25.8241 2.86942 23.9178 2.86942C22.0114 2.86942 20.4652 4.34382 20.4652 6.16161C20.4652 7.29185 20.3263 10.2622 19.9379 11.8044C19.82 12.2717 19.6456 12.5219 19.514 12.6975C19.0102 13.3727 17.5738 14.1519 16.1373 13.2095C15.7312 12.9539 15.3727 12.4996 15.1983 11.9422C14.8285 10.758 15.2419 7.32419 15.0844 5.84132C15.0828 5.829 15.082 5.81668 15.0804 5.80437C15.0538 5.57339 15.0142 5.3709 14.952 5.2046C14.5225 3.85261 13.2056 2.86865 11.648 2.86865C9.74086 2.86865 8.19543 4.34305 8.19543 6.16084C8.19543 7.13633 8.64033 8.0125 9.34764 8.61535C10.3246 9.4538 12.6177 10.497 13.7223 12.6436C14.8567 14.8471 14.3303 16.8574 14.3303 18.2063C14.3303 20.0248 15.8765 21.4985 17.7829 21.4985C19.229 21.4985 20.4668 20.65 20.9811 19.4474C21.8023 17.6596 20.466 14.5222 21.6279 12.1832C21.8564 11.7243 22.1099 11.491 22.3667 11.2693C22.9012 10.8089 24.5879 10.2922 25.7966 11.6735C26.1043 12.0646 26.1907 12.3672 26.2633 12.6659C26.5718 13.934 26.2908 17.9445 26.7502 19.1679C27.1822 20.5168 28.4967 21.4977 30.0526 21.4977C31.9598 21.4977 33.5052 20.0233 33.5052 18.2055C33.5052 17.23 33.0603 16.3538 32.353 15.751V15.7525Z" fill="#14A800"/>
<path d="M5.51233 21.4994C7.41914 21.4994 8.96491 20.0254 8.96491 18.2072C8.96491 16.389 7.41914 14.915 5.51233 14.915C3.60553 14.915 2.05975 16.389 2.05975 18.2072C2.05975 20.0254 3.60553 21.4994 5.51233 21.4994Z" fill="#14A800"/>
<path d="M108.8 5.70947L108.8 20.1095" stroke="#1A1A1A" stroke-width="2"/>
<path fill-rule="evenodd" clip-rule="evenodd" d="M138.084 16.2213C138.305 15.4922 138.416 14.6843 138.416 13.7977C138.416 12.6017 138.218 11.5604 137.823 10.6738C137.433 9.78725 136.832 9.10004 136.021 8.61217C135.215 8.1243 134.185 7.88037 132.93 7.88037C131.671 7.88037 130.633 8.1243 129.816 8.61217C128.999 9.10004 128.393 9.78725 127.998 10.6738C127.608 11.5551 127.413 12.5912 127.413 13.782C127.413 14.6738 127.524 15.4843 127.745 16.2135C127.966 16.9426 128.301 17.5695 128.749 18.0941C129.202 18.6187 129.774 19.0226 130.464 19.3059C131.155 19.5839 131.971 19.723 132.915 19.723C133.858 19.723 134.675 19.5839 135.365 19.3059C136.055 19.0226 136.624 18.6187 137.072 18.0941C137.525 17.5695 137.863 16.9453 138.084 16.2213ZM130.282 15.8751C130.082 15.2928 129.982 14.6004 129.982 13.7977C129.982 12.9899 130.082 12.2974 130.282 11.7204C130.488 11.1381 130.807 10.6922 131.239 10.3827C131.676 10.0679 132.24 9.91053 132.93 9.91053C133.968 9.91053 134.714 10.2568 135.167 10.9492C135.62 11.6417 135.847 12.5912 135.847 13.7977C135.847 14.6004 135.747 15.2928 135.547 15.8751C135.352 16.4522 135.038 16.8981 134.606 17.2128C134.174 17.5223 133.61 17.6771 132.915 17.6771C132.23 17.6771 131.671 17.5223 131.239 17.2128C130.807 16.8981 130.488 16.4522 130.282 15.8751ZM124.037 16.9414C124.538 16.0706 124.788 14.9873 124.788 13.6916C124.788 12.4588 124.543 11.4253 124.053 10.5912C123.563 9.75191 122.872 9.11978 121.982 8.69486C121.091 8.2647 120.04 8.04961 118.828 8.04961H115.2V19.5539H118.472C119.8 19.5539 120.936 19.3361 121.879 18.9007C122.822 18.4601 123.542 17.807 124.037 16.9414ZM122.519 11.6614C122.772 12.207 122.899 12.9047 122.899 13.7545C122.899 15.0083 122.606 15.9525 122.021 16.5873C121.442 17.2221 120.554 17.5394 119.358 17.5394H116.994V10.0483H118.955C119.671 10.0483 120.928 10.1794 121.413 10.4417C121.903 10.704 122.272 11.1106 122.519 11.6614ZM146.458 9.91874C145.989 9.91874 145.573 10.0105 145.209 10.1941C144.851 10.3725 144.548 10.6322 144.3 10.9732C144.058 11.3141 143.874 11.7259 143.747 12.2086C143.621 12.6912 143.557 13.2341 143.557 13.8374C143.557 14.6505 143.658 15.3456 143.858 15.9227C144.063 16.4945 144.379 16.9325 144.806 17.2368C145.233 17.5358 145.784 17.6853 146.458 17.6853C146.927 17.6853 147.396 17.6328 147.865 17.5279C148.34 17.423 148.853 17.2735 149.407 17.0794V19.1253C148.895 19.3351 148.392 19.4846 147.897 19.5738C147.402 19.6682 146.846 19.7154 146.229 19.7154C145.038 19.7154 144.058 19.4715 143.289 18.9836C142.525 18.4905 141.958 17.8033 141.589 16.922C141.22 16.0354 141.036 15.002 141.036 13.8217C141.036 12.9509 141.155 12.1535 141.392 11.4296C141.629 10.7056 141.977 10.0787 142.435 9.5489C142.893 9.01906 143.46 8.60988 144.134 8.32136C144.809 8.03284 145.584 7.88857 146.458 7.88857C147.033 7.88857 147.607 7.96202 148.181 8.1089C148.761 8.25054 149.314 8.44726 149.841 8.69906L149.051 10.682C148.619 10.4774 148.184 10.2991 147.747 10.1469C147.309 9.9948 146.88 9.91874 146.458 9.91874ZM159.502 18.1415C159.834 17.6379 160 17.0451 160 16.3632C160 15.7599 159.887 15.2563 159.66 14.8524C159.434 14.4432 159.11 14.0891 158.688 13.7901C158.272 13.4858 157.768 13.1947 157.178 12.9166C156.694 12.6858 156.288 12.4838 155.961 12.3107C155.64 12.1376 155.397 11.9592 155.234 11.7756C155.076 11.5868 154.997 11.356 154.997 11.0832C154.997 10.8524 155.052 10.6504 155.163 10.4773C155.273 10.2989 155.437 10.1625 155.653 10.0681C155.869 9.96843 156.13 9.91859 156.435 9.91859C156.873 9.91859 157.302 9.97892 157.724 10.0996C158.145 10.215 158.622 10.3802 159.154 10.5953L159.945 8.69892C159.349 8.43663 158.778 8.23728 158.23 8.10089C157.687 7.95925 157.115 7.88843 156.514 7.88843C155.713 7.88843 155.018 8.01958 154.428 8.28187C153.843 8.53892 153.392 8.91138 153.076 9.39925C152.76 9.88712 152.602 10.4747 152.602 11.1619C152.602 11.6865 152.691 12.1376 152.87 12.5153C153.055 12.8878 153.289 13.2051 153.574 13.4674C153.858 13.7297 154.159 13.9527 154.475 14.1363C154.791 14.3147 155.084 14.4668 155.352 14.5927C155.779 14.7973 156.161 14.9887 156.499 15.1671C156.841 15.3455 157.11 15.5369 157.305 15.7415C157.5 15.9461 157.597 16.1927 157.597 16.4812C157.597 16.7173 157.542 16.9271 157.431 17.1107C157.321 17.2943 157.141 17.4386 156.894 17.5435C156.651 17.6484 156.33 17.7009 155.929 17.7009C155.35 17.7009 154.765 17.6038 154.175 17.4097C153.584 17.2156 153.015 16.9979 152.467 16.7566V19.0228C152.784 19.175 153.115 19.3035 153.463 19.4084C153.816 19.5081 154.183 19.5842 154.562 19.6366C154.947 19.6891 155.339 19.7153 155.74 19.7153C156.646 19.7153 157.415 19.5789 158.048 19.3061C158.685 19.0333 159.17 18.6451 159.502 18.1415Z" fill="#1A1A1A"/>
</svg>
