
<svg width="200" height="31" viewBox="0 0 200 31" fill="none" xmlns="http://www.w3.org/2000/svg">
<path d="M67.661 8.10962H64.9235C64.8268 8.10962 64.7343 8.14957 64.6706 8.21924L59.322 14.0259C59.187 14.1724 58.9501 14.1724 58.8151 14.0259L53.4665 8.21924C53.4017 8.14957 53.3103 8.10962 53.2136 8.10962H50.2274C50.102 8.10962 50 8.20797 50 8.32885C50 8.34422 50.0053 8.35959 50.0085 8.37393C50.0032 8.39749 50 8.42208 50 8.44667V23.7726C50 23.959 50.1562 24.1096 50.3496 24.1096H52.3751C52.5685 24.1096 52.7248 23.959 52.7248 23.7726V11.3705L58.8151 17.9823C58.9501 18.1288 59.187 18.1288 59.322 17.9823L65.2752 11.519V23.7767C65.2752 23.9611 65.4304 24.1096 65.6206 24.1096H67.6546C67.8459 24.1096 68 23.96 68 23.7767V8.44257C68 8.44257 68 8.43949 68 8.43847C68 8.43847 68 8.43745 68 8.43642C68 8.25612 67.848 8.10962 67.661 8.10962Z" fill="#F7F7F7"/>
<path d="M78 10.1096C74.1338 10.1096 71 13.2434 71 17.1096C71 20.9759 74.1338 24.1096 78 24.1096C81.8662 24.1096 85 20.9759 85 17.1096C85 13.2434 81.8662 10.1096 78 10.1096ZM78 21.353C75.6565 21.353 73.7566 19.4531 73.7566 17.1096C73.7566 14.7661 75.6565 12.8662 78 12.8662C80.3435 12.8662 82.2434 14.7661 82.2434 17.1096C82.2434 19.4531 80.3435 21.353 78 21.353Z" fill="#F7F7F7"/>
<path d="M95.6299 10.1096H94.2639C90 10.1096 88 12.1096 88.0054 16.9341C88.0032 16.9516 88 16.9681 88 16.9868V23.7586C88 23.9527 88.153 24.1096 88.3423 24.1096H90.4003C90.5897 24.1096 90.7426 23.9527 90.7426 23.7586V16.9868C90.7426 16.9868 90.7426 16.9835 90.7426 16.9813C90.7426 16.9374 90.7426 16.9012 90.7426 16.8836C90.7426 14.3901 91.6401 12.6898 94.2629 12.6898H95.6288C95.8331 12.6898 96 12.5318 96 12.3376V10.4618C96 10.2676 95.8342 10.1096 95.6288 10.1096H95.6299Z" fill="#F7F7F7"/>
<path d="M106 10.1096C104.411 10.1096 102.946 10.627 101.771 11.499V10.446C101.771 10.2597 101.618 10.1096 101.43 10.1096H99.3416C99.1524 10.1096 99 10.2608 99 10.446V26.7732C99 26.9595 99.1535 27.1096 99.3416 27.1096H101.43C101.619 27.1096 101.771 26.9584 101.771 26.7732V22.3965C102.946 23.2674 104.411 23.7858 106 23.7858C109.865 23.7858 113 20.725 113 16.9477C113 13.1704 109.866 10.1096 106 10.1096ZM106 21.0923C103.754 21.0923 101.921 19.3868 101.771 17.2299V16.6656C101.921 14.5087 103.754 12.8031 106 12.8031C108.246 12.8031 110.243 14.6588 110.243 16.9477C110.243 19.2367 108.343 21.0923 106 21.0923Z" fill="#F7F7F7"/>
<path d="M122 11.1096C122 11.1096 120 11.1096 118.736 12.3304V8.43745C118.736 8.25612 118.584 8.10962 118.395 8.10962H116.341C116.153 8.10962 116 8.25612 116 8.43745V23.7818C116 23.9631 116.153 24.1096 116.341 24.1096H118.395C118.584 24.1096 118.736 23.9631 118.736 23.7818V16.6792C118.843 15.0032 120.287 13.6745 122.059 13.6745C123.899 13.6745 125.392 15.1077 125.392 16.8749V23.7941C125.392 23.9672 125.538 24.1086 125.719 24.1086H127.671C127.853 24.1086 128 23.9672 128 23.7931V17.1617C128 13.1096 125.999 11.1096 122 11.1096Z" fill="#F7F7F7"/>
<path d="M40.4412 19.6637C39.22 18.6156 36.3536 17.3116 34.9729 14.6284C33.5548 11.874 34.2129 9.36116 34.2129 7.67503C34.2129 5.40184 32.2801 3.5598 29.8972 3.5598C27.5142 3.5598 25.5814 5.4028 25.5814 7.67503C25.5814 9.08784 25.4078 12.8008 24.9224 14.7285C24.775 15.3127 24.557 15.6254 24.3925 15.8449C23.7627 16.6889 21.9672 17.6628 20.1716 16.4849C19.664 16.1653 19.2158 15.5975 18.9978 14.9007C18.5356 13.4206 19.0523 9.12826 18.8555 7.27467C18.8535 7.25927 18.8525 7.24388 18.8505 7.22848C18.8172 6.93976 18.7677 6.68664 18.69 6.47877C18.1531 4.78879 16.5069 3.55884 14.56 3.55884C12.176 3.55884 10.2443 5.40184 10.2443 7.67407C10.2443 8.89343 10.8004 9.98865 11.6845 10.7422C12.9058 11.7903 15.7721 13.0943 17.1529 15.7775C18.5709 18.5319 17.9128 21.0447 17.9128 22.7309C17.9128 25.004 19.8456 26.8461 22.2286 26.8461C24.0362 26.8461 25.5835 25.7855 26.2264 24.2822C27.2528 22.0475 25.5824 18.1258 27.0348 15.202C27.3204 14.6284 27.6374 14.3368 27.9583 14.0596C28.6265 13.4841 30.7349 12.8383 32.2458 14.5649C32.6303 15.0538 32.7383 15.432 32.8291 15.8054C33.2147 17.3905 32.8635 22.4036 33.4377 23.9329C33.9777 25.619 35.6208 26.8451 37.5657 26.8451C39.9497 26.8451 41.8815 25.0021 41.8815 22.7299C41.8815 21.5105 41.3253 20.4153 40.4412 19.6618V19.6637Z" fill="url(#paint0_linear_1757_7970)"/>
<path d="M6.89043 26.8472C9.27394 26.8472 11.2062 25.0047 11.2062 22.7319C11.2062 20.4592 9.27394 18.6167 6.89043 18.6167C4.50692 18.6167 2.57471 20.4592 2.57471 22.7319C2.57471 25.0047 4.50692 26.8472 6.89043 26.8472Z" fill="url(#paint1_linear_1757_7970)"/>
<path d="M136 7.10962L136 25.1096" stroke="#F7F7F7" stroke-width="2"/>
<path fill-rule="evenodd" clip-rule="evenodd" d="M172.605 20.2497C172.882 19.3382 173.02 18.3284 173.02 17.2202C173.02 15.7251 172.773 14.4235 172.279 13.3153C171.791 12.2071 171.041 11.3481 170.026 10.7382C169.018 10.1284 167.731 9.82349 166.163 9.82349C164.589 9.82349 163.291 10.1284 162.27 10.7382C161.249 11.3481 160.492 12.2071 159.998 13.3153C159.51 14.4169 159.266 15.712 159.266 17.2005C159.266 18.3153 159.405 19.3284 159.681 20.2398C159.958 21.1513 160.376 21.9349 160.936 22.5907C161.503 23.2464 162.217 23.7513 163.08 24.1054C163.943 24.453 164.964 24.6267 166.143 24.6267C167.322 24.6267 168.343 24.453 169.206 24.1054C170.069 23.7513 170.78 23.2464 171.34 22.5907C171.907 21.9349 172.328 21.1546 172.605 20.2497ZM162.853 19.8169C162.603 19.089 162.478 18.2235 162.478 17.2202C162.478 16.2104 162.603 15.3448 162.853 14.6235C163.11 13.8956 163.508 13.3382 164.049 12.9513C164.595 12.5579 165.3 12.3612 166.163 12.3612C167.461 12.3612 168.393 12.794 168.959 13.6595C169.526 14.5251 169.809 15.712 169.809 17.2202C169.809 18.2235 169.684 19.089 169.433 19.8169C169.19 20.5382 168.798 21.0956 168.258 21.489C167.717 21.8759 167.013 22.0694 166.143 22.0694C165.287 22.0694 164.589 21.8759 164.049 21.489C163.508 21.0956 163.11 20.5382 162.853 19.8169ZM155.046 21.1498C155.672 20.0612 155.985 18.7071 155.985 17.0875C155.985 15.5465 155.679 14.2547 155.066 13.2121C154.453 12.1629 153.591 11.3727 152.477 10.8416C151.364 10.3039 150.05 10.035 148.535 10.035H144V24.4153H148.09C149.75 24.4153 151.17 24.1432 152.349 23.5989C153.528 23.0481 154.427 22.2317 155.046 21.1498ZM153.149 14.5498C153.465 15.2317 153.623 16.1039 153.623 17.1662C153.623 18.7334 153.258 19.9137 152.527 20.7071C151.802 21.5006 150.692 21.8973 149.197 21.8973H146.243V12.5334H148.693C149.589 12.5334 151.16 12.6973 151.766 13.0252C152.378 13.3531 152.839 13.8613 153.149 14.5498ZM183.073 12.3714C182.487 12.3714 181.966 12.4862 181.512 12.7157C181.064 12.9387 180.685 13.2632 180.376 13.6895C180.073 14.1157 179.842 14.6305 179.684 15.2337C179.526 15.837 179.447 16.5157 179.447 17.2698C179.447 18.2862 179.572 19.155 179.822 19.8763C180.079 20.5911 180.474 21.1386 181.008 21.519C181.541 21.8927 182.23 22.0796 183.073 22.0796C183.659 22.0796 184.245 22.014 184.832 21.8829C185.424 21.7517 186.067 21.5649 186.758 21.3222V23.8796C186.119 24.1419 185.49 24.3288 184.871 24.4403C184.252 24.5583 183.557 24.6173 182.786 24.6173C181.298 24.6173 180.073 24.3124 179.111 23.7026C178.156 23.0862 177.448 22.2272 176.987 21.1255C176.525 20.0173 176.295 18.7255 176.295 17.2501C176.295 16.1616 176.443 15.1649 176.74 14.26C177.036 13.355 177.471 12.5714 178.044 11.9091C178.617 11.2469 179.325 10.7354 180.168 10.3747C181.011 10.0141 181.979 9.83374 183.073 9.83374C183.791 9.83374 184.509 9.92554 185.227 10.1091C185.951 10.2862 186.643 10.5321 187.302 10.8469L186.314 13.3255C185.774 13.0698 185.23 12.8468 184.683 12.6567C184.137 12.4665 183.6 12.3714 183.073 12.3714ZM199.378 22.6499C199.793 22.0204 200 21.2794 200 20.427C200 19.6729 199.859 19.0434 199.575 18.5385C199.292 18.027 198.887 17.5844 198.36 17.2106C197.84 16.8303 197.211 16.4663 196.473 16.1188C195.867 15.8303 195.36 15.5778 194.951 15.3614C194.549 15.145 194.246 14.9221 194.042 14.6926C193.845 14.4565 193.746 14.168 193.746 13.827C193.746 13.5385 193.815 13.286 193.953 13.0696C194.092 12.8467 194.296 12.6762 194.566 12.5581C194.836 12.4336 195.162 12.3713 195.544 12.3713C196.091 12.3713 196.628 12.4467 197.155 12.5975C197.682 12.7418 198.278 12.9483 198.943 13.2172L199.931 10.8467C199.187 10.5188 198.472 10.2696 197.787 10.0991C197.108 9.92208 196.394 9.83356 195.643 9.83356C194.642 9.83356 193.772 9.99749 193.034 10.3254C192.303 10.6467 191.74 11.1122 191.345 11.7221C190.95 12.3319 190.752 13.0663 190.752 13.9254C190.752 14.5811 190.864 15.145 191.088 15.6172C191.319 16.0827 191.612 16.4794 191.967 16.8073C192.323 17.1352 192.699 17.4139 193.094 17.6434C193.489 17.8663 193.855 18.0565 194.19 18.2139C194.724 18.4696 195.202 18.709 195.623 18.9319C196.051 19.1549 196.387 19.3942 196.631 19.6499C196.875 19.9057 196.997 20.2139 196.997 20.5745C196.997 20.8696 196.927 21.1319 196.789 21.3614C196.651 21.5909 196.427 21.7712 196.117 21.9024C195.814 22.0335 195.412 22.0991 194.912 22.0991C194.187 22.0991 193.456 21.9778 192.718 21.7352C191.981 21.4926 191.269 21.2204 190.584 20.9188V23.7516C190.979 23.9417 191.394 24.1024 191.829 24.2335C192.27 24.3581 192.728 24.4532 193.202 24.5188C193.683 24.5843 194.174 24.6171 194.675 24.6171C195.808 24.6171 196.769 24.4466 197.56 24.1057C198.357 23.7647 198.963 23.2794 199.378 22.6499Z" fill="#F7F7F7"/>
<defs>
<linearGradient id="paint0_linear_1757_7970" x1="7.44146" y1="42.5852" x2="37.1999" y2="2.20384" gradientUnits="userSpaceOnUse">
<stop offset="0.25822" stop-color="#40F0C1"/>
<stop offset="1" stop-color="#BFFD3E"/>
</linearGradient>
<linearGradient id="paint1_linear_1757_7970" x1="-2.45055" y1="36.4683" x2="21.7965" y2="-2.74635" gradientUnits="userSpaceOnUse">
<stop stop-color="#40F0C1"/>
<stop offset="1" stop-color="#BFFD3E"/>
</linearGradient>
</defs>
</svg>
