<svg width="240" height="240" viewBox="0 0 240 240" fill="none" xmlns="http://www.w3.org/2000/svg">
<mask id="mask0_2086_12823" style="mask-type:alpha" maskUnits="userSpaceOnUse" x="0" y="0" width="240" height="240">
<rect width="240" height="240" fill="#CB4949"/>
</mask>
<g mask="url(#mask0_2086_12823)">
<path d="M69.3252 49.8761C32.4978 40.6266 -3.43573 79.0045 6.15513 120.068C16.9999 166.5 65.2915 146.277 77.4601 156.396C97.3478 172.933 94.5398 210.909 112.882 211.634C236 216.5 261.499 102.5 203.999 70.8955C175.105 55.0143 140.52 64.8858 117.822 70.8953C93.7809 77.2604 88.0618 54.582 69.3252 49.8761Z" fill="#A6E0FA"/>
<path d="M94.8681 116.507C95.2813 115.868 97.7432 115.493 98.7763 115.359L95.9998 113.819C96.4971 113.194 100.973 111.321 104.454 112.258C106.94 112.927 107.5 115.437 107.5 117.5C107.5 119.5 106.517 121.1 106 121.5C105.201 122.353 101 123 99.5 123C97.4121 121.854 93.5626 118.951 94.8681 116.507Z" fill="#DC612B" stroke="black" stroke-width="0.5"/>
<path d="M44.7115 107.102C41.0986 98.5209 28.5287 99.7628 22.6953 101.456C25.5179 87.9079 37.3728 85.6499 47.5341 86.7788C43.9212 91.295 43.7707 102.397 44.7115 107.102Z" fill="#071E73"/>
<path d="M91.5652 44.7115C107.936 44.1469 129.388 50.9212 142.372 80.0037C123.856 78.6489 118.662 87.907 116.969 92.9877C114.146 74.3587 96.6459 48.6631 91.5652 44.7115Z" fill="#173AB5"/>
<path d="M116.968 92.423C98.3384 85.6486 81.2142 94.4929 76.3216 100.891C66.7249 72.3722 78.9565 49.791 85.3545 43.0166C91.5643 47.5328 113.581 63.9042 116.968 92.423Z" fill="#071E73"/>
<path d="M142.372 80.1487C144.63 65.4712 153.662 63.9658 158.178 62.6486C144.178 49.5518 118.85 46.4046 111.323 49.2272C123.968 53.2917 137.855 70.4067 142.372 80.1487Z" fill="#071E73"/>
<path d="M76.5611 100.891C63.4643 96.375 49.9798 103.337 44.711 107.101C39.0657 80.004 64.0929 55.8138 75.7596 55.4375C70.1144 79.7118 74.4912 95.6224 76.5611 100.891Z" fill="#3C4BD7"/>
<rect x="73.2446" y="22.3467" width="4.0216" height="10.7904" rx="2.0108" transform="rotate(-15 73.2446 22.3467)" fill="#4F74F9" stroke="black" stroke-width="0.5"/>
<path d="M76.3225 23.8232L76.887 26.6458" stroke="white" stroke-width="0.5"/>
<path d="M70.9931 34.8414V35.0914L71.2431 35.0914C72.7456 35.0914 76.2375 34.9795 78.0779 34.5194C78.9869 34.2922 80.5911 33.8414 82.1562 33.3533C83.7148 32.8673 85.2586 32.3371 86.0324 31.9502L86.256 31.8384L86.1442 31.6148C85.5476 30.4218 82.6284 26.9333 77.3985 28.0955C74.5115 28.7371 72.9019 30.1668 72.0191 31.5753C71.142 32.9748 70.9931 34.3354 70.9931 34.8414Z" fill="#4F74F9" stroke="black" stroke-width="0.5"/>
<path d="M77.4548 33.7129C37.3731 42.7454 23.8244 78.8754 22.6953 101.457C23.8314 91.8596 33.9859 83.9561 49.7928 87.3433C44.1475 59.1168 68.4223 37.6646 77.4548 33.7129Z" fill="#2353FF" stroke="black" stroke-width="0.5"/>
<path d="M83.101 80.5692C71.8106 73.2303 54.8747 77.7465 49.7939 87.3435C44.1485 70.9722 57.1554 44.9718 73.5038 34.8422C75.3608 33.6916 78.5842 32.5841 80.8423 32.0195C74.5196 53.2459 80.4666 72.6657 83.101 80.5692Z" fill="#2353FF" stroke="black" stroke-width="0.5"/>
<rect x="82.7902" y="59.5449" width="6.1453" height="106.632" rx="3.07265" transform="rotate(-15 82.7902 59.5449)" fill="#A3A3A3" stroke="black" stroke-width="0.5"/>
<path d="M83.0999 80.5682C77.2289 63.8584 76.326 46.697 80.8422 32.0195C98.4553 34.7292 113.02 45.568 120.923 70.9714C101.165 64.1971 88.5569 75.4875 83.0999 80.5682Z" fill="#2353FF" stroke="black" stroke-width="0.5"/>
<path d="M120.92 70.9706C111.323 37.6639 87.9888 33.1477 80.8381 32.0187C111.323 29.1961 146.324 41.6158 157.614 62.5032C148.017 55.7289 128.823 56.858 120.92 70.9706Z" fill="#2353FF" stroke="black" stroke-width="0.5"/>
<circle cx="44.7074" cy="108.232" r="1.12904" fill="#071E73"/>
<circle cx="22.1289" cy="102.587" r="1.12904" fill="#071E73"/>
<circle cx="50.356" cy="89.0372" r="1.12904" fill="white"/>
<circle cx="83.0987" cy="81.1349" r="1.12904" fill="white"/>
<circle cx="121.484" cy="72.1017" r="1.12904" fill="white"/>
<circle cx="76.3253" cy="101.457" r="1.12904" fill="#071E73"/>
<circle cx="116.969" cy="93.5529" r="1.12904" fill="#071E73"/>
<circle cx="142.937" cy="80.004" r="1.12904" fill="#071E73"/>
<circle cx="158.742" cy="63.0695" r="1.12904" fill="#071E73"/>
<path d="M35.9258 76.6161C32.7645 61.7128 57.691 43.4977 71.8039 35.4062C49.2232 53.4709 46.4006 76.0516 49.2232 86.7775C45.8361 76.6161 39.3129 82.2613 35.9258 76.6161Z" fill="#466FFF"/>
<path d="M82.5355 80.0037C74.6322 57.4229 78.0193 38.2292 80.8424 32.0195C69.5523 38.2292 56.5678 70.4068 66.1647 69.8423C73.8421 69.3907 80.0891 76.4284 82.5355 80.0037Z" fill="#466FFF"/>
<path d="M120.355 70.4069C111.774 40.6003 90.4333 33.421 81.403 32.8564C80.8385 46.7812 87.512 67.191 101.163 65.8907C113.016 64.7617 117.344 68.1488 120.355 70.4069Z" fill="#466FFF"/>
<path d="M156.487 61.3753C140.681 35.6327 101.916 31.3512 84.2275 32.2921C90.6255 33.233 105.228 36.3102 114.712 42.1813C126.567 49.5202 123.18 64.198 134.471 59.6818C143.503 56.0688 152.912 59.3054 156.487 61.3753Z" fill="#466FFF"/>
<path d="M115.358 36.8887C117.534 37.6647 127.69 40.6109 133.34 45.568" stroke="white" stroke-width="0.5"/>
<path d="M145.068 53.5045C144.42 51.8398 139.401 47.2617 136.163 47.2617C134.544 47.2617 134.543 48.649 136.972 48.649C139.401 48.649 139.74 53.1012 141.02 54.1981C142.639 55.5854 145.878 55.5854 145.068 53.5045Z" fill="white"/>
<path d="M89.8756 37.9365C91.381 38.501 94.8434 40.1946 96.6498 42.4527" stroke="white" stroke-width="0.5"/>
<path d="M76.3221 41.6152C75.3812 43.3088 73.6124 47.8249 74.064 52.3411" stroke="white" stroke-width="0.5"/>
<path d="M57.1305 47.2617C55.6251 48.9553 48.0982 58.5521 46.9692 62.5037" stroke="white" stroke-width="0.5"/>
<path d="M44.149 67.0206C44.149 66.1173 45.278 64.7625 45.8425 64.198C47.5361 63.6335 46.4071 67.0206 45.8425 67.5851C45.278 68.1496 44.149 68.1496 44.149 67.0206Z" fill="white"/>
<path d="M100.462 47.0435C99.6213 46.7141 98.7714 45.1688 98.4516 44.4373C98.5435 42.6545 101.286 44.9409 101.606 45.6724C101.925 46.4039 101.514 47.4552 100.462 47.0435Z" fill="white"/>
<path d="M72.9385 57.4769C72.9385 54.3801 73.7161 53.8074 74.1428 54.036C75.1965 54.6005 74.7449 56.9452 74.7449 57.907C74.7449 58.3371 74.8568 59.906 75.7611 60.8102C76.8901 61.9393 76.4008 63.0683 75.1965 63.0683C73.9922 63.0683 72.9385 61.3479 72.9385 57.4769Z" fill="white"/>
<path d="M107.212 52.3148C104.246 48.569 103.088 48.3591 102.972 48.9004C102.687 50.2373 105.286 52.793 106.207 53.9563C106.619 54.4766 108.034 56.4437 108.191 58.0987C108.387 60.1652 109.852 61.2271 110.796 60.4796C111.74 59.732 110.919 56.997 107.212 52.3148Z" fill="white"/>
<path d="M144.067 43.3086C148.583 45.0022 156.487 52.9054 158.18 57.4216" stroke="black" stroke-width="0.5"/>
<path d="M96.6466 98.3416C96.195 96.0835 97.3992 94.0135 97.7755 92.6963C103.609 113.208 114.147 153.666 114.712 156.488C115.243 159.145 113.206 157.994 112.454 157.053C107.373 138.423 97.0982 100.6 96.6466 98.3416Z" fill="#D6D6D6"/>
<path d="M86.2409 85.3584L91.8861 107.939" stroke="black" stroke-width="0.5"/>
<path d="M86.8086 99.4736L90.7603 113.587" stroke="black" stroke-width="0.5"/>
<path d="M109.63 147.458L114.419 165.879C115.817 171.257 112.516 176.732 107.107 178.004V178.004C101.905 179.228 96.6714 176.103 95.2823 170.943L93.823 165.523" stroke="black" stroke-width="6" stroke-linecap="round" stroke-linejoin="round"/>
<path d="M107.939 137.297L111.891 150.845" stroke="white" stroke-opacity="0.8" stroke-linecap="round" stroke-linejoin="round"/>
<ellipse cx="128.712" cy="204.606" rx="70" ry="15" transform="rotate(-5 128.712 204.606)" fill="#151515"/>
<ellipse cx="53.0158" cy="221.51" rx="12.5" ry="4" transform="rotate(-5 53.0158 221.51)" fill="#151515"/>
<path d="M171.268 142.964C176.068 155.364 173.268 179.464 171.268 189.964C167.928 207.499 156.797 209.537 140.215 214.999C122.96 220.682 87.2679 218.499 79.2679 216.964C79.2679 213.798 80.8679 205.464 87.2679 197.464C81.1012 198.964 67.6679 199.364 63.2679 188.964C57.7679 175.964 63.0604 158.518 82.2679 134.018C82.2889 133.016 83.8676 132.678 87.2679 132.499C94.8679 132.099 99.5481 134.999 101.215 137.499C94.2147 146.332 81.9676 165.264 88.7676 164.464C97.2676 163.464 107.584 136.303 126.268 129.964C145.268 123.518 165.268 127.464 171.268 142.964Z" fill="#FBC81B" stroke="black" stroke-width="0.5"/>
<path d="M89.9947 144.999C88.3947 144.599 87.6614 145.499 87.4947 145.999C86.4949 147.999 87.4947 149.499 86.4947 152.499C85.4947 155.499 87.4947 155.999 87.4947 154.999C87.4947 153.999 87.9947 152.499 88.9947 150.499C89.9947 148.499 91.9947 145.499 89.9947 144.999Z" fill="white"/>
<path d="M92.8146 138.5C88.0146 138.1 81.7146 134.499 82.7147 133.499C82.7147 132.999 89.2144 130.999 96.2144 133.999C101.814 136.399 100.981 137.333 100.815 138C100.148 138.333 98.8135 138.999 92.8146 138.5Z" fill="#2C2D2A" stroke="black" stroke-width="0.5"/>
<path d="M101 126.499C99.9999 130.999 99.6739 133.817 96.4999 138.499C90.9137 138.499 85.6927 136.497 83.9999 134.999C85.4999 133.499 88.492 130.398 88.9999 129.499C89.6347 128.375 89.9999 127.653 89.9999 121.999C89.9999 118.499 93.4999 115.499 95.9999 113.499C97.0815 112.634 98.2929 112.057 99.3426 111.678C100.221 111.36 100.779 112.339 100.172 113.048C98.3875 115.128 96.0679 118.1 96.9999 118.499C100.5 119.999 101.307 125.118 101 126.499Z" fill="#F77F4B" stroke="black" stroke-width="0.5"/>
<path d="M120.919 134.499C118.119 138.899 106.419 139.332 100.919 138.999C100.119 135.399 107.419 131.999 111.919 131.999C114.753 131.999 120.519 132.499 120.919 134.499Z" fill="black"/>
<path d="M100.673 134.544L100.673 134.544L100.674 134.548C100.838 135.368 101.064 137.391 100.677 138.938L100.634 139.109L100.781 139.207C101.07 139.4 101.544 139.579 102.2 139.707C102.86 139.836 103.722 139.916 104.798 139.899C106.951 139.865 109.974 139.444 113.991 138.238L114.169 138.185V137.999C114.169 137.533 113.954 136.522 113.353 134.947C112.748 133.362 111.742 131.185 110.137 128.376C108.128 124.76 106.239 122.406 104.718 120.932C103.958 120.195 103.289 119.676 102.74 119.33C102.198 118.987 101.759 118.802 101.46 118.752L101.391 118.741L101.326 118.767C101.032 118.885 100.812 119.067 100.674 119.309C100.538 119.547 100.492 119.821 100.506 120.106C100.532 120.667 100.788 121.323 101.136 121.979C101.371 122.422 101.656 122.879 101.959 123.326C98.988 120.928 96.275 120.259 94.2877 120.312C93.0662 120.344 92.1143 120.649 91.553 120.998C91.2831 121.165 91.0598 121.37 90.9818 121.596C90.9389 121.721 90.9368 121.865 91.0159 121.997C91.0905 122.121 91.214 122.194 91.3403 122.236L91.3678 122.245L91.3967 122.248C93.5412 122.443 94.9549 122.884 95.8493 123.349C96.0599 123.458 96.2401 123.568 96.3937 123.675C95.6901 123.427 94.6042 123.117 92.9733 122.755C90.6896 122.247 89.0981 122.611 88.3879 123.179C88.2082 123.322 88.0704 123.491 88.0053 123.678C87.9373 123.873 87.9527 124.079 88.0681 124.259C88.1784 124.431 88.3626 124.552 88.5844 124.629C88.8079 124.708 89.0876 124.749 89.4191 124.749C90.3777 124.749 91.7211 125.071 93.0309 125.487C93.1015 125.51 93.172 125.532 93.2421 125.555C92.7157 125.558 92.2491 125.621 91.8672 125.72C91.5991 125.789 91.3663 125.878 91.1814 125.981C91.0022 126.08 90.8428 126.207 90.7561 126.364C90.7107 126.447 90.6825 126.543 90.6897 126.647C90.697 126.753 90.7391 126.847 90.8021 126.925C90.9211 127.073 91.1182 127.171 91.3487 127.239L91.3486 127.239L91.3618 127.242C92.7563 127.57 94.9036 128.336 96.7959 129.559C98.6932 130.785 100.291 132.444 100.673 134.544ZM91.4193 121.999L91.4984 121.762C91.4892 121.759 91.4814 121.756 91.4748 121.753C93.6459 121.954 95.117 122.405 96.0796 122.905C97.0369 123.402 97.5214 123.963 97.6505 124.397L91.4193 121.999Z" fill="#F77F4B" stroke="black" stroke-width="0.5"/>
<path d="M96.4191 126.499C94.9191 125.832 91.4191 124.499 89.4191 124.499C86.9191 124.499 88.4191 121.999 92.9191 122.999C96.3219 123.755 97.3125 124.273 97.4109 124.468C97.2088 123.789 95.753 122.393 91.4193 121.999C89.9193 121.499 96.4193 117.499 103.919 125.499C102.419 123.666 99.4193 119.799 101.419 118.999C102.419 119.166 105.919 121.299 109.919 128.499C113.119 134.099 112.715 134.666 112.715 135.499C109.919 137.499 108.215 136.166 107.215 135.499C105.715 133.999 103.919 131.499 103.215 130.999C103.215 130.999 101.478 129.354 100.215 128.499C98.827 127.56 96.4191 126.499 96.4191 126.499Z" fill="#FF9669"/>
<path d="M104.715 122.499C106.048 123.999 108.915 127.799 109.715 130.999" stroke="white" stroke-width="0.5"/>
<path d="M168.876 161.999C167.21 170.666 155.823 190.042 141.376 196.499C125.715 203.499 108.715 200.999 102.377 190.499C94.5179 177.48 100.714 139.499 100.714 138.999C107.214 141.499 118.715 136.832 120.715 134.999C119.381 145.499 119.676 165.799 128.876 164.999C135.376 164.434 141.376 156.332 141.876 152.499" stroke="black" stroke-width="0.5"/>
<path d="M102.376 190.499C94.5177 177.48 100.715 139.999 100.715 139.499C102.893 140.152 107.215 140.999 115.215 137.999C118.226 141.521 113.279 153.712 112.714 164.999C111.714 184.999 124.972 192.871 137.214 188.499C151.214 183.499 156.714 165.999 161.214 162.999C164.814 160.599 167.822 161.332 168.876 161.999C167.209 170.666 155.823 190.042 141.376 196.499C125.714 203.499 108.715 200.999 102.376 190.499Z" fill="#F9911E"/>
<path d="M100.215 143.999C102.215 144.999 108.215 146.099 116.215 142.499" stroke="black" stroke-width="0.5"/>
<path d="M120.215 165.999C122.048 169.499 128.315 174.399 138.715 165.999" stroke="white" stroke-width="0.5"/>
<path d="M79.2147 216.999C79.8814 212.666 82.5147 202.699 87.7147 197.499C92.9147 192.299 97.5481 184.666 99.2147 181.499" stroke="black" stroke-width="0.5"/>
<path d="M84.6713 146.999C85.8713 142.599 83.7149 136.666 82.2149 134.499C81.2359 134.999 76.2155 141.999 69.7151 152.999C60.1531 169.18 61.2152 180.999 62.7149 186.499C65.9837 198.487 78.6927 198.999 87.6925 196.999C87.6925 196.999 90.9025 193.459 92.7149 190.999C94.6396 188.386 98.7147 181.499 98.7147 181.499C90.2147 184.999 77.1704 188.499 75.1704 178.499C73.1704 168.499 83.1713 152.499 84.6713 146.999Z" fill="#F9911E"/>
<path d="M79.2147 138.499C80.7147 140.166 85.0147 143.599 90.2147 143.999" stroke="black" stroke-width="0.5"/>
<path d="M92.2147 144.499H94.7147" stroke="black" stroke-width="0.5"/>
<path d="M171.755 170.19C171.816 175.132 169.715 184 165.715 189.5" stroke="white" stroke-width="0.5"/>
<path d="M117.715 145.499C117.715 144.299 117.459 143.786 116.715 143.999C115.715 144.499 114.215 145.499 115.715 149.999C116.347 151.896 115.215 151.999 114.715 153.999C113.737 157.91 117.215 157.999 117.715 156.499C118.068 155.438 117.715 153.499 117.215 150.999C116.715 148.499 117.715 146.999 117.715 145.499Z" fill="white"/>
<ellipse cx="113.215" cy="151.499" rx="1" ry="1.5" fill="white"/>
<path d="M134.715 124.999C128.78 129.662 126.548 139.166 127.215 143.499C128.815 150.299 136.215 147.666 139.715 145.499C141.881 143.332 147.615 138.599 153.215 136.999C160.215 134.999 168.715 127.499 160.215 121.999C151.715 116.499 141.715 119.499 134.715 124.999Z" fill="#FBC81B"/>
<path d="M80.2147 216.499C99.7147 219.999 168.215 221.499 170.715 189.499C157.715 189.499 130.513 220.736 103.215 210.499C91.2147 205.999 97.2147 191.332 98.7147 182.999C88.7147 199.499 82.7147 199.999 80.2147 216.499Z" fill="#F9911E"/>
<path d="M131.715 143.499L124.215 162.999" stroke="black" stroke-width="0.5"/>
<path d="M100.715 213.999L109.215 196.999" stroke="black" stroke-width="0.5"/>
<path d="M127.215 143.499C124.015 138.699 123.881 133.166 124.215 130.999C125.415 130.199 129.381 128.999 131.215 128.499C127.615 133.699 127.048 140.666 127.215 143.499Z" fill="#F9911E"/>
<path d="M158.715 126.999C157.915 122.999 151.715 122.166 148.715 122.499C149.715 121.499 151.344 118.999 151.715 118.999C155.715 118.999 161.158 121.385 163.215 125.499C165.215 129.499 159.215 134.999 153.215 136.499C155.381 134.832 159.515 130.999 158.715 126.999Z" fill="#F9911E"/>
<path d="M127.215 143.499C126.548 139.166 128.78 129.662 134.715 124.999C141.715 119.499 151.715 116.499 160.215 121.999C168.715 127.499 160.215 134.999 153.215 136.999C147.615 138.599 141.881 143.332 139.715 145.499" stroke="black" stroke-width="0.5"/>
<path d="M133.783 114.361C131.068 105.674 138.081 96.7163 141.927 93.323C144.641 90.6082 150.07 89.9298 153.464 91.2871C156.857 92.6444 158.893 100.109 156.178 115.04C153.464 129.97 139.212 146.936 133.783 142.186C129.44 138.385 135.14 125.219 138.533 119.112C138.533 119.112 135.14 117.754 133.783 114.361Z" fill="#F77F4B" stroke="black" stroke-width="0.5"/>
<path d="M141.927 98.0732C140.796 99.883 138.262 103.638 137.176 104.181C135.819 104.86 137.176 106.896 139.891 106.217" stroke="black" stroke-width="0.5"/>
<path d="M144.553 98.6641L144.516 98.7007V98.7525C144.516 99.0107 144.664 99.5789 145.083 100.15C145.507 100.726 146.209 101.309 147.325 101.588C148.434 101.866 149.252 101.752 149.826 101.533C150.399 101.314 150.72 100.994 150.837 100.877L150.901 100.813L150.861 100.732C150.627 100.265 149.887 99.1996 148.769 98.6407C148.204 98.3583 147.336 98.1866 146.527 98.1694C146.121 98.1608 145.725 98.1908 145.383 98.2679C145.045 98.3443 144.747 98.4701 144.553 98.6641Z" fill="white" stroke="black" stroke-width="0.25"/>
<path d="M134.373 95.7295L134.336 95.7661V95.8179C134.336 96.0761 134.484 96.6443 134.904 97.2153C135.327 97.7914 136.03 98.3748 137.146 98.6537C138.255 98.931 139.073 98.8173 139.647 98.5984C140.22 98.3798 140.54 98.0598 140.658 97.9422L140.721 97.8785L140.681 97.7979C140.447 97.3305 139.707 96.265 138.589 95.7061C138.024 95.4237 137.156 95.252 136.347 95.2348C135.942 95.2262 135.545 95.2562 135.204 95.3333C134.865 95.4097 134.567 95.5355 134.373 95.7295Z" fill="white" stroke="black" stroke-width="0.25"/>
<path d="M147.104 98.3325C146.11 98.2239 145.062 98.3315 144.641 98.7525C144.641 99.1288 145.017 100.382 146.393 101.105C146.671 101.251 146.991 101.376 147.356 101.467C148.753 101.757 148.843 100.683 148.713 100.11C148.713 99.6488 147.712 98.3989 147.104 98.3325Z" fill="black"/>
<path d="M136.924 95.3979C135.93 95.2893 134.882 95.3969 134.461 95.8179C134.461 96.1943 134.837 97.4473 136.214 98.1705C136.492 98.3167 136.811 98.4412 137.176 98.5325C138.574 98.822 138.663 97.7482 138.533 97.1751C138.533 96.7142 137.533 95.4643 136.924 95.3979Z" fill="black"/>
<path d="M136.497 110.968C136.497 109.339 137.854 108.479 138.533 108.253C139.212 108.253 139.89 108.932 139.89 110.289C139.89 111.646 138.533 113.682 137.854 113.682C137.176 113.682 136.497 113.003 136.497 110.968Z" fill="black"/>
<path d="M162.413 77.9435C168.928 74.686 175.245 73.6528 175.986 75.2289C178.7 80.9994 164.448 83.3726 164.448 83.3726C164.448 83.3726 167.163 84.0513 176.664 83.3726C186.165 82.694 188.201 75.9075 191.594 76.5861C197 77.6673 191.594 90.4994 178.7 91.5164C173.964 91.8899 173.949 93.5523 175.986 94.231C178.022 94.9096 187.522 94.9096 187.522 99.6602C187.522 104.411 171.913 107.125 165.805 107.125C159.698 107.125 154.947 117.305 155.626 113.233C156.304 109.161 156.304 102.375 154.947 105.768C153.59 109.161 147.482 110.519 148.839 109.161C150.197 107.804 152.233 104.411 152.911 99.6602C153.454 95.8597 144.994 94.0048 140.696 93.5523C124.408 90.1591 132 76.9993 143.284 78.3926C149.383 79.1457 154.269 82.0154 162.413 77.9435Z" fill="#251565" stroke="black" stroke-width="0.5" stroke-linecap="round" stroke-linejoin="round"/>
<path d="M178.573 96.7159C181.288 96.173 184.681 97.3945 184.681 98.7519C184.681 100.109 181.967 98.7518 179.931 99.4305C177.895 100.109 176.538 100.109 175.859 99.4306C175.379 98.9508 175.18 97.3946 178.573 96.7159Z" fill="white"/>
<path d="M190.789 79.0713C191.015 82.0121 187.939 88.4366 173.823 90.6083" stroke="white" stroke-width="0.5" stroke-linecap="round" stroke-linejoin="round"/>
<path d="M174.502 77.0352C174.276 77.94 172.466 80.0212 167.037 81.107" stroke="white" stroke-width="0.5" stroke-linecap="round" stroke-linejoin="round"/>
<ellipse cx="171.787" cy="99.4313" rx="2.03594" ry="1.3573" transform="rotate(-13.3579 171.787 99.4313)" fill="white"/>
<path d="M150.07 119.79C144.098 121.419 139.891 120.016 138.533 119.111C138.533 119.654 133.783 127.934 133.104 132.684C135.819 127.798 145.772 122.052 150.07 119.79Z" fill="#D75A24"/>
<path d="M157 122.095C156.5 127.096 152.066 132.528 147 137.595C146 138.595 144 140.095 144 140.095" stroke="white" stroke-width="0.5"/>
<path d="M83.7874 158.999C82.7874 162.166 82.3874 168.299 88.7874 167.499" stroke="white" stroke-width="0.5"/>
<path d="M97.2147 190.499C93.5481 194.832 85.9147 204.499 84.7147 208.499" stroke="black" stroke-width="0.5"/>
<path d="M168.634 151.999C168.234 150.799 167.134 149.999 166.634 149.999C166.134 149.999 166.134 150.999 166.634 152.499C167.134 153.999 167.427 154.499 168.134 154.499C168.634 154.499 169.134 153.499 168.634 151.999Z" fill="white"/>
<path d="M163.634 137.999C165.634 137.999 168.943 141.185 169.715 143.499C169.888 144.018 170.315 144.699 170.715 147.499C171.215 150.999 168.634 150.499 168.634 148.999C168.634 147.499 167.298 145.775 164.634 143.999C161.634 141.999 161.572 137.999 163.634 137.999Z" fill="white"/>
<path d="M139.215 145.999L137.715 147.499" stroke="black" stroke-width="0.5"/>
<mask id="path-92-outside-1_2086_12823" maskUnits="userSpaceOnUse" x="56.8786" y="110.878" width="26.163" height="26.163" fill="black">
<rect fill="white" x="56.8786" y="110.878" width="26.163" height="26.163"/>
<path fill-rule="evenodd" clip-rule="evenodd" d="M73.0401 122.797C73.5747 120.795 73.0568 118.571 71.4864 117C69.6391 115.153 66.887 114.762 64.6567 115.828L67.2438 118.415C68.0248 119.196 68.0248 120.462 67.2438 121.243C66.4627 122.024 65.1964 122.024 64.4153 121.243L61.8283 118.656C60.7629 120.886 61.1538 123.638 63.0011 125.486C64.5715 127.056 66.7958 127.574 68.7975 127.039L72.9006 131.142C74.0722 132.314 75.9717 132.314 77.1432 131.142C78.3148 129.971 78.3148 128.071 77.1432 126.9L73.0401 122.797ZM75.729 128.314C76.1195 128.705 76.1195 129.338 75.729 129.728C75.3385 130.119 74.7053 130.119 74.3148 129.728C73.9243 129.338 73.9243 128.705 74.3148 128.314C74.7053 127.923 75.3385 127.923 75.729 128.314Z"/>
</mask>
<path fill-rule="evenodd" clip-rule="evenodd" d="M73.0401 122.797C73.5747 120.795 73.0568 118.571 71.4864 117C69.6391 115.153 66.887 114.762 64.6567 115.828L67.2438 118.415C68.0248 119.196 68.0248 120.462 67.2438 121.243C66.4627 122.024 65.1964 122.024 64.4153 121.243L61.8283 118.656C60.7629 120.886 61.1538 123.638 63.0011 125.486C64.5715 127.056 66.7958 127.574 68.7975 127.039L72.9006 131.142C74.0722 132.314 75.9717 132.314 77.1432 131.142C78.3148 129.971 78.3148 128.071 77.1432 126.9L73.0401 122.797ZM75.729 128.314C76.1195 128.705 76.1195 129.338 75.729 129.728C75.3385 130.119 74.7053 130.119 74.3148 129.728C73.9243 129.338 73.9243 128.705 74.3148 128.314C74.7053 127.923 75.3385 127.923 75.729 128.314Z" fill="#466FFF"/>
<path d="M73.0401 122.797L72.074 122.539L71.9252 123.096L72.333 123.504L73.0401 122.797ZM64.6567 115.828L64.2257 114.925L62.9497 115.535L63.9496 116.535L64.6567 115.828ZM61.8283 118.656L62.5354 117.949L61.5355 116.949L60.926 118.225L61.8283 118.656ZM68.7975 127.039L69.5046 126.332L69.0967 125.924L68.5395 126.073L68.7975 127.039ZM72.9006 131.142L72.1935 131.85L72.9006 131.142ZM77.1432 126.9L76.4361 127.607L77.1432 126.9ZM74.0063 123.055C74.6291 120.722 74.0265 118.126 72.1935 116.293L70.7793 117.707C72.087 119.015 72.5202 120.868 72.074 122.539L74.0063 123.055ZM72.1935 116.293C70.0372 114.137 66.8264 113.683 64.2257 114.925L65.0878 116.73C66.9476 115.841 69.241 116.169 70.7793 117.707L72.1935 116.293ZM63.9496 116.535L66.5366 119.122L67.9509 117.707L65.3638 115.12L63.9496 116.535ZM66.5366 119.122C66.9272 119.512 66.9272 120.145 66.5366 120.536L67.9509 121.95C69.1224 120.778 69.1224 118.879 67.9509 117.707L66.5366 119.122ZM66.5366 120.536C66.1461 120.926 65.513 120.926 65.1224 120.536L63.7082 121.95C64.8798 123.122 66.7793 123.122 67.9509 121.95L66.5366 120.536ZM65.1224 120.536L62.5354 117.949L61.1212 119.363L63.7082 121.95L65.1224 120.536ZM60.926 118.225C59.6836 120.826 60.1377 124.036 62.294 126.193L63.7082 124.778C62.1699 123.24 61.8422 120.947 62.7306 119.087L60.926 118.225ZM62.294 126.193C64.127 128.026 66.7231 128.628 69.0555 128.005L68.5395 126.073C66.8685 126.519 65.016 126.086 63.7082 124.778L62.294 126.193ZM68.0904 127.746L72.1935 131.85L73.6077 130.435L69.5046 126.332L68.0904 127.746ZM72.1935 131.85C73.7556 133.412 76.2882 133.412 77.8503 131.85L76.4361 130.435C75.6551 131.216 74.3887 131.216 73.6077 130.435L72.1935 131.85ZM77.8503 131.85C79.4124 130.287 79.4124 127.755 77.8503 126.193L76.4361 127.607C77.2172 128.388 77.2172 129.654 76.4361 130.435L77.8503 131.85ZM77.8503 126.193L73.7472 122.09L72.333 123.504L76.4361 127.607L77.8503 126.193ZM76.4361 130.435C77.2172 129.654 77.2172 128.388 76.4361 127.607L75.0219 129.021L76.4361 130.435ZM73.6077 130.435C74.3887 131.216 75.6551 131.216 76.4361 130.435L75.0219 129.021L73.6077 130.435ZM73.6077 127.607C72.8267 128.388 72.8267 129.654 73.6077 130.435L75.0219 129.021L73.6077 127.607ZM76.4361 127.607C75.6551 126.826 74.3887 126.826 73.6077 127.607L75.0219 129.021L76.4361 127.607Z" fill="black" mask="url(#path-92-outside-1_2086_12823)"/>
<rect x="41.1033" y="158.959" width="9" height="21" rx="1.5" transform="rotate(-12.053 41.1033 158.959)" fill="#2353FF" stroke="black"/>
<path fill-rule="evenodd" clip-rule="evenodd" d="M42.5319 163.256L45.4658 162.629L45.6746 163.607L42.7407 164.234L42.5319 163.256ZM45.8834 164.585L42.9496 165.212L43.1584 166.19L46.0922 165.563L45.8834 164.585ZM43.3672 167.168L46.3011 166.541L46.5099 167.519L43.576 168.146L43.3672 167.168ZM43.7848 169.124L48.6746 168.08L48.8834 169.057L43.9936 170.102L43.7848 169.124ZM47.1363 170.453L44.2025 171.079L44.4113 172.057L47.3451 171.431L47.1363 170.453ZM44.6201 173.035L47.554 172.409L47.7628 173.387L44.8289 174.013L44.6201 173.035ZM47.9716 174.365L45.0377 174.991L45.2465 175.969L48.1804 175.343L47.9716 174.365Z" fill="#88A2F7"/>
<circle cx="195.999" cy="131.999" r="16" transform="rotate(15 195.999 131.999)" fill="white" fill-opacity="0.4"/>
<path d="M190.807 123.361C190.807 123.361 192.549 127.153 196.908 128.321C201.553 129.566 204.814 127.114 204.814 127.114L202.808 134.6L188.802 130.847L190.807 123.361Z" fill="url(#paint0_linear_2086_12823)"/>
<path d="M186.368 129.99C186.299 129.87 186.34 129.717 186.46 129.648L188.625 128.398L190 130.78L187.618 132.155L186.368 129.99Z" fill="#0066FF" fill-opacity="0.4"/>
<path d="M186.972 130.151C186.903 130.032 186.944 129.879 187.063 129.81L188.471 128.997L189.408 130.621L187.784 131.558L186.972 130.151Z" fill="#0066FF"/>
<path fill-rule="evenodd" clip-rule="evenodd" d="M190.924 128.156C191.706 127.905 192.347 127.274 192.575 126.423C192.932 125.089 192.141 123.718 190.807 123.361C189.474 123.004 188.103 123.795 187.745 125.129C187.517 125.981 187.758 126.848 188.309 127.457C188.472 127.724 188.664 128.137 188.602 128.533C188.498 129.19 188.123 129.501 188.123 129.501L188.126 129.502C187.92 129.663 187.764 129.889 187.691 130.161C187.617 130.435 187.641 130.713 187.741 130.957C187.752 131.011 187.826 131.432 187.608 132.011C187.459 132.407 187.072 132.684 186.811 132.833C186.058 133.098 185.444 133.717 185.222 134.546C184.864 135.88 185.656 137.251 186.989 137.608C188.323 137.966 189.694 137.174 190.051 135.841C190.273 135.013 190.052 134.17 189.534 133.565C189.382 133.306 189.184 132.871 189.253 132.452C189.357 131.821 189.647 131.493 189.669 131.469C189.875 131.308 190.033 131.081 190.106 130.808C190.178 130.537 190.156 130.262 190.059 130.019L190.063 130.021C190.063 130.021 189.892 129.564 190.132 128.943C190.276 128.569 190.65 128.306 190.924 128.156Z" fill="#0144F1"/>
<path d="M205.345 135.074C205.464 135.005 205.505 134.852 205.436 134.733L204.186 132.568L201.805 133.943L203.18 136.324L205.345 135.074Z" fill="#FD1569" fill-opacity="0.4"/>
<path d="M204.645 134.887C204.765 134.818 204.806 134.665 204.737 134.545L203.924 133.138L202.3 134.075L203.238 135.699L204.645 134.887Z" fill="#FD1569"/>
<path fill-rule="evenodd" clip-rule="evenodd" d="M204.93 131.91C205.712 131.659 206.354 131.028 206.583 130.176C206.94 128.842 206.149 127.471 204.815 127.114C203.481 126.756 202.11 127.548 201.753 128.882C201.525 129.731 201.764 130.596 202.312 131.204C202.475 131.471 202.67 131.888 202.607 132.285C202.504 132.943 202.129 133.253 202.129 133.253L202.134 133.255C201.929 133.416 201.772 133.642 201.699 133.914C201.626 134.186 201.649 134.461 201.746 134.703L201.745 134.703C201.745 134.703 201.848 135.142 201.614 135.764C201.463 136.163 201.072 136.441 200.81 136.589C200.061 136.855 199.451 137.473 199.23 138.299C198.872 139.633 199.664 141.004 200.998 141.361C202.331 141.719 203.702 140.927 204.059 139.594C204.282 138.764 204.06 137.921 203.539 137.315C203.388 137.055 203.192 136.623 203.26 136.205C203.361 135.593 203.636 135.267 203.673 135.225C203.881 135.064 204.04 134.835 204.114 134.561C204.186 134.29 204.164 134.015 204.067 133.772L204.07 133.773C204.07 133.773 203.9 133.317 204.139 132.696C204.283 132.322 204.656 132.06 204.93 131.91ZM203.229 133.03L203.52 131.943L203.52 131.943L203.229 133.03L203.229 133.03ZM202.582 135.445L202.582 135.445L202.291 136.531L202.29 136.531L202.582 135.445Z" fill="#0144F1"/>
<ellipse cx="195.676" cy="133.207" rx="2.00002" ry="2.00002" transform="rotate(15 195.676 133.207)" fill="#0144F1"/>
</g>
<defs>
<linearGradient id="paint0_linear_2086_12823" x1="197.811" y1="125.238" x2="195.805" y2="132.724" gradientUnits="userSpaceOnUse">
<stop stop-color="#0144F1"/>
<stop offset="1" stop-color="#0144F1" stop-opacity="0"/>
</linearGradient>
</defs>
</svg>
