<svg width="1920" height="480" viewBox="0 0 1920 480" fill="none" xmlns="http://www.w3.org/2000/svg">
<mask id="mask0_3360_14232" style="mask-type:alpha" maskUnits="userSpaceOnUse" x="0" y="0" width="1920" height="480">
<rect width="1920" height="480" fill="#D9D9D9"/>
</mask>
<g mask="url(#mask0_3360_14232)">
<rect x="-321" width="2560" height="480" fill="#F2F3F7"/>
<mask id="mask1_3360_14232" style="mask-type:alpha" maskUnits="userSpaceOnUse" x="-321" y="0" width="2560" height="456">
<rect x="-321" width="2560" height="456" fill="#00D1FF"/>
</mask>
<g mask="url(#mask1_3360_14232)">
<g filter="url(#filter0_d_3360_14232)">
<ellipse cx="1375" cy="-0.609161" rx="293" ry="292.391" fill="#EFF2FB"/>
</g>
<ellipse cx="1553.45" cy="157.399" rx="142.451" ry="142.155" fill="url(#paint0_linear_3360_14232)"/>
<g filter="url(#filter1_f_3360_14232)">
<ellipse cx="1657.52" cy="112.378" rx="67.518" ry="67.3777" fill="#A3FFEE"/>
</g>
<g filter="url(#filter2_f_3360_14232)">
<ellipse cx="33.8493" cy="67.4267" rx="33.8493" ry="67.4267" transform="matrix(0.807217 0.590255 -0.591856 0.806044 1497.06 2)" fill="white"/>
</g>
<g filter="url(#filter3_f_3360_14232)">
<ellipse cx="1479.08" cy="224.904" rx="85.0805" ry="84.9037" fill="#E374FF"/>
</g>
<ellipse cx="406.326" cy="278.674" rx="44.6743" ry="44.6743" fill="url(#paint1_linear_3360_14232)"/>
<g filter="url(#filter4_f_3360_14232)">
<circle cx="402.052" cy="302.332" r="0.5" fill="#3FBAFF"/>
</g>
<g filter="url(#filter5_f_3360_14232)">
<circle cx="398.5" cy="319.848" r="9.5" fill="white"/>
</g>
<ellipse cx="1670.49" cy="50.3992" rx="44.4916" ry="44.3992" fill="url(#paint2_linear_3360_14232)"/>
<g opacity="0.2" filter="url(#filter6_f_3360_14232)">
<path fill-rule="evenodd" clip-rule="evenodd" d="M1181.5 158.456C1181.5 164.419 1179.07 169.813 1175.14 173.702C1170.52 179.535 1156.02 202.275 1170.76 212.096H1173.88C1175.12 212.096 1176.13 213.107 1176.13 214.353V295.664C1176.13 296.91 1175.12 297.92 1173.88 297.92H1146.17C1144.93 297.92 1143.92 296.91 1143.92 295.664V214.353C1143.92 213.107 1144.93 212.096 1146.17 212.096H1149.29C1164.03 202.275 1149.53 179.536 1144.91 173.702C1140.98 169.814 1138.55 164.419 1138.55 158.456C1138.55 146.606 1148.16 137 1160.02 137C1171.89 137 1181.5 146.606 1181.5 158.456ZM421.259 145.8C420.011 145.8 419 146.811 419 148.057V295.664C419 296.91 420.011 297.92 421.259 297.92H440.401C441.649 297.92 442.66 296.91 442.66 295.664V199.471C442.66 198.997 443.299 198.843 443.515 199.265L493.379 296.691C493.766 297.446 494.543 297.92 495.391 297.92H507.086C507.942 297.92 508.724 297.438 509.106 296.674L557.338 200.436C557.551 200.01 558.194 200.162 558.194 200.638V295.664C558.194 296.91 559.205 297.92 560.453 297.92H593.313C594.561 297.92 595.572 296.91 595.572 295.664V148.057C595.572 146.811 594.561 145.8 593.313 145.8H561.353C560.497 145.8 559.714 146.284 559.332 147.049L508.38 248.966C508.214 249.298 507.74 249.3 507.573 248.968L455.998 147.039C455.614 146.279 454.834 145.8 453.982 145.8H421.259ZM751.924 236.234C751.924 270.303 723.075 297.92 687.487 297.92C651.9 297.92 623.05 270.303 623.05 236.234C623.05 202.166 651.9 174.548 687.487 174.548C723.075 174.548 751.924 202.166 751.924 236.234ZM714.336 236.234C714.336 264.378 702.315 287.192 687.487 287.192C672.659 287.192 660.639 264.378 660.639 236.234C660.639 208.091 672.659 185.276 687.487 185.276C702.315 185.276 714.336 208.091 714.336 236.234ZM773.403 182.169C773.403 180.923 774.415 179.912 775.662 179.912H803.363C804.61 179.912 805.622 180.923 805.622 182.169V195.972C815.179 187.97 828.791 179.912 843.21 179.912C852.107 179.912 859.319 187.117 859.319 196.004C859.319 204.892 852.107 212.096 843.21 212.096C835.583 212.096 829.194 206.801 827.525 199.69L827.101 199.4C819.775 198.751 814.286 200.35 805.622 209.226V295.664C805.622 296.91 804.61 297.92 803.363 297.92H775.662C774.415 297.92 773.403 296.91 773.403 295.664V182.169ZM870.059 182.169C870.059 180.923 871.07 179.912 872.318 179.912H900.018C901.266 179.912 902.277 180.923 902.277 182.169V186.541C909.704 182.301 918.659 179.912 929.126 179.912C964.713 179.912 993.563 207.53 993.563 241.598C993.563 275.667 964.713 303.284 929.126 303.284C918.659 303.284 909.704 300.895 902.277 296.656V370.76C902.277 372.006 901.266 373.017 900.018 373.017H872.318C871.07 373.017 870.059 372.006 870.059 370.76V182.169ZM902.277 241.546V241.651C902.294 266.807 914.308 287.192 929.126 287.192C943.954 287.192 955.975 266.779 955.975 241.598C955.975 216.417 943.954 196.004 929.126 196.004C914.308 196.004 902.294 216.389 902.277 241.546ZM1006.56 147.728C1005.31 147.728 1004.3 148.738 1004.3 149.985V295.664C1004.3 296.91 1005.31 297.92 1006.56 297.92H1034.26C1035.51 297.92 1036.52 296.91 1036.52 295.664V220.959C1036.52 220.056 1037.07 219.241 1037.9 218.89L1073.2 204.012C1076.18 202.757 1079.48 204.942 1079.48 208.171V297.92H1109.44C1110.69 297.92 1111.7 296.91 1111.7 295.664V207.221C1111.7 200.039 1108.91 193.03 1103.02 188.908C1096.86 184.595 1088.17 179.912 1079.48 179.912C1063.38 179.912 1036.55 195.985 1036.52 196.004V149.985C1036.52 148.738 1035.51 147.728 1034.26 147.728H1006.56ZM1254.07 179.912C1281.99 179.912 1296.95 196.004 1296.95 212.096H1278.23C1277.33 204.944 1267.42 193.322 1254.07 196.004C1234.9 199.853 1232.59 220.142 1254.07 225.506C1288.9 234.205 1299.71 255.008 1299.71 263.054C1299.71 271.1 1297.02 300.602 1251.38 300.602C1214.87 300.602 1207.53 277.358 1208.42 265.736H1227.22C1227.22 281.828 1240.57 287.192 1251.38 287.192C1265.85 287.192 1280.84 264.761 1254.07 255.008C1213.79 240.342 1208.42 230.87 1208.42 217.46C1208.42 204.05 1219.16 179.912 1254.07 179.912ZM1328.75 179.912C1327.5 179.912 1326.49 180.923 1326.49 182.169V295.664C1326.49 296.91 1327.5 297.92 1328.75 297.92H1356.45C1357.69 297.92 1358.71 296.91 1358.71 295.664V214.946L1384.65 204.012C1387.63 202.757 1390.92 204.942 1390.92 208.171V297.92H1420.88C1422.13 297.92 1423.14 296.91 1423.14 295.664V214.946L1449.09 204.012C1452.07 202.757 1455.36 204.942 1455.36 208.171V297.92H1485.32C1486.57 297.92 1487.58 296.91 1487.58 295.664V207.221C1487.58 200.039 1484.79 193.03 1478.9 188.908C1472.74 184.595 1464.05 179.912 1455.36 179.912C1443.99 179.912 1427.28 187.926 1418.42 192.643C1417.31 191.236 1415.99 189.976 1414.47 188.908C1408.3 184.595 1399.61 179.912 1390.92 179.912C1381.35 179.912 1367.98 185.599 1358.71 190.211V182.169C1358.71 180.923 1357.69 179.912 1356.45 179.912H1328.75Z" fill="url(#paint3_linear_3360_14232)"/>
<path fill-rule="evenodd" clip-rule="evenodd" d="M1181.5 158.456C1181.5 164.419 1179.07 169.813 1175.14 173.702C1170.52 179.535 1156.02 202.275 1170.76 212.096H1173.88C1175.12 212.096 1176.13 213.107 1176.13 214.353V295.664C1176.13 296.91 1175.12 297.92 1173.88 297.92H1146.17C1144.93 297.92 1143.92 296.91 1143.92 295.664V214.353C1143.92 213.107 1144.93 212.096 1146.17 212.096H1149.29C1164.03 202.275 1149.53 179.536 1144.91 173.702C1140.98 169.814 1138.55 164.419 1138.55 158.456C1138.55 146.606 1148.16 137 1160.02 137C1171.89 137 1181.5 146.606 1181.5 158.456ZM421.259 145.8C420.011 145.8 419 146.811 419 148.057V295.664C419 296.91 420.011 297.92 421.259 297.92H440.401C441.649 297.92 442.66 296.91 442.66 295.664V199.471C442.66 198.997 443.299 198.843 443.515 199.265L493.379 296.691C493.766 297.446 494.543 297.92 495.391 297.92H507.086C507.942 297.92 508.724 297.438 509.106 296.674L557.338 200.436C557.551 200.01 558.194 200.162 558.194 200.638V295.664C558.194 296.91 559.205 297.92 560.453 297.92H593.313C594.561 297.92 595.572 296.91 595.572 295.664V148.057C595.572 146.811 594.561 145.8 593.313 145.8H561.353C560.497 145.8 559.714 146.284 559.332 147.049L508.38 248.966C508.214 249.298 507.74 249.3 507.573 248.968L455.998 147.039C455.614 146.279 454.834 145.8 453.982 145.8H421.259ZM751.924 236.234C751.924 270.303 723.075 297.92 687.487 297.92C651.9 297.92 623.05 270.303 623.05 236.234C623.05 202.166 651.9 174.548 687.487 174.548C723.075 174.548 751.924 202.166 751.924 236.234ZM714.336 236.234C714.336 264.378 702.315 287.192 687.487 287.192C672.659 287.192 660.639 264.378 660.639 236.234C660.639 208.091 672.659 185.276 687.487 185.276C702.315 185.276 714.336 208.091 714.336 236.234ZM773.403 182.169C773.403 180.923 774.415 179.912 775.662 179.912H803.363C804.61 179.912 805.622 180.923 805.622 182.169V195.972C815.179 187.97 828.791 179.912 843.21 179.912C852.107 179.912 859.319 187.117 859.319 196.004C859.319 204.892 852.107 212.096 843.21 212.096C835.583 212.096 829.194 206.801 827.525 199.69L827.101 199.4C819.775 198.751 814.286 200.35 805.622 209.226V295.664C805.622 296.91 804.61 297.92 803.363 297.92H775.662C774.415 297.92 773.403 296.91 773.403 295.664V182.169ZM870.059 182.169C870.059 180.923 871.07 179.912 872.318 179.912H900.018C901.266 179.912 902.277 180.923 902.277 182.169V186.541C909.704 182.301 918.659 179.912 929.126 179.912C964.713 179.912 993.563 207.53 993.563 241.598C993.563 275.667 964.713 303.284 929.126 303.284C918.659 303.284 909.704 300.895 902.277 296.656V370.76C902.277 372.006 901.266 373.017 900.018 373.017H872.318C871.07 373.017 870.059 372.006 870.059 370.76V182.169ZM902.277 241.546V241.651C902.294 266.807 914.308 287.192 929.126 287.192C943.954 287.192 955.975 266.779 955.975 241.598C955.975 216.417 943.954 196.004 929.126 196.004C914.308 196.004 902.294 216.389 902.277 241.546ZM1006.56 147.728C1005.31 147.728 1004.3 148.738 1004.3 149.985V295.664C1004.3 296.91 1005.31 297.92 1006.56 297.92H1034.26C1035.51 297.92 1036.52 296.91 1036.52 295.664V220.959C1036.52 220.056 1037.07 219.241 1037.9 218.89L1073.2 204.012C1076.18 202.757 1079.48 204.942 1079.48 208.171V297.92H1109.44C1110.69 297.92 1111.7 296.91 1111.7 295.664V207.221C1111.7 200.039 1108.91 193.03 1103.02 188.908C1096.86 184.595 1088.17 179.912 1079.48 179.912C1063.38 179.912 1036.55 195.985 1036.52 196.004V149.985C1036.52 148.738 1035.51 147.728 1034.26 147.728H1006.56ZM1254.07 179.912C1281.99 179.912 1296.95 196.004 1296.95 212.096H1278.23C1277.33 204.944 1267.42 193.322 1254.07 196.004C1234.9 199.853 1232.59 220.142 1254.07 225.506C1288.9 234.205 1299.71 255.008 1299.71 263.054C1299.71 271.1 1297.02 300.602 1251.38 300.602C1214.87 300.602 1207.53 277.358 1208.42 265.736H1227.22C1227.22 281.828 1240.57 287.192 1251.38 287.192C1265.85 287.192 1280.84 264.761 1254.07 255.008C1213.79 240.342 1208.42 230.87 1208.42 217.46C1208.42 204.05 1219.16 179.912 1254.07 179.912ZM1328.75 179.912C1327.5 179.912 1326.49 180.923 1326.49 182.169V295.664C1326.49 296.91 1327.5 297.92 1328.75 297.92H1356.45C1357.69 297.92 1358.71 296.91 1358.71 295.664V214.946L1384.65 204.012C1387.63 202.757 1390.92 204.942 1390.92 208.171V297.92H1420.88C1422.13 297.92 1423.14 296.91 1423.14 295.664V214.946L1449.09 204.012C1452.07 202.757 1455.36 204.942 1455.36 208.171V297.92H1485.32C1486.57 297.92 1487.58 296.91 1487.58 295.664V207.221C1487.58 200.039 1484.79 193.03 1478.9 188.908C1472.74 184.595 1464.05 179.912 1455.36 179.912C1443.99 179.912 1427.28 187.926 1418.42 192.643C1417.31 191.236 1415.99 189.976 1414.47 188.908C1408.3 184.595 1399.61 179.912 1390.92 179.912C1381.35 179.912 1367.98 185.599 1358.71 190.211V182.169C1358.71 180.923 1357.69 179.912 1356.45 179.912H1328.75Z" fill="url(#paint4_linear_3360_14232)"/>
</g>
<ellipse cx="1419.56" cy="304.526" rx="17.5625" ry="17.526" fill="url(#paint5_linear_3360_14232)"/>
</g>
<path d="M482.874 94.5L585.908 59.0586M585.908 59.0586L596.835 131.499L559.369 108.131L585.908 59.0586Z" stroke="#9EB3FF" stroke-width="0.5"/>
<ellipse cx="483.265" cy="94.1153" rx="8.19583" ry="8.1788" fill="#6481EB"/>
<ellipse cx="596.836" cy="131.112" rx="6.24444" ry="6.23147" fill="#6481EB"/>
<ellipse cx="557.807" cy="108.522" rx="6.24444" ry="6.23147" fill="#CC13B9"/>
<ellipse cx="585.908" cy="59.4513" rx="3.90278" ry="3.89467" fill="#6481EB"/>
<path fill-rule="evenodd" clip-rule="evenodd" d="M759.297 186.006C760.771 187.035 762.075 187.945 763.036 188.8L763.02 188.789C765.663 191.121 767.32 194.506 767.32 198.276C767.32 205.302 761.55 211.002 754.435 211.002C748.633 211.002 743.724 207.211 742.115 201.997C741.165 199.38 741.062 193.468 740.965 187.877C740.886 183.362 740.811 179.056 740.296 176.865C740.022 175.71 739.699 174.544 738.552 173.031C734.042 167.694 727.75 169.689 725.753 171.469C724.795 172.33 723.848 173.229 722.997 175.004C720.649 179.905 721.038 185.713 721.399 191.105C721.704 195.66 721.989 199.919 720.586 203.083C718.67 207.735 714.047 211.013 708.654 211.013C701.538 211.013 695.769 205.313 695.769 198.286C695.769 197.135 695.865 195.859 695.968 194.477L695.968 194.477L695.968 194.476L695.968 194.476V194.476V194.476C696.334 189.603 696.799 183.421 693.503 176.785C690.468 170.675 685.03 166.878 680.917 164.007C679.444 162.978 678.14 162.068 677.178 161.213C674.536 158.882 672.878 155.497 672.878 151.727C672.878 144.7 678.648 139 685.763 139C691.576 139 696.49 142.802 698.094 148.026C698.325 148.673 698.476 149.454 698.573 150.347L698.589 150.492C698.833 152.878 698.709 156.572 698.58 160.4V160.401V160.401V160.401V160.401V160.401V160.401V160.401C698.4 165.768 698.21 171.402 699.014 174.073C699.665 176.228 701 177.982 702.518 178.972C707.879 182.613 713.239 179.603 715.118 176.993C715.608 176.314 716.259 175.346 716.7 173.539C718.153 167.576 718.67 156.096 718.67 151.727C718.67 144.7 724.44 139 731.555 139C738.671 139 744.44 144.7 744.44 151.727C744.44 152.878 744.345 154.153 744.241 155.533V155.533V155.533V155.533V155.533V155.534V155.534V155.534V155.534V155.534V155.534C743.875 160.408 743.411 166.591 746.712 173.229C749.747 179.338 755.185 183.135 759.297 186.006ZM675.77 198.293C675.77 205.325 670 211.02 662.885 211.02C655.77 211.02 650 205.325 650 198.293C650 191.261 655.77 185.566 662.885 185.566C670 185.566 675.77 191.261 675.77 198.293ZM795.38 156.993H786.327C785.799 156.993 785.372 157.412 785.372 157.929V210.068C785.372 210.585 785.799 211.004 786.327 211.004H795.38C795.907 211.004 796.334 210.585 796.334 210.068V173.871L809.372 188.27C809.411 188.325 809.455 188.374 809.506 188.418L809.528 188.445L814.278 193.688L814.306 193.715L815.422 194.946C815.818 195.291 816.421 195.253 816.767 194.87L835.777 173.872V210.068C835.777 210.585 836.204 211.004 836.731 211.004H845.784C846.312 211.004 846.739 210.585 846.739 210.068V157.929C846.739 157.412 846.312 156.993 845.784 156.993H836.731C836.361 156.993 836.041 157.199 835.882 157.501L816.985 178.551C816.566 179.017 815.835 179.017 815.411 178.557L796.275 157.581L796.264 157.568L796.258 157.562C796.113 157.228 795.774 156.993 795.38 156.993ZM853.959 188.494C853.959 176.064 864.06 165.989 876.521 165.989C888.982 165.989 899.083 176.064 899.083 188.494C899.083 200.923 888.982 210.998 876.521 210.998C864.06 210.998 853.959 200.923 853.959 188.494ZM864.284 188.494C864.284 195.233 869.765 200.7 876.521 200.7C883.277 200.7 888.758 195.233 888.758 188.494C888.758 181.755 883.277 176.287 876.521 176.287C869.765 176.287 864.284 181.755 864.284 188.494ZM965.289 165.989C960.841 165.989 956.701 167.291 953.228 169.523V166.941C953.228 166.427 952.804 166.006 952.285 166.006H943.344C942.826 166.006 942.402 166.427 942.402 166.941V219.064C942.402 219.578 942.826 220 943.344 220H952.285C952.804 220 953.228 219.578 953.228 219.064V206.597C956.701 208.829 960.841 210.131 965.289 210.131C977.57 210.131 987.526 200.251 987.526 188.063C987.526 175.874 977.57 165.995 965.289 165.995V165.989ZM965.289 200.027C958.636 200.027 953.239 194.682 953.228 188.079V188.03C953.239 181.433 958.636 176.082 965.289 176.082C971.942 176.082 977.35 181.443 977.35 188.052C977.35 194.66 971.948 200.021 965.289 200.021V200.027ZM927.693 165.995H933.909V165.989C934.613 165.989 935.182 166.53 935.182 167.2V173.94C935.182 174.392 934.807 174.805 934.267 174.805H929.101C922.874 174.805 917.831 179.603 917.831 185.517V210.044C917.831 210.568 917.379 210.998 916.828 210.998H907.307C906.755 210.998 906.303 210.568 906.303 210.044V204.637V204.598V186.326C906.303 175.1 915.877 165.995 927.693 165.995ZM1015.05 163.419C1011.58 163.419 1008.31 164.294 1005.46 165.832V154.328C1005.46 153.814 1005.04 153.393 1004.53 153.393H995.684C995.171 153.393 994.752 153.814 994.752 154.328V183.493C994.752 183.545 994.75 183.598 994.749 183.65C994.747 183.701 994.746 183.751 994.746 183.799V199.998H994.752V206.467C994.752 206.982 995.171 207.403 995.684 207.403H1004.53C1005.04 207.403 1005.46 206.982 1005.46 206.467V183.4C1005.46 178.551 1009.38 174.014 1014.18 173.587C1019.87 173.089 1024.64 177.571 1024.64 183.175V206.489C1024.64 206.993 1025.04 207.398 1025.54 207.398H1034.45C1034.95 207.398 1035.36 206.987 1035.36 206.484V183.794C1035.36 172.536 1026.27 163.413 1015.05 163.413L1015.05 163.419ZM1267.86 202.272C1269.29 200.052 1270 197.438 1270 194.432C1270 191.772 1269.51 189.552 1268.54 187.771C1267.57 185.967 1266.17 184.406 1264.36 183.088C1262.57 181.746 1260.41 180.463 1257.88 179.237C1255.79 178.219 1254.05 177.329 1252.65 176.566C1251.27 175.803 1250.22 175.016 1249.52 174.207C1248.84 173.374 1248.5 172.357 1248.5 171.154C1248.5 170.136 1248.74 169.246 1249.22 168.483C1249.69 167.696 1250.39 167.095 1251.32 166.679C1252.25 166.239 1253.37 166.02 1254.68 166.02C1256.56 166.02 1258.41 166.286 1260.22 166.818C1262.03 167.326 1264.08 168.055 1266.37 169.003L1269.76 160.643C1267.2 159.486 1264.75 158.607 1262.39 158.006C1260.06 157.382 1257.6 157.069 1255.02 157.069C1251.58 157.069 1248.59 157.648 1246.06 158.804C1243.55 159.937 1241.61 161.579 1240.25 163.73C1238.89 165.881 1238.21 168.471 1238.21 171.501C1238.21 173.814 1238.6 175.803 1239.37 177.468C1240.16 179.11 1241.17 180.509 1242.39 181.665C1243.61 182.822 1244.9 183.805 1246.26 184.614C1247.62 185.4 1248.88 186.071 1250.03 186.626C1251.87 187.528 1253.51 188.372 1254.96 189.159C1256.43 189.945 1257.58 190.789 1258.42 191.691C1259.26 192.593 1259.68 193.68 1259.68 194.952C1259.68 195.993 1259.44 196.918 1258.96 197.727C1258.49 198.537 1257.72 199.173 1256.65 199.635C1255.61 200.098 1254.23 200.329 1252.51 200.329C1250.02 200.329 1247.51 199.901 1244.97 199.046C1242.44 198.19 1239.99 197.23 1237.64 196.166V206.157C1239 206.828 1240.42 207.395 1241.92 207.857C1243.43 208.297 1245.01 208.632 1246.64 208.863C1248.29 209.094 1249.98 209.21 1251.7 209.21C1255.59 209.21 1258.9 208.609 1261.61 207.406C1264.35 206.203 1266.43 204.492 1267.86 202.272ZM1217.44 166.02C1215.43 166.02 1213.64 166.424 1212.08 167.234C1210.54 168.02 1209.23 169.165 1208.17 170.668C1207.13 172.172 1206.34 173.987 1205.79 176.115C1205.25 178.242 1204.98 180.636 1204.98 183.296C1204.98 186.881 1205.41 189.945 1206.27 192.489C1207.15 195.01 1208.51 196.941 1210.34 198.282C1212.18 199.601 1214.54 200.26 1217.44 200.26C1219.46 200.26 1221.47 200.028 1223.49 199.566C1225.52 199.103 1227.73 198.444 1230.11 197.589V206.608C1227.91 207.533 1225.75 208.192 1223.62 208.586C1221.49 209.002 1219.1 209.21 1216.46 209.21C1211.34 209.21 1207.13 208.135 1203.82 205.984C1200.54 203.81 1198.11 200.78 1196.52 196.895C1194.94 192.986 1194.14 188.43 1194.14 183.226C1194.14 179.387 1194.65 175.872 1195.67 172.68C1196.69 169.489 1198.19 166.725 1200.16 164.389C1202.13 162.053 1204.56 160.249 1207.46 158.977C1210.35 157.705 1213.68 157.069 1217.44 157.069C1219.91 157.069 1222.38 157.393 1224.84 158.041C1227.33 158.665 1229.71 159.532 1231.98 160.643L1228.58 169.385C1226.72 168.483 1224.86 167.696 1222.98 167.026C1221.1 166.355 1219.25 166.02 1217.44 166.02ZM1184.63 193.766C1185.58 190.551 1186.05 186.989 1186.05 183.081C1186.05 177.808 1185.2 173.217 1183.51 169.308C1181.83 165.4 1179.25 162.37 1175.76 160.219C1172.3 158.069 1167.87 156.993 1162.48 156.993C1157.07 156.993 1152.61 158.069 1149.1 160.219C1145.6 162.37 1142.99 165.4 1141.29 169.308C1139.62 173.194 1138.78 177.762 1138.78 183.011C1138.78 186.943 1139.26 190.516 1140.21 193.731C1141.16 196.946 1142.6 199.709 1144.52 202.022C1146.47 204.335 1148.92 206.116 1151.89 207.365C1154.86 208.59 1158.36 209.203 1162.42 209.203C1166.47 209.203 1169.98 208.59 1172.94 207.365C1175.91 206.116 1178.36 204.335 1180.28 202.022C1182.23 199.709 1183.68 196.957 1184.63 193.766ZM1151.11 192.239C1150.25 189.672 1149.82 186.619 1149.82 183.081C1149.82 179.519 1150.25 176.466 1151.11 173.922C1151.99 171.355 1153.36 169.389 1155.22 168.025C1157.1 166.637 1159.52 165.943 1162.48 165.943C1166.94 165.943 1170.15 167.47 1172.1 170.523C1174.04 173.575 1175.02 177.762 1175.02 183.081C1175.02 186.619 1174.59 189.672 1173.73 192.239C1172.89 194.783 1171.54 196.749 1169.68 198.137C1167.83 199.501 1165.41 200.184 1162.42 200.184C1159.47 200.184 1157.07 199.501 1155.22 198.137C1153.36 196.749 1151.99 194.783 1151.11 192.239ZM1130.7 182.683C1130.7 188.396 1129.62 193.171 1127.47 197.01C1125.34 200.827 1122.25 203.706 1118.2 205.649C1114.15 207.568 1109.27 208.528 1103.56 208.528H1089.51V157.81H1105.09C1110.3 157.81 1114.82 158.758 1118.64 160.654C1122.47 162.528 1125.43 165.314 1127.54 169.015C1129.65 172.692 1130.7 177.248 1130.7 182.683ZM1119.76 182.961C1119.76 179.214 1119.22 176.138 1118.13 173.733C1117.07 171.304 1115.48 169.512 1113.38 168.356C1111.3 167.199 1108.72 166.621 1105.64 166.621H1100.03V199.647H1104.55C1109.69 199.647 1113.5 198.248 1115.99 195.449C1118.51 192.651 1119.76 188.488 1119.76 182.961ZM1058.43 148.866V215.479H1066.43V148.866H1058.43Z" fill="url(#paint6_linear_3360_14232)"/>
</g>
<defs>
<filter id="filter0_d_3360_14232" x="841" y="-466" width="972" height="970.781" filterUnits="userSpaceOnUse" color-interpolation-filters="sRGB">
<feFlood flood-opacity="0" result="BackgroundImageFix"/>
<feColorMatrix in="SourceAlpha" type="matrix" values="0 0 0 0 0 0 0 0 0 0 0 0 0 0 0 0 0 0 127 0" result="hardAlpha"/>
<feMorphology radius="62" operator="dilate" in="SourceAlpha" result="effect1_dropShadow_3360_14232"/>
<feOffset dx="-48" dy="20"/>
<feGaussianBlur stdDeviation="65.5"/>
<feComposite in2="hardAlpha" operator="out"/>
<feColorMatrix type="matrix" values="0 0 0 0 0.878431 0 0 0 0 0.890196 0 0 0 0 0.964706 0 0 0 1 0"/>
<feBlend mode="normal" in2="BackgroundImageFix" result="effect1_dropShadow_3360_14232"/>
<feBlend mode="normal" in="SourceGraphic" in2="effect1_dropShadow_3360_14232" result="shape"/>
</filter>
<filter id="filter1_f_3360_14232" x="1498" y="-47" width="319.036" height="318.756" filterUnits="userSpaceOnUse" color-interpolation-filters="sRGB">
<feFlood flood-opacity="0" result="BackgroundImageFix"/>
<feBlend mode="normal" in="SourceGraphic" in2="BackgroundImageFix" result="shape"/>
<feGaussianBlur stdDeviation="46" result="effect1_foregroundBlur_3360_14232"/>
</filter>
<filter id="filter2_f_3360_14232" x="1365.11" y="-52.5918" width="238.739" height="257.841" filterUnits="userSpaceOnUse" color-interpolation-filters="sRGB">
<feFlood flood-opacity="0" result="BackgroundImageFix"/>
<feBlend mode="normal" in="SourceGraphic" in2="BackgroundImageFix" result="shape"/>
<feGaussianBlur stdDeviation="35.5" result="effect1_foregroundBlur_3360_14232"/>
</filter>
<filter id="filter3_f_3360_14232" x="1238" y="-16" width="482.161" height="481.808" filterUnits="userSpaceOnUse" color-interpolation-filters="sRGB">
<feFlood flood-opacity="0" result="BackgroundImageFix"/>
<feBlend mode="normal" in="SourceGraphic" in2="BackgroundImageFix" result="shape"/>
<feGaussianBlur stdDeviation="78" result="effect1_foregroundBlur_3360_14232"/>
</filter>
<filter id="filter4_f_3360_14232" x="343.552" y="243.832" width="117" height="117" filterUnits="userSpaceOnUse" color-interpolation-filters="sRGB">
<feFlood flood-opacity="0" result="BackgroundImageFix"/>
<feBlend mode="normal" in="SourceGraphic" in2="BackgroundImageFix" result="shape"/>
<feGaussianBlur stdDeviation="29" result="effect1_foregroundBlur_3360_14232"/>
</filter>
<filter id="filter5_f_3360_14232" x="363" y="284.348" width="71" height="71" filterUnits="userSpaceOnUse" color-interpolation-filters="sRGB">
<feFlood flood-opacity="0" result="BackgroundImageFix"/>
<feBlend mode="normal" in="SourceGraphic" in2="BackgroundImageFix" result="shape"/>
<feGaussianBlur stdDeviation="13" result="effect1_foregroundBlur_3360_14232"/>
</filter>
<filter id="filter6_f_3360_14232" x="358" y="76" width="1190.58" height="358.017" filterUnits="userSpaceOnUse" color-interpolation-filters="sRGB">
<feFlood flood-opacity="0" result="BackgroundImageFix"/>
<feBlend mode="normal" in="SourceGraphic" in2="BackgroundImageFix" result="shape"/>
<feGaussianBlur stdDeviation="30.5" result="effect1_foregroundBlur_3360_14232"/>
</filter>
<linearGradient id="paint0_linear_3360_14232" x1="1553" y1="50.5" x2="1629.38" y2="172.573" gradientUnits="userSpaceOnUse">
<stop stop-color="#CEF3FF"/>
<stop offset="1" stop-color="#778FF5"/>
</linearGradient>
<linearGradient id="paint1_linear_3360_14232" x1="377" y1="234.347" x2="406.326" y2="323.349" gradientUnits="userSpaceOnUse">
<stop stop-color="#3FFFDC"/>
<stop offset="0.598958" stop-color="#2E88F5"/>
<stop offset="1" stop-color="#DF9CFF"/>
</linearGradient>
<linearGradient id="paint2_linear_3360_14232" x1="1670.49" y1="6" x2="1670.49" y2="94.7984" gradientUnits="userSpaceOnUse">
<stop offset="0.184094" stop-color="white"/>
<stop offset="1" stop-color="#C0D2FF"/>
</linearGradient>
<linearGradient id="paint3_linear_3360_14232" x1="1487.58" y1="137" x2="419.071" y2="329.133" gradientUnits="userSpaceOnUse">
<stop stop-color="#14B5E3"/>
<stop offset="0.465567" stop-color="#6B2887"/>
<stop offset="1" stop-color="#F51553"/>
</linearGradient>
<linearGradient id="paint4_linear_3360_14232" x1="606.799" y1="312.251" x2="720.751" y2="230.485" gradientUnits="userSpaceOnUse">
<stop stop-color="#FF3F74"/>
<stop offset="1" stop-color="#FF039A" stop-opacity="0"/>
</linearGradient>
<linearGradient id="paint5_linear_3360_14232" x1="1419.56" y1="287" x2="1419.56" y2="322.052" gradientUnits="userSpaceOnUse">
<stop stop-color="#FFF500"/>
<stop offset="1" stop-color="#FFB800"/>
</linearGradient>
<linearGradient id="paint6_linear_3360_14232" x1="1279.82" y1="168.359" x2="638.785" y2="159.504" gradientUnits="userSpaceOnUse">
<stop stop-color="#0073C7"/>
<stop offset="0.280527" stop-color="#6134E3"/>
<stop offset="0.558438" stop-color="#272DFF"/>
<stop offset="1" stop-color="#FF3F90"/>
</linearGradient>
</defs>
</svg>
