<svg width="240" height="240" viewBox="0 0 240 240" fill="none" xmlns="http://www.w3.org/2000/svg">
<path d="M8.91438 135.771C-7.02846 158.914 9.94295 182.057 52.5366 179.163C140.994 175.563 143.992 204.363 181.623 204.363C229.965 204.363 238.286 160.457 233.065 144.706C219.194 102.857 170.823 110.435 170.823 81.9628C170.823 41.849 130.194 20.2479 100.88 49.5626C71.5655 78.8773 58.8001 56.0571 39.1652 67.0485C20.743 85.4707 45.9429 96.1714 34.6287 114.686C27.9976 125.537 14.5715 127.559 8.91438 135.771Z" fill="#C3D1F8"/>
<ellipse cx="106.022" cy="208.991" rx="75.6" ry="6.17143" fill="#0E2336"/>
<ellipse cx="18.5936" cy="208.477" rx="6.68571" ry="2.57143" fill="#0E2336"/>
<path d="M95.424 54.7032C97.7154 54.4168 98.5269 52.197 98.6462 51.1229C100.317 49.6908 104.733 47.3995 109.029 49.6908C113.325 51.9822 105.807 61.8637 101.51 66.518C101.152 66.6374 100.365 66.5896 100.078 65.4439C99.7203 64.0118 100.794 62.2217 99.7203 61.5057C93.6339 60.7896 92.5598 55.0612 95.424 54.7032Z" fill="#DE433B" stroke="black"/>
<path d="M167.387 103.751C154.063 92.5336 133.375 83.702 121.533 82.6279H102.2C91.6978 83.2246 66.8536 91.2205 48.5227 115.566C25.609 145.998 36.3232 161.393 43.4837 166.406C49.2121 170.416 57.5661 169.986 61.027 169.27L85.7307 173.566C93.6073 174.282 117.094 176.073 148.027 177.505C186.694 179.295 195.286 167.122 195.286 154.591C195.286 141.461 185.673 119.147 167.387 103.751Z" fill="#F3B237" stroke="black" stroke-linecap="round"/>
<path d="M121.56 89.4303C121.918 84.4179 122.037 79.1669 121.56 76.8994L104.375 77.9735C104.375 79.2862 104.589 83.4155 105.449 89.4303C106.523 96.9488 109.729 99.813 113.683 99.813C117.622 99.813 121.139 95.32 121.56 89.4303Z" fill="#FA7A55" stroke="black"/>
<path d="M121.251 82.5V76.8994L104.375 77.3022C104.375 77.7945 105.321 78.5821 106.165 80.8377C107.22 83.6571 111.177 85.85 114.757 85.85C118.625 85.85 121.251 84.7469 121.251 82.5Z" fill="#E1532A"/>
<path d="M102.227 74.0356C99.9352 65.443 101.63 55.657 103.301 51.838C107.597 49.4512 117.908 44.6059 120.486 44.3195C123.708 43.9614 124.066 49.3318 125.14 61.8627C126.214 74.3936 119.77 80.122 115.473 81.1961C111.177 82.2701 104.375 82.0911 102.227 74.0356Z" fill="#FC9E79" stroke="black"/>
<path d="M109.387 57.5664C108.79 59.1178 107.597 62.6504 107.597 64.3689C107.597 66.0874 108.313 66.517 108.671 66.517C109.029 66.517 110.031 66.4454 111.177 66.159" stroke="black"/>
<path d="M106.523 72.6043C107.836 72.9624 111.177 73.2488 114.041 71.5303" stroke="black"/>
<path d="M114.041 69.3818C113.922 70.2172 113.97 72.0312 115.115 72.6041" stroke="black"/>
<path d="M124.285 65.7461L124.243 66.1243L124.596 66.2656C125.261 66.5313 126.348 66.7627 127.51 66.6198C128.687 66.4753 129.955 65.9436 130.911 64.6692C131.461 63.9349 131.775 63.3584 131.901 62.8787C132.034 62.3657 131.952 61.9597 131.732 61.6305C131.633 61.4819 131.516 61.3641 131.417 61.2722C131.358 61.2168 131.317 61.1814 131.282 61.1502C131.242 61.1152 131.208 61.0856 131.16 61.0393C131.036 60.9194 131.013 60.8623 131.011 60.7999C131.013 60.7985 131.028 60.7384 131.128 60.6011C131.241 60.4473 131.411 60.2595 131.636 60.0349C131.846 59.8247 132.089 59.5966 132.354 59.3476L132.401 59.303C132.682 59.0389 132.984 58.7543 133.281 58.4573C133.87 57.8679 134.467 57.2041 134.87 56.5082C135.273 55.8136 135.519 55.0188 135.288 54.2072C134.887 52.8046 134.068 51.9868 133.025 51.4402C132.207 51.0116 131.227 50.7414 130.233 50.4675C130.014 50.407 129.793 50.3462 129.574 50.2835C129.372 50.2257 129.277 50.1345 129.222 50.0344C129.158 49.9186 129.117 49.731 129.14 49.4395C129.188 48.8467 129.486 48.0238 129.973 47.0496C130.938 45.1194 132.527 42.8229 133.784 41.0263C135.148 39.0788 135.317 36.4041 134.614 34.0619C133.911 31.7184 132.299 29.5905 129.953 28.8084C127.711 28.0613 125.543 27.9659 123.105 28.7628C120.699 29.5494 118.057 31.1971 114.833 33.8796C114.507 34.0545 114.234 34.1191 113.997 34.1182C113.752 34.1172 113.51 34.0457 113.251 33.896C112.708 33.5816 112.158 32.965 111.48 32.1057C111.325 31.9099 111.166 31.7038 111.001 31.4899C109.753 29.8782 108.162 27.8214 105.706 26.3478C100.159 23.0193 95.2361 24.1597 92.6697 25.6263C91.3408 26.3857 89.0028 28.3384 87.6001 31.4017C86.1857 34.4905 85.74 38.6726 88.1694 43.8173C91.3409 50.5335 98.0522 52.0713 103.894 51.9354C106.826 51.8673 109.581 51.3791 111.646 50.887C112.679 50.6408 113.542 50.3928 114.171 50.1943C114.783 50.0015 115.208 49.8449 115.339 49.7794C115.586 49.6557 116.076 49.5827 116.479 49.717C116.668 49.7799 116.819 49.8821 116.926 50.029C117.032 50.1748 117.122 50.4024 117.122 50.7643C117.122 51.7089 117.398 54.1655 117.94 56.4729C118.212 57.6288 118.557 58.7737 118.981 59.685C119.192 60.1407 119.431 60.5543 119.702 60.8852C119.97 61.2133 120.295 61.491 120.686 61.6214C121.058 61.7456 121.454 61.7377 121.775 61.479C122.061 61.2488 122.186 60.8961 122.247 60.5821C122.37 59.9448 122.301 59.065 122.19 58.2176C122.111 57.6211 122.005 56.9957 121.908 56.4318C121.866 56.1835 121.826 55.9472 121.791 55.7305C121.732 55.3682 121.689 55.0635 121.67 54.8319C121.661 54.7157 121.659 54.6303 121.662 54.5718C121.662 54.5583 121.663 54.5478 121.664 54.5402C121.704 54.4716 121.74 54.4552 121.753 54.4512C121.762 54.448 121.832 54.4276 121.992 54.515C122.342 54.7062 122.912 55.3019 123.619 56.7163C124.14 57.7583 124.378 59.4535 124.444 61.2192C124.508 62.9634 124.402 64.6928 124.285 65.7461Z" fill="#DE433B" stroke="black"/>
<path d="M129.794 29.2828C134.091 30.7149 135.881 37.1593 133.375 40.7396C128.793 39.0215 126.573 39.6651 125.499 43.2429C125.327 44.6075 124.596 49.6769 123.708 47.9C122.276 45.0358 120.844 46.4679 120.486 47.184C120.128 47.9 121.56 55.7766 119.412 55.0605C118.338 54.7025 117.622 52.5544 117.622 50.7643C117.622 48.9741 115.831 48.9742 115.115 49.3322C114.399 49.6902 94.7079 56.4927 88.6215 43.6038C83.8877 33.5791 90.4117 27.4926 92.9178 26.0604C95.3505 24.6702 100.078 23.5542 105.449 26.7765C110.819 29.9989 111.893 36.0852 115.115 34.2951C121.56 28.9247 125.498 27.8507 129.794 29.2828Z" fill="#EA5E58"/>
<path d="M98.6462 26.4189C99.1236 26.2996 100.365 26.2757 101.51 27.135" stroke="white"/>
<path d="M172.041 114.136C175.86 117.239 184.143 125.807 186.72 135.259" stroke="black" stroke-linecap="round"/>
<path d="M187.436 137.406L188.51 140.27" stroke="black" stroke-linecap="round"/>
<path d="M189.585 143.135C189.943 143.851 190.73 145.641 191.017 147.073" stroke="black" stroke-linecap="round"/>
<path d="M101.152 82.6279C100.078 89.9078 100.938 104.539 112.967 104.825C124.997 105.112 126.811 90.8625 126.214 83.702" stroke="black" stroke-linecap="round"/>
<path d="M181.708 150.295C172.543 144.567 157.124 145.283 150.56 146.357L113.325 151.011V174.999C120.366 176.312 140.32 178.579 163.807 177.147C187.293 175.715 194.12 164.378 194.597 158.888C194.12 158.411 190.874 156.024 181.708 150.295Z" fill="#FA7A55"/>
<path d="M182.571 146.057C182.983 157.165 168.114 164.571 160.629 165.085C133.2 170.4 82.7658 171.771 81.9429 151.2C80.9144 125.485 99.9429 87.4281 100.971 94.1138C101.794 99.4624 105.086 102.857 107.657 103.885C108.686 104.571 111.257 105.84 115.371 105.428C120.514 104.914 128.893 96.2924 132.343 95.1424C143.143 91.5424 146.743 98.7424 149.829 101.828C152.914 104.914 158.572 105.428 164.743 111.6C170.914 117.771 182.057 132.171 182.571 146.057Z" fill="white" fill-opacity="0.4"/>
<path d="M89.6956 132.035C86.8314 156.954 69.6462 167.241 61.4116 169.27C58.261 170.36 52.2223 169.366 49.5968 168.912C49.5968 159.962 49.5968 141.702 74.3005 106.257C83.5014 93.0561 100.436 76.5413 101.868 76.8993C103.014 77.1857 101.63 79.8828 100.794 81.1956C101.51 80.4795 107.597 78.6894 109.387 79.4055C110.724 79.9401 107.798 80.9323 105.849 81.4503C110.89 80.1934 112.224 81.5627 111.177 81.9117C110.318 82.1981 106.523 83.2244 104.733 84.0598C107.597 83.3438 109.745 83.3438 110.461 84.0598C110.962 84.5606 108.763 85.2801 107.166 85.6925C110.494 84.9766 110.696 86.5865 108.671 86.924C106.523 87.282 102.227 91.2203 99.3623 94.8006C96.4981 98.3808 93.2759 100.887 89.6956 132.035Z" fill="#FA7A55" stroke="black" stroke-linecap="round"/>
<path d="M140.535 114.136C143.28 118.671 149.128 131.464 150.56 146.358C155.692 145.403 168.175 144.425 177.054 148.148C185.933 151.872 192.449 156.86 194.597 158.889" stroke="black" stroke-linecap="round"/>
<path d="M169.886 149.657L165.086 149.143" stroke="white" stroke-linecap="round"/>
<path d="M107.455 57.2081C107.455 57.4384 107.281 57.752 106.768 58.0368C106.273 58.3122 105.554 58.4982 104.733 58.4982C103.911 58.4982 103.193 58.3122 102.697 58.0368C102.184 57.752 102.01 57.4384 102.01 57.2081C102.01 56.9778 102.184 56.6642 102.697 56.3794C103.193 56.104 103.911 55.918 104.733 55.918C105.554 55.918 106.273 56.104 106.768 56.3794C107.281 56.6642 107.455 56.9778 107.455 57.2081Z" fill="#D9D9D9" stroke="black"/>
<path d="M117.48 57.2081C117.48 57.4384 117.306 57.752 116.793 58.0368C116.297 58.3122 115.579 58.4982 114.757 58.4982C113.936 58.4982 113.217 58.3122 112.722 58.0368C112.209 57.752 112.035 57.4384 112.035 57.2081C112.035 56.9778 112.209 56.6642 112.722 56.3794C113.217 56.104 113.936 55.918 114.757 55.918C115.579 55.918 116.297 56.104 116.793 56.3794C117.306 56.6642 117.48 56.9778 117.48 57.2081Z" fill="#D9D9D9" stroke="black"/>
<ellipse cx="104.733" cy="57.2081" rx="1.07408" ry="1.79013" fill="black"/>
<ellipse cx="114.757" cy="57.2081" rx="1.07408" ry="1.79013" fill="black"/>
<path d="M108.671 92.6533C108.79 94.3241 109.888 97.7373 113.325 98.0237" stroke="black"/>
<path d="M113.325 104.826V174.999" stroke="black" stroke-linecap="round"/>
<circle cx="108.313" cy="91.5797" r="0.358025" fill="black"/>
<path d="M102.226 27.4922C104.017 28.2082 107.167 29.9268 111.177 35.3687C113.683 38.2329 116.547 36.0848 118.696 33.9366C120.844 31.7885 124.424 29.6403 126.93 29.9984" stroke="white"/>
<path d="M128.004 30.3564C128.482 30.3564 129.508 30.4997 129.794 31.0725" stroke="white"/>
<ellipse cx="95.5614" cy="27.3565" rx="1.79013" ry="0.716051" transform="rotate(-20.4344 95.5614 27.3565)" fill="white"/>
<path d="M91.4857 28.9247C92.0586 28.6382 92.6147 28.6795 92.5598 29.2826C92.4405 30.5954 90.0536 31.0728 90.4116 33.221C90.6238 34.4944 91.4857 36.8012 90.4116 37.1593C89.8165 37.3578 88.2635 36.8013 88.2635 34.2951C88.2635 31.789 90.7697 29.2827 91.4857 28.9247Z" fill="white"/>
<path d="M93.0857 84.3426C96.3772 80.6397 100.4 77.9997 102 77.1426L101.486 79.1997L100.457 80.7426L101.486 81.7711C90.7886 90.4111 80.7429 121.028 76.8 135.257C73.7143 141.6 64.7657 154.491 53.6572 155.314C39.7715 156.343 32.5715 139.885 48 116.743C60.3429 98.2283 83.2 87.4283 93.0857 84.3426Z" fill="white" fill-opacity="0.4"/>
<path d="M73.7143 112.114C68.8213 119.275 64.9203 126.737 61.7697 135.616" stroke="white" stroke-linecap="round"/>
<path d="M78.8571 104.4C77.8286 104.915 75.8875 108.155 75.2571 109.543" stroke="white" stroke-linecap="round"/>
<path d="M60.6955 137.765C60.2182 139.197 59.2634 142.133 59.2634 142.419" stroke="black"/>
<path d="M40.2858 119.314C19.2 144 31.4008 156.967 31.4008 157.372" stroke="black"/>
<path d="M164.743 96.6855C172.457 99.7715 180.686 108 182.743 113.143" stroke="black"/>
<path d="M185.829 156.857C183.543 155.143 177.84 151.508 173.314 150.686" stroke="white" stroke-linecap="round"/>
<path d="M87.3657 93.7863C84.6581 94.7325 81.307 99.9625 79.97 102.459C79.2178 103.864 83.7305 101.277 84.4826 98.9113C84.7681 98.0137 86.4047 96.9401 87.3657 96.5459C89.3714 95.7574 90.0733 92.8402 87.3657 93.7863Z" fill="white"/>
<path d="M49.6932 203.917C48.7988 202.252 50.0052 200.234 51.8957 200.234H161.177C163.068 200.234 164.274 202.252 163.38 203.917L162.183 206.146C161.747 206.957 160.901 207.463 159.98 207.463H53.0925C52.1718 207.463 51.3256 206.957 50.89 206.146L49.6932 203.917Z" fill="#7BADF1" stroke="black"/>
<path d="M51.6688 137.045C51.5892 135.612 52.7297 134.406 54.1649 134.406H158.908C160.343 134.406 161.484 135.612 161.404 137.045L157.623 205.102C157.55 206.427 156.454 207.463 155.127 207.463H57.9459C56.6191 207.463 55.5233 206.427 55.4497 205.102L51.6688 137.045Z" fill="#7BADF1" stroke="black"/>
<path d="M54.7572 140.133C54.6764 138.699 55.8172 137.492 57.2533 137.492H155.82C157.256 137.492 158.397 138.699 158.316 140.133L154.768 203.047C154.694 204.371 153.598 205.406 152.272 205.406H60.8007C59.4746 205.406 58.3793 204.371 58.3046 203.047L54.7572 140.133Z" fill="#5B98FF" stroke="black"/>
<path d="M62.8222 204.878H99.8508H152.459C153.526 204.878 154.406 204.04 154.457 202.975L157.451 141.106C140.479 144.192 136.365 160.027 125.051 168.364C101.908 185.416 86.9937 174.021 71.565 180.192C55.4438 186.641 58.8793 199.906 62.8222 204.878Z" fill="#286ED8"/>
<path d="M58.8249 148.807C58.7044 143.688 63.9426 139.03 67.2837 138.804C72.9261 137.849 56.2553 142.109 65.4742 157.664C68.5185 162.801 68.3175 167.388 67.7199 168.995C67.3215 170.066 65.196 174.101 62.9535 172.449C60.7111 170.797 64.8952 167.62 63.2679 161.467C62.2803 157.733 58.9755 155.205 58.8249 148.807Z" fill="white"/>
<ellipse cx="62.3079" cy="175.563" rx="1.02857" ry="1.54286" fill="white"/>
<circle cx="12.3429" cy="12.3429" r="12.3429" transform="matrix(-1 0 0 1 118.971 161.485)" fill="white" fill-opacity="0.2"/>
<path d="M113.642 187.575C111.538 188.651 109.154 189.258 106.629 189.258C98.1077 189.258 91.2001 182.35 91.2001 173.829C91.2001 165.308 98.1077 158.4 106.629 158.4C115.15 158.4 122.057 165.308 122.057 173.829L124.629 171.258" stroke="white" stroke-width="2" stroke-linecap="round" stroke-linejoin="round"/>
<path d="M121.543 177.942C121.543 177.942 121.122 180 120 182.057C118.318 185.142 116.4 186.171 116.4 186.171" stroke="white" stroke-width="2" stroke-linecap="round" stroke-linejoin="round"/>
<path d="M152.308 195.62L151.936 200.459C151.856 201.501 150.987 202.306 149.942 202.306H140.479" stroke="white" stroke-linecap="round"/>
<path d="M100.664 168.686C100.664 168.686 102.855 171.329 106.569 171.329C110.525 171.329 112.595 168.686 112.595 168.686V175.063H100.664V168.686Z" fill="url(#paint0_linear_2086_12622)"/>
<path d="M98.5455 174.9C98.4652 174.82 98.4652 174.69 98.5455 174.609L100 173.155L101.6 174.755L100 176.355L98.5455 174.9Z" fill="#0066FF" fill-opacity="0.4"/>
<path d="M99.0598 174.9C98.9795 174.82 98.9795 174.69 99.0598 174.609L100.005 173.664L101.096 174.755L100.005 175.846L99.0598 174.9Z" fill="#0066FF"/>
<path fill-rule="evenodd" clip-rule="evenodd" d="M101.777 172.473C102.345 172.107 102.721 171.469 102.721 170.743C102.721 169.607 101.8 168.686 100.664 168.686C99.5276 168.686 98.6066 169.607 98.6066 170.743C98.6066 171.467 98.9811 172.104 99.547 172.471C99.7335 172.648 99.9758 172.937 100.011 173.266C100.069 173.81 99.8366 174.137 99.8366 174.137H99.8413C99.712 174.309 99.6353 174.523 99.6353 174.755C99.6353 174.987 99.7123 175.201 99.842 175.373C99.859 175.407 100.013 175.727 99.962 176.241C99.9275 176.59 99.6765 176.894 99.5004 177.068C98.9607 177.439 98.6068 178.06 98.6068 178.764C98.6068 179.901 99.5278 180.822 100.664 180.822C101.8 180.822 102.721 179.901 102.721 178.764C102.721 178.058 102.365 177.435 101.823 177.065C101.647 176.891 101.399 176.588 101.364 176.241C101.315 175.747 101.455 175.432 101.482 175.379C101.614 175.205 101.692 174.989 101.692 174.755C101.692 174.523 101.616 174.309 101.487 174.137H101.49C101.49 174.137 101.257 173.81 101.315 173.266C101.35 172.938 101.591 172.65 101.777 172.473Z" fill="white"/>
<path d="M114.712 174.9C114.792 174.82 114.792 174.69 114.712 174.609L113.257 173.155L111.657 174.755L113.257 176.355L114.712 174.9Z" fill="#FD1569" fill-opacity="0.4"/>
<path d="M114.115 174.9C114.195 174.82 114.195 174.69 114.115 174.609L113.17 173.664L112.079 174.755L113.17 175.846L114.115 174.9Z" fill="#FD1569"/>
<path fill-rule="evenodd" clip-rule="evenodd" d="M113.71 172.47C114.276 172.104 114.65 171.467 114.65 170.743C114.65 169.607 113.729 168.686 112.593 168.686C111.457 168.686 110.536 169.607 110.536 170.743C110.536 171.469 110.913 172.107 111.481 172.473C111.667 172.651 111.907 172.939 111.942 173.266C112 173.81 111.768 174.137 111.768 174.137H111.771C111.641 174.309 111.565 174.523 111.565 174.755C111.565 174.99 111.643 175.206 111.776 175.379C111.803 175.436 111.942 175.75 111.893 176.241C111.859 176.588 111.611 176.89 111.435 177.064C110.892 177.434 110.536 178.058 110.536 178.764C110.536 179.901 111.457 180.822 112.593 180.822C113.729 180.822 114.65 179.901 114.65 178.764C114.65 178.06 114.296 177.439 113.757 177.068C113.581 176.894 113.33 176.59 113.295 176.241C113.244 175.727 113.398 175.407 113.415 175.373C113.545 175.201 113.622 174.987 113.622 174.755C113.622 174.523 113.545 174.309 113.416 174.137H113.421C113.421 174.137 113.188 173.81 113.246 173.266C113.281 172.937 113.524 172.648 113.71 172.47Z" fill="white"/>
<ellipse cx="106.629" cy="175.474" rx="1.6457" ry="1.6457" fill="white"/>
<path d="M34.3047 192.978L33.9574 180.716L40.9744 190.87L34.3047 192.978Z" fill="#40DDFF"/>
<path d="M45.3051 185.377L33.9574 180.716L40.9744 190.87L45.3051 185.377Z" fill="#27BBDC"/>
<path d="M34.8894 193.825L46.8218 199.332L41.5591 191.716L34.8894 193.825Z" fill="#27BBDC"/>
<path d="M45.8898 186.222L46.8218 199.331L41.5591 191.715L45.8898 186.222Z" fill="#1898B4"/>
<path d="M155.471 204.819C155.471 203.991 156.143 203.319 156.971 203.319H191.542C191.773 203.319 191.91 203.578 191.78 203.768C190.982 204.945 190.938 206.477 191.669 207.696L191.797 207.908L192.226 207.651L191.797 207.908C191.95 208.165 191.766 208.491 191.467 208.491H156.971C156.143 208.491 155.471 207.819 155.471 206.991V204.819Z" fill="#5E79A3" stroke="black"/>
<path d="M160.707 199.485C160.707 198.657 161.378 197.985 162.207 197.985H187.737C188.02 197.985 188.22 198.263 188.131 198.532C187.689 199.856 187.689 201.287 188.131 202.61C188.22 202.879 188.02 203.157 187.737 203.157H162.207C161.378 203.157 160.707 202.485 160.707 201.657V199.485Z" fill="#7B155F" stroke="black"/>
<path d="M191.385 197.066L190.969 197.344L191.385 197.066C190.309 195.452 190.309 193.349 191.385 191.734L190.969 191.457L191.385 191.734C191.647 191.341 191.365 190.814 190.893 190.814H169.435C168.607 190.814 167.935 191.486 167.935 192.314V196.486C167.935 197.314 168.607 197.986 169.435 197.986H190.893C191.365 197.986 191.647 197.459 191.385 197.066Z" fill="#7480BF" stroke="black"/>
<circle cx="193.543" cy="96.1715" r="4.62857" fill="#D4DEF5"/>
<circle cx="211.543" cy="80.2288" r="9.25714" fill="#D4DEF5"/>
<defs>
<linearGradient id="paint0_linear_2086_12622" x1="106.629" y1="168.686" x2="106.629" y2="175.063" gradientUnits="userSpaceOnUse">
<stop stop-color="white"/>
<stop offset="1" stop-color="white" stop-opacity="0"/>
</linearGradient>
</defs>
</svg>
