<svg width="240" height="240" viewBox="0 0 240 240" fill="none" xmlns="http://www.w3.org/2000/svg">
<mask id="mask0_2086_13036" style="mask-type:alpha" maskUnits="userSpaceOnUse" x="0" y="0" width="240" height="240">
<rect width="240" height="240" fill="#D9D9D9"/>
</mask>
<g mask="url(#mask0_2086_13036)">
<path d="M173.105 69.4185C98.6873 17.3031 53.6352 22.0738 45.228 41.9778C27.3154 84.3861 110.671 84.0755 47.7191 116.816C15.1186 133.771 -0.799663 166.201 18.1051 197.633C35.2473 226.134 68.1185 218.39 94.9852 213.606C148.226 204.127 174.099 236.557 209.427 213.606C244.755 190.656 235.8 113.324 173.105 69.4185Z" fill="#A6C3FA"/>
<ellipse cx="133" cy="190.357" rx="53" ry="9" fill="#151515"/>
<ellipse cx="51" cy="187.357" rx="30" ry="3" fill="#151515"/>
<path d="M169.144 188.061L169.19 188.029L169.218 187.98C175.413 176.93 180.694 158.28 179.25 130.844C178.498 116.565 174.99 104.762 168.32 96.3962C161.644 88.0216 151.822 83.1195 138.51 82.6075C131.967 82.3559 124.183 83.9902 117.66 86.499C114.398 87.7539 111.442 89.2307 109.11 90.8064C106.784 92.3778 105.052 94.0655 104.273 95.7526C103.513 97.3991 102.883 99.5115 102.258 101.855C102.036 102.691 101.814 103.555 101.586 104.44C101.173 106.047 100.743 107.722 100.26 109.414C98.7608 114.659 96.7736 119.984 93.3172 123.687L93.2143 123.797L93.2639 123.939C94.5899 127.752 95.9572 133.696 95.7501 139.874C95.5431 146.052 93.7638 152.438 88.8268 157.177L88.6428 157.354L88.8232 157.534C89.225 157.936 89.9079 158.387 90.7654 158.844C91.628 159.303 92.6848 159.776 93.849 160.216C96.0796 161.06 98.7194 161.791 101.161 162.072L92.7638 186.275L92.7093 186.432L92.8329 186.543C93.8943 187.496 95.7018 188.353 98.0408 189.114C100.388 189.877 103.298 190.552 106.59 191.127C113.174 192.278 121.306 193.034 129.555 193.295C137.803 193.555 146.175 193.321 153.24 192.488C156.773 192.072 159.983 191.506 162.689 190.775C165.392 190.046 167.609 189.149 169.144 188.061Z" fill="#795BCF" stroke="black" stroke-width="0.5"/>
<path d="M96.5 175.857L93 186.357C94.5 188.857 120 193.857 136.5 193.357C160.404 192.633 164.471 190.373 168.952 187.884L169 187.857C174.5 178.857 178.5 159.857 179 144.357C179 140.857 180.683 116.357 171.5 101.857C160.961 85.2164 148.5 84.3574 138 83.3574C138.167 83.5241 138.4 83.9574 138 88.3574C137.6 92.7574 135.167 96.1908 134 97.3574C134.167 98.0241 135.6 99.2574 140 98.8574C145.5 98.3574 146 90.8574 148.5 90.8574C151 90.8574 164.5 95.3574 171.5 115.857C178.582 136.596 176 147.357 173.5 156.357C171 165.357 165.453 166.602 163.5 176.857C161.5 187.357 143.5 185.357 135.5 183.357C113.5 176.957 100.667 175.691 96.5 175.857Z" fill="#6648BC"/>
<path d="M136.146 166.106C142.146 167.106 156.503 167.557 164.503 160.357C174.503 151.357 175.003 144.357 175.003 138.357" stroke="black" stroke-width="0.5"/>
<path d="M153 154.858C147.4 155.658 144 149.858 143 146.858C143.4 158.058 139 164.024 136.5 165.858C138.833 166.358 145.6 167.258 156 164.858C171 158.858 175.333 144.691 175 138.358C174.833 136.191 173.7 133.458 170.5 139.858C166.5 147.858 160 153.858 153 154.858Z" fill="#6648BC"/>
<path d="M151.5 107.857C152.167 111.524 152.4 119.957 148 124.357" stroke="white" stroke-width="0.5"/>
<path d="M139.458 100.171L139.46 100.169C140.779 98.7574 141.97 96.2998 142.97 93.2295C143.973 90.1511 144.794 86.4276 145.354 82.458C146.475 74.523 146.565 65.5718 144.986 58.7906C143.688 53.2124 141.141 48.5773 137.136 45.7332C133.125 42.8853 127.692 41.8612 120.683 43.429C118.422 43.9348 116.721 45.9394 115.522 48.674C114.319 51.4176 113.595 54.9534 113.318 58.636C113.041 62.3205 113.21 66.1671 113.806 69.5382C114.401 72.9016 115.425 75.8236 116.88 77.6317C118.033 79.0641 119.409 79.7406 121.091 79.8962C122.672 80.0424 124.519 79.7284 126.697 79.1779L126.553 80.5092C126.222 82.7729 125.925 86.6362 125.858 90.332C125.824 92.1818 125.848 93.994 125.955 95.5461C126.062 97.0906 126.252 98.4021 126.562 99.2354C127.16 100.845 128.592 102.948 130.799 103.707C133.038 104.477 135.964 103.833 139.458 100.171Z" fill="#F3A186" stroke="black" stroke-width="0.5"/>
<path d="M126.851 98.6515C134.481 102.496 138.98 94.937 140.463 89.0625C147.51 61.1594 139.601 62.9846 137.958 61.1302C135.555 50.8113 142.218 47.2682 144.797 58.3504C147.936 71.8316 144.452 94.0209 139.332 99.5012C132.414 106.751 128.019 101.796 126.851 98.6515Z" fill="#DB8062"/>
<path d="M124.979 57.5411C125.916 57.4817 126.765 57.2635 127.383 56.9487C127.692 56.7914 127.953 56.6045 128.137 56.3909C128.323 56.1762 128.439 55.9209 128.422 55.6403C128.404 55.3598 128.256 55.1213 128.045 54.9316C127.835 54.743 127.552 54.5906 127.226 54.4736C126.574 54.2394 125.703 54.1303 124.766 54.1897C123.829 54.2491 122.979 54.4673 122.361 54.7821C122.053 54.9393 121.791 55.1263 121.607 55.3399C121.422 55.5546 121.305 55.8099 121.323 56.0905C121.341 56.371 121.489 56.6095 121.7 56.7992C121.909 56.9878 122.193 57.1402 122.518 57.2571C123.171 57.4914 124.042 57.6005 124.979 57.5411Z" fill="white" stroke="black" stroke-width="0.5"/>
<path d="M113.483 59.0476C114.327 58.9941 115.093 58.78 115.65 58.4658C116.19 58.1611 116.612 57.7127 116.577 57.1689C116.543 56.6252 116.068 56.2336 115.494 55.9996C114.901 55.7582 114.115 55.6427 113.27 55.6962C112.426 55.7497 111.66 55.9638 111.103 56.278C110.563 56.5826 110.142 57.0311 110.176 57.5748C110.211 58.1186 110.685 58.5102 111.26 58.7442C111.852 58.9855 112.639 59.1011 113.483 59.0476Z" fill="white" stroke="black" stroke-width="0.5"/>
<circle cx="123.919" cy="56.0884" r="1.5" transform="rotate(6.18457 123.919 56.0884)" fill="black"/>
<circle cx="112.772" cy="57.5728" r="1.5" transform="rotate(6.18457 112.772 57.5728)" fill="black"/>
<path d="M136.276 72.0124C133.213 75.8572 128.398 78.339 127 78.8582L126.425 84.021C135.534 83.4993 136.427 73.7053 136.276 72.0124Z" fill="#D96B46"/>
<path d="M145.268 79.5338L145.736 79.6732C145.898 79.3806 146.073 79.0597 146.258 78.7185C147.032 77.2963 147.998 75.5224 149.058 73.9822C149.715 73.028 150.399 72.1758 151.087 71.5585C151.78 70.9374 152.445 70.5814 153.065 70.5603C154.024 70.5278 154.69 70.1105 155.027 69.4506C155.357 68.8062 155.348 67.9782 155.073 67.1552C154.523 65.5046 152.873 63.7626 150.329 63.2266C149.732 63.1009 149.383 62.9256 149.199 62.7414C149.032 62.574 148.985 62.3833 149.04 62.1424C149.099 61.8838 149.276 61.5717 149.571 61.2147C149.862 60.8614 150.252 60.4829 150.709 60.0915C152.032 58.9581 153.85 57.7681 155.31 56.8123C155.879 56.4398 156.394 56.1028 156.804 55.8187C160.988 52.9176 162.786 46.823 160.715 41.1671C158.637 35.4915 152.686 30.287 141.432 29.0675C138.238 28.7214 135.93 27.8194 134.054 26.643C132.214 25.4899 130.781 24.0696 129.317 22.6191C129.283 22.5853 129.249 22.5515 129.215 22.5177C127.72 21.0365 126.185 19.532 124.166 18.3089C122.143 17.0833 119.644 16.145 116.217 15.7737C106.861 14.7599 99.6091 21.9 96.4493 30.0373C94.8667 34.1129 94.2955 38.4692 95.0045 42.2308C95.7145 45.9975 97.7126 49.1796 101.27 50.8545C108.359 54.192 113.15 53.577 116.959 51.8691C118.672 51.1014 120.181 50.1146 121.597 49.1894C121.745 49.0926 121.892 48.9964 122.039 48.9012C123.591 47.891 125.035 46.9971 126.558 46.5477C129.636 45.6396 132.152 45.9373 133.688 47.1143C135.207 48.2778 135.848 50.3643 135.045 53.229C134.365 55.6564 135.046 57.8079 135.883 59.3388C136.302 60.105 136.763 60.7205 137.119 61.1449C137.297 61.3572 137.449 61.5222 137.558 61.6347C137.612 61.6909 137.655 61.7341 137.685 61.7636C137.7 61.7783 137.712 61.7896 137.72 61.7974L137.73 61.8065L137.733 61.809L137.733 61.8098L137.734 61.81C137.734 61.8101 137.734 61.8102 137.904 61.6269L137.734 61.8102L138.138 61.5402C138.138 61.54 138.138 61.54 138.138 61.54L138.138 61.5399L138.138 61.5392L138.136 61.534L138.128 61.5104C138.121 61.4889 138.11 61.4559 138.096 61.4122C138.07 61.3248 138.033 61.1946 137.994 61.0274C137.917 60.6927 137.831 60.211 137.803 59.6279C137.746 58.4619 137.916 56.8959 138.822 55.2874C139.088 54.8149 139.727 54.3403 140.505 54.3064C141.262 54.2734 142.208 54.6589 143.09 56.0123C143.977 57.3732 144.784 59.6935 145.237 63.466C145.69 67.2346 145.786 72.433 145.268 79.5338Z" fill="#8C1616" stroke="black" stroke-width="0.5"/>
<path d="M153.058 70.3103C150.231 70.4064 147.185 76.5472 145.518 79.5518C147.594 51.11 139.832 52.9862 138.605 55.1646C136.737 58.4826 137.905 61.6268 137.905 61.6268C137.905 61.6268 133.974 57.9822 135.287 53.2963C136.927 47.4389 132.723 44.4682 126.488 46.3077C120.236 48.1526 113.211 57.4421 101.377 50.6281C115.672 48.6561 110.113 34.9776 128.505 36.9707C141.43 38.3712 139.853 47.2957 145.149 45.8153C152.929 43.6407 164.818 49.9583 156.662 55.6131C153.785 57.6072 145.361 62.4354 150.278 63.4711C155.195 64.5069 156.591 70.1903 153.058 70.3103Z" fill="#5E0909"/>
<path d="M108.693 20.2392C111.192 18.8336 117.606 16.8799 123.27 20.31" stroke="white" stroke-width="0.5" stroke-linecap="round"/>
<path d="M97.7135 35.4173C97.4138 28.8443 102.769 24.156 104.447 22.2938C105.751 21.9243 102.356 24.6789 101.551 29.1904C100.746 33.702 98.0652 38.0103 97.7135 35.4173Z" fill="white"/>
<circle cx="98.4229" cy="40.7525" r="1.5" transform="rotate(6.18457 98.4229 40.7525)" fill="white"/>
<path d="M118.571 60.4652C118.612 62.443 117.941 65.5436 117.636 66.0248C116.953 67.101 118.532 68.6972 120.472 67.173" stroke="black" stroke-width="0.5"/>
<path d="M119.5 72.3574C120.5 72.5241 122.9 72.5574 124.5 71.3574" stroke="black" stroke-width="0.5"/>
<path d="M122.013 85.3574C121.837 91.8452 123.387 105.128 131 106.357" stroke="black" stroke-width="0.5"/>
<path d="M81.5 62.3579C79.5 61.9579 78 64.1912 77.5 65.3579L96.5 69.8579C92.3333 67.5246 83.5 62.7579 81.5 62.3579Z" fill="white" stroke="black" stroke-width="0.5"/>
<path d="M112 62.4048C114 62.0048 115.5 64.2381 116 65.4048L96.5 69.8574C100.667 67.5241 110 62.8048 112 62.4048Z" fill="white" stroke="black" stroke-width="0.5"/>
<path d="M85.275 94.9665L85.3229 95.0654L85.4281 95.097L100.428 99.597L100.471 99.61L100.517 99.607C103.035 99.4391 107.824 98.6611 112.529 97.6268C117.224 96.5946 121.883 95.2969 124.119 94.0773L124.256 94.0027L124.249 93.8472C124.091 90.1305 123.167 84.6107 121.774 79.2717C120.383 73.9386 118.515 68.7478 116.453 65.7086C115.959 64.9795 115.059 64.7079 114.233 64.9216C107.919 66.554 100.261 68.9165 97.4908 69.7834C96.8603 69.9807 96.1787 69.946 95.5643 69.6942C89.4168 67.1756 83.1756 65.6253 78.3057 64.8109C77.499 64.6759 76.7962 65.3461 76.8885 66.1574C77.1996 68.893 78.0287 75.4713 79.259 79.9241C80.104 82.9822 81.6098 86.7453 82.9005 89.737C83.5466 91.2344 84.14 92.5414 84.5719 93.474C84.7879 93.9404 84.9635 94.3133 85.0852 94.5696C85.1461 94.6978 85.1935 94.7969 85.2256 94.864L85.2623 94.9403L85.2717 94.9598L85.2741 94.9648L85.2748 94.9661L85.2749 94.9664C85.275 94.9665 85.275 94.9665 85.5 94.8575L85.275 94.9665Z" fill="#24C2EA" stroke="black" stroke-width="0.5"/>
<path d="M114.457 79.6455C111.957 96.0441 92.1062 89.3815 84.9783 87.6648C84.2791 87.4964 83.7066 88.1332 83.8918 88.8282L85.4986 94.8578L100.499 99.3578C105.499 99.0244 119.598 96.258 123.998 93.858C123.692 86.6485 120.477 72.5494 116.536 66.2954C116.121 65.6352 115.211 65.8135 115.062 66.5795C114.213 70.9511 114.428 77.6439 114.486 79.0803C114.494 79.2671 114.485 79.4607 114.457 79.6455Z" fill="#1C9CBC"/>
<path d="M113.061 79.6148L113.031 79.6073L113 79.6073C112.764 79.6073 112.556 79.6597 112.39 79.7773C112.222 79.8964 112.121 80.0648 112.069 80.2503C111.969 80.6046 112.037 81.0527 112.16 81.4878C112.279 81.9092 112.463 82.3616 112.66 82.7832C110.114 80.6291 108.054 79.588 106.612 79.2997C105.803 79.1378 105.143 79.2048 104.71 79.503C104.252 79.8183 104.114 80.343 104.257 80.9179C104.282 81.0161 104.346 81.1083 104.403 81.1806C104.466 81.2605 104.549 81.3492 104.645 81.4434C104.837 81.6323 105.097 81.8593 105.4 82.1078C105.963 82.5705 106.687 83.1194 107.42 83.6578C107.359 83.6214 107.298 83.5851 107.238 83.5489C106.912 83.3546 106.594 83.1618 106.283 82.9739C105.453 82.4711 104.68 82.0034 103.993 81.6367C103.519 81.384 103.077 81.1745 102.676 81.0319C102.277 80.8901 101.901 80.8082 101.565 80.8264C101.22 80.8451 100.914 80.97 100.681 81.2354C100.455 81.493 100.319 81.8591 100.253 82.322C100.234 82.4563 100.3 82.5715 100.344 82.6365C100.396 82.7135 100.468 82.7932 100.55 82.8726C100.715 83.0327 100.952 83.2221 101.235 83.4295C101.802 83.8457 102.584 84.355 103.429 84.8802C103.603 84.9883 103.78 85.0973 103.958 85.2063C103.518 85.054 103.102 84.927 102.711 84.8228C101.196 84.4191 100.037 84.3545 99.2671 84.509C98.8841 84.586 98.5725 84.7224 98.369 84.9239C98.1537 85.1371 98.0715 85.4138 98.1494 85.7046C98.2224 85.9773 98.4275 86.2323 98.7166 86.4582C99.0094 86.687 99.4094 86.9028 99.9124 87.0914C101.129 87.5477 102.387 88.1657 103.55 88.8103C102.449 88.5317 101.596 88.5818 100.976 88.8102C100.322 89.0512 99.9207 89.4978 99.8115 89.9644C99.757 90.1973 99.7764 90.4366 99.8821 90.6437C99.9889 90.8532 100.175 91.0125 100.421 91.0945C101.535 91.4656 103.184 92.2885 104.79 93.2324C106.369 94.1603 107.883 95.1909 108.786 96.0009C109.262 97.3358 109.535 99.0406 109.727 101.169C109.884 102.922 109.985 104.949 110.101 107.276C110.128 107.812 110.156 108.364 110.185 108.933C110.496 114.999 110.997 122.886 112.754 132.9C116.768 155.783 129.83 164.572 135.94 166.1L136.083 166.136L136.184 166.027C141.045 160.761 142.716 153.188 142.85 145.899C142.984 138.606 141.579 131.554 140.239 127.282L140.184 127.107H140C136.347 127.107 127.636 122.465 123.244 103.301C121.042 93.694 119.037 87.9218 117.324 84.4833C115.617 81.0566 114.173 79.8928 113.061 79.6148Z" fill="#F3A186" stroke="black" stroke-width="0.5"/>
<path d="M87.4996 111.358C85.4996 121.758 90.6663 124.024 93.4996 123.858C99.4997 140.657 92.9996 153.524 88.9995 157.858C82.9996 154.858 70.4998 144.758 68.4998 128.358C65.9998 107.858 82.9996 90.8575 83.4996 89.8575C83.9996 88.8575 80.9996 83.3575 82.9996 82.8575C84.2177 82.553 85.1267 84.3545 85.6383 85.9673C84.8711 82.8153 84.1204 78.3575 85.4995 78.3575C86.5647 78.3575 87.2457 80.7212 87.6312 83.0881C87.417 80.0278 87.5666 76.6441 88.9995 76.3575C90.9249 75.9724 90.8423 82.3528 90.536 85.9521C90.7712 84.2253 92.0915 78.9494 92.9995 79.8575C94.5995 83.4575 92.6662 89.6908 91.4995 92.3575C92.4995 91.3575 97.4995 90.3575 96.9995 92.3575C96.4995 94.3575 89.9996 98.3575 87.4996 111.358Z" fill="#F6A185" stroke="black" stroke-width="0.5"/>
<path d="M72.5002 129.857C68.9002 119.857 74.6669 104.024 78.0002 97.3574C70 107.857 68.0003 116.357 69.0003 129.857C69.8003 140.657 81.4998 153.357 89 157.357C90.4998 155.357 91.6666 153.357 92 151.857C90.6666 150.524 88 146.957 84 143.357C79 138.857 75.9202 139.357 72.5002 129.857Z" fill="#E3846A"/>
<path d="M84 119.857C84.3333 122.357 86.7 127.457 93.5 127.857" stroke="white" stroke-width="0.5" stroke-linecap="round"/>
<path d="M84.5003 102.858C86.9003 98.4575 88.5003 98.3575 89.0003 98.8575C90.0004 99.8575 88.5002 101.358 87.0002 103.858C85.5002 106.358 85.0002 109.858 83.5003 109.858C83.0003 109.858 81.5003 108.358 84.5003 102.858Z" fill="white"/>
<path d="M82.5002 113.358C82.9002 112.158 84 111.858 84.5003 111.858C85 111.858 84.8002 112.658 84.0002 113.858C83.0002 115.358 82.0002 114.858 82.5002 113.358Z" fill="white"/>
<path d="M132 147.357C117.2 144.157 112.333 119.857 110.5 107.857C110.5 143.357 123.5 162.857 136 165.857C141 160.857 142.667 151.191 142.5 146.857C140 142.357 135.5 147.357 132 147.357Z" fill="#E3846A"/>
<path d="M140 126.857C142.167 126.357 146.7 124.057 147.5 118.857C148.3 113.657 148.667 108.191 148 103.857" stroke="black" stroke-width="0.5"/>
<path d="M133 106.355C138.552 106.514 146.5 101.5 148.5 84" stroke="black" stroke-width="0.5"/>
<path d="M126 118.857C126.833 121.691 130.7 127.057 135.5 127.857" stroke="white" stroke-width="0.5"/>
<path d="M101 162.357C105.5 152.857 111 139.357 112.5 131.357" stroke="black" stroke-width="0.5"/>
<path d="M93 152.357C103 154.357 109.667 139.024 112 131.357C112 135.857 104.5 154.357 101 161.357C98.2 161.357 92.1666 159.024 89.5 157.857L93 152.357Z" fill="#6648BC"/>
<path d="M110 148.857C108.5 154.024 104.9 164.957 102.5 167.357" stroke="white" stroke-width="0.5"/>
<path d="M111.5 142.857L110.5 146.857" stroke="white" stroke-width="0.5"/>
<path d="M124 111.857C124.167 113.024 124.7 115.657 125.5 116.857" stroke="white" stroke-width="0.5"/>
<path d="M120 100.858C120.75 99.3575 117 88.8575 116 88.8575C115.5 88.8575 114.5 88.3575 116.5 93.8575C118.5 99.3575 119 102.858 120 100.858Z" fill="white"/>
<ellipse cx="120" cy="103.857" rx="1" ry="1.5" fill="white"/>
<path d="M96.4998 69.8574C96.5 71.3574 95.9998 75.3574 97.9998 79.8574" stroke="black" stroke-width="0.5"/>
<path d="M124 70.3574C124.167 71.0241 124.7 72.3574 125.5 72.3574" stroke="black" stroke-width="0.5"/>
<path d="M106.5 69.3572C108.5 68.5238 112.8 66.9572 114 67.3572C115.2 67.7572 116.167 69.5238 116.5 70.3572" stroke="white" stroke-width="0.5"/>
<ellipse cx="81.1347" cy="70.7021" rx="1.06861" ry="3" transform="rotate(-21.7198 81.1347 70.7021)" fill="white"/>
<path d="M179 182.857C187.5 183.858 209 194.858 166 201.357" stroke="black"/>
<rect x="26.75" y="158.107" width="48.5" height="10.5" rx="2.25" fill="#4B5BF2" stroke="black" stroke-width="0.5"/>
<path d="M27 166.357H75C75 167.462 74.1045 168.357 73 168.357H29C27.8954 168.357 27 167.462 27 166.357Z" fill="#4251D9"/>
<path d="M30 169.75H29.75V170V185C29.75 186.243 30.7574 187.25 32 187.25H70C71.2426 187.25 72.25 186.243 72.25 185V170V169.75H72H30Z" fill="#4B5BF2" stroke="black" stroke-width="0.5"/>
<path d="M65 180.861C66.7192 178.363 67.4873 174.244 67.8029 171.861C67.9413 170.816 68.8195 170 69.8733 170H72V185C72 186.105 71.1046 187 70 187H32C30.8954 187 30 186.105 30 185V184.489C30 183.151 31.2877 182.176 32.5848 182.505C39.7519 184.328 59.6972 188.566 65 180.861Z" fill="#4251D9"/>
<rect x="39.5" y="165.857" width="23" height="15" rx="1.5" fill="#3648E9" stroke="#A6C3FA"/>
<path d="M39 158.357V159.357H40H62H63V158.357V154.357C63 152.701 61.6568 151.357 60 151.357H42C40.3431 151.357 39 152.701 39 154.357V158.357Z" stroke="#4B5BF2" stroke-width="2"/>
<path d="M45.9244 168.357C45.9244 168.357 47.7887 170.606 50.9476 170.606C54.3136 170.606 56.0743 168.357 56.0743 168.357V173.782H45.9244V168.357Z" fill="url(#paint0_linear_2086_13036)"/>
<path d="M44.1237 173.643C44.0554 173.575 44.0554 173.464 44.1237 173.396L45.3612 172.158L46.7223 173.52L45.3612 174.881L44.1237 173.643Z" fill="#0066FF" fill-opacity="0.4"/>
<path d="M44.5613 173.643C44.4929 173.575 44.4929 173.464 44.5613 173.396L45.3656 172.591L46.2937 173.52L45.3656 174.448L44.5613 173.643Z" fill="#0066FF"/>
<path fill-rule="evenodd" clip-rule="evenodd" d="M46.8707 171.58C47.3544 171.269 47.6748 170.725 47.6748 170.107C47.6748 169.141 46.8914 168.357 45.9249 168.357C44.9584 168.357 44.1749 169.141 44.1749 170.107C44.1749 170.723 44.4927 171.264 44.9732 171.576C45.132 171.727 45.3389 171.974 45.3688 172.254C45.4183 172.717 45.2206 172.995 45.2206 172.995H45.2235C45.1137 173.141 45.0487 173.323 45.0487 173.52C45.0487 173.717 45.1141 173.899 45.2243 174.046C45.2329 174.062 45.3718 174.337 45.3273 174.786C45.2979 175.082 45.0847 175.341 44.935 175.489C44.4755 175.804 44.1741 176.333 44.1741 176.932C44.1741 177.899 44.9576 178.682 45.9241 178.682C46.8906 178.682 47.6741 177.899 47.6741 176.932C47.6741 176.332 47.372 175.803 46.9117 175.488C46.762 175.34 46.5498 175.082 46.5205 174.786C46.4746 174.323 46.6239 174.045 46.6239 174.045H46.6236C46.7335 173.899 46.7987 173.717 46.7987 173.52C46.7987 173.323 46.7337 173.141 46.624 172.995H46.6271C46.6271 172.995 46.4295 172.717 46.4789 172.254C46.5085 171.976 46.7124 171.731 46.8707 171.58ZM45.9239 172.645V171.857H45.9239V172.645C45.9239 172.645 45.9239 172.645 45.9239 172.645ZM45.9239 174.395H45.9239V175.182H45.9239V174.395Z" fill="white"/>
<path d="M57.8763 173.643C57.9446 173.575 57.9446 173.464 57.8763 173.396L56.6388 172.158L55.2777 173.52L56.6388 174.881L57.8763 173.643Z" fill="#FD1569" fill-opacity="0.4"/>
<path d="M57.3689 173.643C57.4373 173.575 57.4373 173.464 57.3689 173.396L56.5646 172.591L55.6365 173.52L56.5646 174.448L57.3689 173.643Z" fill="#FD1569"/>
<path fill-rule="evenodd" clip-rule="evenodd" d="M57.0224 171.58C57.5059 171.268 57.8262 170.725 57.8262 170.107C57.8262 169.141 57.0427 168.357 56.0762 168.357C55.1097 168.357 54.3262 169.141 54.3262 170.107C54.3262 170.724 54.645 171.266 55.1268 171.578C55.2854 171.729 55.4912 171.974 55.521 172.254C55.5704 172.717 55.3727 172.995 55.3727 172.995H55.3754C55.2659 173.141 55.201 173.323 55.201 173.519C55.201 173.717 55.2662 173.898 55.3763 174.045H55.3759C55.3759 174.045 55.5252 174.323 55.4793 174.786C55.45 175.082 55.2368 175.341 55.087 175.489C54.6275 175.804 54.3261 176.333 54.3261 176.932C54.3261 177.899 55.1096 178.682 56.0761 178.682C57.0426 178.682 57.8261 177.899 57.8261 176.932C57.8261 176.332 57.5234 175.802 57.0622 175.486C56.9125 175.338 56.7013 175.081 56.6721 174.786C56.6276 174.338 56.7661 174.063 56.775 174.046C56.8855 173.899 56.951 173.717 56.951 173.519C56.951 173.323 56.886 173.141 56.7764 172.995H56.7788C56.7788 172.995 56.5811 172.717 56.6306 172.254C56.6602 171.976 56.8641 171.731 57.0224 171.58Z" fill="white"/>
<ellipse cx="51.0018" cy="174.133" rx="1.39999" ry="1.39999" fill="white"/>
<path d="M67 160.357H73" stroke="#7683F7" stroke-linecap="round"/>
<mask id="path-65-outside-1_2086_13036" maskUnits="userSpaceOnUse" x="182.683" y="137.633" width="26.3789" height="29.6528" fill="black">
<rect fill="white" x="182.683" y="137.633" width="26.3789" height="29.6528"/>
<path fill-rule="evenodd" clip-rule="evenodd" d="M195.082 139.865C195.359 139.387 195.97 139.224 196.448 139.501L197.14 139.903C197.618 140.179 197.781 140.791 197.504 141.269L196.401 143.173C196.124 143.65 195.512 143.813 195.034 143.536L194.342 143.135C193.864 142.858 193.702 142.246 193.978 141.769L195.082 139.865ZM201.741 146.614L205.941 149.048C206.716 147.71 206.26 145.997 204.922 145.222L197.655 141.01L196.251 143.432L199.238 145.164L189.393 160.917C189.093 161.397 189.25 162.029 189.739 162.312L191.584 163.382C192.073 163.665 192.7 163.487 192.967 162.989L201.741 146.614Z"/>
</mask>
<path fill-rule="evenodd" clip-rule="evenodd" d="M195.082 139.865C195.359 139.387 195.97 139.224 196.448 139.501L197.14 139.903C197.618 140.179 197.781 140.791 197.504 141.269L196.401 143.173C196.124 143.65 195.512 143.813 195.034 143.536L194.342 143.135C193.864 142.858 193.702 142.246 193.978 141.769L195.082 139.865ZM201.741 146.614L205.941 149.048C206.716 147.71 206.26 145.997 204.922 145.222L197.655 141.01L196.251 143.432L199.238 145.164L189.393 160.917C189.093 161.397 189.25 162.029 189.739 162.312L191.584 163.382C192.073 163.665 192.7 163.487 192.967 162.989L201.741 146.614Z" fill="#4251D9"/>
<path d="M205.941 149.048L205.69 149.481L206.123 149.731L206.373 149.299L205.941 149.048ZM201.741 146.614L201.992 146.182L201.545 145.922L201.301 146.378L201.741 146.614ZM204.922 145.222L205.173 144.789L204.922 145.222ZM197.655 141.01L197.905 140.577L197.473 140.326L197.222 140.759L197.655 141.01ZM196.251 143.432L195.818 143.181L195.567 143.614L196 143.865L196.251 143.432ZM199.238 145.164L199.662 145.429L199.936 144.99L199.489 144.731L199.238 145.164ZM189.393 160.917L188.969 160.652L189.393 160.917ZM192.967 162.989L193.408 163.225L192.967 162.989ZM196.699 139.069C195.982 138.653 195.064 138.898 194.649 139.614L195.514 140.116C195.653 139.877 195.959 139.796 196.197 139.934L196.699 139.069ZM197.391 139.47L196.699 139.069L196.197 139.934L196.89 140.335L197.391 139.47ZM197.937 141.52C198.352 140.803 198.108 139.885 197.391 139.47L196.89 140.335C197.129 140.474 197.21 140.78 197.072 141.018L197.937 141.52ZM196.834 143.423L197.937 141.52L197.072 141.018L195.968 142.922L196.834 143.423ZM194.784 143.969C195.5 144.384 196.418 144.14 196.834 143.423L195.968 142.922C195.83 143.161 195.524 143.242 195.285 143.104L194.784 143.969ZM194.092 143.568L194.784 143.969L195.285 143.104L194.593 142.703L194.092 143.568ZM193.546 141.518C193.13 142.235 193.375 143.152 194.092 143.568L194.593 142.703C194.354 142.564 194.273 142.258 194.411 142.019L193.546 141.518ZM194.649 139.614L193.546 141.518L194.411 142.019L195.514 140.116L194.649 139.614ZM206.192 148.616L201.992 146.182L201.491 147.047L205.69 149.481L206.192 148.616ZM204.672 145.654C205.771 146.291 206.145 147.698 205.508 148.797L206.373 149.299C207.287 147.722 206.75 145.703 205.173 144.789L204.672 145.654ZM197.404 141.442L204.672 145.654L205.173 144.789L197.905 140.577L197.404 141.442ZM196.683 143.683L198.087 141.26L197.222 140.759L195.818 143.181L196.683 143.683ZM199.489 144.731L196.501 143L196 143.865L198.987 145.596L199.489 144.731ZM198.814 144.899L188.969 160.652L189.817 161.182L199.662 145.429L198.814 144.899ZM188.969 160.652C188.519 161.371 188.755 162.32 189.489 162.745L189.99 161.88C189.745 161.738 189.667 161.422 189.817 161.182L188.969 160.652ZM189.489 162.745L191.333 163.814L191.835 162.949L189.99 161.88L189.489 162.745ZM191.333 163.814C192.067 164.239 193.007 163.972 193.408 163.225L192.526 162.753C192.393 163.002 192.079 163.091 191.835 162.949L191.333 163.814ZM193.408 163.225L202.182 146.85L201.301 146.378L192.526 162.753L193.408 163.225Z" fill="black" mask="url(#path-65-outside-1_2086_13036)"/>
</g>
<defs>
<linearGradient id="paint0_linear_2086_13036" x1="50.9994" y1="168.357" x2="50.9994" y2="173.782" gradientUnits="userSpaceOnUse">
<stop stop-color="white"/>
<stop offset="1" stop-color="white" stop-opacity="0"/>
</linearGradient>
</defs>
</svg>
