
<svg width="140" height="140" viewBox="0 0 140 140" fill="none" xmlns="http://www.w3.org/2000/svg">
<g id="img_quick" clip-path="url(#clip0_1703_51452)">
<g id="Group 1533208654">
<path id="Rectangle 45" d="M18.4784 34.6518C17.9362 29.9888 21.2767 25.7691 25.9396 25.2268L38.8647 23.7237C43.5277 23.1814 47.7474 26.5219 48.2897 31.1849L55.6434 94.4174C55.909 96.7013 55.238 98.9954 53.7835 100.776L42.3164 114.816C37.5656 120.633 28.1576 117.881 27.2901 110.421L18.4784 34.6518Z" fill="#2BA16A" stroke="black"/>
<path id="Rectangle 46" d="M21.8044 34.2648C21.2621 29.6018 24.6026 25.3821 29.2656 24.8398L42.1907 23.3367C46.8536 22.7944 51.0734 26.1349 51.6156 30.7979L58.9693 94.0304C59.2349 96.3143 58.5639 98.6084 57.1094 100.389L45.6423 114.429C40.8915 120.246 31.4836 117.494 30.616 110.034L21.8044 34.2648Z" fill="#7D7DF4" stroke="black"/>
<path id="Rectangle 47" d="M24.1941 33.2128C23.907 30.7442 25.6755 28.5102 28.1442 28.2231L44.1712 26.3593C47.1884 26.0084 49.9188 28.1699 50.2697 31.1871L57.4664 93.0701C57.6321 94.4952 57.2344 95.9286 56.3582 97.0646L43.1175 114.231C40.1044 118.137 33.8692 116.407 33.2993 111.507L24.1941 33.2128Z" fill="#00FF9B" stroke="black"/>
<path id="Vector 2238" d="M47.4721 61.9161L38.7519 63.8299C37.8264 64.0331 36.9279 63.3923 36.8184 62.4511C36.7202 61.6068 37.2989 60.833 38.1364 60.6885L46.934 59.1699C47.7256 59.0333 48.4695 59.5895 48.5623 60.3874C48.6453 61.1013 48.1741 61.7621 47.4721 61.9161Z" fill="#434343"/>
<path id="Vector 2239" d="M48.4833 69.1843L39.861 72.0791C38.9075 72.3992 37.9011 71.7605 37.7849 70.7614C37.6954 69.9918 38.1761 69.2705 38.9209 69.057L47.6639 66.55C48.4825 66.3153 49.3163 66.871 49.4147 67.717C49.49 68.3647 49.1015 68.9768 48.4833 69.1843Z" fill="#434343"/>
<path id="Vector 2240" d="M49.5128 75.8712L40.9082 80.355C39.9947 80.831 38.8876 80.2443 38.7686 79.2211C38.6962 78.5982 39.0269 77.9979 39.5922 77.7263L48.3379 73.5243C49.1505 73.1339 50.1058 73.6602 50.2099 74.5557C50.2728 75.0963 49.9954 75.6197 49.5128 75.8712Z" fill="#434343"/>
<ellipse id="Ellipse 6789" cx="35.1336" cy="62.9893" rx="0.937611" ry="1.97118" transform="rotate(-6.63343 35.1336 62.9893)" fill="#434343"/>
<ellipse id="Ellipse 6790" cx="36.152" cy="71.7452" rx="0.937611" ry="1.97118" transform="rotate(-6.63343 36.152 71.7452)" fill="#434343"/>
<ellipse id="Ellipse 6791" cx="37.17" cy="80.5016" rx="0.937611" ry="1.97118" transform="rotate(-6.63343 37.17 80.5016)" fill="#434343"/>
</g>
<g id="Group 1533208653">
<path id="Rectangle 45_2" d="M43.3271 27.1658C43.3271 22.4714 47.1327 18.6658 51.8271 18.6658H89.6985C94.3929 18.6658 98.1985 22.4714 98.1985 27.1658V92.9028C98.1985 95.9719 96.544 98.8027 93.8699 100.309L55.9986 121.64C50.3324 124.831 43.3271 120.737 43.3271 114.234V27.1658Z" fill="#2BA16A" stroke="black"/>
<path id="Rectangle 46_2" d="M49.3597 27.1658C49.3597 22.4714 53.1653 18.6658 57.8597 18.6658H95.7311C100.425 18.6658 104.231 22.4714 104.231 27.1658V92.9028C104.231 95.9719 102.577 98.8027 99.9025 100.309L62.0311 121.64C56.365 124.831 49.3597 120.737 49.3597 114.234V27.1658Z" fill="#7D7DF4" stroke="black"/>
<path id="Rectangle 47_2" d="M53.8552 26.5459C53.8552 24.0606 55.8699 22.0459 58.3552 22.0459H96.2414C99.2789 22.0459 101.741 24.5083 101.741 27.5459V92.1424C101.741 94.0809 100.721 95.8762 99.0555 96.868L62.1694 118.834C58.5032 121.018 53.8552 118.376 53.8552 114.109V26.5459Z" fill="#00FF9B" stroke="black"/>
<path id="Vector 2238_2" d="M90.8398 59.3644L72.556 60.4325C71.5831 60.4894 70.7629 59.7157 70.7629 58.7412C70.7629 57.8266 71.4888 57.0771 72.4029 57.0478L90.7085 56.461C91.5289 56.4347 92.2083 57.0927 92.2083 57.9136C92.2083 58.6833 91.6082 59.3195 90.8398 59.3644Z" fill="#434343"/>
<path id="Vector 2239_2" d="M90.9379 67.0063L72.6595 69.2478C71.6517 69.3714 70.7629 68.585 70.7629 67.5696C70.7629 66.6983 71.4251 65.9696 72.2925 65.8865L90.624 64.1308C91.4734 64.0494 92.2083 64.7173 92.2083 65.5706C92.2083 66.3013 91.6633 66.9173 90.9379 67.0063Z" fill="#434343"/>
<path id="Vector 2240_2" d="M91.0959 74.0748L72.7237 78.1467C71.7173 78.3697 70.7629 77.6038 70.7629 76.5729C70.7629 75.8046 71.3051 75.1432 72.0584 74.9923L90.51 71.2969C91.3885 71.121 92.2083 71.7929 92.2083 72.6889C92.2083 73.3545 91.7458 73.9308 91.0959 74.0748Z" fill="#434343"/>
<ellipse id="Ellipse 6789_2" cx="67.6357" cy="59.0413" rx="1.68919" ry="2.06218" fill="#434343"/>
<ellipse id="Ellipse 6790_2" cx="67.6357" cy="68.2634" rx="1.68919" ry="2.06218" fill="#434343"/>
<ellipse id="Ellipse 6791_2" cx="67.6357" cy="77.4854" rx="1.68919" ry="2.06218" fill="#434343"/>
</g>
<g id="Group 1533208651">
<path id="Ellipse 6691" d="M84.6122 95.4361C86.3872 90.7502 89.4309 87.0933 92.8956 84.9598C96.3599 82.8266 100.218 82.2282 103.673 83.588C107.127 84.9478 109.59 88.0339 110.749 91.9868C111.908 95.9403 111.751 100.733 109.976 105.419C108.201 110.105 105.157 113.762 101.692 115.895C98.2279 118.029 94.3698 118.627 90.9151 117.267C87.4604 115.907 84.9981 112.821 83.8392 108.868C82.6801 104.915 82.8372 100.122 84.6122 95.4361Z" fill="#5740B1" stroke="black"/>
<path id="Ellipse 6692" d="M87.5919 96.204C89.3669 91.5181 92.4106 87.8613 95.8753 85.7278C99.3396 83.5946 103.198 82.9962 106.652 84.356C110.107 85.7158 112.569 88.8019 113.728 92.7548C114.887 96.7082 114.73 101.501 112.955 106.187C111.18 110.873 108.137 114.53 104.672 116.663C101.208 118.797 97.3496 119.395 93.8949 118.035C90.4402 116.675 87.9778 113.589 86.8189 109.636C85.6598 105.683 85.8169 100.89 87.5919 96.204Z" fill="#00FF9B" stroke="black"/>
<path id="Ellipse 6693" d="M88.6944 96.6505C90.3853 92.1865 93.2542 88.6802 96.5166 86.6162C99.779 84.5521 103.422 83.9361 106.684 85.2199C109.946 86.5038 112.238 89.456 113.293 93.2194C114.348 96.9828 114.161 101.545 112.47 106.009C110.779 110.473 107.91 113.979 104.648 116.043C101.385 118.107 97.7416 118.723 94.4799 117.439C91.2181 116.155 88.9262 113.203 87.8712 109.44C86.8162 105.676 87.0035 101.114 88.6944 96.6505Z" fill="#7D7DF4" stroke="black" stroke-width="0.4"/>
<g id="Group 5019">
<path id="Vector" d="M109.577 103.076C108.947 102.424 107.48 101.613 106.751 99.9416C106.001 98.2255 106.306 96.6582 106.287 95.6069C106.262 94.1896 105.262 93.0429 104.055 93.0451C102.848 93.0473 101.89 94.1982 101.916 95.6149C101.932 96.4957 101.886 98.8109 101.662 100.013C101.593 100.378 101.487 100.573 101.406 100.71C101.096 101.237 100.198 101.845 99.2752 101.113C99.0145 100.914 98.7811 100.56 98.6629 100.126C98.4121 99.2037 98.6254 96.527 98.5048 95.3715C98.5036 95.3619 98.5029 95.3523 98.5017 95.3427C98.4816 95.1627 98.4537 95.0049 98.412 94.8754C98.121 93.8222 97.2734 93.0568 96.2873 93.0586C95.0799 93.0608 94.1223 94.2117 94.148 95.6284C94.1617 96.3887 94.4557 97.071 94.912 97.54C95.5423 98.1924 97.0088 99.0028 97.7383 100.674C98.4876 102.39 98.1826 103.958 98.2016 105.009C98.2273 106.426 99.2269 107.573 100.434 107.571C101.349 107.569 102.121 106.907 102.43 105.969C102.924 104.574 102.034 102.131 102.737 100.306C102.875 99.9486 103.032 99.7665 103.192 99.5934C103.523 99.2339 104.584 98.8294 105.369 99.9045C105.569 100.209 105.628 100.445 105.678 100.677C105.891 101.665 105.77 104.791 106.078 105.744C106.371 106.795 107.217 107.558 108.202 107.556C109.409 107.554 110.367 106.403 110.341 104.986C110.327 104.226 110.033 103.544 109.577 103.075L109.577 103.076Z" fill="#00FF9B"/>
<path id="Vector_2" d="M94.2086 107.426C95.4158 107.424 96.3736 106.273 96.348 104.856C96.3224 103.439 95.323 102.292 94.1158 102.294C92.9087 102.296 91.9508 103.447 91.9765 104.864C92.0021 106.281 93.0015 107.428 94.2086 107.426Z" fill="#00FF9B"/>
</g>
<g id="Group 1533208607">
<path id="Subtract" fill-rule="evenodd" clip-rule="evenodd" d="M104.745 28.1983C109.979 27.5483 114.642 27.6185 118.539 28.4209C123.403 29.4226 126.997 31.5457 129.096 34.7572C131.195 37.9686 131.697 42.1123 130.662 46.97C129.626 51.8329 127.061 57.3333 123.144 63.1309C115.312 74.7226 102.185 87.334 85.602 98.172C69.0193 109.01 52.1995 115.971 38.4388 118.492C31.5562 119.753 25.4892 119.894 20.6193 118.891C15.7546 117.89 12.1608 115.767 10.0619 112.555C7.96303 109.344 7.46088 105.2 8.49598 100.342C9.53219 95.4793 12.0965 89.979 16.0139 84.1813C17.6627 81.7411 19.5462 79.2556 21.6472 76.7511L20.7883 76.2191C8.65624 90.7223 3.69944 104.648 9.22486 113.102C18.3763 127.104 52.8164 120.795 86.1491 99.0091C119.482 77.2236 139.084 48.2121 129.933 34.2101C125.829 27.9308 116.639 25.7364 104.744 27.1908L104.745 28.1983Z" fill="#BFFD3E"/>
<path id="Vector 2065" d="M129.85 47.7716C132.394 32.837 123.415 27.4802 108.354 27.2399C118.584 26.3471 127.452 28.9335 130.65 32.155C133.058 34.581 134.9 39.4222 132.451 48.1528C130.521 55.0341 122.561 65.6335 118.63 70.2714C118.315 70.6683 118.055 70.9687 117.865 71.1575C118.097 70.8938 118.354 70.5973 118.63 70.2714C121.409 66.773 128.485 55.7827 129.85 47.7716Z" fill="#BFFD3E"/>
<path id="Vector 2066" d="M20.6225 118.447C5.99959 114.486 5.32648 103.623 11.4312 89.8528C6.32599 98.7631 4.34503 107.482 5.92616 111.738C7.11686 114.942 10.9242 119.526 19.8763 120.968C26.932 122.105 39.8942 119.33 45.7538 117.71C46.2464 117.59 46.6282 117.48 46.8793 117.387C46.5422 117.488 46.1656 117.596 45.7538 117.71C41.4117 118.764 28.4666 120.571 20.6225 118.447Z" fill="#BFFD3E"/>
<circle id="Ellipse 6682" cx="113.605" cy="27.1599" r="1.84076" transform="rotate(-44.7931 113.605 27.1599)" fill="#7D7DF4"/>
<circle id="Ellipse 6684" cx="121.039" cy="28.8235" r="1.31483" transform="rotate(-44.7931 121.039 28.8235)" fill="#00FF9B"/>
<circle id="Ellipse 6683" cx="47.7825" cy="116.49" r="3.94449" transform="rotate(-44.7931 47.7825 116.49)" fill="#BFFD3E"/>
</g>
</g>
<g id="Group 1533208652">
<path id="Ellipse 6691_2" d="M18.13 74.2637C15.4694 71.7481 13.9201 68.7767 13.547 66.0213C13.1739 63.2659 13.9767 60.7601 15.9658 59.0949C17.9549 57.4298 20.815 56.8692 23.8836 57.368C26.9522 57.8669 30.1916 59.4235 32.8521 61.9391C35.5126 64.4547 37.0619 67.4262 37.4351 70.1815C37.8082 72.9369 37.0053 75.4427 35.0162 77.1079C33.0271 78.7731 30.167 79.3337 27.0985 78.8348C24.0299 78.3359 20.7905 76.7794 18.13 74.2637Z" fill="#5740B1" stroke="black"/>
<path id="Ellipse 6692_2" d="M19.6051 72.6695C16.9445 70.1539 15.3952 67.1824 15.0221 64.4271C14.649 61.6717 15.4518 59.1659 17.4409 57.5007C19.43 55.8355 22.2901 55.2749 25.3587 55.7738C28.4272 56.2727 31.6667 57.8292 34.3272 60.3449C36.9877 62.8605 38.537 65.8319 38.9102 68.5873C39.2833 71.3426 38.4804 73.8485 36.4913 75.5137C34.5022 77.1788 31.6421 77.7394 28.5735 77.2405C25.505 76.7417 22.2656 75.1851 19.6051 72.6695Z" fill="#00FF9B" stroke="black"/>
<path id="Ellipse 6693_2" d="M20.1976 72.1845C17.6536 69.7791 16.1443 66.9474 15.7528 64.3201C15.3614 61.6926 16.0882 59.2849 17.9907 57.6922C19.8933 56.0995 22.6387 55.6004 25.5627 56.1078C28.4864 56.6152 31.5715 58.1277 34.1155 60.5332C36.6594 62.9386 38.1688 65.7703 38.5602 68.3975C38.9517 71.0251 38.2249 73.4328 36.3223 75.0255C34.4198 76.6182 31.6744 77.1173 28.7504 76.6098C25.8266 76.1025 22.7416 74.5899 20.1976 72.1845Z" fill="#7D7DF4" stroke="black" stroke-width="0.4"/>
<g id="Group 5019_2">
<path id="Vector_3" d="M31.2152 61.3717C30.5644 61.5583 29.5393 62.2097 28.1523 62.1436C26.7284 62.076 25.7414 61.4066 25.0085 61.0949C24.0204 60.6747 22.9108 60.936 22.5298 61.678C22.1488 62.4199 22.6409 63.3624 23.6285 63.7824C24.2426 64.0435 25.8287 64.7839 26.589 65.2914C26.8193 65.4453 26.9204 65.571 26.9895 65.6627C27.2557 66.0149 27.3919 66.7539 26.5929 67.0952C26.3728 67.1943 26.0544 67.2288 25.7167 67.1679C24.9994 67.0382 23.2163 66.0839 22.3792 65.8025C22.3722 65.8003 22.3653 65.7978 22.3583 65.7956C22.2275 65.7526 22.1096 65.7212 22.0068 65.707C21.1864 65.5618 20.3886 65.8469 20.0773 66.4531C19.6962 67.1954 20.1884 68.1375 21.176 68.5576C21.706 68.783 22.271 68.8123 22.7399 68.6763C23.3907 68.4898 24.4158 67.8383 25.8028 67.9044C27.2267 67.972 28.2137 68.6414 28.9466 68.9531C29.9347 69.3733 31.0443 69.112 31.4253 68.37C31.7143 67.8072 31.5007 67.1294 30.9501 66.6514C30.1428 65.9187 28.1712 65.7139 27.1325 64.7212C26.9289 64.5262 26.8528 64.3737 26.7836 64.2225C26.6403 63.9081 26.6967 63.1322 27.6887 62.981C27.9627 62.9516 28.1444 62.9879 28.3212 63.0286C29.0718 63.2016 31.1946 64.2376 31.9512 64.3415C32.7704 64.485 33.566 64.2001 33.8769 63.5945C34.2581 62.8523 33.7659 61.9101 32.7782 61.4901C32.2482 61.2647 31.6833 61.2354 31.2144 61.3714L31.2152 61.3717Z" fill="#00FF9B"/>
<path id="Vector_4" d="M29.352 72.1492C29.7331 71.4071 29.2412 70.4649 28.2533 70.0448C27.2654 69.6247 26.1557 69.8857 25.7746 70.6278C25.3935 71.3699 25.8854 72.3121 26.8733 72.7322C27.8612 73.1524 28.9709 72.8913 29.352 72.1492Z" fill="#00FF9B"/>
</g>
</g>
</g>
<defs>
<clipPath id="clip0_1703_51452">
<rect width="140" height="140" fill="white"/>
</clipPath>
</defs>
</svg>
