
<svg width="2560" height="440" viewBox="0 0 2560 440" fill="none" xmlns="http://www.w3.org/2000/svg">
<mask id="mask0_1703_43292" style="mask-type:alpha" maskUnits="userSpaceOnUse" x="0" y="0" width="2560" height="440">
<rect width="2560" height="440" fill="#D9D9D9"/>
</mask>
<g mask="url(#mask0_1703_43292)">
<path d="M1023.5 0H669.94H0V440H1686.25C1735 440 1728.23 377.255 1686.25 377.255L1486.29 377.254C1448.1 377.254 1446.75 318.927 1486.29 318.927H1699.16C1747.86 318.927 1753.97 263.421 1705.27 263.421H2625.85C2551.93 263.421 2545.79 217.706 2615.44 217.706L2645.63 209.994C2733.95 209.994 2702.31 133.64 2609.19 133.64H2659.17C2591.34 133.64 2565.78 81.9657 2635.22 81.9657L2728 0H1023.5Z" fill="url(#paint0_linear_1703_43292)"/>
<rect x="667.414" y="104.483" width="235.445" height="284.112" rx="18" fill="#6A51FF" stroke="black" stroke-width="2"/>
<path d="M1332.99 72.2617C1353.31 72.2617 1373.34 72.6451 1392.99 73.3889M1322.7 354.27C1306.82 354.168 1291.14 353.833 1275.68 353.275M1343.27 354.27C1344.44 354.262 1345.6 354.253 1346.76 354.243M1255.93 352.435C1254.86 352.383 1253.79 352.329 1252.72 352.275M1242.48 351.716C1221.58 350.505 1201.17 348.883 1181.35 346.879M1167.47 345.402C1166.03 345.241 1164.6 345.079 1163.17 344.914M1149.4 343.255C1132.46 341.12 1116.03 338.699 1100.17 336.011M1087.87 333.852C951.626 309.112 860.633 264.37 860.633 213.282C860.633 172.791 917.793 136.286 1009.34 110.566M1359.21 354.089C1372.79 353.867 1386.21 353.474 1399.46 352.917M1413.11 352.282C1414.15 352.229 1415.19 352.175 1416.23 352.119M1431.15 351.253C1464.51 349.148 1496.58 345.991 1526.93 341.905M1549.92 338.583C1552.09 338.247 1552.6 338.095 1554.1 337.784M1576.63 334.119C1609.64 328.174 1640.01 321.058 1667.11 312.963M1688.07 306.282C1689.63 305.752 1691.17 305.219 1692.71 304.683M1705.52 299.992C1715.62 296.13 1725.06 292.106 1733.79 287.937M1744.2 282.724C1746.26 281.639 1748.27 280.545 1750.23 279.443M1768.67 267.852C1792.29 251.067 1805.34 232.629 1805.34 213.282C1805.34 156.005 1690.96 106.704 1526.68 84.6248M1511.36 82.663C1509.94 82.4906 1508.53 82.3203 1507.11 82.1519M1496.44 80.9327C1480.88 79.2194 1464.93 77.7436 1448.65 76.5202M1409.32 74.0934C1407.41 74.0007 1405.49 73.9115 1403.57 73.8257M1297.7 72.6494C1295.68 72.6939 1293.66 72.7422 1291.65 72.7944M1269.32 73.5319C1226.51 75.2538 1185.52 78.6876 1147.15 83.595M1123.93 86.7903C1120.98 87.2252 1118.05 87.6691 1115.14 88.1218M1091.14 92.1232C1070.47 95.8075 1050.83 99.9497 1032.37 104.503" stroke="#AFA2FF"/>
<path d="M602.143 271.049C600.296 259.907 609.047 249.837 620.337 250.111L786.142 254.131C795.911 254.368 803.706 262.354 803.706 272.126V312.764C803.706 322.815 795.474 330.919 785.424 330.762L626.607 328.27C617.91 328.134 610.554 321.797 609.132 313.216L602.143 271.049Z" fill="#5942E3" stroke="black" stroke-width="2"/>
<path d="M607.277 267.438C605.488 256.484 613.942 246.537 625.042 246.537H789.73C799.671 246.537 807.73 254.596 807.73 264.537V305.02C807.73 314.961 799.671 323.02 789.73 323.02H631.653C622.832 323.02 615.311 316.628 613.889 307.922L607.277 267.438Z" fill="#745EFF" stroke="black" stroke-width="2"/>
<path d="M632.002 318.433C624.208 318.746 620.52 310.023 620.52 306.32H703.061L705.424 318.433C684.198 318.303 639.796 318.12 632.002 318.433Z" fill="#AFA2FF" stroke="black" stroke-width="2"/>
<path d="M622.442 301.85H647.501C649.292 301.85 650.684 300.292 650.482 298.512L649.615 290.858C649.443 289.341 648.16 288.196 646.634 288.196H621.575C619.784 288.196 618.392 289.754 618.594 291.533L619.461 299.188C619.633 300.704 620.916 301.85 622.442 301.85Z" fill="#AFA2FF" stroke="black" stroke-width="2"/>
<path d="M618.635 283.727H643.694C645.485 283.727 646.877 282.168 646.675 280.389L645.808 272.734C645.636 271.218 644.353 270.072 642.827 270.072H617.768C615.977 270.072 614.585 271.63 614.787 273.41L615.654 281.064C615.826 282.581 617.109 283.727 618.635 283.727Z" fill="#AFA2FF" stroke="black" stroke-width="2"/>
<path d="M616.102 265.6H641.161C642.951 265.6 644.343 264.042 644.142 262.263L643.274 254.608C643.103 253.092 641.82 251.946 640.294 251.946H621.953C616.581 251.946 612.405 256.621 613.01 261.959L613.121 262.938C613.292 264.455 614.575 265.6 616.102 265.6Z" fill="#AFA2FF" stroke="black" stroke-width="2"/>
<path d="M656.925 301.85H678.146C679.921 301.85 681.308 300.318 681.131 298.552L680.368 290.898C680.215 289.364 678.924 288.196 677.383 288.196H656.526C654.808 288.196 653.441 289.636 653.53 291.352L653.929 299.006C654.012 300.6 655.328 301.85 656.925 301.85Z" fill="#AFA2FF" stroke="black" stroke-width="2"/>
<path d="M653.121 283.727H674.343C676.117 283.727 677.504 282.195 677.328 280.429L676.564 272.774C676.411 271.24 675.121 270.072 673.579 270.072H652.722C651.004 270.072 649.637 271.512 649.726 273.228L650.125 280.883C650.208 282.477 651.525 283.727 653.121 283.727Z" fill="#AFA2FF" stroke="black" stroke-width="2"/>
<path d="M650.591 265.6H671.813C673.587 265.6 674.974 264.068 674.798 262.303L674.034 254.648C673.881 253.114 672.59 251.946 671.049 251.946H650.192C648.474 251.946 647.107 253.386 647.196 255.102L647.595 262.756C647.678 264.351 648.995 265.6 650.591 265.6Z" fill="#AFA2FF" stroke="black" stroke-width="2"/>
<path d="M687.594 301.85H708.816C710.591 301.85 711.977 300.318 711.801 298.552L711.037 290.898C710.884 289.364 709.594 288.196 708.052 288.196H687.196C685.477 288.196 684.11 289.636 684.2 291.352L684.598 299.006C684.681 300.6 685.998 301.85 687.594 301.85Z" fill="#AFA2FF" stroke="black" stroke-width="2"/>
<path d="M683.788 283.727H705.009C706.784 283.727 708.171 282.195 707.994 280.429L707.231 272.774C707.078 271.24 705.787 270.072 704.246 270.072H683.389C681.671 270.072 680.304 271.512 680.393 273.228L680.792 280.883C680.875 282.477 682.191 283.727 683.788 283.727Z" fill="#AFA2FF" stroke="black" stroke-width="2"/>
<path d="M681.254 265.6H702.476C704.25 265.6 705.637 264.068 705.461 262.303L704.697 254.648C704.544 253.114 703.254 251.946 701.712 251.946H680.855C679.137 251.946 677.77 253.386 677.86 255.102L678.258 262.756C678.341 264.351 679.658 265.6 681.254 265.6Z" fill="#AFA2FF" stroke="black" stroke-width="2"/>
<path d="M714.835 388.511V368.078V363.66C788.284 363.475 933.054 364.204 930.214 371.391C925.69 382.836 918.422 388.511 910.332 388.511H751.201H714.835Z" fill="#5942E3"/>
<path d="M751.201 389.595V371.024M714.835 368.078V388.511H910.332C918.422 388.511 925.69 382.836 930.214 371.391C933.054 364.204 788.284 363.475 714.835 363.66V368.078Z" stroke="black" stroke-width="2"/>
<path d="M725.29 185.41C732.302 178.156 736.42 163.361 736.42 163.361L741.046 351.801L749.483 371.164C742.12 370.751 725.009 369.774 715.477 369.178C705.944 368.583 705.631 360.808 705.628 356.194V349.836V195.993C705.628 195.993 718.744 192.179 725.29 185.41Z" fill="#5942E3"/>
<path d="M705.628 349.836V195.993C705.628 195.993 718.744 192.179 725.29 185.41C732.302 178.156 736.42 163.361 736.42 163.361L741.046 351.801M705.628 349.836L741.046 351.801M705.628 349.836V356.194C705.631 360.808 705.944 368.583 715.477 369.178C725.009 369.774 742.12 370.751 749.483 371.164L741.046 351.801" stroke="black" stroke-width="2"/>
<rect x="-1.5" y="1.5" width="249.5" height="301.363" rx="17.5" transform="matrix(-1 0 0 1 1929.1 36.0488)" fill="#6A51FF" stroke="black" stroke-width="3"/>
<path d="M735.245 169.78C735.245 159.839 743.304 151.78 753.245 151.78H914.34C924.281 151.78 932.34 159.839 932.34 169.78V352.208V353.142C932.34 363.083 924.281 371.142 914.34 371.142H753.245C743.304 371.142 735.245 363.083 735.245 353.142V352.208V169.78Z" fill="#5942E3" stroke="black" stroke-width="2"/>
<path d="M743.284 169.78C743.284 159.839 751.343 151.78 761.284 151.78H922.379C932.32 151.78 940.379 159.839 940.379 169.78V352.208V353.142C940.379 363.083 932.32 371.142 922.379 371.142H761.284C751.343 371.142 743.284 363.083 743.284 353.142V352.208V169.78Z" fill="#745EFF" stroke="black" stroke-width="2"/>
<path d="M755.878 180.343C755.878 170.402 763.937 162.343 773.878 162.343H914.335C924.276 162.343 932.335 170.402 932.335 180.343V324.287C932.335 332.64 925.563 339.412 917.21 339.412H771.003C762.65 339.412 755.878 332.64 755.878 324.287V180.343Z" fill="#AFA2FF" stroke="black" stroke-width="2"/>
<path d="M1883.34 92.978C1883.34 83.313 1875.5 75.478 1865.84 75.478H1638.61C1628.95 75.478 1621.11 83.313 1621.11 92.978V248.865C1621.11 257.596 1628.19 264.673 1636.92 264.673H1867.53C1876.26 264.673 1883.34 257.596 1883.34 248.865V92.978Z" fill="#5942E3" stroke="black" stroke-width="3"/>
<path d="M1877.37 92.978C1877.37 83.313 1869.53 75.478 1859.87 75.478H1632.64C1622.98 75.478 1615.14 83.313 1615.14 92.978V243.515C1615.14 251.953 1621.98 258.793 1630.42 258.793H1862.09C1870.53 258.793 1877.37 251.953 1877.37 243.515V92.978Z" fill="#AFA2FF" stroke="black" stroke-width="3"/>
<path d="M1849.55 291.124V259.758H1843.59C1843.37 270.66 1843.59 284.609 1843.59 291.124C1843.59 306.21 1856.35 306.036 1860.72 306.21H1895.9C1908.83 306.21 1911.42 296.329 1911.74 291.124V261.419H1906.23C1906.43 268.173 1906.72 283.57 1906.23 291.124C1905.73 298.677 1899.42 300.849 1895.9 300.991C1888.58 301.206 1871.28 301.508 1860.72 300.991C1850.99 300.514 1849.55 295.304 1849.55 291.124Z" fill="#AFA2FF" stroke="black" stroke-width="2"/>
<circle cx="758.878" cy="361.309" r="3.00027" fill="#6951FF" stroke="black" stroke-width="2"/>
<path d="M760.827 383.11V376.172H856.63V383.11H760.827Z" stroke="black" stroke-width="2"/>
<path d="M760.827 383.11V376.172H839.189V383.11H760.827Z" stroke="black" stroke-width="2"/>
<path d="M769.646 397.371C769.475 388.25 762.565 379.73 762.565 379.73H837.837C843.172 381.967 846.37 392.423 847.302 397.371H769.646Z" fill="#AFA2FF" stroke="black" stroke-width="2"/>
<path d="M1604.31 174.641C1607.4 170.955 1613.79 169.589 1613.79 169.589V188.789C1613.79 188.789 1603.34 190.007 1604.31 197.663C1607.75 204.041 1615.63 206.752 1621.07 207.888C1624.2 208.544 1626.73 211.205 1626.73 214.407V236.403C1626.73 239.717 1624.01 242.481 1620.75 241.9C1601.85 238.535 1600.59 219.42 1600.59 219.42V186.009C1600.54 185.276 1600.54 184.545 1600.59 183.819C1600.79 180.62 1601.9 177.502 1604.31 174.641Z" fill="#387659" fill-opacity="0.5"/>
<path d="M1600.59 183.819C1600.79 180.62 1601.9 177.502 1604.31 174.641C1607.4 170.955 1613.79 169.589 1613.79 169.589V188.789C1613.79 188.789 1603.34 190.007 1604.31 197.663M1600.59 183.819V219.42C1600.59 219.42 1601.85 238.535 1620.75 241.9C1624.01 242.481 1626.73 239.717 1626.73 236.403V214.407C1626.73 211.205 1624.2 208.544 1621.07 207.888C1615.63 206.752 1607.75 204.041 1604.31 197.663M1600.59 183.819C1600.3 188.438 1601.91 193.228 1604.31 197.663" stroke="black"/>
<path opacity="0.4" d="M1626.73 214.407V236.403C1626.73 239.717 1624.01 242.481 1620.75 241.901C1601.85 238.536 1600.59 219.42 1600.59 219.42V186.009C1600.54 185.276 1600.54 184.545 1600.59 183.819V186.009C1600.83 189.937 1602.29 193.926 1604.31 197.663C1607.75 204.041 1615.63 206.752 1621.07 207.889C1624.2 208.544 1626.73 211.205 1626.73 214.407Z" fill="#23FFA3" stroke="black"/>
<path d="M844.323 384.543L844.323 376.615H852.349V384.543C849.739 386.822 845.911 385.493 844.323 384.543Z" fill="#EBFF00" stroke="black" stroke-width="2"/>
<path fill-rule="evenodd" clip-rule="evenodd" d="M778.255 386.082H775.772V388.667H778.255V386.082ZM809.893 386.082H807.41V388.667H809.893V386.082ZM791.593 386.082H794.075V388.667H791.593V386.082ZM825.713 386.082H823.231V388.667H825.713V386.082ZM781.048 386.082H783.53V388.667H781.048V386.082ZM815.165 386.082H812.683V388.667H815.165V386.082ZM796.865 386.082H799.348V388.667H796.865V386.082ZM830.986 386.082H828.503V388.667H830.986V386.082ZM786.317 386.082H788.799V388.667H786.317V386.082ZM820.444 386.082H817.962V388.667H820.444V386.082ZM802.138 386.082H804.62V388.667H802.138V386.082ZM836.262 386.082H833.779V388.667H836.262V386.082Z" fill="#383838"/>
<path d="M727.937 297.221C727.937 305.384 726.423 312.725 724.018 317.988C721.572 323.34 718.397 326.178 715.247 326.178C712.097 326.178 708.922 323.34 706.477 317.988C704.071 312.725 702.557 305.384 702.557 297.221C702.557 289.058 704.071 281.717 706.477 276.454C708.922 271.102 712.097 268.264 715.247 268.264C718.397 268.264 721.572 271.102 724.018 276.454C726.423 281.717 727.937 289.058 727.937 297.221Z" fill="#5942E3" stroke="black" stroke-width="2"/>
<path d="M722.783 297.221C722.783 305.4 721.474 312.76 719.393 318.037C718.352 320.679 717.137 322.749 715.838 324.142C714.541 325.534 713.234 326.178 711.973 326.178C710.711 326.178 709.404 325.534 708.107 324.142C706.809 322.749 705.594 320.679 704.552 318.037C702.472 312.76 701.163 305.4 701.163 297.221C701.163 289.042 702.472 281.682 704.552 276.405C705.594 273.763 706.809 271.693 708.107 270.3C709.404 268.908 710.711 268.264 711.973 268.264C713.234 268.264 714.541 268.908 715.838 270.3C717.137 271.693 718.352 273.763 719.393 276.405C721.474 281.682 722.783 289.042 722.783 297.221Z" fill="#745EFF" stroke="black" stroke-width="2"/>
<path d="M713.416 340.412C713.416 341.798 712.988 343.034 712.319 343.913C711.651 344.791 710.763 345.291 709.822 345.291C708.882 345.291 707.994 344.791 707.326 343.913C706.657 343.034 706.229 341.798 706.229 340.412C706.229 339.026 706.657 337.79 707.326 336.911C707.994 336.033 708.882 335.533 709.822 335.533C710.763 335.533 711.651 336.033 712.319 336.911C712.988 337.79 713.416 339.026 713.416 340.412Z" fill="#5942E3" stroke="black"/>
<path d="M722.438 340.412C722.438 341.798 722.01 343.034 721.341 343.913C720.672 344.791 719.785 345.291 718.844 345.291C717.904 345.291 717.016 344.791 716.348 343.913C715.679 343.034 715.251 341.798 715.251 340.412C715.251 339.026 715.679 337.79 716.348 336.911C717.016 336.033 717.904 335.533 718.844 335.533C719.785 335.533 720.672 336.033 721.341 336.911C722.01 337.79 722.438 339.026 722.438 340.412Z" fill="#5942E3" stroke="black"/>
<path d="M732.598 340.412C732.598 341.798 732.17 343.034 731.501 343.913C730.832 344.791 729.945 345.291 729.004 345.291C728.063 345.291 727.176 344.791 726.508 343.913C725.839 343.034 725.411 341.798 725.411 340.412C725.411 339.026 725.839 337.79 726.508 336.911C727.176 336.033 728.063 335.533 729.004 335.533C729.945 335.533 730.832 336.033 731.501 336.911C732.17 337.79 732.598 339.026 732.598 340.412Z" fill="#5942E3" stroke="black"/>
<path d="M711.14 340.412C711.14 341.798 710.712 343.034 710.043 343.913C709.375 344.791 708.487 345.291 707.547 345.291C706.606 345.291 705.718 344.791 705.05 343.913C704.381 343.034 703.953 341.798 703.953 340.412C703.953 339.026 704.381 337.79 705.05 336.911C705.718 336.033 706.606 335.533 707.547 335.533C708.487 335.533 709.375 336.033 710.043 336.911C710.712 337.79 711.14 339.026 711.14 340.412Z" fill="#745EFF" stroke="black"/>
<path d="M720.166 340.412C720.166 341.798 719.738 343.034 719.069 343.913C718.401 344.791 717.513 345.291 716.572 345.291C715.632 345.291 714.744 344.791 714.076 343.913C713.407 343.034 712.979 341.798 712.979 340.412C712.979 339.026 713.407 337.79 714.076 336.911C714.744 336.033 715.632 335.533 716.572 335.533C717.513 335.533 718.401 336.033 719.069 336.911C719.738 337.79 720.166 339.026 720.166 340.412Z" fill="#745EFF" stroke="black"/>
<path d="M730.325 340.412C730.325 341.798 729.897 343.034 729.229 343.913C728.56 344.791 727.673 345.291 726.732 345.291C725.791 345.291 724.904 344.791 724.235 343.913C723.567 343.034 723.139 341.798 723.139 340.412C723.139 339.026 723.567 337.79 724.235 336.911C724.904 336.033 725.791 335.533 726.732 335.533C727.673 335.533 728.56 336.033 729.229 336.911C729.897 337.79 730.325 339.026 730.325 340.412Z" fill="#745EFF" stroke="black"/>
<path d="M720.411 193.55C719.078 195.107 712.443 197.349 709.292 198.275V203.835L720.411 201.889V193.55Z" stroke="black" stroke-width="2"/>
<path d="M720.359 201.83L724.341 201.321V186.372C724.341 186.372 724.301 189.304 719.468 194.454M708.897 198.337C709.273 197.949 711.129 195.528 711.515 193.707" stroke="black" stroke-width="2"/>
<path d="M713.563 136.703L714.822 195.977L716.29 195.51L713.563 136.703Z" fill="#5942E3" stroke="black"/>
<path d="M636.229 352.597C637.024 349.544 640.403 348.024 643.503 349.323L706.412 375.688C708.8 376.689 710.309 379.093 710.084 381.534L709.701 385.687C709.485 388.021 707.733 389.84 705.367 390.184L645.569 398.887C642.362 399.353 639.237 396.985 638.833 393.783L634.612 360.297C634.528 359.631 634.569 358.964 634.734 358.331L636.229 352.597Z" fill="#5942E3" stroke="black"/>
<path d="M636.455 352.96C636.007 349.944 638.148 347.331 641.218 347.147L688.042 344.337C690.253 344.204 692.429 345.382 693.57 347.33L709.943 375.273C711.889 378.595 710.055 382.566 706.336 383.082L648.08 391.177C644.931 391.615 641.863 389.325 641.396 386.188L636.455 352.96Z" fill="#745EFF" stroke="black"/>
<path d="M696.258 365.433C696.258 369.222 693.567 372.75 689.006 375.359C684.458 377.96 678.142 379.585 671.138 379.585C664.135 379.585 657.819 377.96 653.271 375.359C648.709 372.75 646.019 369.222 646.019 365.433C646.019 361.643 648.709 358.115 653.271 355.506C657.819 352.905 664.135 351.281 671.138 351.281C678.142 351.281 684.458 352.905 689.006 355.506C693.567 358.115 696.258 361.643 696.258 365.433Z" fill="#332E63" stroke="black"/>
<path d="M643.35 341.409C644.145 338.357 647.524 336.837 650.624 338.136L713.533 364.501C715.921 365.502 717.431 367.905 717.205 370.347L716.822 374.499C716.606 376.833 714.854 378.652 712.488 378.996L652.69 387.699C649.483 388.166 646.358 385.798 645.954 382.596L641.733 349.109C641.649 348.443 641.69 347.777 641.856 347.143L643.35 341.409Z" fill="#5942E3" stroke="black"/>
<path d="M643.576 341.772C643.128 338.756 645.269 336.143 648.339 335.959L695.163 333.149C697.374 333.017 699.55 334.195 700.691 336.143L717.065 364.086C719.011 367.407 717.176 371.378 713.457 371.895L655.201 379.99C652.052 380.427 648.984 378.138 648.517 375.001L643.576 341.772Z" fill="#745EFF" stroke="black"/>
<path d="M675.198 371.412C674.888 371.232 674.19 371.048 673.8 370.537C673.399 370.011 673.485 369.474 673.441 369.127C673.381 368.659 672.886 368.337 672.334 368.407C671.783 368.478 671.384 368.915 671.444 369.383C671.481 369.674 671.539 370.443 671.477 370.855C671.459 370.98 671.416 371.05 671.384 371.101C671.261 371.293 670.871 371.547 670.425 371.357C670.299 371.306 670.18 371.203 670.111 371.066C669.966 370.775 669.972 369.875 669.878 369.499C669.877 369.496 669.876 369.493 669.875 369.49C669.86 369.431 669.842 369.381 669.818 369.34C669.649 369.008 669.236 368.804 668.786 368.861C668.234 368.932 667.836 369.369 667.896 369.837C667.928 370.088 668.085 370.297 668.31 370.426C668.62 370.605 669.317 370.789 669.707 371.301C670.108 371.826 670.022 372.363 670.066 372.71C670.126 373.178 670.622 373.501 671.173 373.43C671.591 373.377 671.921 373.113 672.03 372.784C672.209 372.293 671.719 371.535 671.978 370.89C672.029 370.763 672.094 370.694 672.161 370.627C672.301 370.489 672.771 370.294 673.166 370.604C673.268 370.694 673.303 370.768 673.334 370.842C673.465 371.158 673.516 372.2 673.689 372.498C673.858 372.829 674.271 373.033 674.721 372.976C675.272 372.905 675.67 372.468 675.611 372C675.578 371.749 675.421 371.54 675.197 371.411L675.198 371.412Z" fill="#332E63"/>
<path d="M667.627 373.886C668.178 373.815 668.577 373.379 668.517 372.91C668.457 372.442 667.961 372.12 667.41 372.19C666.859 372.261 666.46 372.697 666.52 373.166C666.58 373.634 667.076 373.956 667.627 373.886Z" fill="#332E63"/>
<path fill-rule="evenodd" clip-rule="evenodd" d="M681.341 368.473L680.639 368.563C680.603 368.568 680.575 368.593 680.573 368.623L679.301 370.196C679.273 370.231 679.216 370.238 679.179 370.212L677.518 369.004C677.514 369.002 677.511 369 677.508 368.999C677.493 368.981 677.467 368.971 677.439 368.974L676.738 369.064C676.697 369.069 676.667 369.101 676.672 369.136L677.116 372.608C677.12 372.643 677.157 372.666 677.198 372.661L677.899 372.571C677.94 372.566 677.97 372.534 677.965 372.5L677.656 370.085L678.794 370.918C678.798 370.922 678.802 370.924 678.806 370.927L678.808 370.928L679.22 371.231L679.223 371.232L679.32 371.303C679.354 371.322 679.4 371.314 679.423 371.285L680.71 369.707L681.017 372.107C681.022 372.141 681.058 372.165 681.099 372.16L681.801 372.07C681.842 372.065 681.871 372.033 681.867 371.998L681.422 368.526C681.418 368.492 681.381 368.468 681.341 368.473Z" fill="#332E63"/>
<path d="M683.798 368.77C682.832 368.894 682.135 369.665 682.241 370.492C682.347 371.32 683.215 371.891 684.181 371.767C685.147 371.644 685.844 370.873 685.738 370.045C685.632 369.217 684.763 368.647 683.798 368.77ZM684.093 371.082C683.57 371.149 683.098 370.839 683.041 370.39C682.984 369.941 683.362 369.523 683.885 369.456C684.409 369.389 684.88 369.699 684.938 370.147C684.995 370.596 684.617 371.015 684.093 371.082Z" fill="#332E63"/>
<path d="M690.681 367.889C690.336 367.933 690.026 368.061 689.776 368.244L689.754 368.072C689.75 368.037 689.713 368.014 689.673 368.019L688.98 368.107C688.94 368.113 688.911 368.145 688.915 368.179L689.359 371.65C689.364 371.685 689.4 371.708 689.44 371.703L690.133 371.615C690.173 371.609 690.203 371.577 690.198 371.543L690.092 370.713C690.38 370.827 690.712 370.873 691.057 370.828C692.008 370.707 692.696 369.95 692.592 369.138C692.488 368.327 691.632 367.767 690.681 367.889L690.681 367.889ZM690.971 370.156C690.455 370.222 689.991 369.919 689.934 369.479L689.934 369.476C689.879 369.037 690.251 368.627 690.767 368.561C691.282 368.495 691.747 368.798 691.803 369.239C691.86 369.679 691.487 370.089 690.971 370.155L690.971 370.156Z" fill="#332E63"/>
<path d="M688.25 368.202L687.768 368.264C686.852 368.381 686.188 369.082 686.284 369.83L686.44 371.046C686.44 371.046 686.44 371.048 686.44 371.049L686.486 371.409C686.49 371.444 686.529 371.468 686.572 371.463L687.31 371.368C687.352 371.363 687.384 371.33 687.379 371.295L687.17 369.661C687.12 369.268 687.47 368.898 687.952 368.836L688.353 368.785C688.394 368.78 688.42 368.749 688.416 368.718L688.359 368.27C688.353 368.225 688.304 368.195 688.25 368.202L688.25 368.202Z" fill="#332E63"/>
<path d="M694.516 367.224C694.247 367.258 694.002 367.349 693.794 367.479L693.696 366.713C693.691 366.679 693.655 366.655 693.615 366.66L692.93 366.748C692.89 366.753 692.861 366.785 692.866 366.82L693.114 368.762C693.115 368.769 693.116 368.776 693.116 368.782L693.254 369.861L693.255 369.861L693.31 370.292C693.314 370.326 693.351 370.35 693.39 370.345L694.076 370.257C694.115 370.252 694.144 370.22 694.14 370.186L693.943 368.649C693.902 368.327 694.167 367.986 694.536 367.909C694.972 367.82 695.38 368.071 695.427 368.444L695.626 369.997C695.63 370.031 695.665 370.054 695.704 370.049L696.394 369.96C696.433 369.955 696.461 369.924 696.457 369.89L696.263 368.379C696.167 367.63 695.385 367.112 694.516 367.223L694.516 367.224Z" fill="#332E63"/>
<path d="M714.352 366.118C714.378 366.318 714.345 366.499 714.253 366.661C714.161 366.823 714.015 366.958 713.813 367.065C713.612 367.172 713.361 367.245 713.06 367.284C712.926 367.301 712.795 367.31 712.664 367.311C712.536 367.311 712.411 367.305 712.29 367.29C712.17 367.274 712.055 367.251 711.944 367.22L711.859 366.554C712.05 366.602 712.248 366.641 712.452 366.673C712.656 366.705 712.854 366.709 713.047 366.684C713.18 366.667 713.285 366.638 713.362 366.597C713.441 366.555 713.495 366.505 713.525 366.447C713.555 366.388 713.565 366.324 713.556 366.255C713.546 366.17 713.504 366.102 713.431 366.05C713.359 365.998 713.262 365.954 713.141 365.916C713.022 365.878 712.888 365.838 712.738 365.796C712.644 365.77 712.541 365.738 712.429 365.699C712.317 365.659 712.208 365.606 712.104 365.541C711.999 365.476 711.909 365.393 711.834 365.292C711.76 365.189 711.713 365.06 711.694 364.906C711.668 364.704 711.698 364.525 711.785 364.368C711.872 364.211 712.008 364.083 712.193 363.983C712.38 363.88 712.607 363.812 712.873 363.778C713.073 363.753 713.266 363.749 713.452 363.767C713.64 363.784 713.838 363.818 714.046 363.87L713.854 364.46C713.669 364.42 713.504 364.392 713.359 364.376C713.214 364.358 713.069 364.359 712.923 364.378C712.821 364.391 712.736 364.416 712.668 364.455C712.6 364.492 712.551 364.539 712.52 364.596C712.49 364.651 712.479 364.713 712.488 364.781C712.498 364.861 712.533 364.925 712.593 364.974C712.654 365.021 712.742 365.063 712.855 365.1C712.97 365.137 713.113 365.179 713.283 365.226C713.49 365.283 713.669 365.347 713.819 365.418C713.97 365.488 714.091 365.578 714.182 365.689C714.273 365.798 714.329 365.941 714.352 366.118Z" fill="#332E63"/>
<path d="M710.041 364.747C709.885 364.767 709.75 364.812 709.635 364.881C709.523 364.949 709.432 365.038 709.362 365.149C709.294 365.259 709.248 365.388 709.224 365.535C709.2 365.682 709.2 365.844 709.222 366.021C709.253 366.26 709.312 366.46 709.401 366.621C709.491 366.78 709.612 366.895 709.766 366.966C709.919 367.036 710.108 367.056 710.333 367.028C710.489 367.008 710.643 366.972 710.795 366.921C710.949 366.87 711.114 366.805 711.291 366.724L711.368 367.325C711.206 367.408 711.044 367.473 710.882 367.521C710.721 367.57 710.538 367.607 710.333 367.633C709.936 367.684 709.601 367.654 709.326 367.544C709.053 367.432 708.839 367.254 708.683 367.011C708.527 366.766 708.427 366.471 708.382 366.124C708.35 365.868 708.359 365.629 708.411 365.407C708.463 365.184 708.555 364.985 708.688 364.81C708.82 364.635 708.994 364.491 709.207 364.377C709.421 364.264 709.673 364.188 709.965 364.151C710.156 364.127 710.35 364.124 710.547 364.143C710.745 364.159 710.936 364.194 711.121 364.245L710.933 364.861C710.781 364.819 710.63 364.785 710.478 364.759C710.327 364.733 710.181 364.729 710.041 364.747Z" fill="#332E63"/>
<path d="M707.747 366.195C707.78 366.456 707.774 366.698 707.728 366.921C707.681 367.143 707.592 367.341 707.461 367.514C707.332 367.687 707.157 367.83 706.938 367.943C706.719 368.054 706.452 368.129 706.138 368.169C705.824 368.21 705.547 368.204 705.307 368.151C705.066 368.098 704.861 368.003 704.69 367.869C704.521 367.734 704.386 367.564 704.285 367.359C704.184 367.155 704.117 366.921 704.083 366.659C704.039 366.31 704.065 365.997 704.161 365.722C704.26 365.445 704.436 365.217 704.689 365.039C704.943 364.861 705.279 364.745 705.699 364.692C706.116 364.638 706.468 364.666 706.755 364.775C707.043 364.884 707.269 365.06 707.432 365.303C707.597 365.547 707.702 365.844 707.747 366.195ZM704.939 366.555C704.969 366.79 705.029 366.989 705.117 367.152C705.207 367.312 705.33 367.43 705.486 367.504C705.641 367.576 705.833 367.598 706.061 367.569C706.293 367.539 706.475 367.47 706.607 367.36C706.739 367.25 706.827 367.105 706.87 366.928C706.915 366.748 706.922 366.541 706.892 366.305C706.847 365.951 706.735 365.681 706.559 365.497C706.382 365.313 706.12 365.244 705.775 365.288C705.545 365.317 705.363 365.387 705.229 365.498C705.097 365.608 705.008 365.752 704.961 365.932C704.916 366.11 704.909 366.317 704.939 366.555Z" fill="#332E63"/>
<path d="M703.462 366.714C703.51 367.095 703.468 367.423 703.334 367.7C703.201 367.976 702.986 368.198 702.689 368.368C702.391 368.536 702.021 368.648 701.579 368.704L700.49 368.844L700.058 365.466L701.265 365.312C701.669 365.26 702.027 365.278 702.34 365.367C702.652 365.453 702.906 365.61 703.1 365.835C703.295 366.059 703.415 366.352 703.462 366.714ZM702.617 366.841C702.585 366.592 702.516 366.392 702.412 366.243C702.308 366.092 702.17 365.988 701.997 365.932C701.826 365.875 701.621 365.862 701.383 365.893L700.948 365.949L701.23 368.148L701.58 368.103C701.978 368.052 702.262 367.921 702.431 367.71C702.602 367.499 702.664 367.209 702.617 366.841Z" fill="#332E63"/>
<path d="M697.865 365.141L698.433 369.577" stroke="#332E63" stroke-width="0.6"/>
<path d="M702.266 352.513C702.266 355.798 699.673 358.897 695.196 361.205C690.745 363.499 684.561 364.933 677.703 364.933C670.845 364.933 664.661 363.499 660.21 361.205C655.733 358.897 653.14 355.798 653.14 352.513C653.14 349.229 655.733 346.13 660.21 343.822C664.661 341.527 670.845 340.093 677.703 340.093C684.561 340.093 690.745 341.527 695.196 343.822C699.673 346.13 702.266 349.229 702.266 352.513Z" fill="#332E63" stroke="black"/>
<mask id="mask1_1703_43292" style="mask-type:luminance" maskUnits="userSpaceOnUse" x="659" y="340" width="44" height="23">
<path d="M700.786 340.88L659.561 344.313L661.073 362.468L702.297 359.035L700.786 340.88Z" fill="white"/>
</mask>
<g mask="url(#mask1_1703_43292)">
<path d="M694.181 352.167C693.038 351.565 690.417 350.915 689.042 349.243C687.628 347.526 688.075 345.816 687.982 344.701C687.857 343.199 686.037 342.123 683.918 342.299C681.798 342.476 680.181 343.838 680.306 345.34C680.384 346.275 680.434 348.742 680.108 350.053C680.009 350.451 679.832 350.674 679.698 350.831C679.185 351.436 677.642 352.213 675.98 351.567C675.51 351.393 675.082 351.051 674.849 350.606C674.357 349.662 674.58 346.786 674.303 345.574C674.3 345.564 674.298 345.554 674.295 345.544C674.251 345.355 674.192 345.192 674.111 345.059C673.541 343.982 672.009 343.291 670.278 343.435C668.158 343.612 666.541 344.974 666.666 346.476C666.733 347.282 667.288 347.965 668.116 348.398C669.259 349.001 671.88 349.65 673.256 351.323C674.668 353.039 674.221 354.75 674.314 355.864C674.439 357.367 676.259 358.443 678.378 358.266C679.985 358.133 681.304 357.317 681.791 356.275C682.581 354.721 680.88 352.252 682.01 350.21C682.231 349.81 682.497 349.594 682.767 349.386C683.331 348.956 685.169 348.373 686.608 349.403C686.976 349.698 687.093 349.939 687.195 350.179C687.626 351.199 687.589 354.539 688.185 355.508C688.757 356.583 690.287 357.272 692.015 357.128C694.134 356.952 695.751 355.59 695.626 354.087C695.559 353.281 695.005 352.599 694.176 352.166L694.181 352.167Z" fill="url(#paint1_linear_1703_43292)"/>
<path d="M664.739 359.4C666.858 359.224 668.475 357.863 668.35 356.359C668.225 354.856 666.405 353.781 664.286 353.958C662.166 354.134 660.549 355.495 660.674 356.999C660.799 358.502 662.619 359.577 664.739 359.4Z" fill="url(#paint2_linear_1703_43292)"/>
</g>
<path d="M737.392 47.1953C754.697 56.4103 757.948 69.5424 757.411 74.9566L721.169 81.05L737.392 47.1953Z" fill="#AFA2FF" stroke="black"/>
<path d="M747.39 49.4211C751.584 51.5128 755.497 57.9238 756.929 60.8678L771.222 51.9L757.113 35.9309L747.39 49.4211Z" fill="#AFA2FF" stroke="black"/>
<path d="M1917.33 393.181C1901.72 405.037 1888.43 402.49 1883.74 399.734L1893.38 364.272L1917.33 393.181Z" fill="#AFA2FF" stroke="black"/>
<path d="M1911.12 401.329C1907.47 404.262 1900.01 405.13 1896.73 405.197L1898.89 421.932L1919.3 415.807L1911.12 401.329Z" fill="#AFA2FF" stroke="black"/>
<path d="M1962.52 239.186L1957.33 241.555C1951.41 244.429 1879.69 127.373 1913.17 127.038C1946.65 126.703 1959.27 138.15 1962.52 147.823V239.186Z" fill="#745EFF" stroke="black" stroke-width="2"/>
<path d="M1956.31 241.554L1928.75 240.265C1897.02 204.097 1840.29 137.642 1884.76 129.114C1929.23 120.586 1949.35 135.28 1956.31 148.647V241.554Z" fill="#5942E3" stroke="black" stroke-width="2"/>
<path d="M1932.1 262.599V217.855L1868.94 221.032L1868.94 265.919C1876.41 279.398 1929.47 275.024 1932.1 262.599Z" fill="#5942E3" stroke="black" stroke-width="2"/>
<path d="M1898.58 251.276H1891.16L1859.2 130.383C1914.14 120.396 1941.45 139.214 1949 149.398V236.958L1898.58 251.276Z" fill="#745EFF" stroke="black" stroke-width="2"/>
<path d="M1906.25 143.613V255.069L1898.18 258.687H1837.76L1821.64 146.267C1850.19 119.819 1884.36 124.027 1906.25 143.613Z" fill="#5942E3" stroke="black" stroke-width="2"/>
<path d="M1897.15 146.485V258.688H1821.47V146.485C1850.03 120.037 1883.82 135.465 1897.15 146.485Z" fill="#745EFF" stroke="black" stroke-width="2"/>
<path d="M1889.09 152.435V258.687H1827.73V152.435C1850.88 127.39 1878.28 142 1889.09 152.435Z" fill="#745EFF" stroke="black" stroke-width="2"/>
<path d="M1827.73 167.173H1887.17V187.066H1827.73V167.173Z" fill="#745EFF" stroke="black" stroke-width="2"/>
<path d="M1832.76 172.512H1882.13V181.725H1832.76V172.512Z" fill="#332E63" stroke="black" stroke-width="2"/>
<path d="M1876.58 197.062C1876.69 187.077 1881.04 177.75 1881.04 177.75H1833.68C1830.33 180.199 1828.31 191.645 1827.73 197.062H1876.58Z" fill="#AFA2FF" stroke="black" stroke-width="2"/>
<path fill-rule="evenodd" clip-rule="evenodd" d="M1871.17 184.705H1872.73V187.535H1871.17V184.705ZM1851.27 184.705H1852.83V187.535H1851.27V184.705ZM1862.77 184.705H1861.21V187.535H1862.77V184.705ZM1841.31 184.705H1842.87V187.535H1841.31V184.705ZM1869.41 184.705H1867.85V187.535H1869.41V184.705ZM1847.94 184.705H1849.5V187.535H1847.94V184.705ZM1859.46 184.705H1857.89V187.535H1859.46V184.705ZM1838 184.705H1839.56V187.535H1838V184.705ZM1866.1 184.705H1864.54V187.535H1866.1V184.705ZM1844.62 184.705H1846.19V187.535H1844.62V184.705ZM1856.14 184.705H1854.58V187.535H1856.14V184.705ZM1834.68 184.705H1836.24V187.535H1834.68V184.705Z" fill="#383838"/>
<path d="M1851.53 238.761H1865.29C1867.31 238.761 1868.95 240.398 1868.95 242.418C1868.95 244.438 1867.31 246.076 1865.29 246.076H1851.53C1849.51 246.076 1847.87 244.438 1847.87 242.418C1847.87 240.398 1849.51 238.761 1851.53 238.761Z" fill="#23FFA3" stroke="black" stroke-width="2"/>
<path d="M1836.34 264.245V258.687H1880.48V264.245H1836.34Z" fill="#5942E3" stroke="black" stroke-width="2"/>
<path d="M1917.63 176.983L1917.58 176.974H1917.54C1915.61 176.974 1913.76 175.57 1912.36 173.071C1910.98 170.589 1910.1 167.126 1910.1 163.274C1910.1 159.422 1910.98 155.959 1912.36 153.477C1913.76 150.979 1915.61 149.574 1917.54 149.574H1917.58L1917.62 149.566C1920.14 149.125 1922.08 149.301 1923.57 149.892C1925.05 150.48 1926.13 151.495 1926.92 152.812C1928.52 155.48 1928.91 159.357 1928.91 163.274C1928.91 167.186 1928.47 171.089 1926.84 173.77C1926.04 175.095 1924.95 176.113 1923.48 176.696C1922 177.282 1920.1 177.446 1917.63 176.983Z" fill="#5942E3" stroke="black"/>
<path d="M1930.09 163.274C1930.09 167.126 1929.22 170.589 1927.83 173.071C1926.44 175.57 1924.59 176.974 1922.66 176.974C1920.73 176.974 1918.88 175.57 1917.48 173.071C1916.1 170.589 1915.22 167.126 1915.22 163.274C1915.22 159.422 1916.1 155.959 1917.48 153.477C1918.88 150.979 1920.73 149.574 1922.66 149.574C1924.59 149.574 1926.44 150.979 1927.83 153.477C1929.22 155.959 1930.09 159.422 1930.09 163.274Z" fill="#745EFF" stroke="black"/>
<path d="M1918.95 166.461V97.9409C1918.95 91.8009 1926.41 92.5839 1926.66 98.2719V166.461C1926.2 171.623 1919.28 170.845 1918.95 166.461Z" fill="#5942E3" stroke="black"/>
<path d="M1921.47 166.461V97.9409C1921.47 91.8009 1926.83 92.5839 1927.01 98.2719V166.461C1926.67 171.623 1921.7 170.845 1921.47 166.461Z" fill="#745EFF" stroke="black"/>
<path d="M1935.16 95.1301C1932.87 96.3319 1927.1 96.1316 1924.51 95.1301V121.498C1927.51 122.09 1934.43 122.7 1938.03 120.405C1941.64 118.11 1947.73 118.72 1950.33 119.312V95.1301C1948.42 92.2612 1938.03 93.6278 1935.16 95.1301Z" fill="#745EFF" stroke="black"/>
<mask id="mask2_1703_43292" style="mask-type:luminance" maskUnits="userSpaceOnUse" x="1930" y="102" width="18" height="12">
<path d="M1947.35 102.927H1930.6V113.3H1947.35V102.927Z" fill="white"/>
</mask>
<g mask="url(#mask2_1703_43292)">
<path d="M1945.59 109.594C1945.11 109.16 1943.98 108.621 1943.43 107.511C1942.87 106.372 1943.13 105.332 1943.13 104.635C1943.13 103.695 1942.37 102.933 1941.42 102.933C1940.48 102.933 1939.72 103.695 1939.72 104.635C1939.72 105.219 1939.65 106.755 1939.46 107.552C1939.4 107.794 1939.31 107.924 1939.25 108.014C1939 108.363 1938.29 108.766 1937.58 108.279C1937.38 108.147 1937.2 107.912 1937.11 107.624C1936.93 107.012 1937.13 105.236 1937.06 104.47C1937.06 104.463 1937.06 104.457 1937.05 104.45C1937.04 104.331 1937.02 104.226 1936.99 104.14C1936.78 103.441 1936.13 102.933 1935.36 102.933C1934.42 102.933 1933.65 103.695 1933.65 104.635C1933.65 105.139 1933.87 105.592 1934.22 105.904C1934.7 106.337 1935.84 106.876 1936.38 107.987C1936.94 109.126 1936.68 110.165 1936.68 110.863C1936.68 111.802 1937.45 112.565 1938.39 112.565C1939.1 112.565 1939.72 112.126 1939.97 111.504C1940.38 110.58 1939.72 108.958 1940.29 107.748C1940.4 107.511 1940.53 107.391 1940.66 107.276C1940.92 107.037 1941.75 106.771 1942.35 107.484C1942.5 107.687 1942.55 107.843 1942.58 107.997C1942.73 108.653 1942.6 110.726 1942.82 111.359C1943.04 112.056 1943.69 112.563 1944.45 112.563C1945.4 112.563 1946.16 111.801 1946.16 110.861C1946.16 110.357 1945.94 109.904 1945.59 109.592L1945.59 109.594Z" fill="url(#paint3_linear_1703_43292)"/>
<path d="M1932.32 112.566C1933.27 112.566 1934.03 111.804 1934.03 110.863C1934.03 109.923 1933.27 109.161 1932.32 109.161C1931.38 109.161 1930.62 109.923 1930.62 110.863C1930.62 111.804 1931.38 112.566 1932.32 112.566Z" fill="url(#paint4_linear_1703_43292)"/>
</g>
<path d="M1045.12 317.98L1102.39 335.46L1090.35 370.97L1033.46 352.652L1045.12 317.98Z" fill="#EBFF00"/>
<path d="M1045.12 317.98L1102.39 335.46M1045.12 317.98L1033.46 352.652L1090.35 370.97L1102.39 335.46M1045.12 317.98L1068.75 344.526L1102.39 335.46" stroke="black" stroke-width="2"/>
<path d="M1387.03 65.8069L1448.13 80.4461L1439.42 115.329L1378.62 99.8623L1387.03 65.8069Z" fill="#EBFF00"/>
<path d="M1387.03 65.8069L1448.13 80.4461M1387.03 65.8069L1378.62 99.8623L1439.42 115.329L1448.13 80.4461M1387.03 65.8069L1414.28 90.5769L1448.13 80.4461" stroke="black" stroke-width="2"/>
<path d="M652.32 209.888L702.106 221.837L695.04 250.172L645.503 237.551L652.32 209.888Z" fill="#EBFF00"/>
<path d="M652.32 209.888L702.106 221.837M652.32 209.888L645.503 237.551L695.04 250.172L702.106 221.837M652.32 209.888L674.539 230.038L702.106 221.837" stroke="black" stroke-width="2"/>
<path d="M1852.85 92.1699L1903.68 84.5034L1907.79 113.531L1856.94 120.479L1852.85 92.1699Z" fill="#EBFF00"/>
<path d="M1852.85 92.1699L1903.68 84.5034M1852.85 92.1699L1856.94 120.479L1907.79 113.531L1903.68 84.5034M1852.85 92.1699L1881.12 102.534L1903.68 84.5034" stroke="black" stroke-width="2"/>
<circle cx="1553.35" cy="339.822" r="11.834" fill="#AFA2FF"/>
<circle cx="1163.27" cy="346.157" r="7.58203" fill="#AFA2FF"/>
<circle cx="1509.56" cy="83.5818" r="7.58203" fill="#AFA2FF"/>
<path d="M1683.33 283.418L1747.82 284.488L1746.33 323.316L1681.98 321.302L1683.33 283.418Z" fill="#EBFF00"/>
<path d="M1683.33 283.418L1747.82 284.488M1683.33 283.418L1681.98 321.302L1746.33 323.316L1747.82 284.488M1683.33 283.418L1715.89 303.129L1747.82 284.488" stroke="black" stroke-width="2"/>
<path d="M879.263 273.16C879.263 276.131 877.323 278.898 874.022 280.948C870.729 282.994 866.149 284.275 861.063 284.275C855.977 284.275 851.396 282.994 848.103 280.948C844.803 278.898 842.862 276.131 842.862 273.16C842.862 270.188 844.803 267.421 848.103 265.371C851.396 263.325 855.977 262.044 861.063 262.044C866.149 262.044 870.729 263.325 874.022 265.371C877.323 267.421 879.263 270.188 879.263 273.16Z" fill="black" stroke="black"/>
<path d="M929.398 187.563C929.081 198.145 926.359 198.385 925.038 197.182C925.657 198.744 929.055 202.319 937.688 204.131C948.479 206.395 963.749 220.807 968.025 232.13C971.445 241.189 975.052 266.492 976.68 275.551C976.884 271.845 976.5 258.685 975.138 249.63C974.002 242.075 963.068 185.158 949.194 173.934C935.32 162.711 929.794 174.335 929.398 187.563Z" fill="#23FFA3" stroke="black" stroke-width="2"/>
<path d="M834.648 314.029C835.211 313.459 840.404 306.546 842.929 303.16C843.413 302.797 844.567 302.532 845.31 304.382C846.053 306.232 851.719 310.839 854.458 312.91C854.554 309.66 854.916 302.552 855.602 300.118C856.46 297.076 860.677 294.047 866.68 295.348C872.684 296.649 877.687 303.66 879.617 307.201C881.161 310.034 882.357 316.861 882.762 319.921C886.788 319.849 896.842 319.444 904.847 318.403C914.853 317.102 925.216 314.645 932.078 313.561C937.567 312.694 938.425 312.488 943.952 309.958L951.824 314.084L960.261 319.719C961.905 320.996 974.001 326.07 977.86 327.081C988.544 329.88 995.366 327.422 995.509 328.868C995.623 330.024 998.811 333.822 995.509 340.566L985.874 348.558L974.029 350.323C972.232 351.043 960.336 348.558 956.656 348.558C952.977 348.558 949.532 344.797 944.892 342.402L927.793 340.487L879.617 339.498L878.084 337.821C876.812 341.037 873.589 348.398 870.875 352.114C867.483 356.759 859.921 358.617 846.847 355.759C836.388 353.472 834.356 344.448 834.648 340.221H810.515C810.104 338.024 814.023 331.931 815.72 329.246C817.691 326.128 823.194 322.225 825.485 320.978C828.304 318.899 834.084 314.599 834.648 314.029Z" fill="#23FFA3"/>
<path d="M884.421 198.015C891.688 188.15 896.939 184.551 901.088 184.429C898.225 187.507 901.955 191.196 907.408 187.196C911.771 183.995 918.281 184.676 920.991 185.416C920.991 185.416 913.489 188.336 917.724 194.037C919.665 196.031 925.14 198.278 930.819 194.037C934.27 191.461 941.327 192.324 944.856 196.323C944.856 196.323 939.424 197.463 941.092 199.224C943.282 201.537 949.639 196.95 953.639 203.302C953.639 203.302 949.105 202.001 949.105 204.476C954.518 207.551 965.216 220.04 968.537 233.497C971.857 246.953 975.751 259.195 976.735 272.956C977.621 285.359 969.996 295.13 959.245 302.603C945.806 311.944 921.368 316.229 902.41 318.713C883.453 321.196 869.423 320.091 856.262 313.75C842.625 307.18 837.783 290.723 836.064 284.271C834.689 279.109 833.599 281.285 833.226 283.018C833.689 291.741 829.526 307.074 809.167 298.624C783.719 288.061 770.169 257.531 767.836 236.54C765.503 215.549 771.476 191.124 800.738 185.485C830.001 179.846 846.554 199.117 853.823 202.865C863.518 207.864 875.834 209.672 884.421 198.015Z" fill="#23FFA3" stroke="#010101" stroke-width="2"/>
<path d="M854.211 310.4H858.499L882.338 317.25V322.54L854.811 316.816L854.211 310.4Z" fill="#23FFA3"/>
<path d="M846.204 337.359C847.138 334.97 851.569 331.841 853.249 329.834C855.349 327.326 857.411 320.228 852.295 307.898C846.291 293.43 857.39 287.753 865.763 292.174C869.357 294.072 878.157 302.343 880.339 309.286C882.315 315.573 882.914 322.123 880.339 331.639C877.965 340.414 875.357 363.063 848.132 355.946C826.351 350.252 835.813 327.95 843.266 317.512" stroke="black" stroke-width="2"/>
<path d="M942.24 280.163C955.274 277.219 955.438 263.186 953.486 254.044C951.273 246.232 946.868 238.896 929.221 243.576C911.573 248.255 913.088 257.258 916.303 263.904C920.366 272.304 929.205 283.108 942.24 280.163Z" fill="#745EFF" stroke="#010101" stroke-width="2"/>
<path d="M951.475 268.708C952.178 266.117 953.722 265.899 954.051 267.547C952.426 274.389 951.091 278.032 941.884 279.53C953.321 275.496 950.366 272.793 951.475 268.708Z" fill="#010101"/>
<path d="M928.104 270.356C924.426 270.08 924.554 273.656 925.204 275.23C930.508 280.483 934.999 281.723 943.857 279.077C931.618 280.474 932.74 270.702 928.104 270.356Z" fill="#010101"/>
<path fill-rule="evenodd" clip-rule="evenodd" d="M859.787 204.426C855.735 202.605 852.088 201.551 848.337 202.232C844.582 202.914 840.922 205.295 836.738 209.874L835.432 211.304L837.348 211.541C839.395 211.795 841.564 212.828 843.004 214.539C844.414 216.213 845.176 218.592 844.368 221.716C843.817 223.846 842.787 225.205 841.587 226.086C840.37 226.979 838.915 227.426 837.467 227.607C836.02 227.789 834.629 227.699 833.589 227.56C833.072 227.491 832.649 227.41 832.358 227.348C832.213 227.316 832.101 227.29 832.027 227.271C831.991 227.262 831.963 227.255 831.947 227.251L831.929 227.246L831.927 227.246L831.926 227.246L831.926 227.245L831.926 227.245L831.926 227.245L828.365 226.257L830.938 228.908L830.938 228.908L830.938 228.909L830.939 228.91L830.939 228.91L830.951 228.923C830.963 228.935 830.983 228.956 831.009 228.985C831.062 229.043 831.142 229.134 831.245 229.257C831.451 229.503 831.748 229.876 832.096 230.372C832.793 231.364 833.693 232.842 834.487 234.767C835.336 236.822 836.065 239.39 836.293 242.426C836.743 245.654 836.624 248.414 836.531 250.594C836.516 250.935 836.502 251.263 836.491 251.575C837.355 249.427 838.77 245.223 837.507 237.521C837.175 236.228 836.77 235.051 836.335 233.995C835.577 232.16 834.728 230.694 834.012 229.624C835.063 229.726 836.353 229.763 837.707 229.594C839.376 229.385 841.189 228.855 842.764 227.699C844.356 226.53 845.641 224.766 846.302 222.21C847.27 218.469 846.367 215.421 844.534 213.244C843.169 211.624 841.319 210.518 839.423 209.943C842.926 206.396 845.868 204.713 848.686 204.202C851.828 203.631 855.015 204.478 858.962 206.253L859.787 204.426Z" fill="#010101"/>
<path d="M924.532 285.069C922.096 285.069 919.7 287.958 920.242 289.584" stroke="black" stroke-width="2"/>
<path d="M943.566 310.036C947.887 311.502 957.296 318.334 960.286 320.035C965.951 323.257 978.633 328.365 993.11 328.365C1001.93 328.365 996.86 347.129 980.048 349.379C975.941 349.929 961.444 353.483 949.375 344.389C941.554 338.497 924.807 340.818 878.435 339.669" stroke="black" stroke-width="2"/>
<path d="M909.631 271.251C908.797 258.306 899.828 243.941 887.716 237.13C863.21 223.352 858.458 249.171 859.988 260.412C861.517 271.652 862.564 283.367 871.757 283.367C886.659 283.367 888.629 292.506 899.875 292.506C904.109 292.506 910.675 287.432 909.631 271.251Z" fill="#EBFF00" stroke="black" stroke-width="2"/>
<path d="M921.774 286.511C927.411 293.438 937.705 286.883 944.216 284.949C949.72 283.314 960.146 284.423 959.414 277.697" stroke="black" stroke-width="2"/>
<path d="M957.237 277.688C959.376 277.285 960.956 277.58 962.345 279.298" stroke="black" stroke-width="2"/>
<path d="M843.557 302.425C841.03 307.438 833.369 316.364 828.318 319.292C814.244 327.453 811.573 334.234 810.516 340.395H834.241" stroke="black" stroke-width="2"/>
<path d="M955.373 228.986C954.366 217.28 959.357 217.534 961.979 219.125C968.585 228.031 980.573 276.593 975.54 278.183C970.507 279.774 964.21 274.118 962.383 268.39C961.29 264.965 956.631 243.618 955.373 228.986Z" fill="#EBFF00" stroke="black" stroke-width="2"/>
<path d="M969.794 244.462C970.473 245.57 970.652 246.827 970.68 247.208C970.651 247.233 970.606 247.267 970.536 247.312C970.319 247.451 969.975 247.621 969.478 247.852C969.299 247.934 969.104 248.023 968.892 248.12C967.945 248.552 966.669 249.135 965.099 249.96C964.379 250.338 963.729 250.713 963.158 251.042C962.934 251.171 962.722 251.293 962.523 251.405C961.793 251.818 961.258 252.087 960.851 252.186C960.656 252.233 960.526 252.231 960.438 252.209C960.36 252.19 960.284 252.149 960.203 252.05C960.015 251.822 959.829 251.332 959.703 250.369C959.703 250.359 959.703 250.346 959.703 250.329C959.704 250.282 959.706 250.209 959.71 250.116C959.719 249.93 959.739 249.659 959.781 249.33C959.865 248.67 960.04 247.784 960.397 246.871C961.11 245.055 962.527 243.166 965.416 242.677C966.635 242.47 967.545 242.637 968.232 242.978C968.922 243.322 969.426 243.861 969.794 244.462Z" fill="#1D1D1D" stroke="black"/>
<path d="M967.125 243.981C967.209 244.179 967.18 244.508 966.86 244.932C966.549 245.344 966.019 245.76 965.332 246.053C964.646 246.345 963.978 246.439 963.466 246.378C962.939 246.315 962.681 246.109 962.597 245.911C962.513 245.713 962.542 245.385 962.862 244.96C963.173 244.549 963.703 244.132 964.389 243.84C965.076 243.547 965.743 243.453 966.255 243.514C966.783 243.577 967.04 243.784 967.125 243.981Z" fill="white" stroke="black"/>
<path d="M906.402 272.374C906.05 272.239 905.596 272.068 905.055 271.872C903.68 271.373 901.739 270.709 899.471 270.044C894.946 268.717 889.084 267.378 883.824 267.378L868.692 267.378L864.387 267.378L863.678 267.378C863.678 267.378 863.679 267.377 863.679 267.377C863.934 266.918 864.321 266.266 864.845 265.498C865.895 263.96 867.49 261.968 869.674 260.141C874.023 256.501 880.715 253.505 890.155 256.108C894.692 257.705 898.804 261.321 901.794 264.913C903.286 266.707 904.487 268.481 905.312 269.968C905.725 270.713 906.04 271.379 906.25 271.935C906.31 272.093 906.361 272.24 906.402 272.374Z" fill="#1D1D1D" stroke="black"/>
<path d="M888.596 260.203C887.154 259.975 885.918 259.489 885.085 258.91C884.22 258.309 883.929 257.718 883.997 257.289C884.065 256.86 884.524 256.389 885.532 256.084C886.503 255.79 887.829 255.708 889.27 255.936C890.712 256.164 891.948 256.65 892.781 257.229C893.646 257.83 893.938 258.421 893.87 258.85C893.802 259.279 893.343 259.75 892.335 260.055C891.364 260.349 890.038 260.431 888.596 260.203Z" fill="white" stroke="black"/>
<path d="M1970.82 165.447C1964.97 159.982 1963.52 160.993 1963.52 160.993V189.463C1963.52 189.463 1971.12 189.463 1969.06 198.961C1961.39 210.095 1942.1 213.692 1932.41 214.817C1929.2 215.189 1926.66 217.86 1926.66 221.086V259.302C1926.66 262.615 1929.38 265.328 1932.69 265.101C1973.48 262.304 1976.09 231.222 1976.09 231.222V181.68C1976.18 180.594 1976.18 179.51 1976.09 178.432C1975.71 173.689 1974.27 168.66 1970.82 165.447Z" fill="#387659" fill-opacity="0.5"/>
<path d="M1976.09 178.432C1975.71 173.689 1974.27 168.66 1970.82 165.447C1964.97 159.982 1963.52 160.993 1963.52 160.993V189.463C1963.52 189.463 1971.12 189.463 1969.06 198.961M1976.09 178.432V231.222C1976.09 231.222 1973.48 262.304 1932.69 265.101C1929.38 265.328 1926.66 262.615 1926.66 259.302V221.086C1926.66 217.86 1929.2 215.189 1932.41 214.817C1942.1 213.692 1961.39 210.095 1969.06 198.961M1976.09 178.432C1976.64 185.283 1973.59 192.386 1969.06 198.961" stroke="black"/>
<path opacity="0.4" d="M1926.66 221.086V259.301C1926.66 262.615 1929.38 265.327 1932.69 265.1C1973.48 262.303 1976.09 231.221 1976.09 231.221V181.68C1976.18 180.593 1976.18 179.509 1976.09 178.432V181.68C1975.64 187.503 1972.88 193.419 1969.06 198.96C1961.39 210.094 1942.1 213.691 1932.41 214.816C1929.2 215.188 1926.66 217.859 1926.66 221.086Z" fill="#23FFA3" stroke="black"/>
<path d="M1675.93 97.7176C1676.27 108.877 1679.14 109.13 1680.53 107.862C1679.88 109.509 1676.29 113.279 1667.19 115.189C1655.81 117.578 1639.71 132.775 1635.2 144.717C1631.59 154.27 1627.79 180.953 1626.07 190.506C1625.86 186.598 1626.26 172.72 1627.7 163.171C1628.9 155.203 1640.43 95.1814 1655.06 83.3459C1669.69 71.5104 1675.51 83.7686 1675.93 97.7176Z" fill="#23FFA3" stroke="black" stroke-width="2"/>
<path d="M1630.26 129.801C1626.53 139.793 1625.23 149.285 1626.1 156.538C1626.98 163.861 1630.02 168.576 1634.58 169.667C1635.64 169.92 1636.35 169.75 1636.89 169.384C1637.5 168.98 1638.08 168.215 1638.61 166.973C1639.68 164.482 1640.29 160.654 1640.84 155.954C1641.01 154.447 1641.17 152.858 1641.35 151.209C1642.23 142.725 1643.27 132.666 1646.48 124.086C1650.12 114.328 1653.7 110.232 1655.34 108.366C1655.42 108.27 1655.5 108.179 1655.57 108.095C1655.58 108.09 1655.58 108.086 1655.58 108.082C1655.35 108.032 1655.04 107.974 1654.65 107.899L1654.64 107.898C1653.87 107.75 1652.84 107.55 1651.53 107.237C1649.05 106.645 1647.01 106.561 1645.24 106.991C1643.49 107.416 1641.89 108.367 1640.3 110.034C1637.06 113.445 1634.05 119.671 1630.26 129.801ZM1656.21 108.248C1656.21 108.248 1656.21 108.248 1656.21 108.246C1656.21 108.248 1656.21 108.248 1656.21 108.248Z" fill="#5942E3" stroke="black" stroke-width="2"/>
<path d="M1628.78 128.064L1628.78 128.08L1628.77 128.096C1623.86 139.992 1622.45 149.411 1623.28 156.052C1623.88 160.901 1625.64 164.165 1628 165.929C1627.61 164.866 1627.26 163.483 1627.06 161.711C1626.46 156.443 1627.22 147.752 1632.42 133.839C1637.28 120.842 1642.17 113.754 1645.94 109.895C1647.51 108.278 1648.89 107.228 1649.98 106.549C1648.3 106.186 1646.75 106.146 1645.3 106.401C1643.24 106.766 1641.3 107.747 1639.43 109.417C1635.63 112.804 1632.19 118.941 1628.78 128.064Z" fill="#745EFF" stroke="black" stroke-width="2"/>
<path d="M1768.28 217.51C1772.19 219.438 1774.89 225.812 1777.74 228.181C1783.1 232.65 1785.3 232.383 1788.28 234.575C1790.69 235.89 1796.14 242.181 1798.22 245.469C1800.01 248.3 1801.73 256.387 1801.3 258.704H1775.85C1776.16 263.161 1775.85 289.662 1764.6 299.884C1756.55 307.207 1738.73 309.361 1738.01 299.884C1737.33 290.948 1744.44 268.271 1742.48 261.394C1741.15 256.727 1734.99 258.704 1730.32 257.941H1728.43H1697.85L1687.54 261.394C1682.65 263.919 1687.54 276.973 1697.85 292.552C1699.99 295.788 1701.82 302.017 1697.85 303.778L1684.34 305.84L1669.22 299.884C1668.36 296.911 1661.1 291.178 1655.16 271.245C1654.23 268.127 1650.98 263.603 1649.95 251.432C1649.6 247.241 1648.22 232.429 1649.95 231.083L1651.87 223.293L1656.89 225.254C1662.72 227.922 1667.31 229.675 1673.1 230.589C1680.34 231.733 1691.27 234.324 1701.82 235.696C1710.21 236.787 1720.74 237.215 1725.03 237.295C1725.09 236.49 1725.33 235.622 1725.11 237.296C1725.08 237.296 1725.06 237.295 1725.03 237.295C1724.98 238.041 1725.09 238.734 1725.87 237.296C1727.9 233.562 1726.55 237.068 1732.88 235.696C1736.08 235.001 1736.35 233.003 1735.95 231.618C1735.41 231.553 1735.07 231.386 1734.99 231.083C1734.54 229.5 1735.56 230.268 1735.95 231.618C1739.97 232.103 1754.87 226.881 1754.96 229.903C1757.85 227.718 1763.82 222.861 1764.6 220.91C1765.39 218.959 1767.77 217.127 1768.28 217.51Z" fill="#23FFA3"/>
<path d="M1722.79 108.381C1715.12 97.9776 1709.59 94.1831 1705.21 94.0539C1708.23 97.3002 1704.3 101.19 1698.55 96.9717C1693.94 93.5968 1687.08 94.3143 1684.22 95.095C1684.22 95.095 1692.13 98.1737 1687.67 104.187C1685.62 106.288 1679.85 108.658 1673.86 104.187C1670.22 101.47 1662.78 102.379 1659.05 106.597C1659.05 106.597 1664.78 107.799 1663.02 109.657C1660.71 112.096 1655.08 105.193 1650.87 111.891C1650.87 111.891 1654.57 112.585 1654.57 115.195C1648.87 118.437 1637.58 131.608 1634.08 145.798C1630.58 159.989 1626.47 172.899 1625.44 187.411C1624.5 200.489 1632.54 210.794 1643.88 218.674C1658.05 228.525 1683.82 233.043 1703.82 235.663C1723.81 238.282 1738.6 237.116 1752.48 230.429C1766.86 223.501 1771.97 206.147 1773.78 199.342C1775.23 193.899 1776.38 196.194 1776.77 198.021C1776.29 207.22 1780.68 223.389 1802.15 214.478C1828.98 203.339 1843.27 171.143 1845.73 149.008C1848.19 126.872 1841.89 101.114 1811.03 95.1675C1780.18 89.2211 1762.72 109.543 1755.05 113.496C1744.83 118.768 1731.84 120.674 1722.79 108.381Z" fill="#23FFA3" stroke="#010101" stroke-width="2"/>
<path d="M1696.15 169.057C1694.97 175.059 1693.73 184.33 1696.11 192.566C1697.29 196.663 1699.36 200.478 1702.77 203.517C1706.17 206.554 1710.98 208.871 1717.7 209.875C1726.19 211.141 1732.64 210.289 1737.49 208.025C1742.33 205.767 1745.68 202.063 1747.91 197.444C1752.38 188.15 1752.26 175.216 1750.38 163.375C1747.96 153.004 1744.08 146.225 1739.11 142.189C1734.15 138.164 1727.99 136.761 1720.78 137.415C1715.71 137.876 1710.72 140.006 1706.42 144.86C1702.1 149.737 1698.43 157.42 1696.15 169.057Z" fill="#A8FFDA" stroke="#010101" stroke-width="2"/>
<circle cx="18.7016" cy="18.7016" r="17.7016" transform="matrix(-0.971046 -0.238893 -0.238893 0.971046 1738.6 167.81)" fill="#1E1E1E" stroke="black" stroke-width="2"/>
<path d="M1733.56 178.024C1731.13 167.628 1721.44 173.726 1717.31 176.67C1716.19 171.136 1708.56 162.67 1703.33 170.612C1696.79 180.54 1710.02 198.11 1711.07 198.243C1712.12 198.376 1736.59 191.019 1733.56 178.024Z" fill="#E47C84" stroke="black" stroke-width="2"/>
<path d="M1775.25 257.675C1775.25 266.808 1776.25 276.139 1767.75 295.77C1761.09 311.162 1734.54 307.25 1737.76 295.77C1748.98 255.784 1737.76 257.674 1737.76 257.674C1737.76 257.674 1726.76 258.433 1705.48 257.674" stroke="black" stroke-width="2"/>
<path d="M1660.64 198.151C1647.15 194.601 1646.98 177.685 1649 166.665C1651.29 157.247 1655.85 148.404 1674.12 154.045C1692.39 159.686 1690.82 170.538 1687.49 178.55C1683.29 188.677 1674.13 201.7 1660.64 198.151Z" fill="#745EFF" stroke="#010101" stroke-width="2"/>
<path d="M1651.09 184.341C1650.36 181.218 1648.76 180.955 1648.42 182.942C1650.1 191.189 1651.48 195.581 1661.02 197.386C1649.18 192.524 1652.23 189.265 1651.09 184.341Z" fill="#010101"/>
<path d="M1675.28 186.327C1679.09 185.995 1678.96 190.306 1678.28 192.204C1672.79 198.535 1668.14 200.03 1658.97 196.841C1671.64 198.525 1670.48 186.745 1675.28 186.327Z" fill="#010101"/>
<path fill-rule="evenodd" clip-rule="evenodd" d="M1748.36 115.346C1752.66 113.413 1756.73 112.376 1760.91 113.14C1765.09 113.905 1769.19 116.442 1773.61 121.286L1774.92 122.716L1773.01 122.953C1770.83 123.222 1768.53 124.317 1767.01 126.133C1765.51 127.912 1764.7 130.439 1765.56 133.75C1766.14 136.008 1767.23 137.453 1768.51 138.389C1769.8 139.339 1771.35 139.812 1772.88 140.004C1774.41 140.196 1775.88 140.101 1776.98 139.954C1777.53 139.881 1777.98 139.795 1778.29 139.729C1778.44 139.696 1778.56 139.668 1778.64 139.649C1778.67 139.639 1778.7 139.632 1778.72 139.627L1778.74 139.622L1778.74 139.621L1778.74 139.621L1778.74 139.621C1778.74 139.621 1778.74 139.621 1778.74 139.621L1782.31 138.633L1779.73 141.284L1779.73 141.284L1779.73 141.284L1779.73 141.285L1779.73 141.286L1779.72 141.299C1779.7 141.313 1779.68 141.335 1779.66 141.366C1779.6 141.428 1779.52 141.524 1779.41 141.654C1779.19 141.915 1778.87 142.309 1778.51 142.834C1777.77 143.883 1776.82 145.445 1775.98 147.479C1775.01 149.814 1774.2 152.774 1774.02 156.301C1773.66 159.394 1773.78 162.054 1773.87 164.188C1773.88 164.549 1773.9 164.894 1773.91 165.224C1773.03 163.026 1771.59 158.788 1772.73 151.121C1773.1 149.482 1773.59 148.007 1774.13 146.707C1774.95 144.72 1775.87 143.144 1776.64 142.011C1775.51 142.127 1774.11 142.175 1772.64 141.99C1770.89 141.771 1768.98 141.214 1767.33 140.002C1765.66 138.777 1764.32 136.928 1763.62 134.245C1762.61 130.316 1763.55 127.12 1765.48 124.839C1766.93 123.115 1768.9 121.946 1770.92 121.35C1767.17 117.564 1763.8 115.704 1760.56 115.109C1756.95 114.45 1753.32 115.314 1749.18 117.173L1748.36 115.346Z" fill="#010101"/>
<path d="M1764.66 113.368C1773.6 117.478 1775.74 131.226 1775.74 157.393C1781.74 159.049 1812.33 152.891 1809.35 132.771C1806.37 112.651 1796.8 102.169 1770.94 94.3557C1751.06 88.3529 1710.03 86.082 1686.92 86.0817C1662.43 86.0815 1651.08 114.196 1645.11 125.311C1654.6 114.467 1667.59 90.4538 1690.91 93.1813C1716.89 96.2187 1742.5 103.186 1764.66 113.368Z" fill="#745EFF" stroke="black" stroke-width="2"/>
<path d="M1774.49 109.119C1783.97 117.796 1782.26 130.441 1782.26 145.542C1788.26 147.198 1811.72 149.312 1808.79 129.185C1804.6 100.434 1783.33 92.0219 1756.95 86.1469C1733.64 80.9538 1720.32 79.9625 1693.45 78.3825C1666.58 76.8024 1651.78 101.254 1639.72 133.039C1639.72 133.039 1658.37 85.0044 1687.04 86.1469C1710.76 87.0926 1759.9 95.7692 1774.49 109.119Z" fill="#745EFF" stroke="black" stroke-width="2"/>
<path d="M1824.13 173.207C1822.66 184.01 1818.41 193.242 1812.78 199.444C1807.15 205.651 1800.21 208.744 1793.31 207.558C1786.41 206.372 1780.62 201.091 1776.89 193.273C1773.16 185.463 1771.56 175.224 1773.02 164.422C1774.49 153.619 1778.74 144.387 1784.37 138.185C1790.01 131.978 1796.94 128.885 1803.84 130.071C1810.74 131.257 1816.53 136.538 1820.26 144.356C1823.99 152.166 1825.59 162.405 1824.13 173.207Z" fill="#AFA2FF" stroke="black" stroke-width="2"/>
<path d="M1824.19 172.798C1822.8 182.982 1818.83 191.688 1813.57 197.539C1808.31 203.396 1801.86 206.308 1795.45 205.207C1789.05 204.106 1783.66 199.159 1780.19 191.801C1776.73 184.451 1775.25 174.807 1776.63 164.622C1778.02 154.438 1781.99 145.731 1787.25 139.881C1792.51 134.024 1798.96 131.111 1805.37 132.212C1811.77 133.313 1817.16 138.261 1820.62 145.619C1824.09 152.968 1825.57 162.613 1824.19 172.798Z" fill="#5942E3" stroke="black" stroke-width="2"/>
<path d="M1825.06 172.478C1823.81 181.694 1820.41 189.6 1815.99 194.939C1811.56 200.293 1806.21 202.939 1801 202.044C1795.8 201.149 1791.4 196.827 1788.59 190.228C1785.78 183.647 1784.64 174.961 1785.9 165.745C1787.15 156.529 1790.54 148.623 1794.96 143.284C1799.4 137.931 1804.75 135.284 1809.95 136.179C1815.16 137.074 1819.56 141.396 1822.37 147.996C1825.17 154.576 1826.31 163.262 1825.06 172.478Z" fill="#745EFF" stroke="black" stroke-width="2"/>
<path d="M1651.35 222.911C1647.94 231.467 1649.12 259.085 1658.13 280.307C1663.18 292.184 1670.36 305.153 1687.55 305.153C1721.81 305.153 1676.31 277.099 1687.55 262.539C1693.11 255.333 1701.67 258.182 1728.22 258.182" stroke="black" stroke-width="2"/>
<path d="M1671.24 219.888C1662.7 222.213 1657.46 216.055 1656.06 212.068L1678.45 216.046C1678.45 216.046 1676.95 218.333 1671.24 219.888Z" fill="#E47C84" stroke="black" stroke-width="2"/>
<path d="M1768.17 215.574C1772.42 224.924 1784.78 231.012 1789.23 235.274C1802.68 248.192 1801.3 252.574 1801.3 258.885L1775.97 258.886" stroke="black" stroke-width="2"/>
<path d="M1648.53 141.401C1649.59 129.056 1644.33 129.325 1641.56 131.002C1634.6 140.394 1621.96 191.605 1627.26 193.282C1632.57 194.959 1639.21 188.995 1641.14 182.954C1642.29 179.342 1647.2 156.832 1648.53 141.401Z" fill="#A8FFDA" stroke="black" stroke-width="2"/>
<path d="M1630.6 163.88C1629.75 167.86 1628.97 172.011 1629.12 175.364C1629.19 177.035 1629.5 178.406 1630.07 179.43C1630.62 180.412 1631.44 181.132 1632.72 181.496C1635.36 182.253 1637.55 181.39 1639.27 179.187C1641.04 176.931 1642.29 173.29 1642.84 168.687C1642.93 167.886 1643.03 167.108 1643.13 166.349C1643.32 164.855 1643.49 163.441 1643.62 162.097C1643.82 160.075 1643.89 158.306 1643.72 156.811C1643.55 155.318 1643.15 154.191 1642.48 153.369C1641.82 152.563 1640.8 151.926 1639.15 151.602C1637.42 151.262 1635.74 152.18 1634.2 154.423C1632.66 156.651 1631.42 159.986 1630.6 163.88Z" fill="#1E1E1E" stroke="black" stroke-width="2"/>
<path d="M1643.72 160.657C1643.11 153.438 1638.18 158.352 1636.07 160.69C1635.83 156.836 1632.64 151.303 1629.74 157.251C1626.11 164.686 1631.47 176.33 1631.97 176.36C1632.46 176.39 1644.48 169.682 1643.72 160.657Z" fill="#E47C84" stroke="black" stroke-width="2"/>
<path d="M1705.28 93.6932C1709.73 93.6045 1716.33 99.5144 1719.07 102.48L1698.83 119.834C1680.95 122.801 1644.62 127.141 1644.62 127.141C1647.88 121.468 1655.57 115.027 1655.57 115.027L1650.57 111.163C1650.57 111.163 1656.4 108.269 1662.41 109.701C1666.48 110.674 1658.44 106.597 1659.78 105.818C1668.44 100.767 1668.58 102.592 1676.81 105.818C1683.4 108.399 1687.78 104.965 1689.26 102.48C1690.24 95.7588 1686.54 94.8136 1685.06 94.7001C1684.87 94.6959 1684.67 94.6938 1684.48 94.6938C1684.48 94.6938 1684.7 94.6728 1685.06 94.7001C1690.81 94.8251 1696.03 96.7796 1702.05 99.2547C1707.04 101.301 1706.28 96.3998 1705.28 93.6932Z" fill="#23FFA3"/>
<path d="M1722.79 108.381C1715.12 97.9779 1709.59 94.1834 1705.21 94.0542C1708.23 97.3005 1704.3 101.191 1698.55 96.972C1693.95 93.5971 1687.08 94.3146 1684.22 95.0953C1684.22 95.0953 1692.13 98.174 1687.67 104.187C1685.62 106.289 1679.85 108.658 1673.86 104.187C1670.22 101.47 1662.78 102.38 1659.06 106.597C1659.06 106.597 1664.78 107.8 1663.03 109.657C1660.72 112.096 1655.08 105.194 1650.87 111.892C1650.87 111.892 1654.57 112.585 1654.57 115.195" stroke="#010101" stroke-width="2"/>
<path d="M1115.23 227.695C1112.18 225.047 1105.02 221.752 1101.58 214.97C1098.03 208.009 1099.68 201.66 1099.68 197.4C1099.68 191.658 1094.85 187 1088.9 187C1082.94 187 1078.12 191.658 1078.12 197.4C1078.12 200.97 1077.68 210.351 1076.47 215.224C1076.1 216.7 1075.56 217.491 1075.15 218.046C1073.57 220.179 1069.09 222.639 1064.6 219.663C1063.34 218.855 1062.22 217.421 1061.67 215.66C1060.52 211.92 1061.81 201.075 1061.32 196.39C1061.31 196.351 1061.31 196.312 1061.3 196.272C1061.22 195.543 1061.1 194.905 1060.9 194.376C1059.56 190.107 1055.45 187 1050.59 187C1044.64 187 1039.81 191.658 1039.81 197.4C1039.81 200.48 1041.2 203.246 1043.41 205.151C1046.46 207.799 1053.61 211.094 1057.06 217.876C1060.6 224.837 1058.96 231.186 1058.96 235.446C1058.96 241.188 1063.79 245.846 1069.74 245.846C1074.25 245.846 1078.12 243.167 1079.72 239.366C1082.28 233.72 1078.11 223.81 1081.74 216.421C1082.45 214.97 1083.24 214.236 1084.04 213.532C1085.71 212.077 1090.98 210.448 1094.75 214.808C1095.71 216.045 1095.98 216.998 1096.21 217.941C1097.17 221.948 1096.29 234.612 1097.73 238.479C1099.08 242.739 1103.18 245.837 1108.04 245.837C1113.99 245.837 1118.82 241.179 1118.82 235.438C1118.82 232.357 1117.43 229.591 1115.22 227.686L1115.23 227.695Z" fill="white"/>
<path d="M1031.45 245.851C1037.4 245.851 1042.23 241.198 1042.23 235.451C1042.23 229.705 1037.4 225.052 1031.45 225.052C1025.5 225.052 1020.67 229.705 1020.67 235.451C1020.67 241.198 1025.5 245.851 1031.45 245.851Z" fill="white"/>
<path fill-rule="evenodd" clip-rule="evenodd" d="M1142.29 201.703H1134.71C1134.27 201.703 1133.92 202.045 1133.92 202.468V245.073C1133.92 245.496 1134.27 245.838 1134.71 245.838H1142.29C1142.73 245.838 1143.09 245.496 1143.09 245.073V215.496L1153.99 227.261C1154.02 227.306 1154.06 227.346 1154.1 227.382L1154.12 227.404L1158.1 231.688L1158.12 231.71L1159.05 232.716C1159.38 232.998 1159.89 232.967 1160.18 232.654L1176.08 215.496V245.073C1176.08 245.496 1176.44 245.838 1176.88 245.838H1184.45C1184.89 245.838 1185.25 245.496 1185.25 245.073V202.468C1185.25 202.045 1184.89 201.703 1184.45 201.703H1176.88C1176.57 201.703 1176.3 201.872 1176.17 202.119L1160.36 219.319C1160.01 219.699 1159.4 219.699 1159.04 219.324L1143.04 202.183C1143.03 202.179 1143.03 202.175 1143.02 202.171C1142.9 201.896 1142.62 201.703 1142.29 201.703Z" fill="white"/>
<path d="M1210.17 209.055C1199.74 209.055 1191.29 217.288 1191.29 227.445C1191.29 237.602 1199.74 245.835 1210.17 245.835C1220.59 245.835 1229.04 237.602 1229.04 227.445C1229.04 217.288 1220.59 209.055 1210.17 209.055ZM1210.17 237.419C1204.52 237.419 1199.93 232.952 1199.93 227.445C1199.93 221.938 1204.52 217.471 1210.17 217.471C1215.82 217.471 1220.41 221.938 1220.41 227.445C1220.41 232.952 1215.82 237.419 1210.17 237.419Z" fill="white"/>
<path d="M1284.43 209.055C1280.71 209.055 1277.24 210.119 1274.34 211.943V209.833C1274.34 209.413 1273.98 209.069 1273.55 209.069H1266.07C1265.64 209.069 1265.28 209.413 1265.28 209.833V252.426C1265.28 252.846 1265.64 253.19 1266.07 253.19H1273.55C1273.98 253.19 1274.34 252.846 1274.34 252.426V242.238C1277.24 244.062 1280.71 245.126 1284.43 245.126C1294.7 245.126 1303.03 237.053 1303.03 227.093C1303.03 217.133 1294.7 209.06 1284.43 209.06V209.055ZM1284.43 236.869C1278.86 236.869 1274.35 232.502 1274.34 227.106V227.066C1274.35 221.675 1278.86 217.303 1284.43 217.303C1289.99 217.303 1294.52 221.684 1294.52 227.084C1294.52 232.484 1290 236.865 1284.43 236.865V236.869Z" fill="white"/>
<path d="M1258.18 209.06H1252.98C1243.09 209.06 1235.08 216.501 1235.08 225.674V240.605C1235.08 240.605 1235.08 240.628 1235.08 240.637V245.055C1235.08 245.484 1235.46 245.835 1235.92 245.835H1243.89C1244.35 245.835 1244.73 245.484 1244.73 245.055V225.013C1244.73 220.18 1248.94 216.259 1254.15 216.259H1258.48C1258.93 216.259 1259.24 215.922 1259.24 215.552V210.045C1259.24 209.498 1258.77 209.055 1258.18 209.055V209.06Z" fill="white"/>
<path d="M1326.05 206.954C1323.15 206.954 1320.42 207.67 1318.03 208.926V199.526C1318.03 199.105 1317.68 198.761 1317.25 198.761H1309.85C1309.42 198.761 1309.07 199.105 1309.07 199.526V223.358C1309.07 223.443 1309.07 223.528 1309.07 223.608V236.845H1309.07V242.131C1309.07 242.552 1309.42 242.896 1309.85 242.896H1317.25C1317.68 242.896 1318.03 242.552 1318.03 242.131V223.282C1318.03 219.319 1321.31 215.612 1325.33 215.263C1330.08 214.856 1334.07 218.519 1334.07 223.098V242.149C1334.07 242.561 1334.41 242.892 1334.83 242.892H1342.28C1342.7 242.892 1343.04 242.556 1343.04 242.145V223.604C1343.04 214.404 1335.44 206.95 1326.06 206.95L1326.05 206.954Z" fill="white"/>
<path d="M1539.33 232.296C1539.33 234.753 1538.73 236.889 1537.54 238.703C1536.35 240.517 1534.6 241.916 1532.31 242.898C1530.04 243.881 1527.27 244.372 1524.02 244.372C1522.58 244.372 1521.17 244.278 1519.78 244.089C1518.42 243.9 1517.1 243.626 1515.84 243.267C1514.59 242.889 1513.39 242.426 1512.26 241.878V233.714C1514.23 234.583 1516.27 235.367 1518.39 236.066C1520.51 236.766 1522.62 237.115 1524.7 237.115C1526.14 237.115 1527.29 236.926 1528.16 236.548C1529.06 236.17 1529.7 235.651 1530.1 234.989C1530.49 234.328 1530.69 233.572 1530.69 232.721C1530.69 231.682 1530.34 230.794 1529.64 230.057C1528.94 229.32 1527.98 228.63 1526.74 227.987C1525.53 227.345 1524.16 226.655 1522.63 225.918C1521.66 225.464 1520.61 224.916 1519.47 224.274C1518.34 223.612 1517.26 222.809 1516.23 221.864C1515.21 220.919 1514.37 219.776 1513.7 218.434C1513.06 217.073 1512.74 215.448 1512.74 213.558C1512.74 211.082 1513.31 208.966 1514.44 207.208C1515.58 205.45 1517.2 204.109 1519.3 203.183C1521.42 202.238 1523.92 201.765 1526.8 201.765C1528.96 201.765 1531.02 202.02 1532.97 202.531C1534.94 203.022 1536.99 203.74 1539.13 204.685L1536.29 211.517C1534.38 210.742 1532.66 210.147 1531.15 209.731C1529.63 209.296 1528.09 209.079 1526.52 209.079C1525.42 209.079 1524.48 209.259 1523.7 209.618C1522.93 209.958 1522.34 210.449 1521.94 211.092C1521.55 211.715 1521.35 212.443 1521.35 213.275C1521.35 214.257 1521.63 215.089 1522.2 215.769C1522.79 216.431 1523.66 217.073 1524.81 217.697C1525.99 218.32 1527.45 219.048 1529.19 219.88C1531.31 220.881 1533.12 221.93 1534.61 223.026C1536.13 224.104 1537.29 225.379 1538.11 226.853C1538.92 228.308 1539.33 230.123 1539.33 232.296Z" fill="white"/>
<path d="M1495.36 209.079C1493.68 209.079 1492.18 209.41 1490.87 210.071C1489.59 210.714 1488.5 211.649 1487.61 212.878C1486.74 214.106 1486.07 215.59 1485.62 217.328C1485.16 219.067 1484.94 221.023 1484.94 223.196C1484.94 226.126 1485.3 228.63 1486.02 230.709C1486.76 232.769 1487.89 234.347 1489.43 235.443C1490.96 236.52 1492.94 237.059 1495.36 237.059C1497.05 237.059 1498.73 236.87 1500.42 236.492C1502.12 236.114 1503.97 235.575 1505.96 234.876V242.246C1504.12 243.002 1502.31 243.541 1500.53 243.862C1498.75 244.202 1496.76 244.372 1494.54 244.372C1490.26 244.372 1486.74 243.494 1483.97 241.736C1481.22 239.96 1479.19 237.484 1477.86 234.309C1476.54 231.115 1475.87 227.392 1475.87 223.14C1475.87 220.002 1476.3 217.13 1477.15 214.522C1478.01 211.914 1479.26 209.655 1480.9 207.747C1482.55 205.838 1484.59 204.364 1487.01 203.324C1489.44 202.285 1492.22 201.765 1495.36 201.765C1497.43 201.765 1499.49 202.03 1501.56 202.559C1503.64 203.069 1505.63 203.778 1507.52 204.685L1504.68 211.829C1503.13 211.092 1501.57 210.449 1499.99 209.901C1498.42 209.353 1496.88 209.079 1495.36 209.079Z" fill="white"/>
<path d="M1469.1 223.021C1469.1 226.215 1468.71 229.125 1467.91 231.752C1467.11 234.36 1465.9 236.609 1464.27 238.499C1462.66 240.389 1460.62 241.844 1458.14 242.865C1455.66 243.866 1452.72 244.367 1449.33 244.367C1445.94 244.367 1443 243.866 1440.52 242.865C1438.04 241.844 1435.99 240.389 1434.36 238.499C1432.75 236.609 1431.55 234.351 1430.75 231.724C1429.96 229.097 1429.56 226.177 1429.56 222.964C1429.56 218.674 1430.26 214.942 1431.66 211.767C1433.08 208.573 1435.26 206.097 1438.19 204.34C1441.13 202.582 1444.86 201.703 1449.39 201.703C1453.89 201.703 1457.6 202.582 1460.5 204.34C1463.41 206.097 1465.57 208.573 1466.97 211.767C1468.39 214.961 1469.1 218.712 1469.1 223.021ZM1438.79 223.021C1438.79 225.913 1439.15 228.407 1439.87 230.505C1440.61 232.584 1441.75 234.19 1443.31 235.324C1444.86 236.439 1446.87 236.997 1449.33 236.997C1451.83 236.997 1453.86 236.439 1455.41 235.324C1456.96 234.19 1458.09 232.584 1458.79 230.505C1459.51 228.407 1459.87 225.913 1459.87 223.021C1459.87 218.674 1459.06 215.254 1457.43 212.759C1455.8 210.264 1453.12 209.017 1449.39 209.017C1446.91 209.017 1444.88 209.584 1443.31 210.718C1441.75 211.833 1440.61 213.439 1439.87 215.537C1439.15 217.616 1438.79 220.111 1438.79 223.021Z" fill="white"/>
<path d="M1422.8 222.696C1422.8 227.364 1421.9 231.267 1420.1 234.404C1418.32 237.523 1415.73 239.875 1412.34 241.463C1408.95 243.032 1404.87 243.816 1400.1 243.816H1388.34V202.371H1401.38C1405.73 202.371 1409.51 203.146 1412.71 204.695C1415.91 206.226 1418.39 208.504 1420.15 211.527C1421.92 214.532 1422.8 218.255 1422.8 222.696ZM1413.65 222.923C1413.65 219.862 1413.19 217.348 1412.28 215.383C1411.39 213.398 1410.07 211.934 1408.31 210.989C1406.56 210.044 1404.41 209.571 1401.83 209.571H1397.14V236.559H1400.92C1405.22 236.559 1408.41 235.415 1410.49 233.129C1412.6 230.842 1413.65 227.44 1413.65 222.923Z" fill="white"/>
<path d="M1365.68 195.063L1365.68 249.496" stroke="white" stroke-width="8"/>
</g>
<defs>
<linearGradient id="paint0_linear_1703_43292" x1="1419.6" y1="440" x2="1419.6" y2="3.82833e-06" gradientUnits="userSpaceOnUse">
<stop stop-color="#664EF1"/>
<stop offset="0.389062" stop-color="#3A2E83"/>
<stop offset="1" stop-color="#17132B"/>
</linearGradient>
<linearGradient id="paint1_linear_1703_43292" x1="664.164" y1="368.905" x2="678.89" y2="335.775" gradientUnits="userSpaceOnUse">
<stop offset="0.26" stop-color="#40F0C1"/>
<stop offset="1" stop-color="#BFFD3E"/>
</linearGradient>
<linearGradient id="paint2_linear_1703_43292" x1="657.034" y1="366.478" x2="668.175" y2="335.759" gradientUnits="userSpaceOnUse">
<stop stop-color="#40F0C1"/>
<stop offset="1" stop-color="#BFFD3E"/>
</linearGradient>
<linearGradient id="paint3_linear_1703_43292" x1="1931.72" y1="118.438" x2="1944.18" y2="102.272" gradientUnits="userSpaceOnUse">
<stop offset="0.26" stop-color="#40F0C1"/>
<stop offset="1" stop-color="#BFFD3E"/>
</linearGradient>
<linearGradient id="paint4_linear_1703_43292" x1="1928.66" y1="116.564" x2="1938.88" y2="100.757" gradientUnits="userSpaceOnUse">
<stop stop-color="#40F0C1"/>
<stop offset="1" stop-color="#BFFD3E"/>
</linearGradient>
</defs>
</svg>
