
<svg width="1920" height="440" viewBox="0 0 1920 440" fill="none" xmlns="http://www.w3.org/2000/svg">
<mask id="mask0_1703_42237" style="mask-type:alpha" maskUnits="userSpaceOnUse" x="0" y="0" width="1920" height="440">
<rect width="1920" height="440" fill="#D9D9D9"/>
</mask>
<g mask="url(#mask0_1703_42237)">
<path d="M878 0L569.5 7.62939e-05H0L-5.84766 439.928H1457.11C1503.7 439.928 1499.87 366.233 1461.24 366.233L1287.27 366.233C1228.56 366.233 1232.56 297.727 1287.27 297.727H1351.5C1393.88 297.727 1393.88 232.536 1351.5 232.536H1994.21C1929.9 232.536 1924.56 178.844 1985.15 178.844L2011.42 169.786C2088.27 169.786 2060.73 80.108 1979.72 80.108H2023.2C1964.18 80.108 1941.94 19.4172 2002.36 19.4172L2098 0H878Z" fill="url(#paint0_linear_1703_42237)"/>
<rect x="347.414" y="104.483" width="235.445" height="284.112" rx="18" fill="#6A51FF" stroke="black" stroke-width="2"/>
<path d="M1012.99 72.2617C1033.31 72.2617 1053.34 72.6451 1072.99 73.3889M1002.7 354.27C986.82 354.168 971.135 353.833 955.681 353.275M1023.27 354.27C1024.44 354.262 1025.6 354.253 1026.76 354.243M935.932 352.435C934.862 352.383 933.792 352.329 932.724 352.275M922.475 351.716C901.577 350.505 881.17 348.883 861.354 346.879M847.468 345.402C846.032 345.241 844.599 345.079 843.169 344.914M829.4 343.255C812.463 341.12 796.03 338.699 780.169 336.011M767.866 333.852C631.626 309.112 540.633 264.37 540.633 213.282C540.633 172.791 597.793 136.286 689.338 110.566M1039.21 354.089C1052.79 353.867 1066.21 353.474 1079.46 352.917M1093.11 352.282C1094.15 352.229 1095.19 352.175 1096.23 352.119M1111.15 351.253C1144.51 349.148 1176.58 345.991 1206.93 341.905M1229.92 338.583C1232.09 338.247 1232.6 338.095 1234.1 337.784M1256.63 334.119C1289.64 328.174 1320.01 321.058 1347.11 312.963M1368.07 306.282C1369.63 305.752 1371.17 305.219 1372.71 304.683M1385.52 299.992C1395.62 296.13 1405.06 292.106 1413.79 287.937M1424.2 282.724C1426.26 281.639 1428.27 280.545 1430.23 279.443M1448.67 267.852C1472.29 251.067 1485.34 232.629 1485.34 213.282C1485.34 156.005 1370.96 106.704 1206.68 84.6248M1191.36 82.663C1189.94 82.4906 1188.53 82.3203 1187.11 82.1519M1176.44 80.9327C1160.88 79.2194 1144.93 77.7436 1128.65 76.5202M1089.32 74.0934C1087.41 74.0007 1085.49 73.9115 1083.57 73.8257M977.695 72.6494C975.675 72.6939 973.659 72.7422 971.646 72.7944M949.317 73.5319C906.51 75.2538 865.521 78.6876 827.148 83.595M803.931 86.7903C800.983 87.2252 798.053 87.6691 795.141 88.1218M771.137 92.1232C750.474 95.8075 730.832 99.9497 712.368 104.503" stroke="#AFA2FF"/>
<path d="M282.143 271.048C280.296 259.907 289.047 249.837 300.337 250.111L466.142 254.131C475.911 254.367 483.706 262.354 483.706 272.125V312.764C483.706 322.815 475.474 330.919 465.424 330.761L306.607 328.27C297.91 328.134 290.554 321.797 289.132 313.216L282.143 271.048Z" fill="#5942E3" stroke="black" stroke-width="2"/>
<path d="M287.277 267.438C285.488 256.484 293.942 246.537 305.042 246.537H469.73C479.671 246.537 487.73 254.595 487.73 264.537V305.02C487.73 314.961 479.671 323.02 469.73 323.02H311.653C302.832 323.02 295.311 316.627 293.889 307.921L287.277 267.438Z" fill="#745EFF" stroke="black" stroke-width="2"/>
<path d="M312.002 318.433C304.208 318.746 300.52 310.022 300.52 306.32H383.061L385.424 318.433C364.198 318.303 319.796 318.12 312.002 318.433Z" fill="#AFA2FF" stroke="black" stroke-width="2"/>
<path d="M302.442 301.85H327.501C329.292 301.85 330.684 300.291 330.482 298.512L329.615 290.858C329.443 289.341 328.16 288.195 326.634 288.195H301.575C299.784 288.195 298.392 289.754 298.594 291.533L299.461 299.188C299.633 300.704 300.916 301.85 302.442 301.85Z" fill="#AFA2FF" stroke="black" stroke-width="2"/>
<path d="M298.635 283.726H323.694C325.485 283.726 326.877 282.168 326.675 280.389L325.808 272.734C325.636 271.218 324.353 270.072 322.827 270.072H297.768C295.977 270.072 294.585 271.63 294.787 273.409L295.654 281.064C295.826 282.58 297.109 283.726 298.635 283.726Z" fill="#AFA2FF" stroke="black" stroke-width="2"/>
<path d="M296.102 265.6H321.161C322.951 265.6 324.343 264.042 324.142 262.262L323.274 254.608C323.103 253.091 321.82 251.946 320.294 251.946H301.953C296.581 251.946 292.405 256.621 293.01 261.959L293.121 262.938C293.292 264.454 294.575 265.6 296.102 265.6Z" fill="#AFA2FF" stroke="black" stroke-width="2"/>
<path d="M336.925 301.85H358.146C359.921 301.85 361.308 300.318 361.131 298.552L360.368 290.898C360.215 289.364 358.924 288.195 357.383 288.195H336.526C334.808 288.195 333.441 289.636 333.53 291.352L333.929 299.006C334.012 300.6 335.328 301.85 336.925 301.85Z" fill="#AFA2FF" stroke="black" stroke-width="2"/>
<path d="M333.121 283.726H354.343C356.117 283.726 357.504 282.194 357.328 280.428L356.564 272.774C356.411 271.24 355.121 270.072 353.579 270.072H332.722C331.004 270.072 329.637 271.512 329.726 273.228L330.125 280.882C330.208 282.476 331.525 283.726 333.121 283.726Z" fill="#AFA2FF" stroke="black" stroke-width="2"/>
<path d="M330.591 265.6H351.813C353.587 265.6 354.974 264.068 354.798 262.302L354.034 254.648C353.881 253.114 352.59 251.946 351.049 251.946H330.192C328.474 251.946 327.107 253.386 327.196 255.102L327.595 262.756C327.678 264.35 328.995 265.6 330.591 265.6Z" fill="#AFA2FF" stroke="black" stroke-width="2"/>
<path d="M367.594 301.85H388.816C390.591 301.85 391.977 300.318 391.801 298.552L391.037 290.898C390.884 289.364 389.594 288.195 388.052 288.195H367.196C365.477 288.195 364.11 289.636 364.2 291.352L364.598 299.006C364.681 300.6 365.998 301.85 367.594 301.85Z" fill="#AFA2FF" stroke="black" stroke-width="2"/>
<path d="M363.788 283.726H385.009C386.784 283.726 388.171 282.194 387.994 280.428L387.231 272.774C387.078 271.24 385.787 270.072 384.246 270.072H363.389C361.671 270.072 360.304 271.512 360.393 273.228L360.792 280.882C360.875 282.476 362.191 283.726 363.788 283.726Z" fill="#AFA2FF" stroke="black" stroke-width="2"/>
<path d="M361.254 265.6H382.476C384.25 265.6 385.637 264.068 385.461 262.302L384.697 254.648C384.544 253.114 383.254 251.946 381.712 251.946H360.855C359.137 251.946 357.77 253.386 357.86 255.102L358.258 262.756C358.341 264.35 359.658 265.6 361.254 265.6Z" fill="#AFA2FF" stroke="black" stroke-width="2"/>
<path d="M394.835 388.511V368.078V363.66C468.284 363.475 613.054 364.204 610.214 371.391C605.69 382.836 598.422 388.511 590.332 388.511H431.201H394.835Z" fill="#5942E3"/>
<path d="M431.201 389.595V371.024M394.835 368.078V388.511H590.332C598.422 388.511 605.69 382.836 610.214 371.391C613.054 364.204 468.284 363.475 394.835 363.66V368.078Z" stroke="black" stroke-width="2"/>
<path d="M405.29 185.41C412.302 178.156 416.42 163.361 416.42 163.361L421.046 351.801L429.483 371.164C422.12 370.751 405.009 369.774 395.477 369.178C385.944 368.583 385.631 360.808 385.628 356.194V349.836V195.993C385.628 195.993 398.744 192.179 405.29 185.41Z" fill="#5942E3"/>
<path d="M385.628 349.836V195.993C385.628 195.993 398.744 192.179 405.29 185.41C412.302 178.156 416.42 163.361 416.42 163.361L421.046 351.801M385.628 349.836L421.046 351.801M385.628 349.836V356.194C385.631 360.808 385.944 368.583 395.477 369.178C405.009 369.774 422.12 370.751 429.483 371.164L421.046 351.801" stroke="black" stroke-width="2"/>
<rect x="-1.5" y="1.5" width="249.5" height="301.363" rx="17.5" transform="matrix(-1 0 0 1 1609.1 36.0488)" fill="#6A51FF" stroke="black" stroke-width="3"/>
<path d="M415.245 169.78C415.245 159.839 423.304 151.78 433.245 151.78H594.34C604.281 151.78 612.34 159.839 612.34 169.78V352.208V353.142C612.34 363.083 604.281 371.142 594.34 371.142H433.245C423.304 371.142 415.245 363.083 415.245 353.142V352.208V169.78Z" fill="#5942E3" stroke="black" stroke-width="2"/>
<path d="M423.284 169.78C423.284 159.839 431.343 151.78 441.284 151.78H602.379C612.32 151.78 620.379 159.839 620.379 169.78V352.208V353.142C620.379 363.083 612.32 371.142 602.379 371.142H441.284C431.343 371.142 423.284 363.083 423.284 353.142V352.208V169.78Z" fill="#745EFF" stroke="black" stroke-width="2"/>
<path d="M435.878 180.343C435.878 170.402 443.937 162.343 453.878 162.343H594.335C604.276 162.343 612.335 170.402 612.335 180.343V324.287C612.335 332.64 605.563 339.412 597.21 339.412H451.003C442.65 339.412 435.878 332.64 435.878 324.287V180.343Z" fill="#AFA2FF" stroke="black" stroke-width="2"/>
<path d="M1563.34 92.978C1563.34 83.313 1555.5 75.478 1545.84 75.478H1318.61C1308.95 75.478 1301.11 83.313 1301.11 92.978V248.865C1301.11 257.596 1308.19 264.673 1316.92 264.673H1547.53C1556.26 264.673 1563.34 257.596 1563.34 248.865V92.978Z" fill="#5942E3" stroke="black" stroke-width="3"/>
<path d="M1557.37 92.978C1557.37 83.313 1549.53 75.478 1539.87 75.478H1312.64C1302.98 75.478 1295.14 83.313 1295.14 92.978V243.515C1295.14 251.953 1301.98 258.793 1310.42 258.793H1542.09C1550.53 258.793 1557.37 251.953 1557.37 243.515V92.978Z" fill="#AFA2FF" stroke="black" stroke-width="3"/>
<path d="M1529.55 291.124V259.758H1523.59C1523.37 270.66 1523.59 284.609 1523.59 291.124C1523.59 306.21 1536.35 306.036 1540.72 306.21H1575.9C1588.83 306.21 1591.42 296.329 1591.74 291.124V261.419H1586.23C1586.43 268.173 1586.72 283.57 1586.23 291.124C1585.73 298.677 1579.42 300.849 1575.9 300.991C1568.58 301.206 1551.28 301.508 1540.72 300.991C1530.99 300.514 1529.55 295.304 1529.55 291.124Z" fill="#AFA2FF" stroke="black" stroke-width="2"/>
<circle cx="438.878" cy="361.309" r="3.00027" fill="#6951FF" stroke="black" stroke-width="2"/>
<path d="M440.827 383.11V376.172H536.63V383.11H440.827Z" stroke="black" stroke-width="2"/>
<path d="M440.827 383.11V376.172H519.189V383.11H440.827Z" stroke="black" stroke-width="2"/>
<path d="M449.646 397.371C449.475 388.25 442.565 379.73 442.565 379.73H517.837C523.172 381.967 526.37 392.423 527.302 397.371H449.646Z" fill="#AFA2FF" stroke="black" stroke-width="2"/>
<path d="M1284.31 174.641C1287.4 170.955 1293.79 169.589 1293.79 169.589V188.789C1293.79 188.789 1283.34 190.007 1284.31 197.663C1287.75 204.041 1295.63 206.752 1301.07 207.888C1304.2 208.544 1306.73 211.205 1306.73 214.407V236.403C1306.73 239.717 1304.01 242.481 1300.75 241.9C1281.85 238.535 1280.59 219.42 1280.59 219.42V186.009C1280.54 185.276 1280.54 184.545 1280.59 183.819C1280.79 180.62 1281.9 177.502 1284.31 174.641Z" fill="#387659" fill-opacity="0.5"/>
<path d="M1280.59 183.819C1280.79 180.62 1281.9 177.502 1284.31 174.641C1287.4 170.955 1293.79 169.589 1293.79 169.589V188.789C1293.79 188.789 1283.34 190.007 1284.31 197.663M1280.59 183.819V219.42C1280.59 219.42 1281.85 238.535 1300.75 241.9C1304.01 242.481 1306.73 239.717 1306.73 236.403V214.407C1306.73 211.205 1304.2 208.544 1301.07 207.888C1295.63 206.752 1287.75 204.041 1284.31 197.663M1280.59 183.819C1280.3 188.438 1281.91 193.229 1284.31 197.663" stroke="black"/>
<path opacity="0.4" d="M1306.73 214.407V236.403C1306.73 239.717 1304.01 242.481 1300.75 241.901C1281.85 238.536 1280.59 219.42 1280.59 219.42V186.009C1280.54 185.276 1280.54 184.545 1280.59 183.819V186.009C1280.83 189.937 1282.29 193.926 1284.31 197.663C1287.75 204.041 1295.63 206.752 1301.07 207.889C1304.2 208.544 1306.73 211.205 1306.73 214.407Z" fill="#23FFA3" stroke="black"/>
<path d="M524.323 384.543L524.323 376.615H532.349V384.543C529.739 386.822 525.911 385.493 524.323 384.543Z" fill="#EBFF00" stroke="black" stroke-width="2"/>
<path fill-rule="evenodd" clip-rule="evenodd" d="M458.255 386.082H455.772V388.667H458.255V386.082ZM489.893 386.082H487.41V388.667H489.893V386.082ZM471.593 386.082H474.075V388.667H471.593V386.082ZM505.713 386.082H503.231V388.667H505.713V386.082ZM461.048 386.082H463.53V388.667H461.048V386.082ZM495.165 386.082H492.683V388.667H495.165V386.082ZM476.865 386.082H479.348V388.667H476.865V386.082ZM510.986 386.082H508.503V388.667H510.986V386.082ZM466.317 386.082H468.799V388.667H466.317V386.082ZM500.444 386.082H497.962V388.667H500.444V386.082ZM482.138 386.082H484.62V388.667H482.138V386.082ZM516.262 386.082H513.779V388.667H516.262V386.082Z" fill="#383838"/>
<path d="M407.937 297.221C407.937 305.384 406.423 312.725 404.018 317.988C401.572 323.34 398.397 326.178 395.247 326.178C392.097 326.178 388.922 323.34 386.477 317.988C384.071 312.725 382.557 305.384 382.557 297.221C382.557 289.058 384.071 281.717 386.477 276.454C388.922 271.102 392.097 268.264 395.247 268.264C398.397 268.264 401.572 271.102 404.018 276.454C406.423 281.717 407.937 289.058 407.937 297.221Z" fill="#5942E3" stroke="black" stroke-width="2"/>
<path d="M402.783 297.221C402.783 305.4 401.474 312.76 399.393 318.037C398.352 320.679 397.137 322.749 395.838 324.142C394.541 325.534 393.234 326.178 391.973 326.178C390.711 326.178 389.404 325.534 388.107 324.142C386.809 322.749 385.594 320.679 384.552 318.037C382.472 312.76 381.163 305.4 381.163 297.221C381.163 289.042 382.472 281.682 384.552 276.405C385.594 273.763 386.809 271.693 388.107 270.3C389.404 268.908 390.711 268.264 391.973 268.264C393.234 268.264 394.541 268.908 395.838 270.3C397.137 271.693 398.352 273.763 399.393 276.405C401.474 281.682 402.783 289.042 402.783 297.221Z" fill="#745EFF" stroke="black" stroke-width="2"/>
<path d="M393.416 340.412C393.416 341.798 392.988 343.034 392.319 343.913C391.651 344.791 390.763 345.291 389.822 345.291C388.882 345.291 387.994 344.791 387.326 343.913C386.657 343.034 386.229 341.798 386.229 340.412C386.229 339.026 386.657 337.79 387.326 336.911C387.994 336.033 388.882 335.533 389.822 335.533C390.763 335.533 391.651 336.033 392.319 336.911C392.988 337.79 393.416 339.026 393.416 340.412Z" fill="#5942E3" stroke="black"/>
<path d="M402.438 340.412C402.438 341.798 402.01 343.034 401.341 343.913C400.672 344.791 399.785 345.291 398.844 345.291C397.904 345.291 397.016 344.791 396.348 343.913C395.679 343.034 395.251 341.798 395.251 340.412C395.251 339.026 395.679 337.79 396.348 336.911C397.016 336.033 397.904 335.533 398.844 335.533C399.785 335.533 400.672 336.033 401.341 336.911C402.01 337.79 402.438 339.026 402.438 340.412Z" fill="#5942E3" stroke="black"/>
<path d="M412.598 340.412C412.598 341.798 412.17 343.034 411.501 343.913C410.832 344.791 409.945 345.291 409.004 345.291C408.063 345.291 407.176 344.791 406.508 343.913C405.839 343.034 405.411 341.798 405.411 340.412C405.411 339.026 405.839 337.79 406.508 336.911C407.176 336.033 408.063 335.533 409.004 335.533C409.945 335.533 410.832 336.033 411.501 336.911C412.17 337.79 412.598 339.026 412.598 340.412Z" fill="#5942E3" stroke="black"/>
<path d="M391.14 340.412C391.14 341.798 390.712 343.034 390.043 343.913C389.375 344.791 388.487 345.291 387.547 345.291C386.606 345.291 385.718 344.791 385.05 343.913C384.381 343.034 383.953 341.798 383.953 340.412C383.953 339.026 384.381 337.79 385.05 336.911C385.718 336.033 386.606 335.533 387.547 335.533C388.487 335.533 389.375 336.033 390.043 336.911C390.712 337.79 391.14 339.026 391.14 340.412Z" fill="#745EFF" stroke="black"/>
<path d="M400.166 340.412C400.166 341.798 399.738 343.034 399.069 343.913C398.401 344.791 397.513 345.291 396.572 345.291C395.632 345.291 394.744 344.791 394.076 343.913C393.407 343.034 392.979 341.798 392.979 340.412C392.979 339.026 393.407 337.79 394.076 336.911C394.744 336.033 395.632 335.533 396.572 335.533C397.513 335.533 398.401 336.033 399.069 336.911C399.738 337.79 400.166 339.026 400.166 340.412Z" fill="#745EFF" stroke="black"/>
<path d="M410.325 340.412C410.325 341.798 409.897 343.034 409.229 343.913C408.56 344.791 407.673 345.291 406.732 345.291C405.791 345.291 404.904 344.791 404.235 343.913C403.567 343.034 403.139 341.798 403.139 340.412C403.139 339.026 403.567 337.79 404.235 336.911C404.904 336.033 405.791 335.533 406.732 335.533C407.673 335.533 408.56 336.033 409.229 336.911C409.897 337.79 410.325 339.026 410.325 340.412Z" fill="#745EFF" stroke="black"/>
<path d="M400.411 193.55C399.078 195.107 392.443 197.349 389.292 198.275V203.835L400.411 201.889V193.55Z" stroke="black" stroke-width="2"/>
<path d="M400.359 201.83L404.341 201.321V186.372C404.341 186.372 404.301 189.304 399.468 194.454M388.897 198.337C389.273 197.949 391.129 195.528 391.515 193.707" stroke="black" stroke-width="2"/>
<path d="M393.563 136.703L394.822 195.977L396.29 195.51L393.563 136.703Z" fill="#5942E3" stroke="black"/>
<path d="M316.229 352.597C317.024 349.545 320.403 348.024 323.503 349.323L386.412 375.689C388.8 376.689 390.309 379.093 390.084 381.535L389.701 385.687C389.485 388.021 387.733 389.84 385.367 390.184L325.569 398.887C322.362 399.353 319.237 396.985 318.833 393.783L314.612 360.297C314.528 359.631 314.569 358.964 314.734 358.331L316.229 352.597Z" fill="#5942E3" stroke="black"/>
<path d="M316.455 352.96C316.007 349.944 318.148 347.331 321.218 347.147L368.042 344.337C370.253 344.204 372.429 345.382 373.57 347.33L389.943 375.273C391.889 378.595 390.055 382.565 386.336 383.082L328.08 391.177C324.931 391.615 321.863 389.325 321.396 386.188L316.455 352.96Z" fill="#745EFF" stroke="black"/>
<path d="M376.258 365.433C376.258 369.222 373.567 372.75 369.006 375.359C364.458 377.96 358.142 379.585 351.138 379.585C344.135 379.585 337.819 377.96 333.271 375.359C328.709 372.75 326.019 369.222 326.019 365.433C326.019 361.643 328.709 358.115 333.271 355.506C337.819 352.905 344.135 351.281 351.138 351.281C358.142 351.281 364.458 352.905 369.006 355.506C373.567 358.115 376.258 361.643 376.258 365.433Z" fill="#332E63" stroke="black"/>
<path d="M323.35 341.409C324.145 338.357 327.524 336.837 330.624 338.136L393.533 364.501C395.921 365.502 397.431 367.905 397.205 370.347L396.822 374.499C396.606 376.833 394.854 378.652 392.488 378.996L332.69 387.699C329.483 388.166 326.358 385.798 325.954 382.596L321.733 349.109C321.649 348.443 321.69 347.777 321.856 347.143L323.35 341.409Z" fill="#5942E3" stroke="black"/>
<path d="M323.576 341.772C323.128 338.756 325.269 336.143 328.339 335.959L375.163 333.149C377.374 333.017 379.55 334.195 380.691 336.142L397.065 364.086C399.011 367.407 397.176 371.378 393.457 371.895L335.201 379.99C332.052 380.427 328.984 378.137 328.517 375.001L323.576 341.772Z" fill="#745EFF" stroke="black"/>
<path d="M355.198 371.412C354.888 371.232 354.19 371.048 353.8 370.536C353.399 370.011 353.485 369.474 353.441 369.127C353.381 368.659 352.886 368.337 352.334 368.407C351.783 368.478 351.384 368.915 351.444 369.383C351.481 369.673 351.539 370.443 351.477 370.855C351.459 370.979 351.416 371.05 351.384 371.1C351.261 371.293 350.871 371.546 350.425 371.357C350.299 371.306 350.18 371.203 350.111 371.066C349.966 370.774 349.972 369.875 349.878 369.499C349.877 369.496 349.876 369.493 349.875 369.49C349.86 369.431 349.842 369.381 349.818 369.34C349.649 369.008 349.236 368.804 348.786 368.861C348.234 368.932 347.836 369.369 347.896 369.836C347.928 370.088 348.085 370.297 348.31 370.426C348.62 370.605 349.317 370.789 349.707 371.301C350.108 371.826 350.022 372.363 350.066 372.71C350.126 373.178 350.622 373.501 351.173 373.43C351.591 373.377 351.921 373.112 352.03 372.784C352.209 372.293 351.719 371.535 351.978 370.89C352.029 370.763 352.094 370.694 352.161 370.627C352.301 370.489 352.771 370.293 353.166 370.604C353.268 370.694 353.303 370.768 353.334 370.842C353.465 371.157 353.516 372.2 353.689 372.498C353.858 372.829 354.271 373.033 354.721 372.976C355.272 372.905 355.67 372.468 355.611 372C355.578 371.749 355.421 371.54 355.197 371.411L355.198 371.412Z" fill="#332E63"/>
<path d="M347.627 373.885C348.178 373.815 348.577 373.378 348.517 372.91C348.457 372.442 347.961 372.12 347.41 372.19C346.859 372.261 346.46 372.697 346.52 373.166C346.58 373.634 347.076 373.956 347.627 373.885Z" fill="#332E63"/>
<path fill-rule="evenodd" clip-rule="evenodd" d="M361.341 368.473L360.639 368.563C360.603 368.568 360.575 368.593 360.573 368.623L359.301 370.196C359.273 370.231 359.216 370.238 359.179 370.212L357.518 369.004C357.514 369.002 357.511 369 357.508 368.998C357.493 368.981 357.467 368.971 357.439 368.974L356.738 369.064C356.697 369.069 356.667 369.101 356.672 369.136L357.116 372.608C357.12 372.643 357.157 372.666 357.198 372.661L357.899 372.571C357.94 372.566 357.97 372.534 357.965 372.499L357.656 370.085L358.794 370.918C358.798 370.922 358.802 370.924 358.806 370.927L358.808 370.928L359.22 371.23L359.223 371.232L359.32 371.303C359.354 371.322 359.4 371.313 359.423 371.285L360.71 369.707L361.017 372.107C361.022 372.141 361.058 372.165 361.099 372.16L361.801 372.07C361.842 372.065 361.871 372.033 361.867 371.998L361.422 368.526C361.418 368.492 361.381 368.468 361.341 368.473Z" fill="#332E63"/>
<path d="M363.798 368.77C362.832 368.894 362.135 369.665 362.241 370.492C362.347 371.32 363.215 371.891 364.181 371.767C365.147 371.644 365.844 370.873 365.738 370.045C365.632 369.217 364.763 368.646 363.798 368.77ZM364.093 371.082C363.57 371.149 363.098 370.839 363.041 370.39C362.984 369.941 363.362 369.523 363.885 369.456C364.409 369.389 364.88 369.699 364.938 370.147C364.995 370.596 364.617 371.015 364.093 371.082Z" fill="#332E63"/>
<path d="M370.681 367.889C370.336 367.933 370.026 368.061 369.776 368.244L369.754 368.072C369.75 368.037 369.713 368.014 369.673 368.019L368.98 368.107C368.94 368.112 368.911 368.145 368.915 368.179L369.359 371.65C369.364 371.684 369.4 371.708 369.44 371.703L370.133 371.615C370.173 371.609 370.203 371.577 370.198 371.543L370.092 370.713C370.38 370.827 370.712 370.873 371.057 370.828C372.008 370.707 372.696 369.95 372.592 369.138C372.488 368.327 371.632 367.767 370.681 367.889L370.681 367.889ZM370.971 370.156C370.455 370.221 369.991 369.919 369.934 369.479L369.934 369.476C369.879 369.037 370.251 368.627 370.767 368.561C371.282 368.495 371.747 368.798 371.803 369.238C371.86 369.679 371.487 370.089 370.971 370.155L370.971 370.156Z" fill="#332E63"/>
<path d="M368.25 368.202L367.768 368.263C366.852 368.381 366.188 369.082 366.284 369.829L366.44 371.046C366.44 371.046 366.44 371.048 366.44 371.049L366.486 371.409C366.49 371.444 366.529 371.468 366.572 371.463L367.31 371.368C367.352 371.363 367.384 371.33 367.379 371.295L367.17 369.661C367.12 369.267 367.47 368.898 367.952 368.836L368.353 368.785C368.394 368.78 368.42 368.748 368.416 368.718L368.359 368.269C368.353 368.225 368.304 368.194 368.25 368.201L368.25 368.202Z" fill="#332E63"/>
<path d="M374.516 367.224C374.247 367.258 374.002 367.349 373.794 367.479L373.696 366.713C373.691 366.679 373.655 366.655 373.615 366.66L372.93 366.748C372.89 366.753 372.861 366.785 372.866 366.819L373.114 368.762C373.115 368.769 373.116 368.776 373.116 368.782L373.254 369.861L373.255 369.861L373.31 370.292C373.314 370.326 373.351 370.35 373.39 370.345L374.076 370.257C374.115 370.252 374.144 370.22 374.14 370.186L373.943 368.649C373.902 368.326 374.167 367.985 374.536 367.909C374.972 367.82 375.38 368.071 375.427 368.444L375.626 369.997C375.63 370.03 375.665 370.053 375.704 370.048L376.394 369.96C376.433 369.955 376.461 369.924 376.457 369.89L376.263 368.379C376.167 367.63 375.385 367.112 374.516 367.223L374.516 367.224Z" fill="#332E63"/>
<path d="M394.352 366.118C394.378 366.318 394.345 366.499 394.253 366.661C394.161 366.823 394.015 366.958 393.813 367.065C393.612 367.172 393.361 367.245 393.06 367.283C392.926 367.301 392.795 367.31 392.664 367.311C392.536 367.311 392.411 367.305 392.29 367.29C392.17 367.274 392.055 367.251 391.944 367.22L391.859 366.554C392.05 366.602 392.248 366.641 392.452 366.673C392.656 366.705 392.854 366.709 393.047 366.684C393.18 366.667 393.285 366.638 393.362 366.597C393.441 366.555 393.495 366.505 393.525 366.447C393.555 366.388 393.565 366.324 393.556 366.255C393.546 366.17 393.504 366.102 393.431 366.05C393.359 365.998 393.262 365.954 393.141 365.916C393.022 365.878 392.888 365.838 392.738 365.796C392.644 365.77 392.541 365.738 392.429 365.699C392.317 365.659 392.208 365.606 392.104 365.541C391.999 365.476 391.909 365.393 391.834 365.292C391.76 365.188 391.713 365.06 391.694 364.906C391.668 364.704 391.698 364.525 391.785 364.368C391.872 364.211 392.008 364.083 392.193 363.982C392.38 363.88 392.607 363.812 392.873 363.778C393.073 363.752 393.266 363.749 393.452 363.767C393.64 363.784 393.838 363.818 394.046 363.87L393.854 364.46C393.669 364.42 393.504 364.392 393.359 364.376C393.214 364.358 393.069 364.359 392.923 364.378C392.821 364.391 392.736 364.416 392.668 364.455C392.6 364.492 392.551 364.539 392.52 364.596C392.49 364.651 392.479 364.713 392.488 364.781C392.498 364.861 392.533 364.925 392.593 364.974C392.654 365.021 392.742 365.063 392.855 365.1C392.97 365.137 393.113 365.179 393.283 365.226C393.49 365.283 393.669 365.347 393.819 365.418C393.97 365.488 394.091 365.578 394.182 365.689C394.273 365.798 394.329 365.941 394.352 366.118Z" fill="#332E63"/>
<path d="M390.041 364.747C389.885 364.767 389.75 364.812 389.635 364.881C389.523 364.949 389.432 365.038 389.362 365.149C389.294 365.259 389.248 365.388 389.224 365.535C389.2 365.682 389.2 365.844 389.222 366.021C389.253 366.26 389.312 366.46 389.401 366.621C389.491 366.78 389.612 366.895 389.766 366.966C389.919 367.036 390.108 367.056 390.333 367.027C390.489 367.008 390.643 366.972 390.795 366.921C390.949 366.87 391.114 366.805 391.291 366.724L391.368 367.325C391.206 367.408 391.044 367.473 390.882 367.521C390.721 367.57 390.538 367.607 390.333 367.633C389.936 367.684 389.601 367.654 389.326 367.544C389.053 367.431 388.839 367.254 388.683 367.011C388.527 366.766 388.427 366.471 388.382 366.124C388.35 365.868 388.359 365.629 388.411 365.407C388.463 365.184 388.555 364.985 388.688 364.81C388.82 364.635 388.994 364.491 389.207 364.377C389.421 364.264 389.673 364.188 389.965 364.151C390.156 364.127 390.35 364.124 390.547 364.142C390.745 364.159 390.936 364.194 391.121 364.245L390.933 364.861C390.781 364.819 390.63 364.785 390.478 364.759C390.327 364.733 390.181 364.729 390.041 364.747Z" fill="#332E63"/>
<path d="M387.747 366.195C387.78 366.456 387.774 366.698 387.728 366.921C387.681 367.143 387.592 367.341 387.461 367.514C387.332 367.687 387.157 367.83 386.938 367.943C386.719 368.054 386.452 368.129 386.138 368.169C385.824 368.21 385.547 368.203 385.307 368.151C385.066 368.097 384.861 368.003 384.69 367.869C384.521 367.734 384.386 367.564 384.285 367.359C384.184 367.154 384.117 366.921 384.083 366.659C384.039 366.31 384.065 365.997 384.161 365.722C384.26 365.445 384.436 365.217 384.689 365.039C384.943 364.861 385.279 364.745 385.699 364.692C386.116 364.638 386.468 364.666 386.755 364.775C387.043 364.884 387.269 365.06 387.432 365.303C387.597 365.547 387.702 365.844 387.747 366.195ZM384.939 366.555C384.969 366.79 385.029 366.989 385.117 367.152C385.207 367.312 385.33 367.43 385.486 367.504C385.641 367.576 385.833 367.598 386.061 367.569C386.293 367.539 386.475 367.47 386.607 367.36C386.739 367.25 386.827 367.105 386.87 366.928C386.915 366.748 386.922 366.54 386.892 366.305C386.847 365.951 386.735 365.681 386.559 365.497C386.382 365.313 386.12 365.244 385.775 365.288C385.545 365.317 385.363 365.387 385.229 365.498C385.097 365.608 385.008 365.752 384.961 365.932C384.916 366.11 384.909 366.317 384.939 366.555Z" fill="#332E63"/>
<path d="M383.462 366.714C383.51 367.095 383.468 367.423 383.334 367.7C383.201 367.976 382.986 368.198 382.689 368.368C382.391 368.536 382.021 368.648 381.579 368.704L380.49 368.844L380.058 365.466L381.265 365.312C381.669 365.26 382.027 365.278 382.34 365.367C382.652 365.453 382.906 365.61 383.1 365.835C383.295 366.059 383.415 366.352 383.462 366.714ZM382.617 366.841C382.585 366.592 382.516 366.392 382.412 366.243C382.308 366.092 382.17 365.988 381.997 365.932C381.826 365.875 381.621 365.862 381.383 365.893L380.948 365.949L381.23 368.148L381.58 368.103C381.978 368.052 382.262 367.921 382.431 367.71C382.602 367.499 382.664 367.209 382.617 366.841Z" fill="#332E63"/>
<path d="M377.865 365.141L378.433 369.577" stroke="#332E63" stroke-width="0.6"/>
<path d="M382.266 352.513C382.266 355.798 379.673 358.897 375.196 361.205C370.745 363.499 364.561 364.933 357.703 364.933C350.845 364.933 344.661 363.499 340.21 361.205C335.733 358.897 333.14 355.798 333.14 352.513C333.14 349.229 335.733 346.13 340.21 343.822C344.661 341.527 350.845 340.093 357.703 340.093C364.561 340.093 370.745 341.527 375.196 343.822C379.673 346.13 382.266 349.229 382.266 352.513Z" fill="#332E63" stroke="black"/>
<mask id="mask1_1703_42237" style="mask-type:luminance" maskUnits="userSpaceOnUse" x="339" y="340" width="44" height="23">
<path d="M380.786 340.88L339.561 344.313L341.073 362.468L382.297 359.035L380.786 340.88Z" fill="white"/>
</mask>
<g mask="url(#mask1_1703_42237)">
<path d="M374.181 352.167C373.038 351.565 370.417 350.915 369.042 349.243C367.628 347.526 368.075 345.816 367.982 344.701C367.857 343.199 366.037 342.123 363.918 342.299C361.798 342.476 360.181 343.838 360.306 345.34C360.384 346.275 360.434 348.742 360.108 350.053C360.009 350.451 359.832 350.674 359.698 350.831C359.185 351.436 357.642 352.213 355.98 351.567C355.51 351.393 355.082 351.051 354.849 350.606C354.357 349.662 354.58 346.786 354.303 345.574C354.3 345.564 354.298 345.554 354.295 345.544C354.251 345.355 354.192 345.192 354.111 345.059C353.541 343.982 352.009 343.291 350.278 343.435C348.158 343.612 346.541 344.974 346.666 346.476C346.733 347.282 347.288 347.965 348.116 348.398C349.259 349.001 351.88 349.65 353.256 351.323C354.668 353.039 354.221 354.75 354.314 355.864C354.439 357.367 356.259 358.443 358.378 358.266C359.985 358.133 361.304 357.317 361.791 356.275C362.581 354.721 360.88 352.252 362.01 350.21C362.231 349.81 362.497 349.594 362.767 349.386C363.331 348.956 365.169 348.373 366.608 349.403C366.976 349.698 367.093 349.939 367.195 350.179C367.626 351.199 367.589 354.539 368.185 355.508C368.757 356.583 370.287 357.272 372.015 357.128C374.134 356.952 375.751 355.59 375.626 354.087C375.559 353.281 375.005 352.599 374.176 352.166L374.181 352.167Z" fill="url(#paint1_linear_1703_42237)"/>
<path d="M344.739 359.4C346.858 359.224 348.475 357.863 348.35 356.359C348.225 354.856 346.405 353.781 344.286 353.958C342.166 354.134 340.549 355.495 340.674 356.999C340.799 358.502 342.619 359.577 344.739 359.4Z" fill="url(#paint2_linear_1703_42237)"/>
</g>
<path d="M417.392 47.1953C434.697 56.4103 437.948 69.5424 437.411 74.9566L401.169 81.05L417.392 47.1953Z" fill="#AFA2FF" stroke="black"/>
<path d="M427.39 49.421C431.584 51.5127 435.497 57.9237 436.929 60.8677L451.222 51.9L437.113 35.9309L427.39 49.421Z" fill="#AFA2FF" stroke="black"/>
<path d="M1597.33 393.181C1581.72 405.037 1568.43 402.49 1563.74 399.735L1573.38 364.272L1597.33 393.181Z" fill="#AFA2FF" stroke="black"/>
<path d="M1591.12 401.329C1587.47 404.262 1580.01 405.13 1576.73 405.197L1578.89 421.932L1599.3 415.807L1591.12 401.329Z" fill="#AFA2FF" stroke="black"/>
<path d="M1642.52 239.186L1637.33 241.555C1631.41 244.429 1559.69 127.373 1593.17 127.038C1626.65 126.703 1639.27 138.15 1642.52 147.823V239.186Z" fill="#745EFF" stroke="black" stroke-width="2"/>
<path d="M1636.31 241.554L1608.75 240.265C1577.02 204.097 1520.29 137.642 1564.76 129.114C1609.23 120.586 1629.35 135.28 1636.31 148.647V241.554Z" fill="#5942E3" stroke="black" stroke-width="2"/>
<path d="M1612.1 262.599V217.855L1548.94 221.032L1548.94 265.919C1556.41 279.398 1609.47 275.023 1612.1 262.599Z" fill="#5942E3" stroke="black" stroke-width="2"/>
<path d="M1578.58 251.276H1571.16L1539.2 130.383C1594.14 120.396 1621.45 139.214 1629 149.398V236.958L1578.58 251.276Z" fill="#745EFF" stroke="black" stroke-width="2"/>
<path d="M1586.25 143.613V255.069L1578.18 258.687H1517.76L1501.64 146.267C1530.19 119.82 1564.36 124.027 1586.25 143.613Z" fill="#5942E3" stroke="black" stroke-width="2"/>
<path d="M1577.15 146.485V258.687H1501.47V146.485C1530.03 120.037 1563.82 135.465 1577.15 146.485Z" fill="#745EFF" stroke="black" stroke-width="2"/>
<path d="M1569.09 152.435V258.687H1507.73V152.435C1530.88 127.39 1558.28 142 1569.09 152.435Z" fill="#745EFF" stroke="black" stroke-width="2"/>
<path d="M1507.73 167.173H1567.17V187.066H1507.73V167.173Z" fill="#745EFF" stroke="black" stroke-width="2"/>
<path d="M1512.76 172.512H1562.13V181.725H1512.76V172.512Z" fill="#332E63" stroke="black" stroke-width="2"/>
<path d="M1556.58 197.062C1556.69 187.077 1561.04 177.75 1561.04 177.75H1513.68C1510.33 180.199 1508.31 191.645 1507.73 197.062H1556.58Z" fill="#AFA2FF" stroke="black" stroke-width="2"/>
<path fill-rule="evenodd" clip-rule="evenodd" d="M1551.17 184.705H1552.73V187.535H1551.17V184.705ZM1531.27 184.705H1532.83V187.535H1531.27V184.705ZM1542.77 184.705H1541.21V187.535H1542.77V184.705ZM1521.31 184.705H1522.87V187.535H1521.31V184.705ZM1549.41 184.705H1547.85V187.535H1549.41V184.705ZM1527.94 184.705H1529.5V187.535H1527.94V184.705ZM1539.46 184.705H1537.89V187.535H1539.46V184.705ZM1518 184.705H1519.56V187.535H1518V184.705ZM1546.1 184.705H1544.54V187.535H1546.1V184.705ZM1524.62 184.705H1526.19V187.535H1524.62V184.705ZM1536.14 184.705H1534.58V187.535H1536.14V184.705ZM1514.68 184.705H1516.24V187.535H1514.68V184.705Z" fill="#383838"/>
<path d="M1531.53 238.761H1545.29C1547.31 238.761 1548.95 240.398 1548.95 242.418C1548.95 244.438 1547.31 246.076 1545.29 246.076H1531.53C1529.51 246.076 1527.87 244.438 1527.87 242.418C1527.87 240.398 1529.51 238.761 1531.53 238.761Z" fill="#23FFA3" stroke="black" stroke-width="2"/>
<path d="M1516.34 264.245V258.687H1560.48V264.245H1516.34Z" fill="#5942E3" stroke="black" stroke-width="2"/>
<path d="M1597.63 176.983L1597.58 176.974H1597.54C1595.61 176.974 1593.76 175.57 1592.36 173.071C1590.98 170.589 1590.1 167.126 1590.1 163.274C1590.1 159.422 1590.98 155.959 1592.36 153.477C1593.76 150.979 1595.61 149.574 1597.54 149.574H1597.58L1597.62 149.567C1600.14 149.125 1602.08 149.301 1603.57 149.892C1605.05 150.48 1606.13 151.495 1606.92 152.812C1608.52 155.48 1608.91 159.357 1608.91 163.274C1608.91 167.186 1608.47 171.089 1606.84 173.77C1606.04 175.095 1604.95 176.113 1603.48 176.696C1602 177.282 1600.1 177.446 1597.63 176.983Z" fill="#5942E3" stroke="black"/>
<path d="M1610.09 163.274C1610.09 167.126 1609.22 170.589 1607.83 173.071C1606.44 175.57 1604.59 176.975 1602.66 176.975C1600.73 176.975 1598.88 175.57 1597.48 173.071C1596.1 170.589 1595.22 167.126 1595.22 163.274C1595.22 159.422 1596.1 155.959 1597.48 153.477C1598.88 150.979 1600.73 149.574 1602.66 149.574C1604.59 149.574 1606.44 150.979 1607.83 153.477C1609.22 155.959 1610.09 159.422 1610.09 163.274Z" fill="#745EFF" stroke="black"/>
<path d="M1598.95 166.461V97.9409C1598.95 91.8009 1606.41 92.5839 1606.66 98.2719V166.461C1606.2 171.623 1599.28 170.845 1598.95 166.461Z" fill="#5942E3" stroke="black"/>
<path d="M1601.47 166.461V97.9409C1601.47 91.8009 1606.83 92.5839 1607.01 98.2719V166.461C1606.67 171.623 1601.71 170.845 1601.47 166.461Z" fill="#745EFF" stroke="black"/>
<path d="M1615.16 95.1301C1612.87 96.3319 1607.1 96.1316 1604.51 95.1301V121.498C1607.51 122.09 1614.43 122.7 1618.03 120.405C1621.64 118.11 1627.73 118.72 1630.33 119.312V95.1301C1628.42 92.2612 1618.03 93.6278 1615.16 95.1301Z" fill="#745EFF" stroke="black"/>
<mask id="mask2_1703_42237" style="mask-type:luminance" maskUnits="userSpaceOnUse" x="1610" y="102" width="18" height="12">
<path d="M1627.35 102.927H1610.6V113.3H1627.35V102.927Z" fill="white"/>
</mask>
<g mask="url(#mask2_1703_42237)">
<path d="M1625.59 109.594C1625.11 109.16 1623.98 108.621 1623.43 107.511C1622.87 106.372 1623.13 105.332 1623.13 104.635C1623.13 103.695 1622.37 102.933 1621.42 102.933C1620.48 102.933 1619.72 103.695 1619.72 104.635C1619.72 105.219 1619.65 106.755 1619.46 107.552C1619.4 107.794 1619.31 107.924 1619.25 108.014C1619 108.363 1618.29 108.766 1617.58 108.279C1617.38 108.147 1617.2 107.912 1617.11 107.624C1616.93 107.012 1617.13 105.236 1617.06 104.47C1617.06 104.463 1617.06 104.457 1617.05 104.45C1617.04 104.331 1617.02 104.226 1616.99 104.14C1616.78 103.441 1616.13 102.933 1615.36 102.933C1614.42 102.933 1613.65 103.695 1613.65 104.635C1613.65 105.139 1613.87 105.592 1614.22 105.904C1614.7 106.337 1615.84 106.876 1616.38 107.987C1616.94 109.126 1616.68 110.165 1616.68 110.863C1616.68 111.802 1617.45 112.565 1618.39 112.565C1619.1 112.565 1619.72 112.126 1619.97 111.504C1620.38 110.58 1619.72 108.958 1620.29 107.748C1620.4 107.511 1620.53 107.391 1620.66 107.276C1620.92 107.037 1621.75 106.771 1622.35 107.484C1622.5 107.687 1622.55 107.843 1622.58 107.997C1622.73 108.653 1622.6 110.726 1622.82 111.359C1623.04 112.056 1623.69 112.563 1624.45 112.563C1625.4 112.563 1626.16 111.801 1626.16 110.861C1626.16 110.357 1625.94 109.904 1625.59 109.592L1625.59 109.594Z" fill="url(#paint3_linear_1703_42237)"/>
<path d="M1612.32 112.566C1613.27 112.566 1614.03 111.804 1614.03 110.863C1614.03 109.923 1613.27 109.161 1612.32 109.161C1611.38 109.161 1610.62 109.923 1610.62 110.863C1610.62 111.804 1611.38 112.566 1612.32 112.566Z" fill="url(#paint4_linear_1703_42237)"/>
</g>
<path d="M725.119 317.98L782.395 335.46L770.354 370.97L713.458 352.652L725.119 317.98Z" fill="#EBFF00"/>
<path d="M725.119 317.98L782.395 335.46M725.119 317.98L713.458 352.652L770.354 370.97L782.395 335.46M725.119 317.98L748.75 344.526L782.395 335.46" stroke="black" stroke-width="2"/>
<path d="M1067.03 65.8069L1128.13 80.4461L1119.42 115.329L1058.62 99.8623L1067.03 65.8069Z" fill="#EBFF00"/>
<path d="M1067.03 65.8069L1128.13 80.4461M1067.03 65.8069L1058.62 99.8623L1119.42 115.329L1128.13 80.4461M1067.03 65.8069L1094.28 90.5769L1128.13 80.4461" stroke="black" stroke-width="2"/>
<path d="M332.32 209.888L382.106 221.837L375.04 250.172L325.503 237.551L332.32 209.888Z" fill="#EBFF00"/>
<path d="M332.32 209.888L382.106 221.837M332.32 209.888L325.503 237.551L375.04 250.172L382.106 221.837M332.32 209.888L354.539 230.038L382.106 221.837" stroke="black" stroke-width="2"/>
<path d="M1532.85 92.1699L1583.68 84.5034L1587.79 113.531L1536.94 120.479L1532.85 92.1699Z" fill="#EBFF00"/>
<path d="M1532.85 92.1699L1583.68 84.5034M1532.85 92.1699L1536.94 120.479L1587.79 113.531L1583.68 84.5034M1532.85 92.1699L1561.12 102.534L1583.68 84.5034" stroke="black" stroke-width="2"/>
<circle cx="1229.88" cy="354.246" r="11.834" fill="#AFA2FF"/>
<circle cx="839.809" cy="360.581" r="7.58203" fill="#AFA2FF"/>
<circle cx="1186.09" cy="98.0059" r="7.58203" fill="#AFA2FF"/>
<path d="M1363.33 283.418L1427.82 284.488L1426.33 323.316L1361.98 321.302L1363.33 283.418Z" fill="#EBFF00"/>
<path d="M1363.33 283.418L1427.82 284.488M1363.33 283.418L1361.98 321.302L1426.33 323.316L1427.82 284.488M1363.33 283.418L1395.89 303.129L1427.82 284.488" stroke="black" stroke-width="2"/>
<path d="M559.263 273.16C559.263 276.131 557.323 278.898 554.022 280.948C550.729 282.994 546.149 284.275 541.063 284.275C535.977 284.275 531.396 282.994 528.103 280.948C524.803 278.898 522.862 276.131 522.862 273.16C522.862 270.188 524.803 267.421 528.103 265.371C531.396 263.325 535.977 262.044 541.063 262.044C546.149 262.044 550.729 263.325 554.022 265.371C557.323 267.421 559.263 270.188 559.263 273.16Z" fill="black" stroke="black"/>
<path d="M609.398 187.562C609.081 198.144 606.359 198.385 605.038 197.182C605.657 198.744 609.055 202.319 617.688 204.131C628.479 206.395 643.749 220.807 648.025 232.13C651.445 241.189 655.052 266.492 656.68 275.551C656.884 271.845 656.5 258.685 655.138 249.63C654.002 242.075 643.068 185.157 629.194 173.934C615.32 162.711 609.794 174.335 609.398 187.562Z" fill="#23FFA3" stroke="black" stroke-width="2"/>
<path d="M514.648 314.029C515.211 313.459 520.404 306.546 522.929 303.16C523.413 302.797 524.567 302.532 525.31 304.382C526.053 306.232 531.719 310.839 534.458 312.91C534.554 309.66 534.916 302.552 535.602 300.118C536.46 297.076 540.677 294.047 546.68 295.348C552.684 296.649 557.687 303.66 559.617 307.201C561.161 310.034 562.357 316.861 562.762 319.921C566.788 319.849 576.842 319.444 584.847 318.403C594.853 317.102 605.216 314.645 612.078 313.561C617.567 312.694 618.425 312.488 623.952 309.958L631.824 314.084L640.261 319.719C641.905 320.996 654.001 326.07 657.86 327.081C668.544 329.88 675.366 327.422 675.509 328.868C675.623 330.024 678.811 333.822 675.509 340.566L665.874 348.558L654.029 350.323C652.232 351.043 640.336 348.558 636.656 348.558C632.977 348.558 629.532 344.797 624.892 342.402L607.793 340.487L559.617 339.498L558.084 337.821C556.812 341.037 553.589 348.398 550.875 352.114C547.483 356.759 539.921 358.617 526.847 355.759C516.388 353.472 514.356 344.448 514.648 340.221H490.515C490.104 338.024 494.023 331.931 495.72 329.246C497.691 326.128 503.194 322.225 505.485 320.978C508.304 318.899 514.084 314.599 514.648 314.029Z" fill="#23FFA3"/>
<path d="M564.421 198.015C571.688 188.15 576.939 184.551 581.088 184.429C578.225 187.507 581.955 191.196 587.408 187.196C591.771 183.995 598.281 184.676 600.991 185.416C600.991 185.416 593.489 188.336 597.724 194.037C599.665 196.031 605.14 198.278 610.819 194.037C614.27 191.461 621.327 192.324 624.856 196.323C624.856 196.323 619.424 197.463 621.092 199.224C623.282 201.537 629.639 196.95 633.639 203.302C633.639 203.302 629.105 202.001 629.105 204.476C634.518 207.551 645.216 220.04 648.537 233.497C651.857 246.953 655.751 259.195 656.735 272.956C657.621 285.359 649.996 295.13 639.245 302.603C625.806 311.944 601.368 316.229 582.41 318.713C563.453 321.196 549.423 320.091 536.262 313.75C522.625 307.18 517.783 290.723 516.064 284.271C514.689 279.109 513.599 281.285 513.226 283.018C513.689 291.741 509.526 307.074 489.167 298.624C463.719 288.061 450.169 257.531 447.836 236.54C445.503 215.549 451.476 191.124 480.738 185.485C510.001 179.846 526.554 199.117 533.823 202.865C543.518 207.864 555.834 209.672 564.421 198.015Z" fill="#23FFA3" stroke="#010101" stroke-width="2"/>
<path d="M534.211 310.4H538.499L562.338 317.25V322.54L534.811 316.816L534.211 310.4Z" fill="#23FFA3"/>
<path d="M526.204 337.359C527.138 334.97 531.569 331.842 533.249 329.835C535.349 327.326 537.411 320.228 532.295 307.898C526.291 293.43 537.39 287.753 545.763 292.174C549.357 294.072 558.157 302.343 560.339 309.286C562.315 315.573 562.914 322.123 560.339 331.639C557.965 340.414 555.357 363.063 528.132 355.946C506.351 350.252 515.813 327.95 523.266 317.512" stroke="black" stroke-width="2"/>
<path d="M622.24 280.163C635.274 277.219 635.438 263.186 633.486 254.044C631.273 246.232 626.868 238.896 609.221 243.576C591.573 248.255 593.088 257.258 596.303 263.904C600.366 272.304 609.205 283.108 622.24 280.163Z" fill="#745EFF" stroke="#010101" stroke-width="2"/>
<path d="M631.475 268.708C632.178 266.117 633.722 265.899 634.051 267.547C632.426 274.389 631.091 278.032 621.884 279.53C633.321 275.496 630.366 272.793 631.475 268.708Z" fill="#010101"/>
<path d="M608.104 270.356C604.426 270.08 604.554 273.656 605.204 275.23C610.508 280.483 614.999 281.723 623.857 279.077C611.618 280.474 612.74 270.702 608.104 270.356Z" fill="#010101"/>
<path fill-rule="evenodd" clip-rule="evenodd" d="M539.787 204.426C535.735 202.605 532.088 201.551 528.337 202.232C524.582 202.914 520.922 205.295 516.738 209.874L515.432 211.304L517.348 211.541C519.395 211.795 521.564 212.828 523.004 214.538C524.414 216.213 525.176 218.592 524.368 221.716C523.817 223.846 522.787 225.205 521.587 226.086C520.37 226.979 518.915 227.426 517.467 227.607C516.02 227.789 514.629 227.699 513.589 227.56C513.072 227.491 512.649 227.41 512.358 227.348C512.213 227.316 512.101 227.29 512.027 227.271C511.991 227.262 511.963 227.255 511.947 227.251L511.929 227.246L511.927 227.246L511.926 227.245L511.926 227.245L511.926 227.245L511.926 227.245L508.365 226.257L510.938 228.908L510.938 228.908L510.938 228.909L510.939 228.91L510.939 228.91L510.951 228.923C510.963 228.935 510.983 228.956 511.009 228.985C511.062 229.043 511.142 229.134 511.245 229.257C511.451 229.503 511.748 229.876 512.096 230.372C512.793 231.364 513.693 232.842 514.487 234.767C515.336 236.822 516.065 239.39 516.293 242.426C516.743 245.654 516.624 248.414 516.531 250.594C516.516 250.935 516.502 251.263 516.491 251.575C517.355 249.427 518.77 245.223 517.507 237.521C517.175 236.228 516.77 235.051 516.335 233.995C515.577 232.16 514.728 230.694 514.012 229.624C515.063 229.726 516.353 229.763 517.707 229.594C519.376 229.385 521.189 228.855 522.764 227.699C524.356 226.53 525.641 224.766 526.302 222.21C527.27 218.469 526.367 215.421 524.534 213.244C523.169 211.624 521.319 210.518 519.423 209.943C522.926 206.396 525.868 204.713 528.686 204.202C531.828 203.631 535.015 204.478 538.962 206.253L539.787 204.426Z" fill="#010101"/>
<path d="M604.532 285.069C602.096 285.069 599.7 287.958 600.242 289.584" stroke="black" stroke-width="2"/>
<path d="M623.566 310.036C627.887 311.502 637.296 318.334 640.286 320.035C645.951 323.257 658.633 328.365 673.11 328.365C681.931 328.365 676.86 347.129 660.048 349.379C655.941 349.929 641.444 353.483 629.375 344.389C621.554 338.497 604.807 340.818 558.435 339.669" stroke="black" stroke-width="2"/>
<path d="M589.631 271.251C588.797 258.306 579.828 243.941 567.716 237.13C543.21 223.352 538.458 249.171 539.988 260.412C541.517 271.652 542.564 283.367 551.757 283.367C566.659 283.367 568.629 292.506 579.875 292.506C584.109 292.506 590.675 287.432 589.631 271.251Z" fill="#EBFF00" stroke="black" stroke-width="2"/>
<path d="M601.774 286.511C607.411 293.438 617.705 286.883 624.216 284.949C629.72 283.314 640.146 284.423 639.414 277.697" stroke="black" stroke-width="2"/>
<path d="M637.237 277.688C639.376 277.285 640.956 277.58 642.345 279.298" stroke="black" stroke-width="2"/>
<path d="M523.557 302.425C521.03 307.438 513.369 316.364 508.318 319.292C494.244 327.453 491.573 334.234 490.516 340.395H514.241" stroke="black" stroke-width="2"/>
<path d="M635.373 228.986C634.366 217.28 639.357 217.534 641.979 219.125C648.585 228.031 660.573 276.593 655.54 278.183C650.507 279.774 644.21 274.118 642.383 268.39C641.29 264.965 636.631 243.618 635.373 228.986Z" fill="#EBFF00" stroke="black" stroke-width="2"/>
<path d="M649.794 244.462C650.473 245.57 650.652 246.827 650.68 247.208C650.651 247.233 650.606 247.267 650.536 247.312C650.319 247.451 649.975 247.621 649.478 247.851C649.299 247.934 649.104 248.023 648.892 248.12C647.945 248.552 646.669 249.135 645.099 249.96C644.379 250.338 643.729 250.713 643.158 251.042C642.934 251.171 642.722 251.293 642.523 251.405C641.793 251.818 641.258 252.087 640.851 252.186C640.656 252.233 640.526 252.231 640.438 252.209C640.36 252.19 640.284 252.149 640.203 252.05C640.015 251.822 639.829 251.332 639.703 250.369C639.703 250.359 639.703 250.345 639.703 250.329C639.704 250.281 639.706 250.209 639.71 250.116C639.719 249.93 639.739 249.659 639.781 249.33C639.865 248.67 640.04 247.784 640.397 246.871C641.11 245.054 642.527 243.166 645.416 242.676C646.635 242.47 647.545 242.637 648.232 242.978C648.922 243.322 649.426 243.861 649.794 244.462Z" fill="#1D1D1D" stroke="black"/>
<path d="M647.125 243.981C647.209 244.179 647.18 244.508 646.86 244.932C646.549 245.344 646.019 245.76 645.332 246.053C644.646 246.345 643.978 246.439 643.466 246.378C642.939 246.315 642.681 246.109 642.597 245.911C642.513 245.713 642.542 245.385 642.862 244.96C643.173 244.548 643.703 244.132 644.389 243.84C645.076 243.547 645.743 243.453 646.255 243.514C646.783 243.577 647.04 243.784 647.125 243.981Z" fill="white" stroke="black"/>
<path d="M586.402 272.374C586.05 272.239 585.596 272.068 585.055 271.872C583.68 271.373 581.739 270.708 579.471 270.044C574.946 268.717 569.084 267.378 563.824 267.378L548.692 267.378L544.387 267.378L543.678 267.378C543.678 267.378 543.679 267.377 543.679 267.376C543.934 266.918 544.321 266.266 544.845 265.498C545.895 263.96 547.49 261.968 549.674 260.141C554.023 256.501 560.715 253.504 570.155 256.108C574.692 257.705 578.804 261.321 581.794 264.913C583.286 266.707 584.487 268.481 585.312 269.968C585.725 270.712 586.04 271.378 586.25 271.935C586.31 272.093 586.361 272.24 586.402 272.374Z" fill="#1D1D1D" stroke="black"/>
<path d="M568.596 260.203C567.154 259.975 565.918 259.489 565.085 258.91C564.22 258.309 563.929 257.718 563.997 257.289C564.065 256.86 564.524 256.389 565.532 256.084C566.503 255.79 567.829 255.708 569.27 255.936C570.712 256.164 571.948 256.65 572.781 257.229C573.646 257.83 573.938 258.421 573.87 258.85C573.802 259.279 573.343 259.75 572.335 260.055C571.364 260.349 570.038 260.431 568.596 260.203Z" fill="white" stroke="black"/>
<path d="M1650.82 165.447C1644.97 159.982 1643.52 160.993 1643.52 160.993V189.463C1643.52 189.463 1651.12 189.463 1649.06 198.961C1641.39 210.095 1622.1 213.692 1612.41 214.817C1609.2 215.189 1606.66 217.86 1606.66 221.086V259.302C1606.66 262.615 1609.38 265.328 1612.69 265.101C1653.48 262.304 1656.09 231.222 1656.09 231.222V181.68C1656.18 180.594 1656.18 179.51 1656.09 178.432C1655.71 173.689 1654.27 168.66 1650.82 165.447Z" fill="#387659" fill-opacity="0.5"/>
<path d="M1656.09 178.432C1655.71 173.689 1654.27 168.66 1650.82 165.447C1644.97 159.982 1643.52 160.993 1643.52 160.993V189.463C1643.52 189.463 1651.12 189.463 1649.06 198.961M1656.09 178.432V231.222C1656.09 231.222 1653.48 262.304 1612.69 265.101C1609.38 265.328 1606.66 262.615 1606.66 259.302V221.086C1606.66 217.86 1609.2 215.189 1612.41 214.817C1622.1 213.692 1641.39 210.095 1649.06 198.961M1656.09 178.432C1656.64 185.283 1653.59 192.386 1649.06 198.961" stroke="black"/>
<path opacity="0.4" d="M1606.66 221.086V259.301C1606.66 262.615 1609.38 265.327 1612.69 265.1C1653.48 262.303 1656.09 231.221 1656.09 231.221V181.68C1656.18 180.593 1656.18 179.509 1656.09 178.432V181.68C1655.64 187.503 1652.88 193.419 1649.06 198.96C1641.39 210.094 1622.1 213.691 1612.41 214.816C1609.2 215.188 1606.66 217.859 1606.66 221.086Z" fill="#23FFA3" stroke="black"/>
<path d="M1355.93 97.7176C1356.27 108.877 1359.14 109.13 1360.53 107.862C1359.88 109.509 1356.29 113.279 1347.19 115.189C1335.81 117.578 1319.71 132.775 1315.2 144.717C1311.59 154.269 1307.79 180.953 1306.07 190.506C1305.86 186.598 1306.26 172.72 1307.7 163.171C1308.9 155.203 1320.43 95.1814 1335.06 83.3459C1349.69 71.5104 1355.51 83.7685 1355.93 97.7176Z" fill="#23FFA3" stroke="black" stroke-width="2"/>
<path d="M1310.26 129.801C1306.53 139.793 1305.23 149.285 1306.1 156.538C1306.98 163.861 1310.02 168.576 1314.58 169.667C1315.64 169.92 1316.35 169.75 1316.89 169.384C1317.5 168.98 1318.08 168.215 1318.61 166.973C1319.68 164.482 1320.29 160.654 1320.84 155.954C1321.01 154.447 1321.17 152.858 1321.35 151.209C1322.23 142.725 1323.27 132.666 1326.48 124.086C1330.12 114.328 1333.7 110.232 1335.34 108.366C1335.42 108.27 1335.5 108.179 1335.57 108.095C1335.58 108.09 1335.58 108.086 1335.58 108.082C1335.35 108.032 1335.04 107.974 1334.65 107.899L1334.64 107.898C1333.87 107.75 1332.84 107.55 1331.53 107.237C1329.05 106.645 1327.01 106.561 1325.24 106.991C1323.49 107.416 1321.89 108.367 1320.3 110.034C1317.06 113.445 1314.05 119.671 1310.26 129.801ZM1336.21 108.248C1336.21 108.248 1336.21 108.248 1336.21 108.246C1336.21 108.248 1336.21 108.248 1336.21 108.248Z" fill="#5942E3" stroke="black" stroke-width="2"/>
<path d="M1308.78 128.064L1308.78 128.08L1308.77 128.096C1303.86 139.992 1302.45 149.411 1303.28 156.052C1303.88 160.901 1305.64 164.165 1308 165.929C1307.61 164.866 1307.26 163.483 1307.06 161.711C1306.46 156.443 1307.22 147.752 1312.42 133.839C1317.28 120.842 1322.17 113.754 1325.94 109.895C1327.51 108.278 1328.89 107.228 1329.98 106.549C1328.3 106.186 1326.75 106.146 1325.3 106.401C1323.24 106.766 1321.3 107.747 1319.43 109.417C1315.63 112.804 1312.19 118.941 1308.78 128.064Z" fill="#745EFF" stroke="black" stroke-width="2"/>
<path d="M1448.28 217.51C1452.19 219.438 1454.89 225.812 1457.74 228.181C1463.1 232.65 1465.3 232.383 1468.28 234.575C1470.69 235.89 1476.14 242.181 1478.22 245.469C1480.01 248.3 1481.73 256.387 1481.3 258.704H1455.85C1456.16 263.161 1455.85 289.662 1444.6 299.884C1436.55 307.207 1418.73 309.361 1418.01 299.884C1417.33 290.948 1424.44 268.271 1422.48 261.394C1421.15 256.727 1414.99 258.704 1410.32 257.941H1408.43H1377.85L1367.54 261.394C1362.65 263.919 1367.54 276.973 1377.85 292.552C1379.99 295.788 1381.82 302.017 1377.85 303.778L1364.34 305.84L1349.22 299.884C1348.36 296.911 1341.1 291.178 1335.16 271.245C1334.23 268.127 1330.98 263.604 1329.95 251.433C1329.6 247.241 1328.22 232.429 1329.95 231.083L1331.87 223.293L1336.89 225.254C1342.72 227.922 1347.31 229.675 1353.1 230.589C1360.34 231.733 1371.27 234.324 1381.82 235.696C1390.21 236.787 1400.74 237.215 1405.03 237.295C1405.09 236.49 1405.33 235.622 1405.11 237.296C1405.08 237.296 1405.06 237.295 1405.03 237.295C1404.98 238.041 1405.09 238.734 1405.87 237.296C1407.9 233.562 1406.55 237.068 1412.88 235.696C1416.08 235.001 1416.35 233.003 1415.95 231.618C1415.41 231.553 1415.07 231.386 1414.99 231.083C1414.54 229.5 1415.56 230.268 1415.95 231.618C1419.97 232.103 1434.87 226.881 1434.96 229.903C1437.85 227.719 1443.82 222.861 1444.6 220.91C1445.39 218.959 1447.77 217.127 1448.28 217.51Z" fill="#23FFA3"/>
<path d="M1402.79 108.381C1395.12 97.9776 1389.59 94.1831 1385.21 94.0539C1388.23 97.3002 1384.3 101.19 1378.55 96.9717C1373.94 93.5968 1367.08 94.3143 1364.22 95.095C1364.22 95.095 1372.13 98.1737 1367.67 104.187C1365.62 106.288 1359.85 108.658 1353.86 104.187C1350.22 101.47 1342.78 102.379 1339.05 106.597C1339.05 106.597 1344.78 107.799 1343.02 109.657C1340.71 112.096 1335.08 105.193 1330.87 111.891C1330.87 111.891 1334.57 112.585 1334.57 115.195C1328.87 118.437 1317.58 131.608 1314.08 145.798C1310.58 159.989 1306.47 172.899 1305.44 187.411C1304.5 200.489 1312.54 210.794 1323.88 218.674C1338.05 228.525 1363.82 233.043 1383.82 235.663C1403.81 238.282 1418.6 237.116 1432.48 230.429C1446.86 223.501 1451.97 206.147 1453.78 199.342C1455.23 193.899 1456.38 196.194 1456.77 198.021C1456.29 207.22 1460.68 223.389 1482.15 214.478C1508.98 203.339 1523.27 171.143 1525.73 149.008C1528.19 126.872 1521.89 101.114 1491.03 95.1675C1460.18 89.2211 1442.72 109.543 1435.05 113.496C1424.83 118.768 1411.84 120.674 1402.79 108.381Z" fill="#23FFA3" stroke="#010101" stroke-width="2"/>
<path d="M1376.15 169.057C1374.97 175.059 1373.73 184.33 1376.11 192.566C1377.29 196.663 1379.36 200.478 1382.77 203.517C1386.17 206.554 1390.98 208.871 1397.7 209.875C1406.19 211.142 1412.64 210.289 1417.49 208.025C1422.33 205.767 1425.68 202.063 1427.91 197.444C1432.38 188.15 1432.26 175.216 1430.38 163.375C1427.96 153.004 1424.08 146.225 1419.11 142.189C1414.15 138.164 1407.99 136.761 1400.78 137.415C1395.71 137.876 1390.72 140.006 1386.42 144.86C1382.1 149.738 1378.43 157.42 1376.15 169.057Z" fill="#A8FFDA" stroke="#010101" stroke-width="2"/>
<circle cx="18.7016" cy="18.7016" r="17.7016" transform="matrix(-0.971046 -0.238893 -0.238893 0.971046 1418.6 167.81)" fill="#1E1E1E" stroke="black" stroke-width="2"/>
<path d="M1413.56 178.024C1411.13 167.628 1401.44 173.726 1397.31 176.67C1396.19 171.136 1388.56 162.67 1383.33 170.612C1376.79 180.54 1390.02 198.11 1391.07 198.243C1392.12 198.376 1416.59 191.019 1413.56 178.024Z" fill="#E47C84" stroke="black" stroke-width="2"/>
<path d="M1455.25 257.674C1455.25 266.808 1456.25 276.139 1447.75 295.77C1441.09 311.162 1414.54 307.25 1417.76 295.77C1428.98 255.784 1417.76 257.674 1417.76 257.674C1417.76 257.674 1406.76 258.433 1385.48 257.674" stroke="black" stroke-width="2"/>
<path d="M1340.64 198.151C1327.15 194.601 1326.98 177.685 1329 166.665C1331.29 157.247 1335.85 148.404 1354.12 154.045C1372.39 159.686 1370.82 170.538 1367.49 178.55C1363.29 188.677 1354.13 201.7 1340.64 198.151Z" fill="#745EFF" stroke="#010101" stroke-width="2"/>
<path d="M1331.09 184.341C1330.36 181.218 1328.76 180.955 1328.42 182.942C1330.1 191.189 1331.48 195.581 1341.02 197.386C1329.18 192.524 1332.23 189.265 1331.09 184.341Z" fill="#010101"/>
<path d="M1355.28 186.327C1359.09 185.995 1358.96 190.306 1358.28 192.204C1352.79 198.535 1348.14 200.03 1338.97 196.841C1351.64 198.525 1350.48 186.745 1355.28 186.327Z" fill="#010101"/>
<path fill-rule="evenodd" clip-rule="evenodd" d="M1428.36 115.346C1432.66 113.413 1436.73 112.376 1440.91 113.14C1445.09 113.905 1449.19 116.442 1453.61 121.286L1454.92 122.716L1453.01 122.953C1450.83 123.222 1448.53 124.317 1447.01 126.133C1445.51 127.912 1444.7 130.439 1445.56 133.75C1446.14 136.008 1447.23 137.453 1448.51 138.389C1449.8 139.339 1451.35 139.812 1452.88 140.004C1454.41 140.196 1455.88 140.101 1456.98 139.954C1457.53 139.881 1457.98 139.795 1458.29 139.729C1458.44 139.696 1458.56 139.668 1458.64 139.649C1458.67 139.639 1458.7 139.632 1458.72 139.627L1458.74 139.622L1458.74 139.621L1458.74 139.621L1458.74 139.621C1458.74 139.621 1458.74 139.621 1458.74 139.621L1462.31 138.633L1459.73 141.284L1459.73 141.284L1459.73 141.284L1459.73 141.285L1459.73 141.286L1459.72 141.299C1459.7 141.313 1459.68 141.335 1459.66 141.366C1459.6 141.428 1459.52 141.524 1459.41 141.654C1459.19 141.915 1458.87 142.309 1458.51 142.834C1457.77 143.883 1456.82 145.445 1455.98 147.479C1455.01 149.814 1454.2 152.774 1454.02 156.301C1453.66 159.394 1453.78 162.054 1453.87 164.188C1453.88 164.549 1453.9 164.894 1453.91 165.224C1453.03 163.026 1451.59 158.788 1452.73 151.121C1453.1 149.482 1453.59 148.007 1454.13 146.707C1454.95 144.72 1455.87 143.144 1456.64 142.011C1455.51 142.127 1454.11 142.175 1452.64 141.99C1450.89 141.771 1448.98 141.215 1447.33 140.002C1445.66 138.777 1444.32 136.928 1443.62 134.245C1442.61 130.316 1443.55 127.12 1445.48 124.839C1446.93 123.115 1448.9 121.946 1450.92 121.35C1447.17 117.564 1443.8 115.704 1440.56 115.11C1436.95 114.45 1433.32 115.314 1429.18 117.173L1428.36 115.346Z" fill="#010101"/>
<path d="M1444.66 113.368C1453.6 117.478 1455.74 131.226 1455.74 157.393C1461.74 159.049 1492.33 152.891 1489.35 132.771C1486.37 112.651 1476.8 102.169 1450.94 94.3557C1431.06 88.3529 1390.03 86.082 1366.92 86.0817C1342.43 86.0815 1331.08 114.196 1325.11 125.311C1334.6 114.467 1347.59 90.4538 1370.91 93.1813C1396.89 96.2187 1422.5 103.186 1444.66 113.368Z" fill="#745EFF" stroke="black" stroke-width="2"/>
<path d="M1454.49 109.119C1463.97 117.796 1462.26 130.441 1462.26 145.542C1468.26 147.198 1491.72 149.312 1488.79 129.185C1484.6 100.434 1463.33 92.0219 1436.95 86.1469C1413.64 80.9538 1400.32 79.9625 1373.45 78.3825C1346.58 76.8024 1331.78 101.254 1319.72 133.039C1319.72 133.039 1338.37 85.0044 1367.04 86.1469C1390.76 87.0926 1439.9 95.7692 1454.49 109.119Z" fill="#745EFF" stroke="black" stroke-width="2"/>
<path d="M1504.13 173.207C1502.66 184.01 1498.41 193.242 1492.78 199.444C1487.15 205.651 1480.21 208.744 1473.31 207.558C1466.41 206.372 1460.62 201.091 1456.89 193.273C1453.16 185.463 1451.56 175.224 1453.02 164.422C1454.49 153.619 1458.74 144.387 1464.37 138.185C1470.01 131.978 1476.94 128.885 1483.84 130.071C1490.74 131.257 1496.53 136.538 1500.26 144.356C1503.99 152.166 1505.59 162.405 1504.13 173.207Z" fill="#AFA2FF" stroke="black" stroke-width="2"/>
<path d="M1504.19 172.798C1502.8 182.982 1498.83 191.688 1493.57 197.539C1488.31 203.396 1481.86 206.308 1475.45 205.207C1469.05 204.106 1463.66 199.159 1460.19 191.801C1456.73 184.451 1455.25 174.807 1456.63 164.622C1458.02 154.438 1461.99 145.731 1467.25 139.881C1472.51 134.024 1478.96 131.111 1485.37 132.212C1491.77 133.313 1497.16 138.261 1500.62 145.619C1504.09 152.968 1505.57 162.613 1504.19 172.798Z" fill="#5942E3" stroke="black" stroke-width="2"/>
<path d="M1505.06 172.478C1503.81 181.694 1500.41 189.6 1495.99 194.939C1491.56 200.293 1486.21 202.939 1481 202.044C1475.8 201.149 1471.4 196.827 1468.59 190.228C1465.78 183.647 1464.64 174.961 1465.89 165.745C1467.15 156.529 1470.54 148.623 1474.96 143.284C1479.4 137.931 1484.75 135.284 1489.95 136.179C1495.16 137.074 1499.56 141.396 1502.37 147.996C1505.17 154.576 1506.31 163.262 1505.06 172.478Z" fill="#745EFF" stroke="black" stroke-width="2"/>
<path d="M1331.35 222.911C1327.94 231.467 1329.12 259.085 1338.13 280.307C1343.18 292.184 1350.36 305.153 1367.55 305.153C1401.81 305.153 1356.31 277.099 1367.55 262.539C1373.11 255.333 1381.67 258.182 1408.22 258.182" stroke="black" stroke-width="2"/>
<path d="M1351.24 219.888C1342.7 222.213 1337.46 216.055 1336.06 212.068L1358.45 216.046C1358.45 216.046 1356.95 218.333 1351.24 219.888Z" fill="#E47C84" stroke="black" stroke-width="2"/>
<path d="M1448.17 215.574C1452.42 224.924 1464.78 231.012 1469.23 235.274C1482.68 248.192 1481.3 252.574 1481.3 258.886L1455.97 258.886" stroke="black" stroke-width="2"/>
<path d="M1328.53 141.401C1329.59 129.056 1324.33 129.325 1321.56 131.002C1314.6 140.394 1301.96 191.605 1307.26 193.282C1312.57 194.959 1319.21 188.995 1321.14 182.954C1322.29 179.342 1327.2 156.832 1328.53 141.401Z" fill="#A8FFDA" stroke="black" stroke-width="2"/>
<path d="M1310.6 163.88C1309.75 167.86 1308.97 172.011 1309.12 175.364C1309.19 177.035 1309.5 178.406 1310.07 179.43C1310.62 180.412 1311.44 181.132 1312.72 181.496C1315.36 182.253 1317.55 181.39 1319.27 179.187C1321.04 176.931 1322.29 173.29 1322.84 168.687C1322.93 167.887 1323.03 167.108 1323.13 166.349C1323.32 164.855 1323.49 163.441 1323.62 162.097C1323.82 160.075 1323.89 158.306 1323.72 156.811C1323.55 155.318 1323.15 154.191 1322.48 153.369C1321.82 152.563 1320.8 151.927 1319.15 151.602C1317.42 151.262 1315.74 152.18 1314.2 154.423C1312.66 156.651 1311.42 159.986 1310.6 163.88Z" fill="#1E1E1E" stroke="black" stroke-width="2"/>
<path d="M1323.72 160.657C1323.11 153.438 1318.18 158.352 1316.07 160.69C1315.83 156.836 1312.64 151.303 1309.74 157.251C1306.11 164.686 1311.47 176.33 1311.97 176.36C1312.46 176.39 1324.48 169.682 1323.72 160.657Z" fill="#E47C84" stroke="black" stroke-width="2"/>
<path d="M1385.28 93.6932C1389.73 93.6045 1396.33 99.5144 1399.07 102.48L1378.83 119.834C1360.95 122.801 1324.62 127.141 1324.62 127.141C1327.88 121.468 1335.57 115.027 1335.57 115.027L1330.57 111.163C1330.57 111.163 1336.4 108.269 1342.41 109.701C1346.48 110.674 1338.44 106.597 1339.78 105.818C1348.44 100.767 1348.58 102.592 1356.81 105.818C1363.4 108.399 1367.78 104.965 1369.26 102.48C1370.24 95.7588 1366.54 94.8137 1365.06 94.7002C1364.87 94.696 1364.67 94.6938 1364.48 94.6938C1364.48 94.6938 1364.7 94.6728 1365.06 94.7002C1370.81 94.8251 1376.03 96.7796 1382.05 99.2547C1387.04 101.302 1386.28 96.3999 1385.28 93.6932Z" fill="#23FFA3"/>
<path d="M1402.79 108.381C1395.12 97.9779 1389.59 94.1834 1385.21 94.0542C1388.23 97.3005 1384.3 101.191 1378.55 96.972C1373.95 93.5971 1367.08 94.3146 1364.22 95.0953C1364.22 95.0953 1372.13 98.174 1367.67 104.187C1365.62 106.289 1359.85 108.658 1353.86 104.187C1350.22 101.47 1342.78 102.38 1339.06 106.597C1339.06 106.597 1344.78 107.8 1343.03 109.657C1340.72 112.096 1335.08 105.194 1330.87 111.892C1330.87 111.892 1334.57 112.585 1334.57 115.195" stroke="#010101" stroke-width="2"/>
<path d="M795.561 227.695C792.513 225.047 785.354 221.752 781.905 214.97C778.361 208.009 780.005 201.66 780.005 197.4C780.005 191.658 775.178 187 769.226 187C763.274 187 758.447 191.658 758.447 197.4C758.447 200.97 758.015 210.351 756.799 215.224C756.43 216.701 755.885 217.491 755.475 218.046C753.904 220.179 749.419 222.639 744.935 219.663C743.665 218.855 742.548 217.422 742.004 215.661C740.851 211.92 742.139 201.075 741.648 196.39C741.643 196.351 741.639 196.312 741.634 196.272C741.553 195.543 741.427 194.905 741.234 194.376C739.892 190.107 735.781 187 730.918 187C724.966 187 720.139 191.658 720.139 197.4C720.139 200.48 721.526 203.246 723.737 205.152C726.785 207.8 733.944 211.094 737.393 217.876C740.932 224.837 739.289 231.186 739.289 235.446C739.289 241.188 744.115 245.846 750.068 245.846C754.579 245.846 758.447 243.168 760.05 239.366C762.612 233.72 758.442 223.81 762.067 216.421C762.778 214.97 763.571 214.236 764.372 213.533C766.043 212.077 771.306 210.448 775.079 214.808C776.038 216.045 776.308 216.998 776.538 217.942C777.502 221.948 776.624 234.612 778.06 238.479C779.406 242.739 783.512 245.837 788.366 245.837C794.318 245.837 799.145 241.179 799.145 235.438C799.145 232.357 797.758 229.591 795.548 227.686L795.561 227.695Z" fill="white"/>
<path d="M711.779 245.851C717.732 245.851 722.558 241.198 722.558 235.452C722.558 229.705 717.732 225.052 711.779 225.052C705.827 225.052 701 229.705 701 235.452C701 241.198 705.827 245.851 711.779 245.851Z" fill="white"/>
<path fill-rule="evenodd" clip-rule="evenodd" d="M822.617 201.703H815.044C814.603 201.703 814.246 202.045 814.246 202.468V245.073C814.246 245.496 814.603 245.838 815.044 245.838H822.617C823.058 245.838 823.416 245.496 823.416 245.073V215.496L834.321 227.261C834.353 227.306 834.391 227.346 834.433 227.382L834.452 227.404L838.425 231.688L838.448 231.71L839.382 232.716C839.714 232.998 840.218 232.967 840.507 232.654L856.409 215.497V245.073C856.409 245.496 856.767 245.838 857.208 245.838H864.781C865.222 245.838 865.58 245.496 865.58 245.073V202.468C865.58 202.045 865.222 201.703 864.781 201.703H857.208C856.898 201.703 856.629 201.872 856.497 202.119L840.69 219.319C840.339 219.699 839.728 219.699 839.373 219.324L823.365 202.183C823.361 202.179 823.357 202.175 823.353 202.171C823.232 201.896 822.949 201.703 822.617 201.703Z" fill="white"/>
<path d="M890.498 209.055C880.074 209.055 871.624 217.288 871.624 227.445C871.624 237.602 880.074 245.835 890.498 245.835C900.922 245.835 909.372 237.602 909.372 227.445C909.372 217.288 900.922 209.055 890.498 209.055ZM890.498 237.419C884.846 237.419 880.261 232.952 880.261 227.445C880.261 221.938 884.846 217.471 890.498 217.471C896.15 217.471 900.735 221.938 900.735 227.445C900.735 232.952 896.15 237.419 890.498 237.419Z" fill="white"/>
<path d="M964.756 209.055C961.035 209.055 957.572 210.119 954.667 211.943V209.833C954.667 209.413 954.312 209.069 953.878 209.069H946.399C945.965 209.069 945.61 209.413 945.61 209.833V252.426C945.61 252.846 945.965 253.19 946.399 253.19H953.878C954.312 253.19 954.667 252.846 954.667 252.426V242.238C957.572 244.062 961.035 245.126 964.756 245.126C975.03 245.126 983.358 237.053 983.358 227.093C983.358 217.133 975.03 209.06 964.756 209.06V209.055ZM964.756 236.869C959.19 236.869 954.676 232.502 954.667 227.106V227.066C954.676 221.675 959.19 217.303 964.756 217.303C970.322 217.303 974.846 221.684 974.846 227.084C974.846 232.484 970.327 236.865 964.756 236.865V236.869Z" fill="white"/>
<path d="M938.506 209.06H933.306C923.421 209.06 915.413 216.501 915.413 225.674V240.605C915.413 240.605 915.413 240.628 915.413 240.637V245.055C915.413 245.484 915.791 245.835 916.252 245.835H924.217C924.678 245.835 925.057 245.484 925.057 245.055V225.013C925.057 220.18 929.275 216.259 934.484 216.259H938.806C939.257 216.259 939.572 215.922 939.572 215.552V210.045C939.572 209.498 939.095 209.055 938.506 209.055V209.06Z" fill="white"/>
<path d="M1006.38 206.954C1003.48 206.954 1000.75 207.67 998.362 208.926V199.526C998.362 199.106 998.01 198.761 997.582 198.761H990.183C989.754 198.761 989.403 199.106 989.403 199.526V223.358C989.403 223.443 989.398 223.528 989.398 223.608V236.846H989.403V242.132C989.403 242.552 989.754 242.896 990.183 242.896H997.582C998.01 242.896 998.362 242.552 998.362 242.132V223.282C998.362 219.319 1001.64 215.612 1005.66 215.263C1010.41 214.856 1014.4 218.519 1014.4 223.098V242.149C1014.4 242.561 1014.74 242.892 1015.16 242.892H1022.61C1023.03 242.892 1023.37 242.556 1023.37 242.145V223.604C1023.37 214.405 1015.77 206.95 1006.39 206.95L1006.38 206.954Z" fill="white"/>
<path d="M1219.66 232.296C1219.66 234.753 1219.06 236.889 1217.87 238.703C1216.68 240.517 1214.93 241.916 1212.64 242.898C1210.37 243.881 1207.6 244.373 1204.35 244.373C1202.91 244.373 1201.5 244.278 1200.11 244.089C1198.75 243.9 1197.43 243.626 1196.17 243.267C1194.92 242.889 1193.72 242.426 1192.59 241.878V233.714C1194.56 234.583 1196.6 235.367 1198.72 236.067C1200.84 236.766 1202.95 237.115 1205.03 237.115C1206.47 237.115 1207.62 236.926 1208.49 236.549C1209.38 236.171 1210.03 235.651 1210.43 234.989C1210.82 234.328 1211.02 233.572 1211.02 232.722C1211.02 231.682 1210.67 230.794 1209.97 230.057C1209.27 229.32 1208.31 228.63 1207.07 227.987C1205.86 227.345 1204.49 226.655 1202.95 225.918C1201.99 225.464 1200.94 224.916 1199.8 224.274C1198.67 223.612 1197.59 222.809 1196.56 221.864C1195.54 220.919 1194.7 219.776 1194.03 218.434C1193.39 217.073 1193.07 215.448 1193.07 213.558C1193.07 211.082 1193.64 208.966 1194.77 207.208C1195.91 205.451 1197.53 204.109 1199.63 203.183C1201.75 202.238 1204.25 201.765 1207.13 201.765C1209.29 201.765 1211.35 202.021 1213.3 202.531C1215.27 203.022 1217.32 203.74 1219.46 204.685L1216.62 211.517C1214.71 210.742 1212.99 210.147 1211.48 209.731C1209.96 209.297 1208.42 209.079 1206.85 209.079C1205.75 209.079 1204.81 209.259 1204.03 209.618C1203.26 209.958 1202.67 210.449 1202.27 211.092C1201.88 211.716 1201.68 212.443 1201.68 213.275C1201.68 214.257 1201.96 215.089 1202.53 215.769C1203.12 216.431 1203.99 217.073 1205.14 217.697C1206.32 218.321 1207.78 219.048 1209.52 219.88C1211.64 220.881 1213.45 221.93 1214.94 223.026C1216.46 224.104 1217.62 225.379 1218.44 226.853C1219.25 228.309 1219.66 230.123 1219.66 232.296Z" fill="white"/>
<path d="M1175.69 209.079C1174.01 209.079 1172.51 209.41 1171.2 210.071C1169.92 210.714 1168.83 211.649 1167.94 212.878C1167.07 214.106 1166.4 215.59 1165.95 217.328C1165.49 219.067 1165.27 221.023 1165.27 223.197C1165.27 226.126 1165.63 228.63 1166.35 230.709C1167.09 232.769 1168.22 234.347 1169.76 235.443C1171.29 236.52 1173.27 237.059 1175.69 237.059C1177.38 237.059 1179.06 236.87 1180.75 236.492C1182.45 236.114 1184.3 235.575 1186.29 234.876V242.246C1184.45 243.002 1182.64 243.541 1180.86 243.862C1179.08 244.203 1177.08 244.373 1174.87 244.373C1170.59 244.373 1167.07 243.494 1164.3 241.736C1161.55 239.96 1159.52 237.484 1158.19 234.309C1156.87 231.115 1156.2 227.392 1156.2 223.14C1156.2 220.003 1156.63 217.13 1157.48 214.522C1158.34 211.914 1159.59 209.656 1161.23 207.747C1162.88 205.838 1164.92 204.364 1167.34 203.325C1169.76 202.285 1172.55 201.765 1175.69 201.765C1177.76 201.765 1179.82 202.03 1181.89 202.559C1183.97 203.069 1185.96 203.778 1187.85 204.685L1185.01 211.829C1183.46 211.092 1181.9 210.449 1180.32 209.901C1178.75 209.353 1177.21 209.079 1175.69 209.079Z" fill="white"/>
<path d="M1149.43 223.021C1149.43 226.215 1149.04 229.126 1148.24 231.752C1147.44 234.361 1146.23 236.609 1144.6 238.499C1142.99 240.389 1140.95 241.844 1138.47 242.865C1135.99 243.867 1133.05 244.367 1129.66 244.367C1126.27 244.367 1123.33 243.867 1120.85 242.865C1118.37 241.844 1116.32 240.389 1114.69 238.499C1113.08 236.609 1111.88 234.351 1111.08 231.724C1110.29 229.097 1109.89 226.177 1109.89 222.965C1109.89 218.675 1110.59 214.942 1111.99 211.767C1113.41 208.573 1115.59 206.097 1118.52 204.34C1121.46 202.582 1125.19 201.703 1129.72 201.703C1134.22 201.703 1137.93 202.582 1140.83 204.34C1143.74 206.097 1145.9 208.573 1147.3 211.767C1148.72 214.961 1149.43 218.712 1149.43 223.021ZM1119.12 223.021C1119.12 225.913 1119.48 228.407 1120.2 230.505C1120.94 232.584 1122.08 234.19 1123.64 235.324C1125.19 236.439 1127.2 236.997 1129.66 236.997C1132.16 236.997 1134.19 236.439 1135.74 235.324C1137.29 234.19 1138.42 232.584 1139.12 230.505C1139.84 228.407 1140.2 225.913 1140.2 223.021C1140.2 218.675 1139.39 215.254 1137.76 212.759C1136.13 210.265 1133.45 209.017 1129.72 209.017C1127.24 209.017 1125.21 209.584 1123.64 210.718C1122.08 211.833 1120.94 213.44 1120.2 215.537C1119.48 217.616 1119.12 220.111 1119.12 223.021Z" fill="white"/>
<path d="M1103.13 222.697C1103.13 227.365 1102.23 231.267 1100.43 234.404C1098.65 237.523 1096.06 239.876 1092.67 241.463C1089.28 243.032 1085.2 243.816 1080.43 243.816H1068.67V202.371H1081.71C1086.06 202.371 1089.84 203.146 1093.04 204.696C1096.24 206.226 1098.72 208.504 1100.48 211.527C1102.24 214.532 1103.13 218.255 1103.13 222.697ZM1093.98 222.923C1093.98 219.862 1093.52 217.348 1092.61 215.383C1091.72 213.398 1090.4 211.934 1088.64 210.989C1086.89 210.044 1084.74 209.571 1082.16 209.571H1077.47V236.559H1081.25C1085.55 236.559 1088.74 235.415 1090.82 233.129C1092.93 230.842 1093.98 227.44 1093.98 222.923Z" fill="white"/>
<path d="M1046.01 195.063L1046.01 249.497" stroke="white" stroke-width="8"/>
</g>
<defs>
<linearGradient id="paint0_linear_1703_42237" x1="1089.06" y1="439.928" x2="1089.06" y2="3.8277e-06" gradientUnits="userSpaceOnUse">
<stop stop-color="#664EF1"/>
<stop offset="0.389062" stop-color="#3A2E83"/>
<stop offset="1" stop-color="#17132B"/>
</linearGradient>
<linearGradient id="paint1_linear_1703_42237" x1="344.164" y1="368.905" x2="358.89" y2="335.775" gradientUnits="userSpaceOnUse">
<stop offset="0.26" stop-color="#40F0C1"/>
<stop offset="1" stop-color="#BFFD3E"/>
</linearGradient>
<linearGradient id="paint2_linear_1703_42237" x1="337.034" y1="366.478" x2="348.175" y2="335.759" gradientUnits="userSpaceOnUse">
<stop stop-color="#40F0C1"/>
<stop offset="1" stop-color="#BFFD3E"/>
</linearGradient>
<linearGradient id="paint3_linear_1703_42237" x1="1611.72" y1="118.438" x2="1624.18" y2="102.272" gradientUnits="userSpaceOnUse">
<stop offset="0.26" stop-color="#40F0C1"/>
<stop offset="1" stop-color="#BFFD3E"/>
</linearGradient>
<linearGradient id="paint4_linear_1703_42237" x1="1608.66" y1="116.564" x2="1618.88" y2="100.757" gradientUnits="userSpaceOnUse">
<stop stop-color="#40F0C1"/>
<stop offset="1" stop-color="#BFFD3E"/>
</linearGradient>
</defs>
</svg>
