
<svg width="1440" height="440" viewBox="0 0 1440 440" fill="none" xmlns="http://www.w3.org/2000/svg">
<mask id="mask0_1703_46262" style="mask-type:alpha" maskUnits="userSpaceOnUse" x="0" y="0" width="1440" height="440">
<rect width="1440" height="440" fill="#D9D9D9"/>
</mask>
<g mask="url(#mask0_1703_46262)">
<path d="M644.213 -65.9938L337.023 -65.9938L-245.848 -76.8516V439.928H1217.11C1263.71 439.928 1259.88 366.233 1221.25 366.233L1047.27 366.233C988.566 366.234 992.564 297.727 1047.27 297.727H1111.5C1153.88 297.727 1153.88 232.536 1111.5 232.536H1754.21C1689.9 232.536 1684.56 178.844 1745.15 178.844L1771.42 169.786C1848.27 169.786 1820.73 80.1081 1739.72 80.1081H1783.2C1724.18 80.1081 1701.95 19.4171 1762.37 19.4171L1859.85 -5.85258C1895.71 -5.85258 682.467 -65.9938 644.213 -65.9938Z" fill="url(#paint0_linear_1703_46262)"/>
<rect x="107.414" y="104.483" width="235.445" height="284.112" rx="18" fill="#6A51FF" stroke="black" stroke-width="2"/>
<path d="M772.986 72.2617C793.314 72.2617 813.343 72.6451 832.994 73.3889M762.697 354.27C746.82 354.168 731.135 353.833 715.681 353.275M783.275 354.27C784.438 354.262 785.6 354.253 786.762 354.243M695.932 352.435C694.862 352.383 693.792 352.329 692.724 352.275M682.475 351.716C661.577 350.505 641.17 348.883 621.354 346.879M607.468 345.402C606.032 345.241 604.599 345.079 603.169 344.914M589.4 343.255C572.463 341.12 556.03 338.699 540.169 336.011M527.866 333.852C391.626 309.112 300.633 264.37 300.633 213.282C300.633 172.791 357.793 136.286 449.338 110.566M799.212 354.089C812.789 353.867 826.214 353.474 839.461 352.917M853.109 352.282C854.15 352.229 855.191 352.175 856.231 352.119M871.151 351.253C904.514 349.148 936.577 345.991 966.934 341.905M989.923 338.583C992.095 338.247 992.604 338.095 994.099 337.784M1016.63 334.119C1049.64 328.174 1080.01 321.058 1107.11 312.963M1128.07 306.282C1129.63 305.752 1131.17 305.219 1132.71 304.683M1145.52 299.992C1155.62 296.13 1165.06 292.106 1173.79 287.937M1184.2 282.724C1186.26 281.639 1188.27 280.545 1190.23 279.443M1208.67 267.852C1232.29 251.067 1245.34 232.629 1245.34 213.282C1245.34 156.005 1130.96 106.704 966.678 84.6248M951.359 82.663C949.945 82.4906 948.527 82.3203 947.106 82.1519M936.435 80.9327C920.876 79.2194 904.931 77.7436 888.65 76.5202M849.316 74.0934C847.406 74.0007 845.491 73.9115 843.573 73.8257M737.695 72.6494C735.675 72.6939 733.659 72.7422 731.646 72.7944M709.317 73.5319C666.51 75.2538 625.521 78.6876 587.148 83.595M563.931 86.7903C560.983 87.2252 558.053 87.6691 555.141 88.1218M531.137 92.1232C510.474 95.8075 490.832 99.9497 472.368 104.503" stroke="#AFA2FF"/>
<path d="M42.143 271.049C40.2964 259.908 49.0468 249.838 60.337 250.111L226.142 254.131C235.911 254.368 243.706 262.355 243.706 272.126V312.764C243.706 322.816 235.474 330.92 225.424 330.762L66.6072 328.271C57.9096 328.135 50.554 321.798 49.1317 313.216L42.143 271.049Z" fill="#5942E3" stroke="black" stroke-width="2"/>
<path d="M47.277 267.439C45.488 256.485 53.9424 246.537 65.0416 246.537H229.73C239.671 246.537 247.73 254.596 247.73 264.537V305.021C247.73 314.962 239.671 323.021 229.73 323.021H71.6535C62.8322 323.021 55.3107 316.628 53.8888 307.922L47.277 267.439Z" fill="#745EFF" stroke="black" stroke-width="2"/>
<path d="M72.0019 318.434C64.208 318.747 60.5203 310.023 60.5203 306.321H143.061L145.424 318.434C124.198 318.303 79.7957 318.121 72.0019 318.434Z" fill="#AFA2FF" stroke="black" stroke-width="2"/>
<path d="M62.4419 301.851H87.5012C89.2918 301.851 90.6837 300.292 90.4821 298.513L89.6148 290.858C89.443 289.342 88.16 288.196 86.6339 288.196H61.5748C59.7842 288.196 58.3924 289.755 58.5939 291.534L59.461 299.188C59.6328 300.705 60.9157 301.851 62.4419 301.851Z" fill="#AFA2FF" stroke="black" stroke-width="2"/>
<path d="M58.635 283.727H83.6943C85.4849 283.727 86.8768 282.169 86.6752 280.389L85.8079 272.735C85.6361 271.218 84.3532 270.073 82.827 270.073H57.768C55.9774 270.073 54.5855 271.631 54.787 273.41L55.6541 281.065C55.8259 282.581 57.1089 283.727 58.635 283.727Z" fill="#AFA2FF" stroke="black" stroke-width="2"/>
<path d="M56.1016 265.601H81.1609C82.9515 265.601 84.3434 264.042 84.1418 262.263L83.2745 254.609C83.1026 253.092 81.8197 251.946 80.2935 251.946H61.9526C56.5807 251.946 52.4051 256.622 53.0097 261.959L53.1207 262.939C53.2925 264.455 54.5754 265.601 56.1016 265.601Z" fill="#AFA2FF" stroke="black" stroke-width="2"/>
<path d="M96.9247 301.851H118.146C119.921 301.851 121.308 300.319 121.131 298.553L120.368 290.898C120.215 289.364 118.924 288.196 117.383 288.196H96.5258C94.8077 288.196 93.4405 289.636 93.5299 291.352L93.9287 299.007C94.0118 300.601 95.3285 301.851 96.9247 301.851Z" fill="#AFA2FF" stroke="black" stroke-width="2"/>
<path d="M93.1212 283.727H114.343C116.117 283.727 117.504 282.195 117.328 280.429L116.564 272.775C116.411 271.241 115.121 270.073 113.579 270.073H92.7224C91.0042 270.073 89.637 271.513 89.7264 273.229L90.1253 280.883C90.2083 282.477 91.525 283.727 93.1212 283.727Z" fill="#AFA2FF" stroke="black" stroke-width="2"/>
<path d="M90.5909 265.601H111.813C113.587 265.601 114.974 264.069 114.798 262.303L114.034 254.649C113.881 253.115 112.59 251.946 111.049 251.946H90.1921C88.4739 251.946 87.1068 253.387 87.1962 255.102L87.595 262.757C87.678 264.351 88.9947 265.601 90.5909 265.601Z" fill="#AFA2FF" stroke="black" stroke-width="2"/>
<path d="M127.594 301.851H148.816C150.591 301.851 151.977 300.319 151.801 298.553L151.037 290.898C150.884 289.364 149.594 288.196 148.052 288.196H127.196C125.477 288.196 124.11 289.636 124.2 291.352L124.598 299.007C124.681 300.601 125.998 301.851 127.594 301.851Z" fill="#AFA2FF" stroke="black" stroke-width="2"/>
<path d="M123.788 283.727H145.009C146.784 283.727 148.171 282.195 147.994 280.429L147.231 272.775C147.078 271.241 145.787 270.073 144.246 270.073H123.389C121.671 270.073 120.304 271.513 120.393 273.229L120.792 280.883C120.875 282.477 122.191 283.727 123.788 283.727Z" fill="#AFA2FF" stroke="black" stroke-width="2"/>
<path d="M121.254 265.601H142.476C144.25 265.601 145.637 264.069 145.461 262.303L144.697 254.649C144.544 253.115 143.254 251.946 141.712 251.946H120.855C119.137 251.946 117.77 253.387 117.86 255.102L118.258 262.757C118.341 264.351 119.658 265.601 121.254 265.601Z" fill="#AFA2FF" stroke="black" stroke-width="2"/>
<path d="M154.835 388.511V368.078V363.66C228.284 363.475 373.054 364.204 370.214 371.391C365.69 382.836 358.422 388.511 350.332 388.511H191.201H154.835Z" fill="#5942E3"/>
<path d="M191.201 389.595V371.024M154.835 368.078V388.511H350.332C358.422 388.511 365.69 382.836 370.214 371.391C373.054 364.204 228.284 363.475 154.835 363.66V368.078Z" stroke="black" stroke-width="2"/>
<path d="M165.29 185.41C172.302 178.156 176.42 163.361 176.42 163.361L181.046 351.801L189.483 371.164C182.12 370.751 165.009 369.774 155.477 369.178C145.944 368.583 145.631 360.808 145.628 356.194V349.836V195.993C145.628 195.993 158.744 192.179 165.29 185.41Z" fill="#5942E3"/>
<path d="M145.628 349.836V195.993C145.628 195.993 158.744 192.179 165.29 185.41C172.302 178.156 176.42 163.361 176.42 163.361L181.046 351.801M145.628 349.836L181.046 351.801M145.628 349.836V356.194C145.631 360.808 145.944 368.583 155.477 369.178C165.009 369.774 182.12 370.751 189.483 371.164L181.046 351.801" stroke="black" stroke-width="2"/>
<rect x="-1.5" y="1.5" width="249.5" height="301.363" rx="17.5" transform="matrix(-1 0 0 1 1369.1 36.0488)" fill="#6A51FF" stroke="black" stroke-width="3"/>
<path d="M175.245 169.78C175.245 159.839 183.304 151.78 193.245 151.78H354.34C364.281 151.78 372.34 159.839 372.34 169.78V352.208V353.142C372.34 363.083 364.281 371.142 354.34 371.142H193.245C183.304 371.142 175.245 363.083 175.245 353.142V352.208V169.78Z" fill="#5942E3" stroke="black" stroke-width="2"/>
<path d="M183.284 169.78C183.284 159.839 191.343 151.78 201.284 151.78H362.379C372.32 151.78 380.379 159.839 380.379 169.78V352.208V353.142C380.379 363.083 372.32 371.142 362.379 371.142H201.284C191.343 371.142 183.284 363.083 183.284 353.142V352.208V169.78Z" fill="#745EFF" stroke="black" stroke-width="2"/>
<path d="M195.878 180.343C195.878 170.402 203.937 162.343 213.878 162.343H354.335C364.276 162.343 372.335 170.402 372.335 180.343V324.287C372.335 332.64 365.563 339.412 357.21 339.412H211.003C202.65 339.412 195.878 332.64 195.878 324.287V180.343Z" fill="#AFA2FF" stroke="black" stroke-width="2"/>
<path d="M1323.34 92.978C1323.34 83.3131 1315.5 75.478 1305.84 75.478H1078.61C1068.95 75.478 1061.11 83.313 1061.11 92.978V248.865C1061.11 257.596 1068.19 264.673 1076.92 264.673H1307.53C1316.26 264.673 1323.34 257.596 1323.34 248.865V92.978Z" fill="#5942E3" stroke="black" stroke-width="3"/>
<path d="M1317.37 92.978C1317.37 83.313 1309.53 75.478 1299.87 75.478H1072.64C1062.98 75.478 1055.14 83.313 1055.14 92.978V243.516C1055.14 251.953 1061.98 258.794 1070.42 258.794H1302.09C1310.53 258.794 1317.37 251.953 1317.37 243.516V92.978Z" fill="#AFA2FF" stroke="black" stroke-width="3"/>
<path d="M1289.55 291.124V259.758H1283.59C1283.37 270.66 1283.59 284.609 1283.59 291.124C1283.59 306.21 1296.35 306.036 1300.72 306.21H1335.9C1348.83 306.21 1351.42 296.329 1351.74 291.124V261.419H1346.23C1346.43 268.173 1346.72 283.57 1346.23 291.124C1345.73 298.677 1339.42 300.849 1335.9 300.991C1328.58 301.206 1311.28 301.508 1300.72 300.991C1290.99 300.514 1289.55 295.304 1289.55 291.124Z" fill="#AFA2FF" stroke="black" stroke-width="2"/>
<circle cx="198.878" cy="361.309" r="3.00027" fill="#6951FF" stroke="black" stroke-width="2"/>
<path d="M200.827 383.11V376.172H296.63V383.11H200.827Z" stroke="black" stroke-width="2"/>
<path d="M200.827 383.11V376.172H279.189V383.11H200.827Z" stroke="black" stroke-width="2"/>
<path d="M209.646 397.371C209.475 388.25 202.565 379.73 202.565 379.73H277.837C283.172 381.967 286.37 392.423 287.302 397.371H209.646Z" fill="#AFA2FF" stroke="black" stroke-width="2"/>
<path d="M1044.31 174.641C1047.4 170.955 1053.79 169.589 1053.79 169.589V188.789C1053.79 188.789 1043.34 190.007 1044.31 197.663C1047.75 204.041 1055.63 206.752 1061.07 207.888C1064.2 208.544 1066.73 211.205 1066.73 214.407V236.403C1066.73 239.717 1064.01 242.481 1060.75 241.9C1041.85 238.535 1040.59 219.42 1040.59 219.42V186.009C1040.54 185.276 1040.54 184.545 1040.59 183.819C1040.79 180.62 1041.9 177.502 1044.31 174.641Z" fill="#387659" fill-opacity="0.5"/>
<path d="M1040.59 183.819C1040.79 180.62 1041.9 177.502 1044.31 174.641C1047.4 170.955 1053.79 169.589 1053.79 169.589V188.789C1053.79 188.789 1043.34 190.007 1044.31 197.663M1040.59 183.819V219.42C1040.59 219.42 1041.85 238.535 1060.75 241.9C1064.01 242.481 1066.73 239.717 1066.73 236.403V214.407C1066.73 211.205 1064.2 208.544 1061.07 207.888C1055.63 206.752 1047.75 204.041 1044.31 197.663M1040.59 183.819C1040.3 188.438 1041.91 193.229 1044.31 197.663" stroke="black"/>
<path opacity="0.4" d="M1066.73 214.407V236.403C1066.73 239.717 1064.01 242.481 1060.75 241.901C1041.85 238.536 1040.59 219.42 1040.59 219.42V186.009C1040.54 185.276 1040.54 184.545 1040.59 183.819V186.009C1040.83 189.937 1042.29 193.926 1044.31 197.663C1047.75 204.041 1055.63 206.752 1061.07 207.889C1064.2 208.544 1066.73 211.205 1066.73 214.407Z" fill="#23FFA3" stroke="black"/>
<path d="M284.323 384.543L284.323 376.615H292.349V384.543C289.739 386.822 285.911 385.493 284.323 384.543Z" fill="#EBFF00" stroke="black" stroke-width="2"/>
<path fill-rule="evenodd" clip-rule="evenodd" d="M218.255 386.082H215.772V388.667H218.255V386.082ZM249.893 386.082H247.41V388.667H249.893V386.082ZM231.593 386.082H234.075V388.667H231.593V386.082ZM265.713 386.082H263.231V388.667H265.713V386.082ZM221.048 386.082H223.53V388.667H221.048V386.082ZM255.165 386.082H252.683V388.667H255.165V386.082ZM236.865 386.082H239.348V388.667H236.865V386.082ZM270.986 386.082H268.503V388.667H270.986V386.082ZM226.317 386.082H228.799V388.667H226.317V386.082ZM260.444 386.082H257.962V388.667H260.444V386.082ZM242.138 386.082H244.62V388.667H242.138V386.082ZM276.262 386.082H273.779V388.667H276.262V386.082Z" fill="#383838"/>
<path d="M167.937 297.221C167.937 305.384 166.423 312.725 164.018 317.988C161.572 323.34 158.397 326.178 155.247 326.178C152.097 326.178 148.922 323.34 146.477 317.988C144.071 312.725 142.557 305.384 142.557 297.221C142.557 289.058 144.071 281.717 146.477 276.454C148.922 271.102 152.097 268.264 155.247 268.264C158.397 268.264 161.572 271.102 164.018 276.454C166.423 281.717 167.937 289.058 167.937 297.221Z" fill="#5942E3" stroke="black" stroke-width="2"/>
<path d="M162.783 297.221C162.783 305.4 161.474 312.76 159.393 318.037C158.352 320.679 157.137 322.749 155.838 324.142C154.541 325.534 153.234 326.178 151.973 326.178C150.711 326.178 149.404 325.534 148.107 324.142C146.809 322.749 145.594 320.679 144.552 318.037C142.472 312.76 141.163 305.4 141.163 297.221C141.163 289.042 142.472 281.682 144.552 276.405C145.594 273.763 146.809 271.693 148.107 270.3C149.404 268.908 150.711 268.264 151.973 268.264C153.234 268.264 154.541 268.908 155.838 270.3C157.137 271.693 158.352 273.763 159.393 276.405C161.474 281.682 162.783 289.042 162.783 297.221Z" fill="#745EFF" stroke="black" stroke-width="2"/>
<path d="M153.416 340.412C153.416 341.798 152.988 343.034 152.319 343.913C151.651 344.791 150.763 345.291 149.822 345.291C148.882 345.291 147.994 344.791 147.326 343.913C146.657 343.034 146.229 341.798 146.229 340.412C146.229 339.026 146.657 337.79 147.326 336.911C147.994 336.033 148.882 335.533 149.822 335.533C150.763 335.533 151.651 336.033 152.319 336.911C152.988 337.79 153.416 339.026 153.416 340.412Z" fill="#5942E3" stroke="black"/>
<path d="M162.438 340.412C162.438 341.798 162.01 343.034 161.341 343.913C160.672 344.791 159.785 345.291 158.844 345.291C157.904 345.291 157.016 344.791 156.348 343.913C155.679 343.034 155.251 341.798 155.251 340.412C155.251 339.026 155.679 337.79 156.348 336.911C157.016 336.033 157.904 335.533 158.844 335.533C159.785 335.533 160.672 336.033 161.341 336.911C162.01 337.79 162.438 339.026 162.438 340.412Z" fill="#5942E3" stroke="black"/>
<path d="M172.598 340.412C172.598 341.798 172.17 343.034 171.501 343.913C170.832 344.791 169.945 345.291 169.004 345.291C168.063 345.291 167.176 344.791 166.508 343.913C165.839 343.034 165.411 341.798 165.411 340.412C165.411 339.026 165.839 337.79 166.508 336.911C167.176 336.033 168.063 335.533 169.004 335.533C169.945 335.533 170.832 336.033 171.501 336.911C172.17 337.79 172.598 339.026 172.598 340.412Z" fill="#5942E3" stroke="black"/>
<path d="M151.14 340.412C151.14 341.798 150.712 343.034 150.043 343.913C149.375 344.791 148.487 345.291 147.547 345.291C146.606 345.291 145.718 344.791 145.05 343.913C144.381 343.034 143.953 341.798 143.953 340.412C143.953 339.026 144.381 337.79 145.05 336.911C145.718 336.033 146.606 335.533 147.547 335.533C148.487 335.533 149.375 336.033 150.043 336.911C150.712 337.79 151.14 339.026 151.14 340.412Z" fill="#745EFF" stroke="black"/>
<path d="M160.166 340.412C160.166 341.798 159.738 343.034 159.069 343.913C158.401 344.791 157.513 345.291 156.572 345.291C155.632 345.291 154.744 344.791 154.076 343.913C153.407 343.034 152.979 341.798 152.979 340.412C152.979 339.026 153.407 337.79 154.076 336.911C154.744 336.033 155.632 335.533 156.572 335.533C157.513 335.533 158.401 336.033 159.069 336.911C159.738 337.79 160.166 339.026 160.166 340.412Z" fill="#745EFF" stroke="black"/>
<path d="M170.325 340.412C170.325 341.798 169.897 343.034 169.229 343.913C168.56 344.791 167.673 345.291 166.732 345.291C165.791 345.291 164.904 344.791 164.235 343.913C163.567 343.034 163.139 341.798 163.139 340.412C163.139 339.026 163.567 337.79 164.235 336.911C164.904 336.033 165.791 335.533 166.732 335.533C167.673 335.533 168.56 336.033 169.229 336.911C169.897 337.79 170.325 339.026 170.325 340.412Z" fill="#745EFF" stroke="black"/>
<path d="M160.411 193.55C159.078 195.107 152.443 197.349 149.292 198.275V203.835L160.411 201.889V193.55Z" stroke="black" stroke-width="2"/>
<path d="M160.359 201.83L164.341 201.321V186.372C164.341 186.372 164.301 189.304 159.468 194.454M148.897 198.337C149.273 197.949 151.129 195.528 151.515 193.707" stroke="black" stroke-width="2"/>
<path d="M153.563 136.703L154.822 195.977L156.29 195.51L153.563 136.703Z" fill="#5942E3" stroke="black"/>
<path d="M76.2287 352.597C77.0241 349.545 80.403 348.024 83.5032 349.323L146.412 375.689C148.8 376.689 150.309 379.093 150.084 381.535L149.701 385.687C149.485 388.021 147.733 389.84 145.367 390.184L85.569 398.887C82.3621 399.353 79.2369 396.985 78.8332 393.783L74.6117 360.297C74.5278 359.631 74.5694 358.964 74.7345 358.331L76.2287 352.597Z" fill="#5942E3" stroke="black"/>
<path d="M76.455 352.96C76.0065 349.944 78.1476 347.331 81.2181 347.147L128.042 344.337C130.253 344.204 132.429 345.382 133.57 347.33L149.943 375.273C151.889 378.595 150.055 382.565 146.336 383.082L88.0804 391.177C84.9306 391.615 81.8626 389.325 81.3961 386.188L76.455 352.96Z" fill="#745EFF" stroke="black"/>
<path d="M136.258 365.433C136.258 369.222 133.567 372.75 129.006 375.359C124.458 377.96 118.142 379.585 111.138 379.585C104.135 379.585 97.8189 377.96 93.2712 375.359C88.7094 372.75 86.0193 369.222 86.0193 365.433C86.0193 361.643 88.7094 358.115 93.2712 355.506C97.8189 352.905 104.135 351.281 111.138 351.281C118.142 351.281 124.458 352.905 129.006 355.506C133.567 358.115 136.258 361.643 136.258 365.433Z" fill="#332E63" stroke="black"/>
<path d="M83.3498 341.409C84.1452 338.357 87.5241 336.837 90.6243 338.136L153.533 364.501C155.921 365.502 157.431 367.905 157.205 370.347L156.822 374.499C156.606 376.833 154.854 378.652 152.488 378.996L92.6901 387.699C89.4832 388.166 86.358 385.798 85.9543 382.596L81.7328 349.109C81.6489 348.443 81.6905 347.777 81.8556 347.143L83.3498 341.409Z" fill="#5942E3" stroke="black"/>
<path d="M83.5761 341.772C83.1276 338.756 85.2687 336.143 88.3392 335.959L135.163 333.149C137.374 333.017 139.55 334.195 140.691 336.142L157.065 364.086C159.011 367.407 157.176 371.378 153.457 371.895L95.2015 379.99C92.0517 380.427 88.9836 378.137 88.5172 375.001L83.5761 341.772Z" fill="#745EFF" stroke="black"/>
<path d="M115.198 371.412C114.888 371.232 114.19 371.048 113.8 370.536C113.399 370.011 113.485 369.474 113.441 369.127C113.381 368.659 112.886 368.337 112.334 368.407C111.783 368.478 111.384 368.915 111.444 369.383C111.481 369.673 111.539 370.443 111.477 370.855C111.459 370.979 111.416 371.05 111.384 371.1C111.261 371.293 110.871 371.546 110.425 371.357C110.299 371.306 110.18 371.203 110.111 371.066C109.966 370.774 109.972 369.875 109.878 369.499C109.877 369.496 109.876 369.493 109.875 369.49C109.86 369.431 109.842 369.381 109.818 369.34C109.649 369.008 109.236 368.804 108.786 368.861C108.234 368.932 107.836 369.369 107.896 369.836C107.928 370.088 108.085 370.297 108.31 370.426C108.62 370.605 109.317 370.789 109.707 371.301C110.108 371.826 110.022 372.363 110.066 372.71C110.126 373.178 110.622 373.501 111.173 373.43C111.591 373.377 111.921 373.112 112.03 372.784C112.209 372.293 111.719 371.535 111.978 370.89C112.029 370.763 112.094 370.694 112.161 370.627C112.301 370.489 112.771 370.293 113.166 370.604C113.268 370.694 113.303 370.768 113.334 370.842C113.465 371.157 113.516 372.2 113.689 372.498C113.858 372.829 114.271 373.033 114.721 372.976C115.272 372.905 115.67 372.468 115.611 372C115.578 371.749 115.421 371.54 115.197 371.411L115.198 371.412Z" fill="#332E63"/>
<path d="M107.627 373.885C108.178 373.815 108.577 373.378 108.517 372.91C108.457 372.442 107.961 372.12 107.41 372.19C106.859 372.261 106.46 372.697 106.52 373.166C106.58 373.634 107.076 373.956 107.627 373.885Z" fill="#332E63"/>
<path fill-rule="evenodd" clip-rule="evenodd" d="M121.341 368.473L120.639 368.563C120.603 368.568 120.575 368.593 120.573 368.623L119.301 370.196C119.273 370.231 119.216 370.238 119.179 370.212L117.518 369.004C117.514 369.002 117.511 369 117.508 368.998C117.493 368.981 117.467 368.971 117.439 368.974L116.738 369.064C116.697 369.069 116.667 369.101 116.672 369.136L117.116 372.608C117.12 372.643 117.157 372.666 117.198 372.661L117.899 372.571C117.94 372.566 117.97 372.534 117.965 372.499L117.656 370.085L118.794 370.918C118.798 370.922 118.802 370.924 118.806 370.927L118.808 370.928L119.22 371.23L119.223 371.232L119.32 371.303C119.354 371.322 119.4 371.313 119.423 371.285L120.71 369.707L121.017 372.107C121.022 372.141 121.058 372.165 121.099 372.16L121.801 372.07C121.842 372.065 121.871 372.033 121.867 371.998L121.422 368.526C121.418 368.492 121.381 368.468 121.341 368.473Z" fill="#332E63"/>
<path d="M123.798 368.77C122.832 368.894 122.135 369.665 122.241 370.492C122.347 371.32 123.215 371.891 124.181 371.767C125.147 371.644 125.844 370.873 125.738 370.045C125.632 369.217 124.763 368.646 123.798 368.77ZM124.093 371.082C123.57 371.149 123.098 370.839 123.041 370.39C122.984 369.941 123.362 369.523 123.885 369.456C124.409 369.389 124.88 369.699 124.938 370.147C124.995 370.596 124.617 371.015 124.093 371.082Z" fill="#332E63"/>
<path d="M130.681 367.889C130.336 367.933 130.026 368.061 129.776 368.244L129.754 368.072C129.75 368.037 129.713 368.014 129.673 368.019L128.98 368.107C128.94 368.112 128.911 368.145 128.915 368.179L129.359 371.65C129.364 371.684 129.4 371.708 129.44 371.703L130.133 371.615C130.173 371.609 130.203 371.577 130.198 371.543L130.092 370.713C130.38 370.827 130.712 370.873 131.057 370.828C132.008 370.707 132.696 369.95 132.592 369.138C132.488 368.327 131.632 367.767 130.681 367.889L130.681 367.889ZM130.971 370.156C130.455 370.221 129.991 369.919 129.934 369.479L129.934 369.476C129.879 369.037 130.251 368.627 130.767 368.561C131.282 368.495 131.747 368.798 131.803 369.238C131.86 369.679 131.487 370.089 130.971 370.155L130.971 370.156Z" fill="#332E63"/>
<path d="M128.25 368.202L127.768 368.263C126.852 368.381 126.188 369.082 126.284 369.829L126.44 371.046C126.44 371.046 126.44 371.048 126.44 371.049L126.486 371.409C126.49 371.444 126.529 371.468 126.572 371.463L127.31 371.368C127.352 371.363 127.384 371.33 127.379 371.295L127.17 369.661C127.12 369.267 127.47 368.898 127.952 368.836L128.353 368.785C128.394 368.78 128.42 368.748 128.416 368.718L128.359 368.269C128.353 368.225 128.304 368.194 128.25 368.201L128.25 368.202Z" fill="#332E63"/>
<path d="M134.516 367.224C134.247 367.258 134.002 367.349 133.794 367.479L133.696 366.713C133.691 366.679 133.655 366.655 133.615 366.66L132.93 366.748C132.89 366.753 132.861 366.785 132.866 366.819L133.114 368.762C133.115 368.769 133.116 368.776 133.116 368.782L133.254 369.861L133.255 369.861L133.31 370.292C133.314 370.326 133.351 370.35 133.39 370.345L134.076 370.257C134.115 370.252 134.144 370.22 134.14 370.186L133.943 368.649C133.902 368.326 134.167 367.985 134.536 367.909C134.972 367.82 135.38 368.071 135.427 368.444L135.626 369.997C135.63 370.03 135.665 370.053 135.704 370.048L136.394 369.96C136.433 369.955 136.461 369.924 136.457 369.89L136.263 368.379C136.167 367.63 135.385 367.112 134.516 367.223L134.516 367.224Z" fill="#332E63"/>
<path d="M154.352 366.118C154.378 366.318 154.345 366.499 154.253 366.661C154.161 366.823 154.015 366.958 153.813 367.065C153.612 367.172 153.361 367.245 153.06 367.283C152.926 367.301 152.795 367.31 152.664 367.311C152.536 367.311 152.411 367.305 152.29 367.29C152.17 367.274 152.055 367.251 151.944 367.22L151.859 366.554C152.05 366.602 152.248 366.641 152.452 366.673C152.656 366.705 152.854 366.709 153.047 366.684C153.18 366.667 153.285 366.638 153.362 366.597C153.441 366.555 153.495 366.505 153.525 366.447C153.555 366.388 153.565 366.324 153.556 366.255C153.546 366.17 153.504 366.102 153.431 366.05C153.359 365.998 153.262 365.954 153.141 365.916C153.022 365.878 152.888 365.838 152.738 365.796C152.644 365.77 152.541 365.738 152.429 365.699C152.317 365.659 152.208 365.606 152.104 365.541C151.999 365.476 151.909 365.393 151.834 365.292C151.76 365.188 151.713 365.06 151.694 364.906C151.668 364.704 151.698 364.525 151.785 364.368C151.872 364.211 152.008 364.083 152.193 363.982C152.38 363.88 152.607 363.812 152.873 363.778C153.073 363.752 153.266 363.749 153.452 363.767C153.64 363.784 153.838 363.818 154.046 363.87L153.854 364.46C153.669 364.42 153.504 364.392 153.359 364.376C153.214 364.358 153.069 364.359 152.923 364.378C152.821 364.391 152.736 364.416 152.668 364.455C152.6 364.492 152.551 364.539 152.52 364.596C152.49 364.651 152.479 364.713 152.488 364.781C152.498 364.861 152.533 364.925 152.593 364.974C152.654 365.021 152.742 365.063 152.855 365.1C152.97 365.137 153.113 365.179 153.283 365.226C153.49 365.283 153.669 365.347 153.819 365.418C153.97 365.488 154.091 365.578 154.182 365.689C154.273 365.798 154.329 365.941 154.352 366.118Z" fill="#332E63"/>
<path d="M150.041 364.747C149.885 364.767 149.75 364.812 149.635 364.881C149.523 364.949 149.432 365.038 149.362 365.149C149.294 365.259 149.248 365.388 149.224 365.535C149.2 365.682 149.2 365.844 149.222 366.021C149.253 366.26 149.312 366.46 149.401 366.621C149.491 366.78 149.612 366.895 149.766 366.966C149.919 367.036 150.108 367.056 150.333 367.027C150.489 367.008 150.643 366.972 150.795 366.921C150.949 366.87 151.114 366.805 151.291 366.724L151.368 367.325C151.206 367.408 151.044 367.473 150.882 367.521C150.721 367.57 150.538 367.607 150.333 367.633C149.936 367.684 149.601 367.654 149.326 367.544C149.053 367.431 148.839 367.254 148.683 367.011C148.527 366.766 148.427 366.471 148.382 366.124C148.35 365.868 148.359 365.629 148.411 365.407C148.463 365.184 148.555 364.985 148.688 364.81C148.82 364.635 148.994 364.491 149.207 364.377C149.421 364.264 149.673 364.188 149.965 364.151C150.156 364.127 150.35 364.124 150.547 364.142C150.745 364.159 150.936 364.194 151.121 364.245L150.933 364.861C150.781 364.819 150.63 364.785 150.478 364.759C150.327 364.733 150.181 364.729 150.041 364.747Z" fill="#332E63"/>
<path d="M147.747 366.195C147.78 366.456 147.774 366.698 147.728 366.921C147.681 367.143 147.592 367.341 147.461 367.514C147.332 367.687 147.157 367.83 146.938 367.943C146.719 368.054 146.452 368.129 146.138 368.169C145.824 368.21 145.547 368.203 145.307 368.151C145.066 368.097 144.861 368.003 144.69 367.869C144.521 367.734 144.386 367.564 144.285 367.359C144.184 367.154 144.117 366.921 144.083 366.659C144.039 366.31 144.065 365.997 144.161 365.722C144.26 365.445 144.436 365.217 144.689 365.039C144.943 364.861 145.279 364.745 145.699 364.692C146.116 364.638 146.468 364.666 146.755 364.775C147.043 364.884 147.269 365.06 147.432 365.303C147.597 365.547 147.702 365.844 147.747 366.195ZM144.939 366.555C144.969 366.79 145.029 366.989 145.117 367.152C145.207 367.312 145.33 367.43 145.486 367.504C145.641 367.576 145.833 367.598 146.061 367.569C146.293 367.539 146.475 367.47 146.607 367.36C146.739 367.25 146.827 367.105 146.87 366.928C146.915 366.748 146.922 366.54 146.892 366.305C146.847 365.951 146.735 365.681 146.559 365.497C146.382 365.313 146.12 365.244 145.775 365.288C145.545 365.317 145.363 365.387 145.229 365.498C145.097 365.608 145.008 365.752 144.961 365.932C144.916 366.11 144.909 366.317 144.939 366.555Z" fill="#332E63"/>
<path d="M143.462 366.714C143.51 367.095 143.468 367.423 143.334 367.7C143.201 367.976 142.986 368.198 142.689 368.368C142.391 368.536 142.021 368.648 141.579 368.704L140.49 368.844L140.058 365.466L141.265 365.312C141.669 365.26 142.027 365.278 142.34 365.367C142.652 365.453 142.906 365.61 143.1 365.835C143.295 366.059 143.415 366.352 143.462 366.714ZM142.617 366.841C142.585 366.592 142.516 366.392 142.412 366.243C142.308 366.092 142.17 365.988 141.997 365.932C141.826 365.875 141.621 365.862 141.383 365.893L140.948 365.949L141.23 368.148L141.58 368.103C141.978 368.052 142.262 367.921 142.431 367.71C142.602 367.499 142.664 367.209 142.617 366.841Z" fill="#332E63"/>
<path d="M137.865 365.141L138.433 369.577" stroke="#332E63" stroke-width="0.6"/>
<path d="M142.266 352.513C142.266 355.798 139.673 358.897 135.196 361.205C130.745 363.499 124.561 364.933 117.703 364.933C110.845 364.933 104.661 363.499 100.21 361.205C95.7334 358.897 93.1404 355.798 93.1404 352.513C93.1404 349.229 95.7334 346.13 100.21 343.822C104.661 341.527 110.845 340.093 117.703 340.093C124.561 340.093 130.745 341.527 135.196 343.822C139.673 346.13 142.266 349.229 142.266 352.513Z" fill="#332E63" stroke="black"/>
<mask id="mask1_1703_46262" style="mask-type:luminance" maskUnits="userSpaceOnUse" x="99" y="340" width="44" height="23">
<path d="M140.786 340.88L99.5608 344.313L101.073 362.468L142.297 359.035L140.786 340.88Z" fill="white"/>
</mask>
<g mask="url(#mask1_1703_46262)">
<path d="M134.181 352.167C133.038 351.565 130.417 350.915 129.042 349.243C127.628 347.526 128.075 345.816 127.982 344.701C127.857 343.199 126.037 342.123 123.918 342.299C121.798 342.476 120.181 343.838 120.306 345.34C120.384 346.275 120.434 348.742 120.108 350.053C120.009 350.451 119.832 350.674 119.698 350.831C119.185 351.436 117.642 352.213 115.98 351.567C115.51 351.393 115.082 351.051 114.849 350.606C114.357 349.662 114.58 346.786 114.303 345.574C114.3 345.564 114.298 345.554 114.295 345.544C114.251 345.355 114.192 345.192 114.111 345.059C113.541 343.982 112.009 343.291 110.278 343.435C108.158 343.612 106.541 344.974 106.666 346.476C106.733 347.282 107.288 347.965 108.116 348.398C109.259 349.001 111.88 349.65 113.256 351.323C114.668 353.039 114.221 354.75 114.314 355.864C114.439 357.367 116.259 358.443 118.378 358.266C119.985 358.133 121.304 357.317 121.791 356.275C122.581 354.721 120.88 352.252 122.01 350.21C122.231 349.81 122.497 349.594 122.767 349.386C123.331 348.956 125.169 348.373 126.608 349.403C126.976 349.698 127.093 349.939 127.195 350.179C127.626 351.199 127.589 354.539 128.185 355.508C128.757 356.583 130.287 357.272 132.015 357.128C134.134 356.952 135.751 355.59 135.626 354.087C135.559 353.281 135.005 352.599 134.176 352.166L134.181 352.167Z" fill="url(#paint1_linear_1703_46262)"/>
<path d="M104.739 359.4C106.858 359.224 108.475 357.863 108.35 356.359C108.225 354.856 106.405 353.781 104.286 353.958C102.166 354.134 100.549 355.495 100.674 356.999C100.799 358.502 102.619 359.577 104.739 359.4Z" fill="url(#paint2_linear_1703_46262)"/>
</g>
<path d="M177.392 47.1953C194.697 56.4103 197.948 69.5424 197.411 74.9566L161.169 81.05L177.392 47.1953Z" fill="#AFA2FF" stroke="black"/>
<path d="M187.39 49.421C191.584 51.5127 195.497 57.9237 196.929 60.8677L211.222 51.9L197.113 35.9309L187.39 49.421Z" fill="#AFA2FF" stroke="black"/>
<path d="M1357.33 393.181C1341.72 405.037 1328.43 402.49 1323.74 399.735L1333.38 364.272L1357.33 393.181Z" fill="#AFA2FF" stroke="black"/>
<path d="M1351.12 401.329C1347.47 404.262 1340.01 405.13 1336.73 405.197L1338.89 421.932L1359.3 415.807L1351.12 401.329Z" fill="#AFA2FF" stroke="black"/>
<path d="M1402.52 239.186L1397.33 241.555C1391.41 244.429 1319.69 127.373 1353.17 127.038C1386.65 126.704 1399.27 138.15 1402.52 147.823V239.186Z" fill="#745EFF" stroke="black" stroke-width="2"/>
<path d="M1396.31 241.554L1368.75 240.265C1337.02 204.098 1280.29 137.642 1324.76 129.114C1369.23 120.586 1389.35 135.28 1396.31 148.647V241.554Z" fill="#5942E3" stroke="black" stroke-width="2"/>
<path d="M1372.1 262.599V217.855L1308.94 221.032L1308.94 265.919C1316.41 279.398 1369.47 275.024 1372.1 262.599Z" fill="#5942E3" stroke="black" stroke-width="2"/>
<path d="M1338.58 251.277H1331.16L1299.2 130.383C1354.14 120.396 1381.45 139.215 1389 149.399V236.958L1338.58 251.277Z" fill="#745EFF" stroke="black" stroke-width="2"/>
<path d="M1346.25 143.613V255.069L1338.18 258.687H1277.76L1261.64 146.267C1290.19 119.82 1324.36 124.027 1346.25 143.613Z" fill="#5942E3" stroke="black" stroke-width="2"/>
<path d="M1337.15 146.485V258.688H1261.47V146.485C1290.03 120.037 1323.82 135.465 1337.15 146.485Z" fill="#745EFF" stroke="black" stroke-width="2"/>
<path d="M1329.09 152.435V258.687H1267.73V152.435C1290.88 127.39 1318.28 142 1329.09 152.435Z" fill="#745EFF" stroke="black" stroke-width="2"/>
<path d="M1267.73 167.173H1327.17V187.066H1267.73V167.173Z" fill="#745EFF" stroke="black" stroke-width="2"/>
<path d="M1272.76 172.512H1322.13V181.725H1272.76V172.512Z" fill="#332E63" stroke="black" stroke-width="2"/>
<path d="M1316.58 197.062C1316.69 187.077 1321.04 177.75 1321.04 177.75H1273.68C1270.33 180.199 1268.31 191.645 1267.73 197.062H1316.58Z" fill="#AFA2FF" stroke="black" stroke-width="2"/>
<path fill-rule="evenodd" clip-rule="evenodd" d="M1311.17 184.705H1312.73V187.535H1311.17V184.705ZM1291.27 184.705H1292.83V187.535H1291.27V184.705ZM1302.77 184.705H1301.21V187.535H1302.77V184.705ZM1281.31 184.705H1282.87V187.535H1281.31V184.705ZM1309.41 184.705H1307.85V187.535H1309.41V184.705ZM1287.94 184.705H1289.5V187.535H1287.94V184.705ZM1299.46 184.705H1297.89V187.535H1299.46V184.705ZM1278 184.705H1279.56V187.535H1278V184.705ZM1306.1 184.705H1304.54V187.535H1306.1V184.705ZM1284.62 184.705H1286.19V187.535H1284.62V184.705ZM1296.14 184.705H1294.58V187.535H1296.14V184.705ZM1274.68 184.705H1276.24V187.535H1274.68V184.705Z" fill="#383838"/>
<path d="M1291.53 238.761H1305.29C1307.31 238.761 1308.95 240.398 1308.95 242.418C1308.95 244.438 1307.31 246.076 1305.29 246.076H1291.53C1289.51 246.076 1287.87 244.438 1287.87 242.418C1287.87 240.398 1289.51 238.761 1291.53 238.761Z" fill="#23FFA3" stroke="black" stroke-width="2"/>
<path d="M1276.34 264.245V258.687H1320.48V264.245H1276.34Z" fill="#5942E3" stroke="black" stroke-width="2"/>
<path d="M1357.63 176.983L1357.58 176.974H1357.54C1355.61 176.974 1353.76 175.57 1352.36 173.071C1350.98 170.589 1350.1 167.126 1350.1 163.274C1350.1 159.422 1350.98 155.959 1352.36 153.477C1353.76 150.979 1355.61 149.574 1357.54 149.574H1357.58L1357.62 149.567C1360.14 149.125 1362.08 149.301 1363.57 149.892C1365.05 150.48 1366.13 151.495 1366.92 152.812C1368.52 155.48 1368.91 159.357 1368.91 163.274C1368.91 167.186 1368.47 171.089 1366.84 173.77C1366.04 175.095 1364.95 176.113 1363.48 176.696C1362 177.282 1360.1 177.446 1357.63 176.983Z" fill="#5942E3" stroke="black"/>
<path d="M1370.09 163.274C1370.09 167.127 1369.22 170.589 1367.83 173.072C1366.44 175.57 1364.59 176.975 1362.66 176.975C1360.73 176.975 1358.88 175.57 1357.48 173.072C1356.1 170.589 1355.22 167.127 1355.22 163.274C1355.22 159.422 1356.1 155.959 1357.48 153.477C1358.88 150.979 1360.73 149.574 1362.66 149.574C1364.59 149.574 1366.44 150.979 1367.83 153.477C1369.22 155.959 1370.09 159.422 1370.09 163.274Z" fill="#745EFF" stroke="black"/>
<path d="M1358.95 166.461V97.941C1358.95 91.8011 1366.41 92.584 1366.66 98.272V166.461C1366.2 171.623 1359.28 170.845 1358.95 166.461Z" fill="#5942E3" stroke="black"/>
<path d="M1361.47 166.461V97.941C1361.47 91.8011 1366.83 92.584 1367.01 98.272V166.461C1366.67 171.623 1361.71 170.845 1361.47 166.461Z" fill="#745EFF" stroke="black"/>
<path d="M1375.16 95.1301C1372.87 96.332 1367.1 96.1317 1364.51 95.1301V121.498C1367.51 122.09 1374.43 122.7 1378.03 120.405C1381.64 118.11 1387.73 118.72 1390.33 119.312V95.1301C1388.42 92.2612 1378.03 93.6278 1375.16 95.1301Z" fill="#745EFF" stroke="black"/>
<mask id="mask2_1703_46262" style="mask-type:luminance" maskUnits="userSpaceOnUse" x="1370" y="102" width="18" height="12">
<path d="M1387.35 102.927H1370.6V113.3H1387.35V102.927Z" fill="white"/>
</mask>
<g mask="url(#mask2_1703_46262)">
<path d="M1385.59 109.594C1385.11 109.16 1383.98 108.621 1383.43 107.511C1382.87 106.372 1383.13 105.332 1383.13 104.635C1383.13 103.695 1382.37 102.933 1381.42 102.933C1380.48 102.933 1379.72 103.695 1379.72 104.635C1379.72 105.219 1379.65 106.755 1379.46 107.553C1379.4 107.794 1379.31 107.924 1379.25 108.015C1379 108.364 1378.29 108.766 1377.58 108.279C1377.38 108.147 1377.2 107.912 1377.11 107.624C1376.93 107.012 1377.13 105.237 1377.06 104.47C1377.06 104.463 1377.06 104.457 1377.05 104.45C1377.04 104.331 1377.02 104.227 1376.99 104.14C1376.78 103.441 1376.13 102.933 1375.36 102.933C1374.42 102.933 1373.65 103.695 1373.65 104.635C1373.65 105.139 1373.87 105.592 1374.22 105.904C1374.7 106.337 1375.84 106.877 1376.38 107.987C1376.94 109.126 1376.68 110.165 1376.68 110.863C1376.68 111.803 1377.45 112.565 1378.39 112.565C1379.1 112.565 1379.72 112.127 1379.97 111.504C1380.38 110.58 1379.72 108.958 1380.29 107.749C1380.4 107.511 1380.53 107.391 1380.66 107.276C1380.92 107.038 1381.75 106.771 1382.35 107.485C1382.5 107.687 1382.55 107.843 1382.58 107.997C1382.73 108.653 1382.6 110.726 1382.82 111.359C1383.04 112.056 1383.69 112.564 1384.45 112.564C1385.4 112.564 1386.16 111.801 1386.16 110.861C1386.16 110.357 1385.94 109.904 1385.59 109.592L1385.59 109.594Z" fill="url(#paint3_linear_1703_46262)"/>
<path d="M1372.32 112.566C1373.27 112.566 1374.03 111.804 1374.03 110.864C1374.03 109.923 1373.27 109.161 1372.32 109.161C1371.38 109.161 1370.62 109.923 1370.62 110.864C1370.62 111.804 1371.38 112.566 1372.32 112.566Z" fill="url(#paint4_linear_1703_46262)"/>
</g>
<path d="M485.119 317.98L542.395 335.46L530.354 370.97L473.458 352.652L485.119 317.98Z" fill="#EBFF00"/>
<path d="M485.119 317.98L542.395 335.46M485.119 317.98L473.458 352.652L530.354 370.97L542.395 335.46M485.119 317.98L508.75 344.526L542.395 335.46" stroke="black" stroke-width="2"/>
<path d="M827.03 65.8069L888.133 80.4462L879.421 115.329L818.623 99.8623L827.03 65.8069Z" fill="#EBFF00"/>
<path d="M827.03 65.8069L888.133 80.4462M827.03 65.8069L818.623 99.8623L879.421 115.329L888.133 80.4462M827.03 65.8069L854.28 90.5769L888.133 80.4462" stroke="black" stroke-width="2"/>
<path d="M92.32 209.888L142.106 221.837L135.04 250.172L85.5026 237.551L92.32 209.888Z" fill="#EBFF00"/>
<path d="M92.32 209.888L142.106 221.837M92.32 209.888L85.5026 237.551L135.04 250.172L142.106 221.837M92.32 209.888L114.539 230.038L142.106 221.837" stroke="black" stroke-width="2"/>
<path d="M1292.85 92.1699L1343.68 84.5034L1347.79 113.531L1296.94 120.479L1292.85 92.1699Z" fill="#EBFF00"/>
<path d="M1292.85 92.1699L1343.68 84.5034M1292.85 92.1699L1296.94 120.479L1347.79 113.531L1343.68 84.5034M1292.85 92.1699L1321.12 102.534L1343.68 84.5034" stroke="black" stroke-width="2"/>
<circle cx="989.885" cy="354.246" r="11.834" fill="#AFA2FF"/>
<circle cx="599.809" cy="360.581" r="7.58203" fill="#AFA2FF"/>
<circle cx="946.094" cy="98.0059" r="7.58203" fill="#AFA2FF"/>
<path d="M1123.33 283.418L1187.82 284.488L1186.33 323.316L1121.98 321.302L1123.33 283.418Z" fill="#EBFF00"/>
<path d="M1123.33 283.418L1187.82 284.488M1123.33 283.418L1121.98 321.302L1186.33 323.316L1187.82 284.488M1123.33 283.418L1155.89 303.129L1187.82 284.488" stroke="black" stroke-width="2"/>
<path d="M319.263 273.16C319.263 276.131 317.323 278.898 314.022 280.948C310.729 282.994 306.149 284.275 301.063 284.275C295.977 284.275 291.396 282.994 288.103 280.948C284.803 278.898 282.862 276.131 282.862 273.16C282.862 270.188 284.803 267.421 288.103 265.371C291.396 263.325 295.977 262.044 301.063 262.044C306.149 262.044 310.729 263.325 314.022 265.371C317.323 267.421 319.263 270.188 319.263 273.16Z" fill="black" stroke="black"/>
<path d="M369.398 187.562C369.081 198.144 366.359 198.385 365.038 197.182C365.657 198.744 369.055 202.319 377.688 204.131C388.479 206.395 403.749 220.807 408.025 232.13C411.445 241.189 415.052 266.492 416.68 275.551C416.884 271.845 416.5 258.685 415.138 249.63C414.002 242.075 403.068 185.157 389.194 173.934C375.32 162.711 369.794 174.335 369.398 187.562Z" fill="#23FFA3" stroke="black" stroke-width="2"/>
<path d="M274.648 314.029C275.211 313.459 280.404 306.546 282.929 303.16C283.413 302.797 284.567 302.532 285.31 304.382C286.053 306.232 291.719 310.839 294.458 312.91C294.554 309.66 294.916 302.552 295.602 300.118C296.46 297.076 300.677 294.047 306.68 295.348C312.684 296.649 317.687 303.66 319.617 307.201C321.161 310.034 322.357 316.861 322.762 319.921C326.788 319.849 336.842 319.444 344.847 318.403C354.853 317.102 365.216 314.645 372.078 313.561C377.567 312.694 378.425 312.488 383.952 309.958L391.824 314.084L400.261 319.719C401.905 320.996 414.001 326.07 417.86 327.081C428.544 329.88 435.366 327.422 435.509 328.868C435.623 330.024 438.811 333.822 435.509 340.566L425.874 348.558L414.029 350.323C412.232 351.043 400.336 348.558 396.656 348.558C392.977 348.558 389.532 344.797 384.892 342.402L367.793 340.487L319.617 339.498L318.084 337.821C316.812 341.037 313.589 348.398 310.875 352.114C307.483 356.759 299.921 358.617 286.847 355.759C276.388 353.472 274.356 344.448 274.648 340.221H250.515C250.104 338.024 254.023 331.931 255.72 329.246C257.691 326.128 263.194 322.225 265.485 320.978C268.304 318.899 274.084 314.599 274.648 314.029Z" fill="#23FFA3"/>
<path d="M324.421 198.015C331.688 188.15 336.939 184.551 341.088 184.429C338.225 187.507 341.955 191.196 347.408 187.196C351.771 183.995 358.281 184.676 360.991 185.416C360.991 185.416 353.489 188.336 357.724 194.037C359.665 196.031 365.14 198.278 370.819 194.037C374.27 191.461 381.327 192.324 384.856 196.323C384.856 196.323 379.424 197.463 381.092 199.224C383.282 201.537 389.639 196.95 393.639 203.302C393.639 203.302 389.105 202.001 389.105 204.476C394.518 207.551 405.216 220.04 408.537 233.497C411.857 246.953 415.751 259.195 416.735 272.956C417.621 285.359 409.996 295.13 399.245 302.603C385.806 311.944 361.368 316.229 342.41 318.713C323.453 321.196 309.423 320.091 296.262 313.75C282.625 307.18 277.783 290.723 276.064 284.271C274.689 279.109 273.599 281.285 273.226 283.018C273.689 291.741 269.526 307.074 249.167 298.624C223.719 288.061 210.169 257.531 207.836 236.54C205.503 215.549 211.476 191.124 240.738 185.485C270.001 179.846 286.554 199.117 293.823 202.865C303.518 207.864 315.834 209.672 324.421 198.015Z" fill="#23FFA3" stroke="#010101" stroke-width="2"/>
<path d="M294.211 310.4H298.499L322.338 317.25V322.54L294.811 316.816L294.211 310.4Z" fill="#23FFA3"/>
<path d="M286.204 337.359C287.138 334.97 291.569 331.842 293.249 329.835C295.349 327.326 297.411 320.228 292.295 307.898C286.291 293.43 297.39 287.753 305.763 292.174C309.357 294.072 318.157 302.343 320.339 309.286C322.315 315.573 322.914 322.123 320.339 331.639C317.965 340.414 315.357 363.063 288.132 355.946C266.351 350.252 275.813 327.95 283.266 317.512" stroke="black" stroke-width="2"/>
<path d="M382.24 280.163C395.274 277.219 395.438 263.186 393.486 254.044C391.273 246.232 386.868 238.896 369.221 243.576C351.573 248.255 353.088 257.258 356.303 263.904C360.366 272.304 369.205 283.108 382.24 280.163Z" fill="#745EFF" stroke="#010101" stroke-width="2"/>
<path d="M391.475 268.708C392.178 266.117 393.722 265.899 394.051 267.547C392.426 274.389 391.091 278.032 381.884 279.53C393.321 275.496 390.366 272.793 391.475 268.708Z" fill="#010101"/>
<path d="M368.104 270.356C364.426 270.08 364.554 273.656 365.204 275.23C370.508 280.483 374.999 281.723 383.857 279.077C371.618 280.474 372.74 270.702 368.104 270.356Z" fill="#010101"/>
<path fill-rule="evenodd" clip-rule="evenodd" d="M299.787 204.426C295.735 202.605 292.088 201.551 288.337 202.232C284.582 202.914 280.922 205.295 276.738 209.874L275.432 211.304L277.348 211.541C279.395 211.795 281.564 212.828 283.004 214.538C284.414 216.213 285.176 218.592 284.368 221.716C283.817 223.846 282.787 225.205 281.587 226.086C280.37 226.979 278.915 227.426 277.467 227.607C276.02 227.789 274.629 227.699 273.589 227.56C273.072 227.491 272.649 227.41 272.358 227.348C272.213 227.316 272.101 227.29 272.027 227.271C271.991 227.262 271.963 227.255 271.947 227.251L271.929 227.246L271.927 227.246L271.926 227.245L271.926 227.245L271.926 227.245L271.926 227.245L268.365 226.257L270.938 228.908L270.938 228.908L270.938 228.909L270.939 228.91L270.939 228.91L270.951 228.923C270.963 228.935 270.983 228.956 271.009 228.985C271.062 229.043 271.142 229.134 271.245 229.257C271.451 229.503 271.748 229.876 272.096 230.372C272.793 231.364 273.693 232.842 274.487 234.767C275.336 236.822 276.065 239.39 276.293 242.426C276.743 245.654 276.624 248.414 276.531 250.594C276.516 250.935 276.502 251.263 276.491 251.575C277.355 249.427 278.77 245.223 277.507 237.521C277.175 236.228 276.77 235.051 276.335 233.995C275.577 232.16 274.728 230.694 274.012 229.624C275.063 229.726 276.353 229.763 277.707 229.594C279.376 229.385 281.189 228.855 282.764 227.699C284.356 226.53 285.641 224.766 286.302 222.21C287.27 218.469 286.367 215.421 284.534 213.244C283.169 211.624 281.319 210.518 279.423 209.943C282.926 206.396 285.868 204.713 288.686 204.202C291.828 203.631 295.015 204.478 298.962 206.253L299.787 204.426Z" fill="#010101"/>
<path d="M364.532 285.069C362.096 285.069 359.7 287.958 360.242 289.584" stroke="black" stroke-width="2"/>
<path d="M383.566 310.036C387.887 311.502 397.296 318.334 400.286 320.035C405.951 323.257 418.633 328.365 433.11 328.365C441.931 328.365 436.86 347.129 420.048 349.379C415.941 349.929 401.444 353.483 389.375 344.389C381.554 338.497 364.807 340.818 318.435 339.669" stroke="black" stroke-width="2"/>
<path d="M349.631 271.251C348.797 258.306 339.828 243.941 327.716 237.13C303.21 223.352 298.458 249.171 299.988 260.412C301.517 271.652 302.564 283.367 311.757 283.367C326.659 283.367 328.629 292.506 339.875 292.506C344.109 292.506 350.675 287.432 349.631 271.251Z" fill="#EBFF00" stroke="black" stroke-width="2"/>
<path d="M361.774 286.511C367.411 293.438 377.705 286.883 384.216 284.949C389.72 283.314 400.146 284.423 399.414 277.697" stroke="black" stroke-width="2"/>
<path d="M397.237 277.688C399.376 277.285 400.956 277.58 402.345 279.298" stroke="black" stroke-width="2"/>
<path d="M283.557 302.425C281.03 307.438 273.369 316.364 268.318 319.292C254.244 327.453 251.573 334.234 250.516 340.395H274.241" stroke="black" stroke-width="2"/>
<path d="M395.373 228.986C394.366 217.28 399.357 217.534 401.979 219.125C408.585 228.031 420.573 276.593 415.54 278.183C410.507 279.774 404.21 274.118 402.383 268.39C401.29 264.965 396.631 243.618 395.373 228.986Z" fill="#EBFF00" stroke="black" stroke-width="2"/>
<path d="M409.794 244.462C410.473 245.57 410.652 246.827 410.68 247.208C410.651 247.233 410.606 247.267 410.536 247.312C410.319 247.451 409.975 247.621 409.478 247.851C409.299 247.934 409.104 248.023 408.892 248.12C407.945 248.552 406.669 249.135 405.099 249.96C404.379 250.338 403.729 250.713 403.158 251.042C402.934 251.171 402.722 251.293 402.523 251.405C401.793 251.818 401.258 252.087 400.851 252.186C400.656 252.233 400.526 252.231 400.438 252.209C400.36 252.19 400.284 252.149 400.203 252.05C400.015 251.822 399.829 251.332 399.703 250.369C399.703 250.359 399.703 250.345 399.703 250.329C399.704 250.281 399.706 250.209 399.71 250.116C399.719 249.93 399.739 249.659 399.781 249.33C399.865 248.67 400.04 247.784 400.397 246.871C401.11 245.054 402.527 243.166 405.416 242.676C406.635 242.47 407.545 242.637 408.232 242.978C408.922 243.322 409.426 243.861 409.794 244.462Z" fill="#1D1D1D" stroke="black"/>
<path d="M407.125 243.981C407.209 244.179 407.18 244.508 406.86 244.932C406.549 245.344 406.019 245.76 405.332 246.053C404.646 246.345 403.978 246.439 403.466 246.378C402.939 246.315 402.681 246.109 402.597 245.911C402.513 245.713 402.542 245.385 402.862 244.96C403.173 244.548 403.703 244.132 404.389 243.84C405.076 243.547 405.743 243.453 406.255 243.514C406.783 243.577 407.04 243.784 407.125 243.981Z" fill="white" stroke="black"/>
<path d="M346.402 272.374C346.05 272.239 345.596 272.068 345.055 271.872C343.68 271.373 341.739 270.708 339.471 270.044C334.946 268.717 329.084 267.378 323.824 267.378L308.692 267.378L304.387 267.378L303.678 267.378C303.678 267.378 303.679 267.377 303.679 267.376C303.934 266.918 304.321 266.266 304.845 265.498C305.895 263.96 307.49 261.968 309.674 260.141C314.023 256.501 320.715 253.504 330.155 256.108C334.692 257.705 338.804 261.321 341.794 264.913C343.286 266.707 344.487 268.481 345.312 269.968C345.725 270.712 346.04 271.378 346.25 271.935C346.31 272.093 346.361 272.24 346.402 272.374Z" fill="#1D1D1D" stroke="black"/>
<path d="M328.596 260.203C327.154 259.975 325.918 259.489 325.085 258.91C324.22 258.309 323.929 257.718 323.997 257.289C324.065 256.86 324.524 256.389 325.532 256.084C326.503 255.79 327.829 255.708 329.27 255.936C330.712 256.164 331.948 256.65 332.781 257.229C333.646 257.83 333.938 258.421 333.87 258.85C333.802 259.279 333.343 259.75 332.335 260.055C331.364 260.349 330.038 260.431 328.596 260.203Z" fill="white" stroke="black"/>
<path d="M1410.82 165.447C1404.97 159.982 1403.52 160.993 1403.52 160.993V189.463C1403.52 189.463 1411.12 189.463 1409.06 198.961C1401.39 210.095 1382.1 213.692 1372.41 214.817C1369.2 215.189 1366.66 217.86 1366.66 221.087V259.302C1366.66 262.616 1369.38 265.328 1372.69 265.101C1413.48 262.304 1416.09 231.222 1416.09 231.222V181.681C1416.18 180.594 1416.18 179.51 1416.09 178.433C1415.71 173.689 1414.27 168.66 1410.82 165.447Z" fill="#387659" fill-opacity="0.5"/>
<path d="M1416.09 178.433C1415.71 173.689 1414.27 168.66 1410.82 165.447C1404.97 159.982 1403.52 160.993 1403.52 160.993V189.463C1403.52 189.463 1411.12 189.463 1409.06 198.961M1416.09 178.433V231.222C1416.09 231.222 1413.48 262.304 1372.69 265.101C1369.38 265.328 1366.66 262.616 1366.66 259.302V221.087C1366.66 217.86 1369.2 215.189 1372.41 214.817C1382.1 213.692 1401.39 210.095 1409.06 198.961M1416.09 178.433C1416.64 185.283 1413.59 192.386 1409.06 198.961" stroke="black"/>
<path opacity="0.4" d="M1366.66 221.086V259.301C1366.66 262.615 1369.38 265.327 1372.69 265.101C1413.48 262.303 1416.09 231.221 1416.09 231.221V181.68C1416.18 180.593 1416.18 179.509 1416.09 178.432V181.68C1415.64 187.503 1412.88 193.419 1409.06 198.96C1401.39 210.094 1382.1 213.691 1372.41 214.816C1369.2 215.188 1366.66 217.859 1366.66 221.086Z" fill="#23FFA3" stroke="black"/>
<path d="M1115.93 97.7177C1116.27 108.877 1119.14 109.13 1120.53 107.862C1119.88 109.509 1116.29 113.279 1107.19 115.189C1095.81 117.578 1079.71 132.776 1075.2 144.717C1071.59 154.27 1067.79 180.953 1066.07 190.506C1065.86 186.598 1066.26 172.72 1067.7 163.171C1068.9 155.203 1080.43 95.1814 1095.06 83.3459C1109.69 71.5104 1115.51 83.7686 1115.93 97.7177Z" fill="#23FFA3" stroke="black" stroke-width="2"/>
<path d="M1070.26 129.801C1066.53 139.793 1065.23 149.285 1066.1 156.538C1066.98 163.861 1070.02 168.576 1074.58 169.667C1075.64 169.92 1076.35 169.75 1076.89 169.384C1077.5 168.98 1078.08 168.215 1078.61 166.973C1079.68 164.482 1080.29 160.654 1080.84 155.954C1081.01 154.447 1081.17 152.858 1081.35 151.209C1082.23 142.725 1083.27 132.666 1086.48 124.086C1090.12 114.328 1093.7 110.232 1095.34 108.366C1095.42 108.27 1095.5 108.179 1095.57 108.095C1095.58 108.09 1095.58 108.086 1095.58 108.082C1095.35 108.032 1095.04 107.974 1094.65 107.899L1094.64 107.898C1093.87 107.75 1092.84 107.55 1091.53 107.237C1089.05 106.645 1087.01 106.561 1085.24 106.991C1083.49 107.416 1081.89 108.367 1080.3 110.034C1077.06 113.445 1074.05 119.671 1070.26 129.801ZM1096.21 108.248C1096.21 108.248 1096.21 108.248 1096.21 108.246C1096.21 108.248 1096.21 108.248 1096.21 108.248Z" fill="#5942E3" stroke="black" stroke-width="2"/>
<path d="M1068.78 128.064L1068.78 128.08L1068.77 128.096C1063.86 139.992 1062.45 149.411 1063.28 156.053C1063.88 160.902 1065.64 164.165 1068 165.929C1067.61 164.866 1067.26 163.483 1067.06 161.711C1066.46 156.444 1067.22 147.752 1072.42 133.84C1077.28 120.842 1082.17 113.754 1085.94 109.895C1087.51 108.278 1088.89 107.228 1089.98 106.549C1088.3 106.186 1086.75 106.146 1085.3 106.402C1083.24 106.766 1081.3 107.747 1079.43 109.417C1075.63 112.804 1072.19 118.941 1068.78 128.064Z" fill="#745EFF" stroke="black" stroke-width="2"/>
<path d="M1208.28 217.51C1212.19 219.438 1214.89 225.812 1217.74 228.181C1223.1 232.65 1225.3 232.383 1228.28 234.575C1230.69 235.89 1236.14 242.181 1238.22 245.469C1240.01 248.3 1241.73 256.387 1241.3 258.704H1215.85C1216.16 263.161 1215.85 289.662 1204.6 299.884C1196.55 307.207 1178.73 309.361 1178.01 299.884C1177.33 290.948 1184.44 268.271 1182.48 261.394C1181.15 256.727 1174.99 258.704 1170.32 257.941H1168.43H1137.85L1127.54 261.394C1122.65 263.919 1127.54 276.973 1137.85 292.552C1139.99 295.788 1141.82 302.017 1137.85 303.778L1124.34 305.84L1109.22 299.884C1108.36 296.911 1101.1 291.178 1095.16 271.245C1094.23 268.127 1090.98 263.604 1089.95 251.433C1089.6 247.241 1088.22 232.429 1089.95 231.083L1091.87 223.293L1096.89 225.254C1102.72 227.922 1107.31 229.675 1113.1 230.589C1120.34 231.733 1131.27 234.324 1141.82 235.696C1150.21 236.787 1160.74 237.215 1165.03 237.295C1165.09 236.49 1165.33 235.622 1165.11 237.296C1165.08 237.296 1165.06 237.295 1165.03 237.295C1164.98 238.041 1165.09 238.734 1165.87 237.296C1167.9 233.562 1166.55 237.068 1172.88 235.696C1176.08 235.001 1176.35 233.003 1175.95 231.618C1175.41 231.553 1175.07 231.386 1174.99 231.083C1174.54 229.5 1175.56 230.268 1175.95 231.618C1179.97 232.103 1194.87 226.881 1194.96 229.903C1197.85 227.719 1203.82 222.861 1204.6 220.91C1205.39 218.959 1207.77 217.127 1208.28 217.51Z" fill="#23FFA3"/>
<path d="M1162.79 108.381C1155.12 97.9777 1149.59 94.1831 1145.21 94.054C1148.23 97.3003 1144.3 101.19 1138.55 96.9718C1133.94 93.5969 1127.08 94.3144 1124.22 95.095C1124.22 95.095 1132.13 98.1738 1127.67 104.187C1125.62 106.289 1119.85 108.658 1113.86 104.187C1110.22 101.47 1102.78 102.38 1099.05 106.597C1099.05 106.597 1104.78 107.799 1103.02 109.657C1100.71 112.096 1095.08 105.193 1090.87 111.892C1090.87 111.892 1094.57 112.585 1094.57 115.195C1088.87 118.437 1077.58 131.608 1074.08 145.798C1070.58 159.989 1066.47 172.899 1065.44 187.411C1064.5 200.489 1072.54 210.794 1083.88 218.674C1098.05 228.525 1123.82 233.043 1143.82 235.663C1163.81 238.282 1178.6 237.116 1192.48 230.429C1206.86 223.501 1211.97 206.147 1213.78 199.342C1215.23 193.899 1216.38 196.194 1216.77 198.021C1216.29 207.22 1220.68 223.389 1242.15 214.478C1268.98 203.339 1283.27 171.144 1285.73 149.008C1288.19 126.872 1281.89 101.114 1251.03 95.1675C1220.18 89.2211 1202.72 109.543 1195.05 113.496C1184.83 118.768 1171.84 120.674 1162.79 108.381Z" fill="#23FFA3" stroke="#010101" stroke-width="2"/>
<path d="M1136.15 169.057C1134.97 175.059 1133.73 184.33 1136.11 192.566C1137.29 196.663 1139.36 200.478 1142.77 203.517C1146.17 206.554 1150.98 208.871 1157.7 209.875C1166.19 211.142 1172.64 210.289 1177.49 208.025C1182.33 205.767 1185.68 202.063 1187.91 197.444C1192.38 188.15 1192.26 175.216 1190.38 163.375C1187.96 153.004 1184.08 146.225 1179.11 142.189C1174.15 138.164 1167.99 136.761 1160.78 137.415C1155.71 137.876 1150.72 140.006 1146.42 144.86C1142.1 149.738 1138.43 157.42 1136.15 169.057Z" fill="#A8FFDA" stroke="#010101" stroke-width="2"/>
<circle cx="18.7016" cy="18.7016" r="17.7016" transform="matrix(-0.971046 -0.238893 -0.238893 0.971046 1178.6 167.81)" fill="#1E1E1E" stroke="black" stroke-width="2"/>
<path d="M1173.56 178.024C1171.13 167.628 1161.44 173.727 1157.31 176.67C1156.19 171.136 1148.56 162.67 1143.33 170.612C1136.79 180.54 1150.02 198.11 1151.07 198.243C1152.12 198.377 1176.59 191.019 1173.56 178.024Z" fill="#E47C84" stroke="black" stroke-width="2"/>
<path d="M1215.25 257.675C1215.25 266.808 1216.25 276.139 1207.75 295.77C1201.09 311.162 1174.54 307.25 1177.76 295.77C1188.98 255.784 1177.76 257.674 1177.76 257.674C1177.76 257.674 1166.76 258.433 1145.48 257.674" stroke="black" stroke-width="2"/>
<path d="M1100.64 198.151C1087.15 194.601 1086.98 177.685 1089 166.665C1091.29 157.247 1095.85 148.404 1114.12 154.045C1132.39 159.686 1130.82 170.538 1127.49 178.55C1123.29 188.677 1114.13 201.7 1100.64 198.151Z" fill="#745EFF" stroke="#010101" stroke-width="2"/>
<path d="M1091.09 184.341C1090.36 181.218 1088.76 180.955 1088.42 182.942C1090.1 191.189 1091.48 195.581 1101.02 197.386C1089.18 192.524 1092.23 189.265 1091.09 184.341Z" fill="#010101"/>
<path d="M1115.28 186.327C1119.09 185.995 1118.96 190.306 1118.28 192.204C1112.79 198.535 1108.14 200.03 1098.97 196.841C1111.64 198.525 1110.48 186.745 1115.28 186.327Z" fill="#010101"/>
<path fill-rule="evenodd" clip-rule="evenodd" d="M1188.36 115.346C1192.66 113.413 1196.73 112.376 1200.91 113.14C1205.09 113.905 1209.19 116.442 1213.61 121.286L1214.92 122.716L1213.01 122.953C1210.83 123.222 1208.53 124.317 1207.01 126.133C1205.51 127.912 1204.7 130.439 1205.56 133.75C1206.14 136.008 1207.23 137.453 1208.51 138.39C1209.8 139.339 1211.35 139.812 1212.88 140.004C1214.41 140.196 1215.88 140.101 1216.98 139.954C1217.53 139.881 1217.98 139.796 1218.29 139.729C1218.44 139.696 1218.56 139.668 1218.64 139.649C1218.67 139.639 1218.7 139.632 1218.72 139.627L1218.74 139.622L1218.74 139.621L1218.74 139.621L1218.74 139.621C1218.74 139.621 1218.74 139.621 1218.74 139.621L1222.31 138.633L1219.73 141.284L1219.73 141.284L1219.73 141.284L1219.73 141.285L1219.73 141.286L1219.72 141.3C1219.7 141.313 1219.68 141.335 1219.66 141.366C1219.6 141.428 1219.52 141.524 1219.41 141.654C1219.19 141.915 1218.87 142.31 1218.51 142.834C1217.77 143.883 1216.82 145.445 1215.98 147.479C1215.01 149.814 1214.2 152.774 1214.02 156.301C1213.66 159.394 1213.78 162.055 1213.87 164.188C1213.88 164.549 1213.9 164.894 1213.91 165.224C1213.03 163.026 1211.59 158.788 1212.73 151.121C1213.1 149.482 1213.59 148.007 1214.13 146.707C1214.95 144.72 1215.87 143.144 1216.64 142.011C1215.51 142.127 1214.11 142.175 1212.64 141.991C1210.89 141.771 1208.98 141.215 1207.33 140.002C1205.66 138.778 1204.32 136.928 1203.62 134.245C1202.61 130.317 1203.55 127.121 1205.48 124.839C1206.93 123.115 1208.9 121.946 1210.92 121.35C1207.17 117.565 1203.8 115.704 1200.56 115.11C1196.95 114.45 1193.32 115.314 1189.18 117.173L1188.36 115.346Z" fill="#010101"/>
<path d="M1204.66 113.369C1213.6 117.478 1215.74 131.226 1215.74 157.393C1221.74 159.049 1252.33 152.891 1249.35 132.771C1246.37 112.651 1236.8 102.17 1210.94 94.3558C1191.06 88.353 1150.03 86.082 1126.92 86.0818C1102.43 86.0815 1091.08 114.196 1085.11 125.312C1094.6 114.467 1107.59 90.4539 1130.91 93.1813C1156.89 96.2188 1182.5 103.186 1204.66 113.369Z" fill="#745EFF" stroke="black" stroke-width="2"/>
<path d="M1214.49 109.119C1223.97 117.796 1222.26 130.441 1222.26 145.542C1228.26 147.198 1251.72 149.312 1248.79 129.185C1244.6 100.434 1223.33 92.022 1196.95 86.147C1173.64 80.9539 1160.32 79.9626 1133.45 78.3825C1106.58 76.8024 1091.78 101.254 1079.72 133.039C1079.72 133.039 1098.37 85.0044 1127.04 86.147C1150.76 87.0927 1199.9 95.7693 1214.49 109.119Z" fill="#745EFF" stroke="black" stroke-width="2"/>
<path d="M1264.13 173.207C1262.66 184.01 1258.41 193.242 1252.78 199.444C1247.15 205.651 1240.21 208.744 1233.31 207.558C1226.41 206.372 1220.62 201.091 1216.89 193.273C1213.16 185.463 1211.56 175.224 1213.02 164.422C1214.49 153.619 1218.74 144.387 1224.37 138.185C1230.01 131.978 1236.94 128.885 1243.84 130.071C1250.74 131.257 1256.53 136.538 1260.26 144.356C1263.99 152.166 1265.59 162.405 1264.13 173.207Z" fill="#AFA2FF" stroke="black" stroke-width="2"/>
<path d="M1264.19 172.798C1262.8 182.982 1258.83 191.688 1253.57 197.539C1248.31 203.396 1241.86 206.308 1235.45 205.207C1229.05 204.106 1223.66 199.159 1220.19 191.801C1216.73 184.451 1215.25 174.807 1216.63 164.622C1218.02 154.438 1221.99 145.731 1227.25 139.881C1232.51 134.024 1238.96 131.111 1245.37 132.212C1251.77 133.313 1257.16 138.261 1260.62 145.619C1264.09 152.969 1265.57 162.613 1264.19 172.798Z" fill="#5942E3" stroke="black" stroke-width="2"/>
<path d="M1265.06 172.478C1263.81 181.694 1260.41 189.6 1255.99 194.939C1251.56 200.293 1246.21 202.939 1241 202.044C1235.8 201.149 1231.4 196.827 1228.59 190.228C1225.78 183.647 1224.64 174.961 1225.89 165.745C1227.15 156.529 1230.54 148.623 1234.96 143.285C1239.4 137.931 1244.75 135.285 1249.95 136.179C1255.16 137.074 1259.56 141.396 1262.37 147.996C1265.17 154.576 1266.31 163.262 1265.06 172.478Z" fill="#745EFF" stroke="black" stroke-width="2"/>
<path d="M1091.35 222.911C1087.94 231.467 1089.12 259.085 1098.13 280.307C1103.18 292.184 1110.36 305.153 1127.55 305.153C1161.81 305.153 1116.31 277.099 1127.55 262.539C1133.11 255.333 1141.67 258.182 1168.22 258.182" stroke="black" stroke-width="2"/>
<path d="M1111.24 219.888C1102.7 222.213 1097.46 216.055 1096.06 212.068L1118.45 216.046C1118.45 216.046 1116.95 218.333 1111.24 219.888Z" fill="#E47C84" stroke="black" stroke-width="2"/>
<path d="M1208.17 215.574C1212.42 224.924 1224.78 231.012 1229.23 235.274C1242.68 248.192 1241.3 252.574 1241.3 258.886L1215.97 258.886" stroke="black" stroke-width="2"/>
<path d="M1088.53 141.401C1089.59 129.056 1084.33 129.325 1081.56 131.002C1074.6 140.394 1061.96 191.605 1067.26 193.282C1072.57 194.959 1079.21 188.995 1081.14 182.954C1082.29 179.342 1087.2 156.832 1088.53 141.401Z" fill="#A8FFDA" stroke="black" stroke-width="2"/>
<path d="M1070.6 163.88C1069.75 167.86 1068.97 172.011 1069.12 175.364C1069.19 177.035 1069.5 178.406 1070.07 179.43C1070.62 180.412 1071.44 181.132 1072.72 181.496C1075.36 182.253 1077.55 181.39 1079.27 179.187C1081.04 176.931 1082.29 173.29 1082.84 168.687C1082.93 167.887 1083.03 167.108 1083.13 166.349C1083.32 164.855 1083.49 163.441 1083.62 162.097C1083.82 160.075 1083.89 158.306 1083.72 156.811C1083.55 155.318 1083.15 154.191 1082.48 153.369C1081.82 152.563 1080.8 151.927 1079.15 151.602C1077.42 151.262 1075.74 152.18 1074.2 154.423C1072.66 156.651 1071.42 159.987 1070.6 163.88Z" fill="#1E1E1E" stroke="black" stroke-width="2"/>
<path d="M1083.72 160.657C1083.11 153.438 1078.18 158.352 1076.07 160.69C1075.83 156.836 1072.64 151.303 1069.74 157.251C1066.11 164.686 1071.47 176.33 1071.97 176.36C1072.46 176.39 1084.48 169.682 1083.72 160.657Z" fill="#E47C84" stroke="black" stroke-width="2"/>
<path d="M1145.28 93.6932C1149.73 93.6046 1156.33 99.5145 1159.07 102.48L1138.83 119.834C1120.95 122.801 1084.62 127.141 1084.62 127.141C1087.88 121.469 1095.57 115.027 1095.57 115.027L1090.57 111.163C1090.57 111.163 1096.4 108.269 1102.41 109.702C1106.48 110.674 1098.44 106.597 1099.78 105.818C1108.44 100.767 1108.58 102.592 1116.81 105.818C1123.4 108.399 1127.78 104.965 1129.26 102.48C1130.24 95.7589 1126.54 94.8137 1125.06 94.7002C1124.87 94.696 1124.67 94.6939 1124.48 94.6939C1124.48 94.6939 1124.7 94.6729 1125.06 94.7002C1130.81 94.8252 1136.03 96.7797 1142.05 99.2548C1147.04 101.302 1146.28 96.3999 1145.28 93.6932Z" fill="#23FFA3"/>
<path d="M1162.79 108.381C1155.12 97.9779 1149.59 94.1834 1145.21 94.0543C1148.23 97.3006 1144.3 101.191 1138.55 96.9721C1133.95 93.5972 1127.08 94.3147 1124.22 95.0953C1124.22 95.0953 1132.13 98.1741 1127.67 104.187C1125.62 106.289 1119.85 108.658 1113.86 104.187C1110.22 101.47 1102.78 102.38 1099.06 106.597C1099.06 106.597 1104.78 107.8 1103.03 109.657C1100.72 112.096 1095.08 105.194 1090.87 111.892C1090.87 111.892 1094.57 112.585 1094.57 115.195" stroke="#010101" stroke-width="2"/>
<path d="M555.561 227.695C552.513 225.047 545.354 221.752 541.905 214.97C538.361 208.009 540.005 201.66 540.005 197.4C540.005 191.658 535.178 187 529.226 187C523.274 187 518.447 191.658 518.447 197.4C518.447 200.97 518.015 210.351 516.799 215.224C516.43 216.701 515.885 217.491 515.475 218.046C513.904 220.179 509.419 222.639 504.935 219.663C503.665 218.855 502.548 217.422 502.004 215.661C500.851 211.92 502.139 201.075 501.648 196.39C501.643 196.351 501.639 196.312 501.634 196.272C501.553 195.543 501.427 194.905 501.234 194.376C499.892 190.107 495.781 187 490.918 187C484.966 187 480.139 191.658 480.139 197.4C480.139 200.48 481.526 203.246 483.737 205.152C486.785 207.8 493.944 211.094 497.393 217.876C500.932 224.837 499.289 231.186 499.289 235.446C499.289 241.188 504.115 245.846 510.068 245.846C514.579 245.846 518.447 243.168 520.05 239.366C522.612 233.72 518.442 223.81 522.067 216.421C522.778 214.97 523.571 214.236 524.372 213.533C526.043 212.077 531.306 210.448 535.079 214.808C536.038 216.045 536.308 216.998 536.538 217.942C537.502 221.948 536.624 234.612 538.06 238.479C539.406 242.739 543.512 245.837 548.366 245.837C554.318 245.837 559.145 241.179 559.145 235.438C559.145 232.357 557.758 229.591 555.548 227.686L555.561 227.695Z" fill="white"/>
<path d="M471.779 245.851C477.732 245.851 482.558 241.198 482.558 235.452C482.558 229.705 477.732 225.052 471.779 225.052C465.827 225.052 461 229.705 461 235.452C461 241.198 465.827 245.851 471.779 245.851Z" fill="white"/>
<path fill-rule="evenodd" clip-rule="evenodd" d="M582.617 201.703H575.044C574.603 201.703 574.246 202.045 574.246 202.468V245.073C574.246 245.496 574.603 245.838 575.044 245.838H582.617C583.058 245.838 583.416 245.496 583.416 245.073V215.496L594.321 227.261C594.353 227.306 594.391 227.346 594.433 227.382L594.452 227.404L598.425 231.688L598.448 231.71L599.382 232.716C599.714 232.998 600.218 232.967 600.507 232.654L616.409 215.497V245.073C616.409 245.496 616.767 245.838 617.208 245.838H624.781C625.222 245.838 625.58 245.496 625.58 245.073V202.468C625.58 202.045 625.222 201.703 624.781 201.703H617.208C616.898 201.703 616.629 201.872 616.497 202.119L600.69 219.319C600.339 219.699 599.728 219.699 599.373 219.324L583.365 202.183C583.361 202.179 583.357 202.175 583.353 202.171C583.232 201.896 582.949 201.703 582.617 201.703Z" fill="white"/>
<path d="M650.498 209.055C640.074 209.055 631.624 217.288 631.624 227.445C631.624 237.602 640.074 245.835 650.498 245.835C660.922 245.835 669.372 237.602 669.372 227.445C669.372 217.288 660.922 209.055 650.498 209.055ZM650.498 237.419C644.846 237.419 640.261 232.952 640.261 227.445C640.261 221.938 644.846 217.471 650.498 217.471C656.15 217.471 660.735 221.938 660.735 227.445C660.735 232.952 656.15 237.419 650.498 237.419Z" fill="white"/>
<path d="M724.756 209.055C721.035 209.055 717.572 210.119 714.667 211.943V209.833C714.667 209.413 714.312 209.069 713.878 209.069H706.399C705.965 209.069 705.61 209.413 705.61 209.833V252.426C705.61 252.846 705.965 253.19 706.399 253.19H713.878C714.312 253.19 714.667 252.846 714.667 252.426V242.238C717.572 244.062 721.035 245.126 724.756 245.126C735.03 245.126 743.358 237.053 743.358 227.093C743.358 217.133 735.03 209.06 724.756 209.06V209.055ZM724.756 236.869C719.19 236.869 714.676 232.502 714.667 227.106V227.066C714.676 221.675 719.19 217.303 724.756 217.303C730.322 217.303 734.846 221.684 734.846 227.084C734.846 232.484 730.327 236.865 724.756 236.865V236.869Z" fill="white"/>
<path d="M698.506 209.06H693.306C683.421 209.06 675.413 216.501 675.413 225.674V240.605C675.413 240.605 675.413 240.628 675.413 240.637V245.055C675.413 245.484 675.791 245.835 676.252 245.835H684.217C684.678 245.835 685.057 245.484 685.057 245.055V225.013C685.057 220.18 689.275 216.259 694.484 216.259H698.806C699.257 216.259 699.572 215.922 699.572 215.552V210.045C699.572 209.498 699.095 209.055 698.506 209.055V209.06Z" fill="white"/>
<path d="M766.381 206.954C763.48 206.954 760.747 207.67 758.362 208.926V199.526C758.362 199.106 758.01 198.761 757.582 198.761H750.183C749.754 198.761 749.403 199.106 749.403 199.526V223.358C749.403 223.443 749.398 223.528 749.398 223.608V236.846H749.403V242.132C749.403 242.552 749.754 242.896 750.183 242.896H757.582C758.01 242.896 758.362 242.552 758.362 242.132V223.282C758.362 219.319 761.637 215.612 765.66 215.263C770.413 214.856 774.404 218.519 774.404 223.098V242.149C774.404 242.561 774.742 242.892 775.161 242.892H782.61C783.03 242.892 783.372 242.556 783.372 242.145V223.604C783.372 214.405 775.768 206.95 766.385 206.95L766.381 206.954Z" fill="white"/>
<path d="M979.659 232.296C979.659 234.753 979.063 236.889 977.87 238.703C976.676 240.517 974.934 241.916 972.642 242.898C970.37 243.881 967.605 244.373 964.347 244.373C962.908 244.373 961.497 244.278 960.114 244.089C958.75 243.9 957.434 243.626 956.165 243.267C954.915 242.889 953.722 242.426 952.586 241.878V233.714C954.555 234.583 956.601 235.367 958.722 236.067C960.843 236.766 962.945 237.115 965.029 237.115C966.468 237.115 967.623 236.926 968.495 236.549C969.385 236.171 970.029 235.651 970.427 234.989C970.824 234.328 971.023 233.572 971.023 232.722C971.023 231.682 970.673 230.794 969.972 230.057C969.271 229.32 968.305 228.63 967.074 227.987C965.862 227.345 964.489 226.655 962.955 225.918C961.989 225.464 960.938 224.916 959.802 224.274C958.665 223.612 957.586 222.809 956.563 221.864C955.54 220.919 954.697 219.776 954.035 218.434C953.391 217.073 953.069 215.448 953.069 213.558C953.069 211.082 953.637 208.966 954.773 207.208C955.91 205.451 957.529 204.109 959.631 203.183C961.752 202.238 964.252 201.765 967.131 201.765C969.29 201.765 971.345 202.021 973.296 202.531C975.266 203.022 977.32 203.74 979.461 204.685L976.62 211.517C974.707 210.742 972.993 210.147 971.478 209.731C969.962 209.297 968.419 209.079 966.847 209.079C965.749 209.079 964.811 209.259 964.034 209.618C963.258 209.958 962.671 210.449 962.273 211.092C961.875 211.716 961.677 212.443 961.677 213.275C961.677 214.257 961.961 215.089 962.529 215.769C963.116 216.431 963.987 217.073 965.142 217.697C966.317 218.321 967.775 219.048 969.517 219.88C971.639 220.881 973.447 221.93 974.944 223.026C976.459 224.104 977.623 225.379 978.438 226.853C979.252 228.309 979.659 230.123 979.659 232.296Z" fill="white"/>
<path d="M935.693 209.079C934.007 209.079 932.511 209.41 931.204 210.071C929.916 210.714 928.827 211.649 927.937 212.878C927.066 214.106 926.403 215.59 925.949 217.328C925.494 219.067 925.267 221.023 925.267 223.197C925.267 226.126 925.627 228.63 926.346 230.709C927.085 232.769 928.221 234.347 929.755 235.443C931.29 236.52 933.269 237.059 935.693 237.059C937.379 237.059 939.064 236.87 940.75 236.492C942.454 236.114 944.301 235.575 946.29 234.876V242.246C944.452 243.002 942.644 243.541 940.863 243.862C939.083 244.203 937.085 244.373 934.869 244.373C930.589 244.373 927.066 243.494 924.301 241.736C921.555 239.96 919.519 237.484 918.193 234.309C916.867 231.115 916.204 227.392 916.204 223.14C916.204 220.003 916.63 217.13 917.483 214.522C918.335 211.914 919.585 209.656 921.233 207.747C922.88 205.838 924.916 204.364 927.341 203.325C929.765 202.285 932.549 201.765 935.693 201.765C937.757 201.765 939.822 202.03 941.886 202.559C943.969 203.069 945.958 203.778 947.852 204.685L945.011 211.829C943.458 211.092 941.896 210.449 940.324 209.901C938.752 209.353 937.208 209.079 935.693 209.079Z" fill="white"/>
<path d="M909.433 223.021C909.433 226.215 909.035 229.126 908.24 231.752C907.444 234.361 906.232 236.609 904.603 238.499C902.994 240.389 900.948 241.844 898.467 242.865C895.986 243.867 893.05 244.367 889.66 244.367C886.27 244.367 883.335 243.867 880.854 242.865C878.373 241.844 876.318 240.389 874.689 238.499C873.079 236.609 871.876 234.351 871.081 231.724C870.285 229.097 869.888 226.177 869.888 222.965C869.888 218.675 870.588 214.942 871.99 211.767C873.41 208.573 875.588 206.097 878.524 204.34C881.46 202.582 885.191 201.703 889.717 201.703C894.225 201.703 897.927 202.582 900.825 204.34C903.742 206.097 905.901 208.573 907.302 211.767C908.723 214.961 909.433 218.712 909.433 223.021ZM879.121 223.021C879.121 225.913 879.48 228.407 880.2 230.505C880.939 232.584 882.085 234.19 883.638 235.324C885.191 236.439 887.198 236.997 889.66 236.997C892.16 236.997 894.187 236.439 895.74 235.324C897.293 234.19 898.42 232.584 899.121 230.505C899.84 228.407 900.2 225.913 900.2 223.021C900.2 218.675 899.386 215.254 897.757 212.759C896.128 210.265 893.448 209.017 889.717 209.017C887.236 209.017 885.21 209.584 883.638 210.718C882.085 211.833 880.939 213.44 880.2 215.537C879.48 217.616 879.121 220.111 879.121 223.021Z" fill="white"/>
<path d="M863.126 222.697C863.126 227.365 862.226 231.267 860.427 234.404C858.646 237.523 856.061 239.876 852.671 241.463C849.281 243.032 845.2 243.816 840.427 243.816H828.666V202.371H841.705C846.061 202.371 849.84 203.146 853.04 204.696C856.241 206.226 858.722 208.504 860.484 211.527C862.245 214.532 863.126 218.255 863.126 222.697ZM853.978 222.923C853.978 219.862 853.523 217.348 852.614 215.383C851.724 213.398 850.398 211.934 848.637 210.989C846.895 210.044 844.736 209.571 842.16 209.571H837.472V236.559H841.251C845.55 236.559 848.741 235.415 850.825 233.129C852.927 230.842 853.978 227.44 853.978 222.923Z" fill="white"/>
<path d="M806.014 195.063L806.014 249.497" stroke="white" stroke-width="8"/>
</g>
<defs>
<linearGradient id="paint0_linear_1703_46262" x1="850.031" y1="439.928" x2="850.031" y2="-76.8516" gradientUnits="userSpaceOnUse">
<stop stop-color="#664EF1"/>
<stop offset="0.389062" stop-color="#3A2E83"/>
<stop offset="1" stop-color="#17132B"/>
</linearGradient>
<linearGradient id="paint1_linear_1703_46262" x1="104.164" y1="368.905" x2="118.89" y2="335.775" gradientUnits="userSpaceOnUse">
<stop offset="0.26" stop-color="#40F0C1"/>
<stop offset="1" stop-color="#BFFD3E"/>
</linearGradient>
<linearGradient id="paint2_linear_1703_46262" x1="97.034" y1="366.478" x2="108.175" y2="335.759" gradientUnits="userSpaceOnUse">
<stop stop-color="#40F0C1"/>
<stop offset="1" stop-color="#BFFD3E"/>
</linearGradient>
<linearGradient id="paint3_linear_1703_46262" x1="1371.72" y1="118.439" x2="1384.18" y2="102.272" gradientUnits="userSpaceOnUse">
<stop offset="0.26" stop-color="#40F0C1"/>
<stop offset="1" stop-color="#BFFD3E"/>
</linearGradient>
<linearGradient id="paint4_linear_1703_46262" x1="1368.66" y1="116.564" x2="1378.88" y2="100.757" gradientUnits="userSpaceOnUse">
<stop stop-color="#40F0C1"/>
<stop offset="1" stop-color="#BFFD3E"/>
</linearGradient>
</defs>
</svg>
