
<svg width="768" height="235" viewBox="0 0 768 235" fill="none" xmlns="http://www.w3.org/2000/svg">
<mask id="mask0_1703_52167" style="mask-type:alpha" maskUnits="userSpaceOnUse" x="0" y="0" width="768" height="235">
<rect width="768" height="235" fill="#D9D9D9"/>
</mask>
<g mask="url(#mask0_1703_52167)">
<path d="M343.581 -35.2466L179.746 -35.2466L-131.119 -41.0457V234.962H649.126C673.977 234.962 671.934 195.602 651.331 195.602L558.545 195.602C527.235 195.602 529.367 159.014 558.545 159.014H592.803C615.402 159.014 615.402 124.196 592.803 124.196H935.58C901.28 124.196 898.431 95.5192 930.749 95.5192L944.76 90.6812C985.743 90.6812 971.057 42.7851 927.851 42.7851H951.04C919.565 42.7851 907.705 10.3706 939.928 10.3706L991.922 -3.12574C1011.05 -3.12574 363.983 -35.2466 343.581 -35.2466Z" fill="url(#paint0_linear_1703_52167)"/>
<rect x="57.7542" y="56.2695" width="124.637" height="150.81" rx="18" fill="#6A51FF" stroke="black" stroke-width="2"/>
<path d="M412.259 38.5942C423.101 38.5942 433.783 38.799 444.264 39.1963M406.772 189.212C398.304 189.158 389.939 188.979 381.696 188.681M417.746 189.212C418.367 189.208 418.987 189.203 419.606 189.198M371.164 188.232C370.593 188.204 370.022 188.176 369.453 188.147M363.987 187.848C352.841 187.202 341.957 186.335 331.389 185.265M323.983 184.476C323.217 184.39 322.453 184.303 321.69 184.216M314.347 183.329C305.314 182.189 296.549 180.896 288.09 179.46M281.529 178.307C208.867 165.094 160.337 141.197 160.337 113.912C160.337 92.2861 190.823 72.789 239.647 59.0524M426.246 189.115C433.487 188.997 440.647 188.787 447.713 188.49M454.991 188.15C455.547 188.122 456.102 188.093 456.656 188.064M464.614 187.601C482.407 186.476 499.508 184.791 515.698 182.608M527.959 180.834C529.117 180.655 529.389 180.573 530.186 180.407M542.203 178.45C559.807 175.275 576.007 171.474 590.457 167.151M601.639 163.582C602.47 163.299 603.293 163.015 604.109 162.728M610.945 160.223C616.332 158.16 621.367 156.011 626.024 153.785M631.571 151C632.67 150.421 633.743 149.837 634.792 149.248M644.626 143.057C657.221 134.092 664.181 124.245 664.181 113.912C664.181 83.3208 603.18 56.9894 515.562 45.1973M507.392 44.1495C506.637 44.0574 505.881 43.9664 505.123 43.8765M499.432 43.2253C491.134 42.3103 482.63 41.5221 473.947 40.8687M452.968 39.5725C451.95 39.523 450.929 39.4754 449.906 39.4295M393.437 38.8013C392.36 38.8251 391.285 38.8509 390.211 38.8787M378.302 39.2726C355.472 40.1923 333.611 42.0263 313.146 44.6473M300.763 46.3538C299.191 46.5861 297.628 46.8232 296.075 47.065M283.273 49.2021C272.253 51.1698 261.777 53.3821 251.93 55.8139" stroke="#AFA2FF"/>
<path d="M24.6832 155.242C22.8394 144.101 31.5898 134.034 42.8785 134.308L111.947 135.985C121.715 136.222 129.51 144.209 129.51 153.98V158.052C129.51 168.104 121.278 176.208 111.227 176.05L42.9329 174.977C34.2339 174.84 26.8778 168.502 25.4572 159.918L24.6832 155.242Z" fill="#5942E3" stroke="black" stroke-width="2"/>
<path d="M27.3508 153.037C25.5645 142.084 34.0186 132.139 45.1161 132.139H113.656C123.597 132.139 131.656 140.198 131.656 150.139V154.056C131.656 163.998 123.597 172.056 113.656 172.056H45.755C36.9321 172.056 29.4098 165.662 27.9897 156.954L27.3508 153.037Z" fill="#745EFF" stroke="black" stroke-width="2"/>
<path d="M38.4011 170.072C34.2444 170.24 32.2776 165.58 32.2776 163.603H76.2994L77.5597 170.072C66.2388 170.003 42.5578 169.905 38.4011 170.072Z" fill="#AFA2FF" stroke="black" stroke-width="2"/>
<path d="M34.5531 161.216H45.1001C46.8906 161.216 48.2824 159.657 48.0811 157.878L47.9349 156.586C47.7633 155.069 46.4802 153.923 44.9539 153.923H34.4068C32.6164 153.923 31.2246 155.481 31.4258 157.26L31.5721 158.553C31.7436 160.069 33.0267 161.216 34.5531 161.216Z" fill="#AFA2FF" stroke="black" stroke-width="2"/>
<path d="M32.5228 151.536H43.0699C44.8603 151.536 46.2522 149.978 46.0509 148.199L45.9046 146.906C45.733 145.389 44.45 144.243 42.9236 144.243H32.3766C30.5861 144.243 29.1943 145.801 29.3956 147.58L29.5418 148.873C29.7134 150.39 30.9964 151.536 32.5228 151.536Z" fill="#AFA2FF" stroke="black" stroke-width="2"/>
<path d="M30.0339 141.855H41.7188C43.5092 141.855 44.9011 140.297 44.6998 138.518L44.5535 137.225C44.3819 135.708 43.0989 134.562 41.5725 134.562H33.4643C30.3738 134.562 27.9712 137.252 28.3186 140.323C28.4173 141.196 29.1556 141.855 30.0339 141.855Z" fill="#AFA2FF" stroke="black" stroke-width="2"/>
<path d="M53.0223 161.216H61.4652C63.2396 161.216 64.6263 159.684 64.4504 157.918L64.3216 156.625C64.1687 155.091 62.878 153.923 61.3364 153.923H52.9551C51.237 153.923 49.8698 155.363 49.9591 157.079L50.0264 158.371C50.1093 159.966 51.426 161.216 53.0223 161.216Z" fill="#AFA2FF" stroke="black" stroke-width="2"/>
<path d="M50.9938 151.536H59.4366C61.211 151.536 62.5977 150.004 62.4218 148.238L62.293 146.946C62.1402 145.412 60.8495 144.243 59.3078 144.243H50.9265C49.2084 144.243 47.8413 145.683 47.9305 147.399L47.9978 148.692C48.0807 150.286 49.3975 151.536 50.9938 151.536Z" fill="#AFA2FF" stroke="black" stroke-width="2"/>
<path d="M49.6444 141.855H58.0872C59.8617 141.855 61.2484 140.323 61.0725 138.558L60.9437 137.265C60.7908 135.731 59.5001 134.562 57.9584 134.562H49.5771C47.859 134.562 46.4919 136.002 46.5812 137.718L46.6484 139.011C46.7314 140.605 48.0481 141.855 49.6444 141.855Z" fill="#AFA2FF" stroke="black" stroke-width="2"/>
<path d="M69.3795 161.216H77.8223C79.5968 161.216 80.9835 159.684 80.8076 157.918L80.6788 156.625C80.5259 155.091 79.2352 153.923 77.6936 153.923H69.3122C67.5942 153.923 66.227 155.363 66.3163 157.079L66.3835 158.371C66.4665 159.966 67.7832 161.216 69.3795 161.216Z" fill="#AFA2FF" stroke="black" stroke-width="2"/>
<path d="M67.3492 151.536H75.7921C77.5665 151.536 78.9532 150.004 78.7773 148.238L78.6485 146.946C78.4957 145.412 77.2049 144.243 75.6633 144.243H67.282C65.5639 144.243 64.1968 145.683 64.286 147.399L64.3533 148.692C64.4362 150.286 65.7529 151.536 67.3492 151.536Z" fill="#AFA2FF" stroke="black" stroke-width="2"/>
<path d="M65.9981 141.855H74.441C76.2154 141.855 77.6021 140.323 77.4262 138.558L77.2974 137.265C77.1446 135.731 75.8539 134.562 74.3122 134.562H65.9309C64.2128 134.562 62.8457 136.002 62.9349 137.718L63.0022 139.011C63.0851 140.605 64.4019 141.855 65.9981 141.855Z" fill="#AFA2FF" stroke="black" stroke-width="2"/>
<path d="M82.5784 207.5V196.587V194.227C121.752 194.129 198.962 194.518 197.447 198.357C195.035 204.469 191.158 207.5 186.844 207.5H101.974H82.5784Z" fill="#5942E3"/>
<path d="M101.974 208.079V198.16M82.5784 196.587V207.5H186.844C191.158 207.5 195.035 204.469 197.447 198.357C198.962 194.518 121.752 194.129 82.5784 194.227V196.587Z" stroke="black" stroke-width="2"/>
<path d="M88.1543 99.0256C91.8944 95.1517 94.0903 87.2495 94.0903 87.2495L96.5577 187.894L101.057 198.236C97.1303 198.015 88.0049 197.493 82.9209 197.175C77.8369 196.857 77.6696 192.704 77.668 190.24V186.844V104.678C77.668 104.678 84.6636 102.641 88.1543 99.0256Z" fill="#5942E3"/>
<path d="M77.668 186.844V104.678C77.668 104.678 84.6636 102.641 88.1543 99.0256C91.8944 95.1517 94.0903 87.2495 94.0903 87.2495L96.5577 187.894M77.668 186.844L96.5577 187.894M77.668 186.844V190.24C77.6696 192.704 77.8369 196.857 82.9209 197.175C88.0049 197.493 97.1303 198.015 101.057 198.236L96.5577 187.894" stroke="black" stroke-width="2"/>
<rect x="-1.5" y="1.5" width="131.667" height="159.558" rx="17.5" transform="matrix(-1 0 0 1 728.787 19.2534)" fill="#6A51FF" stroke="black" stroke-width="3"/>
<path d="M93.9307 99.5303C93.9307 89.5891 101.99 81.5303 111.931 81.5303H180.115C190.056 81.5303 198.115 89.5891 198.115 99.5303V188.111C198.115 193.439 193.796 197.758 188.468 197.758H103.577C98.2496 197.758 93.9307 193.439 93.9307 188.111V99.5303Z" fill="#5942E3" stroke="black" stroke-width="2"/>
<path d="M98.218 99.5303C98.218 89.5891 106.277 81.5303 116.218 81.5303H184.402C194.343 81.5303 202.402 89.5891 202.402 99.5303V188.111C202.402 193.439 198.083 197.758 192.755 197.758H107.865C102.537 197.758 98.218 193.439 98.218 188.111V99.5303Z" fill="#745EFF" stroke="black" stroke-width="2"/>
<path d="M104.935 105.172C104.935 95.2305 112.994 87.1716 122.935 87.1716H180.112C190.053 87.1716 198.112 95.2305 198.112 105.172V173.199C198.112 177.403 194.704 180.811 190.5 180.811H112.547C108.343 180.811 104.935 177.403 104.935 173.199V105.172Z" fill="#AFA2FF" stroke="black" stroke-width="2"/>
<path d="M705.079 58.511C705.079 48.846 697.244 41.011 687.579 41.011H584.126C574.461 41.011 566.626 48.846 566.626 58.511V132.917C566.626 137.194 570.093 140.66 574.37 140.66H697.335C701.612 140.66 705.079 137.194 705.079 132.917V58.511Z" fill="#5942E3" stroke="black" stroke-width="3"/>
<path d="M701.896 58.511C701.896 48.846 694.061 41.011 684.396 41.011H580.943C571.278 41.011 563.443 48.846 563.443 58.511V130.059C563.443 134.18 566.783 137.52 570.904 137.52H694.435C698.555 137.52 701.896 134.18 701.896 130.059V58.511Z" fill="#AFA2FF" stroke="black" stroke-width="3"/>
<path d="M687.761 155.486V138.734H684.582C684.463 144.557 684.582 152.007 684.582 155.486C684.582 163.544 691.387 163.451 693.719 163.544H712.481C719.374 163.544 720.76 158.267 720.927 155.486V139.621H717.987C718.097 143.229 718.252 151.452 717.987 155.486C717.722 159.521 714.358 160.681 712.481 160.756C708.573 160.872 699.35 161.033 693.719 160.756C688.53 160.502 687.761 157.719 687.761 155.486Z" fill="#AFA2FF" stroke="black" stroke-width="2"/>
<path d="M107.202 192.972C107.202 193.601 106.693 194.108 106.068 194.108C105.444 194.108 104.935 193.601 104.935 192.972C104.935 192.343 105.444 191.835 106.068 191.835C106.693 191.835 107.202 192.343 107.202 192.972Z" fill="#6951FF" stroke="black" stroke-width="2"/>
<path d="M107.108 204.616V200.91H158.203V204.616H107.108Z" stroke="black" stroke-width="2"/>
<path d="M107.108 204.616V200.91H148.901V204.616H107.108Z" stroke="black" stroke-width="2"/>
<path d="M111.811 212.232C111.72 207.361 108.035 202.811 108.035 202.811H148.18C151.025 204.005 152.731 209.589 153.228 212.232H111.811Z" fill="#AFA2FF" stroke="black" stroke-width="2"/>
<path d="M556.964 93.2743C558.615 91.3056 562.019 90.5762 562.019 90.5762V100.831C562.019 100.831 556.45 101.481 556.964 105.57C558.302 108.053 560.898 109.495 563.33 110.33C566.359 111.369 568.922 113.975 568.922 117.178V123.465C568.922 126.779 566.124 129.656 563.039 128.446C555.527 125.502 554.98 117.19 554.98 117.19V99.3458C554.957 98.9543 554.956 98.564 554.98 98.1759C555.088 96.4673 555.682 94.8023 556.964 93.2743Z" fill="#387659" fill-opacity="0.5"/>
<path d="M554.98 98.1759C555.088 96.4673 555.682 94.8023 556.964 93.2743C558.615 91.3056 562.019 90.5762 562.019 90.5762V100.831C562.019 100.831 556.45 101.481 556.964 105.57M554.98 98.1759V117.19C554.98 117.19 555.527 125.502 563.039 128.446C566.124 129.656 568.922 126.779 568.922 123.465V117.178C568.922 113.975 566.359 111.369 563.33 110.33C560.898 109.495 558.302 108.053 556.964 105.57M554.98 98.1759C554.825 100.643 555.687 103.202 556.964 105.57" stroke="black"/>
<path opacity="0.4" d="M568.922 117.178V123.465C568.922 126.779 566.124 129.656 563.039 128.447C555.527 125.502 554.98 117.19 554.98 117.19V99.3459C554.957 98.9544 554.956 98.5641 554.98 98.176V99.3459C555.107 101.443 555.888 103.574 556.964 105.57C558.302 108.053 560.898 109.495 563.33 110.33C566.359 111.37 568.922 113.976 568.922 117.178Z" fill="#23FFA3" stroke="black"/>
<path d="M151.639 205.381L151.639 201.147H155.919V205.381C154.528 206.598 152.486 205.888 151.639 205.381Z" fill="#EBFF00" stroke="black" stroke-width="2"/>
<path fill-rule="evenodd" clip-rule="evenodd" d="M116.402 206.203H115.078V207.584H116.402V206.203ZM133.276 206.203H131.952V207.584H133.276V206.203ZM123.516 206.203H124.84V207.584H123.516V206.203ZM141.714 206.203H140.39V207.584H141.714V206.203ZM117.892 206.203H119.216V207.584H117.892V206.203ZM136.088 206.203H134.764V207.584H136.088V206.203ZM126.328 206.203H127.652V207.584H126.328V206.203ZM144.526 206.203H143.202V207.584H144.526V206.203ZM120.702 206.203H122.026V207.584H120.702V206.203ZM138.903 206.203H137.579V207.584H138.903V206.203ZM129.14 206.203H130.464V207.584H129.14V206.203ZM147.339 206.203H146.015V207.584H147.339V206.203Z" fill="#383838"/>
<path d="M89.0999 158.743C89.0999 163.052 88.3009 166.904 87.0516 169.642C85.7618 172.468 84.1836 173.743 82.7986 173.743C81.4136 173.743 79.8354 172.468 78.5456 169.642C77.2963 166.904 76.4973 163.052 76.4973 158.743C76.4973 154.434 77.2963 150.582 78.5456 147.845C79.8354 145.018 81.4136 143.743 82.7986 143.743C84.1836 143.743 85.7618 145.018 87.0516 147.845C88.3009 150.582 89.0999 154.434 89.0999 158.743Z" fill="#5942E3" stroke="black" stroke-width="2"/>
<path d="M86.3507 158.743C86.3507 163.068 85.6587 166.938 84.5754 169.69C84.0325 171.069 83.4109 172.118 82.7718 172.804C82.134 173.49 81.5521 173.743 81.0521 173.743C80.5521 173.743 79.9702 173.49 79.3323 172.804C78.6932 172.118 78.0716 171.069 77.5287 169.69C76.4454 166.938 75.7534 163.068 75.7534 158.743C75.7534 154.418 76.4454 150.548 77.5287 147.796C78.0716 146.417 78.6932 145.369 79.3323 144.682C79.9702 143.997 80.5521 143.743 81.0521 143.743C81.5521 143.743 82.134 143.997 82.7718 144.682C83.4109 145.369 84.0325 146.417 84.5754 147.796C85.6587 150.548 86.3507 154.418 86.3507 158.743Z" fill="#745EFF" stroke="black" stroke-width="2"/>
<path d="M81.5884 181.811C81.5884 182.505 81.3741 183.115 81.0509 183.54C80.728 183.965 80.3183 184.184 79.9053 184.184C79.4923 184.184 79.0826 183.965 78.7597 183.54C78.4365 183.115 78.2222 182.505 78.2222 181.811C78.2222 181.117 78.4365 180.507 78.7597 180.082C79.0826 179.657 79.4923 179.438 79.9053 179.438C80.3183 179.438 80.728 179.657 81.0509 180.082C81.3741 180.507 81.5884 181.117 81.5884 181.811Z" fill="#5942E3" stroke="black"/>
<path d="M86.4002 181.811C86.4002 182.505 86.1858 183.115 85.8627 183.54C85.5398 183.965 85.1301 184.184 84.7171 184.184C84.3041 184.184 83.8943 183.965 83.5715 183.54C83.2483 183.115 83.0339 182.505 83.0339 181.811C83.0339 181.117 83.2483 180.507 83.5715 180.082C83.8943 179.657 84.3041 179.438 84.7171 179.438C85.1301 179.438 85.5398 179.657 85.8627 180.082C86.1858 180.507 86.4002 181.117 86.4002 181.811Z" fill="#5942E3" stroke="black"/>
<path d="M91.8187 181.811C91.8187 182.505 91.6043 183.115 91.2811 183.54C90.9583 183.965 90.5485 184.184 90.1355 184.184C89.7225 184.184 89.3128 183.965 88.9899 183.54C88.6668 183.115 88.4524 182.505 88.4524 181.811C88.4524 181.117 88.6668 180.507 88.9899 180.082C89.3128 179.657 89.7225 179.438 90.1355 179.438C90.5485 179.438 90.9583 179.657 91.2811 180.082C91.6043 180.507 91.8187 181.117 91.8187 181.811Z" fill="#5942E3" stroke="black"/>
<path d="M80.3746 181.811C80.3746 182.505 80.1602 183.115 79.8371 183.54C79.5142 183.965 79.1044 184.184 78.6914 184.184C78.2784 184.184 77.8687 183.965 77.5458 183.54C77.2227 183.115 77.0083 182.505 77.0083 181.811C77.0083 181.117 77.2227 180.507 77.5458 180.082C77.8687 179.657 78.2784 179.438 78.6914 179.438C79.1044 179.438 79.5142 179.657 79.8371 180.082C80.1602 180.507 80.3746 181.117 80.3746 181.811Z" fill="#745EFF" stroke="black"/>
<path d="M85.1883 181.811C85.1883 182.505 84.9739 183.115 84.6508 183.54C84.3279 183.965 83.9182 184.184 83.5052 184.184C83.0921 184.184 82.6824 183.965 82.3595 183.54C82.0364 183.115 81.822 182.505 81.822 181.811C81.822 181.117 82.0364 180.507 82.3595 180.082C82.6824 179.657 83.0921 179.438 83.5052 179.438C83.9182 179.438 84.3279 179.657 84.6508 180.082C84.9739 180.507 85.1883 181.117 85.1883 181.811Z" fill="#745EFF" stroke="black"/>
<path d="M90.607 181.811C90.607 182.505 90.3926 183.115 90.0695 183.54C89.7466 183.965 89.3369 184.184 88.9239 184.184C88.5108 184.184 88.1011 183.965 87.7782 183.54C87.4551 183.115 87.2407 182.505 87.2407 181.811C87.2407 181.117 87.4551 180.507 87.7782 180.082C88.1011 179.657 88.5108 179.438 88.9239 179.438C89.3369 179.438 89.7466 179.657 90.0695 180.082C90.3926 180.507 90.607 181.117 90.607 181.811Z" fill="#745EFF" stroke="black"/>
<path d="M85.5526 103.373C84.8414 104.205 81.3028 105.402 79.6223 105.897V108.866L85.5526 107.827V103.373Z" stroke="black" stroke-width="2"/>
<path d="M85.525 107.796L87.6483 107.524V99.5396C87.6483 99.5396 87.6272 101.105 85.0496 103.856M79.4119 105.93C79.6123 105.723 80.6019 104.43 80.808 103.457" stroke="black" stroke-width="2"/>
<path d="M81.9001 73.012L82.5718 104.669L83.3548 104.42L81.9001 73.012Z" fill="#5942E3" stroke="black"/>
<path d="M40.2017 191.014C40.9575 188.109 44.1725 186.662 47.1205 187.9L76.8923 200.395C78.7213 201.162 79.8771 203.004 79.7046 204.875C79.5396 206.666 78.1952 208.062 76.3807 208.326L48.6306 212.37C45.4239 212.838 42.2996 210.47 41.8964 207.268L40.0852 192.881C40.0056 192.248 40.0451 191.616 40.2017 191.014Z" fill="#5942E3" stroke="black"/>
<path d="M41.4233 191.282C40.9754 188.266 43.1173 185.652 46.1881 185.467L66.4626 184.249C68.6745 184.116 70.8506 185.295 71.9908 187.243L77.7583 197.101C79.7014 200.421 77.8657 204.391 74.1479 204.909L49.8899 208.284C46.7403 208.722 43.6731 206.433 43.2073 203.296L41.4233 191.282Z" fill="#745EFF" stroke="black"/>
<path d="M72.4372 195.174C72.4372 197.079 71.0848 198.9 68.6867 200.274C66.3026 201.639 62.9757 202.5 59.2737 202.5C55.5716 202.5 52.2447 201.639 49.8606 200.274C47.4625 198.9 46.1101 197.079 46.1101 195.174C46.1101 193.269 47.4625 191.448 49.8606 190.075C52.2447 188.709 55.5716 187.849 59.2737 187.849C62.9757 187.849 66.3026 188.709 68.6867 190.075C71.0848 191.448 72.4372 193.269 72.4372 195.174Z" fill="#332E63" stroke="black"/>
<path d="M43.9995 185.038C44.7553 182.134 47.9704 180.687 50.9183 181.924L80.6902 194.419C82.5191 195.187 83.675 197.028 83.5025 198.9C83.3374 200.69 81.9931 202.086 80.1786 202.351L52.4284 206.395C49.2218 206.862 46.0974 204.495 45.6943 201.293L43.8831 186.905C43.8035 186.273 43.843 185.64 43.9995 185.038Z" fill="#5942E3" stroke="black"/>
<path d="M45.2211 185.306C44.7732 182.29 46.9152 179.676 49.986 179.492L70.2604 178.273C72.4724 178.141 74.6484 179.319 75.7886 181.268L81.5562 191.125C83.4992 194.446 81.6636 198.416 77.9457 198.933L53.6878 202.309C50.5382 202.747 47.4709 200.458 47.0052 197.321L45.2211 185.306Z" fill="#745EFF" stroke="black"/>
<path d="M65.7235 199.389C65.4136 199.209 64.7161 199.026 64.3261 198.514C63.9254 197.989 64.0115 197.452 63.9671 197.105C63.9074 196.637 63.4118 196.314 62.8604 196.385C62.3091 196.456 61.9105 196.893 61.9703 197.361C62.0075 197.651 62.0651 198.421 62.0032 198.833C61.9844 198.957 61.9422 199.028 61.91 199.078C61.7866 199.271 61.3969 199.525 60.9505 199.335C60.8245 199.285 60.7061 199.181 60.6373 199.044C60.4916 198.753 60.498 197.854 60.4038 197.478C60.4029 197.474 60.4021 197.471 60.4013 197.468C60.3862 197.41 60.3678 197.359 60.3444 197.318C60.1757 196.986 59.7626 196.782 59.3121 196.84C58.7608 196.91 58.3622 197.347 58.422 197.815C58.4541 198.066 58.6113 198.275 58.8359 198.404C59.1458 198.584 59.8433 198.767 60.2333 199.279C60.6336 199.804 60.5475 200.341 60.5918 200.689C60.6516 201.157 61.1472 201.479 61.6986 201.408C62.1164 201.355 62.4468 201.091 62.5557 200.762C62.7342 200.271 62.2448 199.513 62.5036 198.868C62.5544 198.741 62.6202 198.672 62.6871 198.605C62.8267 198.467 63.2972 198.271 63.6921 198.582C63.7938 198.671 63.8288 198.746 63.8599 198.82C63.9908 199.135 64.0414 200.178 64.2147 200.476C64.3837 200.807 64.7963 201.011 65.2459 200.953C65.7973 200.883 66.1958 200.446 66.1361 199.978C66.104 199.727 65.9467 199.518 65.7221 199.389L65.7235 199.389Z" fill="#332E63"/>
<path d="M58.1522 201.864C58.7036 201.793 59.1022 201.357 59.0424 200.889C58.9826 200.42 58.487 200.098 57.9357 200.169C57.3843 200.24 56.9857 200.676 57.0455 201.144C57.1054 201.613 57.6009 201.935 58.1522 201.864Z" fill="#332E63"/>
<path fill-rule="evenodd" clip-rule="evenodd" d="M71.8663 196.449L71.1648 196.539C71.1286 196.544 71.1013 196.57 71.0986 196.599L69.8269 198.172C69.7984 198.207 69.7417 198.215 69.705 198.188L68.0437 196.981C68.0403 196.979 68.037 196.977 68.034 196.975C68.019 196.958 67.9929 196.948 67.9649 196.951L67.2634 197.041C67.2226 197.046 67.193 197.078 67.1974 197.113L67.641 200.585C67.6454 200.62 67.6821 200.643 67.7229 200.638L68.4244 200.548C68.4653 200.543 68.4948 200.511 68.4904 200.476L68.182 198.062L69.3196 198.895C69.3231 198.898 69.327 198.901 69.3313 198.904L69.3332 198.905L69.7459 199.207L69.7483 199.209L69.8453 199.28C69.8789 199.299 69.9253 199.29 69.9488 199.261L71.2358 197.683L71.5424 200.083C71.5468 200.118 71.5835 200.142 71.6243 200.136L72.3258 200.046C72.3667 200.041 72.3962 200.009 72.3918 199.975L71.9482 196.502C71.9438 196.468 71.9071 196.444 71.8663 196.449Z" fill="#332E63"/>
<path d="M74.3232 196.746C73.3576 196.869 72.6607 197.641 72.7664 198.468C72.8722 199.296 73.7406 199.867 74.7061 199.743C75.6717 199.62 76.3687 198.848 76.2629 198.021C76.1572 197.193 75.2888 196.622 74.3232 196.746ZM74.6185 199.057C74.095 199.124 73.6238 198.815 73.5664 198.366C73.5091 197.917 73.8873 197.499 74.4108 197.432C74.9343 197.365 75.4056 197.674 75.4629 198.123C75.5202 198.572 75.142 198.99 74.6185 199.057Z" fill="#332E63"/>
<path d="M81.2063 195.863C80.8616 195.908 80.5519 196.035 80.3018 196.218L80.2798 196.046C80.2755 196.012 80.239 195.988 80.1988 195.994L79.506 196.082C79.4659 196.087 79.4366 196.12 79.441 196.154L79.8844 199.625C79.8888 199.66 79.9253 199.683 79.9654 199.678L80.6582 199.589C80.6984 199.584 80.7277 199.552 80.7233 199.518L80.6172 198.688C80.9053 198.802 81.2372 198.847 81.5819 198.803C82.5335 198.681 83.2209 197.924 83.1172 197.113C83.0135 196.301 82.158 195.742 81.2064 195.864L81.2063 195.863ZM81.4959 198.13C80.9804 198.196 80.5167 197.894 80.4597 197.454L80.4593 197.451C80.404 197.011 80.7766 196.602 81.2922 196.536C81.8077 196.47 82.2724 196.773 82.3286 197.213C82.3848 197.653 82.0118 198.064 81.4959 198.13L81.4959 198.13Z" fill="#332E63"/>
<path d="M78.7753 196.177L78.2937 196.238C77.3781 196.356 76.7137 197.057 76.8093 197.805L76.9647 199.022C76.9647 199.022 76.965 199.024 76.965 199.024L77.011 199.384C77.0155 199.419 77.0542 199.443 77.0969 199.438L77.8347 199.343C77.8774 199.338 77.9088 199.305 77.9043 199.27L77.6957 197.637C77.6453 197.243 77.9952 196.873 78.4778 196.811L78.878 196.76C78.9199 196.755 78.9455 196.723 78.9416 196.693L78.8843 196.244C78.8786 196.2 78.8299 196.169 78.7753 196.176L78.7753 196.177Z" fill="#332E63"/>
<path d="M85.0414 195.197C84.7726 195.232 84.527 195.323 84.3191 195.453L84.2212 194.687C84.2169 194.653 84.1808 194.629 84.141 194.634L83.4557 194.722C83.416 194.727 83.3871 194.759 83.3914 194.793L83.6396 196.736C83.6405 196.743 83.6409 196.75 83.6418 196.756L83.7796 197.835L83.78 197.835L83.835 198.266C83.8394 198.3 83.8755 198.324 83.9152 198.319L84.6006 198.231C84.6403 198.226 84.6692 198.194 84.6648 198.16L84.4686 196.623C84.4273 196.3 84.6921 195.959 85.0611 195.883C85.4971 195.794 85.905 196.045 85.9526 196.418L86.151 197.971C86.1553 198.004 86.19 198.027 86.2289 198.022L86.9188 197.934C86.9577 197.929 86.9859 197.897 86.9816 197.864L86.7886 196.353C86.6928 195.603 85.9108 195.086 85.0417 195.197L85.0414 195.197Z" fill="#332E63"/>
<path d="M104.877 194.088C104.902 194.289 104.869 194.47 104.778 194.632C104.686 194.794 104.539 194.928 104.337 195.036C104.137 195.143 103.886 195.216 103.584 195.254C103.451 195.271 103.319 195.28 103.189 195.281C103.061 195.282 102.936 195.275 102.815 195.261C102.695 195.245 102.58 195.222 102.469 195.191L102.384 194.525C102.575 194.573 102.773 194.612 102.977 194.644C103.181 194.676 103.379 194.679 103.572 194.655C103.705 194.638 103.81 194.609 103.887 194.567C103.966 194.526 104.02 194.476 104.05 194.417C104.08 194.359 104.09 194.295 104.081 194.226C104.071 194.141 104.029 194.073 103.956 194.021C103.884 193.969 103.787 193.924 103.666 193.887C103.547 193.849 103.413 193.809 103.263 193.767C103.169 193.741 103.066 193.709 102.954 193.67C102.842 193.63 102.733 193.577 102.629 193.512C102.524 193.447 102.434 193.364 102.359 193.263C102.285 193.159 102.238 193.031 102.219 192.877C102.193 192.675 102.224 192.496 102.311 192.339C102.398 192.182 102.534 192.054 102.719 191.953C102.905 191.851 103.132 191.783 103.399 191.749C103.599 191.723 103.792 191.72 103.978 191.738C104.165 191.755 104.363 191.789 104.571 191.84L104.379 192.431C104.194 192.391 104.029 192.362 103.884 192.346C103.739 192.329 103.594 192.33 103.448 192.348C103.347 192.361 103.262 192.387 103.193 192.426C103.125 192.462 103.076 192.509 103.046 192.567C103.015 192.622 103.004 192.684 103.013 192.752C103.023 192.832 103.058 192.896 103.118 192.945C103.179 192.992 103.267 193.034 103.38 193.071C103.495 193.108 103.638 193.15 103.808 193.197C104.015 193.253 104.194 193.317 104.344 193.389C104.495 193.459 104.616 193.549 104.707 193.659C104.798 193.768 104.854 193.911 104.877 194.088Z" fill="#332E63"/>
<path d="M100.566 192.719C100.41 192.739 100.275 192.783 100.161 192.853C100.048 192.92 99.957 193.01 99.8873 193.12C99.8194 193.231 99.7734 193.359 99.7494 193.507C99.7254 193.654 99.7247 193.816 99.7474 193.993C99.7779 194.232 99.8373 194.431 99.9256 194.592C100.015 194.751 100.137 194.867 100.291 194.938C100.444 195.007 100.633 195.028 100.857 194.999C101.014 194.979 101.168 194.944 101.32 194.893C101.474 194.842 101.639 194.776 101.816 194.695L101.893 195.296C101.731 195.379 101.569 195.445 101.407 195.492C101.246 195.541 101.063 195.578 100.857 195.605C100.461 195.656 100.125 195.626 99.8509 195.515C99.5781 195.403 99.3637 195.225 99.2078 194.982C99.0518 194.738 98.9516 194.442 98.9074 194.096C98.8747 193.84 98.8843 193.601 98.936 193.378C98.9878 193.156 99.0801 192.957 99.2129 192.782C99.3456 192.606 99.5188 192.462 99.7326 192.349C99.9463 192.235 100.199 192.16 100.49 192.122C100.681 192.098 100.875 192.095 101.072 192.114C101.27 192.131 101.462 192.165 101.647 192.216L101.458 192.832C101.306 192.79 101.155 192.757 101.004 192.731C100.852 192.705 100.706 192.701 100.566 192.719Z" fill="#332E63"/>
<path d="M98.2723 194.167C98.3056 194.427 98.2991 194.669 98.2527 194.893C98.2062 195.115 98.1173 195.312 97.9862 195.486C97.8567 195.659 97.6824 195.802 97.4632 195.914C97.2438 196.026 96.9771 196.101 96.6631 196.141C96.3491 196.182 96.072 196.176 95.8317 196.123C95.5913 196.07 95.3858 195.976 95.2153 195.841C95.0465 195.706 94.9116 195.536 94.8105 195.331C94.7095 195.127 94.6423 194.894 94.6088 194.632C94.5641 194.282 94.5902 193.97 94.687 193.694C94.7853 193.417 94.9612 193.189 95.2149 193.011C95.4685 192.833 95.8049 192.717 96.2242 192.664C96.6417 192.61 96.9938 192.638 97.2805 192.747C97.569 192.855 97.7947 193.031 97.9578 193.275C98.1226 193.519 98.2275 193.816 98.2723 194.167ZM95.4646 194.527C95.4947 194.762 95.554 194.961 95.6425 195.124C95.7326 195.285 95.8554 195.402 96.0111 195.476C96.1666 195.548 96.3583 195.57 96.5864 195.541C96.8179 195.511 96.9999 195.442 97.1321 195.332C97.2641 195.221 97.3518 195.077 97.3951 194.899C97.4399 194.72 97.4472 194.512 97.4171 194.277C97.3719 193.922 97.2608 193.653 97.084 193.469C96.9071 193.285 96.6459 193.215 96.3003 193.26C96.0705 193.289 95.8887 193.359 95.7549 193.47C95.6227 193.58 95.5333 193.724 95.4867 193.904C95.4417 194.082 95.4343 194.29 95.4646 194.527Z" fill="#332E63"/>
<path d="M93.9868 194.687C94.0354 195.067 93.9927 195.396 93.8587 195.673C93.7263 195.948 93.5113 196.17 93.2138 196.34C92.9161 196.508 92.5462 196.621 92.1042 196.677L91.0148 196.817L90.5833 193.439L91.7911 193.284C92.1946 193.233 92.5526 193.251 92.8652 193.339C93.1776 193.426 93.4311 193.582 93.6258 193.808C93.8202 194.032 93.9406 194.325 93.9868 194.687ZM93.1418 194.814C93.11 194.564 93.0417 194.365 92.937 194.215C92.8339 194.064 92.6959 193.96 92.5229 193.904C92.3516 193.848 92.1467 193.835 91.9081 193.866L91.474 193.921L91.7549 196.121L92.1049 196.076C92.5031 196.025 92.7868 195.894 92.956 195.683C93.1269 195.471 93.1889 195.182 93.1418 194.814Z" fill="#332E63"/>
<path d="M88.3911 193.114L88.9578 197.551" stroke="#332E63" stroke-width="0.6"/>
<path d="M75.6416 188.274C75.6416 189.897 74.3572 191.491 71.9972 192.709C69.6627 193.914 66.4029 194.675 62.7748 194.675C59.1467 194.675 55.8869 193.914 53.5524 192.709C51.1923 191.491 49.908 189.897 49.908 188.274C49.908 186.652 51.1923 185.057 53.5524 183.839C55.8869 182.634 59.1467 181.874 62.7748 181.874C66.4029 181.874 69.6627 182.634 71.9972 183.839C74.3572 185.057 75.6416 186.652 75.6416 188.274Z" fill="#332E63" stroke="black"/>
<mask id="mask1_1703_52167" style="mask-type:luminance" maskUnits="userSpaceOnUse" x="53" y="180" width="43" height="23">
<path d="M94.3233 180.457L53.0989 183.895L54.6086 202.049L95.833 198.612L94.3233 180.457Z" fill="white"/>
</mask>
<g mask="url(#mask1_1703_52167)">
<path d="M87.6908 191.74C86.5478 191.138 83.9271 190.488 82.5515 188.816C81.1383 187.1 81.5853 185.39 81.4926 184.275C81.3676 182.772 79.5477 181.697 77.4283 181.873C75.3089 182.05 73.6917 183.412 73.8167 184.915C73.8944 185.849 73.9446 188.317 73.6178 189.628C73.5185 190.025 73.3417 190.249 73.2079 190.406C72.6948 191.011 71.1516 191.788 69.4901 191.142C69.0204 190.968 68.5916 190.626 68.3593 190.182C67.8675 189.237 68.09 186.361 67.8133 185.149C67.8109 185.139 67.8084 185.129 67.8059 185.119C67.7612 184.93 67.7024 184.767 67.622 184.635C67.0513 183.557 65.5201 182.866 63.7886 183.011C61.6693 183.187 60.052 184.55 60.177 186.052C60.244 186.858 60.798 187.541 61.6266 187.974C62.7696 188.576 65.3903 189.226 66.7659 190.898C68.1774 192.615 67.7305 194.325 67.8232 195.44C67.9481 196.942 69.7681 198.018 71.8874 197.841C73.4938 197.707 74.8126 196.891 75.3006 195.849C76.09 194.296 74.3898 191.826 75.5195 189.785C75.7413 189.384 76.0074 189.168 76.2775 188.961C76.8406 188.53 78.6792 187.947 80.1176 188.977C80.486 189.272 80.6029 189.513 80.7052 189.753C81.1354 190.773 81.0984 194.113 81.694 195.082C82.266 196.157 83.7955 196.846 85.5237 196.702C87.6431 196.525 89.2603 195.163 89.1354 193.66C89.0683 192.854 88.5144 192.171 87.6858 191.739L87.6908 191.74Z" fill="url(#paint1_linear_1703_52167)"/>
<path d="M58.2481 198.977C60.3675 198.8 61.9848 197.439 61.8598 195.936C61.7347 194.432 59.9149 193.357 57.7955 193.534C55.6761 193.711 54.0588 195.072 54.1838 196.576C54.3089 198.079 56.1287 199.154 58.2481 198.977Z" fill="url(#paint2_linear_1703_52167)"/>
</g>
<path d="M94.6106 25.2056C103.838 30.1264 105.571 37.1407 105.284 40.0328L85.957 43.2905L94.6106 25.2056Z" fill="#AFA2FF" stroke="black"/>
<path d="M99.9405 26.396C102.178 27.5127 104.264 30.936 105.028 32.5081L112.652 27.7179L105.128 19.1911L99.9405 26.396Z" fill="#AFA2FF" stroke="black"/>
<path d="M723.911 209.998C715.585 216.326 708.498 214.964 705.995 213.491L711.132 194.555L723.911 209.998Z" fill="#AFA2FF" stroke="black"/>
<path d="M720.597 214.348C718.648 215.913 714.668 216.375 712.922 216.411L714.076 225.347L724.962 222.081L720.597 214.348Z" fill="#AFA2FF" stroke="black"/>
<path d="M748.012 127.747L745.244 129.012C742.086 130.547 703.836 68.0286 721.692 67.8498C739.548 67.671 746.277 73.7845 748.012 78.9506V127.747Z" fill="#745EFF" stroke="black" stroke-width="2"/>
<path d="M744.698 129.012L730 128.323C713.08 109.006 682.823 73.5133 706.539 68.9586C730.255 64.404 740.988 72.2517 744.698 79.3909V129.012Z" fill="#5942E3" stroke="black" stroke-width="2"/>
<path d="M731.789 140.252V116.354L698.101 118.051L698.101 142.025C702.086 149.224 730.384 146.888 731.789 140.252Z" fill="#5942E3" stroke="black" stroke-width="2"/>
<path d="M713.907 134.204H709.95L692.909 69.6363C722.207 64.3022 736.771 74.3531 740.802 79.7923V126.557L713.907 134.204Z" fill="#745EFF" stroke="black" stroke-width="2"/>
<path d="M718.002 76.7025V136.23L713.698 138.162H681.474L672.874 78.1199C688.104 63.9944 706.327 66.2413 718.002 76.7025Z" fill="#5942E3" stroke="black" stroke-width="2"/>
<path d="M713.145 78.2362V138.163H672.783V78.2362C688.013 64.1107 706.037 72.3506 713.145 78.2362Z" fill="#745EFF" stroke="black" stroke-width="2"/>
<path d="M708.846 81.4141V138.162H676.121V81.4141C688.47 68.0378 703.083 75.8406 708.846 81.4141Z" fill="#745EFF" stroke="black" stroke-width="2"/>
<path d="M676.121 89.2854H707.825V99.9101H676.121V89.2854Z" fill="#745EFF" stroke="black" stroke-width="2"/>
<path d="M678.806 92.137H705.137V97.0577H678.806V92.137Z" fill="#332E63" stroke="black" stroke-width="2"/>
<path d="M702.177 105.249C702.234 99.9162 704.553 94.9348 704.553 94.9348H679.297C677.507 96.2427 676.434 102.356 676.121 105.249H702.177Z" fill="#AFA2FF" stroke="black" stroke-width="2"/>
<path fill-rule="evenodd" clip-rule="evenodd" d="M699.289 98.6492H700.122V100.161H699.289V98.6492ZM688.675 98.6492H689.508V100.161H688.675V98.6492ZM694.813 98.6492H693.98V100.161H694.813V98.6492ZM683.365 98.6492H684.197V100.161H683.365V98.6492ZM698.352 98.6492H697.519V100.161H698.352V98.6492ZM686.903 98.6492H687.736V100.161H686.903V98.6492ZM693.043 98.6492H692.21V100.161H693.043V98.6492ZM681.598 98.6492H682.431V100.161H681.598V98.6492ZM696.585 98.6492H695.752V100.161H696.585V98.6492ZM685.133 98.6492H685.966V100.161H685.133V98.6492ZM691.276 98.6492H690.444V100.161H691.276V98.6492ZM679.828 98.6492H680.661V100.161H679.828V98.6492Z" fill="#383838"/>
<path d="M688.817 127.52H696.151C697.23 127.52 698.104 128.395 698.104 129.473C698.104 130.552 697.23 131.427 696.151 131.427H688.817C687.738 131.427 686.863 130.552 686.863 129.473C686.863 128.395 687.738 127.52 688.817 127.52Z" fill="#23FFA3" stroke="black" stroke-width="2"/>
<path d="M680.713 141.13V138.162H704.258V141.13H680.713Z" fill="#5942E3" stroke="black" stroke-width="2"/>
<path d="M724.113 94.296L724.067 94.2874H724.02C723.115 94.2874 722.191 93.6239 721.465 92.3224C720.748 91.0375 720.289 89.2286 720.289 87.2032C720.289 85.1778 720.748 83.3689 721.465 82.0839C722.191 80.7825 723.115 80.119 724.02 80.119H724.064L724.107 80.1114C725.421 79.881 726.407 79.9771 727.149 80.2721C727.885 80.5645 728.424 81.0689 728.823 81.735C729.64 83.1001 729.851 85.1128 729.851 87.2032C729.851 89.2876 729.614 91.3152 728.783 92.6881C728.377 93.3594 727.833 93.8654 727.103 94.1553C726.367 94.4475 725.397 94.5377 724.113 94.296Z" fill="#5942E3" stroke="black"/>
<path d="M730.482 87.2031C730.482 89.2285 730.023 91.0374 729.306 92.3224C728.58 93.6238 727.657 94.2873 726.751 94.2873C725.846 94.2873 724.922 93.6238 724.196 92.3224C723.479 91.0374 723.02 89.2285 723.02 87.2031C723.02 85.1777 723.479 83.3688 724.196 82.0839C724.922 80.7824 725.846 80.1189 726.751 80.1189C727.657 80.1189 728.58 80.7824 729.306 82.0839C730.023 83.3688 730.482 85.1777 730.482 87.2031Z" fill="#745EFF" stroke="black"/>
<path d="M724.775 88.9053V52.3092C724.775 49.0299 728.754 49.4481 728.886 52.486V88.9053C728.641 91.6619 724.95 91.2465 724.775 88.9053Z" fill="#5942E3" stroke="black"/>
<path d="M726.117 88.9053V52.3092C726.117 49.0299 728.975 49.4481 729.07 52.486V88.9053C728.893 91.6619 726.243 91.2465 726.117 88.9053Z" fill="#745EFF" stroke="black"/>
<path d="M733.421 50.808C732.198 51.4499 729.122 51.343 727.738 50.808V64.8908C729.341 65.207 733.027 65.5329 734.951 64.3071C736.875 63.0812 740.124 63.4071 741.509 63.7233V50.808C740.489 49.2758 734.951 50.0057 733.421 50.808Z" fill="#745EFF" stroke="black"/>
<mask id="mask2_1703_52167" style="mask-type:luminance" maskUnits="userSpaceOnUse" x="730" y="54" width="18" height="12">
<path d="M747.734 54.9722H730.987V65.3453H747.734V54.9722Z" fill="white"/>
</mask>
<g mask="url(#mask2_1703_52167)">
<path d="M745.973 61.6364C745.491 61.203 744.357 60.6637 743.811 59.5536C743.25 58.4143 743.51 57.375 743.51 56.6776C743.51 55.7378 742.746 54.9753 741.803 54.9753C740.86 54.9753 740.096 55.7378 740.096 56.6776C740.096 57.262 740.028 58.7976 739.835 59.5951C739.777 59.8369 739.69 59.9663 739.626 60.0572C739.377 60.4062 738.667 60.8089 737.957 60.3218C737.755 60.1895 737.579 59.9549 737.492 59.6667C737.31 59.0544 737.514 57.2792 737.436 56.5124C737.435 56.506 737.435 56.4995 737.434 56.4931C737.421 56.3737 737.401 56.2692 737.37 56.1827C737.158 55.4839 736.507 54.9753 735.737 54.9753C734.794 54.9753 734.03 55.7378 734.03 56.6776C734.03 57.1819 734.25 57.6346 734.6 57.9465C735.083 58.3799 736.216 58.9192 736.762 60.0293C737.323 61.1687 737.062 62.2079 737.062 62.9053C737.062 63.8451 737.827 64.6076 738.769 64.6076C739.484 64.6076 740.096 64.1691 740.35 63.5469C740.756 62.6228 740.095 61.0006 740.669 59.7911C740.782 59.5536 740.908 59.4335 741.034 59.3183C741.299 59.0801 742.132 58.8134 742.73 59.5272C742.882 59.7296 742.925 59.8855 742.961 60.04C743.113 60.6959 742.974 62.7687 743.202 63.4017C743.415 64.099 744.065 64.6061 744.834 64.6061C745.776 64.6061 746.541 63.8437 746.541 62.9039C746.541 62.3996 746.321 61.9469 745.971 61.635L745.973 61.6364Z" fill="url(#paint3_linear_1703_52167)"/>
<path d="M732.702 64.6084C733.644 64.6084 734.409 63.8467 734.409 62.9061C734.409 61.9656 733.644 61.2039 732.702 61.2039C731.759 61.2039 730.995 61.9656 730.995 62.9061C730.995 63.8467 731.759 64.6084 732.702 64.6084Z" fill="url(#paint4_linear_1703_52167)"/>
</g>
<path d="M258.73 169.83L289.277 179.166L282.855 198.132L252.511 188.348L258.73 169.83Z" fill="#EBFF00"/>
<path d="M258.73 169.83L289.277 179.166M258.73 169.83L252.511 188.348L282.855 198.132L289.277 179.166M258.73 169.83L271.333 184.008L289.277 179.166" stroke="black" stroke-width="2"/>
<path d="M441.083 35.1469L473.671 42.9656L469.024 61.5963L436.599 53.3356L441.083 35.1469Z" fill="#EBFF00"/>
<path d="M441.083 35.1469L473.671 42.9656M441.083 35.1469L436.599 53.3356L469.024 61.5963L473.671 42.9656M441.083 35.1469L455.616 48.3763L473.671 42.9656" stroke="black" stroke-width="2"/>
<path d="M49.2373 112.099L75.7899 118.481L72.0215 133.614L45.6013 126.874L49.2373 112.099Z" fill="#EBFF00"/>
<path d="M49.2373 112.099L75.7899 118.481M49.2373 112.099L45.6013 126.874L72.0215 133.614L75.7899 118.481M49.2373 112.099L61.0876 122.861L75.7899 118.481" stroke="black" stroke-width="2"/>
<path d="M689.52 49.2272L716.628 45.1326L718.824 60.6362L691.704 64.3468L689.52 49.2272Z" fill="#EBFF00"/>
<path d="M689.52 49.2272L716.628 45.1326M689.52 49.2272L691.704 64.3468L718.824 60.6362L716.628 45.1326M689.52 49.2272L704.6 54.7626L716.628 45.1326" stroke="black" stroke-width="2"/>
<ellipse cx="527.939" cy="189.2" rx="6.31146" ry="6.32042" fill="#AFA2FF"/>
<ellipse cx="319.898" cy="192.583" rx="4.04376" ry="4.04949" fill="#AFA2FF"/>
<ellipse cx="504.583" cy="52.3439" rx="4.04375" ry="4.04949" fill="#AFA2FF"/>
<path d="M599.11 151.371L633.502 151.942L632.71 172.68L598.39 171.604L599.11 151.371Z" fill="#EBFF00"/>
<path d="M599.11 151.371L633.502 151.942M599.11 151.371L598.39 171.604L632.71 172.68L633.502 151.942M599.11 151.371L616.476 161.898L633.502 151.942" stroke="black" stroke-width="2"/>
<path d="M170.04 145.892C170.04 147.369 169.076 148.784 167.355 149.854C165.641 150.92 163.243 151.596 160.567 151.596C157.891 151.596 155.492 150.92 153.778 149.854C152.057 148.784 151.093 147.369 151.093 145.892C151.093 144.415 152.057 143 153.778 141.93C155.492 140.864 157.891 140.188 160.567 140.188C163.243 140.188 165.641 140.864 167.355 141.93C169.076 143 170.04 144.415 170.04 145.892Z" fill="black" stroke="black"/>
<path d="M197.012 100.175C196.843 105.827 195.391 105.955 194.687 105.313C195.017 106.147 196.83 108.057 201.434 109.024C207.189 110.234 215.333 117.931 217.613 123.979C219.438 128.817 221.361 142.331 222.23 147.169C222.338 145.19 222.134 138.161 221.407 133.325C220.801 129.29 214.97 98.8908 207.57 92.8966C200.171 86.9023 197.224 93.1107 197.012 100.175Z" fill="#23FFA3" stroke="black" stroke-width="2"/>
<path d="M146.479 167.72C146.779 167.416 149.549 163.723 150.896 161.915C151.154 161.721 151.769 161.58 152.165 162.568C152.562 163.556 155.583 166.016 157.044 167.123C157.095 165.387 157.288 161.59 157.654 160.29C158.112 158.666 160.361 157.048 163.563 157.743C166.765 158.438 169.433 162.182 170.462 164.073C171.286 165.586 171.923 169.233 172.139 170.867C174.287 170.828 179.649 170.612 183.918 170.056C189.255 169.361 194.782 168.049 198.441 167.47C201.369 167.007 201.826 166.897 204.774 165.546L208.973 167.749L213.473 170.759C214.349 171.441 220.8 174.151 222.858 174.691C228.557 176.186 232.195 174.873 232.271 175.645C232.332 176.263 234.032 178.291 232.271 181.893L227.133 186.161L220.816 187.104C219.857 187.489 213.512 186.161 211.55 186.161C209.588 186.161 207.751 184.153 205.276 182.874L196.156 181.851L170.462 181.323L169.645 180.427C168.966 182.145 167.247 186.076 165.8 188.061C163.991 190.542 159.958 191.534 152.985 190.007C147.407 188.786 146.323 183.966 146.479 181.709H133.608C133.389 180.535 135.479 177.281 136.384 175.847C137.435 174.182 140.37 172.098 141.592 171.431C143.095 170.321 146.178 168.025 146.479 167.72Z" fill="#23FFA3"/>
<path d="M173.025 105.758C176.9 100.489 179.701 98.5672 181.914 98.5018C180.387 100.146 182.376 102.116 185.284 99.9796C187.611 98.2703 191.083 98.6337 192.529 99.0291C192.529 99.0291 188.528 100.588 190.786 103.634C191.821 104.698 194.741 105.898 197.77 103.634C199.61 102.258 203.374 102.718 205.256 104.854C205.256 104.854 202.36 105.463 203.249 106.404C204.417 107.639 207.808 105.189 209.941 108.582C209.941 108.582 207.523 107.887 207.523 109.209C210.41 110.851 216.115 117.521 217.886 124.708C219.657 131.896 221.734 138.434 222.259 145.784C222.731 152.408 218.664 157.626 212.931 161.617C205.763 166.606 192.73 168.895 182.619 170.221C172.508 171.548 165.025 170.958 158.006 167.571C150.733 164.062 148.151 155.273 147.234 151.827C146.501 149.07 145.919 150.232 145.721 151.158C145.968 155.816 143.747 164.005 132.889 159.492C119.317 153.851 112.09 137.545 110.846 126.334C109.602 115.123 112.787 102.077 128.394 99.0658C144 96.0541 152.829 106.346 156.705 108.348C161.876 111.018 168.445 111.984 173.025 105.758Z" fill="#23FFA3" stroke="#010101" stroke-width="2"/>
<path d="M156.913 165.782H159.199L171.914 169.44V172.266L157.233 169.209L156.913 165.782Z" fill="#23FFA3"/>
<path d="M152.642 180.181C153.14 178.904 155.503 177.234 156.399 176.162C157.519 174.822 158.619 171.031 155.89 164.446C152.688 156.718 158.608 153.686 163.073 156.048C164.99 157.061 169.684 161.479 170.847 165.187C171.901 168.545 172.221 172.043 170.847 177.125C169.581 181.812 168.19 193.909 153.67 190.107C142.054 187.066 147.1 175.155 151.075 169.58" stroke="black" stroke-width="2"/>
<path d="M203.861 149.633C210.813 148.06 210.9 140.566 209.859 135.683C208.679 131.51 206.33 127.592 196.918 130.092C187.506 132.591 188.314 137.399 190.028 140.949C192.195 145.435 196.91 151.205 203.861 149.633Z" fill="#745EFF" stroke="#010101" stroke-width="2"/>
<path d="M208.787 143.514C209.162 142.131 209.985 142.014 210.161 142.895C209.294 146.549 208.582 148.494 203.671 149.294C209.771 147.14 208.195 145.696 208.787 143.514Z" fill="#010101"/>
<path d="M196.322 144.394C194.361 144.247 194.429 146.157 194.776 146.998C197.604 149.803 200 150.466 204.724 149.052C198.196 149.799 198.795 144.58 196.322 144.394Z" fill="#010101"/>
<path fill-rule="evenodd" clip-rule="evenodd" d="M160.084 108.756C157.899 107.773 155.846 107.163 153.702 107.553C151.554 107.943 149.516 109.3 147.252 111.78L145.946 113.211L147.86 113.448C148.85 113.57 149.896 114.072 150.58 114.886C151.233 115.663 151.607 116.778 151.212 118.302C150.944 119.341 150.453 119.972 149.905 120.376C149.339 120.792 148.646 121.011 147.925 121.101C147.206 121.192 146.506 121.148 145.977 121.077C145.714 121.042 145.501 121.001 145.356 120.97C145.283 120.954 145.228 120.941 145.193 120.933C145.176 120.928 145.164 120.925 145.157 120.923L145.152 120.922L145.151 120.922L145.15 120.922L145.15 120.922L145.15 120.922L145.15 120.922L141.592 119.934L144.161 122.584L144.161 122.584L144.161 122.584L144.164 122.588C144.169 122.593 144.177 122.602 144.19 122.615C144.214 122.642 144.253 122.686 144.304 122.747C144.406 122.869 144.556 123.058 144.734 123.311C145.089 123.817 145.551 124.577 145.96 125.568C146.149 126.027 146.327 126.536 146.477 127.095L146.768 126.831C147.66 129.716 147.556 132.117 147.482 133.84C147.474 134.022 147.467 134.197 147.461 134.364C147.958 133.127 148.798 130.612 147.82 125.856C147.709 125.32 147.903 125.495 148.248 126.018C148.112 125.583 147.963 125.176 147.807 124.796C147.549 124.17 147.272 123.622 147.004 123.154C147.37 123.157 147.762 123.139 148.164 123.088C149.106 122.97 150.157 122.667 151.081 121.988C152.022 121.296 152.767 120.26 153.146 118.796C153.7 116.654 153.186 114.87 152.11 113.591C151.494 112.859 150.711 112.31 149.879 111.948C151.475 110.446 152.809 109.748 154.05 109.522C155.584 109.243 157.177 109.647 159.258 110.583L160.084 108.756Z" fill="#010101"/>
<path d="M194.417 152.253C193.118 152.253 191.84 153.796 192.129 154.664" stroke="black" stroke-width="2"/>
<path d="M204.568 165.587C206.873 166.37 211.891 170.019 213.486 170.928C216.507 172.649 223.271 175.377 230.992 175.377C235.697 175.377 232.992 185.398 224.026 186.6C221.835 186.894 214.104 188.792 207.667 183.935C203.496 180.788 194.564 182.028 169.832 181.414" stroke="black" stroke-width="2"/>
<path d="M186.47 144.873C186.025 137.959 181.242 130.286 174.782 126.649C161.712 119.29 159.178 133.08 159.993 139.083C160.809 145.087 161.367 151.344 166.27 151.344C174.218 151.344 175.268 156.224 181.267 156.224C183.524 156.224 187.027 153.515 186.47 144.873Z" fill="#EBFF00" stroke="black" stroke-width="2"/>
<path d="M192.946 153.023C195.953 156.722 201.443 153.222 204.915 152.189C207.851 151.315 213.411 151.908 213.021 148.315" stroke="black" stroke-width="2"/>
<path d="M211.86 148.311C213 148.095 213.843 148.253 214.584 149.17" stroke="black" stroke-width="2"/>
<path d="M151.23 161.522C149.883 164.2 145.796 168.967 143.103 170.531C135.597 174.89 134.172 178.511 133.609 181.802H146.262" stroke="black" stroke-width="2"/>
<path d="M210.866 122.299C210.329 116.047 212.991 116.183 214.389 117.033C217.912 121.789 224.306 147.726 221.621 148.575C218.937 149.425 215.579 146.404 214.604 143.344C214.022 141.515 211.537 130.114 210.866 122.299Z" fill="#EBFF00" stroke="black" stroke-width="2"/>
<path d="M218.782 131.918C218.679 131.979 218.521 132.057 218.29 132.164C218.196 132.207 218.093 132.255 217.98 132.306C217.475 132.537 216.788 132.851 215.944 133.295C215.556 133.499 215.202 133.703 214.897 133.88C214.779 133.948 214.667 134.012 214.564 134.071C214.171 134.293 213.913 134.42 213.733 134.463C213.672 134.478 213.64 134.478 213.628 134.477C213.627 134.475 213.625 134.473 213.622 134.469C213.567 134.403 213.475 134.203 213.408 133.706L213.408 133.702C213.409 133.679 213.41 133.643 213.412 133.596C213.416 133.501 213.426 133.363 213.448 133.194C213.491 132.854 213.581 132.401 213.763 131.936C214.123 131.015 214.826 130.084 216.261 129.841C216.869 129.738 217.304 129.824 217.619 129.981C217.939 130.14 218.178 130.393 218.358 130.686C218.538 130.982 218.651 131.306 218.717 131.579C218.749 131.711 218.77 131.828 218.782 131.918Z" fill="#1D1D1D" stroke="black"/>
<mask id="path-124-inside-1_1703_52167" fill="white">
<ellipse cx="1.57945" cy="0.909223" rx="1.57945" ry="0.909223" transform="matrix(0.919736 -0.392537 0.391598 0.920136 214.117 130.607)"/>
</mask>
<ellipse cx="1.57945" cy="0.909223" rx="1.57945" ry="0.909223" transform="matrix(0.919736 -0.392537 0.391598 0.920136 214.117 130.607)" fill="white"/>
<path d="M216.459 130.596C216.412 130.485 216.42 130.39 216.43 130.349C216.438 130.316 216.443 130.327 216.407 130.375C216.331 130.475 216.16 130.625 215.89 130.74L216.674 132.58C217.206 132.353 217.682 132.005 218.003 131.578C218.306 131.176 218.596 130.511 218.298 129.811L216.459 130.596ZM215.89 130.74C215.621 130.855 215.394 130.875 215.27 130.86C215.21 130.853 215.205 130.842 215.235 130.859C215.271 130.881 215.346 130.94 215.393 131.051L213.554 131.836C213.852 132.536 214.531 132.787 215.031 132.847C215.561 132.91 216.141 132.808 216.674 132.58L215.89 130.74ZM215.393 131.051C215.44 131.162 215.431 131.257 215.422 131.298C215.414 131.331 215.409 131.321 215.445 131.272C215.521 131.172 215.692 131.022 215.961 130.907L215.178 129.067C214.646 129.294 214.17 129.642 213.849 130.069C213.546 130.471 213.255 131.136 213.554 131.836L215.393 131.051ZM215.961 130.907C216.231 130.792 216.458 130.772 216.582 130.787C216.642 130.794 216.646 130.805 216.617 130.788C216.58 130.766 216.506 130.707 216.459 130.596L218.298 129.811C218 129.111 217.32 128.86 216.821 128.8C216.29 128.737 215.711 128.839 215.178 129.067L215.961 130.907Z" fill="black" mask="url(#path-124-inside-1_1703_52167)"/>
<path d="M165.309 139.118C167.58 137.214 171.069 135.645 176.013 137.007C178.374 137.842 180.531 139.736 182.111 141.637C182.898 142.585 183.53 143.52 183.963 144.3C184.12 144.584 184.248 144.843 184.348 145.073C184.272 145.045 184.192 145.016 184.109 144.985C183.372 144.718 182.332 144.361 181.117 144.004C178.696 143.293 175.544 142.571 172.706 142.571L164.635 142.571L162.366 142.571C162.478 142.385 162.615 142.169 162.777 141.931C163.328 141.123 164.165 140.076 165.309 139.118Z" fill="#1D1D1D" stroke="black"/>
<path d="M175.287 138.742C174.546 138.624 173.922 138.375 173.512 138.09C173.071 137.783 173.014 137.544 173.029 137.452C173.043 137.361 173.171 137.151 173.685 136.995C174.162 136.85 174.833 136.806 175.574 136.923C176.316 137.041 176.94 137.29 177.35 137.575C177.791 137.882 177.848 138.121 177.833 138.213C177.819 138.304 177.691 138.514 177.177 138.67C176.7 138.815 176.029 138.859 175.287 138.742Z" fill="white" stroke="black"/>
<path d="M752.44 88.3638C749.317 85.4445 748.546 85.9848 748.546 85.9848V101.19C748.546 101.19 752.599 101.19 751.499 106.263C748.033 111.304 740.109 113.453 734.627 114.356C731.444 114.88 728.887 117.546 728.887 120.773V135.695C728.887 139.009 731.597 141.758 734.879 141.302C753.978 138.653 755.249 123.493 755.249 123.493V97.0337C755.294 96.4532 755.296 95.8744 755.249 95.299C755.047 92.7655 754.275 90.0796 752.44 88.3638Z" fill="#387659" fill-opacity="0.5"/>
<path d="M755.249 95.299C755.047 92.7655 754.275 90.0796 752.44 88.3638C749.317 85.4445 748.546 85.9848 748.546 85.9848V101.19C748.546 101.19 752.599 101.19 751.499 106.263M755.249 95.299V123.493C755.249 123.493 753.978 138.653 734.879 141.302C731.597 141.758 728.887 139.009 728.887 135.695V120.773C728.887 117.546 731.444 114.88 734.627 114.356C740.109 113.453 748.033 111.304 751.499 106.263M755.249 95.299C755.542 98.9576 753.913 102.751 751.499 106.263" stroke="black"/>
<path opacity="0.4" d="M728.887 120.773V135.695C728.887 139.009 731.597 141.758 734.879 141.302C753.978 138.652 755.249 123.493 755.249 123.493V97.0335C755.294 96.453 755.296 95.8743 755.249 95.2988V97.0335C755.011 100.144 753.534 103.303 751.499 106.263C748.033 111.304 740.109 113.452 734.627 114.356C731.444 114.88 728.887 117.546 728.887 120.773Z" fill="#23FFA3" stroke="black"/>
<path d="M595.164 52.1899C595.342 58.15 596.873 58.2854 597.617 57.6081C597.268 58.4874 595.357 60.5011 590.501 61.5215C584.432 62.797 575.844 70.914 573.439 77.2917C571.515 82.3938 569.487 96.6452 568.571 101.747C568.457 99.66 568.672 92.248 569.438 87.148C570.078 82.8925 576.227 50.8354 584.03 44.5141C591.833 38.1929 594.941 44.7399 595.164 52.1899Z" fill="#23FFA3" stroke="black" stroke-width="2"/>
<path d="M571.26 69.4345C569.289 74.7191 568.611 79.7182 569.067 83.5117C569.531 87.3748 571.109 89.6631 573.272 90.181C573.731 90.291 573.95 90.2036 574.089 90.1104C574.286 89.9782 574.548 89.6756 574.815 89.0497C575.353 87.7912 575.676 85.8118 575.966 83.2905C576.058 82.4953 576.145 81.6537 576.236 80.7781C576.705 76.2486 577.269 70.8074 579.001 66.1643C580.743 61.4956 582.467 59.2053 583.461 58.0287C583.072 57.9533 582.582 57.854 581.986 57.7112C580.706 57.4047 579.706 57.3746 578.87 57.5778C578.058 57.7752 577.294 58.2183 576.508 59.047C574.863 60.7811 573.283 64.011 571.26 69.4345ZM584.126 57.2463C584.126 57.2464 584.123 57.2499 584.119 57.2565C584.124 57.2495 584.126 57.2462 584.126 57.2463ZM584.402 58.2238C584.416 58.2298 584.418 58.2294 584.403 58.2242C584.403 58.2241 584.402 58.2239 584.402 58.2238Z" fill="#5942E3" stroke="black" stroke-width="2"/>
<path d="M570.471 68.5063L570.465 68.5224L570.458 68.5383C567.858 74.8459 567.133 79.798 567.561 83.2506C567.746 84.7427 568.138 85.9182 568.662 86.8075C568.646 86.6945 568.631 86.5785 568.618 86.4593C568.291 83.5601 568.716 78.8465 571.504 71.3736C574.109 64.3912 576.752 60.5385 578.825 58.41C579.3 57.9224 579.745 57.5252 580.153 57.202C579.7 57.174 579.274 57.1985 578.871 57.2698C577.888 57.4438 576.947 57.9132 576.012 58.7481C574.088 60.4663 572.285 63.6428 570.471 68.5063Z" fill="#745EFF" stroke="black" stroke-width="2"/>
<path d="M644.416 116.17C646.502 117.2 647.944 120.604 649.46 121.869C652.32 124.256 653.495 124.113 655.08 125.284C656.369 125.987 659.277 129.346 660.385 131.103C661.34 132.615 662.256 136.934 662.025 138.171H648.452C648.616 140.552 648.452 154.706 642.456 160.165C638.159 164.076 628.654 165.227 628.272 160.165C627.912 155.393 631.701 143.281 630.657 139.608C629.949 137.115 626.66 138.171 624.173 137.764H623.161H606.855L601.356 139.608C598.747 140.957 601.356 147.929 606.855 156.249C607.997 157.977 608.971 161.304 606.855 162.245L599.646 163.346L591.582 160.165C591.126 158.577 587.253 155.515 584.084 144.87C583.588 143.204 581.858 140.788 581.309 134.288C581.12 132.049 580.384 124.138 581.309 123.419L582.333 119.259L585.007 120.306C588.115 121.731 590.568 122.667 593.655 123.156C597.514 123.766 603.343 125.15 608.971 125.883C613.446 126.465 619.059 126.694 621.35 126.737C621.381 126.307 621.51 125.843 621.392 126.738C621.378 126.737 621.364 126.737 621.35 126.737C621.322 127.135 621.379 127.505 621.797 126.738C622.882 124.743 622.158 126.616 625.534 125.883C627.245 125.512 627.387 124.445 627.174 123.705C626.888 123.67 626.706 123.581 626.66 123.419C626.422 122.574 626.967 122.984 627.174 123.705C629.315 123.964 637.263 121.175 637.31 122.789C638.851 121.622 642.037 119.028 642.456 117.986C642.874 116.944 644.144 115.965 644.416 116.17Z" fill="#23FFA3"/>
<path d="M620.153 57.8853C616.066 52.3289 613.112 50.3022 610.779 50.2333C612.389 51.9671 610.291 54.0448 607.224 51.7916C604.771 49.9891 601.109 50.3723 599.585 50.7893C599.585 50.7893 603.804 52.4336 601.423 55.645C600.331 56.7676 597.251 58.0332 594.057 55.645C592.117 54.194 588.148 54.6798 586.163 56.9323C586.163 56.9323 589.218 57.5745 588.28 58.5665C587.048 59.8692 584.045 56.1827 581.795 59.7601C581.795 59.7601 583.773 60.1304 583.773 61.5243C580.729 63.256 574.712 70.2904 572.844 77.8695C570.976 85.4486 568.787 92.3435 568.233 100.094C567.735 107.079 572.023 112.583 578.07 116.792C585.628 122.053 599.373 124.466 610.035 125.865C620.698 127.264 628.588 126.642 635.991 123.07C643.66 119.37 646.383 110.101 647.35 106.467C648.124 103.559 648.737 104.785 648.946 105.761C648.686 110.674 651.027 119.31 662.478 114.551C676.79 108.602 684.411 91.4061 685.723 79.5835C687.035 67.7609 683.676 54.0039 667.218 50.828C650.76 47.6521 641.45 58.5057 637.362 60.6168C631.91 63.4327 624.982 64.4506 620.153 57.8853Z" fill="#23FFA3" stroke="#010101" stroke-width="2"/>
<path d="M606.406 90.3809C605.78 93.5753 605.136 98.4332 606.372 102.719C606.984 104.841 608.049 106.796 609.788 108.349C611.526 109.901 613.997 111.106 617.512 111.632C621.975 112.299 625.315 111.842 627.799 110.682C630.269 109.529 631.984 107.637 633.13 105.251C635.451 100.424 635.41 93.6431 634.413 87.3463C633.136 81.874 631.101 78.3678 628.562 76.3029C626.038 74.2498 622.882 73.5144 619.127 73.8561C616.531 74.0921 613.983 75.1775 611.773 77.6768C609.544 80.1988 607.614 84.2148 606.406 90.3809Z" fill="#A8FFDA" stroke="#010101" stroke-width="2"/>
<path d="M607.803 94.7918C606.619 99.6133 609.562 104.481 614.374 105.667C619.185 106.852 624.048 103.907 625.232 99.0857C626.417 94.2642 623.474 89.3961 618.662 88.2107C613.85 87.0253 608.988 89.9703 607.803 94.7918Z" fill="#1E1E1E" stroke="black" stroke-width="2"/>
<path d="M625.898 95.0808C624.603 89.5282 619.434 92.7855 617.232 94.3577C616.637 91.4018 612.564 86.8804 609.776 91.1222C606.29 96.4245 613.343 105.809 613.905 105.88C614.467 105.951 627.516 102.022 625.898 95.0808Z" fill="#E47C84" stroke="black" stroke-width="2"/>
<path d="M648.135 137.621C648.135 142.5 648.664 147.483 644.133 157.968C640.58 166.189 626.424 164.099 628.141 157.968C634.123 136.612 628.141 137.621 628.141 137.621C628.141 137.621 622.272 138.026 610.921 137.621" stroke="black" stroke-width="2"/>
<path d="M587.008 105.83C579.812 103.935 579.721 94.8999 580.799 89.014C582.021 83.9842 584.453 79.2611 594.196 82.2739C603.94 85.2867 603.104 91.0827 601.329 95.3619C599.085 100.77 594.205 107.726 587.008 105.83Z" fill="#745EFF" stroke="#010101" stroke-width="2"/>
<path d="M581.913 98.4545C581.525 96.7869 580.672 96.6465 580.49 97.7076C581.388 102.112 582.125 104.458 587.208 105.422C580.894 102.825 582.525 101.085 581.913 98.4545Z" fill="#010101"/>
<path d="M594.816 99.5155C596.847 99.3383 596.777 101.64 596.418 102.654C593.489 106.036 591.01 106.834 586.119 105.131C592.876 106.03 592.257 99.7388 594.816 99.5155Z" fill="#010101"/>
<path fill-rule="evenodd" clip-rule="evenodd" d="M633.592 61.1791C635.924 60.13 638.201 59.5366 640.562 59.9697C642.927 60.4037 645.202 61.8352 647.603 64.4664L648.909 65.8968L646.995 66.1336C645.939 66.2643 644.823 66.7998 644.092 67.6694C643.392 68.5025 642.994 69.6963 643.414 71.3208C643.7 72.4274 644.225 73.1046 644.814 73.5377C645.42 73.9836 646.16 74.217 646.926 74.3133C647.691 74.4095 648.434 74.3626 648.996 74.2875C649.273 74.2503 649.5 74.2071 649.654 74.174C649.731 74.1575 649.79 74.1436 649.827 74.1343C649.846 74.1297 649.859 74.1263 649.867 74.1243L649.873 74.1227L649.873 74.1225L649.874 74.1224L649.874 74.1224L649.874 74.1223L653.433 73.1346L650.863 75.7847L650.863 75.785L650.863 75.785L650.859 75.7891C650.854 75.7944 650.845 75.8043 650.832 75.8188C650.806 75.8476 650.764 75.8947 650.71 75.9594C650.601 76.0891 650.442 76.2895 650.254 76.5576C649.877 77.0945 649.388 77.8989 648.955 78.9481C648.758 79.4275 648.572 79.9586 648.414 80.5398L648.15 80.3007C647.209 83.343 647.319 85.8744 647.397 87.6913C647.405 87.8836 647.413 88.068 647.419 88.2441C646.895 86.9393 646.01 84.288 647.041 79.2721C647.144 78.77 646.994 78.86 646.705 79.2735C646.831 78.8862 646.967 78.5203 647.108 78.1763C647.395 77.4813 647.704 76.8772 648 76.3682C647.589 76.3749 647.145 76.3574 646.687 76.2999C645.7 76.1758 644.602 75.8591 643.637 75.1501C642.655 74.4284 641.877 73.3463 641.48 71.8142C640.9 69.5723 641.439 67.71 642.562 66.3748C643.223 65.5886 644.068 65.0053 644.964 64.6265C643.223 62.9998 641.675 62.2075 640.211 61.939C638.423 61.611 636.585 62.0311 634.418 63.0062L633.592 61.1791Z" fill="#010101"/>
<path d="M642.485 60.5489C647.255 62.7437 648.395 70.0866 648.395 84.0623C651.596 84.9466 667.911 81.6576 666.321 70.9117C664.731 60.1657 659.628 54.5676 645.833 50.3944C635.235 47.1884 613.347 45.9755 601.024 45.9753C587.961 45.9752 581.908 60.9908 578.727 66.9276C583.788 61.1356 590.713 48.3104 603.154 49.7671C617.009 51.3894 630.665 55.1105 642.485 60.5489Z" fill="#745EFF" stroke="black" stroke-width="2"/>
<path d="M647.726 58.2793C652.782 62.9136 651.873 69.6672 651.873 77.7326C655.074 78.617 667.586 79.7459 666.021 68.9963C663.784 53.6407 652.44 49.1479 638.374 46.0101C625.94 43.2366 618.835 42.7071 604.504 41.8632C590.174 41.0193 582.281 54.0788 575.849 71.0547C575.849 71.0547 585.798 45.3999 601.086 46.0101C613.739 46.5152 639.947 51.1493 647.726 58.2793Z" fill="#745EFF" stroke="black" stroke-width="2"/>
<path d="M673.742 92.429C672.97 98.1197 670.737 102.962 667.803 106.198C664.863 109.44 661.309 110.992 657.83 110.393C654.351 109.794 651.37 107.117 649.424 103.034C647.482 98.9584 646.634 93.5859 647.406 87.8952C648.178 82.2045 650.411 77.3623 653.345 74.1261C656.285 70.8841 659.839 69.3325 663.318 69.9314C666.797 70.5303 669.778 73.2071 671.724 77.2901C673.666 81.3659 674.513 86.7384 673.742 92.429Z" fill="#AFA2FF" stroke="black" stroke-width="2"/>
<path d="M673.773 92.2103C673.046 97.5719 670.958 102.134 668.223 105.183C665.482 108.238 662.183 109.691 658.97 109.138C655.758 108.584 652.994 106.088 651.188 102.25C649.386 98.42 648.603 93.3639 649.33 88.0022C650.058 82.6405 652.145 78.0786 654.88 75.0297C657.622 71.9743 660.921 70.5218 664.133 71.0749C667.346 71.628 670.109 74.1242 671.915 77.9624C673.718 81.7924 674.501 86.8486 673.773 92.2103Z" fill="#5942E3" stroke="black" stroke-width="2"/>
<path d="M674.238 92.0398C673.58 96.8917 671.798 101.031 669.501 103.808C667.192 106.6 664.485 107.888 661.931 107.448C659.377 107.008 657.136 104.868 655.672 101.427C654.216 98.0043 653.612 93.4541 654.271 88.6022C654.929 83.7503 656.711 79.6107 659.008 76.8344C661.318 74.0424 664.024 72.7542 666.578 73.1939C669.132 73.6336 671.373 75.7735 672.837 79.2153C674.293 82.6377 674.897 87.1879 674.238 92.0398Z" fill="#745EFF" stroke="black" stroke-width="2"/>
<path d="M582.054 119.054C580.237 123.624 580.863 138.375 585.671 149.709C588.362 156.052 592.195 162.979 601.359 162.979C619.631 162.979 595.365 147.996 601.359 140.22C604.325 136.371 608.889 137.893 623.049 137.893" stroke="black" stroke-width="2"/>
<path d="M592.663 117.44C588.108 118.682 585.314 115.393 584.568 113.264L596.506 115.388C596.506 115.388 595.707 116.61 592.663 117.44Z" fill="#E47C84" stroke="black" stroke-width="2"/>
<path d="M644.358 115.136C646.624 120.129 653.218 123.381 655.587 125.658C662.765 132.557 662.027 134.898 662.027 138.268L648.519 138.268" stroke="black" stroke-width="2"/>
<path d="M580.55 75.5208C581.116 68.9277 578.309 69.071 576.834 69.9669C573.119 74.9833 566.376 102.334 569.207 103.23C572.038 104.126 575.579 100.94 576.607 97.7141C577.222 95.785 579.842 83.7623 580.55 75.5208Z" fill="#A8FFDA" stroke="black" stroke-width="2"/>
<path d="M571.434 87.655C570.982 89.7907 570.576 91.9486 570.654 93.6682C570.692 94.522 570.847 95.1661 571.098 95.6152C571.325 96.0228 571.657 96.3205 572.212 96.4794C573.421 96.8258 574.415 96.4543 575.246 95.3907C576.118 94.275 576.768 92.4233 577.057 90.007C577.109 89.572 577.162 89.1524 577.214 88.7458C577.314 87.9527 577.408 87.2093 577.476 86.4983C577.579 85.4275 577.613 84.5232 577.528 83.7764C577.444 83.0323 577.252 82.5383 576.98 82.2041C576.721 81.886 576.29 81.5918 575.49 81.4344C574.819 81.3022 574.067 81.6273 573.284 82.7657C572.511 83.8892 571.867 85.6063 571.434 87.655Z" fill="#1E1E1E" stroke="black" stroke-width="2"/>
<path d="M577.983 85.8055C577.658 81.9496 575.031 84.5742 573.902 85.8231C573.774 83.7646 572.076 80.8096 570.528 83.9862C568.593 87.9571 571.453 94.1761 571.716 94.1921C571.979 94.2081 578.388 90.6253 577.983 85.8055Z" fill="#E47C84" stroke="black" stroke-width="2"/>
<path d="M610.815 50.0406C613.188 49.9932 616.709 53.1496 618.172 54.7338L607.374 64.0023C597.842 65.5866 578.464 67.9046 578.464 67.9046C580.202 64.8751 584.305 61.435 584.305 61.435L581.638 59.371C581.638 59.371 584.748 57.8253 587.951 58.5905C590.124 59.1097 585.837 56.9322 586.55 56.5163C591.17 53.8187 591.244 54.7933 595.635 56.5163C599.147 57.8946 601.48 56.0607 602.271 54.7338C602.797 51.1438 600.82 50.639 600.032 50.5784C599.929 50.5761 599.825 50.575 599.721 50.575C599.721 50.575 599.842 50.5638 600.032 50.5784C603.097 50.6451 605.88 51.689 609.094 53.0109C611.752 54.1041 611.349 51.4862 610.815 50.0406Z" fill="#23FFA3"/>
<path d="M620.153 57.8855C616.066 52.3291 613.113 50.3024 610.779 50.2335C612.39 51.9673 610.292 54.045 607.225 51.7919C604.771 49.9893 601.11 50.3726 599.585 50.7895C599.585 50.7895 603.805 52.4338 601.423 55.6452C600.332 56.7678 597.252 58.0334 594.058 55.6452C592.117 54.1942 588.148 54.6801 586.163 56.9325C586.163 56.9325 589.218 57.5747 588.28 58.5667C587.049 59.8694 584.045 56.1829 581.796 59.7604C581.796 59.7604 583.774 60.1306 583.774 61.5245" stroke="#010101" stroke-width="2"/>
<path d="M296.299 121.61C294.673 120.195 290.855 118.436 289.016 114.814C287.126 111.096 288.002 107.705 288.002 105.429C288.002 102.363 285.428 99.875 282.254 99.875C279.079 99.875 276.505 102.363 276.505 105.429C276.505 107.336 276.274 112.347 275.626 114.949C275.429 115.738 275.138 116.16 274.92 116.457C274.082 117.595 271.69 118.909 269.298 117.32C268.621 116.888 268.026 116.123 267.735 115.182C267.12 113.185 267.807 107.392 267.545 104.89C267.543 104.869 267.541 104.848 267.538 104.827C267.495 104.438 267.428 104.097 267.325 103.814C266.609 101.534 264.416 99.875 261.823 99.875C258.648 99.875 256.074 102.363 256.074 105.429C256.074 107.075 256.814 108.552 257.993 109.57C259.619 110.984 263.437 112.744 265.276 116.366C267.164 120.083 266.287 123.474 266.287 125.75C266.287 128.816 268.861 131.304 272.036 131.304C274.442 131.304 276.505 129.874 277.36 127.843C278.726 124.828 276.502 119.535 278.436 115.588C278.815 114.814 279.238 114.422 279.665 114.046C280.556 113.269 283.363 112.398 285.375 114.727C285.887 115.388 286.031 115.896 286.153 116.401C286.667 118.541 286.199 125.304 286.965 127.369C287.683 129.645 289.873 131.3 292.462 131.3C295.636 131.3 298.211 128.812 298.211 125.745C298.211 124.1 297.471 122.622 296.292 121.605L296.299 121.61Z" fill="white"/>
<path d="M251.616 131.307C254.79 131.307 257.364 128.821 257.364 125.752C257.364 122.683 254.79 120.198 251.616 120.198C248.441 120.198 245.867 122.683 245.867 125.752C245.867 128.821 248.441 131.307 251.616 131.307Z" fill="white"/>
<path fill-rule="evenodd" clip-rule="evenodd" d="M310.729 107.728H306.69C306.455 107.728 306.264 107.911 306.264 108.136V130.892C306.264 131.117 306.455 131.3 306.69 131.3H310.729C310.964 131.3 311.155 131.117 311.155 130.892V115.095L316.971 121.378C316.988 121.402 317.008 121.423 317.031 121.443L317.041 121.454L319.16 123.742L319.172 123.754L319.67 124.292C319.847 124.442 320.116 124.425 320.27 124.258L328.751 115.095V130.892C328.751 131.117 328.942 131.3 329.177 131.3H333.216C333.452 131.3 333.642 131.117 333.642 130.892V108.136C333.642 107.911 333.452 107.728 333.216 107.728H329.177C329.012 107.728 328.869 107.818 328.798 107.95L320.368 117.136C320.181 117.339 319.855 117.339 319.665 117.139L311.128 107.984C311.126 107.982 311.124 107.98 311.122 107.978C311.057 107.831 310.906 107.728 310.729 107.728Z" fill="white"/>
<path d="M346.932 111.655C341.373 111.655 336.866 116.052 336.866 121.476C336.866 126.901 341.373 131.298 346.932 131.298C352.492 131.298 356.998 126.901 356.998 121.476C356.998 116.052 352.492 111.655 346.932 111.655ZM346.932 126.803C343.918 126.803 341.472 124.417 341.472 121.476C341.472 118.535 343.918 116.149 346.932 116.149C349.947 116.149 352.392 118.535 352.392 121.476C352.392 124.417 349.947 126.803 346.932 126.803Z" fill="white"/>
<path d="M386.537 111.655C384.552 111.655 382.705 112.223 381.155 113.197V112.07C381.155 111.846 380.966 111.662 380.735 111.662H376.746C376.515 111.662 376.325 111.846 376.325 112.07V134.818C376.325 135.043 376.515 135.227 376.746 135.227H380.735C380.966 135.227 381.155 135.043 381.155 134.818V129.377C382.705 130.351 384.552 130.92 386.537 130.92C392.016 130.92 396.458 126.608 396.458 121.288C396.458 115.969 392.016 111.657 386.537 111.657V111.655ZM386.537 126.51C383.568 126.51 381.16 124.177 381.155 121.295V121.274C381.16 118.395 383.568 116.06 386.537 116.06C389.505 116.06 391.918 118.399 391.918 121.283C391.918 124.168 389.507 126.507 386.537 126.507V126.51Z" fill="white"/>
<path d="M372.536 111.657H369.763C364.491 111.657 360.22 115.631 360.22 120.53V128.505C360.22 128.505 360.22 128.517 360.22 128.522V130.882C360.22 131.111 360.422 131.298 360.668 131.298H364.916C365.162 131.298 365.363 131.111 365.363 130.882V120.177C365.363 117.596 367.613 115.502 370.392 115.502H372.696C372.937 115.502 373.105 115.322 373.105 115.124V112.183C373.105 111.891 372.851 111.655 372.536 111.655V111.657Z" fill="white"/>
<path d="M408.736 110.532C407.189 110.532 405.732 110.914 404.46 111.586V106.565C404.46 106.34 404.272 106.156 404.044 106.156H400.098C399.869 106.156 399.682 106.34 399.682 106.565V119.293C399.682 119.339 399.679 119.384 399.679 119.427V126.497H399.682V129.32C399.682 129.545 399.869 129.729 400.098 129.729H404.044C404.272 129.729 404.46 129.545 404.46 129.32V119.253C404.46 117.136 406.206 115.156 408.352 114.97C410.887 114.753 413.016 116.709 413.016 119.155V129.33C413.016 129.549 413.196 129.726 413.419 129.726H417.392C417.616 129.726 417.798 129.547 417.798 129.327V119.425C417.798 114.511 413.743 110.53 408.739 110.53L408.736 110.532Z" fill="white"/>
<path d="M522.485 124.067C522.485 125.379 522.167 126.52 521.53 127.489C520.894 128.458 519.965 129.205 518.743 129.73C517.53 130.255 516.056 130.517 514.318 130.517C513.551 130.517 512.798 130.467 512.061 130.366C511.334 130.265 510.631 130.118 509.955 129.927C509.288 129.725 508.652 129.477 508.046 129.185V124.824C509.096 125.289 510.187 125.707 511.318 126.081C512.45 126.454 513.571 126.641 514.682 126.641C515.45 126.641 516.066 126.54 516.53 126.338C517.005 126.136 517.349 125.859 517.561 125.506C517.773 125.152 517.879 124.749 517.879 124.294C517.879 123.739 517.692 123.265 517.318 122.871C516.945 122.478 516.429 122.109 515.773 121.766C515.126 121.423 514.394 121.054 513.576 120.661C513.061 120.418 512.5 120.126 511.894 119.783C511.288 119.429 510.712 119 510.167 118.496C509.621 117.991 509.172 117.38 508.818 116.664C508.475 115.937 508.303 115.069 508.303 114.059C508.303 112.737 508.606 111.607 509.212 110.668C509.818 109.729 510.682 109.013 511.803 108.518C512.935 108.013 514.268 107.761 515.803 107.761C516.955 107.761 518.051 107.897 519.091 108.17C520.142 108.432 521.237 108.816 522.379 109.32L520.864 112.969C519.844 112.555 518.929 112.238 518.121 112.015C517.313 111.783 516.49 111.667 515.652 111.667C515.066 111.667 514.566 111.763 514.152 111.955C513.738 112.137 513.424 112.399 513.212 112.742C513 113.075 512.894 113.464 512.894 113.908C512.894 114.433 513.046 114.877 513.349 115.24C513.662 115.594 514.126 115.937 514.743 116.27C515.369 116.603 516.147 116.992 517.076 117.436C518.207 117.971 519.172 118.531 519.97 119.116C520.778 119.692 521.399 120.373 521.833 121.16C522.268 121.938 522.485 122.907 522.485 124.067Z" fill="white"/>
<path d="M499.036 111.667C498.137 111.667 497.339 111.844 496.642 112.197C495.955 112.54 495.374 113.04 494.9 113.696C494.435 114.352 494.081 115.144 493.839 116.073C493.597 117.002 493.475 118.046 493.475 119.207C493.475 120.772 493.667 122.109 494.051 123.219C494.445 124.32 495.051 125.162 495.869 125.748C496.688 126.323 497.743 126.611 499.036 126.611C499.935 126.611 500.834 126.51 501.733 126.308C502.642 126.106 503.627 125.819 504.688 125.445V129.382C503.708 129.785 502.743 130.073 501.794 130.245C500.844 130.426 499.778 130.517 498.597 130.517C496.314 130.517 494.435 130.048 492.96 129.109C491.496 128.16 490.41 126.838 489.703 125.142C488.996 123.436 488.642 121.448 488.642 119.177C488.642 117.501 488.869 115.967 489.324 114.574C489.778 113.181 490.445 111.975 491.324 110.956C492.203 109.936 493.289 109.149 494.581 108.594C495.874 108.039 497.359 107.761 499.036 107.761C500.137 107.761 501.238 107.902 502.339 108.185C503.45 108.457 504.511 108.836 505.521 109.32L504.006 113.136C503.177 112.742 502.344 112.399 501.506 112.106C500.667 111.814 499.844 111.667 499.036 111.667Z" fill="white"/>
<path d="M485.031 119.114C485.031 120.819 484.819 122.374 484.394 123.777C483.97 125.17 483.324 126.371 482.455 127.38C481.596 128.39 480.506 129.167 479.182 129.712C477.859 130.247 476.293 130.514 474.485 130.514C472.677 130.514 471.112 130.247 469.788 129.712C468.465 129.167 467.369 128.39 466.501 127.38C465.642 126.371 465.001 125.165 464.576 123.762C464.152 122.359 463.94 120.799 463.94 119.083C463.94 116.792 464.314 114.799 465.061 113.103C465.819 111.397 466.98 110.075 468.546 109.136C470.112 108.197 472.102 107.728 474.516 107.728C476.92 107.728 478.894 108.197 480.44 109.136C481.995 110.075 483.147 111.397 483.894 113.103C484.652 114.809 485.031 116.812 485.031 119.114ZM468.864 119.114C468.864 120.658 469.056 121.99 469.44 123.111C469.834 124.221 470.445 125.079 471.273 125.685C472.102 126.28 473.172 126.578 474.485 126.578C475.819 126.578 476.899 126.28 477.728 125.685C478.556 125.079 479.157 124.221 479.531 123.111C479.915 121.99 480.107 120.658 480.107 119.114C480.107 116.792 479.672 114.965 478.804 113.633C477.935 112.3 476.506 111.634 474.516 111.634C473.192 111.634 472.112 111.937 471.273 112.543C470.445 113.138 469.834 113.996 469.44 115.117C469.056 116.227 468.864 117.559 468.864 119.114Z" fill="white"/>
<path d="M460.334 118.94C460.334 121.433 459.854 123.518 458.894 125.193C457.945 126.859 456.566 128.115 454.758 128.963C452.95 129.801 450.773 130.22 448.228 130.22H441.955V108.084H448.909C451.233 108.084 453.248 108.498 454.955 109.326C456.662 110.144 457.985 111.36 458.924 112.975C459.864 114.58 460.334 116.568 460.334 118.94ZM455.455 119.061C455.455 117.426 455.212 116.084 454.728 115.034C454.253 113.974 453.546 113.192 452.606 112.687C451.677 112.182 450.526 111.93 449.152 111.93H446.652V126.344H448.667C450.96 126.344 452.662 125.733 453.773 124.512C454.894 123.291 455.455 121.474 455.455 119.061Z" fill="white"/>
<path d="M429.874 104.182L429.874 133.254" stroke="white" stroke-width="8"/>
</g>
<defs>
<linearGradient id="paint0_linear_1703_52167" x1="453.35" y1="234.962" x2="453.35" y2="-41.0457" gradientUnits="userSpaceOnUse">
<stop stop-color="#664EF1"/>
<stop offset="0.389062" stop-color="#3A2E83"/>
<stop offset="1" stop-color="#17132B"/>
</linearGradient>
<linearGradient id="paint1_linear_1703_52167" x1="57.6724" y1="208.482" x2="72.3973" y2="175.347" gradientUnits="userSpaceOnUse">
<stop offset="0.26" stop-color="#40F0C1"/>
<stop offset="1" stop-color="#BFFD3E"/>
</linearGradient>
<linearGradient id="paint2_linear_1703_52167" x1="50.5426" y1="206.056" x2="61.682" y2="175.333" gradientUnits="userSpaceOnUse">
<stop stop-color="#40F0C1"/>
<stop offset="1" stop-color="#BFFD3E"/>
</linearGradient>
<linearGradient id="paint3_linear_1703_52167" x1="732.1" y1="70.4812" x2="744.561" y2="54.3148" gradientUnits="userSpaceOnUse">
<stop offset="0.26" stop-color="#40F0C1"/>
<stop offset="1" stop-color="#BFFD3E"/>
</linearGradient>
<linearGradient id="paint4_linear_1703_52167" x1="729.039" y1="68.6067" x2="739.262" y2="52.7993" gradientUnits="userSpaceOnUse">
<stop stop-color="#40F0C1"/>
<stop offset="1" stop-color="#BFFD3E"/>
</linearGradient>
</defs>
</svg>
