
<svg width="500" height="500" viewBox="0 0 500 500" fill="none" xmlns="http://www.w3.org/2000/svg">
<rect width="500" height="500" fill="#745EFF"/>
<path d="M140.279 378.689L206.605 379.789L205.077 419.726L138.889 417.655L140.279 378.689Z" fill="#EBFF00"/>
<path d="M140.279 378.689L206.605 379.789M140.279 378.689L138.889 417.655L205.077 419.726L206.605 379.789M140.279 378.689L173.77 398.962L206.605 379.789" stroke="black" stroke-width="2"/>
<rect x="-1.5" y="1.5" width="346.305" height="231.94" rx="17.5" transform="matrix(-1 0 0 1 428.176 135.491)" fill="#332E63" stroke="black" stroke-width="3"/>
<path d="M324.039 154.767H89.1769C79.5119 154.767 71.6769 162.602 71.6769 172.267V333.19C71.6769 342.196 78.9773 349.496 87.9827 349.496H325.233C334.239 349.496 341.539 342.196 341.539 333.19V172.267C341.539 162.602 333.704 154.767 324.039 154.767Z" fill="#5942E3" stroke="black" stroke-width="3"/>
<path d="M319.637 343.447C327.836 343.447 334.573 337.187 335.328 329.186H65.6067C66.3621 337.187 73.0987 343.447 81.2974 343.447H319.637ZM65.5363 326.186H335.398V172.267C335.398 162.602 327.563 154.767 317.898 154.767H83.0363C73.3713 154.767 65.5363 162.602 65.5363 172.267V326.186Z" fill="#AFA2FF" stroke="black" stroke-width="3"/>
<path d="M306.738 376.666V344.397H300.606C300.376 355.613 300.607 369.964 300.607 376.666C300.607 392.186 313.732 392.008 318.231 392.186H354.423C367.72 392.186 370.393 382.022 370.716 376.666V346.106H365.044C365.257 353.055 365.555 368.895 365.044 376.666C364.533 384.437 358.044 386.672 354.423 386.817C346.885 387.039 329.093 387.35 318.231 386.817C308.221 386.327 306.738 380.967 306.738 376.666Z" fill="#AFA2FF" stroke="black" stroke-width="2"/>
<path d="M54.4308 256.829C57.6157 253.037 64.1829 251.632 64.1829 251.632V271.385C64.1829 271.385 53.4398 272.637 54.4308 280.514C58.0082 287.14 66.2411 289.919 71.8387 291.068C74.976 291.712 77.4977 294.373 77.4977 297.576V320.542C77.4977 323.856 74.7788 326.617 71.5132 326.055C51.9074 322.676 50.605 302.897 50.605 302.897V268.524C50.5595 267.77 50.558 267.018 50.605 266.271C50.8119 262.98 51.9588 259.772 54.4308 256.829Z" fill="#387659" fill-opacity="0.5"/>
<path d="M50.605 266.271C50.8119 262.98 51.9588 259.772 54.4308 256.829C57.6157 253.037 64.1829 251.632 64.1829 251.632V271.385C64.1829 271.385 53.4398 272.637 54.4308 280.514M50.605 266.271V302.897C50.605 302.897 51.9074 322.676 71.5132 326.055C74.7788 326.617 77.4977 323.856 77.4977 320.542V297.576C77.4977 294.373 74.976 291.712 71.8387 291.068C66.2411 289.919 58.0082 287.14 54.4308 280.514M50.605 266.271C50.3062 271.024 51.9679 275.952 54.4308 280.514" stroke="black"/>
<g opacity="0.4">
<path d="M77.4977 297.575V320.542C77.4977 323.856 74.7788 326.617 71.5132 326.054C51.9074 322.676 50.605 302.897 50.605 302.897V268.524C50.5595 267.77 50.558 267.018 50.605 266.271V268.524C50.8487 272.564 52.3552 276.669 54.4308 280.513C58.0082 287.14 66.2411 289.918 71.8387 291.067C74.976 291.711 77.4977 294.373 77.4977 297.575Z" fill="#23FFA3"/>
<path d="M50.605 302.897C50.605 302.897 51.9074 322.676 71.5132 326.054C74.7788 326.617 77.4977 323.856 77.4977 320.542V297.575C77.4977 294.373 74.976 291.711 71.8387 291.067C66.2411 289.918 58.0082 287.14 54.4308 280.513C51.9679 275.951 50.3062 271.023 50.605 266.271V302.897Z" stroke="black"/>
</g>
<path d="M422.961 323.232L417.623 325.669C411.53 328.626 337.746 208.199 372.19 207.855C406.635 207.511 419.615 219.287 422.961 229.238V323.232Z" fill="#745EFF" stroke="black" stroke-width="2"/>
<path d="M416.567 325.669L388.215 324.343C355.576 287.134 297.211 218.764 342.958 209.991C388.705 201.218 409.41 216.334 416.567 230.086V325.669Z" fill="#5942E3" stroke="black" stroke-width="2"/>
<path d="M391.664 347.321V301.288L326.681 304.557L326.68 350.737C334.367 364.604 388.954 360.103 391.664 347.321Z" fill="#5942E3" stroke="black" stroke-width="2"/>
<path d="M357.169 335.672H349.536L316.664 211.297C373.179 201.022 401.273 220.382 409.05 230.86V320.941L357.169 335.672Z" fill="#745EFF" stroke="black" stroke-width="2"/>
<path d="M365.068 224.908V339.573L356.765 343.295H294.606L278.016 227.638C307.394 200.428 342.546 204.757 365.068 224.908Z" fill="#5942E3" stroke="black" stroke-width="2"/>
<path d="M355.701 227.862V343.296H277.844V227.862C307.223 200.652 341.989 216.524 355.701 227.862Z" fill="#745EFF" stroke="black" stroke-width="2"/>
<path d="M347.408 233.984V343.295H284.281V233.984C308.102 208.217 336.291 223.248 347.408 233.984Z" fill="#745EFF" stroke="black" stroke-width="2"/>
<path d="M284.281 249.146H345.437V269.612H284.281V249.146Z" fill="#745EFF" stroke="black" stroke-width="2"/>
<path d="M289.465 254.639H340.257V264.117H289.465V254.639Z" fill="#332E63" stroke="black" stroke-width="2"/>
<path d="M334.542 279.896C334.653 269.624 339.125 260.028 339.125 260.028H290.406C286.953 262.548 284.884 274.323 284.28 279.896H334.542Z" fill="#AFA2FF" stroke="black" stroke-width="2"/>
<path fill-rule="evenodd" clip-rule="evenodd" d="M328.975 267.183H330.582V270.094H328.975V267.183ZM308.5 267.183H310.107V270.094H308.5V267.183ZM320.342 267.183H318.735V270.094H320.342V267.183ZM298.255 267.183H299.862V270.094H298.255V267.183ZM327.166 267.183H325.559V270.094H327.166V267.183ZM305.084 267.183H306.69V270.094H305.084V267.183ZM316.926 267.183H315.319V270.094H316.926V267.183ZM294.848 267.183H296.455V270.094H294.848V267.183ZM323.759 267.183H322.152V270.094H323.759V267.183ZM301.667 267.183H303.274V270.094H301.667V267.183ZM313.519 267.183H311.912V270.094H313.519V267.183ZM291.432 267.183H293.039V270.094H291.432V267.183Z" fill="#383838"/>
<path d="M308.767 322.796H322.925C325.003 322.796 326.688 324.481 326.688 326.559C326.688 328.637 325.003 330.321 322.925 330.321H308.767C306.689 330.321 305.004 328.637 305.004 326.559C305.004 324.481 306.689 322.796 308.767 322.796Z" fill="#23FFA3" stroke="black" stroke-width="2"/>
<path d="M293.141 349.012V343.295H338.559V349.012H293.141Z" fill="#5942E3" stroke="black" stroke-width="2"/>
<path d="M376.774 259.253L376.729 259.244H376.682C374.691 259.244 372.784 257.794 371.347 255.221C369.919 252.665 369.02 249.1 369.02 245.135C369.02 241.17 369.919 237.605 371.347 235.049C372.784 232.476 374.691 231.026 376.682 231.026H376.725L376.768 231.018C379.362 230.564 381.355 230.745 382.889 231.354C384.417 231.96 385.531 233.006 386.345 234.364C387.993 237.112 388.395 241.105 388.395 245.135C388.395 249.159 387.941 253.178 386.267 255.94C385.439 257.306 384.317 258.356 382.8 258.957C381.278 259.561 379.313 259.73 376.774 259.253Z" fill="#5942E3" stroke="black"/>
<path d="M389.61 245.135C389.61 249.1 388.711 252.665 387.283 255.221C385.845 257.793 383.939 259.244 381.948 259.244C379.956 259.244 378.05 257.793 376.612 255.221C375.184 252.665 374.285 249.1 374.285 245.135C374.285 241.169 375.184 237.604 376.612 235.048C378.05 232.476 379.956 231.025 381.948 231.025C383.939 231.025 385.845 232.476 387.283 235.048C388.711 237.604 389.61 241.169 389.61 245.135Z" fill="#745EFF" stroke="black"/>
<path d="M378.137 248.414V177.92C378.137 171.603 385.813 172.409 386.068 178.261V248.414C385.594 253.724 378.475 252.923 378.137 248.414Z" fill="#5942E3" stroke="black"/>
<path d="M380.723 248.414V177.92C380.723 171.603 386.235 172.409 386.418 178.261V248.414C386.078 253.724 380.965 252.923 380.723 248.414Z" fill="#745EFF" stroke="black"/>
<path d="M394.811 175.029C392.45 176.265 386.518 176.059 383.848 175.029V202.156C386.939 202.765 394.051 203.392 397.761 201.031C401.472 198.67 407.741 199.298 410.411 199.907V175.029C408.444 172.077 397.761 173.483 394.811 175.029Z" fill="#745EFF" stroke="black"/>
<mask id="mask0_1208_22422" style="mask-type:luminance" maskUnits="userSpaceOnUse" x="390" y="183" width="17" height="11">
<path d="M406.868 183.05H390.121V193.423H406.868V183.05Z" fill="white"/>
</mask>
<g mask="url(#mask0_1208_22422)">
<path d="M405.549 189.909C405.052 189.463 403.886 188.908 403.324 187.766C402.747 186.594 403.014 185.524 403.014 184.807C403.014 183.84 402.228 183.056 401.258 183.056C400.289 183.056 399.502 183.84 399.502 184.807C399.502 185.408 399.432 186.988 399.234 187.808C399.174 188.057 399.085 188.19 399.018 188.284C398.762 188.643 398.032 189.057 397.301 188.556C397.094 188.42 396.912 188.179 396.824 187.882C396.636 187.252 396.846 185.426 396.766 184.637C396.765 184.63 396.764 184.624 396.763 184.617C396.75 184.494 396.73 184.387 396.698 184.298C396.48 183.579 395.81 183.056 395.018 183.056C394.048 183.056 393.262 183.84 393.262 184.807C393.262 185.326 393.488 185.792 393.848 186.112C394.344 186.558 395.511 187.113 396.073 188.255C396.649 189.427 396.381 190.497 396.381 191.214C396.381 192.181 397.168 192.965 398.137 192.965C398.872 192.965 399.502 192.514 399.764 191.874C400.181 190.923 399.502 189.254 400.092 188.01C400.208 187.766 400.337 187.642 400.468 187.524C400.74 187.279 401.597 187.004 402.212 187.739C402.368 187.947 402.412 188.107 402.45 188.266C402.607 188.941 402.464 191.073 402.698 191.725C402.917 192.442 403.586 192.964 404.377 192.964C405.346 192.964 406.133 192.179 406.133 191.213C406.133 190.694 405.907 190.228 405.547 189.907L405.549 189.909Z" fill="url(#paint0_linear_1208_22422)"/>
<path d="M391.893 192.966C392.862 192.966 393.649 192.182 393.649 191.214C393.649 190.247 392.862 189.463 391.893 189.463C390.923 189.463 390.137 190.247 390.137 191.214C390.137 192.182 390.923 192.966 391.893 192.966Z" fill="url(#paint1_linear_1208_22422)"/>
</g>
<path d="M310.129 171.983L362.42 164.096L366.655 193.96L314.341 201.107L310.129 171.983Z" fill="#EBFF00"/>
<path d="M310.129 171.983L362.42 164.096M310.129 171.983L314.341 201.107L366.655 193.96L362.42 164.096M310.129 171.983L339.218 182.646L362.42 164.096" stroke="black" stroke-width="2"/>
<path d="M438.366 237.333C432.343 231.71 430.856 232.751 430.856 232.751V262.04C430.856 262.04 438.674 262.04 436.552 271.812C428.622 283.329 408.595 287.008 398.678 288.143C395.473 288.51 392.933 291.182 392.933 294.408V334.063C392.933 337.377 395.651 340.088 398.957 339.868C441.093 337.067 443.786 305.002 443.786 305.002V254.034C443.872 252.916 443.875 251.801 443.786 250.692C443.395 245.812 441.906 240.639 438.366 237.333Z" fill="#387659" fill-opacity="0.5"/>
<path d="M443.786 250.692C443.395 245.812 441.906 240.639 438.366 237.333C432.343 231.71 430.856 232.751 430.856 232.751V262.04C430.856 262.04 438.674 262.04 436.552 271.812M443.786 250.692V305.002C443.786 305.002 441.093 337.067 398.957 339.868C395.651 340.088 392.933 337.377 392.933 334.063V294.408C392.933 291.182 395.473 288.51 398.678 288.143C408.595 287.008 428.622 283.329 436.552 271.812M443.786 250.692C444.351 257.74 441.209 265.047 436.552 271.812" stroke="black"/>
<g opacity="0.4">
<path d="M392.933 294.408V334.063C392.933 337.377 395.651 340.088 398.957 339.868C441.093 337.067 443.786 305.002 443.786 305.002V254.034C443.872 252.916 443.875 251.801 443.786 250.692V254.034C443.325 260.025 440.476 266.111 436.552 271.812C428.622 283.329 408.595 287.008 398.678 288.143C395.473 288.51 392.933 291.182 392.933 294.408Z" fill="#23FFA3"/>
<path d="M443.786 305.002C443.786 305.002 441.093 337.067 398.957 339.868C395.651 340.088 392.933 337.377 392.933 334.063V294.408C392.933 291.182 395.473 288.51 398.678 288.143C408.595 287.008 428.622 283.329 436.552 271.812C441.209 265.047 444.351 257.74 443.786 250.692V305.002Z" stroke="black"/>
</g>
<path d="M128.122 177.689C128.467 189.17 131.42 189.431 132.853 188.126C132.181 189.82 128.494 193.698 119.128 195.664C107.421 198.121 90.8542 213.757 86.2154 226.042C82.5044 235.87 78.5921 263.321 76.825 273.149C76.6041 269.129 77.0201 254.851 78.4979 245.027C79.7311 236.83 91.5931 175.08 106.645 162.903C121.697 150.727 127.692 163.338 128.122 177.689Z" fill="#23FFA3" stroke="black" stroke-width="2"/>
<path d="M81.1065 210.69C77.2652 220.973 75.9266 230.743 76.8255 238.21C77.7327 245.746 80.857 250.611 85.5659 251.738C86.6622 252 87.4024 251.825 87.9733 251.442C88.6022 251.021 89.207 250.227 89.7545 248.947C90.8525 246.38 91.485 242.438 92.0419 237.603C92.2206 236.052 92.3906 234.416 92.5668 232.72C93.4741 223.991 94.5491 213.648 97.8456 204.823C101.594 194.79 105.276 190.579 106.953 188.66C107.039 188.561 107.12 188.469 107.196 188.381C107.21 188.365 107.224 188.349 107.237 188.334C106.987 188.281 106.661 188.219 106.236 188.137L106.228 188.136C105.428 187.983 104.369 187.778 103.024 187.456C100.471 186.846 98.3689 186.758 96.5368 187.203C94.7287 187.642 93.0765 188.625 91.4433 190.344C88.1042 193.858 84.9997 200.269 81.1065 210.69ZM107.845 188.498C107.845 188.498 107.845 188.498 107.843 188.497C107.844 188.498 107.845 188.498 107.845 188.498Z" fill="#5942E3" stroke="black" stroke-width="2"/>
<path d="M79.5874 208.902L79.5814 208.918L79.5749 208.934C74.522 221.175 73.0764 230.871 73.9253 237.709C74.552 242.759 76.4035 246.143 78.8742 247.949C78.4613 246.845 78.083 245.394 77.8714 243.519C77.2604 238.105 78.0406 229.167 83.3874 214.857C88.3827 201.488 93.4188 194.201 97.2871 190.234C98.9351 188.544 100.372 187.456 101.501 186.761C99.7397 186.374 98.118 186.329 96.609 186.595C94.482 186.971 92.4844 187.984 90.5543 189.705C86.6401 193.196 83.0939 199.516 79.5874 208.902Z" fill="#745EFF" stroke="black" stroke-width="2"/>
<path d="M223.126 300.933C227.15 302.916 229.931 309.474 232.855 311.91C238.372 316.508 240.638 316.233 243.697 318.489C246.182 319.842 251.792 326.314 253.93 329.696C255.771 332.609 257.539 340.928 257.093 343.312H230.912C231.228 347.898 230.912 375.162 219.344 385.678C211.056 393.212 192.72 395.428 191.983 385.678C191.289 376.485 198.598 353.155 196.584 346.08C195.218 341.278 188.874 343.312 184.077 342.528H182.124H150.67L140.064 346.08C135.029 348.678 140.064 362.108 150.67 378.135C152.873 381.464 154.751 387.873 150.67 389.685L136.764 391.806L121.209 385.678C120.33 382.62 112.858 376.721 106.745 356.215C105.789 353.007 102.451 348.353 101.392 335.832C101.027 331.519 99.6085 316.281 101.392 314.896L103.368 306.882L108.525 308.9C114.521 311.644 119.253 313.447 125.208 314.388C132.652 315.564 143.896 318.23 154.751 319.642C163.384 320.764 174.212 321.204 178.632 321.287C178.691 320.459 178.94 319.566 178.712 321.288C178.685 321.288 178.659 321.287 178.632 321.287C178.577 322.055 178.687 322.767 179.493 321.288C181.586 317.446 180.189 321.053 186.703 319.642C190.002 318.927 190.277 316.872 189.867 315.446C189.314 315.38 188.962 315.207 188.874 314.896C188.415 313.267 189.466 314.058 189.867 315.446C193.995 315.946 209.327 310.573 209.418 313.682C212.391 311.435 218.537 306.437 219.344 304.43C220.15 302.423 222.601 300.538 223.126 300.933Z" fill="#23FFA3"/>
<path d="M176.324 188.66C168.44 177.957 162.743 174.053 158.242 173.92C161.348 177.26 157.301 181.262 151.385 176.922C146.652 173.45 139.589 174.188 136.649 174.991C136.649 174.991 144.788 178.159 140.194 184.345C138.088 186.507 132.147 188.945 125.986 184.345C122.243 181.55 114.586 182.485 110.758 186.824C110.758 186.824 116.65 188.061 114.841 189.972C112.465 192.481 106.671 185.38 102.333 192.271C102.333 192.271 106.148 192.985 106.148 195.67C100.275 199.005 88.6689 212.555 85.066 227.155C81.4631 241.754 77.239 255.035 76.1717 269.965C75.2098 283.421 83.4828 294.022 95.1466 302.129C109.726 312.263 136.24 316.912 156.808 319.607C177.375 322.302 192.596 321.102 206.875 314.223C221.67 307.094 226.923 289.241 228.788 282.24C230.28 276.64 231.462 279.001 231.867 280.882C231.364 290.345 235.881 306.98 257.968 297.812C285.578 286.353 300.279 253.23 302.81 230.456C305.34 207.683 298.86 181.183 267.113 175.066C235.366 168.948 217.407 189.855 209.521 193.922C199.003 199.346 185.64 201.306 176.324 188.66Z" fill="#23FFA3" stroke="#010101" stroke-width="2"/>
<path d="M148.893 251.077C147.681 257.253 146.398 266.797 148.846 275.277C150.065 279.496 152.2 283.426 155.71 286.556C159.218 289.685 164.162 292.071 171.09 293.105C179.824 294.408 186.464 293.531 191.465 291.199C196.453 288.873 199.903 285.057 202.194 280.3C206.801 270.73 206.678 257.416 204.743 245.232C202.254 234.558 198.25 227.576 193.131 223.419C188.026 219.272 181.677 217.827 174.259 218.501C169.028 218.976 163.889 221.17 159.462 226.17C155.016 231.193 151.242 239.102 148.893 251.077Z" fill="#A8FFDA" stroke="#010101" stroke-width="2"/>
<circle cx="19.2402" cy="19.2402" r="18.2402" transform="matrix(-0.971046 -0.238893 -0.238893 0.971046 192.59 249.8)" fill="#1E1E1E" stroke="black" stroke-width="2"/>
<path d="M187.409 260.308C184.911 249.613 174.941 255.887 170.693 258.916C169.546 253.222 161.689 244.513 156.31 252.683C149.586 262.897 163.191 280.973 164.275 281.11C165.359 281.247 190.532 273.678 187.409 260.308Z" fill="#E47C84" stroke="black" stroke-width="2"/>
<path d="M230.3 342.252C230.3 351.649 231.322 361.248 222.581 381.444C215.727 397.28 188.421 393.255 191.734 381.444C203.272 340.307 191.734 342.252 191.734 342.252C191.734 342.252 180.411 343.032 158.516 342.252" stroke="black" stroke-width="2"/>
<path d="M112.39 281.014C98.5079 277.363 98.3337 259.959 100.413 248.622C102.769 238.933 107.461 229.835 126.256 235.638C145.051 241.442 143.438 252.606 140.014 260.849C135.687 271.267 126.272 284.665 112.39 281.014Z" fill="#745EFF" stroke="#010101" stroke-width="2"/>
<path d="M102.557 266.807C101.808 263.595 100.164 263.324 99.813 265.368C101.544 273.853 102.966 278.371 112.772 280.228C100.591 275.226 103.738 271.873 102.557 266.807Z" fill="#010101"/>
<path d="M127.448 268.851C131.365 268.509 131.229 272.944 130.537 274.897C124.888 281.41 120.104 282.949 110.67 279.667C123.705 281.399 122.511 269.281 127.448 268.851Z" fill="#010101"/>
<path fill-rule="evenodd" clip-rule="evenodd" d="M202.64 195.852C207.061 193.864 211.249 192.8 215.535 193.584C219.826 194.37 224.042 196.975 228.593 201.955L229.899 203.386L227.983 203.623C225.744 203.9 223.37 205.03 221.792 206.904C220.245 208.742 219.412 211.352 220.295 214.767C220.898 217.096 222.027 218.588 223.345 219.556C224.681 220.536 226.274 221.024 227.854 221.222C229.433 221.42 230.951 221.322 232.083 221.17C232.646 221.095 233.108 221.007 233.425 220.939C233.584 220.905 233.706 220.876 233.787 220.856C233.827 220.846 233.857 220.838 233.876 220.833L233.895 220.828L233.898 220.827L233.899 220.827L233.899 220.827L233.899 220.827L237.46 219.839L234.887 222.49L234.887 222.49L234.887 222.49L234.886 222.491L234.885 222.492L234.872 222.506C234.858 222.52 234.837 222.543 234.808 222.575C234.75 222.639 234.662 222.739 234.55 222.873C234.325 223.141 234.001 223.548 233.622 224.088C232.863 225.168 231.883 226.778 231.019 228.872C229.986 231.375 229.115 234.577 228.989 238.407C228.676 241.399 228.787 243.983 228.876 246.075C228.892 246.446 228.908 246.801 228.92 247.14C228.024 244.911 226.581 240.643 227.654 232.968C228.049 231.15 228.584 229.524 229.172 228.101C230.027 226.028 230.99 224.391 231.785 223.223C230.618 223.346 229.154 223.401 227.614 223.208C225.813 222.983 223.861 222.412 222.168 221.168C220.457 219.912 219.074 218.016 218.361 215.262C217.318 211.229 218.292 207.95 220.262 205.61C221.763 203.828 223.81 202.624 225.898 202.016C222.018 198.096 218.544 196.169 215.184 195.554C211.47 194.874 207.721 195.765 203.464 197.679L202.64 195.852Z" fill="#010101"/>
<path d="M219.403 193.79C228.604 198.018 230.803 212.162 230.803 239.083C236.979 240.787 268.449 234.451 265.382 213.752C262.316 193.052 252.472 182.269 225.861 174.23C205.417 168.054 163.197 165.718 139.425 165.718C114.225 165.718 102.551 194.641 96.4141 206.077C106.177 194.92 119.535 170.216 143.533 173.022C170.259 176.147 196.602 183.314 219.403 193.79Z" fill="#745EFF" stroke="black" stroke-width="2"/>
<path d="M229.513 189.419C239.266 198.346 237.513 211.355 237.513 226.891C243.688 228.595 267.824 230.769 264.804 210.063C260.49 180.484 238.607 171.83 211.473 165.785C187.489 160.443 173.783 159.423 146.14 157.797C118.496 156.172 103.27 181.328 90.8633 214.028C90.8633 214.028 110.055 164.61 139.545 165.785C163.954 166.758 214.508 175.685 229.513 189.419Z" fill="#745EFF" stroke="black" stroke-width="2"/>
<path d="M280.611 255.358C279.101 266.476 274.728 275.98 268.931 282.365C263.129 288.755 255.988 291.943 248.877 290.721C241.767 289.499 235.798 284.057 231.957 276.008C228.12 267.967 226.469 257.428 227.98 246.31C229.49 235.191 233.863 225.687 239.66 219.302C245.462 212.912 252.603 209.724 259.714 210.946C266.824 212.168 272.793 217.61 276.634 225.659C280.471 233.7 282.122 244.239 280.611 255.358Z" fill="#AFA2FF" stroke="black" stroke-width="2"/>
<path d="M280.673 254.936C279.249 265.419 275.158 274.381 269.746 280.405C264.328 286.436 257.68 289.438 251.078 288.303C244.477 287.168 238.929 282.069 235.359 274.494C231.794 266.927 230.268 256.998 231.692 246.516C233.116 236.033 237.207 227.071 242.619 221.047C248.037 215.016 254.686 212.014 261.287 213.149C267.888 214.284 273.436 219.383 277.006 226.958C280.572 234.526 282.097 244.454 280.673 254.936Z" fill="#5942E3" stroke="black" stroke-width="2"/>
<path d="M281.57 254.608C280.282 264.094 276.789 272.233 272.235 277.729C267.668 283.241 262.159 285.971 256.79 285.049C251.421 284.126 246.888 279.669 243.993 272.874C241.106 266.098 239.933 257.157 241.221 247.671C242.51 238.185 246.003 230.046 250.557 224.549C255.124 219.037 260.633 216.307 266.002 217.23C271.371 218.153 275.904 222.61 278.799 229.405C281.686 236.18 282.859 245.122 281.57 254.608Z" fill="#745EFF" stroke="black" stroke-width="2"/>
<path d="M102.829 306.487C99.3247 315.29 100.532 343.703 109.807 365.536C114.998 377.755 122.39 391.098 140.068 391.098C175.315 391.098 128.507 362.236 140.068 347.257C145.791 339.843 154.594 342.775 181.908 342.775" stroke="black" stroke-width="2"/>
<path d="M123.296 303.378C114.509 305.771 109.119 299.435 107.68 295.334L130.708 299.426C130.708 299.426 129.168 301.779 123.296 303.378Z" fill="#E47C84" stroke="black" stroke-width="2"/>
<path d="M223.012 298.939C227.382 308.558 240.102 314.821 244.671 319.207C258.518 332.497 257.095 337.005 257.095 343.498L231.037 343.498" stroke="black" stroke-width="2"/>
<path d="M99.9261 222.63C101.018 209.93 95.603 210.206 92.7588 211.932C85.5916 221.595 72.5855 274.28 78.0462 276.005C83.5068 277.731 90.3379 271.595 92.3205 265.38C93.5059 261.664 98.5609 238.505 99.9261 222.63Z" fill="#A8FFDA" stroke="black" stroke-width="2"/>
<path d="M81.4492 245.748C80.5826 249.842 79.7696 254.116 79.9251 257.57C80.0026 259.291 80.3182 260.708 80.9102 261.767C81.479 262.785 82.3329 263.53 83.6513 263.907C86.3877 264.69 88.6421 263.796 90.4219 261.522C92.2424 259.196 93.5294 255.445 94.0968 250.706C94.1954 249.883 94.2966 249.082 94.3952 248.302C94.5894 246.765 94.7734 245.309 94.9065 243.926C95.1067 241.845 95.1807 240.023 95.0061 238.481C94.8318 236.942 94.4196 235.776 93.724 234.924C93.0415 234.088 91.9843 233.43 90.2826 233.096C88.4859 232.743 86.7476 233.697 85.1557 236.008C83.5739 238.305 82.2973 241.74 81.4492 245.748Z" fill="#1E1E1E" stroke="black" stroke-width="2"/>
<path d="M94.9777 242.441C94.3525 235.013 89.2842 240.069 87.106 242.475C86.8601 238.51 83.5834 232.817 80.5976 238.936C76.8652 246.585 82.3816 258.565 82.8895 258.595C83.3974 258.626 95.7592 251.725 94.9777 242.441Z" fill="#E47C84" stroke="black" stroke-width="2"/>
<path d="M158.311 173.549C162.889 173.458 169.681 179.538 172.505 182.589L151.673 200.443C133.286 203.495 95.9062 207.96 95.9062 207.96C99.2587 202.124 107.174 195.497 107.174 195.497L102.029 191.522C102.029 191.522 108.03 188.544 114.206 190.018C118.398 191.018 110.13 186.824 111.504 186.023C120.417 180.827 120.56 182.704 129.029 186.023C135.804 188.678 140.305 185.145 141.831 182.589C142.845 175.674 139.032 174.702 137.512 174.585C137.312 174.581 137.112 174.578 136.911 174.578C136.911 174.578 137.145 174.557 137.512 174.585C143.425 174.713 148.793 176.724 154.993 179.271C160.12 181.376 159.342 176.333 158.311 173.549Z" fill="#23FFA3"/>
<path d="M176.325 188.66C168.44 177.957 162.743 174.053 158.242 173.92C161.348 177.26 157.301 181.262 151.386 176.922C146.653 173.45 139.589 174.188 136.649 174.991C136.649 174.991 144.788 178.158 140.194 184.344C138.088 186.507 132.148 188.945 125.987 184.344C122.243 181.549 114.586 182.485 110.758 186.824C110.758 186.824 116.651 188.061 114.842 189.972C112.466 192.481 106.672 185.38 102.333 192.271C102.333 192.271 106.148 192.984 106.148 195.669" stroke="#010101" stroke-width="2"/>
<path d="M81.4686 449.967H79.2786C79.2013 449.967 79.1273 449.999 79.0763 450.054L74.7974 454.7C74.6895 454.817 74.4999 454.817 74.3919 454.7L70.1131 450.054C70.0612 449.999 69.9881 449.967 69.9107 449.967H67.5218C67.4215 449.967 67.3398 450.045 67.3398 450.142C67.3398 450.154 67.3441 450.167 67.3466 450.178C67.3424 450.197 67.3398 450.217 67.3398 450.236V462.497C67.3398 462.646 67.4648 462.767 67.6195 462.767H69.24C69.3947 462.767 69.5197 462.646 69.5197 462.497V452.575L74.3919 457.865C74.4999 457.982 74.6895 457.982 74.7974 457.865L79.56 452.694V462.5C79.56 462.648 79.6842 462.767 79.8363 462.767H81.4635C81.6166 462.767 81.7398 462.647 81.7398 462.5V450.233C81.7398 450.233 81.7398 450.231 81.7398 450.23C81.7398 450.23 81.7398 450.229 81.7398 450.228C81.7398 450.084 81.6183 449.967 81.4686 449.967Z" fill="#F7F7F7"/>
<path d="M89.7406 451.566C86.6476 451.566 84.1406 454.073 84.1406 457.166C84.1406 460.259 86.6476 462.766 89.7406 462.766C92.8336 462.766 95.3406 460.259 95.3406 457.166C95.3406 454.073 92.8336 451.566 89.7406 451.566ZM89.7406 460.561C87.8658 460.561 86.3459 459.041 86.3459 457.166C86.3459 455.292 87.8658 453.772 89.7406 453.772C91.6154 453.772 93.1353 455.292 93.1353 457.166C93.1353 459.041 91.6154 460.561 89.7406 460.561Z" fill="#F7F7F7"/>
<path d="M103.842 451.566H102.749C99.3383 451.566 97.7383 453.166 97.7426 457.026C97.7409 457.04 97.7383 457.053 97.7383 457.068V462.486C97.7383 462.641 97.8607 462.766 98.0121 462.766H99.6585C99.81 462.766 99.9324 462.641 99.9324 462.486V457.068C99.9324 457.068 99.9324 457.065 99.9324 457.064C99.9324 457.029 99.9324 457 99.9324 456.986C99.9324 454.991 100.65 453.631 102.749 453.631H103.841C104.005 453.631 104.138 453.504 104.138 453.349V451.848C104.138 451.693 104.006 451.566 103.841 451.566H103.842Z" fill="#F7F7F7"/>
<path d="M112.139 451.566C110.868 451.566 109.696 451.98 108.756 452.678V451.836C108.756 451.686 108.633 451.566 108.483 451.566H106.812C106.661 451.566 106.539 451.687 106.539 451.836V464.897C106.539 465.046 106.662 465.166 106.812 465.166H108.483C108.634 465.166 108.756 465.045 108.756 464.897V461.396C109.696 462.093 110.868 462.507 112.139 462.507C115.231 462.507 117.739 460.059 117.739 457.037C117.739 454.015 115.232 451.566 112.139 451.566ZM112.139 460.353C110.342 460.353 108.876 458.988 108.756 457.263V456.811C108.876 455.086 110.342 453.721 112.139 453.721C113.936 453.721 115.533 455.206 115.533 457.037C115.533 458.868 114.014 460.353 112.139 460.353Z" fill="#F7F7F7"/>
<path d="M124.941 452.367C124.941 452.367 123.341 452.367 122.33 453.343V450.229C122.33 450.084 122.208 449.967 122.057 449.967H120.414C120.263 449.967 120.141 450.084 120.141 450.229V462.505C120.141 462.65 120.263 462.767 120.414 462.767H122.057C122.208 462.767 122.33 462.65 122.33 462.505V456.822C122.415 455.482 123.57 454.419 124.988 454.419C126.46 454.419 127.654 455.565 127.654 456.979V462.514C127.654 462.653 127.771 462.766 127.916 462.766H129.478C129.623 462.766 129.741 462.653 129.741 462.514V457.208C129.741 453.967 128.14 452.367 124.941 452.367Z" fill="#F7F7F7"/>
<path d="M59.6927 459.21C58.7157 458.372 56.4226 457.328 55.3181 455.182C54.1836 452.978 54.7101 450.968 54.7101 449.619C54.7101 447.801 53.1638 446.327 51.2575 446.327C49.3511 446.327 47.8049 447.801 47.8049 449.619C47.8049 450.749 47.666 453.72 47.2776 455.262C47.1598 455.729 46.9854 455.979 46.8537 456.155C46.3499 456.83 44.9135 457.609 43.4771 456.667C43.0709 456.411 42.7124 455.957 42.538 455.4C42.1682 454.216 42.5816 450.782 42.4242 449.299C42.4226 449.287 42.4217 449.274 42.4201 449.262C42.3935 449.031 42.3539 448.828 42.2917 448.662C41.8622 447.31 40.5453 446.326 38.9877 446.326C37.0806 446.326 35.5352 447.801 35.5352 449.618C35.5352 450.594 35.9801 451.47 36.6874 452.073C37.6644 452.911 39.9575 453.955 41.062 456.101C42.1965 458.305 41.67 460.315 41.67 461.664C41.67 463.482 43.2163 464.956 45.1226 464.956C46.5687 464.956 47.8065 464.108 48.3208 462.905C49.142 461.117 47.8057 457.98 48.9676 455.641C49.1961 455.182 49.4496 454.949 49.7064 454.727C50.2409 454.266 51.9276 453.75 53.1364 455.131C53.444 455.522 53.5304 455.825 53.6031 456.123C53.9115 457.391 53.6305 461.402 54.0899 462.625C54.5219 463.974 55.8364 464.955 57.3923 464.955C59.2995 464.955 60.8449 463.481 60.8449 461.663C60.8449 460.688 60.4 459.811 59.6927 459.209V459.21Z" fill="url(#paint2_linear_1208_22422)"/>
<path d="M32.851 464.956C34.7578 464.956 36.3036 463.482 36.3036 461.664C36.3036 459.846 34.7578 458.372 32.851 458.372C30.9442 458.372 29.3984 459.846 29.3984 461.664C29.3984 463.482 30.9442 464.956 32.851 464.956Z" fill="url(#paint3_linear_1208_22422)"/>
<path d="M136.141 449.166L136.141 463.566" stroke="#F7F7F7" stroke-width="2"/>
<path fill-rule="evenodd" clip-rule="evenodd" d="M165.423 459.679C165.644 458.95 165.755 458.142 165.755 457.255C165.755 456.059 165.557 455.018 165.162 454.131C164.772 453.245 164.172 452.558 163.36 452.07C162.554 451.582 161.524 451.338 160.269 451.338C159.01 451.338 157.972 451.582 157.155 452.07C156.338 452.558 155.732 453.245 155.337 454.131C154.947 455.013 154.752 456.049 154.752 457.24C154.752 458.131 154.863 458.942 155.084 459.671C155.306 460.4 155.64 461.027 156.088 461.552C156.541 462.076 157.113 462.48 157.803 462.763C158.494 463.041 159.31 463.18 160.254 463.18C161.197 463.18 162.014 463.041 162.704 462.763C163.394 462.48 163.963 462.076 164.411 461.552C164.864 461.027 165.202 460.403 165.423 459.679ZM157.621 459.333C157.421 458.75 157.321 458.058 157.321 457.255C157.321 456.447 157.421 455.755 157.621 455.178C157.827 454.596 158.146 454.15 158.578 453.84C159.015 453.525 159.579 453.368 160.269 453.368C161.308 453.368 162.053 453.714 162.506 454.407C162.96 455.099 163.186 456.049 163.186 457.255C163.186 458.058 163.086 458.75 162.886 459.333C162.691 459.91 162.377 460.356 161.945 460.67C161.513 460.98 160.949 461.135 160.254 461.135C159.569 461.135 159.01 460.98 158.578 460.67C158.146 460.356 157.827 459.91 157.621 459.333ZM151.376 460.399C151.877 459.528 152.127 458.445 152.127 457.149C152.127 455.916 151.882 454.883 151.392 454.049C150.902 453.209 150.211 452.577 149.321 452.152C148.43 451.722 147.379 451.507 146.167 451.507H142.539V463.011H145.811C147.139 463.011 148.275 462.794 149.218 462.358C150.161 461.918 150.881 461.264 151.376 460.399ZM149.858 455.119C150.111 455.665 150.238 456.362 150.238 457.212C150.238 458.466 149.945 459.41 149.36 460.045C148.781 460.68 147.893 460.997 146.697 460.997H144.333V453.506H146.294C147.01 453.506 148.267 453.637 148.752 453.899C149.242 454.162 149.611 454.568 149.858 455.119ZM173.797 453.376C173.328 453.376 172.912 453.468 172.548 453.652C172.19 453.83 171.887 454.09 171.639 454.431C171.397 454.772 171.213 455.183 171.086 455.666C170.96 456.149 170.896 456.692 170.896 457.295C170.896 458.108 170.997 458.803 171.197 459.38C171.402 459.952 171.719 460.39 172.145 460.694C172.572 460.993 173.123 461.143 173.797 461.143C174.266 461.143 174.735 461.09 175.204 460.985C175.679 460.881 176.192 460.731 176.746 460.537V462.583C176.235 462.793 175.731 462.942 175.236 463.031C174.741 463.126 174.185 463.173 173.568 463.173C172.377 463.173 171.397 462.929 170.628 462.441C169.864 461.948 169.297 461.261 168.928 460.38C168.559 459.493 168.375 458.46 168.375 457.279C168.375 456.408 168.494 455.611 168.731 454.887C168.968 454.163 169.316 453.536 169.774 453.006C170.233 452.477 170.799 452.067 171.473 451.779C172.148 451.49 172.923 451.346 173.797 451.346C174.372 451.346 174.946 451.42 175.52 451.566C176.1 451.708 176.653 451.905 177.18 452.157L176.39 454.14C175.958 453.935 175.523 453.757 175.086 453.604C174.648 453.452 174.219 453.376 173.797 453.376ZM186.841 461.599C187.173 461.095 187.339 460.503 187.339 459.821C187.339 459.217 187.226 458.714 186.999 458.31C186.773 457.901 186.449 457.547 186.027 457.248C185.611 456.943 185.108 456.652 184.517 456.374C184.033 456.143 183.627 455.941 183.3 455.768C182.979 455.595 182.736 455.417 182.573 455.233C182.415 455.044 182.336 454.813 182.336 454.541C182.336 454.31 182.391 454.108 182.502 453.935C182.612 453.756 182.776 453.62 182.992 453.526C183.208 453.426 183.469 453.376 183.774 453.376C184.212 453.376 184.641 453.436 185.063 453.557C185.484 453.673 185.961 453.838 186.493 454.053L187.284 452.156C186.688 451.894 186.117 451.695 185.569 451.558C185.026 451.417 184.454 451.346 183.853 451.346C183.052 451.346 182.357 451.477 181.767 451.739C181.182 451.996 180.731 452.369 180.415 452.857C180.099 453.345 179.941 453.932 179.941 454.619C179.941 455.144 180.03 455.595 180.21 455.973C180.394 456.345 180.628 456.663 180.913 456.925C181.198 457.187 181.498 457.41 181.814 457.594C182.13 457.772 182.423 457.924 182.691 458.05C183.118 458.255 183.5 458.446 183.838 458.625C184.18 458.803 184.449 458.994 184.644 459.199C184.839 459.404 184.936 459.65 184.936 459.939C184.936 460.175 184.881 460.385 184.77 460.568C184.66 460.752 184.48 460.896 184.233 461.001C183.99 461.106 183.669 461.158 183.268 461.158C182.689 461.158 182.104 461.061 181.514 460.867C180.924 460.673 180.354 460.455 179.806 460.214V462.48C180.123 462.632 180.455 462.761 180.802 462.866C181.155 462.966 181.522 463.042 181.901 463.094C182.286 463.147 182.678 463.173 183.079 463.173C183.985 463.173 184.754 463.036 185.387 462.764C186.024 462.491 186.509 462.103 186.841 461.599Z" fill="#F7F7F7"/>
<rect x="254.297" y="449.166" width="24" height="24" rx="12" fill="white" fill-opacity="0.1"/>
<path fill-rule="evenodd" clip-rule="evenodd" d="M261.664 456.416H264.427L266.748 459.811L269.66 456.416H271.547L267.547 460.916L270.923 465.916H268.16L265.922 462.666L263.428 465.916H261.547L265.047 461.541L261.664 456.416ZM263.366 457.321L268.625 465.011H269.221L263.962 457.321H263.366Z" fill="#F7F7F7"/>
<rect x="294.297" y="449.166" width="24" height="24" rx="12" fill="white" fill-opacity="0.1"/>
<g clip-path="url(#clip0_1208_22422)">
<path d="M310.471 457.634C310.468 457.628 310.462 457.623 310.455 457.621C309.677 457.289 308.856 457.052 308.013 456.917C308.005 456.915 307.997 456.916 307.99 456.919C307.983 456.922 307.977 456.928 307.974 456.934C307.862 457.123 307.76 457.316 307.67 457.514C306.76 457.386 305.835 457.386 304.926 457.514C304.835 457.316 304.732 457.122 304.617 456.934C304.613 456.928 304.607 456.923 304.6 456.92C304.593 456.917 304.586 456.915 304.578 456.917C303.734 457.052 302.913 457.288 302.135 457.621C302.129 457.623 302.123 457.628 302.119 457.633C300.564 459.793 300.137 461.9 300.346 463.981C300.347 463.986 300.349 463.991 300.351 463.995C300.354 464 300.358 464.004 300.362 464.007C301.268 464.63 302.281 465.106 303.359 465.414C303.366 465.417 303.374 465.417 303.382 465.414C303.389 465.412 303.396 465.408 303.401 465.402C303.632 465.109 303.837 464.799 304.014 464.475C304.016 464.471 304.017 464.466 304.018 464.461C304.018 464.456 304.017 464.451 304.015 464.446C304.013 464.441 304.01 464.437 304.006 464.434C304.002 464.43 303.998 464.428 303.993 464.426C303.67 464.311 303.357 464.172 303.057 464.011C303.051 464.008 303.047 464.004 303.043 463.999C303.04 463.994 303.038 463.988 303.038 463.983C303.037 463.977 303.039 463.971 303.041 463.965C303.044 463.96 303.048 463.955 303.053 463.952C303.116 463.908 303.178 463.863 303.239 463.817C303.244 463.812 303.251 463.81 303.258 463.809C303.264 463.808 303.271 463.809 303.278 463.812C305.242 464.645 307.368 464.645 309.308 463.812C309.315 463.809 309.322 463.808 309.329 463.809C309.336 463.809 309.342 463.812 309.348 463.816C309.408 463.863 309.471 463.908 309.534 463.952C309.539 463.955 309.543 463.96 309.546 463.965C309.548 463.971 309.55 463.977 309.549 463.982C309.549 463.988 309.547 463.994 309.544 463.999C309.541 464.004 309.536 464.008 309.531 464.011C309.232 464.174 308.918 464.312 308.594 464.425C308.589 464.427 308.584 464.43 308.581 464.434C308.577 464.437 308.574 464.441 308.572 464.446C308.57 464.451 308.569 464.456 308.569 464.461C308.57 464.466 308.571 464.471 308.574 464.475C308.753 464.797 308.958 465.107 309.186 465.401C309.191 465.407 309.197 465.412 309.205 465.414C309.212 465.416 309.221 465.417 309.228 465.414C310.308 465.107 311.323 464.631 312.23 464.007C312.234 464.004 312.238 464 312.24 463.996C312.243 463.991 312.245 463.986 312.245 463.981C312.495 461.576 311.826 459.486 310.471 457.634ZM304.307 462.714C303.716 462.714 303.228 462.209 303.228 461.59C303.228 460.97 303.706 460.466 304.307 460.466C304.912 460.466 305.395 460.975 305.385 461.59C305.385 462.209 304.908 462.714 304.307 462.714ZM308.294 462.714C307.703 462.714 307.216 462.209 307.216 461.59C307.216 460.97 307.694 460.466 308.294 460.466C308.9 460.466 309.382 460.975 309.373 461.59C309.373 462.209 308.9 462.714 308.294 462.714Z" fill="#F7F7F7"/>
</g>
<rect x="334.297" y="449.166" width="24" height="24" rx="12" fill="white" fill-opacity="0.1"/>
<path fill-rule="evenodd" clip-rule="evenodd" d="M347.297 461.166C347.297 463.099 345.729 464.666 343.797 464.666C341.864 464.666 340.297 463.098 340.297 461.166C340.297 459.234 341.864 457.666 343.797 457.666C345.729 457.666 347.297 459.233 347.297 461.166ZM350.797 461.166C350.797 463.099 350.069 464.666 349.172 464.666C348.274 464.666 347.547 463.099 347.547 461.166C347.547 459.233 348.274 457.666 349.172 457.666C350.069 457.666 350.797 459.233 350.797 461.166ZM351.672 464.166C352.017 464.166 352.297 462.823 352.297 461.166C352.297 459.508 352.017 458.166 351.672 458.166C351.327 458.166 351.047 459.509 351.047 461.166C351.047 462.823 351.327 464.166 351.672 464.166Z" fill="#F7F7F7"/>
<g clip-path="url(#clip1_1208_22422)">
<path d="M386.297 449.081C392.925 449.081 398.297 454.453 398.297 461.081C398.297 467.709 392.925 473.081 386.297 473.081C379.669 473.081 374.297 467.709 374.297 461.081C374.297 454.453 379.669 449.081 386.297 449.081Z" fill="white" fill-opacity="0.1"/>
<path d="M386.297 455.166C382.983 455.166 380.297 457.852 380.297 461.166C380.297 463.817 382.016 466.066 384.4 466.859C384.7 466.915 384.81 466.729 384.81 466.571C384.81 466.428 384.805 465.955 384.802 465.453C383.133 465.816 382.78 464.745 382.78 464.745C382.507 464.052 382.115 463.868 382.115 463.868C381.57 463.495 382.156 463.503 382.156 463.503C382.758 463.545 383.075 464.121 383.075 464.121C383.61 465.038 384.479 464.773 384.821 464.62C384.875 464.232 385.03 463.967 385.202 463.817C383.87 463.666 382.468 463.151 382.468 460.852C382.468 460.197 382.703 459.662 383.087 459.242C383.025 459.09 382.819 458.48 383.145 457.654C383.145 457.654 383.649 457.493 384.795 458.269C385.274 458.136 385.787 458.069 386.297 458.067C386.807 458.069 387.321 458.136 387.8 458.269C388.946 457.493 389.448 457.654 389.448 457.654C389.775 458.48 389.569 459.09 389.507 459.242C389.892 459.662 390.125 460.197 390.125 460.852C390.125 463.157 388.721 463.664 387.385 463.813C387.6 463.999 387.792 464.364 387.792 464.924C387.792 465.727 387.785 466.373 387.785 466.571C387.785 466.73 387.893 466.917 388.197 466.859C390.58 466.064 392.297 463.816 392.297 461.166C392.297 457.852 389.61 455.166 386.297 455.166Z" fill="#F7F7F7"/>
</g>
<g clip-path="url(#clip2_1208_22422)">
<path d="M426.297 449.081C432.925 449.081 438.297 454.453 438.297 461.081C438.297 467.709 432.925 473.081 426.297 473.081C419.669 473.081 414.297 467.709 414.297 461.081C414.297 454.453 419.669 449.081 426.297 449.081Z" fill="white" fill-opacity="0.1"/>
<path d="M432.046 458.486C431.908 457.967 431.501 457.557 430.985 457.418C430.049 457.166 426.297 457.166 426.297 457.166C426.297 457.166 422.544 457.166 421.609 457.418C421.092 457.557 420.686 457.967 420.548 458.486C420.297 459.428 420.297 461.393 420.297 461.393C420.297 461.393 420.297 463.358 420.548 464.3C420.686 464.82 421.092 465.212 421.609 465.351C422.544 465.604 426.297 465.604 426.297 465.604C426.297 465.604 430.049 465.604 430.985 465.351C431.501 465.212 431.908 464.82 432.046 464.3C432.297 463.358 432.297 461.393 432.297 461.393C432.297 461.393 432.297 459.428 432.046 458.486ZM425.07 463.178V459.609L428.206 461.393L425.07 463.178Z" fill="#F7F7F7"/>
</g>
<g clip-path="url(#clip3_1208_22422)">
<path d="M465.797 449.085C472.148 449.085 477.297 454.233 477.297 460.585C477.297 466.936 472.148 472.085 465.797 472.085C459.445 472.085 454.297 466.936 454.297 460.585C454.297 454.233 459.445 449.085 465.797 449.085Z" fill="white" fill-opacity="0.1"/>
<path fill-rule="evenodd" clip-rule="evenodd" d="M462.047 458.916C462.737 458.916 463.297 458.356 463.297 457.666C463.297 456.976 462.737 456.416 462.047 456.416C461.357 456.416 460.797 456.976 460.797 457.666C460.797 458.356 461.357 458.916 462.047 458.916ZM461.297 459.665C461.159 459.665 461.047 459.777 461.047 459.915V464.915C461.047 465.053 461.159 465.165 461.297 465.165H462.797C462.935 465.165 463.047 465.053 463.047 464.915V459.915C463.047 459.777 462.935 459.665 462.797 459.665H461.297ZM464.547 458.416C464.547 458.278 464.659 458.166 464.797 458.166H466.297C466.435 458.166 466.547 458.278 466.547 458.416V459.666C466.676 459.147 467.378 458.166 468.88 458.166C470.381 458.166 471.797 458.916 471.797 461.166V464.916C471.797 465.054 471.685 465.166 471.547 465.166H470.181C470.042 465.166 469.931 465.054 469.931 464.916V461.206C469.931 460.817 469.577 459.706 468.297 459.706C466.897 459.706 466.547 460.946 466.547 461.206V464.916C466.547 465.054 466.435 465.166 466.297 465.166H464.797C464.659 465.166 464.547 465.054 464.547 464.916V458.416Z" fill="#F7F7F7"/>
</g>
<path d="M33.7588 474.074C33.3519 474.074 33.0378 474.216 32.8164 474.499C32.5983 474.782 32.4893 475.174 32.4893 475.676C32.4893 476.223 32.5918 476.628 32.7969 476.892C33.0052 477.155 33.3226 477.287 33.749 477.287C34.029 477.287 34.3724 477.214 34.7793 477.067V477.673C34.623 477.738 34.4619 477.793 34.2959 477.839C34.1331 477.884 33.9378 477.907 33.71 477.907C33.0785 477.907 32.5934 477.712 32.2549 477.321C31.9163 476.927 31.7471 476.379 31.7471 475.676C31.7471 474.995 31.9261 474.455 32.2842 474.055C32.6455 473.654 33.137 473.454 33.7588 473.454C34.1755 473.454 34.5758 473.552 34.96 473.747L34.6768 474.323C34.3252 474.157 34.0192 474.074 33.7588 474.074ZM29.8867 475.676C29.8867 475.025 30.0495 474.414 30.375 473.845C30.7005 473.275 31.1481 472.826 31.7178 472.497C32.2874 472.168 32.901 472.004 33.5586 472.004C34.2096 472.004 34.82 472.167 35.3896 472.492C35.9593 472.818 36.4085 473.265 36.7373 473.835C37.0661 474.405 37.2305 475.018 37.2305 475.676C37.2305 476.317 37.0726 476.919 36.7568 477.482C36.4411 478.046 35.9984 478.496 35.4287 478.835C34.859 479.174 34.2357 479.343 33.5586 479.343C32.8848 479.343 32.263 479.175 31.6934 478.84C31.1237 478.501 30.6794 478.05 30.3604 477.487C30.0446 476.924 29.8867 476.32 29.8867 475.676ZM30.3994 475.676C30.3994 476.239 30.541 476.766 30.8242 477.258C31.1074 477.746 31.4932 478.132 31.9814 478.415C32.473 478.695 32.9987 478.835 33.5586 478.835C34.125 478.835 34.6507 478.693 35.1357 478.41C35.6208 478.127 36.0049 477.744 36.2881 477.263C36.5745 476.778 36.7178 476.249 36.7178 475.676C36.7178 475.109 36.5762 474.584 36.293 474.099C36.0098 473.614 35.6257 473.229 35.1406 472.946C34.6589 472.66 34.1315 472.517 33.5586 472.517C32.9922 472.517 32.4665 472.658 31.9814 472.941C31.4964 473.225 31.1107 473.609 30.8242 474.094C30.541 474.576 30.3994 475.103 30.3994 475.676ZM45.4971 479.245H40.8047V478.547L42.6846 476.657C43.2575 476.078 43.6351 475.664 43.8174 475.417C43.9997 475.17 44.1364 474.929 44.2275 474.694C44.3187 474.46 44.3643 474.208 44.3643 473.938C44.3643 473.557 44.2487 473.256 44.0176 473.034C43.7865 472.81 43.4658 472.697 43.0557 472.697C42.7594 472.697 42.4779 472.746 42.2109 472.844C41.9473 472.941 41.6527 473.119 41.3271 473.376L40.8975 472.824C41.555 472.277 42.2712 472.004 43.0459 472.004C43.7165 472.004 44.2422 472.176 44.623 472.521C45.0039 472.863 45.1943 473.324 45.1943 473.903C45.1943 474.356 45.0674 474.803 44.8135 475.246C44.5596 475.689 44.0843 476.249 43.3877 476.926L41.8252 478.454V478.493H45.4971V479.245ZM51.2588 475.666C51.2588 476.9 51.0635 477.821 50.6729 478.43C50.2855 479.038 49.6914 479.343 48.8906 479.343C48.1224 479.343 47.5381 479.032 47.1377 478.41C46.7373 477.785 46.5371 476.87 46.5371 475.666C46.5371 474.423 46.7308 473.5 47.1182 472.897C47.5055 472.295 48.0964 471.994 48.8906 471.994C49.6654 471.994 50.2529 472.308 50.6533 472.937C51.057 473.565 51.2588 474.475 51.2588 475.666ZM47.3574 475.666C47.3574 476.704 47.4795 477.461 47.7236 477.937C47.9678 478.409 48.3568 478.645 48.8906 478.645C49.431 478.645 49.8216 478.405 50.0625 477.927C50.3066 477.445 50.4287 476.691 50.4287 475.666C50.4287 474.641 50.3066 473.89 50.0625 473.415C49.8216 472.937 49.431 472.697 48.8906 472.697C48.3568 472.697 47.9678 472.933 47.7236 473.405C47.4795 473.874 47.3574 474.628 47.3574 475.666ZM56.9424 479.245H52.25V478.547L54.1299 476.657C54.7028 476.078 55.0804 475.664 55.2627 475.417C55.445 475.17 55.5817 474.929 55.6729 474.694C55.764 474.46 55.8096 474.208 55.8096 473.938C55.8096 473.557 55.694 473.256 55.4629 473.034C55.2318 472.81 54.9111 472.697 54.501 472.697C54.2048 472.697 53.9232 472.746 53.6562 472.844C53.3926 472.941 53.098 473.119 52.7725 473.376L52.3428 472.824C53.0003 472.277 53.7165 472.004 54.4912 472.004C55.1618 472.004 55.6875 472.176 56.0684 472.521C56.4492 472.863 56.6396 473.324 56.6396 473.903C56.6396 474.356 56.5127 474.803 56.2588 475.246C56.0049 475.689 55.5296 476.249 54.833 476.926L53.2705 478.454V478.493H56.9424V479.245ZM63.002 477.604H61.9424V479.245H61.166V477.604H57.6943V476.896L61.083 472.067H61.9424V476.867H63.002V477.604ZM61.166 476.867V474.494C61.166 474.029 61.1823 473.503 61.2148 472.917H61.1758C61.0195 473.229 60.873 473.488 60.7363 473.693L58.5049 476.867H61.166ZM69.9453 479.245L67.5234 472.917H67.4844C67.5299 473.418 67.5527 474.014 67.5527 474.704V479.245H66.7861V472.106H68.0361L70.2969 477.995H70.3359L72.6162 472.106H73.8564V479.245H73.0264V474.646C73.0264 474.118 73.0492 473.545 73.0947 472.927H73.0557L70.6143 479.245H69.9453ZM80.3164 476.564C80.3164 477.437 80.0967 478.119 79.6572 478.61C79.2178 479.099 78.6107 479.343 77.8359 479.343C77.3574 479.343 76.9326 479.23 76.5615 479.006C76.1904 478.781 75.904 478.459 75.7021 478.039C75.5003 477.619 75.3994 477.128 75.3994 476.564C75.3994 475.692 75.6175 475.013 76.0537 474.528C76.4899 474.04 77.0954 473.796 77.8701 473.796C78.6188 473.796 79.2129 474.045 79.6523 474.543C80.0951 475.041 80.3164 475.715 80.3164 476.564ZM76.2393 476.564C76.2393 477.248 76.376 477.769 76.6494 478.127C76.9229 478.485 77.3249 478.664 77.8555 478.664C78.3861 478.664 78.7881 478.487 79.0615 478.132C79.3382 477.774 79.4766 477.251 79.4766 476.564C79.4766 475.884 79.3382 475.368 79.0615 475.017C78.7881 474.662 78.3828 474.484 77.8457 474.484C77.3151 474.484 76.9147 474.659 76.6445 475.007C76.3743 475.355 76.2393 475.874 76.2393 476.564ZM84.1836 473.796C84.4212 473.796 84.6344 473.815 84.8232 473.854L84.7109 474.606C84.4896 474.558 84.2943 474.533 84.125 474.533C83.6921 474.533 83.321 474.709 83.0117 475.061C82.7057 475.412 82.5527 475.85 82.5527 476.374V479.245H81.7422V473.894H82.4111L82.5039 474.885H82.543C82.7415 474.536 82.9808 474.268 83.2607 474.079C83.5407 473.89 83.8483 473.796 84.1836 473.796ZM88.3145 479.343C87.9661 479.343 87.6471 479.279 87.3574 479.152C87.071 479.022 86.8301 478.824 86.6348 478.557H86.5762C86.6152 478.869 86.6348 479.165 86.6348 479.445V481.647H85.8242V473.894H86.4834L86.5957 474.626H86.6348C86.8431 474.333 87.0856 474.121 87.3623 473.991C87.639 473.861 87.9564 473.796 88.3145 473.796C89.0241 473.796 89.571 474.038 89.9551 474.523C90.3424 475.008 90.5361 475.689 90.5361 476.564C90.5361 477.443 90.3392 478.127 89.9453 478.615C89.5547 479.1 89.0111 479.343 88.3145 479.343ZM88.1973 474.484C87.6504 474.484 87.2549 474.636 87.0107 474.938C86.7666 475.241 86.6413 475.723 86.6348 476.384V476.564C86.6348 477.316 86.7601 477.855 87.0107 478.181C87.2614 478.503 87.6634 478.664 88.2168 478.664C88.679 478.664 89.0404 478.477 89.3008 478.103C89.5645 477.728 89.6963 477.212 89.6963 476.555C89.6963 475.887 89.5645 475.376 89.3008 475.021C89.0404 474.663 88.6725 474.484 88.1973 474.484ZM95.6191 479.245V475.783C95.6191 475.347 95.5199 475.021 95.3213 474.807C95.1227 474.592 94.8118 474.484 94.3887 474.484C93.8255 474.484 93.4137 474.637 93.1533 474.943C92.8962 475.249 92.7676 475.751 92.7676 476.447V479.245H91.957V471.647H92.7676V473.947C92.7676 474.224 92.7546 474.453 92.7285 474.636H92.7773C92.9368 474.379 93.1631 474.177 93.4561 474.03C93.7523 473.881 94.0892 473.806 94.4668 473.806C95.1211 473.806 95.611 473.962 95.9365 474.274C96.2653 474.584 96.4297 475.077 96.4297 475.754V479.245H95.6191ZM97.9824 478.728C97.9824 478.509 98.0312 478.345 98.1289 478.234C98.2298 478.12 98.373 478.063 98.5586 478.063C98.7474 478.063 98.8939 478.12 98.998 478.234C99.1055 478.345 99.1592 478.509 99.1592 478.728C99.1592 478.939 99.1055 479.102 98.998 479.216C98.8906 479.33 98.7441 479.387 98.5586 479.387C98.3926 479.387 98.2542 479.336 98.1436 479.235C98.0361 479.131 97.9824 478.962 97.9824 478.728ZM107.973 479.245L107.084 476.975H104.223L103.344 479.245H102.504L105.326 472.077H106.024L108.832 479.245H107.973ZM106.825 476.228L105.995 474.016C105.888 473.736 105.777 473.392 105.663 472.985C105.591 473.298 105.489 473.641 105.355 474.016L104.516 476.228H106.825ZM110.502 479.245H109.691V471.647H110.502V479.245ZM113.031 479.245H112.221V471.647H113.031V479.245ZM119.789 473.796C120.027 473.796 120.24 473.815 120.429 473.854L120.316 474.606C120.095 474.558 119.9 474.533 119.73 474.533C119.298 474.533 118.926 474.709 118.617 475.061C118.311 475.412 118.158 475.85 118.158 476.374V479.245H117.348V473.894H118.017L118.109 474.885H118.148C118.347 474.536 118.586 474.268 118.866 474.079C119.146 473.89 119.454 473.796 119.789 473.796ZM122.24 479.245H121.43V473.894H122.24V479.245ZM121.361 472.443C121.361 472.258 121.407 472.123 121.498 472.038C121.589 471.95 121.703 471.906 121.84 471.906C121.97 471.906 122.082 471.95 122.177 472.038C122.271 472.126 122.318 472.261 122.318 472.443C122.318 472.626 122.271 472.762 122.177 472.854C122.082 472.941 121.97 472.985 121.84 472.985C121.703 472.985 121.589 472.941 121.498 472.854C121.407 472.762 121.361 472.626 121.361 472.443ZM128.339 473.894V474.406L127.348 474.523C127.439 474.637 127.52 474.787 127.592 474.973C127.663 475.155 127.699 475.362 127.699 475.593C127.699 476.117 127.52 476.535 127.162 476.848C126.804 477.16 126.312 477.316 125.688 477.316C125.528 477.316 125.378 477.303 125.238 477.277C124.893 477.46 124.721 477.689 124.721 477.966C124.721 478.112 124.781 478.221 124.901 478.293C125.022 478.361 125.229 478.396 125.521 478.396H126.469C127.048 478.396 127.493 478.518 127.802 478.762C128.114 479.006 128.271 479.361 128.271 479.826C128.271 480.419 128.033 480.869 127.558 481.179C127.082 481.491 126.389 481.647 125.478 481.647C124.778 481.647 124.237 481.517 123.856 481.257C123.479 480.996 123.29 480.629 123.29 480.153C123.29 479.828 123.394 479.546 123.603 479.309C123.811 479.071 124.104 478.91 124.481 478.825C124.345 478.763 124.229 478.667 124.135 478.537C124.044 478.407 123.998 478.256 123.998 478.083C123.998 477.888 124.05 477.717 124.154 477.57C124.258 477.424 124.423 477.282 124.647 477.146C124.371 477.032 124.145 476.838 123.969 476.564C123.796 476.291 123.71 475.979 123.71 475.627C123.71 475.041 123.886 474.59 124.237 474.274C124.589 473.955 125.087 473.796 125.731 473.796C126.011 473.796 126.264 473.828 126.488 473.894H128.339ZM124.071 480.144C124.071 480.433 124.193 480.653 124.438 480.803C124.682 480.952 125.032 481.027 125.487 481.027C126.168 481.027 126.671 480.925 126.996 480.72C127.325 480.518 127.489 480.243 127.489 479.895C127.489 479.605 127.4 479.403 127.221 479.289C127.042 479.178 126.705 479.123 126.21 479.123H125.238C124.87 479.123 124.584 479.211 124.379 479.387C124.174 479.562 124.071 479.815 124.071 480.144ZM124.511 475.607C124.511 475.982 124.617 476.265 124.828 476.457C125.04 476.649 125.334 476.745 125.712 476.745C126.503 476.745 126.898 476.361 126.898 475.593C126.898 474.789 126.498 474.387 125.697 474.387C125.316 474.387 125.023 474.489 124.818 474.694C124.613 474.899 124.511 475.204 124.511 475.607ZM133.1 479.245V475.783C133.1 475.347 133 475.021 132.802 474.807C132.603 474.592 132.292 474.484 131.869 474.484C131.306 474.484 130.894 474.637 130.634 474.943C130.377 475.249 130.248 475.751 130.248 476.447V479.245H129.438V471.647H130.248V473.947C130.248 474.224 130.235 474.453 130.209 474.636H130.258C130.417 474.379 130.644 474.177 130.937 474.03C131.233 473.881 131.57 473.806 131.947 473.806C132.602 473.806 133.091 473.962 133.417 474.274C133.746 474.584 133.91 475.077 133.91 475.754V479.245H133.1ZM137.309 478.674C137.452 478.674 137.59 478.664 137.724 478.645C137.857 478.622 137.963 478.599 138.041 478.576V479.196C137.953 479.239 137.823 479.273 137.65 479.299C137.481 479.328 137.328 479.343 137.191 479.343C136.156 479.343 135.639 478.798 135.639 477.707V474.523H134.872V474.133L135.639 473.796L135.98 472.653H136.449V473.894H138.002V474.523H136.449V477.673C136.449 477.995 136.526 478.243 136.679 478.415C136.832 478.588 137.042 478.674 137.309 478.674ZM142.567 477.785C142.567 478.283 142.382 478.667 142.011 478.938C141.64 479.208 141.119 479.343 140.448 479.343C139.739 479.343 139.185 479.23 138.788 479.006V478.254C139.045 478.384 139.32 478.487 139.613 478.562C139.91 478.636 140.194 478.674 140.468 478.674C140.891 478.674 141.216 478.607 141.444 478.474C141.672 478.337 141.786 478.13 141.786 477.854C141.786 477.645 141.695 477.468 141.513 477.321C141.334 477.172 140.982 476.996 140.458 476.794C139.96 476.608 139.605 476.447 139.394 476.311C139.185 476.171 139.029 476.013 138.925 475.837C138.824 475.661 138.773 475.451 138.773 475.207C138.773 474.771 138.951 474.427 139.306 474.177C139.66 473.923 140.147 473.796 140.766 473.796C141.342 473.796 141.905 473.913 142.455 474.147L142.167 474.807C141.63 474.585 141.143 474.475 140.707 474.475C140.323 474.475 140.033 474.535 139.838 474.655C139.643 474.776 139.545 474.942 139.545 475.153C139.545 475.297 139.581 475.419 139.652 475.52C139.727 475.62 139.846 475.716 140.009 475.808C140.172 475.899 140.484 476.031 140.946 476.203C141.581 476.434 142.009 476.667 142.23 476.901C142.455 477.136 142.567 477.43 142.567 477.785ZM148.93 473.796C149.167 473.796 149.381 473.815 149.569 473.854L149.457 474.606C149.236 474.558 149.04 474.533 148.871 474.533C148.438 474.533 148.067 474.709 147.758 475.061C147.452 475.412 147.299 475.85 147.299 476.374V479.245H146.488V473.894H147.157L147.25 474.885H147.289C147.488 474.536 147.727 474.268 148.007 474.079C148.287 473.89 148.594 473.796 148.93 473.796ZM152.831 479.343C152.04 479.343 151.415 479.102 150.956 478.62C150.5 478.138 150.272 477.469 150.272 476.613C150.272 475.751 150.484 475.065 150.907 474.558C151.334 474.05 151.905 473.796 152.621 473.796C153.292 473.796 153.822 474.017 154.213 474.46C154.604 474.899 154.799 475.48 154.799 476.203V476.716H151.112C151.129 477.344 151.286 477.821 151.586 478.146C151.889 478.472 152.313 478.635 152.86 478.635C153.437 478.635 154.006 478.514 154.569 478.273V478.996C154.283 479.12 154.011 479.208 153.754 479.26C153.5 479.315 153.192 479.343 152.831 479.343ZM152.611 474.475C152.182 474.475 151.838 474.615 151.581 474.895C151.327 475.174 151.177 475.562 151.132 476.057H153.93C153.93 475.546 153.816 475.155 153.588 474.885C153.36 474.611 153.035 474.475 152.611 474.475ZM159.638 477.785C159.638 478.283 159.452 478.667 159.081 478.938C158.71 479.208 158.189 479.343 157.519 479.343C156.809 479.343 156.256 479.23 155.858 479.006V478.254C156.116 478.384 156.391 478.487 156.684 478.562C156.98 478.636 157.265 478.674 157.538 478.674C157.961 478.674 158.287 478.607 158.515 478.474C158.743 478.337 158.856 478.13 158.856 477.854C158.856 477.645 158.765 477.468 158.583 477.321C158.404 477.172 158.052 476.996 157.528 476.794C157.03 476.608 156.675 476.447 156.464 476.311C156.256 476.171 156.099 476.013 155.995 475.837C155.894 475.661 155.844 475.451 155.844 475.207C155.844 474.771 156.021 474.427 156.376 474.177C156.731 473.923 157.217 473.796 157.836 473.796C158.412 473.796 158.975 473.913 159.525 474.147L159.237 474.807C158.7 474.585 158.214 474.475 157.777 474.475C157.393 474.475 157.104 474.535 156.908 474.655C156.713 474.776 156.615 474.942 156.615 475.153C156.615 475.297 156.651 475.419 156.723 475.52C156.798 475.62 156.916 475.716 157.079 475.808C157.242 475.899 157.554 476.031 158.017 476.203C158.651 476.434 159.079 476.667 159.301 476.901C159.525 477.136 159.638 477.43 159.638 477.785ZM163.222 479.343C162.431 479.343 161.806 479.102 161.347 478.62C160.891 478.138 160.663 477.469 160.663 476.613C160.663 475.751 160.875 475.065 161.298 474.558C161.724 474.05 162.296 473.796 163.012 473.796C163.682 473.796 164.213 474.017 164.604 474.46C164.994 474.899 165.189 475.48 165.189 476.203V476.716H161.503C161.519 477.344 161.677 477.821 161.977 478.146C162.279 478.472 162.704 478.635 163.251 478.635C163.827 478.635 164.397 478.514 164.96 478.273V478.996C164.674 479.12 164.402 479.208 164.145 479.26C163.891 479.315 163.583 479.343 163.222 479.343ZM163.002 474.475C162.572 474.475 162.229 474.615 161.972 474.895C161.718 475.174 161.568 475.562 161.522 476.057H164.32C164.32 475.546 164.206 475.155 163.979 474.885C163.751 474.611 163.425 474.475 163.002 474.475ZM169.018 473.796C169.255 473.796 169.468 473.815 169.657 473.854L169.545 474.606C169.324 474.558 169.128 474.533 168.959 474.533C168.526 474.533 168.155 474.709 167.846 475.061C167.54 475.412 167.387 475.85 167.387 476.374V479.245H166.576V473.894H167.245L167.338 474.885H167.377C167.576 474.536 167.815 474.268 168.095 474.079C168.375 473.89 168.682 473.796 169.018 473.796ZM171.83 479.245L169.799 473.894H170.668L171.82 477.067C172.081 477.81 172.234 478.291 172.279 478.513H172.318C172.354 478.34 172.466 477.984 172.655 477.443C172.847 476.9 173.275 475.716 173.939 473.894H174.809L172.777 479.245H171.83ZM177.929 479.343C177.138 479.343 176.513 479.102 176.054 478.62C175.598 478.138 175.37 477.469 175.37 476.613C175.37 475.751 175.582 475.065 176.005 474.558C176.431 474.05 177.003 473.796 177.719 473.796C178.389 473.796 178.92 474.017 179.311 474.46C179.701 474.899 179.896 475.48 179.896 476.203V476.716H176.21C176.226 477.344 176.384 477.821 176.684 478.146C176.986 478.472 177.411 478.635 177.958 478.635C178.534 478.635 179.104 478.514 179.667 478.273V478.996C179.381 479.12 179.109 479.208 178.852 479.26C178.598 479.315 178.29 479.343 177.929 479.343ZM177.709 474.475C177.279 474.475 176.936 474.615 176.679 474.895C176.425 475.174 176.275 475.562 176.229 476.057H179.027C179.027 475.546 178.913 475.155 178.686 474.885C178.458 474.611 178.132 474.475 177.709 474.475ZM184.926 478.527H184.882C184.507 479.071 183.948 479.343 183.202 479.343C182.502 479.343 181.957 479.104 181.566 478.625C181.179 478.146 180.985 477.466 180.985 476.584C180.985 475.702 181.181 475.017 181.571 474.528C181.962 474.04 182.506 473.796 183.202 473.796C183.928 473.796 184.485 474.06 184.872 474.587H184.936L184.901 474.201L184.882 473.825V471.647H185.692V479.245H185.033L184.926 478.527ZM183.305 478.664C183.858 478.664 184.258 478.514 184.506 478.215C184.757 477.912 184.882 477.425 184.882 476.755V476.584C184.882 475.826 184.755 475.285 184.501 474.963C184.25 474.637 183.848 474.475 183.295 474.475C182.82 474.475 182.455 474.66 182.201 475.031C181.951 475.399 181.825 475.92 181.825 476.594C181.825 477.277 181.951 477.793 182.201 478.142C182.452 478.49 182.82 478.664 183.305 478.664Z" fill="#999999"/>
<path d="M113.073 75.2331C110.723 73.1435 105.205 70.5437 102.547 65.1923C99.8154 59.6995 101.082 54.6894 101.082 51.3275C101.082 46.7967 97.3617 43.1211 92.7736 43.1211C88.1855 43.1211 84.4651 46.7967 84.4651 51.3275C84.4651 54.1446 84.1319 61.5476 83.1948 65.3923C82.9103 66.5577 82.4903 67.1818 82.1745 67.6197C80.9633 69.3024 77.5066 71.2437 74.0499 68.8955C73.0712 68.2576 72.2105 67.1266 71.7906 65.7371C70.9021 62.7855 71.8947 54.2274 71.5164 50.531C71.5129 50.5 71.5095 50.469 71.506 50.4379C71.4435 49.8621 71.3463 49.3587 71.1971 48.9415C70.1629 45.5727 66.9942 43.1211 63.246 43.1211C58.6579 43.1211 54.9375 46.7967 54.9375 51.3275C54.9375 53.7584 56.0064 55.9411 57.7105 57.4444C60.0601 59.534 65.5783 62.1338 68.2367 67.4852C70.9646 72.978 69.6978 77.9881 69.6978 81.35C69.6978 85.8808 73.4183 89.5564 78.0064 89.5564C81.4839 89.5564 84.4651 87.4428 85.7006 84.4429C87.6753 79.988 84.4616 72.1677 87.2554 66.337C87.8038 65.1923 88.4146 64.613 89.0323 64.0579C90.3199 62.9096 94.377 61.6235 97.2853 65.0647C98.0246 66.0405 98.2328 66.7922 98.4098 67.537C99.1525 70.6989 98.4757 80.6914 99.5829 83.743C100.621 87.1048 103.786 89.5495 107.527 89.5495C112.115 89.5495 115.836 85.8739 115.836 81.3431C115.836 78.9122 114.767 76.7296 113.063 75.2262L113.073 75.2331Z" fill="white"/>
<path d="M48.4921 89.5603C53.0802 89.5603 56.8007 85.8881 56.8007 81.3539C56.8007 76.8197 53.0802 73.1475 48.4921 73.1475C43.904 73.1475 40.1836 76.8197 40.1836 81.3539C40.1836 85.8881 43.904 89.5603 48.4921 89.5603Z" fill="white"/>
<path fill-rule="evenodd" clip-rule="evenodd" d="M133.926 54.7236H128.088C127.748 54.7236 127.473 54.9938 127.473 55.327V88.9471C127.473 89.2804 127.748 89.5505 128.088 89.5505H133.926C134.266 89.5505 134.541 89.2804 134.541 88.9471V65.6084L142.946 74.891C142.971 74.9263 143 74.958 143.032 74.9863L143.047 75.0039L146.11 78.3843L146.128 78.4019L146.847 79.1958C147.103 79.4181 147.492 79.3934 147.715 79.1464L159.974 65.606V88.9471C159.974 89.2804 160.249 89.5505 160.589 89.5505H166.427C166.767 89.5505 167.042 89.2804 167.042 88.9471V55.327C167.042 54.9938 166.767 54.7236 166.427 54.7236H160.589C160.352 54.7236 160.146 54.8549 160.044 55.0472L147.855 68.6243C147.585 68.9242 147.114 68.9242 146.84 68.6278L134.501 55.1021C134.499 55.0991 134.496 55.0963 134.493 55.0935C134.4 54.8762 134.181 54.7236 133.926 54.7236Z" fill="white"/>
<path d="M186.248 60.5254C178.212 60.5254 171.699 67.022 171.699 75.0366C171.699 83.0512 178.212 89.5478 186.248 89.5478C194.283 89.5478 200.796 83.0512 200.796 75.0366C200.796 67.022 194.283 60.5254 186.248 60.5254ZM186.248 82.9073C181.891 82.9073 178.357 79.382 178.357 75.0366C178.357 70.6911 181.891 67.1659 186.248 67.1659C190.604 67.1659 194.138 70.6911 194.138 75.0366C194.138 79.382 190.604 82.9073 186.248 82.9073Z" fill="white"/>
<path d="M243.488 60.5254C240.62 60.5254 237.951 61.3649 235.711 62.8041V61.1392C235.711 60.8076 235.438 60.536 235.104 60.536H229.338C229.004 60.536 228.73 60.8076 228.73 61.1392V94.7491C228.73 95.0807 229.004 95.3523 229.338 95.3523H235.104C235.438 95.3523 235.711 95.0807 235.711 94.7491V86.7099C237.951 88.1491 240.62 88.9887 243.488 88.9887C251.408 88.9887 257.827 82.618 257.827 74.7588C257.827 66.8996 251.408 60.5289 243.488 60.5289V60.5254ZM243.488 82.4734C239.198 82.4734 235.718 79.0271 235.711 74.7694V74.7376C235.718 70.4835 239.198 67.0336 243.488 67.0336C247.779 67.0336 251.266 70.4905 251.266 74.7517C251.266 79.0129 247.782 82.4699 243.488 82.4699V82.4734Z" fill="white"/>
<path d="M223.254 60.529H219.245C211.626 60.529 205.453 66.4004 205.453 73.6389V85.4213C205.453 85.4213 205.453 85.4393 205.453 85.4464V88.9326C205.453 89.2708 205.745 89.5478 206.1 89.5478H212.239C212.595 89.5478 212.887 89.2708 212.887 88.9326V73.1172C212.887 69.3037 216.138 66.2097 220.154 66.2097H223.485C223.833 66.2097 224.075 65.9435 224.075 65.6521V61.3061C224.075 60.8744 223.708 60.5254 223.254 60.5254V60.529Z" fill="white"/>
<path d="M275.574 58.8673C273.338 58.8673 271.232 59.4319 269.393 60.4236V53.0058C269.393 52.6741 269.123 52.4023 268.792 52.4023H263.089C262.759 52.4023 262.488 52.6741 262.488 53.0058V71.8114C262.488 71.8784 262.484 71.9455 262.484 72.009V82.4546H262.488V86.6258C262.488 86.9575 262.759 87.2292 263.089 87.2292H268.792C269.123 87.2292 269.393 86.9575 269.393 86.6258V71.7514C269.393 68.6248 271.918 65.6993 275.019 65.424C278.682 65.1029 281.759 67.9931 281.759 71.6067V86.6399C281.759 86.9645 282.019 87.2257 282.343 87.2257H288.084C288.408 87.2257 288.671 86.961 288.671 86.6364V72.0055C288.671 64.7465 282.81 58.8638 275.578 58.8638L275.574 58.8673Z" fill="white"/>
<path d="M439.97 78.8634C439.97 80.802 439.51 82.4872 438.591 83.9188C437.671 85.3505 436.328 86.454 434.561 87.2295C432.81 88.005 430.678 88.3927 428.167 88.3927C427.058 88.3927 425.97 88.3182 424.904 88.169C423.853 88.0199 422.839 87.8037 421.861 87.5203C420.897 87.2221 419.977 86.8567 419.102 86.4242V79.9818C420.62 80.6678 422.196 81.2867 423.831 81.8385C425.467 82.3903 427.087 82.6662 428.693 82.6662C429.802 82.6662 430.693 82.517 431.364 82.2188C432.05 81.9205 432.547 81.5104 432.853 80.9884C433.16 80.4665 433.313 79.87 433.313 79.1989C433.313 78.3787 433.043 77.6778 432.503 77.0962C431.963 76.5146 431.218 75.9702 430.269 75.4632C429.335 74.9562 428.277 74.4118 427.094 73.8302C426.35 73.4723 425.54 73.0398 424.664 72.5328C423.788 72.0109 422.956 71.3771 422.167 70.6314C421.379 69.8858 420.729 68.9835 420.218 67.9247C419.722 66.851 419.474 65.5685 419.474 64.0772C419.474 62.1236 419.912 60.4533 420.788 59.0664C421.664 57.6795 422.912 56.6207 424.532 55.89C426.167 55.1443 428.094 54.7715 430.313 54.7715C431.977 54.7715 433.561 54.9728 435.065 55.3755C436.583 55.7632 438.167 56.3299 439.817 57.0755L437.627 62.4666C436.153 61.8551 434.831 61.3854 433.664 61.0573C432.496 60.7143 431.306 60.5428 430.094 60.5428C429.248 60.5428 428.525 60.6845 427.926 60.9678C427.328 61.2362 426.875 61.624 426.569 62.131C426.262 62.6232 426.109 63.1973 426.109 63.8535C426.109 64.6289 426.328 65.2851 426.766 65.822C427.218 66.3439 427.89 66.851 428.78 67.3431C429.685 67.8352 430.81 68.4094 432.153 69.0655C433.788 69.8559 435.182 70.6836 436.335 71.5486C437.503 72.3986 438.401 73.4052 439.029 74.5684C439.656 75.7167 439.97 77.1484 439.97 78.8634Z" fill="white"/>
<path d="M406.081 60.5428C404.781 60.5428 403.628 60.8038 402.621 61.3257C401.628 61.8328 400.789 62.571 400.102 63.5403C399.431 64.5096 398.92 65.6803 398.57 67.0523C398.219 68.4243 398.044 69.9678 398.044 71.6828C398.044 73.9943 398.321 75.9702 398.876 77.6107C399.445 79.2362 400.321 80.4814 401.504 81.3464C402.686 82.1964 404.212 82.6214 406.081 82.6214C407.38 82.6214 408.679 82.4723 409.978 82.174C411.292 81.8758 412.716 81.4507 414.248 80.899V86.715C412.832 87.3115 411.438 87.7366 410.066 87.9901C408.694 88.2585 407.154 88.3927 405.445 88.3927C402.146 88.3927 399.431 87.6993 397.299 86.3124C395.183 84.9106 393.613 82.957 392.591 80.4516C391.57 77.9313 391.059 74.9934 391.059 71.638C391.059 69.1625 391.387 66.8957 392.044 64.8377C392.701 62.7797 393.664 60.9976 394.935 59.4914C396.205 57.9852 397.774 56.822 399.643 56.0018C401.511 55.1816 403.657 54.7715 406.081 54.7715C407.672 54.7715 409.263 54.9803 410.854 55.3978C412.46 55.8005 413.993 56.3597 415.453 57.0755L413.263 62.7126C412.066 62.131 410.862 61.624 409.65 61.1915C408.438 60.759 407.248 60.5428 406.081 60.5428Z" fill="white"/>
<path d="M385.837 71.5445C385.837 74.0647 385.531 76.3613 384.917 78.4342C384.304 80.4922 383.37 82.2669 382.115 83.7582C380.874 85.2495 379.297 86.3977 377.385 87.203C375.472 87.9934 373.209 88.3886 370.596 88.3886C367.983 88.3886 365.72 87.9934 363.808 87.203C361.896 86.3977 360.312 85.2495 359.056 83.7582C357.815 82.2669 356.888 80.4848 356.275 78.4119C355.662 76.339 355.355 74.0349 355.355 71.4997C355.355 68.1145 355.896 65.1692 356.976 62.6638C358.071 60.1435 359.75 58.1899 362.012 56.803C364.275 55.4161 367.151 54.7227 370.64 54.7227C374.115 54.7227 376.969 55.4161 379.202 56.803C381.45 58.1899 383.115 60.1435 384.195 62.6638C385.29 65.1841 385.837 68.1443 385.837 71.5445ZM362.472 71.5445C362.472 73.8261 362.75 75.7946 363.304 77.45C363.874 79.0904 364.757 80.358 365.954 81.2528C367.151 82.1326 368.699 82.5726 370.596 82.5726C372.523 82.5726 374.085 82.1326 375.282 81.2528C376.48 80.358 377.348 79.0904 377.888 77.45C378.443 75.7946 378.72 73.8261 378.72 71.5445C378.72 68.1145 378.093 65.4152 376.837 63.4467C375.582 61.4782 373.516 60.494 370.64 60.494C368.728 60.494 367.166 60.9414 365.954 61.8361C364.757 62.716 363.874 63.9836 363.304 65.6389C362.75 67.2794 362.472 69.2479 362.472 71.5445Z" fill="white"/>
<path d="M350.144 71.2879C350.144 74.9714 349.451 78.0509 348.064 80.5265C346.691 82.9871 344.699 84.8438 342.086 86.0965C339.473 87.3342 336.327 87.9531 332.648 87.9531H323.582V55.249H333.633C336.991 55.249 339.903 55.8605 342.37 57.0833C344.837 58.2913 346.75 60.0883 348.108 62.4743C349.465 64.8455 350.144 67.7834 350.144 71.2879ZM343.093 71.4669C343.093 69.051 342.743 67.0675 342.042 65.5166C341.356 63.9507 340.334 62.795 338.976 62.0493C337.633 61.3037 335.969 60.9309 333.983 60.9309H330.37V82.2265H333.283C336.597 82.2265 339.056 81.3243 340.662 79.5198C342.283 77.7154 343.093 75.031 343.093 71.4669Z" fill="white"/>
<path d="M306.121 49.4834L306.121 92.4366" stroke="white" stroke-width="8"/>
<defs>
<linearGradient id="paint0_linear_1208_22422" x1="391.276" y1="199.008" x2="404.096" y2="182.376" gradientUnits="userSpaceOnUse">
<stop offset="0.26" stop-color="#40F0C1"/>
<stop offset="1" stop-color="#BFFD3E"/>
</linearGradient>
<linearGradient id="paint1_linear_1208_22422" x1="388.124" y1="197.079" x2="398.642" y2="180.816" gradientUnits="userSpaceOnUse">
<stop stop-color="#40F0C1"/>
<stop offset="1" stop-color="#BFFD3E"/>
</linearGradient>
<linearGradient id="paint2_linear_1208_22422" x1="33.2929" y1="477.547" x2="57.0997" y2="445.242" gradientUnits="userSpaceOnUse">
<stop offset="0.25822" stop-color="#40F0C1"/>
<stop offset="1" stop-color="#BFFD3E"/>
</linearGradient>
<linearGradient id="paint3_linear_1208_22422" x1="25.3782" y1="472.653" x2="44.7759" y2="441.282" gradientUnits="userSpaceOnUse">
<stop stop-color="#40F0C1"/>
<stop offset="1" stop-color="#BFFD3E"/>
</linearGradient>
<clipPath id="clip0_1208_22422">
<rect width="12" height="12" fill="white" transform="translate(300.297 455.166)"/>
</clipPath>
<clipPath id="clip1_1208_22422">
<rect width="24" height="24" fill="white" transform="translate(374.297 449.166)"/>
</clipPath>
<clipPath id="clip2_1208_22422">
<rect width="24" height="24" fill="white" transform="translate(414.297 449.166)"/>
</clipPath>
<clipPath id="clip3_1208_22422">
<rect width="23" height="23" fill="white" transform="translate(454.297 449.166)"/>
</clipPath>
</defs>
</svg>
