<svg width="24" height="24" viewBox="0 0 24 24" fill="none" xmlns="http://www.w3.org/2000/svg">
<path fill-rule="evenodd" clip-rule="evenodd" d="M16.5414 2.13818L17.0586 3.86227L12.3 5.28987V7.7817L19.7277 5.49625L21.5699 10.1016L12.3 13.8096V16.5002L14.7 16.5002V21.9002L1.5 21.9003V16.5003H3.9V5.93064L16.5414 2.13818ZM5.7 7.26989V16.5003H10.5V12.5909L19.2301 9.09889L18.6723 7.70428L10.5 10.2188V5.82988L5.7 7.26989ZM12.9 18.3002L3.3 18.3003V20.1003L12.9 20.1002V18.3002Z" fill="#14A800"/>
<path d="M19.3439 14.5012L20.4 12.6002L21.4561 14.5012C21.5505 14.6711 21.6 14.8622 21.6 15.0566C21.6 15.6882 21.088 16.2002 20.4563 16.2002H20.3436C19.712 16.2002 19.2 15.6882 19.2 15.0566C19.2 14.8622 19.2495 14.6711 19.3439 14.5012Z" fill="#14A800"/>
<path d="M20.4 17.4002L19.3439 19.3012C19.2495 19.4711 19.2 19.6622 19.2 19.8566C19.2 20.4882 19.712 21.0002 20.3436 21.0002H20.4563C21.088 21.0002 21.6 20.4882 21.6 19.8566C21.6 19.6622 21.5505 19.4711 21.4561 19.3012L20.4 17.4002Z" fill="#14A800"/>
</svg>
