<svg width="24" height="24" viewBox="0 0 24 24" fill="none" xmlns="http://www.w3.org/2000/svg">
<path d="M5.32998 3.27219C5.95393 3.04969 6.6282 3.00882 7.27445 3.15434C7.9207 3.29986 8.51238 3.62579 8.98074 4.09425C9.44909 4.56271 9.77489 5.15447 9.92027 5.80075C10.0656 6.44703 10.0246 7.1213 9.80198 7.74519L20.647 18.5902L18.525 20.7112L7.67998 9.86719C7.05593 10.0898 6.38151 10.1307 5.73513 9.98519C5.08874 9.83964 4.49694 9.51361 4.02854 9.045C3.56014 8.57639 3.23437 7.98445 3.08911 7.33799C2.94386 6.69154 2.98508 6.01714 3.20798 5.39319L5.44398 7.63019C5.72689 7.90343 6.10579 8.05462 6.49908 8.0512C6.89238 8.04778 7.2686 7.89003 7.54671 7.61192C7.82482 7.33381 7.98258 6.95759 7.98599 6.56429C7.98941 6.171 7.83822 5.79209 7.56498 5.50919L5.32998 3.27219ZM15.697 5.15519L18.879 3.38719L20.293 4.80219L18.525 7.98319L16.757 8.33719L14.637 10.4582L13.222 9.04419L15.343 6.92319L15.697 5.15519ZM8.62598 12.9332L10.747 15.0552L5.79698 20.0052C5.52402 20.2756 5.1577 20.431 4.77356 20.4392C4.38943 20.4475 4.01677 20.308 3.73244 20.0496C3.4481 19.7912 3.27378 19.4335 3.24541 19.0503C3.21705 18.6671 3.3368 18.2877 3.57998 17.9902L3.67698 17.8832L8.62698 12.9332H8.62598Z" fill="#14A800"/>
</svg>
