<svg width="24" height="24" viewBox="0 0 24 24" fill="none" xmlns="http://www.w3.org/2000/svg">
<path d="M15.5 15.4503C16.0247 15.4503 16.45 15.025 16.45 14.5003C16.45 13.9756 16.0247 13.5503 15.5 13.5503C14.9754 13.5503 14.55 13.9756 14.55 14.5003C14.55 15.025 14.9754 15.4503 15.5 15.4503Z" fill="#14A800"/>
<path fill-rule="evenodd" clip-rule="evenodd" d="M3.10004 6.5001C3.10004 4.62233 4.62227 3.1001 6.50004 3.1001H16.9V8.1001H20.9V20.9001H7.00004C4.84613 20.9001 3.10004 19.154 3.10004 17.0001V6.5001ZM4.90004 9.50086V17.0001C4.90004 18.1599 5.84024 19.1001 7.00004 19.1001H19.1V9.9001H6.50004C5.9216 9.9001 5.3769 9.75565 4.90004 9.50086ZM4.90004 6.5001C4.90004 7.38375 5.61638 8.1001 6.50004 8.1001H15.1V4.9001H6.50004C5.61638 4.9001 4.90004 5.61644 4.90004 6.5001Z" fill="#14A800"/>
</svg>
