<svg width="24" height="24" viewBox="0 0 24 24" fill="none" xmlns="http://www.w3.org/2000/svg">
<path d="M5.4 3.6001L9 8.4001H6.3V15.8549C6.3 17.2053 7.39478 18.3001 8.74525 18.3001C10.0957 18.3001 11.1905 17.2053 11.1905 15.8549V8.05485C11.1905 5.76024 13.0506 3.9001 15.3452 3.9001C17.6399 3.9001 19.5 5.76024 19.5 8.05485V15.6001H22.2L18.6 20.4001L15 15.6001H17.7V8.05485C17.7 6.75436 16.6457 5.7001 15.3452 5.7001C14.0448 5.7001 12.9905 6.75436 12.9905 8.05485V15.8549C12.9905 18.1994 11.0898 20.1001 8.74525 20.1001C6.40066 20.1001 4.5 18.1994 4.5 15.8549V8.4001H1.8L5.4 3.6001Z" fill="#14A800"/>
</svg>
