<svg width="24" height="24" viewBox="0 0 24 24" fill="none" xmlns="http://www.w3.org/2000/svg">
<path fill-rule="evenodd" clip-rule="evenodd" d="M16.8 3.9001C15.6402 3.9001 14.7 4.8403 14.7 6.0001C14.7 7.1599 15.6402 8.1001 16.8 8.1001C17.9598 8.1001 18.9 7.1599 18.9 6.0001C18.9 4.8403 17.9598 3.9001 16.8 3.9001ZM12.9 6.0001C12.9 3.84619 14.6461 2.1001 16.8 2.1001C18.9539 2.1001 20.7 3.84619 20.7 6.0001C20.7 8.15401 18.9539 9.9001 16.8 9.9001C15.8617 9.9001 15.0007 9.56872 14.3278 9.0166L9.92896 12.8045C10.2927 13.454 10.5 14.2028 10.5 15.0001C10.5 15.0813 10.4978 15.1621 10.4936 15.2422L16.9546 16.9277C17.5283 15.9537 18.5878 15.3001 19.8 15.3001C21.6225 15.3001 23.1 16.7776 23.1 18.6001C23.1 20.4226 21.6225 21.9001 19.8 21.9001C18.0007 21.9001 16.5377 20.46 16.5007 18.6695L10.0401 16.9842C9.30684 18.4745 7.77319 19.5001 6 19.5001C3.51472 19.5001 1.5 17.4854 1.5 15.0001C1.5 12.5148 3.51472 10.5001 6 10.5001C7.03742 10.5001 7.99284 10.8511 8.75396 11.4409L13.2345 7.58271C13.0195 7.09905 12.9 6.56352 12.9 6.0001ZM6 12.3001C4.50883 12.3001 3.3 13.5089 3.3 15.0001C3.3 16.4913 4.50883 17.7001 6 17.7001C7.49117 17.7001 8.7 16.4913 8.7 15.0001C8.7 13.5089 7.49117 12.3001 6 12.3001ZM19.8 17.1001C18.9716 17.1001 18.3 17.7717 18.3 18.6001C18.3 19.4285 18.9716 20.1001 19.8 20.1001C20.6284 20.1001 21.3 19.4285 21.3 18.6001C21.3 17.7717 20.6284 17.1001 19.8 17.1001Z" fill="#14A800"/>
</svg>
