<svg width="24" height="24" viewBox="0 0 24 24" fill="none" xmlns="http://www.w3.org/2000/svg">
<path fill-rule="evenodd" clip-rule="evenodd" d="M17.6945 1.48975L20.7799 5.16676L19.401 6.32378L16.3156 2.64676L17.6945 1.48975ZM14.699 1.65356L20.0984 8.08833L16.942 10.7368C17.0445 11.0391 17.1 11.363 17.1 11.6999C17.1 12.4943 16.7908 13.2162 16.2881 13.7522C16.4268 14.3464 16.5 14.9651 16.5 15.5999C16.5 18.1445 15.3267 20.415 13.4916 21.8999H21.6V23.6999H3.59999V21.8999H8.39999C11.8794 21.8999 14.7 19.0793 14.7 15.5999C14.7 15.2778 14.6759 14.9617 14.6295 14.6532C14.4574 14.6839 14.2805 14.6999 14.1 14.6999C13.5774 14.6999 13.086 14.5663 12.6582 14.3314L9.06733 17.3445L9.64584 18.0339L8.26696 19.1909L1.71053 11.3773L3.08941 10.2203L3.66791 10.9097L14.699 1.65356ZM4.82493 12.2886L7.91031 15.9656L11.4098 13.0292C11.2115 12.6285 11.1 12.1772 11.1 11.6999C11.1 10.0431 12.4431 8.69993 14.1 8.69993C14.7645 8.69993 15.3786 8.91601 15.8758 9.28174L17.5625 7.86647L14.4771 4.18945L4.82493 12.2886ZM14.1 10.4999C13.4373 10.4999 12.9 11.0372 12.9 11.6999C12.9 12.3627 13.4373 12.8999 14.1 12.8999C14.3491 12.8999 14.578 12.825 14.7687 12.6966C15.0911 12.4795 15.3 12.114 15.3 11.6999C15.3 11.0372 14.7627 10.4999 14.1 10.4999Z" fill="#14A800"/>
</svg>
