<svg width="24" height="24" viewBox="0 0 24 24" fill="none" xmlns="http://www.w3.org/2000/svg">
<path fill-rule="evenodd" clip-rule="evenodd" d="M8.99998 3.9001C7.56404 3.9001 6.39998 5.06416 6.39998 6.5001C6.39998 7.93604 7.56404 9.1001 8.99998 9.1001C10.4359 9.1001 11.6 7.93604 11.6 6.5001C11.6 5.06416 10.4359 3.9001 8.99998 3.9001ZM4.59998 6.5001C4.59998 4.07005 6.56992 2.1001 8.99998 2.1001C11.43 2.1001 13.4 4.07005 13.4 6.5001C13.4 8.93015 11.43 10.9001 8.99998 10.9001C6.56992 10.9001 4.59998 8.93015 4.59998 6.5001ZM14.1 2.1001H15C17.43 2.1001 19.4 4.07005 19.4 6.5001C19.4 8.93015 17.43 10.9001 15 10.9001H14.1V9.1001H15C16.4359 9.1001 17.6 7.93604 17.6 6.5001C17.6 5.06416 16.4359 3.9001 15 3.9001H14.1V2.1001ZM1.97834 19.1001H16.0216C15.5198 16.2348 12.6609 13.9001 8.99998 13.9001C5.33906 13.9001 2.4802 16.2348 1.97834 19.1001ZM0.0999757 20.0001C0.0999759 15.5279 4.20129 12.1001 8.99998 12.1001C13.7987 12.1001 17.9 15.5279 17.9 20.0001V20.9001H0.0999756L0.0999757 20.0001ZM17.4521 12.3601L18.3005 12.6606C21.5196 13.8008 23.9 16.61 23.9 20.0001V20.9001H19.6V19.1001H22.0224C21.6562 16.9897 20.0199 15.1791 17.6995 14.3573L16.8511 14.0568L17.4521 12.3601Z" fill="#14A800"/>
</svg>
