<svg width="24" height="24" viewBox="0 0 24 24" fill="none" xmlns="http://www.w3.org/2000/svg">
<path d="M5.4 3.60001L9 8.40001H6.3V15.8548C6.3 17.2052 7.39477 18.3 8.74524 18.3C10.0957 18.3 11.1905 17.2052 11.1905 15.8548V8.05476C11.1905 5.76015 13.0506 3.90001 15.3452 3.90001C17.6399 3.90001 19.5 5.76015 19.5 8.05476V15.6H22.2L18.6 20.4L15 15.6H17.7V8.05476C17.7 6.75427 16.6457 5.70001 15.3452 5.70001C14.0447 5.70001 12.9905 6.75427 12.9905 8.05476V15.8548C12.9905 18.1993 11.0898 20.1 8.74524 20.1C6.40066 20.1 4.5 18.1993 4.5 15.8548V8.40001H1.8L5.4 3.60001Z" fill="#14A800"/>
</svg>
