<svg width="24" height="24" viewBox="0 0 24 24" fill="none" xmlns="http://www.w3.org/2000/svg">
<path fill-rule="evenodd" clip-rule="evenodd" d="M14.9034 14.9036L16.0647 7.93543L9.09658 9.09678L7.93522 16.0649L14.9034 14.9036ZM10.125 13.8751L10.6607 10.6609L13.8749 10.1252L13.3392 13.3394L10.125 13.8751Z" fill="#14A800"/>
<path fill-rule="evenodd" clip-rule="evenodd" d="M12 2.10001C6.53238 2.10001 2.1 6.53239 2.1 12C2.1 17.4676 6.53238 21.9 12 21.9C17.4676 21.9 21.9 17.4676 21.9 12C21.9 6.53239 17.4676 2.10001 12 2.10001ZM3.9 12C3.9 7.5265 7.52649 3.90001 12 3.90001C16.4735 3.90001 20.1 7.5265 20.1 12C20.1 16.4735 16.4735 20.1 12 20.1C7.52649 20.1 3.9 16.4735 3.9 12Z" fill="#14A800"/>
</svg>
