
<svg width="350" height="114" viewBox="0 0 350 114" fill="none" xmlns="http://www.w3.org/2000/svg">
<path d="M313.125 14.4512H321.063V34.6813C321.063 35.5647 321.348 36.0948 321.917 36.2714C322.486 36.3892 323.169 36.0359 323.966 35.2113C325.161 33.9157 326.47 32.9145 327.892 32.2077C329.372 31.4421 331.022 31.0593 332.843 31.0593H336.599C339.046 31.0593 341.294 31.7955 343.342 33.2678C345.391 34.7402 347.013 36.772 348.208 39.3634C349.403 41.8958 350 44.7522 350 47.9325V76.2899H342.062V48.9926C342.062 46.9902 341.749 45.1939 341.123 43.6038C340.497 41.9547 339.586 40.6885 338.391 39.8051C337.196 38.8628 335.831 38.3916 334.294 38.3916H331.05C329.116 38.3916 327.38 39.0395 325.844 40.3351C324.364 41.6308 323.197 43.3682 322.344 45.5473C321.49 47.6675 321.063 49.9643 321.063 52.4379V76.2899H313.125V14.4512Z" fill="#14A800"/>
<path d="M288.852 31.0596C292.38 31.0596 295.51 32.0608 298.242 34.0632C301.03 36.0656 303.193 38.8336 304.729 42.3672C306.322 45.842 307.119 49.729 307.119 54.0283C307.119 58.2687 306.351 62.1557 304.814 65.6894C303.278 69.1641 301.116 71.9322 298.327 73.9934C295.596 75.9958 292.466 76.997 288.938 76.997H286.633C285.153 76.997 283.645 76.6731 282.109 76.0253C280.572 75.3186 279.178 74.4057 277.926 73.2867C277.129 72.6389 276.447 72.4328 275.878 72.6683C275.365 72.9039 275.109 73.4634 275.109 74.3468V94.3119H267.171V31.7663H275.109V33.7981C275.109 34.6816 275.394 35.2411 275.963 35.4766C276.532 35.7122 277.186 35.5061 277.926 34.8582C279.178 33.6804 280.544 32.7675 282.023 32.1197C283.56 31.4129 285.096 31.0596 286.633 31.0596H288.852ZM285.182 38.2152C283.19 38.2152 281.369 38.8925 279.719 40.2471C278.125 41.5427 276.845 43.4273 275.878 45.9009C274.91 48.3155 274.426 51.0247 274.426 54.0283C274.426 57.0319 274.91 59.7705 275.878 62.2441C276.845 64.6587 278.125 66.5433 279.719 67.8979C281.369 69.1936 283.19 69.8414 285.182 69.8414H288.255C290.133 69.8414 291.868 69.1936 293.462 67.8979C295.112 66.5433 296.421 64.6587 297.388 62.2441C298.412 59.7705 298.925 57.0319 298.925 54.0283C298.925 51.0247 298.412 48.3155 297.388 45.9009C296.421 43.4273 295.112 41.5427 293.462 40.2471C291.868 38.8925 290.133 38.2152 288.255 38.2152H285.182Z" fill="#14A800"/>
<path d="M256.95 38.7456C255.129 38.7456 253.564 39.3934 252.256 40.6891C251.004 41.9258 250.036 43.516 249.353 45.4595C248.671 47.3441 248.329 49.1993 248.329 51.025V76.2904H240.391V31.7666H248.329V34.1518C248.329 35.0941 248.585 35.6536 249.097 35.8303C249.609 35.9481 250.179 35.6536 250.804 34.9469C251.658 33.8279 252.597 33.0328 253.621 32.5617C254.703 32.0316 256.04 31.7666 257.633 31.7666H262.84V38.7456H256.95Z" fill="#14A800"/>
<path d="M212.649 76.997C209.121 76.997 205.934 76.0253 203.089 74.0818C200.301 72.0794 198.081 69.3408 196.431 65.8661C194.838 62.3324 194.041 58.3864 194.041 54.0283C194.041 49.6701 194.838 45.7537 196.431 42.2789C198.081 38.7453 200.301 36.0067 203.089 34.0632C205.934 32.0608 209.121 31.0596 212.649 31.0596H215.808C219.279 31.0596 222.437 32.0608 225.283 34.0632C228.128 36.0067 230.347 38.7453 231.941 42.2789C233.591 45.7537 234.416 49.6701 234.416 54.0283C234.416 58.3864 233.591 62.3324 231.941 65.8661C230.347 69.3408 228.128 72.0794 225.283 74.0818C222.494 76.0253 219.336 76.997 215.808 76.997H212.649ZM215.808 69.8414C217.686 69.8414 219.421 69.1641 221.015 67.8096C222.665 66.455 223.945 64.5704 224.856 62.1557C225.766 59.741 226.222 57.0319 226.222 54.0283C226.222 51.0247 225.766 48.345 224.856 45.9892C223.945 43.5746 222.665 41.69 221.015 40.3354C219.421 38.9219 217.657 38.2152 215.722 38.2152H212.649C210.715 38.2152 208.95 38.8925 207.357 40.2471C205.764 41.6016 204.483 43.4862 203.516 45.9009C202.605 48.2567 202.15 50.9658 202.15 54.0283C202.15 57.0908 202.605 59.8294 203.516 62.2441C204.483 64.5998 205.764 66.455 207.357 67.8096C208.95 69.1641 210.715 69.8414 212.649 69.8414H215.808Z" fill="#14A800"/>
<path d="M129.91 14.4512H140.922L157.481 59.6819C157.823 60.6242 158.335 61.0953 159.018 61.0953C159.701 61.0953 160.213 60.6242 160.554 59.6819L177.114 14.4512H188.211V76.2899H180.016L180.102 35.7414C180.102 35.0936 179.902 34.6519 179.504 34.4163C179.163 34.1218 178.764 34.0629 178.309 34.2396C177.911 34.3574 177.626 34.6813 177.455 35.2113L162.261 76.2899H155.689L140.665 35.2113C140.438 34.6813 140.096 34.3574 139.641 34.2396C139.243 34.0629 138.873 34.1218 138.531 34.4163C138.19 34.7107 138.019 35.1525 138.019 35.7414L138.105 76.2899H129.91V14.4512Z" fill="#14A800"/>
<path fill-rule="evenodd" clip-rule="evenodd" d="M0 92.0218H31.8432V44.1014C31.8432 42.5651 33.9741 42.3184 34.3021 43.8167L41.905 78.5424H61.0107V66.7378C61.0107 66.0262 61.5685 65.4495 62.2555 65.4495H92.4728V0H60.6296V11.8047C60.6296 12.5162 60.0723 13.093 59.3847 13.093H27.5755L30.1823 24.9995C30.3588 25.8055 29.7668 26.5725 28.9683 26.5725H0V92.0218Z" fill="#14A800"/>
<path d="M345.412 110.641V101.673H346.743V103.028H346.837C347 102.584 347.296 102.224 347.724 101.948C348.152 101.671 348.635 101.533 349.172 101.533C349.273 101.533 349.4 101.535 349.552 101.539C349.703 101.543 349.818 101.549 349.896 101.557V102.958C349.849 102.946 349.742 102.929 349.575 102.905C349.411 102.878 349.238 102.864 349.055 102.864C348.619 102.864 348.23 102.956 347.888 103.139C347.549 103.318 347.28 103.567 347.082 103.886C346.887 104.201 346.79 104.561 346.79 104.966V110.641H345.412Z" fill="#14A800"/>
<path d="M339.355 110.828C338.491 110.828 337.746 110.637 337.119 110.256C336.496 109.871 336.016 109.333 335.677 108.645C335.342 107.952 335.175 107.146 335.175 106.227C335.175 105.309 335.342 104.499 335.677 103.799C336.016 103.094 336.487 102.545 337.09 102.152C337.697 101.755 338.405 101.557 339.215 101.557C339.682 101.557 340.143 101.634 340.599 101.79C341.054 101.946 341.469 102.199 341.842 102.549C342.216 102.896 342.514 103.355 342.736 103.927C342.957 104.499 343.068 105.204 343.068 106.041V106.624H336.156V105.433H341.667C341.667 104.927 341.566 104.476 341.364 104.079C341.165 103.682 340.881 103.369 340.511 103.139C340.145 102.909 339.713 102.794 339.215 102.794C338.666 102.794 338.191 102.931 337.79 103.203C337.393 103.472 337.088 103.822 336.874 104.254C336.66 104.686 336.553 105.149 336.553 105.644V106.438C336.553 107.115 336.669 107.689 336.903 108.16C337.14 108.627 337.469 108.983 337.89 109.228C338.31 109.47 338.799 109.59 339.355 109.59C339.717 109.59 340.044 109.54 340.336 109.439C340.632 109.333 340.887 109.178 341.101 108.972C341.315 108.761 341.48 108.501 341.597 108.189L342.928 108.563C342.788 109.014 342.553 109.411 342.222 109.754C341.891 110.092 341.482 110.357 340.996 110.548C340.509 110.735 339.962 110.828 339.355 110.828Z" fill="#14A800"/>
<path d="M327.406 114.004C327.173 114.004 326.965 113.984 326.782 113.945C326.599 113.91 326.472 113.875 326.402 113.84L326.753 112.626C327.087 112.711 327.383 112.743 327.64 112.719C327.897 112.696 328.125 112.581 328.323 112.375C328.525 112.172 328.71 111.843 328.878 111.388L329.135 110.687L325.818 101.673H327.313L329.789 108.819H329.882L332.357 101.673H333.852L330.045 111.949C329.874 112.412 329.662 112.795 329.409 113.099C329.156 113.406 328.862 113.634 328.527 113.782C328.197 113.93 327.823 114.004 327.406 114.004Z" fill="#14A800"/>
<path d="M319.969 110.851C319.4 110.851 318.885 110.744 318.421 110.53C317.958 110.312 317.59 109.999 317.318 109.59C317.045 109.178 316.909 108.68 316.909 108.096C316.909 107.582 317.01 107.165 317.213 106.846C317.415 106.523 317.686 106.27 318.024 106.087C318.363 105.904 318.737 105.768 319.145 105.679C319.558 105.585 319.972 105.511 320.389 105.457C320.934 105.387 321.376 105.334 321.714 105.299C322.057 105.26 322.306 105.196 322.462 105.106C322.621 105.017 322.701 104.861 322.701 104.639V104.593C322.701 104.017 322.543 103.569 322.228 103.25C321.917 102.931 321.444 102.771 320.809 102.771C320.151 102.771 319.636 102.915 319.262 103.203C318.888 103.491 318.626 103.799 318.474 104.126L317.166 103.658C317.4 103.114 317.711 102.689 318.1 102.386C318.493 102.078 318.921 101.864 319.385 101.743C319.852 101.619 320.311 101.557 320.763 101.557C321.051 101.557 321.381 101.592 321.755 101.662C322.133 101.728 322.497 101.866 322.847 102.076C323.201 102.286 323.495 102.604 323.729 103.028C323.962 103.452 324.079 104.02 324.079 104.733V110.641H322.701V109.427H322.631C322.537 109.622 322.382 109.83 322.164 110.052C321.946 110.273 321.656 110.462 321.294 110.618C320.932 110.774 320.49 110.851 319.969 110.851ZM320.179 109.614C320.724 109.614 321.183 109.507 321.557 109.293C321.934 109.079 322.218 108.802 322.409 108.464C322.604 108.125 322.701 107.769 322.701 107.395V106.134C322.643 106.204 322.514 106.268 322.316 106.327C322.121 106.381 321.895 106.43 321.638 106.473C321.385 106.512 321.138 106.547 320.897 106.578C320.659 106.605 320.467 106.628 320.319 106.648C319.961 106.694 319.626 106.77 319.315 106.875C319.007 106.977 318.758 107.13 318.567 107.337C318.38 107.539 318.287 107.815 318.287 108.166C318.287 108.645 318.464 109.007 318.818 109.252C319.176 109.493 319.63 109.614 320.179 109.614Z" fill="#14A800"/>
<path d="M308.021 110.641V98.6836H309.468V109.356H315.027V110.641H308.021Z" fill="#14A800"/>
<path d="M296.6 110.641V101.673H297.931V103.028H298.024C298.188 102.584 298.483 102.224 298.912 101.948C299.34 101.671 299.822 101.533 300.36 101.533C300.461 101.533 300.587 101.535 300.739 101.539C300.891 101.543 301.006 101.549 301.084 101.557V102.958C301.037 102.946 300.93 102.929 300.762 102.905C300.599 102.878 300.426 102.864 300.243 102.864C299.807 102.864 299.418 102.956 299.075 103.139C298.736 103.318 298.468 103.567 298.269 103.886C298.075 104.201 297.977 104.561 297.977 104.966V110.641H296.6Z" fill="#14A800"/>
<path d="M290.544 110.828C289.68 110.828 288.934 110.637 288.307 110.256C287.685 109.871 287.204 109.333 286.865 108.645C286.531 107.952 286.363 107.146 286.363 106.227C286.363 105.309 286.531 104.499 286.865 103.799C287.204 103.094 287.675 102.545 288.278 102.152C288.886 101.755 289.594 101.557 290.404 101.557C290.871 101.557 291.332 101.634 291.787 101.79C292.243 101.946 292.657 102.199 293.031 102.549C293.404 102.896 293.702 103.355 293.924 103.927C294.146 104.499 294.257 105.204 294.257 106.041V106.624H287.344V105.433H292.856C292.856 104.927 292.754 104.476 292.552 104.079C292.354 103.682 292.069 103.369 291.7 103.139C291.334 102.909 290.902 102.794 290.404 102.794C289.855 102.794 289.38 102.931 288.979 103.203C288.582 103.472 288.276 103.822 288.062 104.254C287.848 104.686 287.741 105.149 287.741 105.644V106.438C287.741 107.115 287.858 107.689 288.091 108.16C288.329 108.627 288.658 108.983 289.078 109.228C289.499 109.47 289.987 109.59 290.544 109.59C290.906 109.59 291.233 109.54 291.524 109.439C291.82 109.333 292.075 109.178 292.289 108.972C292.503 108.761 292.669 108.501 292.786 108.189L294.117 108.563C293.977 109.014 293.741 109.411 293.41 109.754C293.079 110.092 292.671 110.357 292.184 110.548C291.698 110.735 291.151 110.828 290.544 110.828Z" fill="#14A800"/>
<path d="M272.248 110.641V101.673H273.579V103.075H273.696C273.883 102.596 274.184 102.224 274.601 101.959C275.017 101.691 275.518 101.557 276.101 101.557C276.693 101.557 277.185 101.691 277.579 101.959C277.976 102.224 278.285 102.596 278.507 103.075H278.6C278.83 102.611 279.174 102.244 279.634 101.971C280.093 101.695 280.644 101.557 281.286 101.557C282.088 101.557 282.744 101.808 283.254 102.31C283.763 102.808 284.018 103.585 284.018 104.639V110.641H282.641V104.639C282.641 103.978 282.46 103.505 282.098 103.221C281.736 102.936 281.309 102.794 280.819 102.794C280.188 102.794 279.7 102.985 279.353 103.367C279.007 103.744 278.834 104.223 278.834 104.803V110.641H277.433V104.499C277.433 103.989 277.267 103.579 276.936 103.267C276.605 102.952 276.179 102.794 275.658 102.794C275.3 102.794 274.965 102.89 274.654 103.08C274.346 103.271 274.097 103.536 273.906 103.875C273.719 104.209 273.626 104.597 273.626 105.036V110.641H272.248Z" fill="#14A800"/>
<path d="M268.099 106.974V101.673H269.477V110.641H268.099V109.123H268.006C267.795 109.578 267.468 109.965 267.025 110.285C266.581 110.6 266.02 110.758 265.343 110.758C264.783 110.758 264.284 110.635 263.849 110.39C263.413 110.141 263.07 109.767 262.821 109.269C262.572 108.767 262.447 108.134 262.447 107.371V101.673H263.825V107.278C263.825 107.932 264.008 108.453 264.374 108.842C264.744 109.232 265.215 109.426 265.787 109.426C266.129 109.426 266.478 109.339 266.832 109.164C267.19 108.988 267.49 108.72 267.731 108.358C267.976 107.996 268.099 107.535 268.099 106.974Z" fill="#14A800"/>
<path d="M259.964 103.682L258.726 104.032C258.649 103.826 258.534 103.625 258.382 103.431C258.234 103.232 258.032 103.069 257.775 102.94C257.518 102.812 257.189 102.748 256.788 102.748C256.239 102.748 255.782 102.874 255.416 103.127C255.054 103.376 254.873 103.694 254.873 104.079C254.873 104.421 254.998 104.692 255.247 104.89C255.496 105.089 255.885 105.254 256.414 105.387L257.745 105.714C258.547 105.908 259.145 106.206 259.538 106.607C259.931 107.004 260.128 107.516 260.128 108.142C260.128 108.656 259.98 109.116 259.684 109.52C259.392 109.925 258.983 110.244 258.458 110.478C257.932 110.711 257.321 110.828 256.625 110.828C255.71 110.828 254.953 110.63 254.353 110.233C253.754 109.836 253.374 109.256 253.215 108.493L254.523 108.166C254.647 108.648 254.883 109.01 255.229 109.252C255.579 109.493 256.037 109.614 256.601 109.614C257.243 109.614 257.753 109.478 258.131 109.205C258.512 108.929 258.703 108.598 258.703 108.213C258.703 107.901 258.594 107.64 258.376 107.43C258.158 107.216 257.823 107.056 257.372 106.951L255.877 106.601C255.056 106.406 254.453 106.105 254.067 105.696C253.686 105.284 253.495 104.768 253.495 104.149C253.495 103.643 253.637 103.195 253.921 102.806C254.209 102.417 254.601 102.111 255.095 101.889C255.593 101.668 256.157 101.557 256.788 101.557C257.675 101.557 258.372 101.751 258.878 102.14C259.388 102.53 259.75 103.044 259.964 103.682Z" fill="#14A800"/>
<path d="M245.124 105.247V110.641H243.746V101.673H245.077V103.075H245.194C245.404 102.619 245.723 102.253 246.152 101.977C246.58 101.697 247.132 101.557 247.81 101.557C248.417 101.557 248.948 101.681 249.404 101.93C249.859 102.176 250.213 102.549 250.466 103.051C250.719 103.55 250.846 104.18 250.846 104.943V110.641H249.468V105.036C249.468 104.332 249.285 103.783 248.919 103.39C248.553 102.993 248.051 102.794 247.413 102.794C246.973 102.794 246.58 102.89 246.233 103.08C245.891 103.271 245.62 103.55 245.422 103.915C245.223 104.281 245.124 104.725 245.124 105.247Z" fill="#14A800"/>
<path d="M237.333 110.828C236.524 110.828 235.813 110.635 235.202 110.25C234.595 109.865 234.12 109.326 233.777 108.633C233.439 107.94 233.27 107.13 233.27 106.204C233.27 105.27 233.439 104.454 233.777 103.758C234.12 103.061 234.595 102.52 235.202 102.135C235.813 101.749 236.524 101.557 237.333 101.557C238.143 101.557 238.851 101.749 239.458 102.135C240.069 102.52 240.544 103.061 240.883 103.758C241.225 104.454 241.397 105.27 241.397 106.204C241.397 107.13 241.225 107.94 240.883 108.633C240.544 109.326 240.069 109.865 239.458 110.25C238.851 110.635 238.143 110.828 237.333 110.828ZM237.333 109.59C237.948 109.59 238.454 109.433 238.851 109.117C239.248 108.802 239.542 108.388 239.733 107.874C239.923 107.36 240.019 106.803 240.019 106.204C240.019 105.605 239.923 105.046 239.733 104.528C239.542 104.011 239.248 103.592 238.851 103.273C238.454 102.954 237.948 102.794 237.333 102.794C236.718 102.794 236.212 102.954 235.815 103.273C235.418 103.592 235.124 104.011 234.933 104.528C234.743 105.046 234.647 105.605 234.647 106.204C234.647 106.803 234.743 107.36 234.933 107.874C235.124 108.388 235.418 108.802 235.815 109.117C236.212 109.433 236.718 109.59 237.333 109.59Z" fill="#14A800"/>
<path d="M231.292 102.421H229.844C229.758 102.004 229.609 101.638 229.395 101.323C229.184 101.008 228.927 100.743 228.624 100.529C228.324 100.311 227.991 100.147 227.625 100.039C227.26 99.9295 226.878 99.875 226.481 99.875C225.757 99.875 225.101 100.058 224.514 100.424C223.93 100.79 223.465 101.329 223.118 102.041C222.776 102.753 222.604 103.627 222.604 104.663C222.604 105.698 222.776 106.572 223.118 107.284C223.465 107.996 223.93 108.535 224.514 108.901C225.101 109.267 225.757 109.45 226.481 109.45C226.878 109.45 227.26 109.396 227.625 109.287C227.991 109.178 228.324 109.016 228.624 108.802C228.927 108.584 229.184 108.317 229.395 108.002C229.609 107.683 229.758 107.317 229.844 106.905H231.292C231.183 107.516 230.985 108.063 230.696 108.545C230.408 109.028 230.05 109.438 229.622 109.777C229.194 110.112 228.713 110.367 228.18 110.542C227.651 110.717 227.084 110.805 226.481 110.805C225.461 110.805 224.554 110.556 223.76 110.057C222.966 109.559 222.342 108.851 221.886 107.932C221.431 107.014 221.203 105.924 221.203 104.663C221.203 103.401 221.431 102.312 221.886 101.393C222.342 100.474 222.966 99.766 223.76 99.2678C224.554 98.7696 225.461 98.5205 226.481 98.5205C227.084 98.5205 227.651 98.6081 228.18 98.7832C228.713 98.9584 229.194 99.2153 229.622 99.5539C230.05 99.8887 230.408 100.297 230.696 100.78C230.985 101.259 231.183 101.806 231.292 102.421Z" fill="#14A800"/>
<path d="M213.841 98.6836V110.641H212.463V98.6836H213.841Z" fill="#14A800"/>
<path d="M205.593 110.851C205.024 110.851 204.509 110.744 204.045 110.53C203.582 110.312 203.214 109.999 202.942 109.59C202.669 109.178 202.533 108.68 202.533 108.096C202.533 107.582 202.634 107.165 202.837 106.846C203.039 106.523 203.31 106.27 203.648 106.087C203.987 105.904 204.361 105.768 204.769 105.679C205.182 105.585 205.596 105.511 206.013 105.457C206.558 105.387 207 105.334 207.338 105.299C207.681 105.26 207.93 105.196 208.086 105.106C208.245 105.017 208.325 104.861 208.325 104.639V104.593C208.325 104.017 208.167 103.569 207.852 103.25C207.541 102.931 207.068 102.771 206.433 102.771C205.776 102.771 205.26 102.915 204.886 103.203C204.512 103.491 204.25 103.799 204.098 104.126L202.79 103.658C203.024 103.114 203.335 102.689 203.724 102.386C204.117 102.078 204.546 101.864 205.009 101.743C205.476 101.619 205.935 101.557 206.387 101.557C206.675 101.557 207.005 101.592 207.379 101.662C207.757 101.728 208.121 101.866 208.471 102.076C208.825 102.286 209.119 102.604 209.353 103.028C209.586 103.452 209.703 104.02 209.703 104.733V110.641H208.325V109.427H208.255C208.161 109.622 208.006 109.83 207.788 110.052C207.57 110.273 207.28 110.462 206.918 110.618C206.556 110.774 206.114 110.851 205.593 110.851ZM205.803 109.614C206.348 109.614 206.807 109.507 207.181 109.293C207.558 109.079 207.842 108.802 208.033 108.464C208.228 108.125 208.325 107.769 208.325 107.395V106.134C208.267 106.204 208.138 106.268 207.94 106.327C207.745 106.381 207.519 106.43 207.262 106.473C207.009 106.512 206.762 106.547 206.521 106.578C206.283 106.605 206.091 106.628 205.943 106.648C205.585 106.694 205.25 106.77 204.939 106.875C204.631 106.977 204.382 107.13 204.191 107.337C204.004 107.539 203.911 107.815 203.911 108.166C203.911 108.645 204.088 109.007 204.442 109.252C204.8 109.493 205.254 109.614 205.803 109.614Z" fill="#14A800"/>
<path d="M192.682 110.641V98.6836H194.06V103.097H194.176C194.277 102.942 194.418 102.743 194.597 102.502C194.78 102.257 195.04 102.039 195.379 101.848C195.722 101.653 196.185 101.556 196.769 101.556C197.524 101.556 198.189 101.745 198.765 102.122C199.341 102.5 199.791 103.035 200.114 103.728C200.437 104.421 200.599 105.238 200.599 106.18C200.599 107.13 200.437 107.953 200.114 108.65C199.791 109.343 199.343 109.88 198.771 110.261C198.199 110.639 197.539 110.828 196.792 110.828C196.216 110.828 195.755 110.732 195.408 110.542C195.062 110.347 194.795 110.127 194.608 109.882C194.422 109.633 194.277 109.426 194.176 109.263H194.013V110.641H192.682ZM194.036 106.157C194.036 106.834 194.135 107.432 194.334 107.949C194.532 108.463 194.822 108.866 195.204 109.158C195.585 109.446 196.052 109.59 196.605 109.59C197.181 109.59 197.662 109.438 198.047 109.134C198.436 108.827 198.728 108.414 198.923 107.897C199.121 107.375 199.221 106.795 199.221 106.157C199.221 105.526 199.123 104.958 198.929 104.452C198.738 103.942 198.448 103.539 198.059 103.243C197.674 102.944 197.189 102.794 196.605 102.794C196.045 102.794 195.574 102.936 195.192 103.22C194.811 103.5 194.523 103.893 194.328 104.399C194.133 104.902 194.036 105.487 194.036 106.157Z" fill="#14A800"/>
<path d="M186.081 110.828C185.272 110.828 184.561 110.635 183.95 110.25C183.343 109.865 182.868 109.326 182.526 108.633C182.187 107.94 182.018 107.13 182.018 106.204C182.018 105.27 182.187 104.454 182.526 103.758C182.868 103.061 183.343 102.52 183.95 102.135C184.561 101.749 185.272 101.557 186.081 101.557C186.891 101.557 187.599 101.749 188.206 102.135C188.817 102.52 189.292 103.061 189.631 103.758C189.973 104.454 190.145 105.27 190.145 106.204C190.145 107.13 189.973 107.94 189.631 108.633C189.292 109.326 188.817 109.865 188.206 110.25C187.599 110.635 186.891 110.828 186.081 110.828ZM186.081 109.59C186.696 109.59 187.202 109.433 187.599 109.117C187.996 108.802 188.29 108.388 188.481 107.874C188.671 107.36 188.767 106.803 188.767 106.204C188.767 105.605 188.671 105.046 188.481 104.528C188.29 104.011 187.996 103.592 187.599 103.273C187.202 102.954 186.696 102.794 186.081 102.794C185.466 102.794 184.96 102.954 184.563 103.273C184.166 103.592 183.872 104.011 183.682 104.528C183.491 105.046 183.395 105.605 183.395 106.204C183.395 106.803 183.491 107.36 183.682 107.874C183.872 108.388 184.166 108.802 184.563 109.117C184.96 109.433 185.466 109.59 186.081 109.59Z" fill="#14A800"/>
<path d="M179.667 98.6836V110.641H178.289V98.6836H179.667Z" fill="#14A800"/>
<path d="M174.186 102.421C174.057 102.027 173.888 101.675 173.678 101.364C173.472 101.049 173.224 100.78 172.936 100.558C172.652 100.336 172.329 100.167 171.967 100.05C171.605 99.9334 171.208 99.875 170.776 99.875C170.068 99.875 169.424 100.058 168.844 100.424C168.264 100.79 167.802 101.329 167.46 102.041C167.117 102.753 166.946 103.627 166.946 104.663C166.946 105.698 167.119 106.572 167.466 107.284C167.812 107.996 168.281 108.535 168.873 108.901C169.464 109.267 170.13 109.45 170.87 109.45C171.555 109.45 172.158 109.304 172.68 109.012C173.205 108.716 173.614 108.3 173.906 107.763C174.201 107.222 174.349 106.585 174.349 105.854L174.793 105.947H171.197V104.663H175.751V105.947C175.751 106.932 175.54 107.788 175.12 108.516C174.704 109.244 174.127 109.808 173.392 110.209C172.66 110.606 171.819 110.805 170.87 110.805C169.811 110.805 168.881 110.556 168.079 110.057C167.281 109.559 166.658 108.851 166.211 107.932C165.767 107.014 165.545 105.924 165.545 104.663C165.545 103.717 165.671 102.866 165.924 102.111C166.181 101.352 166.543 100.706 167.01 100.173C167.477 99.6395 168.03 99.2309 168.669 98.9467C169.307 98.6626 170.009 98.5205 170.776 98.5205C171.407 98.5205 171.994 98.6159 172.539 98.8066C173.088 98.9934 173.577 99.26 174.005 99.6065C174.437 99.949 174.797 100.36 175.085 100.838C175.373 101.313 175.572 101.841 175.681 102.421H174.186Z" fill="#14A800"/>
<path d="M154.899 110.828C154.035 110.828 153.29 110.637 152.663 110.256C152.04 109.871 151.559 109.333 151.221 108.645C150.886 107.952 150.719 107.146 150.719 106.227C150.719 105.309 150.886 104.499 151.221 103.799C151.559 103.094 152.03 102.545 152.634 102.152C153.241 101.755 153.949 101.557 154.759 101.557C155.226 101.557 155.687 101.634 156.143 101.79C156.598 101.946 157.013 102.199 157.386 102.549C157.76 102.896 158.058 103.355 158.28 103.927C158.501 104.499 158.612 105.204 158.612 106.041V106.624H151.7V105.433H157.211C157.211 104.927 157.11 104.476 156.908 104.079C156.709 103.682 156.425 103.369 156.055 103.139C155.689 102.909 155.257 102.794 154.759 102.794C154.21 102.794 153.735 102.931 153.334 103.203C152.937 103.472 152.632 103.822 152.418 104.254C152.204 104.686 152.097 105.149 152.097 105.644V106.438C152.097 107.115 152.213 107.689 152.447 108.16C152.684 108.627 153.013 108.983 153.434 109.228C153.854 109.47 154.342 109.59 154.899 109.59C155.261 109.59 155.588 109.54 155.88 109.439C156.176 109.333 156.431 109.178 156.645 108.972C156.859 108.761 157.024 108.501 157.141 108.189L158.472 108.563C158.332 109.014 158.097 109.411 157.766 109.754C157.435 110.092 157.026 110.357 156.54 110.548C156.053 110.735 155.506 110.828 154.899 110.828Z" fill="#14A800"/>
<path d="M142.556 105.246V110.641H141.178V98.6836H142.556V103.074H142.672C142.883 102.611 143.198 102.243 143.618 101.971C144.042 101.694 144.607 101.556 145.311 101.556C145.922 101.556 146.458 101.679 146.917 101.924C147.376 102.165 147.732 102.537 147.985 103.039C148.242 103.537 148.371 104.172 148.371 104.942V110.641H146.993V105.036C146.993 104.324 146.808 103.773 146.438 103.384C146.072 102.99 145.564 102.794 144.914 102.794C144.463 102.794 144.058 102.889 143.7 103.08C143.346 103.271 143.066 103.549 142.859 103.915C142.657 104.281 142.556 104.724 142.556 105.246Z" fill="#14A800"/>
<path d="M129.916 99.9681V98.6836H138.884V99.9681H135.124V110.641H133.676V99.9681H129.916Z" fill="#14A800"/>
</svg>
