<svg width="364" height="116" viewBox="0 0 364 116" fill="none" xmlns="http://www.w3.org/2000/svg">
<path d="M56.9118 20.093C57.8258 20.3881 58.7915 20.4063 59.7329 20.6467C66.5206 22.3932 71.005 28.3992 71.4468 35.2785C71.5808 37.384 71.0477 41.0746 71.5747 42.9002C72.315 45.456 76.0897 46.2318 77.9115 44.2906C84.2848 38.1537 90.0001 30.4803 96.3917 24.4712C98.8807 22.1315 101.885 20.6663 105.233 20.0456C106.778 20.0019 108.203 19.953 109.489 20.0899C116.167 20.0899 122.966 26.5507 122.966 33.6781L123 87.5075C122.269 95.972 109.678 95.7834 108.879 87.9061C108.294 82.1252 109.33 75.4102 108.885 69.5441C108.535 64.9407 104.008 62.4975 100.48 65.8717C92.6688 73.3443 85.7136 82.4994 77.878 90.0451C69.9235 97.043 57.3292 94.0339 53.5424 84.1303C51.7602 79.466 53.3504 75.4254 52.5248 71.0715C51.9826 68.2084 48.5583 66.9092 46.2703 68.7317L26.0232 90.1546C10.2422 102.434 -8.9966 82.7276 4.63963 67.2013C17.5782 52.4691 32.0675 38.9844 45.0426 24.2643C47.4372 22.0798 51.2148 20.3881 54.4563 20.0869H56.9118V20.093Z" fill="#18C900"/>
<path d="M163 93H141.455V23.1818H163.955C170.727 23.1818 176.523 24.5795 181.341 27.375C186.159 30.1477 189.852 34.1364 192.42 39.3409C194.989 44.5227 196.273 50.7273 196.273 57.9545C196.273 65.2273 194.977 71.4886 192.386 76.7386C189.795 81.9659 186.023 85.9886 181.068 88.8068C176.114 91.6023 170.091 93 163 93ZM149.909 85.5H162.455C168.227 85.5 173.011 84.3864 176.807 82.1591C180.602 79.9318 183.432 76.7614 185.295 72.6477C187.159 68.5341 188.091 63.6364 188.091 57.9545C188.091 52.3182 187.17 47.4659 185.33 43.3977C183.489 39.3068 180.739 36.1705 177.08 33.9886C173.42 31.7841 168.864 30.6818 163.409 30.6818H149.909V85.5ZM230.636 94.0909C225.909 94.0909 221.761 92.9659 218.193 90.7159C214.648 88.4659 211.875 85.3182 209.875 81.2727C207.898 77.2273 206.909 72.5 206.909 67.0909C206.909 61.6364 207.898 56.875 209.875 52.8068C211.875 48.7386 214.648 45.5795 218.193 43.3295C221.761 41.0795 225.909 39.9545 230.636 39.9545C235.364 39.9545 239.5 41.0795 243.045 43.3295C246.614 45.5795 249.386 48.7386 251.364 52.8068C253.364 56.875 254.364 61.6364 254.364 67.0909C254.364 72.5 253.364 77.2273 251.364 81.2727C249.386 85.3182 246.614 88.4659 243.045 90.7159C239.5 92.9659 235.364 94.0909 230.636 94.0909ZM230.636 86.8636C234.227 86.8636 237.182 85.9432 239.5 84.1023C241.818 82.2614 243.534 79.8409 244.648 76.8409C245.761 73.8409 246.318 70.5909 246.318 67.0909C246.318 63.5909 245.761 60.3295 244.648 57.3068C243.534 54.2841 241.818 51.8409 239.5 49.9773C237.182 48.1136 234.227 47.1818 230.636 47.1818C227.045 47.1818 224.091 48.1136 221.773 49.9773C219.455 51.8409 217.739 54.2841 216.625 57.3068C215.511 60.3295 214.955 63.5909 214.955 67.0909C214.955 70.5909 215.511 73.8409 216.625 76.8409C217.739 79.8409 219.455 82.2614 221.773 84.1023C224.091 85.9432 227.045 86.8636 230.636 86.8636ZM287.918 94.0909C283.009 94.0909 278.781 92.9318 275.236 90.6136C271.69 88.2955 268.963 85.1023 267.054 81.0341C265.145 76.9659 264.19 72.3182 264.19 67.0909C264.19 61.7727 265.168 57.0795 267.122 53.0114C269.099 48.9205 271.849 45.7273 275.372 43.4318C278.918 41.1136 283.054 39.9545 287.781 39.9545C291.463 39.9545 294.781 40.6364 297.736 42C300.69 43.3636 303.111 45.2727 304.997 47.7273C306.884 50.1818 308.054 53.0455 308.509 56.3182H300.463C299.849 53.9318 298.486 51.8182 296.372 49.9773C294.281 48.1136 291.463 47.1818 287.918 47.1818C284.781 47.1818 282.031 48 279.668 49.6364C277.327 51.25 275.497 53.5341 274.179 56.4886C272.884 59.4205 272.236 62.8636 272.236 66.8182C272.236 70.8636 272.872 74.3864 274.145 77.3864C275.44 80.3864 277.259 82.7159 279.599 84.375C281.963 86.0341 284.736 86.8636 287.918 86.8636C290.009 86.8636 291.906 86.5 293.611 85.7727C295.315 85.0455 296.759 84 297.94 82.6364C299.122 81.2727 299.963 79.6364 300.463 77.7273H308.509C308.054 80.8182 306.929 83.6023 305.134 86.0795C303.361 88.5341 301.009 90.4886 298.077 91.9432C295.168 93.375 291.781 94.0909 287.918 94.0909ZM357.361 52.3636L350.134 54.4091C349.679 53.2045 349.009 52.0341 348.122 50.8977C347.259 49.7386 346.077 48.7841 344.577 48.0341C343.077 47.2841 341.156 46.9091 338.815 46.9091C335.611 46.9091 332.94 47.6477 330.804 49.125C328.69 50.5795 327.634 52.4318 327.634 54.6818C327.634 56.6818 328.361 58.2614 329.815 59.4205C331.27 60.5795 333.543 61.5455 336.634 62.3182L344.406 64.2273C349.088 65.3636 352.577 67.1023 354.872 69.4432C357.168 71.7614 358.315 74.75 358.315 78.4091C358.315 81.4091 357.452 84.0909 355.724 86.4545C354.02 88.8182 351.634 90.6818 348.565 92.0455C345.497 93.4091 341.929 94.0909 337.861 94.0909C332.52 94.0909 328.099 92.9318 324.599 90.6136C321.099 88.2955 318.884 84.9091 317.952 80.4545L325.588 78.5455C326.315 81.3636 327.69 83.4773 329.713 84.8864C331.759 86.2955 334.429 87 337.724 87C341.474 87 344.452 86.2045 346.656 84.6136C348.884 83 349.997 81.0682 349.997 78.8182C349.997 77 349.361 75.4773 348.088 74.25C346.815 73 344.861 72.0682 342.224 71.4545L333.497 69.4091C328.702 68.2727 325.179 66.5114 322.929 64.125C320.702 61.7159 319.588 58.7045 319.588 55.0909C319.588 52.1364 320.418 49.5227 322.077 47.25C323.759 44.9773 326.043 43.1932 328.929 41.8977C331.838 40.6023 335.134 39.9545 338.815 39.9545C343.997 39.9545 348.065 41.0909 351.02 43.3636C353.997 45.6364 356.111 48.6364 357.361 52.3636Z" fill="#fff"/>
</svg>
